G04 start of page 12 for group -4078 idx -4078 *
G04 Title: (unknown), bottomsilk *
G04 Creator: pcb 20091103 *
G04 CreationDate: Sun Apr 13 13:29:21 2025 UTC *
G04 For: bh *
G04 Format: Gerber/RS-274X *
G04 PCB-Dimensions: 730000 950000 *
G04 PCB-Coordinate-Origin: lower left *
%MOIN*%
%FSLAX25Y25*%
%LNBOTTOMSILK*%
%ADD11C,0.0200*%
%ADD13C,0.0100*%
%ADD52C,0.0060*%
%ADD56C,0.0102*%
%ADD87C,0.0080*%
G54D11*G36*
X314500Y328500D02*X316500D01*
Y325500D01*
X314500D01*
Y328500D01*
G37*
G36*
X294000Y323000D02*X297000D01*
Y321000D01*
X294000D01*
Y323000D01*
G37*
G54D52*X429000Y364000D02*X444000Y379000D01*
Y364000D02*X429000Y379000D01*
X438000Y360500D02*X452500D01*
X382000Y331000D02*X399500D01*
Y327000D01*
X529500Y183000D02*X531000D01*
X532000Y182000D01*
X535000D01*
X519000Y173000D02*X540500D01*
X535000Y182000D02*X536000Y183000D01*
X540500D01*
X405500D02*X417500D01*
X453000D02*X465000D01*
X519000Y193000D02*X531000D01*
X532000Y192000D01*
X535000D01*
X536000Y193000D01*
X540500D01*
X417500Y183000D02*Y197000D01*
X465000Y183000D02*Y197000D01*
G54D56*X417500Y159310D02*Y168200D01*
Y159310D02*X418770Y158040D01*
X422580D01*
X423850Y159310D01*
Y168200D01*
X417500Y163120D02*X423850D01*
X464000Y159810D02*Y168700D01*
Y159810D02*X465270Y158540D01*
X469080D01*
X470350Y159810D01*
Y168700D01*
X464000Y163620D02*X470350D01*
X376000Y381810D02*Y390700D01*
Y381810D02*X377270Y380540D01*
X381080D01*
X382350Y381810D01*
Y390700D01*
X376000Y385620D02*X382350D01*
X409000Y322810D02*Y331700D01*
Y322810D02*X410270Y321540D01*
X414080D01*
X415350Y322810D01*
Y331700D01*
X409000Y326620D02*X415350D01*
X390500Y299310D02*Y308200D01*
Y299310D02*X391770Y298040D01*
X395580D01*
X396850Y299310D01*
Y308200D01*
X390500Y303120D02*X396850D01*
X269000Y302810D02*Y311700D01*
Y302810D02*X270270Y301540D01*
X274080D01*
X275350Y302810D01*
Y311700D01*
X269000Y306620D02*X275350D01*
X236370Y325600D02*X240180D01*
X235100Y324330D02*X236370Y325600D01*
X235100Y316710D02*Y324330D01*
Y316710D02*X236370Y315440D01*
X240180D01*
G54D11*X499900Y257400D02*Y239600D01*
G54D13*Y257400D02*X506900Y259900D01*
X541100D01*
Y237100D01*
X506900D02*X541100D01*
X506900D02*X499900Y239600D01*
G54D87*X517740Y210362D02*Y205638D01*
X510260Y210362D02*Y205638D01*
X439138Y273260D02*X443862D01*
X439138Y280740D02*X443862D01*
X422260Y259362D02*Y254638D01*
X429740Y259362D02*Y254638D01*
G54D11*X498100Y257400D02*Y239600D01*
G54D13*X491100Y237100D01*
X456900D02*X491100D01*
X456900Y259900D02*Y237100D01*
Y259900D02*X491100D01*
X498100Y257400D01*
G54D87*X471638Y305740D02*X476362D01*
X471638Y298260D02*X476362D01*
X478107Y320745D02*X478893D01*
X478107Y326255D02*X478893D01*
X451240Y185862D02*Y181138D01*
X443760Y185862D02*Y181138D01*
X451240Y167362D02*Y162638D01*
X443760Y167362D02*Y162638D01*
X485138Y164260D02*X489862D01*
X485138Y171740D02*X489862D01*
X480138Y174260D02*X484862D01*
X480138Y181740D02*X484862D01*
X488107Y151245D02*X488893D01*
X488107Y156755D02*X488893D01*
G54D11*X422900Y116100D02*Y133900D01*
G54D13*X429900Y136400D01*
X464100D01*
Y113600D01*
X429900D01*
X422900Y116100D01*
G54D87*X422100Y209800D02*Y193200D01*
Y209800D02*X456900D01*
Y193200D01*
X422100D02*X456900D01*
X430638Y179760D02*X435362D01*
X430638Y187240D02*X435362D01*
G54D13*X454000Y166000D02*Y179900D01*
X466800D01*
Y166000D01*
X454000D01*
G54D87*X430638Y170260D02*X435362D01*
X430638Y177740D02*X435362D01*
X360638Y397260D02*X365362D01*
X360638Y404740D02*X365362D01*
X355740Y387862D02*Y383138D01*
X348260Y387862D02*Y383138D01*
X353638Y356260D02*X358362D01*
X353638Y363740D02*X358362D01*
X290638Y366260D02*X295362D01*
X290638Y373740D02*X295362D01*
G54D13*X373500Y394500D02*Y380600D01*
X360700D02*X373500D01*
X360700Y394500D02*Y380600D01*
Y394500D02*X373500D01*
G54D87*X291638Y394740D02*X296362D01*
X291638Y387260D02*X296362D01*
G54D11*X433700Y247400D02*X442300D01*
G54D13*X433700D02*X432500Y249800D01*
Y265600D02*Y249800D01*
Y265600D02*X443500D01*
Y249800D01*
X442300Y247400D01*
G54D87*X385638Y253240D02*X390362D01*
X385638Y245760D02*X390362D01*
X385638Y268240D02*X390362D01*
X385638Y260760D02*X390362D01*
G54D13*X367500Y319500D02*Y333400D01*
X380300D01*
Y319500D01*
X367500D01*
G54D87*X373740Y357362D02*Y352638D01*
X366260Y357362D02*Y352638D01*
X353638Y337240D02*X358362D01*
X353638Y329760D02*X358362D01*
G54D13*X367500Y303500D02*Y317400D01*
X380300D01*
Y303500D01*
X367500D01*
G54D87*X353638Y310240D02*X358362D01*
X353638Y302760D02*X358362D01*
X293138Y316740D02*X297862D01*
X293138Y309260D02*X297862D01*
X466138Y310760D02*X470862D01*
X466138Y318240D02*X470862D01*
X445138Y322740D02*X449862D01*
X445138Y315260D02*X449862D01*
X424138Y314240D02*X428862D01*
X424138Y306760D02*X428862D01*
X426107Y322755D02*X426893D01*
X426107Y317245D02*X426893D01*
X390240Y322862D02*Y318138D01*
X382760Y322862D02*Y318138D01*
G54D13*X420600Y366100D02*Y376900D01*
X452400D01*
Y366100D01*
X420600D01*
G54D87*X464638Y375240D02*X469362D01*
X464638Y367760D02*X469362D01*
X404240Y185862D02*Y181138D01*
X396760Y185862D02*Y181138D01*
G54D13*X407000Y166000D02*Y179900D01*
X419800D01*
Y166000D01*
X407000D01*
G54D87*X375100Y209800D02*Y193200D01*
Y209800D02*X409900D01*
Y193200D01*
X375100D02*X409900D01*
X336740Y207862D02*Y203138D01*
X329260Y207862D02*Y203138D01*
X391138Y280740D02*X395862D01*
X391138Y273260D02*X395862D01*
X369638Y291760D02*X374362D01*
X369638Y299240D02*X374362D01*
X353745Y317717D02*X358469D01*
X353745Y325197D02*X358469D01*
X358638Y277260D02*X363362D01*
X358638Y284740D02*X363362D01*
X318607Y208245D02*X319393D01*
X318607Y213755D02*X319393D01*
X318607Y199245D02*X319393D01*
X318607Y204755D02*X319393D01*
X315107Y221745D02*X315893D01*
X315107Y227255D02*X315893D01*
X315107Y233245D02*X315893D01*
X315107Y238755D02*X315893D01*
X404240Y167362D02*Y162638D01*
X396760Y167362D02*Y162638D01*
X383638Y170260D02*X388362D01*
X383638Y177740D02*X388362D01*
X383638Y179760D02*X388362D01*
X383638Y187240D02*X388362D01*
G54D11*X322600Y191100D02*X340400D01*
G54D13*X342900Y184100D01*
Y149900D01*
X320100D02*X342900D01*
X320100Y184100D02*Y149900D01*
Y184100D02*X322600Y191100D01*
G54D11*X337100Y103400D02*X354900D01*
G54D13*X337100D02*X334600Y110400D01*
Y144600D02*Y110400D01*
Y144600D02*X357400D01*
Y110400D01*
X354900Y103400D01*
G54D87*X305755Y111393D02*Y110607D01*
X300245Y111393D02*Y110607D01*
X268745Y108393D02*Y107607D01*
X274255Y108393D02*Y107607D01*
G54D13*X219000Y187500D02*Y148500D01*
X188000D02*X219000D01*
X188000Y187500D02*Y148500D01*
X206000Y187500D02*X219000D01*
X188000D02*X201000D01*
G75*G03X206000Y187500I2500J0D01*G01*
G54D87*X239638Y136740D02*X244362D01*
X239638Y129260D02*X244362D01*
X240138Y108760D02*X244862D01*
X240138Y116240D02*X244862D01*
X240138Y118760D02*X244862D01*
X240138Y126240D02*X244862D01*
G54D11*X190800Y250200D02*X208200D01*
G54D13*X190800D02*X188300Y255000D01*
Y284800D02*Y255000D01*
Y284800D02*X210700D01*
Y255000D01*
X208200Y250200D01*
G54D87*X226260Y286862D02*Y282138D01*
X233740Y286862D02*Y282138D01*
X225138Y386760D02*X229862D01*
X225138Y394240D02*X229862D01*
X226138Y380740D02*X230862D01*
X226138Y373260D02*X230862D01*
X255138Y394740D02*X259862D01*
X255138Y387260D02*X259862D01*
X255138Y397260D02*X259862D01*
X255138Y404740D02*X259862D01*
X270638Y380740D02*X275362D01*
X270638Y373260D02*X275362D01*
X316138Y253260D02*X320862D01*
X316138Y260740D02*X320862D01*
X268138Y252760D02*X272862D01*
X268138Y260240D02*X272862D01*
X244638Y251260D02*X249362D01*
X244638Y258740D02*X249362D01*
X244638Y249740D02*X249362D01*
X244638Y242260D02*X249362D01*
X319240Y329362D02*Y324638D01*
X311760Y329362D02*Y324638D01*
X293138Y336760D02*X297862D01*
X293138Y344240D02*X297862D01*
X293138Y327760D02*X297862D01*
X293138Y335240D02*X297862D01*
X293138Y325740D02*X297862D01*
X293138Y318260D02*X297862D01*
X313607Y303745D02*X314393D01*
X313607Y309255D02*X314393D01*
X309138Y289760D02*X313862D01*
X309138Y297240D02*X313862D01*
X253638Y314240D02*X258362D01*
X253638Y306760D02*X258362D01*
G54D13*X270500Y321500D02*X284400D01*
Y308700D01*
X270500D02*X284400D01*
X270500Y321500D02*Y308700D01*
G54D87*X249138Y350240D02*X253862D01*
X249138Y342760D02*X253862D01*
X249138Y333760D02*X253862D01*
X249138Y341240D02*X253862D01*
X353638Y343760D02*X358362D01*
X353638Y351240D02*X358362D01*
X314107Y364255D02*X314893D01*
X314107Y358745D02*X314893D01*
X329260Y253862D02*Y249138D01*
X336740Y253862D02*Y249138D01*
X333755Y294893D02*Y294107D01*
X328245Y294893D02*Y294107D01*
X273245Y180393D02*Y179607D01*
X278755Y180393D02*Y179607D01*
G54D13*X260000Y187500D02*Y153500D01*
X229000D02*X260000D01*
X229000Y187500D02*Y153500D01*
X247000Y187500D02*X260000D01*
X229000D02*X242000D01*
G75*G03X247000Y187500I2500J0D01*G01*
G54D87*X253638Y219760D02*X258362D01*
X253638Y227240D02*X258362D01*
X273638D02*X278362D01*
X273638Y219760D02*X278362D01*
X273638Y230760D02*X278362D01*
X273638Y238240D02*X278362D01*
X253638D02*X258362D01*
X253638Y230760D02*X258362D01*
X212638Y231260D02*X217362D01*
X212638Y238740D02*X217362D01*
X246138Y363760D02*X250862D01*
X246138Y371240D02*X250862D01*
X226138Y363760D02*X230862D01*
X226138Y371240D02*X230862D01*
G54D13*X245500Y322000D02*Y308100D01*
X232700D02*X245500D01*
X232700Y322000D02*Y308100D01*
Y322000D02*X245500D01*
G54D52*X528000Y231400D02*Y231900D01*
X530500Y234400D01*
Y235400D01*
X528000Y234400D02*Y235400D01*
Y234400D02*X530500Y231900D01*
Y231400D02*Y231900D01*
X531701D02*X532201Y231400D01*
X533701D01*
X534201Y231900D01*
Y232900D01*
X531701Y235400D02*X534201Y232900D01*
X531701Y235400D02*X534201D01*
X535402Y234900D02*X535902Y235400D01*
X535402Y231900D02*Y234900D01*
Y231900D02*X535902Y231400D01*
X536902D01*
X537402Y231900D01*
Y234900D01*
X536902Y235400D02*X537402Y234900D01*
X535902Y235400D02*X536902D01*
X535402Y234400D02*X537402Y232400D01*
X538603Y235400D02*X540603Y233400D01*
Y231900D02*Y233400D01*
X540103Y231400D02*X540603Y231900D01*
X539103Y231400D02*X540103D01*
X538603Y231900D02*X539103Y231400D01*
X538603Y231900D02*Y232900D01*
X539103Y233400D01*
X540603D01*
X439900Y242500D02*Y244000D01*
X439400Y244500D02*X439900Y244000D01*
X436400Y244500D02*X439400D01*
X436400D02*X435900Y244000D01*
Y242500D02*Y244000D01*
X436400Y241299D02*X435900Y240799D01*
Y239299D02*Y240799D01*
Y239299D02*X436400Y238799D01*
X437400D01*
X439900Y241299D02*X437400Y238799D01*
X439900D02*Y241299D01*
X439400Y237598D02*X439900Y237098D01*
X436400Y237598D02*X439400D01*
X436400D02*X435900Y237098D01*
Y236098D02*Y237098D01*
Y236098D02*X436400Y235598D01*
X439400D01*
X439900Y236098D02*X439400Y235598D01*
X439900Y236098D02*Y237098D01*
X438900Y237598D02*X436900Y235598D01*
X439900Y232897D02*Y233897D01*
X435900Y233397D02*X439900D01*
X436900Y234397D02*X435900Y233397D01*
X424350Y244650D02*Y246650D01*
Y244650D02*X424850Y244150D01*
X425850D01*
X426350Y244650D02*X425850Y244150D01*
X426350Y244650D02*Y246150D01*
X424350D02*X428350D01*
X426350D02*X428350Y244150D01*
X424850Y242949D02*X424350Y242449D01*
Y240949D02*Y242449D01*
Y240949D02*X424850Y240449D01*
X425850D01*
X428350Y242949D02*X425850Y240449D01*
X428350D02*Y242949D01*
X424850Y239248D02*X424350Y238748D01*
Y237248D02*Y238748D01*
Y237248D02*X424850Y236748D01*
X425850D01*
X428350Y239248D02*X425850Y236748D01*
X428350D02*Y239248D01*
X424350Y234047D02*X424850Y233547D01*
X424350Y234047D02*Y235047D01*
X424850Y235547D02*X424350Y235047D01*
X424850Y235547D02*X427850D01*
X428350Y235047D01*
X426350Y234047D02*X426850Y233547D01*
X426350Y234047D02*Y235547D01*
X428350Y234047D02*Y235047D01*
Y234047D02*X427850Y233547D01*
X426850D02*X427850D01*
X480500Y230400D02*Y230900D01*
X483000Y233400D01*
Y234400D01*
X480500Y233400D02*Y234400D01*
Y233400D02*X483000Y230900D01*
Y230400D02*Y230900D01*
X484201D02*X484701Y230400D01*
X486201D01*
X486701Y230900D01*
Y231900D01*
X484201Y234400D02*X486701Y231900D01*
X484201Y234400D02*X486701D01*
X488402D02*X489402D01*
X488902Y230400D02*Y234400D01*
X487902Y231400D02*X488902Y230400D01*
X490603Y233900D02*X491103Y234400D01*
X490603Y230900D02*Y233900D01*
Y230900D02*X491103Y230400D01*
X492103D01*
X492603Y230900D01*
Y233900D01*
X492103Y234400D02*X492603Y233900D01*
X491103Y234400D02*X492103D01*
X490603Y233400D02*X492603Y231400D01*
X493445Y175531D02*X495445D01*
X495945Y176031D01*
Y177031D01*
X495445Y177531D02*X495945Y177031D01*
X493945Y177531D02*X495445D01*
X493945Y175531D02*Y179531D01*
Y177531D02*X495945Y179531D01*
X497146Y176031D02*X497646Y175531D01*
X499146D01*
X499646Y176031D01*
Y177031D01*
X497146Y179531D02*X499646Y177031D01*
X497146Y179531D02*X499646D01*
X501347D02*X502347D01*
X501847Y175531D02*Y179531D01*
X500847Y176531D02*X501847Y175531D01*
X503548Y176031D02*X504048Y175531D01*
X505548D01*
X506048Y176031D01*
Y177031D01*
X503548Y179531D02*X506048Y177031D01*
X503548Y179531D02*X506048D01*
X503850Y213150D02*Y215150D01*
Y213150D02*X504350Y212650D01*
X505350D01*
X505850Y213150D02*X505350Y212650D01*
X505850Y213150D02*Y214650D01*
X503850D02*X507850D01*
X505850D02*X507850Y212650D01*
X504350Y211449D02*X503850Y210949D01*
Y209449D02*Y210949D01*
Y209449D02*X504350Y208949D01*
X505350D01*
X507850Y211449D02*X505350Y208949D01*
X507850D02*Y211449D01*
X504350Y207748D02*X503850Y207248D01*
Y206248D02*Y207248D01*
Y206248D02*X504350Y205748D01*
X507350D01*
X507850Y206248D02*X507350Y205748D01*
X507850Y206248D02*Y207248D01*
X507350Y207748D02*X507850Y207248D01*
X505850Y205748D02*Y207248D01*
X507850Y204547D02*X505350Y202047D01*
X503850D02*X505350D01*
X503850D02*Y204547D01*
X459850Y194650D02*Y196650D01*
Y194650D02*X460350Y194150D01*
X461350D01*
X461850Y194650D02*X461350Y194150D01*
X461850Y194650D02*Y196150D01*
X459850D02*X463850D01*
X461850D02*X463850Y194150D01*
X460350Y192949D02*X459850Y192449D01*
Y190949D02*Y192449D01*
Y190949D02*X460350Y190449D01*
X461350D01*
X463850Y192949D02*X461350Y190449D01*
X463850D02*Y192949D01*
X463350Y189248D02*X463850Y188748D01*
X460350Y189248D02*X463350D01*
X460350D02*X459850Y188748D01*
Y187748D02*Y188748D01*
Y187748D02*X460350Y187248D01*
X463350D01*
X463850Y187748D02*X463350Y187248D01*
X463850Y187748D02*Y188748D01*
X462850Y189248D02*X460850Y187248D01*
X459850Y184547D02*X460350Y184047D01*
X459850Y184547D02*Y185547D01*
X460350Y186047D02*X459850Y185547D01*
X460350Y186047D02*X463350D01*
X463850Y185547D01*
X461850Y184547D02*X462350Y184047D01*
X461850Y184547D02*Y186047D01*
X463850Y184547D02*Y185547D01*
Y184547D02*X463350Y184047D01*
X462350D02*X463350D01*
X442000Y212500D02*X444000D01*
X444500Y213000D01*
Y214000D01*
X444000Y214500D02*X444500Y214000D01*
X442500Y214500D02*X444000D01*
X442500Y212500D02*Y216500D01*
Y214500D02*X444500Y216500D01*
X445701Y213000D02*X446201Y212500D01*
X447701D01*
X448201Y213000D01*
Y214000D01*
X445701Y216500D02*X448201Y214000D01*
X445701Y216500D02*X448201D01*
X449402Y216000D02*X449902Y216500D01*
X449402Y213000D02*Y216000D01*
Y213000D02*X449902Y212500D01*
X450902D01*
X451402Y213000D01*
Y216000D01*
X450902Y216500D02*X451402Y216000D01*
X449902Y216500D02*X450902D01*
X449402Y215500D02*X451402Y213500D01*
X452603Y216500D02*X454603Y214500D01*
Y213000D02*Y214500D01*
X454103Y212500D02*X454603Y213000D01*
X453103Y212500D02*X454103D01*
X452603Y213000D02*X453103Y212500D01*
X452603Y213000D02*Y214000D01*
X453103Y214500D01*
X454603D01*
X425850Y188350D02*X427850D01*
X428350Y188850D01*
Y189850D01*
X427850Y190350D02*X428350Y189850D01*
X426350Y190350D02*X427850D01*
X426350Y188350D02*Y192350D01*
Y190350D02*X428350Y192350D01*
X429551Y188850D02*X430051Y188350D01*
X431551D01*
X432051Y188850D01*
Y189850D01*
X429551Y192350D02*X432051Y189850D01*
X429551Y192350D02*X432051D01*
X433752D02*X434752D01*
X434252Y188350D02*Y192350D01*
X433252Y189350D02*X434252Y188350D01*
X436453Y192350D02*X437453D01*
X436953Y188350D02*Y192350D01*
X435953Y189350D02*X436953Y188350D01*
X497350Y157850D02*X499350D01*
X499850Y158350D01*
Y159350D01*
X499350Y159850D02*X499850Y159350D01*
X497850Y159850D02*X499350D01*
X497850Y157850D02*Y161850D01*
Y159850D02*X499850Y161850D01*
X501051Y158350D02*X501551Y157850D01*
X503051D01*
X503551Y158350D01*
Y159350D01*
X501051Y161850D02*X503551Y159350D01*
X501051Y161850D02*X503551D01*
X505252D02*X506252D01*
X505752Y157850D02*Y161850D01*
X504752Y158850D02*X505752Y157850D01*
X507453Y158350D02*X507953Y157850D01*
X508953D01*
X509453Y158350D01*
Y161350D01*
X508953Y161850D02*X509453Y161350D01*
X507953Y161850D02*X508953D01*
X507453Y161350D02*X507953Y161850D01*
Y159850D02*X509453D01*
X484307Y148743D02*X485807D01*
X483807Y148243D02*X484307Y148743D01*
X483807Y145243D02*Y148243D01*
Y145243D02*X484307Y144743D01*
X485807D01*
X487008Y146743D02*X489008Y144743D01*
X487008Y146743D02*X489508D01*
X489008Y144743D02*Y148743D01*
X490709Y146743D02*X492709Y144743D01*
X490709Y146743D02*X493209D01*
X492709Y144743D02*Y148743D01*
X370350Y281850D02*X372350D01*
X372850Y282350D01*
Y283350D01*
X372350Y283850D02*X372850Y283350D01*
X370850Y283850D02*X372350D01*
X370850Y281850D02*Y285850D01*
Y283850D02*X372850Y285850D01*
X374051Y282350D02*X374551Y281850D01*
X376051D01*
X376551Y282350D01*
Y283350D01*
X374051Y285850D02*X376551Y283350D01*
X374051Y285850D02*X376551D01*
X377752Y282350D02*X378252Y281850D01*
X379752D01*
X380252Y282350D01*
Y283350D01*
X377752Y285850D02*X380252Y283350D01*
X377752Y285850D02*X380252D01*
X381953D02*X382953D01*
X382453Y281850D02*Y285850D01*
X381453Y282850D02*X382453Y281850D01*
X392850Y324650D02*Y326650D01*
Y324650D02*X393350Y324150D01*
X394350D01*
X394850Y324650D02*X394350Y324150D01*
X394850Y324650D02*Y326150D01*
X392850D02*X396850D01*
X394850D02*X396850Y324150D01*
X393350Y322949D02*X392850Y322449D01*
Y320949D02*Y322449D01*
Y320949D02*X393350Y320449D01*
X394350D01*
X396850Y322949D02*X394350Y320449D01*
X396850D02*Y322949D01*
X393350Y319248D02*X392850Y318748D01*
Y317748D02*Y318748D01*
Y317748D02*X393350Y317248D01*
X396350D01*
X396850Y317748D02*X396350Y317248D01*
X396850Y317748D02*Y318748D01*
X396350Y319248D02*X396850Y318748D01*
X394850Y317248D02*Y318748D01*
X396350Y316047D02*X396850Y315547D01*
X393350Y316047D02*X396350D01*
X393350D02*X392850Y315547D01*
Y314547D02*Y315547D01*
Y314547D02*X393350Y314047D01*
X396350D01*
X396850Y314547D02*X396350Y314047D01*
X396850Y314547D02*Y315547D01*
X395850Y316047D02*X393850Y314047D01*
X401200Y332500D02*X405200D01*
X401200Y331000D02*X401700Y330500D01*
X404700D01*
X405200Y331000D02*X404700Y330500D01*
X405200Y331000D02*Y333000D01*
X401200Y331000D02*Y333000D01*
X401700Y329299D02*X401200Y328799D01*
Y327299D02*Y328799D01*
Y327299D02*X401700Y326799D01*
X402700D01*
X405200Y329299D02*X402700Y326799D01*
X405200D02*Y329299D01*
Y324098D02*Y325098D01*
X401200Y324598D02*X405200D01*
X402200Y325598D02*X401200Y324598D01*
X401700Y322897D02*X401200Y322397D01*
Y320897D02*Y322397D01*
Y320897D02*X401700Y320397D01*
X402700D01*
X405200Y322897D02*X402700Y320397D01*
X405200D02*Y322897D01*
X391850Y239850D02*X393850D01*
X394350Y240350D01*
Y241350D01*
X393850Y241850D02*X394350Y241350D01*
X392350Y241850D02*X393850D01*
X392350Y239850D02*Y243850D01*
Y241850D02*X394350Y243850D01*
X395551Y240350D02*X396051Y239850D01*
X397551D01*
X398051Y240350D01*
Y241350D01*
X395551Y243850D02*X398051Y241350D01*
X395551Y243850D02*X398051D01*
X399252Y240350D02*X399752Y239850D01*
X401252D01*
X401752Y240350D01*
Y241350D01*
X399252Y243850D02*X401752Y241350D01*
X399252Y243850D02*X401752D01*
X402953Y243350D02*X403453Y243850D01*
X402953Y240350D02*Y243350D01*
Y240350D02*X403453Y239850D01*
X404453D01*
X404953Y240350D01*
Y243350D01*
X404453Y243850D02*X404953Y243350D01*
X403453Y243850D02*X404453D01*
X402953Y242850D02*X404953Y240850D01*
X392850Y254850D02*X394850D01*
X395350Y255350D01*
Y256350D01*
X394850Y256850D02*X395350Y256350D01*
X393350Y256850D02*X394850D01*
X393350Y254850D02*Y258850D01*
Y256850D02*X395350Y258850D01*
X396551Y255350D02*X397051Y254850D01*
X398551D01*
X399051Y255350D01*
Y256350D01*
X396551Y258850D02*X399051Y256350D01*
X396551Y258850D02*X399051D01*
X400252Y255350D02*X400752Y254850D01*
X402252D01*
X402752Y255350D01*
Y256350D01*
X400252Y258850D02*X402752Y256350D01*
X400252Y258850D02*X402752D01*
X403953Y255350D02*X404453Y254850D01*
X405953D01*
X406453Y255350D01*
Y256350D01*
X403953Y258850D02*X406453Y256350D01*
X403953Y258850D02*X406453D01*
X383700Y309500D02*X387700D01*
X383700Y308000D02*X384200Y307500D01*
X387200D01*
X387700Y308000D02*X387200Y307500D01*
X387700Y308000D02*Y310000D01*
X383700Y308000D02*Y310000D01*
X384200Y306299D02*X383700Y305799D01*
Y304299D02*Y305799D01*
Y304299D02*X384200Y303799D01*
X385200D01*
X387700Y306299D02*X385200Y303799D01*
X387700D02*Y306299D01*
Y301098D02*Y302098D01*
X383700Y301598D02*X387700D01*
X384700Y302598D02*X383700Y301598D01*
X387700Y298397D02*Y299397D01*
X383700Y298897D02*X387700D01*
X384700Y299897D02*X383700Y298897D01*
X342350Y307150D02*Y309150D01*
Y307150D02*X342850Y306650D01*
X343850D01*
X344350Y307150D02*X343850Y306650D01*
X344350Y307150D02*Y308650D01*
X342350D02*X346350D01*
X344350D02*X346350Y306650D01*
X342850Y305449D02*X342350Y304949D01*
Y303449D02*Y304949D01*
Y303449D02*X342850Y302949D01*
X343850D01*
X346350Y305449D02*X343850Y302949D01*
X346350D02*Y305449D01*
X342850Y301748D02*X342350Y301248D01*
Y299748D02*Y301248D01*
Y299748D02*X342850Y299248D01*
X343850D01*
X346350Y301748D02*X343850Y299248D01*
X346350D02*Y301748D01*
X344350Y298047D02*X342350Y296047D01*
X344350Y295547D02*Y298047D01*
X342350Y296047D02*X346350D01*
X325743Y293107D02*Y294607D01*
X325243Y295107D02*X325743Y294607D01*
X322243Y295107D02*X325243D01*
X322243D02*X321743Y294607D01*
Y293107D02*Y294607D01*
X325743Y290406D02*Y291406D01*
X321743Y290906D02*X325743D01*
X322743Y291906D02*X321743Y290906D01*
Y287705D02*X322243Y287205D01*
X321743Y287705D02*Y288705D01*
X322243Y289205D02*X321743Y288705D01*
X322243Y289205D02*X325243D01*
X325743Y288705D01*
X323743Y287705D02*X324243Y287205D01*
X323743Y287705D02*Y289205D01*
X325743Y287705D02*Y288705D01*
Y287705D02*X325243Y287205D01*
X324243D02*X325243D01*
X391350Y268350D02*X393350D01*
X393850Y268850D01*
Y269850D01*
X393350Y270350D02*X393850Y269850D01*
X391850Y270350D02*X393350D01*
X391850Y268350D02*Y272350D01*
Y270350D02*X393850Y272350D01*
X395051Y268850D02*X395551Y268350D01*
X397051D01*
X397551Y268850D01*
Y269850D01*
X395051Y272350D02*X397551Y269850D01*
X395051Y272350D02*X397551D01*
X399252D02*X400252D01*
X399752Y268350D02*Y272350D01*
X398752Y269350D02*X399752Y268350D01*
X401453Y271850D02*X401953Y272350D01*
X401453Y270850D02*Y271850D01*
Y270850D02*X401953Y270350D01*
X402953D01*
X403453Y270850D01*
Y271850D01*
X402953Y272350D02*X403453Y271850D01*
X401953Y272350D02*X402953D01*
X401453Y269850D02*X401953Y270350D01*
X401453Y268850D02*Y269850D01*
Y268850D02*X401953Y268350D01*
X402953D01*
X403453Y268850D01*
Y269850D01*
X402953Y270350D02*X403453Y269850D01*
X342393Y323257D02*Y325257D01*
Y323257D02*X342893Y322757D01*
X343893D01*
X344393Y323257D02*X343893Y322757D01*
X344393Y323257D02*Y324757D01*
X342393D02*X346393D01*
X344393D02*X346393Y322757D01*
X342893Y321556D02*X342393Y321056D01*
Y319556D02*Y321056D01*
Y319556D02*X342893Y319056D01*
X343893D01*
X346393Y321556D02*X343893Y319056D01*
X346393D02*Y321556D01*
X342893Y317855D02*X342393Y317355D01*
Y315855D02*Y317355D01*
Y315855D02*X342893Y315355D01*
X343893D01*
X346393Y317855D02*X343893Y315355D01*
X346393D02*Y317855D01*
X342393Y312154D02*Y314154D01*
X344393D01*
X343893Y313654D01*
Y312654D02*Y313654D01*
Y312654D02*X344393Y312154D01*
X345893D01*
X346393Y312654D02*X345893Y312154D01*
X346393Y312654D02*Y313654D01*
X345893Y314154D02*X346393Y313654D01*
X341850Y339150D02*Y341150D01*
Y339150D02*X342350Y338650D01*
X343350D01*
X343850Y339150D02*X343350Y338650D01*
X343850Y339150D02*Y340650D01*
X341850D02*X345850D01*
X343850D02*X345850Y338650D01*
X342350Y337449D02*X341850Y336949D01*
Y335449D02*Y336949D01*
Y335449D02*X342350Y334949D01*
X343350D01*
X345850Y337449D02*X343350Y334949D01*
X345850D02*Y337449D01*
X342350Y333748D02*X341850Y333248D01*
Y331748D02*Y333248D01*
Y331748D02*X342350Y331248D01*
X343350D01*
X345850Y333748D02*X343350Y331248D01*
X345850D02*Y333748D01*
X345350Y330047D02*X345850Y329547D01*
X344350Y330047D02*X345350D01*
X344350D02*X343850Y329547D01*
Y328547D02*Y329547D01*
Y328547D02*X344350Y328047D01*
X345350D01*
X345850Y328547D02*X345350Y328047D01*
X345850Y328547D02*Y329547D01*
X343350Y330047D02*X343850Y329547D01*
X342350Y330047D02*X343350D01*
X342350D02*X341850Y329547D01*
Y328547D02*Y329547D01*
Y328547D02*X342350Y328047D01*
X343350D01*
X343850Y328547D02*X343350Y328047D01*
X359350Y271350D02*X361350D01*
X361850Y271850D01*
Y272850D01*
X361350Y273350D02*X361850Y272850D01*
X359850Y273350D02*X361350D01*
X359850Y271350D02*Y275350D01*
Y273350D02*X361850Y275350D01*
X363051Y271850D02*X363551Y271350D01*
X365051D01*
X365551Y271850D01*
Y272850D01*
X363051Y275350D02*X365551Y272850D01*
X363051Y275350D02*X365551D01*
X366752Y271850D02*X367252Y271350D01*
X368752D01*
X369252Y271850D01*
Y272850D01*
X366752Y275350D02*X369252Y272850D01*
X366752Y275350D02*X369252D01*
X370453Y271850D02*X370953Y271350D01*
X371953D01*
X372453Y271850D01*
Y274850D01*
X371953Y275350D02*X372453Y274850D01*
X370953Y275350D02*X371953D01*
X370453Y274850D02*X370953Y275350D01*
Y273350D02*X372453D01*
X323350Y248150D02*Y250150D01*
Y248150D02*X323850Y247650D01*
X324850D01*
X325350Y248150D02*X324850Y247650D01*
X325350Y248150D02*Y249650D01*
X323350D02*X327350D01*
X325350D02*X327350Y247650D01*
X323850Y246449D02*X323350Y245949D01*
Y244449D02*Y245949D01*
Y244449D02*X323850Y243949D01*
X324850D01*
X327350Y246449D02*X324850Y243949D01*
X327350D02*Y246449D01*
X326850Y242748D02*X327350Y242248D01*
X323850Y242748D02*X326850D01*
X323850D02*X323350Y242248D01*
Y241248D02*Y242248D01*
Y241248D02*X323850Y240748D01*
X326850D01*
X327350Y241248D02*X326850Y240748D01*
X327350Y241248D02*Y242248D01*
X326350Y242748D02*X324350Y240748D01*
X421350Y300850D02*X423350D01*
X423850Y301350D01*
Y302350D01*
X423350Y302850D02*X423850Y302350D01*
X421850Y302850D02*X423350D01*
X421850Y300850D02*Y304850D01*
Y302850D02*X423850Y304850D01*
X425051Y301350D02*X425551Y300850D01*
X427051D01*
X427551Y301350D01*
Y302350D01*
X425051Y304850D02*X427551Y302350D01*
X425051Y304850D02*X427551D01*
X429252D02*X430252D01*
X429752Y300850D02*Y304850D01*
X428752Y301850D02*X429752Y300850D01*
X431453Y304850D02*X433453Y302850D01*
Y301350D02*Y302850D01*
X432953Y300850D02*X433453Y301350D01*
X431953Y300850D02*X432953D01*
X431453Y301350D02*X431953Y300850D01*
X431453Y301350D02*Y302350D01*
X431953Y302850D01*
X433453D01*
X457350Y320850D02*X459350D01*
X459850Y321350D01*
Y322350D01*
X459350Y322850D02*X459850Y322350D01*
X457850Y322850D02*X459350D01*
X457850Y320850D02*Y324850D01*
Y322850D02*X459850Y324850D01*
X461051Y321350D02*X461551Y320850D01*
X463051D01*
X463551Y321350D01*
Y322350D01*
X461051Y324850D02*X463551Y322350D01*
X461051Y324850D02*X463551D01*
X464752Y321350D02*X465252Y320850D01*
X466252D01*
X466752Y321350D01*
Y324350D01*
X466252Y324850D02*X466752Y324350D01*
X465252Y324850D02*X466252D01*
X464752Y324350D02*X465252Y324850D01*
Y322850D02*X466752D01*
X469453Y320850D02*X469953Y321350D01*
X468453Y320850D02*X469453D01*
X467953Y321350D02*X468453Y320850D01*
X467953Y321350D02*Y324350D01*
X468453Y324850D01*
X469453Y322850D02*X469953Y323350D01*
X467953Y322850D02*X469453D01*
X468453Y324850D02*X469453D01*
X469953Y324350D01*
Y323350D02*Y324350D01*
X441755Y309169D02*X443755D01*
X444255Y309669D01*
Y310669D01*
X443755Y311169D02*X444255Y310669D01*
X442255Y311169D02*X443755D01*
X442255Y309169D02*Y313169D01*
Y311169D02*X444255Y313169D01*
X445456Y309669D02*X445956Y309169D01*
X447456D01*
X447956Y309669D01*
Y310669D01*
X445456Y313169D02*X447956Y310669D01*
X445456Y313169D02*X447956D01*
X449157Y309669D02*X449657Y309169D01*
X450657D01*
X451157Y309669D01*
Y312669D01*
X450657Y313169D02*X451157Y312669D01*
X449657Y313169D02*X450657D01*
X449157Y312669D02*X449657Y313169D01*
Y311169D02*X451157D01*
X452358Y309169D02*X454358D01*
X452358D02*Y311169D01*
X452858Y310669D01*
X453858D01*
X454358Y311169D01*
Y312669D01*
X453858Y313169D02*X454358Y312669D01*
X452858Y313169D02*X453858D01*
X452358Y312669D02*X452858Y313169D01*
X472850Y292350D02*X474850D01*
X475350Y292850D01*
Y293850D01*
X474850Y294350D02*X475350Y293850D01*
X473350Y294350D02*X474850D01*
X473350Y292350D02*Y296350D01*
Y294350D02*X475350Y296350D01*
X476551Y292850D02*X477051Y292350D01*
X478551D01*
X479051Y292850D01*
Y293850D01*
X476551Y296350D02*X479051Y293850D01*
X476551Y296350D02*X479051D01*
X480752D02*X481752D01*
X481252Y292350D02*Y296350D01*
X480252Y293350D02*X481252Y292350D01*
X484453D02*X484953Y292850D01*
X483453Y292350D02*X484453D01*
X482953Y292850D02*X483453Y292350D01*
X482953Y292850D02*Y295850D01*
X483453Y296350D01*
X484453Y294350D02*X484953Y294850D01*
X482953Y294350D02*X484453D01*
X483453Y296350D02*X484453D01*
X484953Y295850D01*
Y294850D02*Y295850D01*
X470350Y332850D02*X471850D01*
X469850Y332350D02*X470350Y332850D01*
X469850Y329350D02*Y332350D01*
Y329350D02*X470350Y328850D01*
X471850D01*
X473051Y329350D02*X473551Y328850D01*
X475051D01*
X475551Y329350D01*
Y330350D01*
X473051Y332850D02*X475551Y330350D01*
X473051Y332850D02*X475551D01*
X476752Y332350D02*X477252Y332850D01*
X476752Y329350D02*Y332350D01*
Y329350D02*X477252Y328850D01*
X478252D01*
X478752Y329350D01*
Y332350D01*
X478252Y332850D02*X478752Y332350D01*
X477252Y332850D02*X478252D01*
X476752Y331850D02*X478752Y329850D01*
X479953Y329350D02*X480453Y328850D01*
X481453D01*
X481953Y329350D01*
Y332350D01*
X481453Y332850D02*X481953Y332350D01*
X480453Y332850D02*X481453D01*
X479953Y332350D02*X480453Y332850D01*
Y330850D02*X481953D01*
X419850Y329350D02*X421350D01*
X419350Y328850D02*X419850Y329350D01*
X419350Y325850D02*Y328850D01*
Y325850D02*X419850Y325350D01*
X421350D01*
X422551Y325850D02*X423051Y325350D01*
X424551D01*
X425051Y325850D01*
Y326850D01*
X422551Y329350D02*X425051Y326850D01*
X422551Y329350D02*X425051D01*
X426252Y328850D02*X426752Y329350D01*
X426252Y325850D02*Y328850D01*
Y325850D02*X426752Y325350D01*
X427752D01*
X428252Y325850D01*
Y328850D01*
X427752Y329350D02*X428252Y328850D01*
X426752Y329350D02*X427752D01*
X426252Y328350D02*X428252Y326350D01*
X429453Y325850D02*X429953Y325350D01*
X431453D01*
X431953Y325850D01*
Y326850D01*
X429453Y329350D02*X431953Y326850D01*
X429453Y329350D02*X431953D01*
X430755Y267669D02*X432755D01*
X433255Y268169D01*
Y269169D01*
X432755Y269669D02*X433255Y269169D01*
X431255Y269669D02*X432755D01*
X431255Y267669D02*Y271669D01*
Y269669D02*X433255Y271669D01*
X434456Y268169D02*X434956Y267669D01*
X436456D01*
X436956Y268169D01*
Y269169D01*
X434456Y271669D02*X436956Y269169D01*
X434456Y271669D02*X436956D01*
X438657D02*X439657D01*
X439157Y267669D02*Y271669D01*
X438157Y268669D02*X439157Y267669D01*
X440858Y271669D02*X443358Y269169D01*
Y267669D02*Y269169D01*
X440858Y267669D02*X443358D01*
X467900Y136000D02*X471900D01*
X467900Y134500D02*X468400Y134000D01*
X471400D01*
X471900Y134500D02*X471400Y134000D01*
X471900Y134500D02*Y136500D01*
X467900Y134500D02*Y136500D01*
X468400Y132799D02*X467900Y132299D01*
Y130799D02*Y132299D01*
Y130799D02*X468400Y130299D01*
X469400D01*
X471900Y132799D02*X469400Y130299D01*
X471900D02*Y132799D01*
Y127598D02*Y128598D01*
X467900Y128098D02*X471900D01*
X468900Y129098D02*X467900Y128098D01*
Y124397D02*Y126397D01*
X469900D01*
X469400Y125897D01*
Y124897D02*Y125897D01*
Y124897D02*X469900Y124397D01*
X471400D01*
X471900Y124897D02*X471400Y124397D01*
X471900Y124897D02*Y125897D01*
X471400Y126397D02*X471900Y125897D01*
X455700Y163500D02*X459700D01*
X455700Y162000D02*X456200Y161500D01*
X459200D01*
X459700Y162000D02*X459200Y161500D01*
X459700Y162000D02*Y164000D01*
X455700Y162000D02*Y164000D01*
X456200Y160299D02*X455700Y159799D01*
Y158299D02*Y159799D01*
Y158299D02*X456200Y157799D01*
X457200D01*
X459700Y160299D02*X457200Y157799D01*
X459700D02*Y160299D01*
X459200Y156598D02*X459700Y156098D01*
X456200Y156598D02*X459200D01*
X456200D02*X455700Y156098D01*
Y155098D02*Y156098D01*
Y155098D02*X456200Y154598D01*
X459200D01*
X459700Y155098D02*X459200Y154598D01*
X459700Y155098D02*Y156098D01*
X458700Y156598D02*X456700Y154598D01*
X459700Y151897D02*Y152897D01*
X455700Y152397D02*X459700D01*
X456700Y153397D02*X455700Y152397D01*
X442350Y156150D02*Y157650D01*
X441850Y158150D02*X442350Y157650D01*
X438850Y158150D02*X441850D01*
X438850D02*X438350Y157650D01*
Y156150D02*Y157650D01*
X440350Y154949D02*X438350Y152949D01*
X440350Y152449D02*Y154949D01*
X438350Y152949D02*X442350D01*
X438350Y149748D02*X438850Y149248D01*
X438350Y149748D02*Y150748D01*
X438850Y151248D02*X438350Y150748D01*
X438850Y151248D02*X441850D01*
X442350Y150748D01*
X440350Y149748D02*X440850Y149248D01*
X440350Y149748D02*Y151248D01*
X442350Y149748D02*Y150748D01*
Y149748D02*X441850Y149248D01*
X440850D02*X441850D01*
X428350Y164850D02*X430350D01*
X430850Y165350D01*
Y166350D01*
X430350Y166850D02*X430850Y166350D01*
X428850Y166850D02*X430350D01*
X428850Y164850D02*Y168850D01*
Y166850D02*X430850Y168850D01*
X432051Y165350D02*X432551Y164850D01*
X434051D01*
X434551Y165350D01*
Y166350D01*
X432051Y168850D02*X434551Y166350D01*
X432051Y168850D02*X434551D01*
X436252D02*X437252D01*
X436752Y164850D02*Y168850D01*
X435752Y165850D02*X436752Y164850D01*
X438453Y168350D02*X438953Y168850D01*
X438453Y165350D02*Y168350D01*
Y165350D02*X438953Y164850D01*
X439953D01*
X440453Y165350D01*
Y168350D01*
X439953Y168850D02*X440453Y168350D01*
X438953Y168850D02*X439953D01*
X438453Y167850D02*X440453Y165850D01*
X376850Y361150D02*Y363150D01*
Y361150D02*X377350Y360650D01*
X378350D01*
X378850Y361150D02*X378350Y360650D01*
X378850Y361150D02*Y362650D01*
X376850D02*X380850D01*
X378850D02*X380850Y360650D01*
X377350Y359449D02*X376850Y358949D01*
Y357449D02*Y358949D01*
Y357449D02*X377350Y356949D01*
X378350D01*
X380850Y359449D02*X378350Y356949D01*
X380850D02*Y359449D01*
X377350Y355748D02*X376850Y355248D01*
Y354248D02*Y355248D01*
Y354248D02*X377350Y353748D01*
X380350D01*
X380850Y354248D02*X380350Y353748D01*
X380850Y354248D02*Y355248D01*
X380350Y355748D02*X380850Y355248D01*
X378850Y353748D02*Y355248D01*
X380850Y351047D02*Y352047D01*
X376850Y351547D02*X380850D01*
X377850Y352547D02*X376850Y351547D01*
X312807Y356457D02*X314307D01*
X312307Y355957D02*X312807Y356457D01*
X312307Y352957D02*Y355957D01*
Y352957D02*X312807Y352457D01*
X314307D01*
X316008Y356457D02*X317008D01*
X316508Y352457D02*Y356457D01*
X315508Y353457D02*X316508Y352457D01*
X318209Y356457D02*X320209Y354457D01*
Y352957D02*Y354457D01*
X319709Y352457D02*X320209Y352957D01*
X318709Y352457D02*X319709D01*
X318209Y352957D02*X318709Y352457D01*
X318209Y352957D02*Y353957D01*
X318709Y354457D01*
X320209D01*
X362200Y378500D02*X366200D01*
X362200Y377000D02*X362700Y376500D01*
X365700D01*
X366200Y377000D02*X365700Y376500D01*
X366200Y377000D02*Y379000D01*
X362200Y377000D02*Y379000D01*
X362700Y375299D02*X362200Y374799D01*
Y373299D02*Y374799D01*
Y373299D02*X362700Y372799D01*
X363700D01*
X366200Y375299D02*X363700Y372799D01*
X366200D02*Y375299D01*
Y370098D02*Y371098D01*
X362200Y370598D02*X366200D01*
X363200Y371598D02*X362200Y370598D01*
X362700Y368897D02*X362200Y368397D01*
Y367397D02*Y368397D01*
Y367397D02*X362700Y366897D01*
X365700D01*
X366200Y367397D02*X365700Y366897D01*
X366200Y367397D02*Y368397D01*
X365700Y368897D02*X366200Y368397D01*
X364200Y366897D02*Y368397D01*
X332850Y362350D02*X334850D01*
X335350Y362850D01*
Y363850D01*
X334850Y364350D02*X335350Y363850D01*
X333350Y364350D02*X334850D01*
X333350Y362350D02*Y366350D01*
Y364350D02*X335350Y366350D01*
X336551Y362850D02*X337051Y362350D01*
X338551D01*
X339051Y362850D01*
Y363850D01*
X336551Y366350D02*X339051Y363850D01*
X336551Y366350D02*X339051D01*
X340252Y362850D02*X340752Y362350D01*
X341752D01*
X342252Y362850D01*
Y365850D01*
X341752Y366350D02*X342252Y365850D01*
X340752Y366350D02*X341752D01*
X340252Y365850D02*X340752Y366350D01*
Y364350D02*X342252D01*
X343453Y362850D02*X343953Y362350D01*
X345453D01*
X345953Y362850D01*
Y363850D01*
X343453Y366350D02*X345953Y363850D01*
X343453Y366350D02*X345953D01*
X342350Y354150D02*Y356150D01*
Y354150D02*X342850Y353650D01*
X343850D01*
X344350Y354150D02*X343850Y353650D01*
X344350Y354150D02*Y355650D01*
X342350D02*X346350D01*
X344350D02*X346350Y353650D01*
X342850Y352449D02*X342350Y351949D01*
Y350449D02*Y351949D01*
Y350449D02*X342850Y349949D01*
X343850D01*
X346350Y352449D02*X343850Y349949D01*
X346350D02*Y352449D01*
X342850Y348748D02*X342350Y348248D01*
Y346748D02*Y348248D01*
Y346748D02*X342850Y346248D01*
X343850D01*
X346350Y348748D02*X343850Y346248D01*
X346350D02*Y348748D01*
Y345047D02*X344350Y343047D01*
X342850D02*X344350D01*
X342350Y343547D02*X342850Y343047D01*
X342350Y343547D02*Y344547D01*
X342850Y345047D02*X342350Y344547D01*
X342850Y345047D02*X343850D01*
X344350Y344547D01*
Y343047D02*Y344547D01*
X306350Y332650D02*Y334650D01*
Y332650D02*X306850Y332150D01*
X307850D01*
X308350Y332650D02*X307850Y332150D01*
X308350Y332650D02*Y334150D01*
X306350D02*X310350D01*
X308350D02*X310350Y332150D01*
X308350Y330949D02*X306350Y328949D01*
X308350Y328449D02*Y330949D01*
X306350Y328949D02*X310350D01*
X306850Y327248D02*X306350Y326748D01*
Y325748D02*Y326748D01*
Y325748D02*X306850Y325248D01*
X309850D01*
X310350Y325748D02*X309850Y325248D01*
X310350Y325748D02*Y326748D01*
X309850Y327248D02*X310350Y326748D01*
X308350Y325248D02*Y326748D01*
X310850Y284850D02*X312850D01*
X313350Y285350D01*
Y286350D01*
X312850Y286850D02*X313350Y286350D01*
X311350Y286850D02*X312850D01*
X311350Y284850D02*Y288850D01*
Y286850D02*X313350Y288850D01*
X315051D02*X316051D01*
X315551Y284850D02*Y288850D01*
X314551Y285850D02*X315551Y284850D01*
X317252Y285350D02*X317752Y284850D01*
X318752D01*
X319252Y285350D01*
Y288350D01*
X318752Y288850D02*X319252Y288350D01*
X317752Y288850D02*X318752D01*
X317252Y288350D02*X317752Y288850D01*
Y286850D02*X319252D01*
X313893Y302957D02*X315393D01*
X313393Y302457D02*X313893Y302957D01*
X313393Y299457D02*Y302457D01*
Y299457D02*X313893Y298957D01*
X315393D01*
X316594Y299457D02*X317094Y298957D01*
X318094D01*
X318594Y299457D01*
Y302457D01*
X318094Y302957D02*X318594Y302457D01*
X317094Y302957D02*X318094D01*
X316594Y302457D02*X317094Y302957D01*
Y300957D02*X318594D01*
X312350Y247350D02*X314350D01*
X314850Y247850D01*
Y248850D01*
X314350Y249350D02*X314850Y248850D01*
X312850Y249350D02*X314350D01*
X312850Y247350D02*Y251350D01*
Y249350D02*X314850Y251350D01*
X316551D02*X317551D01*
X317051Y247350D02*Y251350D01*
X316051Y248350D02*X317051Y247350D01*
X318752Y251350D02*X321252Y248850D01*
Y247350D02*Y248850D01*
X318752Y247350D02*X321252D01*
X373350Y399350D02*X375350D01*
X375850Y399850D01*
Y400850D01*
X375350Y401350D02*X375850Y400850D01*
X373850Y401350D02*X375350D01*
X373850Y399350D02*Y403350D01*
Y401350D02*X375850Y403350D01*
X377051Y399850D02*X377551Y399350D01*
X379051D01*
X379551Y399850D01*
Y400850D01*
X377051Y403350D02*X379551Y400850D01*
X377051Y403350D02*X379551D01*
X380752Y399850D02*X381252Y399350D01*
X382252D01*
X382752Y399850D01*
Y402850D01*
X382252Y403350D02*X382752Y402850D01*
X381252Y403350D02*X382252D01*
X380752Y402850D02*X381252Y403350D01*
Y401350D02*X382752D01*
X383953Y399850D02*X384453Y399350D01*
X385453D01*
X385953Y399850D01*
Y402850D01*
X385453Y403350D02*X385953Y402850D01*
X384453Y403350D02*X385453D01*
X383953Y402850D02*X384453Y403350D01*
Y401350D02*X385953D01*
X439000Y358600D02*X441000D01*
X441500Y359100D01*
Y360100D01*
X441000Y360600D02*X441500Y360100D01*
X439500Y360600D02*X441000D01*
X439500Y358600D02*Y362600D01*
Y360600D02*X441500Y362600D01*
X442701Y359100D02*X443201Y358600D01*
X444701D01*
X445201Y359100D01*
Y360100D01*
X442701Y362600D02*X445201Y360100D01*
X442701Y362600D02*X445201D01*
X446902D02*X447902D01*
X447402Y358600D02*Y362600D01*
X446402Y359600D02*X447402Y358600D01*
X449103D02*X451103D01*
X449103D02*Y360600D01*
X449603Y360100D01*
X450603D01*
X451103Y360600D01*
Y362100D01*
X450603Y362600D02*X451103Y362100D01*
X449603Y362600D02*X450603D01*
X449103Y362100D02*X449603Y362600D01*
X463850Y361850D02*X465850D01*
X466350Y362350D01*
Y363350D01*
X465850Y363850D02*X466350Y363350D01*
X464350Y363850D02*X465850D01*
X464350Y361850D02*Y365850D01*
Y363850D02*X466350Y365850D01*
X467551Y362350D02*X468051Y361850D01*
X469551D01*
X470051Y362350D01*
Y363350D01*
X467551Y365850D02*X470051Y363350D01*
X467551Y365850D02*X470051D01*
X471752D02*X472752D01*
X472252Y361850D02*Y365850D01*
X471252Y362850D02*X472252Y361850D01*
X473953Y363850D02*X475953Y361850D01*
X473953Y363850D02*X476453D01*
X475953Y361850D02*Y365850D01*
X349350Y406650D02*Y408650D01*
Y406650D02*X349850Y406150D01*
X350850D01*
X351350Y406650D02*X350850Y406150D01*
X351350Y406650D02*Y408150D01*
X349350D02*X353350D01*
X351350D02*X353350Y406150D01*
X349850Y404949D02*X349350Y404449D01*
Y402949D02*Y404449D01*
Y402949D02*X349850Y402449D01*
X350850D01*
X353350Y404949D02*X350850Y402449D01*
X353350D02*Y404949D01*
X349850Y401248D02*X349350Y400748D01*
Y399748D02*Y400748D01*
Y399748D02*X349850Y399248D01*
X352850D01*
X353350Y399748D02*X352850Y399248D01*
X353350Y399748D02*Y400748D01*
X352850Y401248D02*X353350Y400748D01*
X351350Y399248D02*Y400748D01*
Y398047D02*X349350Y396047D01*
X351350Y395547D02*Y398047D01*
X349350Y396047D02*X353350D01*
X267850Y403850D02*X269850D01*
X270350Y404350D01*
Y405350D01*
X269850Y405850D02*X270350Y405350D01*
X268350Y405850D02*X269850D01*
X268350Y403850D02*Y407850D01*
Y405850D02*X270350Y407850D01*
X271551Y404350D02*X272051Y403850D01*
X273051D01*
X273551Y404350D01*
Y407350D01*
X273051Y407850D02*X273551Y407350D01*
X272051Y407850D02*X273051D01*
X271551Y407350D02*X272051Y407850D01*
Y405850D02*X273551D01*
X274752Y407850D02*X277252Y405350D01*
Y403850D02*Y405350D01*
X274752Y403850D02*X277252D01*
X293850Y380850D02*X295850D01*
X296350Y381350D01*
Y382350D01*
X295850Y382850D02*X296350Y382350D01*
X294350Y382850D02*X295850D01*
X294350Y380850D02*Y384850D01*
Y382850D02*X296350Y384850D01*
X297551Y381350D02*X298051Y380850D01*
X299051D01*
X299551Y381350D01*
Y384350D01*
X299051Y384850D02*X299551Y384350D01*
X298051Y384850D02*X299051D01*
X297551Y384350D02*X298051Y384850D01*
Y382850D02*X299551D01*
X300752Y381350D02*X301252Y380850D01*
X302252D01*
X302752Y381350D01*
Y384350D01*
X302252Y384850D02*X302752Y384350D01*
X301252Y384850D02*X302252D01*
X300752Y384350D02*X301252Y384850D01*
Y382850D02*X302752D01*
X271850Y367850D02*X273850D01*
X274350Y368350D01*
Y369350D01*
X273850Y369850D02*X274350Y369350D01*
X272350Y369850D02*X273850D01*
X272350Y367850D02*Y371850D01*
Y369850D02*X274350Y371850D01*
X275551Y368350D02*X276051Y367850D01*
X277051D01*
X277551Y368350D01*
Y371350D01*
X277051Y371850D02*X277551Y371350D01*
X276051Y371850D02*X277051D01*
X275551Y371350D02*X276051Y371850D01*
Y369850D02*X277551D01*
X278752Y371350D02*X279252Y371850D01*
X278752Y370350D02*Y371350D01*
Y370350D02*X279252Y369850D01*
X280252D01*
X280752Y370350D01*
Y371350D01*
X280252Y371850D02*X280752Y371350D01*
X279252Y371850D02*X280252D01*
X278752Y369350D02*X279252Y369850D01*
X278752Y368350D02*Y369350D01*
Y368350D02*X279252Y367850D01*
X280252D01*
X280752Y368350D01*
Y369350D01*
X280252Y369850D02*X280752Y369350D01*
X290850Y360350D02*X292850D01*
X293350Y360850D01*
Y361850D01*
X292850Y362350D02*X293350Y361850D01*
X291350Y362350D02*X292850D01*
X291350Y360350D02*Y364350D01*
Y362350D02*X293350Y364350D01*
X294551Y360850D02*X295051Y360350D01*
X296051D01*
X296551Y360850D01*
Y363850D01*
X296051Y364350D02*X296551Y363850D01*
X295051Y364350D02*X296051D01*
X294551Y363850D02*X295051Y364350D01*
Y362350D02*X296551D01*
X297752Y360350D02*X299752D01*
X297752D02*Y362350D01*
X298252Y361850D01*
X299252D01*
X299752Y362350D01*
Y363850D01*
X299252Y364350D02*X299752Y363850D01*
X298252Y364350D02*X299252D01*
X297752Y363850D02*X298252Y364350D01*
X246850Y358350D02*X248850D01*
X249350Y358850D01*
Y359850D01*
X248850Y360350D02*X249350Y359850D01*
X247350Y360350D02*X248850D01*
X247350Y358350D02*Y362350D01*
Y360350D02*X249350Y362350D01*
X250551Y358850D02*X251051Y358350D01*
X252051D01*
X252551Y358850D01*
Y361850D01*
X252051Y362350D02*X252551Y361850D01*
X251051Y362350D02*X252051D01*
X250551Y361850D02*X251051Y362350D01*
Y360350D02*X252551D01*
X253752D02*X255752Y358350D01*
X253752Y360350D02*X256252D01*
X255752Y358350D02*Y362350D01*
X227850Y357850D02*X229850D01*
X230350Y358350D01*
Y359350D01*
X229850Y359850D02*X230350Y359350D01*
X228350Y359850D02*X229850D01*
X228350Y357850D02*Y361850D01*
Y359850D02*X230350Y361850D01*
X231551Y358350D02*X232051Y357850D01*
X233051D01*
X233551Y358350D01*
Y361350D01*
X233051Y361850D02*X233551Y361350D01*
X232051Y361850D02*X233051D01*
X231551Y361350D02*X232051Y361850D01*
Y359850D02*X233551D01*
X236252Y357850D02*X236752Y358350D01*
X235252Y357850D02*X236252D01*
X234752Y358350D02*X235252Y357850D01*
X234752Y358350D02*Y361350D01*
X235252Y361850D01*
X236252Y359850D02*X236752Y360350D01*
X234752Y359850D02*X236252D01*
X235252Y361850D02*X236252D01*
X236752Y361350D01*
Y360350D02*Y361350D01*
X267350Y388350D02*X269350D01*
X269850Y388850D01*
Y389850D01*
X269350Y390350D02*X269850Y389850D01*
X267850Y390350D02*X269350D01*
X267850Y388350D02*Y392350D01*
Y390350D02*X269850Y392350D01*
X271051Y388850D02*X271551Y388350D01*
X272551D01*
X273051Y388850D01*
Y391850D01*
X272551Y392350D02*X273051Y391850D01*
X271551Y392350D02*X272551D01*
X271051Y391850D02*X271551Y392350D01*
Y390350D02*X273051D01*
X274252Y388850D02*X274752Y388350D01*
X276252D01*
X276752Y388850D01*
Y389850D01*
X274252Y392350D02*X276752Y389850D01*
X274252Y392350D02*X276752D01*
X237350Y382850D02*X239350D01*
X239850Y383350D01*
Y384350D01*
X239350Y384850D02*X239850Y384350D01*
X237850Y384850D02*X239350D01*
X237850Y382850D02*Y386850D01*
Y384850D02*X239850Y386850D01*
X241051Y383350D02*X241551Y382850D01*
X242551D01*
X243051Y383350D01*
Y386350D01*
X242551Y386850D02*X243051Y386350D01*
X241551Y386850D02*X242551D01*
X241051Y386350D02*X241551Y386850D01*
Y384850D02*X243051D01*
X244752Y386850D02*X245752D01*
X245252Y382850D02*Y386850D01*
X244252Y383850D02*X245252Y382850D01*
X238350Y377850D02*X240350D01*
X240850Y378350D01*
Y379350D01*
X240350Y379850D02*X240850Y379350D01*
X238850Y379850D02*X240350D01*
X238850Y377850D02*Y381850D01*
Y379850D02*X240850Y381850D01*
X242051Y378350D02*X242551Y377850D01*
X243551D01*
X244051Y378350D01*
Y381350D01*
X243551Y381850D02*X244051Y381350D01*
X242551Y381850D02*X243551D01*
X242051Y381350D02*X242551Y381850D01*
Y379850D02*X244051D01*
X245252Y381850D02*X247252Y379850D01*
Y378350D02*Y379850D01*
X246752Y377850D02*X247252Y378350D01*
X245752Y377850D02*X246752D01*
X245252Y378350D02*X245752Y377850D01*
X245252Y378350D02*Y379350D01*
X245752Y379850D01*
X247252D01*
X220350Y284650D02*Y286650D01*
Y284650D02*X220850Y284150D01*
X221850D01*
X222350Y284650D02*X221850Y284150D01*
X222350Y284650D02*Y286150D01*
X220350D02*X224350D01*
X222350D02*X224350Y284150D01*
X220850Y282949D02*X220350Y282449D01*
Y280949D02*Y282449D01*
Y280949D02*X220850Y280449D01*
X221850D01*
X224350Y282949D02*X221850Y280449D01*
X224350D02*Y282949D01*
X220350Y277248D02*Y279248D01*
X222350D01*
X221850Y278748D01*
Y277748D02*Y278748D01*
Y277748D02*X222350Y277248D01*
X223850D01*
X224350Y277748D02*X223850Y277248D01*
X224350Y277748D02*Y278748D01*
X223850Y279248D02*X224350Y278748D01*
X266350Y246850D02*X268350D01*
X268850Y247350D01*
Y248350D01*
X268350Y248850D02*X268850Y248350D01*
X266850Y248850D02*X268350D01*
X266850Y246850D02*Y250850D01*
Y248850D02*X268850Y250850D01*
X270051Y248850D02*X272051Y246850D01*
X270051Y248850D02*X272551D01*
X272051Y246850D02*Y250850D01*
X273752Y246850D02*X275752D01*
X273752D02*Y248850D01*
X274252Y248350D01*
X275252D01*
X275752Y248850D01*
Y250350D01*
X275252Y250850D02*X275752Y250350D01*
X274252Y250850D02*X275252D01*
X273752Y250350D02*X274252Y250850D01*
X202500Y248200D02*X204000D01*
X202000Y247700D02*X202500Y248200D01*
X202000Y244700D02*Y247700D01*
Y244700D02*X202500Y244200D01*
X204000D01*
X205201Y244700D02*X205701Y244200D01*
X207201D01*
X207701Y244700D01*
Y245700D01*
X205201Y248200D02*X207701Y245700D01*
X205201Y248200D02*X207701D01*
X208902Y247700D02*X209402Y248200D01*
X208902Y244700D02*Y247700D01*
Y244700D02*X209402Y244200D01*
X210402D01*
X210902Y244700D01*
Y247700D01*
X210402Y248200D02*X210902Y247700D01*
X209402Y248200D02*X210402D01*
X208902Y247200D02*X210902Y245200D01*
X226350Y252850D02*X228350D01*
X228850Y253350D01*
Y254350D01*
X228350Y254850D02*X228850Y254350D01*
X226850Y254850D02*X228350D01*
X226850Y252850D02*Y256850D01*
Y254850D02*X228850Y256850D01*
X230051Y254850D02*X232051Y252850D01*
X230051Y254850D02*X232551D01*
X232051Y252850D02*Y256850D01*
X235252Y252850D02*X235752Y253350D01*
X234252Y252850D02*X235252D01*
X233752Y253350D02*X234252Y252850D01*
X233752Y253350D02*Y256350D01*
X234252Y256850D01*
X235252Y254850D02*X235752Y255350D01*
X233752Y254850D02*X235252D01*
X234252Y256850D02*X235252D01*
X235752Y256350D01*
Y255350D02*Y256350D01*
X261255Y343669D02*X263255D01*
X263755Y344169D01*
Y345169D01*
X263255Y345669D02*X263755Y345169D01*
X261755Y345669D02*X263255D01*
X261755Y343669D02*Y347669D01*
Y345669D02*X263755Y347669D01*
X265456D02*X266456D01*
X265956Y343669D02*Y347669D01*
X264956Y344669D02*X265956Y343669D01*
X253755Y327169D02*X255755D01*
X256255Y327669D01*
Y328669D01*
X255755Y329169D02*X256255Y328669D01*
X254255Y329169D02*X255755D01*
X254255Y327169D02*Y331169D01*
Y329169D02*X256255Y331169D01*
X257456Y327669D02*X257956Y327169D01*
X259456D01*
X259956Y327669D01*
Y328669D01*
X257456Y331169D02*X259956Y328669D01*
X257456Y331169D02*X259956D01*
X257850Y300850D02*X259850D01*
X260350Y301350D01*
Y302350D01*
X259850Y302850D02*X260350Y302350D01*
X258350Y302850D02*X259850D01*
X258350Y300850D02*Y304850D01*
Y302850D02*X260350Y304850D01*
X261551Y300850D02*X263551D01*
X261551D02*Y302850D01*
X262051Y302350D01*
X263051D01*
X263551Y302850D01*
Y304350D01*
X263051Y304850D02*X263551Y304350D01*
X262051Y304850D02*X263051D01*
X261551Y304350D02*X262051Y304850D01*
X226700Y315000D02*X230700D01*
X226700Y313500D02*X227200Y313000D01*
X230200D01*
X230700Y313500D02*X230200Y313000D01*
X230700Y313500D02*Y315500D01*
X226700Y313500D02*Y315500D01*
X227200Y311799D02*X226700Y311299D01*
Y309799D02*Y311299D01*
Y309799D02*X227200Y309299D01*
X228200D01*
X230700Y311799D02*X228200Y309299D01*
X230700D02*Y311799D01*
X282000Y302700D02*Y306700D01*
X283500Y302700D02*X284000Y303200D01*
Y306200D01*
X283500Y306700D02*X284000Y306200D01*
X281500Y306700D02*X283500D01*
X281500Y302700D02*X283500D01*
X286701D02*X287201Y303200D01*
X285701Y302700D02*X286701D01*
X285201Y303200D02*X285701Y302700D01*
X285201Y303200D02*Y306200D01*
X285701Y306700D01*
X286701Y304700D02*X287201Y305200D01*
X285201Y304700D02*X286701D01*
X285701Y306700D02*X286701D01*
X287201Y306200D01*
Y305200D02*Y306200D01*
X294850Y303850D02*X296850D01*
X297350Y304350D01*
Y305350D01*
X296850Y305850D02*X297350Y305350D01*
X295350Y305850D02*X296850D01*
X295350Y303850D02*Y307850D01*
Y305850D02*X297350Y307850D01*
X299051D02*X300051D01*
X299551Y303850D02*Y307850D01*
X298551Y304850D02*X299551Y303850D01*
X301252Y304350D02*X301752Y303850D01*
X303252D01*
X303752Y304350D01*
Y305350D01*
X301252Y307850D02*X303752Y305350D01*
X301252Y307850D02*X303752D01*
X273350Y343850D02*X274850D01*
X272850Y343350D02*X273350Y343850D01*
X272850Y340350D02*Y343350D01*
Y340350D02*X273350Y339850D01*
X274850D01*
X276051Y343850D02*X278551Y341350D01*
Y339850D02*Y341350D01*
X276051Y339850D02*X278551D01*
X275850Y331350D02*X277850D01*
X278350Y331850D01*
Y332850D01*
X277850Y333350D02*X278350Y332850D01*
X276350Y333350D02*X277850D01*
X276350Y331350D02*Y335350D01*
Y333350D02*X278350Y335350D01*
X279551Y331850D02*X280051Y331350D01*
X281051D01*
X281551Y331850D01*
Y334850D01*
X281051Y335350D02*X281551Y334850D01*
X280051Y335350D02*X281051D01*
X279551Y334850D02*X280051Y335350D01*
Y333350D02*X281551D01*
X282752Y334850D02*X283252Y335350D01*
X282752Y331850D02*Y334850D01*
Y331850D02*X283252Y331350D01*
X284252D01*
X284752Y331850D01*
Y334850D01*
X284252Y335350D02*X284752Y334850D01*
X283252Y335350D02*X284252D01*
X282752Y334350D02*X284752Y332350D01*
X275350Y323850D02*X277350D01*
X277850Y324350D01*
Y325350D01*
X277350Y325850D02*X277850Y325350D01*
X275850Y325850D02*X277350D01*
X275850Y323850D02*Y327850D01*
Y325850D02*X277850Y327850D01*
X279051Y324350D02*X279551Y323850D01*
X281051D01*
X281551Y324350D01*
Y325350D01*
X279051Y327850D02*X281551Y325350D01*
X279051Y327850D02*X281551D01*
X282752D02*X284752Y325850D01*
Y324350D02*Y325850D01*
X284252Y323850D02*X284752Y324350D01*
X283252Y323850D02*X284252D01*
X282752Y324350D02*X283252Y323850D01*
X282752Y324350D02*Y325350D01*
X283252Y325850D01*
X284752D01*
X395850Y161150D02*Y162650D01*
X395350Y163150D02*X395850Y162650D01*
X392350Y163150D02*X395350D01*
X392350D02*X391850Y162650D01*
Y161150D02*Y162650D01*
X393850Y159949D02*X391850Y157949D01*
X393850Y157449D02*Y159949D01*
X391850Y157949D02*X395850D01*
X391850Y154248D02*Y156248D01*
X393850D01*
X393350Y155748D01*
Y154748D02*Y155748D01*
Y154748D02*X393850Y154248D01*
X395350D01*
X395850Y154748D02*X395350Y154248D01*
X395850Y154748D02*Y155748D01*
X395350Y156248D02*X395850Y155748D01*
X377350Y188350D02*X379350D01*
X379850Y188850D01*
Y189850D01*
X379350Y190350D02*X379850Y189850D01*
X377850Y190350D02*X379350D01*
X377850Y188350D02*Y192350D01*
Y190350D02*X379850Y192350D01*
X381051Y188850D02*X381551Y188350D01*
X383051D01*
X383551Y188850D01*
Y189850D01*
X381051Y192350D02*X383551Y189850D01*
X381051Y192350D02*X383551D01*
X384752Y191850D02*X385252Y192350D01*
X384752Y188850D02*Y191850D01*
Y188850D02*X385252Y188350D01*
X386252D01*
X386752Y188850D01*
Y191850D01*
X386252Y192350D02*X386752Y191850D01*
X385252Y192350D02*X386252D01*
X384752Y191350D02*X386752Y189350D01*
X387953Y188350D02*X389953D01*
X387953D02*Y190350D01*
X388453Y189850D01*
X389453D01*
X389953Y190350D01*
Y191850D01*
X389453Y192350D02*X389953Y191850D01*
X388453Y192350D02*X389453D01*
X387953Y191850D02*X388453Y192350D01*
X332755Y192169D02*X334755D01*
X335255Y192669D01*
Y193669D01*
X334755Y194169D02*X335255Y193669D01*
X333255Y194169D02*X334755D01*
X333255Y192169D02*Y196169D01*
Y194169D02*X335255Y196169D01*
X336456Y192669D02*X336956Y192169D01*
X338456D01*
X338956Y192669D01*
Y193669D01*
X336456Y196169D02*X338956Y193669D01*
X336456Y196169D02*X338956D01*
X340657D02*X341657D01*
X341157Y192169D02*Y196169D01*
X340157Y193169D02*X341157Y192169D01*
X411200Y164000D02*X415200D01*
X411200Y162500D02*X411700Y162000D01*
X414700D01*
X415200Y162500D02*X414700Y162000D01*
X415200Y162500D02*Y164500D01*
X411200Y162500D02*Y164500D01*
X411700Y160799D02*X411200Y160299D01*
Y158799D02*Y160299D01*
Y158799D02*X411700Y158299D01*
X412700D01*
X415200Y160799D02*X412700Y158299D01*
X415200D02*Y160799D01*
X414700Y157098D02*X415200Y156598D01*
X411700Y157098D02*X414700D01*
X411700D02*X411200Y156598D01*
Y155598D02*Y156598D01*
Y155598D02*X411700Y155098D01*
X414700D01*
X415200Y155598D02*X414700Y155098D01*
X415200Y155598D02*Y156598D01*
X414200Y157098D02*X412200Y155098D01*
X414700Y153897D02*X415200Y153397D01*
X411700Y153897D02*X414700D01*
X411700D02*X411200Y153397D01*
Y152397D02*Y153397D01*
Y152397D02*X411700Y151897D01*
X414700D01*
X415200Y152397D02*X414700Y151897D01*
X415200Y152397D02*Y153397D01*
X414200Y153897D02*X412200Y151897D01*
X381350Y164350D02*X383350D01*
X383850Y164850D01*
Y165850D01*
X383350Y166350D02*X383850Y165850D01*
X381850Y166350D02*X383350D01*
X381850Y164350D02*Y168350D01*
Y166350D02*X383850Y168350D01*
X385051Y164850D02*X385551Y164350D01*
X387051D01*
X387551Y164850D01*
Y165850D01*
X385051Y168350D02*X387551Y165850D01*
X385051Y168350D02*X387551D01*
X388752Y167850D02*X389252Y168350D01*
X388752Y164850D02*Y167850D01*
Y164850D02*X389252Y164350D01*
X390252D01*
X390752Y164850D01*
Y167850D01*
X390252Y168350D02*X390752Y167850D01*
X389252Y168350D02*X390252D01*
X388752Y167350D02*X390752Y165350D01*
X391953Y166350D02*X393953Y164350D01*
X391953Y166350D02*X394453D01*
X393953Y164350D02*Y168350D01*
X412500Y209500D02*Y211500D01*
Y209500D02*X413000Y209000D01*
X414000D01*
X414500Y209500D02*X414000Y209000D01*
X414500Y209500D02*Y211000D01*
X412500D02*X416500D01*
X414500D02*X416500Y209000D01*
X413000Y207799D02*X412500Y207299D01*
Y205799D02*Y207299D01*
Y205799D02*X413000Y205299D01*
X414000D01*
X416500Y207799D02*X414000Y205299D01*
X416500D02*Y207799D01*
X416000Y204098D02*X416500Y203598D01*
X413000Y204098D02*X416000D01*
X413000D02*X412500Y203598D01*
Y202598D02*Y203598D01*
Y202598D02*X413000Y202098D01*
X416000D01*
X416500Y202598D02*X416000Y202098D01*
X416500Y202598D02*Y203598D01*
X415500Y204098D02*X413500Y202098D01*
X413000Y200897D02*X412500Y200397D01*
Y199397D02*Y200397D01*
Y199397D02*X413000Y198897D01*
X416000D01*
X416500Y199397D02*X416000Y198897D01*
X416500Y199397D02*Y200397D01*
X416000Y200897D02*X416500Y200397D01*
X414500Y198897D02*Y200397D01*
X412350Y194650D02*Y196650D01*
Y194650D02*X412850Y194150D01*
X413850D01*
X414350Y194650D02*X413850Y194150D01*
X414350Y194650D02*Y196150D01*
X412350D02*X416350D01*
X414350D02*X416350Y194150D01*
X412850Y192949D02*X412350Y192449D01*
Y190949D02*Y192449D01*
Y190949D02*X412850Y190449D01*
X413850D01*
X416350Y192949D02*X413850Y190449D01*
X416350D02*Y192949D01*
X415850Y189248D02*X416350Y188748D01*
X412850Y189248D02*X415850D01*
X412850D02*X412350Y188748D01*
Y187748D02*Y188748D01*
Y187748D02*X412850Y187248D01*
X415850D01*
X416350Y187748D02*X415850Y187248D01*
X416350Y187748D02*Y188748D01*
X415350Y189248D02*X413350Y187248D01*
X415850Y186047D02*X416350Y185547D01*
X412850Y186047D02*X415850D01*
X412850D02*X412350Y185547D01*
Y184547D02*Y185547D01*
Y184547D02*X412850Y184047D01*
X415850D01*
X416350Y184547D02*X415850Y184047D01*
X416350Y184547D02*Y185547D01*
X415350Y186047D02*X413350Y184047D01*
X344000Y96900D02*Y100900D01*
X345500Y96900D02*X346000Y97400D01*
Y100400D01*
X345500Y100900D02*X346000Y100400D01*
X343500Y100900D02*X345500D01*
X343500Y96900D02*X345500D01*
X347701Y100900D02*X348701D01*
X348201Y96900D02*Y100900D01*
X347201Y97900D02*X348201Y96900D01*
X349902Y100400D02*X350402Y100900D01*
X349902Y97400D02*Y100400D01*
Y97400D02*X350402Y96900D01*
X351402D01*
X351902Y97400D01*
Y100400D01*
X351402Y100900D02*X351902Y100400D01*
X350402Y100900D02*X351402D01*
X349902Y99900D02*X351902Y97900D01*
X221350Y129850D02*X223350D01*
X223850Y130350D01*
Y131350D01*
X223350Y131850D02*X223850Y131350D01*
X221850Y131850D02*X223350D01*
X221850Y129850D02*Y133850D01*
Y131850D02*X223850Y133850D01*
X225051Y131850D02*X227051Y129850D01*
X225051Y131850D02*X227551D01*
X227051Y129850D02*Y133850D01*
X228752Y133350D02*X229252Y133850D01*
X228752Y130350D02*Y133350D01*
Y130350D02*X229252Y129850D01*
X230252D01*
X230752Y130350D01*
Y133350D01*
X230252Y133850D02*X230752Y133350D01*
X229252Y133850D02*X230252D01*
X228752Y132850D02*X230752Y130850D01*
X209000Y141500D02*Y145000D01*
X209500Y145500D01*
X210500D01*
X211000Y145000D01*
Y141500D02*Y145000D01*
X212701Y145500D02*X213701D01*
X213201Y141500D02*Y145500D01*
X212201Y142500D02*X213201Y141500D01*
X214902Y142000D02*X215402Y141500D01*
X216402D01*
X216902Y142000D01*
Y145000D01*
X216402Y145500D02*X216902Y145000D01*
X215402Y145500D02*X216402D01*
X214902Y145000D02*X215402Y145500D01*
Y143500D02*X216902D01*
X253000Y146500D02*Y150000D01*
X253500Y150500D01*
X254500D01*
X255000Y150000D01*
Y146500D02*Y150000D01*
X256201Y150500D02*X258701Y148000D01*
Y146500D02*Y148000D01*
X256201Y146500D02*X258701D01*
X292064Y116650D02*Y118150D01*
X291564Y118650D02*X292064Y118150D01*
X288564Y118650D02*X291564D01*
X288564D02*X288064Y118150D01*
Y116650D02*Y118150D01*
X288564Y115449D02*X288064Y114949D01*
Y113449D02*Y114949D01*
Y113449D02*X288564Y112949D01*
X289564D01*
X292064Y115449D02*X289564Y112949D01*
X292064D02*Y115449D01*
X288564Y111748D02*X288064Y111248D01*
Y110248D02*Y111248D01*
Y110248D02*X288564Y109748D01*
X291564D01*
X292064Y110248D02*X291564Y109748D01*
X292064Y110248D02*Y111248D01*
X291564Y111748D02*X292064Y111248D01*
X290064Y109748D02*Y111248D01*
X265850Y113650D02*Y115150D01*
X265350Y115650D02*X265850Y115150D01*
X262350Y115650D02*X265350D01*
X262350D02*X261850Y115150D01*
Y113650D02*Y115150D01*
X263850Y112449D02*X261850Y110449D01*
X263850Y109949D02*Y112449D01*
X261850Y110449D02*X265850D01*
X220850Y110850D02*X222850D01*
X223350Y111350D01*
Y112350D01*
X222850Y112850D02*X223350Y112350D01*
X221350Y112850D02*X222850D01*
X221350Y110850D02*Y114850D01*
Y112850D02*X223350Y114850D01*
X224551Y112850D02*X226551Y110850D01*
X224551Y112850D02*X227051D01*
X226551Y110850D02*Y114850D01*
X228252Y111350D02*X228752Y110850D01*
X230252D01*
X230752Y111350D01*
Y112350D01*
X228252Y114850D02*X230752Y112350D01*
X228252Y114850D02*X230752D01*
X222350Y119850D02*X224350D01*
X224850Y120350D01*
Y121350D01*
X224350Y121850D02*X224850Y121350D01*
X222850Y121850D02*X224350D01*
X222850Y119850D02*Y123850D01*
Y121850D02*X224850Y123850D01*
X226051Y121850D02*X228051Y119850D01*
X226051Y121850D02*X228551D01*
X228051Y119850D02*Y123850D01*
X230252D02*X231252D01*
X230752Y119850D02*Y123850D01*
X229752Y120850D02*X230752Y119850D01*
X318850Y197850D02*X320350D01*
X318350Y197350D02*X318850Y197850D01*
X318350Y194350D02*Y197350D01*
Y194350D02*X318850Y193850D01*
X320350D01*
X321551Y197850D02*X323551Y195850D01*
Y194350D02*Y195850D01*
X323051Y193850D02*X323551Y194350D01*
X322051Y193850D02*X323051D01*
X321551Y194350D02*X322051Y193850D01*
X321551Y194350D02*Y195350D01*
X322051Y195850D01*
X323551D01*
X305850Y211350D02*X307350D01*
X305350Y210850D02*X305850Y211350D01*
X305350Y207850D02*Y210850D01*
Y207850D02*X305850Y207350D01*
X307350D01*
X310051D02*X310551Y207850D01*
X309051Y207350D02*X310051D01*
X308551Y207850D02*X309051Y207350D01*
X308551Y207850D02*Y210850D01*
X309051Y211350D01*
X310051Y209350D02*X310551Y209850D01*
X308551Y209350D02*X310051D01*
X309051Y211350D02*X310051D01*
X310551Y210850D01*
Y209850D02*Y210850D01*
X255350Y213350D02*X257350D01*
X257850Y213850D01*
Y214850D01*
X257350Y215350D02*X257850Y214850D01*
X255850Y215350D02*X257350D01*
X255850Y213350D02*Y217350D01*
Y215350D02*X257850Y217350D01*
X259551D02*X260551D01*
X260051Y213350D02*Y217350D01*
X259051Y214350D02*X260051Y213350D01*
X261752Y215350D02*X263752Y213350D01*
X261752Y215350D02*X264252D01*
X263752Y213350D02*Y217350D01*
X286350Y231850D02*X288350D01*
X288850Y232350D01*
Y233350D01*
X288350Y233850D02*X288850Y233350D01*
X286850Y233850D02*X288350D01*
X286850Y231850D02*Y235850D01*
Y233850D02*X288850Y235850D01*
X290551D02*X291551D01*
X291051Y231850D02*Y235850D01*
X290051Y232850D02*X291051Y231850D01*
X292752Y235350D02*X293252Y235850D01*
X292752Y234350D02*Y235350D01*
Y234350D02*X293252Y233850D01*
X294252D01*
X294752Y234350D01*
Y235350D01*
X294252Y235850D02*X294752Y235350D01*
X293252Y235850D02*X294252D01*
X292752Y233350D02*X293252Y233850D01*
X292752Y232350D02*Y233350D01*
Y232350D02*X293252Y231850D01*
X294252D01*
X294752Y232350D01*
Y233350D01*
X294252Y233850D02*X294752Y233350D01*
X218350Y225350D02*X220350D01*
X220850Y225850D01*
Y226850D01*
X220350Y227350D02*X220850Y226850D01*
X218850Y227350D02*X220350D01*
X218850Y225350D02*Y229350D01*
Y227350D02*X220850Y229350D01*
X222051Y225850D02*X222551Y225350D01*
X224051D01*
X224551Y225850D01*
Y226850D01*
X222051Y229350D02*X224551Y226850D01*
X222051Y229350D02*X224551D01*
X225752Y227350D02*X227752Y225350D01*
X225752Y227350D02*X228252D01*
X227752Y225350D02*Y229350D01*
X225945Y241531D02*X227945D01*
X228445Y242031D01*
Y243031D01*
X227945Y243531D02*X228445Y243031D01*
X226445Y243531D02*X227945D01*
X226445Y241531D02*Y245531D01*
Y243531D02*X228445Y245531D01*
X229646Y243531D02*X231646Y241531D01*
X229646Y243531D02*X232146D01*
X231646Y241531D02*Y245531D01*
X233347Y243531D02*X235347Y241531D01*
X233347Y243531D02*X235847D01*
X235347Y241531D02*Y245531D01*
X236350Y229350D02*X238350D01*
X238850Y229850D01*
Y230850D01*
X238350Y231350D02*X238850Y230850D01*
X236850Y231350D02*X238350D01*
X236850Y229350D02*Y233350D01*
Y231350D02*X238850Y233350D01*
X240551D02*X241551D01*
X241051Y229350D02*Y233350D01*
X240051Y230350D02*X241051Y229350D01*
X244252D02*X244752Y229850D01*
X243252Y229350D02*X244252D01*
X242752Y229850D02*X243252Y229350D01*
X242752Y229850D02*Y232850D01*
X243252Y233350D01*
X244252Y231350D02*X244752Y231850D01*
X242752Y231350D02*X244252D01*
X243252Y233350D02*X244252D01*
X244752Y232850D01*
Y231850D02*Y232850D01*
X314307Y219957D02*X315807D01*
X313807Y219457D02*X314307Y219957D01*
X313807Y216457D02*Y219457D01*
Y216457D02*X314307Y215957D01*
X315807D01*
X317508Y219957D02*X318508D01*
X318008Y215957D02*Y219957D01*
X317008Y216957D02*X318008Y215957D01*
X319709Y216457D02*X320209Y215957D01*
X321209D01*
X321709Y216457D01*
Y219457D01*
X321209Y219957D02*X321709Y219457D01*
X320209Y219957D02*X321209D01*
X319709Y219457D02*X320209Y219957D01*
Y217957D02*X321709D01*
X314807Y232457D02*X316307D01*
X314307Y231957D02*X314807Y232457D01*
X314307Y228957D02*Y231957D01*
Y228957D02*X314807Y228457D01*
X316307D01*
X318008Y232457D02*X319008D01*
X318508Y228457D02*Y232457D01*
X317508Y229457D02*X318508Y228457D01*
X320209Y228957D02*X320709Y228457D01*
X322209D01*
X322709Y228957D01*
Y229957D01*
X320209Y232457D02*X322709Y229957D01*
X320209Y232457D02*X322709D01*
X275350Y213350D02*X277350D01*
X277850Y213850D01*
Y214850D01*
X277350Y215350D02*X277850Y214850D01*
X275850Y215350D02*X277350D01*
X275850Y213350D02*Y217350D01*
Y215350D02*X277850Y217350D01*
X279551D02*X280551D01*
X280051Y213350D02*Y217350D01*
X279051Y214350D02*X280051Y213350D01*
X281752Y217350D02*X283752Y215350D01*
Y213850D02*Y215350D01*
X283252Y213350D02*X283752Y213850D01*
X282252Y213350D02*X283252D01*
X281752Y213850D02*X282252Y213350D01*
X281752Y213850D02*Y214850D01*
X282252Y215350D01*
X283752D01*
X320500Y144400D02*Y148400D01*
X322000Y144400D02*X322500Y144900D01*
Y147900D01*
X322000Y148400D02*X322500Y147900D01*
X320000Y148400D02*X322000D01*
X320000Y144400D02*X322000D01*
X324201Y148400D02*X325201D01*
X324701Y144400D02*Y148400D01*
X323701Y145400D02*X324701Y144400D01*
X326902Y148400D02*X327902D01*
X327402Y144400D02*Y148400D01*
X326402Y145400D02*X327402Y144400D01*
X271243Y176107D02*Y177607D01*
X270743Y178107D02*X271243Y177607D01*
X267743Y178107D02*X270743D01*
X267743D02*X267243Y177607D01*
Y176107D02*Y177607D01*
X267743Y174906D02*X267243Y174406D01*
Y172906D02*Y174406D01*
Y172906D02*X267743Y172406D01*
X268743D01*
X271243Y174906D02*X268743Y172406D01*
X271243D02*Y174906D01*
X267743Y171205D02*X267243Y170705D01*
Y169205D02*Y170705D01*
Y169205D02*X267743Y168705D01*
X268743D01*
X271243Y171205D02*X268743Y168705D01*
X271243D02*Y171205D01*
X194000Y92500D02*X523000D01*
X173000Y404500D02*Y103500D01*
X175500Y101000D02*X185500D01*
X175500Y407000D02*X185500D01*
X531500D02*X550000D01*
X552500Y404500D02*Y103500D01*
X531500Y101000D02*X550000D01*
X501500Y272000D02*X515500D01*
X194000Y415500D02*X523000D01*
X497000Y290000D02*Y276500D01*
X506000Y290000D02*Y285500D01*
X510500Y281000D02*X515500D01*
X442500Y352000D02*Y342000D01*
X456000Y346500D02*X459000D01*
X506000Y342000D02*Y333000D01*
X447000Y337500D02*X459000D01*
X492500Y346500D02*X501500D01*
X451500Y352000D02*Y351000D01*
X191500Y413000D02*G75*G02X194000Y415500I2500J0D01*G01*
X173000Y404500D02*G75*G02X175500Y407000I2500J0D01*G01*
X185500Y101000D02*G75*G02X191500Y95000I0J-6000D01*G01*
Y413000D02*G75*G02X185500Y407000I-6000J0D01*G01*
X175500Y101000D02*G75*G02X173000Y103500I0J2500D01*G01*
X194000Y92500D02*G75*G02X191500Y95000I0J2500D01*G01*
X552500Y103500D02*G75*G02X550000Y101000I-2500J0D01*G01*
X525500Y95000D02*G75*G02X523000Y92500I-2500J0D01*G01*
Y415500D02*G75*G02X525500Y413000I0J-2500D01*G01*
Y95000D02*G75*G02X531500Y101000I6000J0D01*G01*
Y407000D02*G75*G02X525500Y413000I0J6000D01*G01*
X550000Y407000D02*G75*G02X552500Y404500I0J-2500D01*G01*
X451500Y352000D02*G75*G03X447000Y356500I-4500J0D01*G01*
X442500Y342000D02*G75*G03X447000Y337500I4500J0D01*G01*
X459000D02*G75*G03X463500Y342000I0J4500D01*G01*
G75*G03X459000Y346500I-4500J0D01*G01*
X451500Y351000D02*G75*G03X456000Y346500I4500J0D01*G01*
X447000Y356500D02*G75*G03X442500Y352000I0J-4500D01*G01*
X497000Y276500D02*G75*G03X501500Y272000I4500J0D01*G01*
X506000Y290000D02*G75*G03X501500Y294500I-4500J0D01*G01*
G75*G03X497000Y290000I0J-4500D01*G01*
X506000Y285500D02*G75*G03X510500Y281000I4500J0D01*G01*
X515500Y272000D02*G75*G03X520000Y276500I0J4500D01*G01*
G75*G03X515500Y281000I-4500J0D01*G01*
X492500Y346500D02*G75*G03X488000Y342000I0J-4500D01*G01*
G75*G03X492500Y337500I4500J0D01*G01*
X506000Y342000D02*G75*G03X501500Y346500I-4500J0D01*G01*
X497000Y333000D02*G75*G03X501500Y328500I4500J0D01*G01*
G75*G03X506000Y333000I0J4500D01*G01*
X497000D02*G75*G03X492500Y337500I-4500J0D01*G01*
M02*
