G04 start of page 14 for group -4015 idx -4015 *
G04 Title: (unknown), toppaste *
G04 Creator: pcb 20091103 *
G04 CreationDate: Sun Apr 13 13:29:21 2025 UTC *
G04 For: bh *
G04 Format: Gerber/RS-274X *
G04 PCB-Dimensions: 730000 950000 *
G04 PCB-Coordinate-Origin: lower left *
%MOIN*%
%FSLAX25Y25*%
%LNTOPPASTE*%
%ADD11C,0.0200*%
%ADD30R,0.0200X0.0200*%
%ADD31C,0.0160*%
%ADD32R,0.0160X0.0160*%
%ADD33R,0.0512X0.0512*%
%ADD34R,0.1400X0.1400*%
%ADD35R,0.0394X0.0394*%
%ADD36R,0.0866X0.0866*%
%ADD37R,0.1230X0.1230*%
%ADD38R,0.0340X0.0340*%
%ADD39R,0.0970X0.0970*%
%ADD52C,0.0060*%
G54D52*X194000Y92500D02*X523000D01*
X173000Y404500D02*Y103500D01*
X175500Y101000D02*X185500D01*
X175500Y407000D02*X185500D01*
X531500D02*X550000D01*
X552500Y404500D02*Y103500D01*
X531500Y101000D02*X550000D01*
X501500Y272000D02*X515500D01*
X194000Y415500D02*X523000D01*
X497000Y290000D02*Y276500D01*
X506000Y290000D02*Y285500D01*
X510500Y281000D02*X515500D01*
X442500Y352000D02*Y342000D01*
X456000Y346500D02*X459000D01*
X506000Y342000D02*Y333000D01*
X447000Y337500D02*X459000D01*
X492500Y346500D02*X501500D01*
X451500Y352000D02*Y351000D01*
X191500Y413000D02*G75*G02X194000Y415500I2500J0D01*G01*
X173000Y404500D02*G75*G02X175500Y407000I2500J0D01*G01*
X185500Y101000D02*G75*G02X191500Y95000I0J-6000D01*G01*
Y413000D02*G75*G02X185500Y407000I-6000J0D01*G01*
X175500Y101000D02*G75*G02X173000Y103500I0J2500D01*G01*
X194000Y92500D02*G75*G02X191500Y95000I0J2500D01*G01*
X552500Y103500D02*G75*G02X550000Y101000I-2500J0D01*G01*
X525500Y95000D02*G75*G02X523000Y92500I-2500J0D01*G01*
Y415500D02*G75*G02X525500Y413000I0J-2500D01*G01*
Y95000D02*G75*G02X531500Y101000I6000J0D01*G01*
Y407000D02*G75*G02X525500Y413000I0J6000D01*G01*
X550000Y407000D02*G75*G02X552500Y404500I0J-2500D01*G01*
X451500Y352000D02*G75*G03X447000Y356500I-4500J0D01*G01*
X442500Y342000D02*G75*G03X447000Y337500I4500J0D01*G01*
X459000D02*G75*G03X463500Y342000I0J4500D01*G01*
G75*G03X459000Y346500I-4500J0D01*G01*
X451500Y351000D02*G75*G03X456000Y346500I4500J0D01*G01*
X447000Y356500D02*G75*G03X442500Y352000I0J-4500D01*G01*
X497000Y276500D02*G75*G03X501500Y272000I4500J0D01*G01*
X506000Y290000D02*G75*G03X501500Y294500I-4500J0D01*G01*
G75*G03X497000Y290000I0J-4500D01*G01*
X506000Y285500D02*G75*G03X510500Y281000I4500J0D01*G01*
X515500Y272000D02*G75*G03X520000Y276500I0J4500D01*G01*
G75*G03X515500Y281000I-4500J0D01*G01*
X492500Y346500D02*G75*G03X488000Y342000I0J-4500D01*G01*
G75*G03X492500Y337500I4500J0D01*G01*
X506000Y342000D02*G75*G03X501500Y346500I-4500J0D01*G01*
X497000Y333000D02*G75*G03X501500Y328500I4500J0D01*G01*
G75*G03X506000Y333000I0J4500D01*G01*
X497000D02*G75*G03X492500Y337500I-4500J0D01*G01*
G54D33*X419043Y106893D02*Y106107D01*
X411957Y106893D02*Y106107D01*
X407957Y115393D02*Y114607D01*
X415043Y115393D02*Y114607D01*
X347607Y184543D02*X348393D01*
X347607Y177457D02*X348393D01*
X467957Y200393D02*Y199607D01*
X475043Y200393D02*Y199607D01*
X492457Y193393D02*Y192607D01*
X499543Y193393D02*Y192607D01*
X478457Y158893D02*Y158107D01*
X485543Y158893D02*Y158107D01*
G54D37*X494500Y225100D02*Y213900D01*
X471500Y225100D02*Y213900D01*
G54D30*Y181000D02*X478000D01*
X471500Y176000D02*X478000D01*
X471500Y171000D02*X478000D01*
X471500Y166000D02*X478000D01*
X492000D02*X498500D01*
X492000Y171000D02*X498500D01*
X492000Y176000D02*X498500D01*
X492000Y181000D02*X498500D01*
G54D33*X344607Y386457D02*X345393D01*
X344607Y393543D02*X345393D01*
G54D30*X345000Y377000D02*X351500D01*
X345000Y372000D02*X351500D01*
X345000Y367000D02*X351500D01*
X345000Y362000D02*X351500D01*
X365500D02*X372000D01*
X365500Y367000D02*X372000D01*
X365500Y372000D02*X372000D01*
X365500Y377000D02*X372000D01*
G54D34*X428400Y126900D02*Y123100D01*
X449600Y126900D02*Y123100D01*
G54D33*X374607Y112457D02*X375393D01*
X374607Y119543D02*X375393D01*
X393457Y128393D02*Y127607D01*
X400543Y128393D02*Y127607D01*
X393457Y106393D02*Y105607D01*
X400543Y106393D02*Y105607D01*
G54D31*X382000Y121000D02*X384200D01*
G54D32*X382000Y118400D02*X384200D01*
X382000Y115900D02*X384200D01*
X382000Y113300D02*X384200D01*
X398700Y113200D02*X400900D01*
X398700Y115800D02*X400900D01*
X398700Y118300D02*X400900D01*
X398700Y120900D02*X400900D01*
G54D30*X345000Y350500D02*X351500D01*
X345000Y345500D02*X351500D01*
X345000Y340500D02*X351500D01*
X345000Y335500D02*X351500D01*
X365500D02*X372000D01*
X365500Y340500D02*X372000D01*
X365500Y345500D02*X372000D01*
X365500Y350500D02*X372000D01*
X352000Y403000D02*X358500D01*
X352000Y398000D02*X358500D01*
X352000Y393000D02*X358500D01*
X352000Y388000D02*X358500D01*
X372500D02*X379000D01*
X372500Y393000D02*X379000D01*
X372500Y398000D02*X379000D01*
X372500Y403000D02*X379000D01*
G54D33*X392543Y398393D02*Y397607D01*
X385457Y398393D02*Y397607D01*
X336457Y277393D02*Y276607D01*
X343543Y277393D02*Y276607D01*
G54D30*X345000Y324000D02*X351500D01*
X345000Y319000D02*X351500D01*
X345000Y314000D02*X351500D01*
X345000Y309000D02*X351500D01*
X365500D02*X372000D01*
X365500Y314000D02*X372000D01*
X365500Y319000D02*X372000D01*
X365500Y324000D02*X372000D01*
G54D34*X487600Y250400D02*Y246600D01*
X466400Y250400D02*Y246600D01*
G54D33*X446095Y192681D02*Y190319D01*
X457905Y192681D02*Y190319D01*
X422095Y192681D02*Y190319D01*
X433905Y192681D02*Y190319D01*
X399095Y192681D02*Y190319D01*
X410905Y192681D02*Y190319D01*
X375095Y192681D02*Y190319D01*
X386905Y192681D02*Y190319D01*
G54D35*X427190Y201969D02*Y200000D01*
X433100Y217717D02*Y200000D01*
G54D36*Y212993D02*Y211811D01*
G54D11*G36*
X434569Y210344D02*X437431Y207481D01*
X435068Y205119D01*
X432206Y207982D01*
X434569Y210344D01*
G37*
G36*
X428768Y207481D02*X431630Y210344D01*
X433993Y207982D01*
X431131Y205119D01*
X428768Y207481D01*
G37*
G36*
X432206Y216823D02*X435068Y219686D01*
X437431Y217324D01*
X434569Y214461D01*
X432206Y216823D01*
G37*
G36*
X431131Y219686D02*X433993Y216823D01*
X431630Y214461D01*
X428768Y217324D01*
X431131Y219686D01*
G37*
G54D35*X439000Y201969D02*Y200000D01*
X380190Y201969D02*Y200000D01*
X386100Y217717D02*Y200000D01*
G54D36*Y212993D02*Y211811D01*
G54D11*G36*
X387569Y210344D02*X390431Y207481D01*
X388068Y205119D01*
X385206Y207982D01*
X387569Y210344D01*
G37*
G36*
X381768Y207481D02*X384630Y210344D01*
X386993Y207982D01*
X384131Y205119D01*
X381768Y207481D01*
G37*
G36*
X385206Y216823D02*X388068Y219686D01*
X390431Y217324D01*
X387569Y214461D01*
X385206Y216823D01*
G37*
G36*
X384131Y219686D02*X386993Y216823D01*
X384630Y214461D01*
X381768Y217324D01*
X384131Y219686D01*
G37*
G54D35*X392000Y201969D02*Y200000D01*
G54D30*X375500Y181000D02*X382000D01*
X375500Y176000D02*X382000D01*
X375500Y171000D02*X382000D01*
X375500Y166000D02*X382000D01*
X396000D02*X402500D01*
X396000Y171000D02*X402500D01*
X396000Y176000D02*X402500D01*
X396000Y181000D02*X402500D01*
G54D34*X510400Y250400D02*Y246600D01*
X531600Y250400D02*Y246600D01*
G54D33*X454914Y146786D02*Y146000D01*
X462000Y146786D02*Y146000D01*
X442405Y148181D02*Y145819D01*
X430595Y148181D02*Y145819D01*
X335607Y217957D02*X336393D01*
X335607Y225043D02*X336393D01*
X338043Y242893D02*Y242107D01*
X330957Y242893D02*Y242107D01*
X355457Y277393D02*Y276607D01*
X362543Y277393D02*Y276607D01*
G54D30*X348500Y298500D02*X355000D01*
X348500Y293500D02*X355000D01*
X348500Y288500D02*X355000D01*
X348500Y283500D02*X355000D01*
X369000D02*X375500D01*
X369000Y288500D02*X375500D01*
X369000Y293500D02*X375500D01*
X369000Y298500D02*X375500D01*
X316500Y210500D02*X323000D01*
X316500Y205500D02*X323000D01*
X316500Y200500D02*X323000D01*
X316500Y195500D02*X323000D01*
X337000D02*X343500D01*
X337000Y200500D02*X343500D01*
X337000Y205500D02*X343500D01*
X337000Y210500D02*X343500D01*
G54D33*X219957Y322893D02*Y322107D01*
X227043Y322893D02*Y322107D01*
X330607Y298043D02*X331393D01*
X330607Y290957D02*X331393D01*
X233043Y271393D02*Y270607D01*
X225957Y271393D02*Y270607D01*
X209457Y290893D02*Y290107D01*
X216543Y290893D02*Y290107D01*
X219595Y341181D02*Y338819D01*
X231405Y341181D02*Y338819D01*
Y332181D02*Y329819D01*
X219595Y332181D02*Y329819D01*
X361457Y155393D02*Y154607D01*
X368543Y155393D02*Y154607D01*
X312607Y366457D02*X313393D01*
X312607Y373543D02*X313393D01*
G54D30*X229000Y380000D02*X235500D01*
X229000Y375000D02*X235500D01*
X229000Y370000D02*X235500D01*
X229000Y365000D02*X235500D01*
X249500D02*X256000D01*
X249500Y370000D02*X256000D01*
X249500Y375000D02*X256000D01*
X249500Y380000D02*X256000D01*
G54D33*X192095Y302181D02*Y299819D01*
X203905Y302181D02*Y299819D01*
G54D30*X273500Y380000D02*X280000D01*
X273500Y375000D02*X280000D01*
X273500Y370000D02*X280000D01*
X273500Y365000D02*X280000D01*
X294000D02*X300500D01*
X294000Y370000D02*X300500D01*
X294000Y375000D02*X300500D01*
X294000Y380000D02*X300500D01*
G54D33*X219957Y348393D02*Y347607D01*
X227043Y348393D02*Y347607D01*
X311319Y289595D02*X313681D01*
X311319Y301405D02*X313681D01*
G54D38*X293000Y291300D02*Y290700D01*
X300800Y291300D02*Y290700D01*
X296900Y299500D02*Y298900D01*
G54D33*X284405Y293181D02*Y290819D01*
X272595Y293181D02*Y290819D01*
G54D30*X230500Y136000D02*X237000D01*
X230500Y131000D02*X237000D01*
X230500Y126000D02*X237000D01*
X230500Y121000D02*X237000D01*
X230500Y116000D02*X237000D01*
X230500Y111000D02*X237000D01*
X230500Y106000D02*X237000D01*
X251000D02*X257500D01*
X251000Y111000D02*X257500D01*
X251000Y116000D02*X257500D01*
X251000Y121000D02*X257500D01*
X251000Y126000D02*X257500D01*
X251000Y131000D02*X257500D01*
X251000Y136000D02*X257500D01*
X422500Y181000D02*X429000D01*
X422500Y176000D02*X429000D01*
X422500Y171000D02*X429000D01*
X422500Y166000D02*X429000D01*
X443000D02*X449500D01*
X443000Y171000D02*X449500D01*
X443000Y176000D02*X449500D01*
X443000Y181000D02*X449500D01*
G54D33*X288819Y156095D02*X291181D01*
X288819Y167905D02*X291181D01*
G54D30*X190000Y185500D02*X196500D01*
X190000Y180500D02*X196500D01*
X190000Y175500D02*X196500D01*
X190000Y170500D02*X196500D01*
X190000Y165500D02*X196500D01*
X190000Y160500D02*X196500D01*
X190000Y155500D02*X196500D01*
X190000Y150500D02*X196500D01*
X210500D02*X217000D01*
X210500Y155500D02*X217000D01*
X210500Y160500D02*X217000D01*
X210500Y165500D02*X217000D01*
X210500Y170500D02*X217000D01*
X210500Y175500D02*X217000D01*
X210500Y180500D02*X217000D01*
X210500Y185500D02*X217000D01*
X251500D02*X258000D01*
X251500Y180500D02*X258000D01*
X251500Y175500D02*X258000D01*
X251500Y170500D02*X258000D01*
X251500Y165500D02*X258000D01*
X251500Y160500D02*X258000D01*
X251500Y155500D02*X258000D01*
X272000D02*X278500D01*
X272000Y160500D02*X278500D01*
X272000Y165500D02*X278500D01*
X272000Y170500D02*X278500D01*
X272000Y175500D02*X278500D01*
X272000Y180500D02*X278500D01*
X272000Y185500D02*X278500D01*
X238000Y349000D02*X244500D01*
X238000Y344000D02*X244500D01*
X238000Y339000D02*X244500D01*
X238000Y334000D02*X244500D01*
X258500D02*X265000D01*
X258500Y339000D02*X265000D01*
X258500Y344000D02*X265000D01*
X258500Y349000D02*X265000D01*
G54D33*X201543Y203393D02*Y202607D01*
X194457Y203393D02*Y202607D01*
X210043Y222893D02*Y222107D01*
X202957Y222893D02*Y222107D01*
X221957Y222893D02*Y222107D01*
X229043Y222893D02*Y222107D01*
X192819Y230095D02*X195181D01*
X192819Y241905D02*X195181D01*
G54D30*X201500Y246000D02*X208000D01*
X201500Y241000D02*X208000D01*
X201500Y236000D02*X208000D01*
X201500Y231000D02*X208000D01*
X222000D02*X228500D01*
X222000Y236000D02*X228500D01*
X222000Y241000D02*X228500D01*
X222000Y246000D02*X228500D01*
G54D39*X195600Y277400D02*X203400D01*
X195600Y258600D02*X203400D01*
G54D30*X292500Y262500D02*X299000D01*
X292500Y257500D02*X299000D01*
X292500Y252500D02*X299000D01*
X292500Y247500D02*X299000D01*
X313000D02*X319500D01*
X313000Y252500D02*X319500D01*
X313000Y257500D02*X319500D01*
X313000Y262500D02*X319500D01*
X292500Y239000D02*X299000D01*
X292500Y234000D02*X299000D01*
X292500Y229000D02*X299000D01*
X292500Y224000D02*X299000D01*
X313000D02*X319500D01*
X313000Y229000D02*X319500D01*
X313000Y234000D02*X319500D01*
X313000Y239000D02*X319500D01*
X248000Y259000D02*X254500D01*
X248000Y254000D02*X254500D01*
X248000Y249000D02*X254500D01*
X248000Y244000D02*X254500D01*
X248000Y239000D02*X254500D01*
X248000Y234000D02*X254500D01*
X248000Y229000D02*X254500D01*
X248000Y224000D02*X254500D01*
X268500D02*X275000D01*
X268500Y229000D02*X275000D01*
X268500Y234000D02*X275000D01*
X268500Y239000D02*X275000D01*
X268500Y244000D02*X275000D01*
X268500Y249000D02*X275000D01*
X268500Y254000D02*X275000D01*
X268500Y259000D02*X275000D01*
G54D38*X235000Y311300D02*Y310700D01*
X242800Y311300D02*Y310700D01*
X238900Y319500D02*Y318900D01*
G54D30*X279500Y136000D02*X286000D01*
X279500Y131000D02*X286000D01*
X279500Y126000D02*X286000D01*
X279500Y121000D02*X286000D01*
X279500Y116000D02*X286000D01*
X279500Y111000D02*X286000D01*
X279500Y106000D02*X286000D01*
X300000D02*X306500D01*
X300000Y111000D02*X306500D01*
X300000Y116000D02*X306500D01*
X300000Y121000D02*X306500D01*
X300000Y126000D02*X306500D01*
X300000Y131000D02*X306500D01*
X300000Y136000D02*X306500D01*
G54D33*X284405Y331681D02*Y329319D01*
X272595Y331681D02*Y329319D01*
G54D30*X227000Y300500D02*X233500D01*
X227000Y295500D02*X233500D01*
X227000Y290500D02*X233500D01*
X227000Y285500D02*X233500D01*
X247500D02*X254000D01*
X247500Y290500D02*X254000D01*
X247500Y295500D02*X254000D01*
X247500Y300500D02*X254000D01*
X292000Y323000D02*X298500D01*
X292000Y318000D02*X298500D01*
X292000Y313000D02*X298500D01*
X292000Y308000D02*X298500D01*
X312500D02*X319000D01*
X312500Y313000D02*X319000D01*
X312500Y318000D02*X319000D01*
X312500Y323000D02*X319000D01*
G54D33*X272595Y302181D02*Y299819D01*
X284405Y302181D02*Y299819D01*
X272595Y321181D02*Y318819D01*
X284405Y321181D02*Y318819D01*
X272595Y311681D02*Y309319D01*
X284405Y311681D02*Y309319D01*
G54D30*X292000Y349000D02*X298500D01*
X292000Y344000D02*X298500D01*
X292000Y339000D02*X298500D01*
X292000Y334000D02*X298500D01*
X312500D02*X319000D01*
X312500Y339000D02*X319000D01*
X312500Y344000D02*X319000D01*
X312500Y349000D02*X319000D01*
G54D33*X250095Y311681D02*Y309319D01*
X261905Y311681D02*Y309319D01*
X249957Y318893D02*Y318107D01*
X257043Y318893D02*Y318107D01*
M02*
