M48
INCH
T11C0.020
T17C0.035
T18C0.060
T20C0.052
T40C0.038
T41C0.022
T45C0.043
T48C0.062
T51C0.030
T80C0.067
T81C0.103
T82C0.041
T83C0.042
T84C0.046
%
T11
X019400Y023600
X018600Y027900
X018600Y027450
X019550Y026800
X020250Y026800
X022200Y036000
X022200Y035400
X022200Y031150
X023500Y030550
X023400Y032350
X022200Y031550
X022250Y029350
X022550Y032950
X021500Y024100
X018000Y031600
X018650Y031600
X030500Y036500
X030500Y037500
X030500Y037000
X030800Y032050
X030850Y033900
X030800Y031300
X030800Y032800
X032450Y037000
X029100Y029900
X031200Y029550
X028100Y034400
X027900Y024400
X028400Y025250
X026150Y029550
X023800Y029050
X026150Y027900
X023950Y027350
X024300Y030550
X026300Y032000
X027000Y034400
X025150Y033900
X039250Y040500
X039250Y039150
X039250Y036650
X037800Y035700
X040000Y035700
X041050Y035700
X035600Y037200
X034400Y039950
X036300Y039800
X036300Y040300
X035600Y036700
X036100Y036700
X037800Y037750
X033100Y030400
X032450Y029800
X036450Y028850
X036000Y029350
X035600Y031900
X035600Y031400
X036100Y031400
X034900Y027850
X033150Y026400
X035500Y026400
X036100Y024150
X035500Y024150
X031900Y024300
X038050Y028850
X035600Y034050
X035600Y034550
X036100Y034050
X035600Y033050
X028100Y033900
X025350Y032450
X026650Y032900
X023800Y032950
X026050Y037500
X028500Y037700
X024050Y037500
X026050Y037000
X024200Y038900
X025750Y039900
X030450Y035800
X025150Y034400
X029550Y011200
X029050Y010600
X029550Y012100
X029050Y012600
X029550Y013600
X029550Y012600
X024150Y010550
X026200Y012600
X038200Y012500
X036100Y013000
X036750Y013000
X037350Y013000
X026200Y012100
X026200Y010600
X038100Y010700
X036850Y010700
X036850Y011900
X036250Y011900
X022400Y016250
X022400Y017050
X034350Y019000
X037400Y015400
X026200Y013100
X026850Y021050
X028400Y021050
X027600Y021950
X028300Y017050
X026450Y016750
X024150Y020650
X024700Y020650
X025400Y019600
X023400Y019600
X024750Y021350
X023950Y021150
X019650Y014500
X023450Y014550
X023450Y014050
X024200Y016550
X026800Y018050
X024200Y016050
X024200Y015550
X024500Y017800
X024700Y017100
X027200Y014550
X026700Y013950
X024700Y013950
X027250Y013950
X018550Y015550
X018550Y016550
X018550Y018550
X018550Y015050
X030600Y022550
X030600Y025250
X028800Y023400
X030550Y027900
X031850Y027350
X033000Y027900
X032450Y023600
X033000Y019350
X032950Y021750
X033300Y023100
X028850Y015050
X030600Y025850
X032450Y022400
X034250Y021600
X021500Y023600
X023900Y023600
X025400Y026300
X025850Y025900
X025850Y025400
X025850Y024900
X026400Y024200
X028800Y025750
X026350Y024950
X027900Y024900
X024700Y026300
X034400Y024150
X019700Y022400
X020600Y015750
X020100Y015350
X020600Y018050
X020600Y014900
X020500Y016550
X022400Y017550
X022150Y018550
X022650Y018550
X022400Y018050
X021600Y022400
X021000Y020550
X021000Y020150
X038600Y017600
X043300Y017600
X040750Y017100
X045450Y017100
X044000Y019100
X044500Y019950
X046150Y022100
X046250Y016350
X054300Y017300
X054300Y018300
X054300Y019300
X040750Y016350
X046250Y015500
X047300Y015450
X047800Y014950
X036250Y010700
X038750Y010500
X040600Y010750
X039450Y011250
X038850Y011250
X038850Y011900
X038750Y013000
X034800Y015300
X033900Y014600
X034850Y014600
X034350Y014600
X035350Y014600
X037350Y019900
X035500Y018500
X035500Y017650
X035500Y018050
X039300Y019100
X048250Y018100
X048250Y017600
X048450Y019400
X039800Y019950
X042050Y019900
X046200Y019900
X036100Y021300
X035500Y021300
X046150Y021300
X049100Y016000
X034800Y017100
X035500Y017200
X048750Y017100
X046700Y017100
X040800Y013150
X041750Y013000
X042050Y011250
X040800Y012650
X049850Y012600
X049950Y014850
X049950Y015400
X044900Y014550
T41
X028850Y017450
X028850Y020450
X033200Y035800
X033200Y038800
X037050Y024950
X040050Y024950
X041750Y026450
X040050Y026450
X037050Y026450
X041750Y024950
X044750Y026450
X044750Y024950
T51
X049050Y011750
X047050Y011750
T17
X019250Y029200
X023350Y035350
X021550Y026100
X021550Y025450
X021550Y027550
X020250Y028900
X022100Y040300
X040500Y028700
X052700Y023300
X047700Y026800
X053350Y023300
X042900Y011100
T40
X027100Y011850
X027100Y012850
X033150Y033800
X033150Y032800
X033150Y031800
X039300Y028800
X044900Y010750
X043900Y010750
X053200Y029000
X053200Y030000
X053200Y031000
X052209Y028994
T82
X053300Y036050
X053300Y035050
X053300Y034050
X053300Y033050
T83
X051400Y018300
X051400Y017300
X051400Y019300
T45
X023350Y039900
X024350Y039900
X027150Y039900
X028150Y039900
X030950Y039900
X031950Y039900
T84
X052410Y018300
X052410Y016300
X052410Y020300
X054310Y016300
X054310Y020300
T20
X042500Y039150
X046500Y039150
X048500Y037150
X040500Y037150
X040500Y031150
X042500Y029150
X048500Y031150
X046500Y029150
T18
X031300Y015950
X031300Y016950
X031300Y017950
X032500Y011000
X032500Y012000
X032500Y013000
T48
X038500Y034150
T80
X020400Y033550
T81
X020400Y031580
X020400Y035520
X018630Y033550
M30
