G04 start of page 4 for group 10 idx 10 *
G04 Title: (unknown), outline *
G04 Creator: pcb 20091103 *
G04 CreationDate: Sun Apr 13 13:29:21 2025 UTC *
G04 For: bh *
G04 Format: Gerber/RS-274X *
G04 PCB-Dimensions: 730000 950000 *
G04 PCB-Coordinate-Origin: lower left *
%MOIN*%
%FSLAX25Y25*%
%LNMECHANICAL*%
%ADD52C,0.0060*%
G54D52*X194000Y92500D02*X523000D01*
X173000Y404500D02*Y103500D01*
X175500Y101000D02*X185500D01*
X175500Y407000D02*X185500D01*
X531500D02*X550000D01*
X552500Y404500D02*Y103500D01*
X531500Y101000D02*X550000D01*
X501500Y272000D02*X515500D01*
X194000Y415500D02*X523000D01*
X497000Y290000D02*Y276500D01*
X506000Y290000D02*Y285500D01*
X510500Y281000D02*X515500D01*
X442500Y352000D02*Y342000D01*
X456000Y346500D02*X459000D01*
X506000Y342000D02*Y333000D01*
X447000Y337500D02*X459000D01*
X492500Y346500D02*X501500D01*
X451500Y352000D02*Y351000D01*
X191500Y413000D02*G75*G02X194000Y415500I2500J0D01*G01*
X173000Y404500D02*G75*G02X175500Y407000I2500J0D01*G01*
X185500Y101000D02*G75*G02X191500Y95000I0J-6000D01*G01*
Y413000D02*G75*G02X185500Y407000I-6000J0D01*G01*
X175500Y101000D02*G75*G02X173000Y103500I0J2500D01*G01*
X194000Y92500D02*G75*G02X191500Y95000I0J2500D01*G01*
X552500Y103500D02*G75*G02X550000Y101000I-2500J0D01*G01*
X525500Y95000D02*G75*G02X523000Y92500I-2500J0D01*G01*
Y415500D02*G75*G02X525500Y413000I0J-2500D01*G01*
Y95000D02*G75*G02X531500Y101000I6000J0D01*G01*
Y407000D02*G75*G02X525500Y413000I0J6000D01*G01*
X550000Y407000D02*G75*G02X552500Y404500I0J-2500D01*G01*
X451500Y352000D02*G75*G03X447000Y356500I-4500J0D01*G01*
X442500Y342000D02*G75*G03X447000Y337500I4500J0D01*G01*
X459000D02*G75*G03X463500Y342000I0J4500D01*G01*
G75*G03X459000Y346500I-4500J0D01*G01*
X451500Y351000D02*G75*G03X456000Y346500I4500J0D01*G01*
X447000Y356500D02*G75*G03X442500Y352000I0J-4500D01*G01*
X497000Y276500D02*G75*G03X501500Y272000I4500J0D01*G01*
X506000Y290000D02*G75*G03X501500Y294500I-4500J0D01*G01*
G75*G03X497000Y290000I0J-4500D01*G01*
X506000Y285500D02*G75*G03X510500Y281000I4500J0D01*G01*
X515500Y272000D02*G75*G03X520000Y276500I0J4500D01*G01*
G75*G03X515500Y281000I-4500J0D01*G01*
X492500Y346500D02*G75*G03X488000Y342000I0J-4500D01*G01*
G75*G03X492500Y337500I4500J0D01*G01*
X506000Y342000D02*G75*G03X501500Y346500I-4500J0D01*G01*
X497000Y333000D02*G75*G03X501500Y328500I4500J0D01*G01*
G75*G03X506000Y333000I0J4500D01*G01*
X497000D02*G75*G03X492500Y337500I-4500J0D01*G01*
M02*
