M48
INCH
T11C0.020
T17C0.035
T18C0.060
T20C0.052
T40C0.038
T41C0.022
T45C0.043
T48C0.062
T51C0.030
T80C0.067
T81C0.103
T82C0.041
T83C0.042
T84C0.046
%
T11
X016300Y035250
X014450Y034750
X017400Y034750
X017400Y035250
X014450Y035250
X011500Y036850
X011500Y036250
X019800Y037350
X020150Y034750
X013350Y038350
X013500Y039750
X015350Y037850
X019750Y036650
X011500Y032000
X012800Y031400
X011500Y032400
X007300Y032450
X007950Y032450
X015600Y032850
X013600Y031400
X015450Y030400
X014650Y033300
X013100Y033800
X011850Y033800
X013100Y029900
X011550Y030200
X012700Y033200
X015950Y033750
X015350Y038350
X015050Y040750
X019800Y038350
X017800Y038550
X019800Y037850
X021750Y037850
X028550Y041350
X028550Y040000
X028550Y037500
X027100Y036550
X029300Y036550
X030350Y036550
X024900Y038050
X023700Y040800
X025600Y040650
X025600Y041150
X024900Y037550
X025400Y037550
X027100Y038600
X020100Y032900
X018400Y030750
X020100Y032150
X020500Y030400
X021750Y030650
X022400Y031250
X025750Y029700
X025300Y030200
X027350Y029700
X024900Y032750
X024900Y032250
X025400Y032250
X024900Y034900
X024900Y035400
X025400Y034900
X024900Y033900
X020100Y033650
X018850Y012050
X018350Y011450
X018850Y012950
X018350Y013450
X018850Y013450
X013450Y011400
X015500Y011450
X016000Y014800
X015500Y013450
X015500Y012950
X015500Y013950
X014000Y014800
X014700Y027150
X015150Y026750
X015150Y026250
X018100Y024250
X016150Y021900
X017700Y021900
X016900Y022800
X013450Y021500
X013250Y022000
X013200Y024450
X014000Y021500
X014050Y022200
X015150Y025750
X015700Y025050
X018100Y026600
X015650Y025800
X017200Y025250
X017700Y026100
X010300Y021400
X010300Y021000
X010800Y024950
X007900Y028750
X007900Y028300
X008850Y027650
X009550Y027650
X016100Y018900
X017600Y017900
X015750Y017600
X016500Y015400
X016550Y014800
X018850Y014450
X018150Y015900
X021200Y025150
X019900Y023400
X014700Y020450
X012700Y020450
X026650Y020750
X035500Y020750
X021750Y023250
X023550Y022450
X023700Y025000
X025400Y022150
X025400Y025000
X024800Y025000
X024800Y022150
X022300Y020200
X037750Y020250
X022250Y022600
X022600Y023950
X008700Y024450
X010800Y024450
X009000Y023250
X021750Y024450
X010900Y023250
X035450Y022150
X035450Y022950
X014000Y027150
X015450Y028750
X013250Y028200
X017200Y025750
X019850Y028750
X021150Y028200
X019900Y026100
X022300Y028750
X019900Y026700
X022450Y027250
X024200Y028700
X024800Y027250
X009900Y016600
X009400Y016200
X009900Y015750
X008950Y015350
X013500Y017400
X013500Y016900
X013500Y016400
X013800Y018650
X014000Y017950
X009900Y018900
X009800Y017400
X011700Y017100
X011700Y017900
X011700Y018400
X011450Y019400
X011950Y019400
X011700Y018900
X012750Y015400
X012750Y014900
X007850Y016400
X007850Y015900
X007850Y017400
X007850Y019400
X025550Y011550
X025550Y012750
X026150Y011550
X026150Y012750
X025400Y013850
X026050Y013850
X026650Y013850
X029900Y011600
X028750Y012100
X028050Y011350
X030100Y012250
X028050Y013850
X030100Y014000
X031050Y013850
X030100Y013500
X027400Y011550
X027500Y013350
X028150Y012100
X028150Y012750
X031000Y012300
X030550Y011400
X037550Y018950
X037550Y018450
X039150Y013450
X039250Y015700
X039250Y016250
X038050Y017950
X036000Y017950
X043600Y018150
X043600Y019150
X043600Y020150
X024100Y017950
X024800Y019350
X024800Y018050
X024800Y018500
X024800Y018900
X038400Y016850
X035550Y016350
X035550Y017200
X034200Y015400
X024100Y016150
X023200Y015450
X024150Y015450
X023650Y015450
X024650Y015450
X036600Y016300
X037100Y015800
X027900Y018450
X030050Y017950
X028600Y019950
X030050Y017200
X033800Y020800
X029100Y020800
X031350Y020750
X023650Y019850
X026700Y016250
X032600Y018450
X034750Y017950
X033300Y019950
T41
X018150Y018300
X018150Y021300
X022500Y036650
X022500Y039650
X026350Y025800
X029350Y025800
X031050Y027300
X029350Y027300
X026350Y027300
X031050Y025800
X034050Y027300
X034050Y025800
T51
X038350Y012600
X036350Y012600
T17
X012650Y036200
X011400Y041150
X008550Y030050
X009550Y029750
X029800Y029550
X010850Y026950
X010850Y026300
X010850Y028400
X042000Y024150
X042650Y024150
X037000Y027650
X031800Y011950
T40
X016400Y012700
X016400Y013700
X022450Y034650
X022450Y033650
X022450Y032650
X028600Y029650
X034200Y011600
X033200Y011600
X042500Y029850
X042500Y030850
X042500Y031850
X041509Y029844
T82
X042600Y036900
X042600Y035900
X042600Y034900
X042600Y033900
T83
X040700Y019150
X040700Y018150
X040700Y020150
T45
X012650Y040750
X013650Y040750
X016450Y040750
X017450Y040750
X020250Y040750
X021250Y040750
T84
X041710Y019150
X041710Y017150
X041710Y021150
X043610Y017150
X043610Y021150
T20
X031800Y040000
X035800Y040000
X037800Y038000
X029800Y038000
X029800Y032000
X031800Y030000
X037800Y032000
X035800Y030000
T18
X020600Y016800
X020600Y017800
X020600Y018800
X021800Y011850
X021800Y012850
X021800Y013850
T48
X027800Y035000
T80
X009700Y034400
T81
X009700Y032430
X009700Y036370
X007930Y034400
M30
