G04 start of page 2 for group 0 idx 0 *
G04 Title: (unknown), component *
G04 Creator: pcb 20091103 *
G04 CreationDate: Thu Nov 21 17:08:47 2024 UTC *
G04 For: bh *
G04 Format: Gerber/RS-274X *
G04 PCB-Dimensions: 560000 900000 *
G04 PCB-Coordinate-Origin: lower left *
%MOIN*%
%FSLAX25Y25*%
%LNTOP*%
%ADD11C,0.0200*%
%ADD12C,0.0400*%
%ADD13C,0.0100*%
%ADD14C,0.0180*%
%ADD15C,0.0140*%
%ADD16C,0.0250*%
%ADD17C,0.0350*%
%ADD18C,0.0600*%
%ADD19C,0.0900*%
%ADD20C,0.0520*%
%ADD21C,0.1216*%
%ADD22C,0.1661*%
%ADD23C,0.0650*%
%ADD24C,0.0880*%
%ADD25C,0.0800*%
%ADD26C,0.1060*%
%ADD27C,0.0868*%
%ADD28C,0.0905*%
%ADD29C,0.0360*%
%ADD30R,0.0200X0.0200*%
%ADD31C,0.0160*%
%ADD32R,0.0160X0.0160*%
%ADD33R,0.0512X0.0512*%
%ADD34R,0.1400X0.1400*%
%ADD35R,0.0394X0.0394*%
%ADD36R,0.0866X0.0866*%
%ADD37R,0.1230X0.1230*%
%ADD38R,0.0340X0.0340*%
%ADD39R,0.0970X0.0970*%
%ADD40C,0.0380*%
%ADD41C,0.0220*%
%ADD42C,0.1299*%
%ADD43C,0.0672*%
%ADD44C,0.1027*%
%ADD45C,0.0430*%
%ADD46C,0.0408*%
%ADD47C,0.0709*%
%ADD48C,0.0620*%
%ADD49C,0.0418*%
%ADD50C,0.0455*%
%ADD51C,0.0300*%
%ADD52C,0.0060*%
G54D11*G36*
X333000Y282500D02*X346500D01*
Y279500D01*
X334500Y267500D01*
Y242000D01*
X317000D01*
Y266500D01*
X333000Y282500D01*
G37*
G36*
X305000Y222500D02*Y244000D01*
X347500D01*
Y222500D01*
X305000D01*
G37*
G36*
Y227000D02*X318000D01*
Y207500D01*
X305000D01*
Y227000D01*
G37*
G36*
X334500D02*X347500D01*
Y207500D01*
X334500D01*
Y227000D01*
G37*
G36*
X417500Y230000D02*Y236000D01*
X429000D01*
Y230000D01*
X417500D01*
G37*
G36*
X279500Y134000D02*X282500D01*
Y124000D01*
X283000Y123500D01*
X289500D01*
Y110500D01*
X283000D01*
X282500Y110000D01*
Y103000D01*
X279500D01*
Y134000D01*
G37*
G36*
X303000Y111500D02*X299000D01*
Y116500D01*
X312500D01*
Y106000D01*
X309500Y103000D01*
X303000D01*
Y111500D01*
G37*
G36*
X299000Y124500D02*Y134000D01*
X312500D01*
Y124500D01*
X299000D01*
G37*
G36*
X286000Y282500D02*X299500D01*
Y279500D01*
X287500Y267500D01*
Y242000D01*
X270000D01*
Y266500D01*
X286000Y282500D01*
G37*
G36*
X258000Y222500D02*Y244000D01*
X300500D01*
Y222500D01*
X258000D01*
G37*
G36*
Y227000D02*X271000D01*
Y207500D01*
X258000D01*
Y227000D01*
G37*
G36*
X287500D02*X300500D01*
Y207500D01*
X287500D01*
Y227000D01*
G37*
G36*
X117000Y309500D02*X96500D01*
Y317500D01*
X117000D01*
Y309500D01*
G37*
G36*
X241500Y103000D02*Y108500D01*
X282500D01*
Y103000D01*
X241500D01*
G37*
G36*
Y128000D02*Y134000D01*
X282500D01*
Y128000D01*
X241500D01*
G37*
G54D12*X114000Y403000D02*Y388500D01*
X109500Y381500D01*
X115000Y360000D02*X109500D01*
Y381500D02*Y360000D01*
Y370000D02*X97000D01*
X109500Y360000D02*X97000Y355400D01*
Y370000D02*Y355400D01*
G54D13*X115000Y354000D02*Y349650D01*
G54D12*Y360000D02*Y354000D01*
G54D14*X96905Y301381D02*Y315905D01*
X85000Y323700D02*Y301476D01*
X97000Y335700D02*X85000Y323700D01*
G54D15*X108500Y323000D02*X112850D01*
X97000Y335700D02*X108500Y323000D01*
G54D14*X118500Y329500D02*X112914D01*
G54D15*X119000Y334500D02*X120000Y333500D01*
G54D14*X97000Y335700D02*Y336000D01*
G54D13*X177405Y321181D02*Y329319D01*
G54D15*X123000Y333500D02*X121500Y320500D01*
X120000Y333500D02*X123086D01*
G54D13*X160500Y325500D02*X165595Y322181D01*
X131000Y334000D02*Y329500D01*
X127000Y323500D02*X137500Y327500D01*
X142500Y331500D01*
X128000Y305500D02*Y310700D01*
X131500Y302000D02*Y297000D01*
X130000Y295500D01*
X126500D01*
X131500Y302000D02*X128000Y305500D01*
X135500Y300500D02*Y292000D01*
X136000Y310500D02*X135800Y310700D01*
X136000Y305500D02*Y310500D01*
X131900Y318900D02*X142950D01*
X135500Y300500D02*X136000Y305500D01*
X135500Y292000D02*X137000Y290500D01*
X140500D01*
X173000Y293500D02*X177086D01*
G54D15*X159500Y292500D02*X164914D01*
X159500D02*X154500Y295500D01*
G54D13*X165595Y311681D02*X154905D01*
X178724Y313000D02*X177405Y311681D01*
X131000Y290500D02*X126500D01*
X131000Y339000D02*X125724D01*
G54D15*X122000Y349500D02*X122500Y338086D01*
G54D13*X144500Y344000D02*X137500D01*
G54D12*X126500Y360000D02*Y353500D01*
G54D15*X112595Y338819D02*X117681D01*
X119000Y337500D01*
Y334500D01*
G54D13*X139000Y359500D02*Y378000D01*
X122000Y370000D02*X119500D01*
X128500Y365000D02*Y359500D01*
Y375000D02*X133500D01*
X119500Y370000D02*X118500Y371000D01*
Y384500D01*
X139000Y378000D02*X135000Y389000D01*
G54D12*X143000Y355000D02*X143500Y354500D01*
X143000Y360000D02*Y355000D01*
X135500Y360000D02*Y354500D01*
X177500Y360000D02*Y354500D01*
X169000D02*Y360000D01*
X159500D02*Y354500D01*
X150500Y360000D02*Y354500D01*
X126500Y360000D02*X177500D01*
X135500Y354500D02*X177500D01*
G54D15*X207000Y404500D02*X212500Y399000D01*
X225000Y371500D02*X174500Y399000D01*
X170000Y404500D02*X207000D01*
G54D13*X153500Y370000D02*X149000D01*
G54D15*X158500Y371000D02*X157500Y370000D01*
X153500D01*
G54D13*Y375000D02*X149000D01*
X143500Y401500D02*Y395500D01*
X140500Y404500D02*X143500Y401500D01*
X120500Y404500D02*X140500D01*
G54D15*X126000Y397500D02*X158500Y383500D01*
G54D13*X143500Y395500D02*X162500Y386000D01*
X118500Y384500D02*X120500Y404500D01*
G54D15*X158500Y383500D02*Y371000D01*
G54D13*X162500Y386000D02*Y371000D01*
X163500Y370000D01*
G54D15*X183500Y384500D02*Y370500D01*
G54D13*X173000Y375000D02*X175500D01*
X178000Y377000D01*
X163500Y370000D02*X166500D01*
X173000D02*X176500D01*
X185000Y361500D01*
X173000Y365000D02*Y360000D01*
X185000Y361500D02*X199500D01*
G54D15*X178000Y377000D02*Y383000D01*
X183500Y384500D02*X164500Y399000D01*
X178000Y383000D02*X150500Y399000D01*
X164500D02*X170000Y404500D01*
G54D13*X239000Y362000D02*X234000D01*
X244500Y367000D02*X249000D01*
X258500D02*X254000D01*
G54D15*X232000Y400000D02*X239500Y407500D01*
X225000Y388000D02*X212500Y399000D01*
X229500Y380500D02*X232000Y395500D01*
Y400000D01*
G54D13*X237000Y399500D02*Y394150D01*
G54D16*X233500Y378500D02*X236000Y381000D01*
G54D13*Y384850D01*
X238150Y393000D02*X237607Y393543D01*
G54D15*X239500Y407500D02*X254000D01*
G54D13*X278064Y398000D02*X278457Y398393D01*
X285500Y405000D02*Y391500D01*
X277500Y388500D02*Y397436D01*
X278457Y398393D01*
X272000Y398000D02*X278064D01*
G54D15*X256500Y380500D02*X249000Y372000D01*
G54D13*X245000Y388000D02*X239936D01*
X245000Y393000D02*X238150D01*
G54D15*X254000Y407500D02*X256000Y403000D01*
X261000Y399500D01*
G54D13*X244500Y372000D02*X249000D01*
X265000D02*X269000D01*
G54D16*X277000D01*
X277500Y371500D01*
G54D13*X251500Y398000D02*X256000D01*
G54D15*X268000Y380500D02*X256500D01*
X268000D02*X271000Y377500D01*
X261000Y399500D02*Y394000D01*
X262000Y393000D01*
G54D13*X265500D01*
X177405Y309319D02*Y302181D01*
X205500Y339000D02*X201500D01*
X198000Y365000D02*X204936D01*
X198000Y340500D02*Y337500D01*
G54D16*X195000Y333500D02*X196000Y326000D01*
X195000Y333500D02*Y358500D01*
G54D13*X201000Y360000D02*Y355500D01*
X198000Y340500D01*
X224000Y298436D02*X224393Y298043D01*
X224000Y304000D02*Y298436D01*
G54D15*X224500Y318000D02*X229500Y323000D01*
G54D13*X253000Y293500D02*X248000D01*
X231457Y290957D02*X231500Y291000D01*
X268500Y293500D02*X274000D01*
X249000Y314000D02*X244500D01*
X249000Y319000D02*X244500D01*
X238000Y309000D02*X233500D01*
G54D12*Y378500D01*
G54D15*X229500Y323000D02*Y380500D01*
G54D12*X233500Y309000D02*X231000Y297000D01*
G54D15*X225000Y371500D02*Y358000D01*
G54D13*X238000Y335500D02*X233000D01*
X254000Y314000D02*X258500D01*
X270000Y319000D02*X265000D01*
G54D16*X249000Y330500D02*X267000D01*
X277500Y354500D02*X268500Y345500D01*
G54D13*X254000Y340500D02*X258500D01*
X265000Y345500D02*X268500D01*
X249000D02*X244500D01*
X249000Y340500D02*X244500D01*
G54D14*X271000Y357000D02*X254500D01*
X249000Y367000D01*
G54D12*X277500Y354500D02*Y388500D01*
G54D13*X183500Y106000D02*X179000D01*
Y111000D02*X183500D01*
G54D16*X188500Y112000D02*Y99500D01*
G54D13*Y121000D02*X179000D01*
X188500Y126000D02*X193000D01*
X179000D02*X183500D01*
X188500Y136000D02*X193000D01*
X179000Y116000D02*X193000D01*
G54D16*X183500Y106000D02*Y116000D01*
G54D12*X206000Y150500D02*Y99500D01*
X193500Y141500D02*X206000D01*
X193500Y150500D02*X206000D01*
Y179500D02*X215000D01*
X206000Y99500D02*X115500D01*
G54D13*X135000Y124500D02*X136500Y131000D01*
X144000Y136000D02*X140000D01*
X157000Y135500D02*X158500Y134000D01*
X165500Y134500D02*X169000Y131000D01*
X172500D01*
G54D12*X218000Y130000D02*X206000D01*
G54D13*X134500Y106000D02*X130000D01*
X155000D02*X150500D01*
X155000Y126000D02*X150500D01*
X158500Y134000D02*Y113000D01*
X155000Y121000D02*X150500D01*
X158500Y113000D02*X155000Y106000D01*
X150500Y116000D02*X155000D01*
X150500Y111000D02*X153500D01*
X155000Y121000D02*Y113500D01*
X153500Y111000D01*
X199500Y121000D02*Y116000D01*
X181500Y174500D02*Y168224D01*
X181819Y167905D02*Y167819D01*
X176500Y162500D01*
G54D15*X181500Y150500D02*Y155776D01*
G54D13*X176500Y162500D02*Y136000D01*
X151000Y151500D02*X155000Y131000D01*
X161500Y153500D02*X165000Y145500D01*
X154500Y146500D02*X157000Y135500D01*
G54D16*X158000Y147500D02*X160000Y139500D01*
G54D13*X165500D02*Y134500D01*
G54D16*X154500Y170500D02*X158000Y167000D01*
G54D13*X150500Y180500D02*X154500D01*
G54D16*Y190000D02*Y170500D01*
G54D13*X130000Y126000D02*Y116000D01*
X135000Y124500D02*Y116000D01*
X130000Y111000D01*
X120500Y129000D02*Y141500D01*
G54D12*X115500Y138500D02*Y99500D01*
G54D13*X144000Y131000D02*Y126000D01*
X120500Y129000D02*X123500Y126000D01*
X130000Y131000D02*X133000D01*
X131500Y138500D02*X130000Y136000D01*
X133000Y131000D02*X134000Y132000D01*
G54D16*X140000Y139500D02*Y99000D01*
G54D13*X95500Y144000D02*X118000D01*
G54D12*X73000Y138500D02*X115500D01*
G54D13*X118000Y144000D02*X120500Y141500D01*
X110000Y150500D02*X117000D01*
X122500Y145000D01*
G54D16*X78500Y150500D02*Y147000D01*
X80500Y145000D01*
G54D13*X78500Y155500D02*X73000D01*
X142000Y175500D02*X136000Y173500D01*
X113500Y155500D01*
X138000Y178000D02*Y182500D01*
X140000Y167000D02*X141500Y165500D01*
X144500Y185500D02*X141000D01*
X140000Y171000D02*Y167000D01*
X117000Y180500D02*X138000Y178000D01*
X131500Y158500D02*Y138500D01*
X134000Y147500D02*X135000Y155500D01*
X134000Y132000D02*Y147500D01*
X136500Y131000D02*Y145000D01*
X138500Y154000D01*
Y158500D01*
X122500Y145000D02*X127500Y140500D01*
X96650Y205500D02*X94543Y203393D01*
X95957Y222107D02*Y214457D01*
X103000Y205500D02*X96650D01*
G54D12*X127000Y214000D02*X83500D01*
G54D13*X114850Y224000D02*X103150D01*
X127500Y225500D02*X122000Y225000D01*
G54D12*X109000Y207500D02*X127000D01*
G54D16*X136000Y229000D02*Y223000D01*
G54D14*X136500Y234500D02*X127500Y225500D01*
G54D16*X136000Y223000D02*X127000Y214000D01*
X132500Y211500D02*X140500Y213500D01*
G54D13*X140000Y206500D02*X157500Y214500D01*
X155000Y217000D02*X141500Y210000D01*
X139000D01*
X134500Y206500D01*
G54D16*X151500Y220000D02*X140500Y213500D01*
G54D14*X136500Y237000D02*Y234500D01*
G54D12*X83500Y214000D02*X79000Y218500D01*
G54D14*X90000Y224000D02*Y228276D01*
G54D13*X94500Y231000D02*Y223564D01*
G54D12*X79000Y208000D02*X73000D01*
Y202000D02*X79000D01*
G54D13*X87000Y236000D02*Y240724D01*
X94500Y236000D02*X87000D01*
G54D14*X90000Y228276D02*X88181Y230095D01*
G54D12*X79000Y218500D02*Y247000D01*
G54D13*X103000Y201500D02*X95650D01*
G54D12*X73000Y298000D02*X79000D01*
X85500Y292000D02*X73000D01*
G54D16*X79000Y279000D02*X87000D01*
G54D12*X79000Y286000D02*X73000D01*
G54D16*X79000Y247000D02*X90100Y261100D01*
X79000Y274500D02*X93500D01*
G54D12*X115500Y293500D02*Y279000D01*
G54D13*X120000Y285500D02*X115500D01*
X109543Y290107D02*X115893D01*
X95500Y289000D02*X101350D01*
G54D12*X132500Y263000D02*X116500D01*
G54D13*X132500Y273500D02*X128150D01*
X126043Y271393D01*
G54D12*X116500Y263000D02*X111500Y268000D01*
G54D13*X119957Y270107D02*Y262543D01*
G54D12*X111500Y268000D02*X73000D01*
G54D13*X141000Y229000D02*X136000D01*
G54D16*X175500Y236000D02*Y225000D01*
G54D12*X153000Y196000D02*X165000D01*
X127000Y214000D02*Y201500D01*
X109000D02*Y214000D01*
X115000D02*Y201500D01*
X121000Y214000D02*Y201500D01*
X73000Y190500D02*X193500D01*
G54D16*X200500Y191000D02*X206000Y179500D01*
G54D13*X221000Y200500D02*X223000Y198500D01*
Y193500D01*
X216000Y200500D02*X221000D01*
X209500Y195500D02*X205000D01*
G54D16*X201000D01*
G54D12*X188000Y210500D02*X200500D01*
X188000Y203500D02*X200500D01*
G54D13*X185500Y224000D02*Y217500D01*
X192000Y229000D02*X195500D01*
X199000Y225500D02*X195500Y229000D01*
G54D12*X200500Y190500D02*Y217500D01*
X170000Y201500D02*X177000Y196000D01*
X200500D01*
X193500D02*Y216000D01*
X188000Y210500D02*Y196000D01*
X193000Y190500D02*X193500D01*
X127000Y196000D02*X147000D01*
X121000D02*X73000D01*
X109000Y201500D02*X170000D01*
G54D13*X87457Y202607D02*Y195543D01*
X87500Y195500D01*
G54D12*X121000Y196000D02*Y190500D01*
X103000Y196000D02*Y190500D01*
X109000Y195500D02*Y190500D01*
X115000Y196000D02*Y190500D01*
X97000Y196000D02*Y190500D01*
X79000Y208000D02*Y190500D01*
X85000Y196000D02*Y190500D01*
X91000Y196000D02*Y190500D01*
X153000D02*Y196000D01*
X159000Y190500D02*Y196000D01*
X165000Y190500D02*Y196000D01*
G54D13*X201000Y313000D02*X205500D01*
G54D12*X217500Y370000D02*Y234000D01*
G54D13*X212500D02*X217500D01*
X212500Y257500D02*X217500D01*
G54D16*X212000Y243000D02*X195500D01*
G54D13*X192000Y247500D01*
X175500Y246500D02*X172000Y249000D01*
X175500Y241000D02*Y246500D01*
X199500Y361500D02*X201000Y360000D01*
G54D12*X197500Y358000D02*X177500D01*
G54D13*X198000Y370000D02*X193500D01*
Y375000D02*X205350D01*
G54D15*X183500Y370500D02*X184000Y370000D01*
G54D13*X187000D01*
X89500Y180500D02*X99000D01*
X89500Y175500D02*X93000D01*
X94000Y174500D01*
X89500Y185500D02*X103500D01*
X78500D02*Y191000D01*
X99000Y157500D02*X105000Y155500D01*
X94000Y153500D02*X88500Y155500D01*
X110000D02*X113500D01*
X94000Y174500D02*Y161500D01*
X93000Y160500D01*
X89000D01*
X78500Y165500D02*X83000D01*
X89500Y170500D02*X94000D01*
X89500Y165500D02*X98000D01*
X105000Y150500D02*X99000Y149000D01*
X89500Y150500D02*Y145000D01*
X94000Y153500D02*Y145500D01*
X95500Y144000D01*
G54D16*X80500Y145000D02*X89500D01*
G54D13*X117000Y170500D02*X110000D01*
X117000Y175500D02*X110000D01*
Y185500D02*X114500D01*
G54D16*Y190000D02*Y185500D01*
X119500D01*
Y190500D01*
G54D13*X117000Y162500D02*X108500Y165500D01*
X154000Y170500D02*X151000D01*
Y155500D02*Y151500D01*
Y165500D02*X153500D01*
X161500Y171000D02*Y153500D01*
G54D16*X158000Y167000D02*Y147500D01*
G54D13*X153500Y165500D02*X154500Y164500D01*
X165500Y139500D02*X171500Y145500D01*
Y155500D01*
G54D12*X193500Y190500D02*Y141500D01*
G54D13*X176000Y170500D02*X171500D01*
X165000D02*Y165500D01*
X157500Y177500D02*X161500Y171000D01*
X165000Y185500D02*X160500D01*
X157500Y182500D01*
X161000Y180500D02*X165000D01*
X157500Y182500D02*Y177500D01*
X141500Y165500D02*X144500D01*
X135000Y160500D02*X131500Y158500D01*
X144500Y160500D02*X140500D01*
X138500Y158500D01*
X127500Y161000D02*X135000Y165500D01*
X127500Y145500D02*Y161000D01*
X138000Y182500D02*X141000Y185500D01*
X144500Y175500D02*X142000D01*
X154500Y164500D02*Y146500D01*
G54D12*X140000Y279000D02*Y273500D01*
X147000D01*
Y279000D01*
X73000Y138500D02*Y304000D01*
X79000D01*
Y286000D01*
X73000Y316000D02*X79500D01*
Y335500D01*
X79300Y335700D02*X97000Y355400D01*
X132500Y241000D02*Y268000D01*
G54D13*X108000Y236000D02*X115000D01*
G54D14*X127000Y241000D02*X132500D01*
G54D13*X127000D02*X121500D01*
X132000Y236000D02*X121500D01*
G54D12*X108500Y261000D02*Y254500D01*
G54D14*X132500Y241000D02*X136500Y237000D01*
G54D13*X138500Y239000D02*X141000D01*
Y249000D02*X138500D01*
X137500Y248000D01*
Y240000D01*
X138500Y239000D01*
G54D12*X115500Y279000D02*X108500Y275500D01*
G54D16*X95500Y289000D02*Y277800D01*
X140000Y263000D02*X147000D01*
X108500Y261000D02*X98800D01*
X96400Y258600D01*
G54D13*X108000Y241000D02*X101000D01*
G54D12*X147000Y279000D02*X115500D01*
G54D13*X185500Y247500D02*X180000D01*
X181000Y257500D02*X185500D01*
G54D16*X180000Y247500D02*Y240000D01*
G54D13*X181000Y234000D02*X185500D01*
G54D12*X154500Y279000D02*Y268000D01*
G54D16*X156500Y256500D02*X155500Y263000D01*
G54D13*X168000Y259000D02*Y268000D01*
G54D12*X164000Y284500D02*X153000D01*
G54D16*X151500Y243000D02*X154000Y245500D01*
G54D13*X151500Y249000D02*X147500D01*
X151500Y254000D02*X147500D01*
X151500Y259000D02*X147500D01*
G54D16*X156500Y249500D02*Y256500D01*
G54D13*X172000Y244000D02*X168000D01*
X161500Y254000D02*X156500D01*
X161500Y249000D02*X158500Y246000D01*
X157000Y242000D01*
G54D14*X154000Y245500D02*X156500Y249500D01*
G54D13*X161500Y221000D02*X163000Y219500D01*
X157500Y228000D02*Y214500D01*
X155000Y231500D02*Y217000D01*
G54D16*X151500Y243000D02*Y220000D01*
G54D13*X161500Y224000D02*Y221000D01*
X163000Y219500D02*X169000D01*
G54D12*X161500Y210500D02*X177000D01*
X169000Y219500D02*Y210500D01*
G54D16*X175500Y225000D02*X181500Y217500D01*
G54D13*X161500Y229000D02*X158500D01*
X157500Y228000D01*
X161500Y234000D02*X157500D01*
X155000Y231500D01*
X147500Y234000D02*X151500D01*
X147500Y224000D02*X151500D01*
G54D16*X175500Y236000D02*X180000Y240000D01*
G54D13*X167500Y239000D02*X173500D01*
X175500Y241000D01*
X165595Y299819D02*X170681D01*
X172000Y298500D01*
Y294500D01*
X173000Y293500D01*
X154000Y295500D02*X147000D01*
G54D14*Y263000D02*X155500D01*
G54D12*X153000Y284500D02*X147000Y279000D01*
G54D13*X159500Y329000D02*X165276D01*
X165595Y329319D01*
X156000Y312776D02*Y323000D01*
X163000Y344000D02*X158000D01*
X144500Y339000D02*X151500D01*
X160500Y325500D02*X157500D01*
X151500Y328500D01*
X144500D01*
X156000Y320000D02*X150650D01*
X146500Y324500D02*X153000D01*
X142957Y318107D02*Y311819D01*
X156000Y323000D02*X153000Y324500D01*
X144500Y328500D02*X138000Y322000D01*
G54D12*X278500Y319000D02*X287500Y335000D01*
G54D16*X270000Y319000D02*X278500D01*
G54D13*X142500Y331500D02*X144500Y339000D01*
X138000Y322000D02*Y319000D01*
G54D12*X378000Y295000D02*Y311500D01*
X348000Y291500D02*X328000D01*
G54D16*X358000D02*X348000D01*
G54D14*X274000Y293500D02*X278500D01*
G54D16*X318000Y291500D02*X328000D01*
G54D15*X425972Y350642D02*X410358D01*
X377936Y371645D01*
G54D16*X267000Y330500D02*X278000Y341500D01*
G54D12*X287500Y335000D02*Y348500D01*
X282000Y354500D01*
G54D13*X303500Y357000D02*X293000D01*
G54D12*X277500Y354500D02*X282000D01*
X285500Y366500D02*X293000Y357000D01*
G54D13*X174000Y344000D02*X185000D01*
X174000Y339000D02*X185000D01*
X198000Y337500D02*X201000Y328000D01*
X191500Y334000D02*X195000D01*
X191500Y308000D02*X196000D01*
G54D16*Y299000D02*Y326000D01*
G54D13*X212000Y344000D02*X218000D01*
X201000Y313000D02*Y320500D01*
X212000Y318000D02*X217500D01*
X185000D02*X178224D01*
X185000Y313000D02*X178724D01*
X186500Y252500D02*X177000D01*
X195000Y257500D02*X192000D01*
X199000Y252500D02*X206000D01*
X195000Y257500D02*X199000Y258500D01*
G54D12*X132500Y268000D02*X217500D01*
G54D13*X192000Y234000D02*X196500D01*
G54D12*X198500Y279000D02*X190500D01*
G54D16*X198500D02*Y296500D01*
G54D13*X205000Y295500D02*X209500D01*
G54D15*X208319Y288095D02*X198595D01*
G54D13*X209500Y295500D02*X211500Y293500D01*
Y273500D01*
X186000Y291300D02*X177886D01*
G54D16*X198500Y296500D02*X196000Y299000D01*
G54D13*X184000D02*X189800D01*
X205000Y295500D02*Y300724D01*
G54D12*X190500Y279000D02*X164000Y284500D01*
X154500Y273500D02*X180000D01*
Y268000D01*
X161000Y273500D02*Y268000D01*
X167500Y273500D02*Y268000D01*
X174000Y273500D02*Y268000D01*
G54D13*X196500Y234000D02*X201500Y229000D01*
X206000D01*
G54D12*X181500Y217500D02*X215000D01*
X217500Y224000D02*Y220000D01*
X403500Y223000D02*X397500D01*
G54D16*X389600D01*
G54D14*X375000D02*X385400D01*
G54D16*X354500Y221000D02*X360400D01*
X354500Y213000D02*X363600D01*
G54D14*X375000Y232500D02*X370000Y237500D01*
G54D13*X229457Y283457D02*X229500Y283500D01*
G54D12*X278500Y284500D02*Y319000D01*
G54D13*X241500Y283500D02*X231000D01*
X257500Y288500D02*X248000D01*
X259043Y271043D02*X259000Y271000D01*
X267500Y278000D02*X256150D01*
X255543Y277393D01*
G54D15*X268500Y288500D02*X273500D01*
G54D12*X268000Y278000D02*Y274500D01*
X278500Y284500D02*X264500Y270500D01*
X271500Y278000D02*X268000D01*
X298000Y311500D02*Y280000D01*
G54D13*X229457Y277393D02*Y283457D01*
G54D12*X217500Y236000D02*X234000D01*
X242000Y228000D01*
G54D13*X237000Y241500D02*X231650D01*
X224043Y242107D02*Y236043D01*
G54D12*X224500Y264000D02*X248000D01*
X237000Y257500D02*X248000D01*
G54D14*X370000Y237500D02*Y268000D01*
G54D15*X267500Y213500D02*X292000D01*
X279100Y217717D02*Y224900D01*
X279000Y225000D01*
G54D12*X242000Y264000D02*Y241500D01*
X254000Y213000D02*Y241500D01*
X237000D02*Y264000D01*
Y251000D02*X248000D01*
Y264000D02*Y213000D01*
X217500Y270500D02*X264500D01*
G54D13*X237650Y278500D02*X236543Y277393D01*
X247350Y278500D02*X237650D01*
X247350D02*X248457Y277393D01*
X235850Y278500D02*X236957Y277393D01*
G54D12*X231000Y283500D02*Y297000D01*
G54D13*X223607Y290957D02*Y283107D01*
X223500Y283000D01*
G54D12*X223000Y279000D02*Y283500D01*
X231000D01*
G54D13*X216000Y205500D02*X219000D01*
X225724Y200500D01*
G54D12*X217500Y220000D02*X215000Y217500D01*
G54D16*X217500Y224000D02*X223000D01*
G54D13*X222500Y217500D02*X228936D01*
X223000Y224000D02*X227564D01*
X226000Y231000D02*X231500D01*
X235500Y227000D02*Y216000D01*
X230000Y200500D02*X225724D01*
X227000D02*Y193500D01*
X231500Y231000D02*X235500Y227000D01*
G54D12*X237000Y241500D02*X254000D01*
X248000Y234000D02*X254000D01*
X248000Y227000D02*X254000D01*
X248000Y221000D02*X254000D01*
X248000Y205500D02*Y172000D01*
G54D13*X242000Y205500D02*X236500D01*
G54D12*X254000D02*X241500D01*
X248000Y213000D02*X254000D01*
X242000Y228000D02*Y191000D01*
X254000D01*
X242000Y199000D02*X254000D01*
X248000Y178500D02*X260500D01*
Y185000D02*X248000D01*
G54D13*X241393Y177457D02*X252957D01*
G54D12*X254000Y205500D02*Y172000D01*
G54D15*X233000Y175000D02*X237000Y171500D01*
X241000Y171000D01*
X227000Y193500D02*Y187000D01*
X233000Y175000D01*
X240107Y184543D02*X236500Y190000D01*
G54D12*X215000Y179500D02*X243500Y161500D01*
X248000Y172000D02*X260500D01*
G54D15*X293500Y249500D02*X310500D01*
X293500Y264500D02*X310500D01*
X326100Y225900D02*X326000Y226000D01*
G54D16*X359500Y281000D02*Y249000D01*
G54D12*X342000Y281000D02*X364000D01*
X378000Y295000D01*
G54D15*X314000Y213500D02*X340000D01*
X326100Y217717D02*Y225900D01*
G54D14*X417000Y183000D02*Y173000D01*
G54D13*X391500Y176000D02*X396000D01*
G54D16*Y185000D01*
X384000D01*
G54D14*X417000Y173000D02*X411000Y167000D01*
G54D15*X380500Y171000D02*Y183000D01*
X376500Y186500D01*
G54D13*X380500Y171000D02*X385000D01*
X375500Y176000D02*X371000D01*
G54D16*X384000Y185000D02*X378500Y189500D01*
G54D15*X373500Y184000D02*X375500Y181000D01*
G54D12*X426500Y211500D02*Y233000D01*
X421000D02*X403500Y223000D01*
G54D17*X426500Y154500D02*Y211500D01*
G54D16*X407000Y193000D02*X417000Y203000D01*
G54D14*X400000Y187000D02*Y168000D01*
G54D13*X392543Y191107D02*Y184543D01*
X392500Y184500D01*
G54D14*X407000Y193000D02*X400000Y187000D01*
Y168000D02*X388500Y156500D01*
X392500Y154000D02*X411000Y167000D01*
X388500Y156500D02*Y151000D01*
G54D12*X402000Y138000D02*X426500Y154500D01*
G54D14*X388500Y151000D02*X392500Y148500D01*
G54D13*X363500Y159500D02*X371000D01*
G54D16*X373500Y107500D02*X383500Y117500D01*
G54D12*X380500Y99500D02*X391500Y110500D01*
Y126000D01*
G54D13*X364500Y159500D02*Y166000D01*
X384000Y160000D02*X379650D01*
G54D16*X426500Y233000D02*Y243200D01*
X420000Y233000D02*Y243000D01*
X380600Y250400D02*X403400D01*
G54D13*X377500Y194000D02*X385500D01*
X368043Y200393D02*Y200543D01*
X372500Y205000D01*
G54D14*X375000Y207500D01*
Y232500D01*
G54D15*X291000Y199500D02*X285500D01*
X292414Y191000D02*X280586D01*
X273190Y200000D02*Y195310D01*
X275500Y193000D01*
X279586D01*
X266500Y199000D02*Y191914D01*
X268095Y190319D01*
G54D12*X260500Y185000D02*Y172000D01*
G54D13*X293900Y120900D02*Y128036D01*
X286457Y127607D02*Y118543D01*
X275000Y121000D02*Y125000D01*
G54D12*X239000Y99500D02*X312000D01*
G54D16*X269500Y125000D02*Y130500D01*
Y125000D02*X243500D01*
G54D13*X296500Y116500D02*Y121000D01*
G54D12*X218000Y108500D02*X239000Y99500D01*
G54D16*X223500Y138000D02*X218000Y130000D01*
G54D12*X232000Y146000D02*X223500Y138000D01*
G54D15*X246000Y153000D02*X241000D01*
G54D12*X232000Y146000D02*X246500D01*
G54D14*X281500Y133000D02*X304000D01*
G54D12*X254000Y144000D02*X310500D01*
Y130000D01*
X243500Y138000D02*X310500D01*
G54D13*X267000Y154000D02*X262150D01*
G54D12*X310500Y121000D02*X300500D01*
G54D13*X293900Y120900D02*X302900D01*
X303000Y121000D01*
G54D12*X261500Y119000D02*X243500D01*
Y138000D02*Y107000D01*
X249500Y132000D02*Y107000D01*
X255500Y130000D02*Y107000D01*
X261500Y113000D02*X243500D01*
G54D15*X246000Y153000D02*X252000Y148500D01*
G54D12*X254000Y144000D02*Y130000D01*
G54D13*X254457Y155393D02*Y161457D01*
X268500Y166000D02*Y161000D01*
X279500Y176000D02*X275000D01*
Y171000D02*X278500D01*
G54D12*X272500Y161500D02*Y154000D01*
G54D16*X278000Y158500D02*Y154000D01*
G54D15*X278500Y171000D02*X286500Y162500D01*
G54D12*X272500Y161500D02*X243500D01*
G54D15*X296500Y162500D02*X300500Y163500D01*
G54D16*X303000Y158500D02*Y154000D01*
X308500Y158500D02*Y154000D01*
G54D13*X300500Y171000D02*X295500D01*
G54D16*X298000Y158500D02*Y154000D01*
X283000Y158500D02*Y154000D01*
X293000Y158500D02*Y154000D01*
X288000Y158500D02*Y154000D01*
G54D15*X286500Y162500D02*X296500D01*
X338000Y199500D02*X332500D01*
X339414Y191000D02*X327586D01*
G54D16*X260500Y185000D02*X354500D01*
X359500Y189500D02*X378500D01*
G54D15*X376500Y186500D02*X361000D01*
G54D16*X354500Y185000D02*X359500Y189500D01*
G54D15*X320190Y200000D02*Y195310D01*
X322500Y193000D01*
X326586D01*
X303905Y190319D02*Y185095D01*
X313500Y199000D02*Y194276D01*
X315095Y192681D01*
G54D16*X304905Y184595D02*X305000Y176000D01*
G54D13*X295500D02*X305000D01*
G54D15*X362500Y184000D02*X373500D01*
X362500D02*X355500Y177000D01*
X351500Y177500D02*X361000Y186500D01*
G54D16*X315500Y158500D02*X273000D01*
G54D14*X334500Y155500D02*X351500D01*
G54D15*X252000Y148500D02*X323500D01*
G54D16*X273000Y154000D02*X334500D01*
G54D15*X341000Y151500D02*X335500Y149500D01*
G54D16*X323500Y138000D02*Y125200D01*
X310500Y121000D02*X320500D01*
G54D12*X301000Y131500D02*Y144000D01*
G54D16*X318000Y111000D02*Y119700D01*
G54D14*X296500Y144000D02*Y133000D01*
G54D13*X342000Y145500D02*X347414D01*
G54D15*X325000Y171000D02*X332500Y163000D01*
G54D16*X329500Y159500D02*Y154000D01*
X332000Y107500D02*Y99000D01*
G54D13*X299000Y107500D02*X294650D01*
G54D12*X312000Y99500D02*X318000Y105500D01*
Y111000D01*
G54D16*X324500Y159500D02*Y154000D01*
X320000Y159500D02*Y154000D01*
G54D13*X315500Y166000D02*Y159000D01*
G54D16*Y159500D02*Y154000D01*
G54D13*X295800Y115800D02*X296500Y116500D01*
X293900Y106750D02*X293543Y106393D01*
X291700Y118300D02*X287800D01*
X286457Y106393D02*Y113543D01*
X293900Y115800D02*X295800D01*
X293900Y113200D02*Y106750D01*
X275000Y118400D02*X269536D01*
X275000Y113300D02*X268450D01*
X277200Y115900D02*X281400D01*
G54D12*X261500Y130000D02*Y107000D01*
X260500Y130000D02*Y144000D01*
X266500Y130000D02*Y144000D01*
X273500Y131000D02*Y144000D01*
X280500Y130000D02*Y144000D01*
G54D14*X285500Y133000D02*Y144000D01*
X289000Y133000D02*Y144000D01*
X292500Y133000D02*Y144500D01*
G54D13*X347500Y171000D02*X342500D01*
X326500Y176000D02*X322000D01*
X320500Y171000D02*X325000D01*
X364500D02*X360000D01*
G54D15*X350405Y189819D02*Y184595D01*
G54D16*X347500Y185000D02*Y176000D01*
G54D13*X342500D01*
X355000Y199000D02*X360350D01*
X360957Y199607D01*
G54D15*X355500Y177000D02*Y163500D01*
X351500Y167500D02*Y177500D01*
G54D16*X342000Y107500D02*X373500D01*
G54D12*X332000Y99500D02*X380500D01*
G54D16*X363500Y117500D02*X348200D01*
X342600Y123100D01*
G54D15*X347000Y163000D02*X351500Y167500D01*
G54D14*X348000Y155500D02*Y159500D01*
G54D15*X360500Y151500D02*X371000Y149500D01*
X341000Y151500D02*X360500D01*
G54D13*X354500D02*Y146500D01*
G54D14*X351500Y155500D02*Y159500D01*
G54D15*X355500Y155000D02*X366000Y154500D01*
G54D14*X343000Y159500D02*Y155500D01*
G54D15*X332500Y163000D02*X347000D01*
G54D16*X334500Y154000D02*Y159500D01*
X315500D02*X364500D01*
G54D14*X339000D02*Y155500D01*
G54D12*X323500Y138000D02*X402000D01*
G54D11*G36*
X161000Y121500D02*Y115500D01*
X167000D01*
Y121500D01*
X161000D01*
G37*
G54D18*X164000Y128500D03*
G54D11*G36*
X201500Y164000D02*Y155000D01*
X210500D01*
Y164000D01*
X201500D01*
G37*
G54D19*X206000Y169500D03*
Y179500D03*
G54D20*X181500Y174500D03*
G54D11*G36*
X178900Y207100D02*Y201900D01*
X184100D01*
Y207100D01*
X178900D01*
G37*
G36*
X213500Y114500D02*Y105500D01*
X222500D01*
Y114500D01*
X213500D01*
G37*
G54D19*X218000Y120000D03*
Y130000D03*
G54D11*G36*
X221500Y341000D02*Y335000D01*
X227500D01*
Y341000D01*
X221500D01*
G37*
G36*
X222400Y360600D02*Y355400D01*
X227600D01*
Y360600D01*
X222400D01*
G37*
G54D20*X225000Y388000D03*
G54D18*X224500Y328000D03*
Y318000D03*
G54D21*X97000Y335500D03*
G54D22*Y315800D03*
Y355200D03*
X79300Y335500D03*
G54D11*G36*
X123250Y402250D02*Y395750D01*
X129750D01*
Y402250D01*
X123250D01*
G37*
G54D23*X136500Y399000D03*
G54D11*G36*
X161250Y402250D02*Y395750D01*
X167750D01*
Y402250D01*
X161250D01*
G37*
G54D23*X174500Y399000D03*
G54D11*G36*
X199250Y402250D02*Y395750D01*
X205750D01*
Y402250D01*
X199250D01*
G37*
G54D23*X212500Y399000D03*
G54D24*X318000Y391500D03*
X358000D03*
X378000Y371500D03*
G54D11*G36*
X283000Y291000D02*Y285000D01*
X289000D01*
Y291000D01*
X283000D01*
G37*
G54D24*X298000Y371500D03*
Y311500D03*
G54D25*X426000Y360500D03*
Y350500D03*
Y340500D03*
Y330500D03*
G54D24*X318000Y291500D03*
G54D26*X278000Y341500D03*
G54D27*X407000Y183000D03*
Y173000D03*
Y193000D03*
G54D28*X417100Y183000D03*
Y163000D03*
Y203000D03*
X436100Y163000D03*
Y203000D03*
G54D11*G36*
X380500Y120500D02*Y114500D01*
X386500D01*
Y120500D01*
X380500D01*
G37*
G54D18*X363500Y117500D03*
G54D11*G36*
X339000Y110500D02*Y104500D01*
X345000D01*
Y110500D01*
X339000D01*
G37*
G54D18*X332000Y107500D03*
G54D11*G36*
X260900Y252100D02*Y246900D01*
X266100D01*
Y252100D01*
X260900D01*
G37*
G54D20*X293500Y249500D03*
G54D11*G36*
X307900Y267100D02*Y261900D01*
X313100D01*
Y267100D01*
X307900D01*
G37*
G36*
X290900D02*Y261900D01*
X296100D01*
Y267100D01*
X290900D01*
G37*
G54D20*X263500Y264500D03*
X310500Y249500D03*
G54D11*G36*
X422000Y293000D02*Y287000D01*
X428000D01*
Y293000D01*
X422000D01*
G37*
G54D18*X425000Y300000D03*
Y310000D03*
G54D11*G36*
X412094Y292940D02*Y286940D01*
X418094D01*
Y292940D01*
X412094D01*
G37*
G54D20*X340500Y264500D03*
G54D24*X378000Y311500D03*
X358000Y291500D03*
G54D11*G36*
X337900Y252100D02*Y246900D01*
X343100D01*
Y252100D01*
X337900D01*
G37*
G54D29*X163000Y344000D03*
X144500Y339000D03*
X174000D03*
Y344000D03*
X144500D03*
X115000Y360000D03*
G54D18*X126500Y353500D03*
G54D29*X115000Y354000D03*
X198000Y365000D03*
X201500Y339000D03*
X133500Y375000D03*
X135000Y389000D03*
G54D18*X114000Y403000D03*
G54D29*X153500Y370000D03*
X197500Y358000D03*
X115000Y311500D03*
X128000Y305500D03*
X115000Y315500D03*
X73000Y316000D03*
X79500D03*
X156000Y320000D03*
X136000Y305500D03*
X154500Y295500D03*
X146500Y324500D03*
X131000Y329500D03*
X118500D03*
X131000Y290500D03*
X115500Y293500D03*
G54D18*X85500Y292000D03*
X95500Y289000D03*
G54D29*X127000Y323500D03*
X159500Y329000D03*
X153500Y375000D03*
X150500Y399000D03*
X198000Y375000D03*
X178000Y377000D03*
X198000Y370000D03*
X217500D03*
X285500Y405000D03*
Y391500D03*
Y366500D03*
X271000Y357000D03*
X293000D03*
X303500D03*
X249000Y372000D03*
X237000Y399500D03*
X256000Y398000D03*
Y403000D03*
X249000Y367000D03*
X254000D03*
X271000Y377500D03*
X201000Y320500D03*
X184000Y299000D03*
X201000Y313000D03*
X205000Y295500D03*
X217500Y298000D03*
X224000Y304000D03*
X257500Y288500D03*
X253000Y293500D03*
X273500Y288500D03*
G54D18*X298000Y287000D03*
G54D29*X249000Y319000D03*
Y314000D03*
X254000D03*
X249000Y340500D03*
Y345500D03*
X254000Y340500D03*
X249000Y330500D03*
X201000Y328000D03*
X188500Y112000D03*
X183500Y106000D03*
X188500Y121000D03*
X183500Y126000D03*
X188500D03*
X134500Y105500D03*
X155000Y106000D03*
X160000Y139500D03*
X155000Y126000D03*
Y121000D03*
Y131000D03*
X140000Y139500D03*
X147000Y263000D03*
X151500Y259000D03*
Y254000D03*
X181000Y234000D03*
X161500Y210500D03*
X177000D03*
X169000Y219500D03*
X134500Y206500D03*
X132500Y211500D03*
X132000Y236000D03*
X140000Y206500D03*
X140500Y213500D03*
X151500Y249000D03*
X157000Y242000D03*
X181000Y257500D03*
X156500Y249500D03*
X172000Y244000D03*
X177000Y252500D03*
X103000Y205500D03*
Y201500D03*
X108000Y241000D03*
G54D18*X108500Y261000D03*
Y254500D03*
G54D29*X79000Y279000D03*
Y274500D03*
X88500Y268000D03*
X95500D03*
G54D18*X108500Y275500D03*
G54D29*X161000Y180500D03*
X176000Y170500D03*
X157500Y167500D03*
X165000Y145500D03*
X165500Y139500D03*
X188500Y136000D03*
X181500Y150500D03*
X212000Y243000D03*
X199000Y225500D03*
X147000Y196000D03*
X127000D03*
X266500Y199000D03*
X355000D03*
X217500Y224000D03*
X235500Y216000D03*
X237000Y241500D03*
X254000Y213000D03*
Y241500D03*
X248000D03*
Y213000D03*
X223000Y193500D03*
X377500Y194000D03*
X222500Y217500D03*
X226000Y231000D03*
X87000Y236000D03*
X108000D03*
X90000Y224000D03*
G54D18*X420000Y233000D03*
X426500D03*
G54D29*X217500Y236000D03*
X109000Y224000D03*
X354500Y213000D03*
Y221000D03*
X140000Y263000D03*
X154500Y279000D03*
X132500Y273500D03*
X172000Y249000D03*
X198500Y279000D03*
X211500Y273500D03*
X199000Y252500D03*
X223000Y279000D03*
X199000Y258500D03*
X224500Y264000D03*
X242000Y278500D03*
X248000Y264000D03*
G54D18*X370000Y268000D03*
G54D29*X99000Y157500D03*
X94000Y153500D03*
X99000Y149000D03*
X89500Y145000D03*
X135000Y165500D03*
Y160500D03*
Y155500D03*
X138000Y178000D03*
X140000Y171000D03*
X99000Y180500D03*
X98000Y165500D03*
X117000Y162500D03*
Y170500D03*
Y175500D03*
X114500Y185500D03*
X119500D03*
X117000Y180500D03*
X127500Y145500D03*
Y140500D03*
X78500Y155500D03*
Y150500D03*
Y165500D03*
Y185500D03*
X255500Y107000D03*
Y119000D03*
X261500Y107000D03*
Y119000D03*
X254000Y130000D03*
X260500D03*
X266500D03*
X299000Y107500D03*
X287500Y112500D03*
X280500Y105000D03*
X301000Y114000D03*
X280500Y130000D03*
X301000Y131500D03*
X310500Y130000D03*
X301000Y126500D03*
X274000Y107000D03*
X275000Y125000D03*
X281500Y112500D03*
Y119000D03*
X310000Y114500D03*
G54D18*X318000Y111000D03*
G54D29*X305500Y105500D03*
X375500Y181000D03*
Y176000D03*
X391500Y126000D03*
X392500Y148500D03*
Y154000D03*
X380500Y171000D03*
X360000D03*
X436000Y173000D03*
Y183000D03*
Y193000D03*
X241000Y171000D03*
X248000Y185000D03*
Y172000D03*
Y176500D03*
Y180500D03*
X384000Y160000D03*
X355500Y155000D03*
Y163500D03*
X342000Y145500D03*
X241000Y153000D03*
X232000Y146000D03*
X241500D03*
X236500D03*
X246500D03*
X366000Y154500D03*
X371000Y149500D03*
X279000Y176000D03*
X300500Y171000D03*
X286000Y191000D03*
X300500Y163500D03*
X338000Y199500D03*
X291000D03*
X313500Y199000D03*
X236500Y190000D03*
X267000Y154000D03*
X326000Y176000D03*
X347500Y171000D03*
X333000Y191000D03*
G54D30*X123500Y121000D02*X130000D01*
X144000D02*X150500D01*
X144000Y126000D02*X150500D01*
X123500Y116000D02*X130000D01*
X123500Y111000D02*X130000D01*
X123500Y106000D02*X130000D01*
X144000D02*X150500D01*
X144000Y111000D02*X150500D01*
X144000Y116000D02*X150500D01*
X123500Y136000D02*X130000D01*
X144000D02*X150500D01*
X123500Y131000D02*X130000D01*
X144000D02*X150500D01*
X123500Y126000D02*X130000D01*
X172500Y121000D02*X179000D01*
X172500Y116000D02*X179000D01*
X172500Y111000D02*X179000D01*
X172500Y106000D02*X179000D01*
X172500Y136000D02*X179000D01*
X172500Y131000D02*X179000D01*
X172500Y126000D02*X179000D01*
X193000Y106000D02*X199500D01*
X193000Y111000D02*X199500D01*
X193000Y116000D02*X199500D01*
X193000Y121000D02*X199500D01*
X193000Y126000D02*X199500D01*
X193000Y131000D02*X199500D01*
X193000Y136000D02*X199500D01*
G54D31*X275000Y121000D02*X277200D01*
G54D32*X275000Y118400D02*X277200D01*
X275000Y115900D02*X277200D01*
X275000Y113300D02*X277200D01*
G54D33*X267607Y112457D02*X268393D01*
X267607Y119543D02*X268393D01*
G54D32*X291700Y113200D02*X293900D01*
X291700Y115800D02*X293900D01*
X291700Y118300D02*X293900D01*
X291700Y120900D02*X293900D01*
G54D33*X286457Y128393D02*Y127607D01*
X293543Y128393D02*Y127607D01*
X286457Y106393D02*Y105607D01*
X293543Y106393D02*Y105607D01*
G54D34*X321400Y126900D02*Y123100D01*
X342600Y126900D02*Y123100D01*
G54D33*X254457Y155393D02*Y154607D01*
X261543Y155393D02*Y154607D01*
G54D30*X268500Y166000D02*X275000D01*
X268500Y181000D02*X275000D01*
X268500Y176000D02*X275000D01*
X268500Y171000D02*X275000D01*
X289000Y166000D02*X295500D01*
X289000Y171000D02*X295500D01*
X289000Y176000D02*X295500D01*
X289000Y181000D02*X295500D01*
G54D33*X268095Y192681D02*Y190319D01*
X279905Y192681D02*Y190319D01*
X240607Y184543D02*X241393D01*
X240607Y177457D02*X241393D01*
G54D35*X273190Y201969D02*Y200000D01*
X279100Y217717D02*Y200000D01*
G54D11*G36*
X280569Y210344D02*X283431Y207481D01*
X281068Y205119D01*
X278206Y207982D01*
X280569Y210344D01*
G37*
G36*
X274768Y207481D02*X277630Y210344D01*
X279993Y207982D01*
X277131Y205119D01*
X274768Y207481D01*
G37*
G54D36*X279100Y212993D02*Y211811D01*
G54D11*G36*
X278206Y216823D02*X281068Y219686D01*
X283431Y217324D01*
X280569Y214461D01*
X278206Y216823D01*
G37*
G36*
X277131Y219686D02*X279993Y216823D01*
X277630Y214461D01*
X274768Y217324D01*
X277131Y219686D01*
G37*
G54D35*X285000Y201969D02*Y200000D01*
X326100Y217717D02*Y200000D01*
G54D36*Y212993D02*Y211811D01*
G54D11*G36*
X327569Y210344D02*X330431Y207481D01*
X328068Y205119D01*
X325206Y207982D01*
X327569Y210344D01*
G37*
G36*
X321768Y207481D02*X324630Y210344D01*
X326993Y207982D01*
X324131Y205119D01*
X321768Y207481D01*
G37*
G36*
X325206Y216823D02*X328068Y219686D01*
X330431Y217324D01*
X327569Y214461D01*
X325206Y216823D01*
G37*
G36*
X324131Y219686D02*X326993Y216823D01*
X324630Y214461D01*
X321768Y217324D01*
X324131Y219686D01*
G37*
G54D30*X205500Y344000D02*X212000D01*
X205500Y349000D02*X212000D01*
X258500Y362000D02*X265000D01*
X258500Y367000D02*X265000D01*
X258500Y372000D02*X265000D01*
X238000Y350500D02*X244500D01*
X238000Y345500D02*X244500D01*
X238000Y372000D02*X244500D01*
X238000Y367000D02*X244500D01*
X238000Y362000D02*X244500D01*
X258500Y345500D02*X265000D01*
X258500Y350500D02*X265000D01*
X238000Y309000D02*X244500D01*
X258500D02*X265000D01*
X262000Y283500D02*X268500D01*
G54D33*X229457Y277393D02*Y276607D01*
X236543Y277393D02*Y276607D01*
G54D30*X238000Y324000D02*X244500D01*
X238000Y319000D02*X244500D01*
X238000Y314000D02*X244500D01*
X238000Y340500D02*X244500D01*
X238000Y335500D02*X244500D01*
X258500Y314000D02*X265000D01*
X258500Y319000D02*X265000D01*
X258500Y324000D02*X265000D01*
X258500Y335500D02*X265000D01*
X258500Y340500D02*X265000D01*
G54D34*X380600Y250400D02*Y246600D01*
X359400Y250400D02*Y246600D01*
X403400Y250400D02*Y246600D01*
X424600Y250400D02*Y246600D01*
G54D30*X315500Y181000D02*X322000D01*
X315500Y176000D02*X322000D01*
X315500Y171000D02*X322000D01*
X315500Y166000D02*X322000D01*
G54D33*X335405Y148181D02*Y145819D01*
X323595Y148181D02*Y145819D01*
X347914Y146786D02*Y146000D01*
X355000Y146786D02*Y146000D01*
G54D30*X336000Y166000D02*X342500D01*
X336000Y171000D02*X342500D01*
X336000Y176000D02*X342500D01*
X336000Y181000D02*X342500D01*
G54D33*X292095Y192681D02*Y190319D01*
X303905Y192681D02*Y190319D01*
X315095Y192681D02*Y190319D01*
X326905Y192681D02*Y190319D01*
X339095Y192681D02*Y190319D01*
X350905Y192681D02*Y190319D01*
G54D35*X320190Y201969D02*Y200000D01*
X332000Y201969D02*Y200000D01*
G54D37*X387500Y225100D02*Y213900D01*
X364500Y225100D02*Y213900D01*
G54D33*X385457Y193393D02*Y192607D01*
X392543Y193393D02*Y192607D01*
X360957Y200393D02*Y199607D01*
X368043Y200393D02*Y199607D01*
G54D30*X364500Y181000D02*X371000D01*
X364500Y176000D02*X371000D01*
X385000Y166000D02*X391500D01*
X385000Y171000D02*X391500D01*
X385000Y176000D02*X391500D01*
X385000Y181000D02*X391500D01*
X364500Y171000D02*X371000D01*
X364500Y166000D02*X371000D01*
G54D33*X371457Y158893D02*Y158107D01*
X378543Y158893D02*Y158107D01*
G54D30*X185000Y349000D02*X191500D01*
X185000Y344000D02*X191500D01*
X185000Y339000D02*X191500D01*
X205500Y334000D02*X212000D01*
X205500Y339000D02*X212000D01*
X205500Y308000D02*X212000D01*
X205500Y313000D02*X212000D01*
X205500Y318000D02*X212000D01*
X205500Y323000D02*X212000D01*
X185000Y334000D02*X191500D01*
X185000Y323000D02*X191500D01*
X185000Y318000D02*X191500D01*
G54D33*X177405Y331681D02*Y329319D01*
G54D30*X185000Y313000D02*X191500D01*
X187000Y365000D02*X193500D01*
G54D33*X205607Y366457D02*X206393D01*
X205607Y373543D02*X206393D01*
G54D30*X187000Y370000D02*X193500D01*
X187000Y375000D02*X193500D01*
X187000Y380000D02*X193500D01*
G54D33*X165595Y302181D02*Y299819D01*
Y293181D02*Y290819D01*
Y311681D02*Y309319D01*
Y321181D02*Y318819D01*
Y331681D02*Y329319D01*
X177405Y311681D02*Y309319D01*
Y321181D02*Y318819D01*
G54D30*X185000Y308000D02*X191500D01*
G54D33*X177405Y302181D02*Y299819D01*
Y293181D02*Y290819D01*
G54D38*X186000Y291300D02*Y290700D01*
X193800Y291300D02*Y290700D01*
X189900Y299500D02*Y298900D01*
G54D33*X204319Y301405D02*X206681D01*
X204319Y289595D02*X206681D01*
X223607Y298043D02*X224393D01*
X223607Y290957D02*X224393D01*
G54D30*X241500Y298500D02*X248000D01*
X241500Y293500D02*X248000D01*
X241500Y288500D02*X248000D01*
X241500Y283500D02*X248000D01*
G54D33*X248457Y277393D02*Y276607D01*
X255543Y277393D02*Y276607D01*
G54D30*X262000Y288500D02*X268500D01*
X262000Y293500D02*X268500D01*
X262000Y298500D02*X268500D01*
X151500Y334000D02*X158000D01*
X151500Y339000D02*X158000D01*
X151500Y344000D02*X158000D01*
X151500Y349000D02*X158000D01*
G54D38*X135800Y311300D02*Y310700D01*
X131900Y319500D02*Y318900D01*
G54D33*X142957Y318893D02*Y318107D01*
X150043Y318893D02*Y318107D01*
X143095Y311681D02*Y309319D01*
X154905Y311681D02*Y309319D01*
G54D38*X128000Y311300D02*Y310700D01*
G54D33*X124405Y332181D02*Y329819D01*
Y341181D02*Y338819D01*
G54D30*X120000Y300500D02*X126500D01*
X140500D02*X147000D01*
X120000Y295500D02*X126500D01*
X140500D02*X147000D01*
X120000Y290500D02*X126500D01*
X140500D02*X147000D01*
G54D33*X109543Y290893D02*Y290107D01*
G54D30*X120000Y285500D02*X126500D01*
X140500D02*X147000D01*
G54D33*X126043Y271393D02*Y270607D01*
X118957Y271393D02*Y270607D01*
G54D39*X88600Y277400D02*X96400D01*
G54D33*X85095Y302181D02*Y299819D01*
X96905Y302181D02*Y299819D01*
X102457Y290893D02*Y290107D01*
G54D39*X88600Y258600D02*X96400D01*
G54D30*X166500Y380000D02*X173000D01*
X166500Y375000D02*X173000D01*
X166500Y370000D02*X173000D01*
X166500Y365000D02*X173000D01*
X142500D02*X149000D01*
X142500Y370000D02*X149000D01*
X122000Y375000D02*X128500D01*
X122000Y370000D02*X128500D01*
X122000Y365000D02*X128500D01*
X122000Y380000D02*X128500D01*
X142500Y375000D02*X149000D01*
X142500Y380000D02*X149000D01*
X131000Y349000D02*X137500D01*
X131000Y344000D02*X137500D01*
X131000Y339000D02*X137500D01*
X131000Y334000D02*X137500D01*
G54D33*X112957Y348393D02*Y347607D01*
X120043Y348393D02*Y347607D01*
X112595Y332181D02*Y329819D01*
Y341181D02*Y338819D01*
X112957Y322893D02*Y322107D01*
X120043Y322893D02*Y322107D01*
G54D30*X141000Y244000D02*X147500D01*
X141000Y239000D02*X147500D01*
X141000Y234000D02*X147500D01*
X141000Y229000D02*X147500D01*
X206000D02*X212500D01*
X141000Y224000D02*X147500D01*
X206000D02*X212500D01*
X161500D02*X168000D01*
X161500Y229000D02*X168000D01*
X161500Y234000D02*X168000D01*
X141000Y259000D02*X147500D01*
X141000Y254000D02*X147500D01*
X141000Y249000D02*X147500D01*
X161500Y239000D02*X168000D01*
X161500Y244000D02*X168000D01*
X161500Y249000D02*X168000D01*
X161500Y254000D02*X168000D01*
X185500Y239000D02*X192000D01*
X185500Y234000D02*X192000D01*
X185500Y229000D02*X192000D01*
X185500Y224000D02*X192000D01*
X206000Y234000D02*X212500D01*
X206000Y239000D02*X212500D01*
X206000Y247500D02*X212500D01*
X206000Y252500D02*X212500D01*
X206000Y257500D02*X212500D01*
X206000Y262500D02*X212500D01*
X209500Y210500D02*X216000D01*
X209500Y205500D02*X216000D01*
X209500Y200500D02*X216000D01*
X209500Y195500D02*X216000D01*
X230000D02*X236500D01*
X230000Y200500D02*X236500D01*
X230000Y205500D02*X236500D01*
X230000Y210500D02*X236500D01*
G54D33*X228607Y217957D02*X229393D01*
X228607Y225043D02*X229393D01*
G54D30*X161500Y259000D02*X168000D01*
X185500Y262500D02*X192000D01*
X185500Y257500D02*X192000D01*
X185500Y252500D02*X192000D01*
X185500Y247500D02*X192000D01*
G54D33*X231043Y242893D02*Y242107D01*
X223957Y242893D02*Y242107D01*
G54D30*X94500Y246000D02*X101000D01*
X94500Y241000D02*X101000D01*
X94500Y236000D02*X101000D01*
G54D33*X85819Y241905D02*X88181D01*
G54D30*X115000Y231000D02*X121500D01*
G54D33*X114957Y222893D02*Y222107D01*
X122043Y222893D02*Y222107D01*
X103043Y222893D02*Y222107D01*
X95957Y222893D02*Y222107D01*
G54D30*X115000Y236000D02*X121500D01*
X115000Y241000D02*X121500D01*
X115000Y246000D02*X121500D01*
X144500Y170500D02*X151000D01*
X144500Y165500D02*X151000D01*
X144500Y160500D02*X151000D01*
X144500Y155500D02*X151000D01*
X144500Y185500D02*X151000D01*
X144500Y180500D02*X151000D01*
X144500Y175500D02*X151000D01*
X94500Y231000D02*X101000D01*
G54D33*X85819Y230095D02*X88181D01*
X87457Y203393D02*Y202607D01*
G54D30*X165000Y155500D02*X171500D01*
X165000Y160500D02*X171500D01*
X165000Y165500D02*X171500D01*
X165000Y170500D02*X171500D01*
X165000Y175500D02*X171500D01*
X165000Y180500D02*X171500D01*
X165000Y185500D02*X171500D01*
G54D33*X181819Y156095D02*X184181D01*
X181819Y167905D02*X184181D01*
X94543Y203393D02*Y202607D01*
G54D30*X83000Y185500D02*X89500D01*
X83000Y180500D02*X89500D01*
X103500Y175500D02*X110000D01*
X103500Y180500D02*X110000D01*
X103500Y185500D02*X110000D01*
X103500Y170500D02*X110000D01*
X83000Y165500D02*X89500D01*
X103500D02*X110000D01*
X83000Y160500D02*X89500D01*
X103500D02*X110000D01*
X83000Y155500D02*X89500D01*
X83000Y150500D02*X89500D01*
X83000Y175500D02*X89500D01*
X83000Y170500D02*X89500D01*
X103500Y150500D02*X110000D01*
X103500Y155500D02*X110000D01*
G54D33*X285543Y398393D02*Y397607D01*
X278457Y398393D02*Y397607D01*
G54D30*X265500Y388000D02*X272000D01*
X265500Y393000D02*X272000D01*
X265500Y398000D02*X272000D01*
X265500Y403000D02*X272000D01*
X245000D02*X251500D01*
X245000Y398000D02*X251500D01*
X258500Y377000D02*X265000D01*
X238000D02*X244500D01*
G54D33*X237607Y386457D02*X238393D01*
G54D30*X245000Y393000D02*X251500D01*
X245000Y388000D02*X251500D01*
G54D33*X237607Y393543D02*X238393D01*
G54D40*G54D18*G54D41*G54D42*G54D18*G54D40*G54D41*G54D40*G54D43*G54D44*G54D42*G54D44*G54D45*G54D42*G54D20*G54D40*G54D20*G54D46*G54D47*G54D20*G54D48*G54D49*G54D50*G54D42*G54D51*G54D40*G54D41*G54D40*G54D47*G54D41*G54D20*G54D41*G54D11*G54D17*G54D11*G54D17*G54D11*G54D17*G54D11*G54D17*G54D11*G54D17*G54D11*G54D17*G54D11*G54D17*G54D11*G54D17*G54D11*G54D17*G54D11*G54D52*X87000Y92500D02*X416000D01*
X66000Y404500D02*Y103500D01*
X68500Y101000D02*X78500D01*
X68500Y407000D02*X78500D01*
X424500D02*X443000D01*
X445500Y404500D02*Y103500D01*
X424500Y101000D02*X443000D01*
X394500Y272000D02*X408500D01*
X87000Y415500D02*X416000D01*
X390000Y290000D02*Y276500D01*
X399000Y290000D02*Y285500D01*
X403500Y281000D02*X408500D01*
X335500Y352000D02*Y342000D01*
X349000Y346500D02*X352000D01*
X399000Y342000D02*Y333000D01*
X340000Y337500D02*X352000D01*
X385500Y346500D02*X394500D01*
X344500Y352000D02*Y351000D01*
X84500Y413000D02*G75*G02X87000Y415500I2500J0D01*G01*
X66000Y404500D02*G75*G02X68500Y407000I2500J0D01*G01*
X78500Y101000D02*G75*G02X84500Y95000I0J-6000D01*G01*
Y413000D02*G75*G02X78500Y407000I-6000J0D01*G01*
X68500Y101000D02*G75*G02X66000Y103500I0J2500D01*G01*
X87000Y92500D02*G75*G02X84500Y95000I0J2500D01*G01*
X445500Y103500D02*G75*G02X443000Y101000I-2500J0D01*G01*
X418500Y95000D02*G75*G02X416000Y92500I-2500J0D01*G01*
Y415500D02*G75*G02X418500Y413000I0J-2500D01*G01*
Y95000D02*G75*G02X424500Y101000I6000J0D01*G01*
Y407000D02*G75*G02X418500Y413000I0J6000D01*G01*
X443000Y407000D02*G75*G02X445500Y404500I0J-2500D01*G01*
X344500Y352000D02*G75*G03X340000Y356500I-4500J0D01*G01*
X335500Y342000D02*G75*G03X340000Y337500I4500J0D01*G01*
X352000D02*G75*G03X356500Y342000I0J4500D01*G01*
G75*G03X352000Y346500I-4500J0D01*G01*
X344500Y351000D02*G75*G03X349000Y346500I4500J0D01*G01*
X340000Y356500D02*G75*G03X335500Y352000I0J-4500D01*G01*
X390000Y276500D02*G75*G03X394500Y272000I4500J0D01*G01*
X399000Y290000D02*G75*G03X394500Y294500I-4500J0D01*G01*
G75*G03X390000Y290000I0J-4500D01*G01*
X399000Y285500D02*G75*G03X403500Y281000I4500J0D01*G01*
X408500Y272000D02*G75*G03X413000Y276500I0J4500D01*G01*
G75*G03X408500Y281000I-4500J0D01*G01*
X385500Y346500D02*G75*G03X381000Y342000I0J-4500D01*G01*
G75*G03X385500Y337500I4500J0D01*G01*
X399000Y342000D02*G75*G03X394500Y346500I-4500J0D01*G01*
X390000Y333000D02*G75*G03X394500Y328500I4500J0D01*G01*
G75*G03X399000Y333000I0J4500D01*G01*
X390000D02*G75*G03X385500Y337500I-4500J0D01*G01*
M02*
