G04 start of page 12 for group -4078 idx -4078 *
G04 Title: (unknown), bottomsilk *
G04 Creator: pcb 20091103 *
G04 CreationDate: Thu Nov 21 17:08:47 2024 UTC *
G04 For: bh *
G04 Format: Gerber/RS-274X *
G04 PCB-Dimensions: 560000 900000 *
G04 PCB-Coordinate-Origin: lower left *
%MOIN*%
%FSLAX25Y25*%
%LNBOTTOMSILK*%
%ADD11C,0.0200*%
%ADD13C,0.0100*%
%ADD52C,0.0060*%
%ADD56C,0.0102*%
%ADD89C,0.0080*%
G54D11*G36*
X207500Y328500D02*X209500D01*
Y325500D01*
X207500D01*
Y328500D01*
G37*
G36*
X187000Y323000D02*X190000D01*
Y321000D01*
X187000D01*
Y323000D01*
G37*
G54D52*X322000Y364000D02*X337000Y379000D01*
Y364000D02*X322000Y379000D01*
X331000Y360500D02*X345500D01*
X275000Y331000D02*X292500D01*
Y327000D01*
X422500Y183000D02*X424000D01*
X425000Y182000D01*
X428000D01*
X412000Y173000D02*X433500D01*
X428000Y182000D02*X429000Y183000D01*
X433500D01*
X298500D02*X310500D01*
X346000D02*X358000D01*
X412000Y193000D02*X424000D01*
X425000Y192000D01*
X428000D01*
X429000Y193000D01*
X433500D01*
X310500Y183000D02*Y197000D01*
X358000Y183000D02*Y197000D01*
G54D56*X310500Y159310D02*Y168200D01*
Y159310D02*X311770Y158040D01*
X315580D01*
X316850Y159310D01*
Y168200D01*
X310500Y163120D02*X316850D01*
X357000Y159810D02*Y168700D01*
Y159810D02*X358270Y158540D01*
X362080D01*
X363350Y159810D01*
Y168700D01*
X357000Y163620D02*X363350D01*
X269000Y381810D02*Y390700D01*
Y381810D02*X270270Y380540D01*
X274080D01*
X275350Y381810D01*
Y390700D01*
X269000Y385620D02*X275350D01*
X302000Y322810D02*Y331700D01*
Y322810D02*X303270Y321540D01*
X307080D01*
X308350Y322810D01*
Y331700D01*
X302000Y326620D02*X308350D01*
X283500Y299310D02*Y308200D01*
Y299310D02*X284770Y298040D01*
X288580D01*
X289850Y299310D01*
Y308200D01*
X283500Y303120D02*X289850D01*
X162000Y302810D02*Y311700D01*
Y302810D02*X163270Y301540D01*
X167080D01*
X168350Y302810D01*
Y311700D01*
X162000Y306620D02*X168350D01*
X129370Y325600D02*X133180D01*
X128100Y324330D02*X129370Y325600D01*
X128100Y316710D02*Y324330D01*
Y316710D02*X129370Y315440D01*
X133180D01*
G54D13*X313600Y366100D02*Y376900D01*
X345400D01*
Y366100D01*
X313600D01*
G54D89*X357638Y375240D02*X362362D01*
X357638Y367760D02*X362362D01*
X364638Y305740D02*X369362D01*
X364638Y298260D02*X369362D01*
X371107Y320745D02*X371893D01*
X371107Y326255D02*X371893D01*
X338138Y322740D02*X342862D01*
X338138Y315260D02*X342862D01*
X359138Y310760D02*X363862D01*
X359138Y318240D02*X363862D01*
X317138Y314240D02*X321862D01*
X317138Y306760D02*X321862D01*
X278638Y253240D02*X283362D01*
X278638Y245760D02*X283362D01*
X278638Y268240D02*X283362D01*
X278638Y260760D02*X283362D01*
X222260Y253862D02*Y249138D01*
X229740Y253862D02*Y249138D01*
X246638Y337240D02*X251362D01*
X246638Y329760D02*X251362D01*
G54D13*X260500Y319500D02*Y333400D01*
X273300D01*
Y319500D01*
X260500D01*
Y303500D02*Y317400D01*
X273300D01*
Y303500D01*
X260500D01*
G54D89*X283240Y322862D02*Y318138D01*
X275760Y322862D02*Y318138D01*
X276638Y170260D02*X281362D01*
X276638Y177740D02*X281362D01*
X276638Y179760D02*X281362D01*
X276638Y187240D02*X281362D01*
X284138Y280740D02*X288862D01*
X284138Y273260D02*X288862D01*
X268100Y209800D02*Y193200D01*
Y209800D02*X302900D01*
Y193200D01*
X268100D02*X302900D01*
X297240Y167362D02*Y162638D01*
X289760Y167362D02*Y162638D01*
X266740Y357362D02*Y352638D01*
X259260Y357362D02*Y352638D01*
X246638Y356260D02*X251362D01*
X246638Y363740D02*X251362D01*
G54D13*X266500Y394500D02*Y380600D01*
X253700D02*X266500D01*
X253700Y394500D02*Y380600D01*
Y394500D02*X266500D01*
G54D89*X248740Y387862D02*Y383138D01*
X241260Y387862D02*Y383138D01*
X253638Y397260D02*X258362D01*
X253638Y404740D02*X258362D01*
G54D11*X326700Y247400D02*X335300D01*
G54D13*X326700D02*X325500Y249800D01*
Y265600D02*Y249800D01*
Y265600D02*X336500D01*
Y249800D01*
X335300Y247400D01*
G54D89*X332138Y273260D02*X336862D01*
X332138Y280740D02*X336862D01*
X315260Y259362D02*Y254638D01*
X322740Y259362D02*Y254638D01*
X344240Y185862D02*Y181138D01*
X336760Y185862D02*Y181138D01*
X315100Y209800D02*Y193200D01*
Y209800D02*X349900D01*
Y193200D01*
X315100D02*X349900D01*
X410740Y210362D02*Y205638D01*
X403260Y210362D02*Y205638D01*
X373138Y174260D02*X377862D01*
X373138Y181740D02*X377862D01*
X378138Y164260D02*X382862D01*
X378138Y171740D02*X382862D01*
G54D11*X392900Y257400D02*Y239600D01*
G54D13*Y257400D02*X399900Y259900D01*
X434100D01*
Y237100D01*
X399900D02*X434100D01*
X399900D02*X392900Y239600D01*
X347000Y166000D02*Y179900D01*
X359800D01*
Y166000D01*
X347000D01*
G54D89*X381107Y151245D02*X381893D01*
X381107Y156755D02*X381893D01*
X323638Y179760D02*X328362D01*
X323638Y187240D02*X328362D01*
X323638Y170260D02*X328362D01*
X323638Y177740D02*X328362D01*
G54D13*X300000Y166000D02*Y179900D01*
X312800D01*
Y166000D01*
X300000D01*
G54D89*X297240Y185862D02*Y181138D01*
X289760Y185862D02*Y181138D01*
X344240Y167362D02*Y162638D01*
X336760Y167362D02*Y162638D01*
G54D11*X315900Y116100D02*Y133900D01*
G54D13*X322900Y136400D01*
X357100D01*
Y113600D01*
X322900D01*
X315900Y116100D01*
G54D11*X391100Y257400D02*Y239600D01*
G54D13*X384100Y237100D01*
X349900D02*X384100D01*
X349900Y259900D02*Y237100D01*
Y259900D02*X384100D01*
X391100Y257400D01*
G54D11*X215600Y191100D02*X233400D01*
G54D13*X235900Y184100D01*
Y149900D01*
X213100D02*X235900D01*
X213100Y184100D02*Y149900D01*
Y184100D02*X215600Y191100D01*
G54D11*X230100Y103400D02*X247900D01*
G54D13*X230100D02*X227600Y110400D01*
Y144600D02*Y110400D01*
Y144600D02*X250400D01*
Y110400D01*
X247900Y103400D01*
G54D89*X229740Y207862D02*Y203138D01*
X222260Y207862D02*Y203138D01*
X211607Y199245D02*X212393D01*
X211607Y204755D02*X212393D01*
X211607Y208245D02*X212393D01*
X211607Y213755D02*X212393D01*
X208107Y221745D02*X208893D01*
X208107Y227255D02*X208893D01*
X208107Y233245D02*X208893D01*
X208107Y238755D02*X208893D01*
X198755Y111393D02*Y110607D01*
X193245Y111393D02*Y110607D01*
X161745Y108393D02*Y107607D01*
X167255Y108393D02*Y107607D01*
G54D13*X153000Y187500D02*Y153500D01*
X122000D02*X153000D01*
X122000Y187500D02*Y153500D01*
X140000Y187500D02*X153000D01*
X122000D02*X135000D01*
G75*G03X140000Y187500I2500J0D01*G01*
X112000D02*Y148500D01*
X81000D02*X112000D01*
X81000Y187500D02*Y148500D01*
X99000Y187500D02*X112000D01*
X81000D02*X94000D01*
G75*G03X99000Y187500I2500J0D01*G01*
G54D89*X132638Y136740D02*X137362D01*
X132638Y129260D02*X137362D01*
X133138Y108760D02*X137862D01*
X133138Y116240D02*X137862D01*
X133138Y118760D02*X137862D01*
X133138Y126240D02*X137862D01*
X166245Y180393D02*Y179607D01*
X171755Y180393D02*Y179607D01*
X105638Y231260D02*X110362D01*
X105638Y238740D02*X110362D01*
X146638Y219760D02*X151362D01*
X146638Y227240D02*X151362D01*
X166638D02*X171362D01*
X166638Y219760D02*X171362D01*
X166638Y230760D02*X171362D01*
X166638Y238240D02*X171362D01*
X137638Y249740D02*X142362D01*
X137638Y242260D02*X142362D01*
X146638Y238240D02*X151362D01*
X146638Y230760D02*X151362D01*
X246638Y310240D02*X251362D01*
X246638Y302760D02*X251362D01*
X246745Y317717D02*X251469D01*
X246745Y325197D02*X251469D01*
X246638Y343760D02*X251362D01*
X246638Y351240D02*X251362D01*
X319107Y322755D02*X319893D01*
X319107Y317245D02*X319893D01*
X186138Y325740D02*X190862D01*
X186138Y318260D02*X190862D01*
X262638Y291760D02*X267362D01*
X262638Y299240D02*X267362D01*
X251638Y277260D02*X256362D01*
X251638Y284740D02*X256362D01*
X212240Y329362D02*Y324638D01*
X204760Y329362D02*Y324638D01*
X118138Y386760D02*X122862D01*
X118138Y394240D02*X122862D01*
X183638Y366260D02*X188362D01*
X183638Y373740D02*X188362D01*
X139138Y363760D02*X143862D01*
X139138Y371240D02*X143862D01*
X119138Y380740D02*X123862D01*
X119138Y373260D02*X123862D01*
X148138Y394740D02*X152862D01*
X148138Y387260D02*X152862D01*
X148138Y397260D02*X152862D01*
X148138Y404740D02*X152862D01*
X163638Y380740D02*X168362D01*
X163638Y373260D02*X168362D01*
X184638Y394740D02*X189362D01*
X184638Y387260D02*X189362D01*
X119138Y363760D02*X123862D01*
X119138Y371240D02*X123862D01*
G54D11*X83800Y250200D02*X101200D01*
G54D13*X83800D02*X81300Y255000D01*
Y284800D02*Y255000D01*
Y284800D02*X103700D01*
Y255000D01*
X101200Y250200D01*
G54D89*X119260Y286862D02*Y282138D01*
X126740Y286862D02*Y282138D01*
X207107Y364255D02*X207893D01*
X207107Y358745D02*X207893D01*
X209138Y253260D02*X213862D01*
X209138Y260740D02*X213862D01*
X161138Y252760D02*X165862D01*
X161138Y260240D02*X165862D01*
X137638Y251260D02*X142362D01*
X137638Y258740D02*X142362D01*
X226755Y294893D02*Y294107D01*
X221245Y294893D02*Y294107D01*
X202138Y289760D02*X206862D01*
X202138Y297240D02*X206862D01*
X146638Y314240D02*X151362D01*
X146638Y306760D02*X151362D01*
G54D13*X163500Y321500D02*X177400D01*
Y308700D01*
X163500D02*X177400D01*
X163500Y321500D02*Y308700D01*
G54D89*X142138Y350240D02*X146862D01*
X142138Y342760D02*X146862D01*
X206607Y303745D02*X207393D01*
X206607Y309255D02*X207393D01*
X186138Y316740D02*X190862D01*
X186138Y309260D02*X190862D01*
X186138Y336760D02*X190862D01*
X186138Y344240D02*X190862D01*
X186138Y327760D02*X190862D01*
X186138Y335240D02*X190862D01*
X142138Y333760D02*X146862D01*
X142138Y341240D02*X146862D01*
G54D13*X138500Y322000D02*Y308100D01*
X125700D02*X138500D01*
X125700Y322000D02*Y308100D01*
Y322000D02*X138500D01*
G54D52*X363350Y332850D02*X364850D01*
X362850Y332350D02*X363350Y332850D01*
X362850Y329350D02*Y332350D01*
Y329350D02*X363350Y328850D01*
X364850D01*
X366051Y329350D02*X366551Y328850D01*
X368051D01*
X368551Y329350D01*
Y330350D01*
X366051Y332850D02*X368551Y330350D01*
X366051Y332850D02*X368551D01*
X369752Y332350D02*X370252Y332850D01*
X369752Y329350D02*Y332350D01*
Y329350D02*X370252Y328850D01*
X371252D01*
X371752Y329350D01*
Y332350D01*
X371252Y332850D02*X371752Y332350D01*
X370252Y332850D02*X371252D01*
X369752Y331850D02*X371752Y329850D01*
X372953Y329350D02*X373453Y328850D01*
X374453D01*
X374953Y329350D01*
Y332350D01*
X374453Y332850D02*X374953Y332350D01*
X373453Y332850D02*X374453D01*
X372953Y332350D02*X373453Y332850D01*
Y330850D02*X374953D01*
X421000Y231400D02*Y231900D01*
X423500Y234400D01*
Y235400D01*
X421000Y234400D02*Y235400D01*
Y234400D02*X423500Y231900D01*
Y231400D02*Y231900D01*
X424701D02*X425201Y231400D01*
X426701D01*
X427201Y231900D01*
Y232900D01*
X424701Y235400D02*X427201Y232900D01*
X424701Y235400D02*X427201D01*
X428402Y234900D02*X428902Y235400D01*
X428402Y231900D02*Y234900D01*
Y231900D02*X428902Y231400D01*
X429902D01*
X430402Y231900D01*
Y234900D01*
X429902Y235400D02*X430402Y234900D01*
X428902Y235400D02*X429902D01*
X428402Y234400D02*X430402Y232400D01*
X431603Y235400D02*X433603Y233400D01*
Y231900D02*Y233400D01*
X433103Y231400D02*X433603Y231900D01*
X432103Y231400D02*X433103D01*
X431603Y231900D02*X432103Y231400D01*
X431603Y231900D02*Y232900D01*
X432103Y233400D01*
X433603D01*
X332000Y358600D02*X334000D01*
X334500Y359100D01*
Y360100D01*
X334000Y360600D02*X334500Y360100D01*
X332500Y360600D02*X334000D01*
X332500Y358600D02*Y362600D01*
Y360600D02*X334500Y362600D01*
X335701Y359100D02*X336201Y358600D01*
X337701D01*
X338201Y359100D01*
Y360100D01*
X335701Y362600D02*X338201Y360100D01*
X335701Y362600D02*X338201D01*
X339902D02*X340902D01*
X340402Y358600D02*Y362600D01*
X339402Y359600D02*X340402Y358600D01*
X342103D02*X344103D01*
X342103D02*Y360600D01*
X342603Y360100D01*
X343603D01*
X344103Y360600D01*
Y362100D01*
X343603Y362600D02*X344103Y362100D01*
X342603Y362600D02*X343603D01*
X342103Y362100D02*X342603Y362600D01*
X356850Y361850D02*X358850D01*
X359350Y362350D01*
Y363350D01*
X358850Y363850D02*X359350Y363350D01*
X357350Y363850D02*X358850D01*
X357350Y361850D02*Y365850D01*
Y363850D02*X359350Y365850D01*
X360551Y362350D02*X361051Y361850D01*
X362551D01*
X363051Y362350D01*
Y363350D01*
X360551Y365850D02*X363051Y363350D01*
X360551Y365850D02*X363051D01*
X364752D02*X365752D01*
X365252Y361850D02*Y365850D01*
X364252Y362850D02*X365252Y361850D01*
X366953Y363850D02*X368953Y361850D01*
X366953Y363850D02*X369453D01*
X368953Y361850D02*Y365850D01*
X312850Y329350D02*X314350D01*
X312350Y328850D02*X312850Y329350D01*
X312350Y325850D02*Y328850D01*
Y325850D02*X312850Y325350D01*
X314350D01*
X315551Y325850D02*X316051Y325350D01*
X317551D01*
X318051Y325850D01*
Y326850D01*
X315551Y329350D02*X318051Y326850D01*
X315551Y329350D02*X318051D01*
X319252Y328850D02*X319752Y329350D01*
X319252Y325850D02*Y328850D01*
Y325850D02*X319752Y325350D01*
X320752D01*
X321252Y325850D01*
Y328850D01*
X320752Y329350D02*X321252Y328850D01*
X319752Y329350D02*X320752D01*
X319252Y328350D02*X321252Y326350D01*
X322453Y325850D02*X322953Y325350D01*
X324453D01*
X324953Y325850D01*
Y326850D01*
X322453Y329350D02*X324953Y326850D01*
X322453Y329350D02*X324953D01*
X350350Y320850D02*X352350D01*
X352850Y321350D01*
Y322350D01*
X352350Y322850D02*X352850Y322350D01*
X350850Y322850D02*X352350D01*
X350850Y320850D02*Y324850D01*
Y322850D02*X352850Y324850D01*
X354051Y321350D02*X354551Y320850D01*
X356051D01*
X356551Y321350D01*
Y322350D01*
X354051Y324850D02*X356551Y322350D01*
X354051Y324850D02*X356551D01*
X357752Y321350D02*X358252Y320850D01*
X359252D01*
X359752Y321350D01*
Y324350D01*
X359252Y324850D02*X359752Y324350D01*
X358252Y324850D02*X359252D01*
X357752Y324350D02*X358252Y324850D01*
Y322850D02*X359752D01*
X362453Y320850D02*X362953Y321350D01*
X361453Y320850D02*X362453D01*
X360953Y321350D02*X361453Y320850D01*
X360953Y321350D02*Y324350D01*
X361453Y324850D01*
X362453Y322850D02*X362953Y323350D01*
X360953Y322850D02*X362453D01*
X361453Y324850D02*X362453D01*
X362953Y324350D01*
Y323350D02*Y324350D01*
X294200Y332500D02*X298200D01*
X294200Y331000D02*X294700Y330500D01*
X297700D01*
X298200Y331000D02*X297700Y330500D01*
X298200Y331000D02*Y333000D01*
X294200Y331000D02*Y333000D01*
X294700Y329299D02*X294200Y328799D01*
Y327299D02*Y328799D01*
Y327299D02*X294700Y326799D01*
X295700D01*
X298200Y329299D02*X295700Y326799D01*
X298200D02*Y329299D01*
Y324098D02*Y325098D01*
X294200Y324598D02*X298200D01*
X295200Y325598D02*X294200Y324598D01*
X294700Y322897D02*X294200Y322397D01*
Y320897D02*Y322397D01*
Y320897D02*X294700Y320397D01*
X295700D01*
X298200Y322897D02*X295700Y320397D01*
X298200D02*Y322897D01*
X285850Y324650D02*Y326650D01*
Y324650D02*X286350Y324150D01*
X287350D01*
X287850Y324650D02*X287350Y324150D01*
X287850Y324650D02*Y326150D01*
X285850D02*X289850D01*
X287850D02*X289850Y324150D01*
X286350Y322949D02*X285850Y322449D01*
Y320949D02*Y322449D01*
Y320949D02*X286350Y320449D01*
X287350D01*
X289850Y322949D02*X287350Y320449D01*
X289850D02*Y322949D01*
X286350Y319248D02*X285850Y318748D01*
Y317748D02*Y318748D01*
Y317748D02*X286350Y317248D01*
X289350D01*
X289850Y317748D02*X289350Y317248D01*
X289850Y317748D02*Y318748D01*
X289350Y319248D02*X289850Y318748D01*
X287850Y317248D02*Y318748D01*
X289350Y316047D02*X289850Y315547D01*
X286350Y316047D02*X289350D01*
X286350D02*X285850Y315547D01*
Y314547D02*Y315547D01*
Y314547D02*X286350Y314047D01*
X289350D01*
X289850Y314547D02*X289350Y314047D01*
X289850Y314547D02*Y315547D01*
X288850Y316047D02*X286850Y314047D01*
X266350Y399350D02*X268350D01*
X268850Y399850D01*
Y400850D01*
X268350Y401350D02*X268850Y400850D01*
X266850Y401350D02*X268350D01*
X266850Y399350D02*Y403350D01*
Y401350D02*X268850Y403350D01*
X270051Y399850D02*X270551Y399350D01*
X272051D01*
X272551Y399850D01*
Y400850D01*
X270051Y403350D02*X272551Y400850D01*
X270051Y403350D02*X272551D01*
X273752Y399850D02*X274252Y399350D01*
X275252D01*
X275752Y399850D01*
Y402850D01*
X275252Y403350D02*X275752Y402850D01*
X274252Y403350D02*X275252D01*
X273752Y402850D02*X274252Y403350D01*
Y401350D02*X275752D01*
X276953Y399850D02*X277453Y399350D01*
X278453D01*
X278953Y399850D01*
Y402850D01*
X278453Y403350D02*X278953Y402850D01*
X277453Y403350D02*X278453D01*
X276953Y402850D02*X277453Y403350D01*
Y401350D02*X278953D01*
X235350Y307150D02*Y309150D01*
Y307150D02*X235850Y306650D01*
X236850D01*
X237350Y307150D02*X236850Y306650D01*
X237350Y307150D02*Y308650D01*
X235350D02*X239350D01*
X237350D02*X239350Y306650D01*
X235850Y305449D02*X235350Y304949D01*
Y303449D02*Y304949D01*
Y303449D02*X235850Y302949D01*
X236850D01*
X239350Y305449D02*X236850Y302949D01*
X239350D02*Y305449D01*
X235850Y301748D02*X235350Y301248D01*
Y299748D02*Y301248D01*
Y299748D02*X235850Y299248D01*
X236850D01*
X239350Y301748D02*X236850Y299248D01*
X239350D02*Y301748D01*
X237350Y298047D02*X235350Y296047D01*
X237350Y295547D02*Y298047D01*
X235350Y296047D02*X239350D01*
X205350Y247350D02*X207350D01*
X207850Y247850D01*
Y248850D01*
X207350Y249350D02*X207850Y248850D01*
X205850Y249350D02*X207350D01*
X205850Y247350D02*Y251350D01*
Y249350D02*X207850Y251350D01*
X209551D02*X210551D01*
X210051Y247350D02*Y251350D01*
X209051Y248350D02*X210051Y247350D01*
X211752Y251350D02*X214252Y248850D01*
Y247350D02*Y248850D01*
X211752Y247350D02*X214252D01*
X199350Y332650D02*Y334650D01*
Y332650D02*X199850Y332150D01*
X200850D01*
X201350Y332650D02*X200850Y332150D01*
X201350Y332650D02*Y334150D01*
X199350D02*X203350D01*
X201350D02*X203350Y332150D01*
X201350Y330949D02*X199350Y328949D01*
X201350Y328449D02*Y330949D01*
X199350Y328949D02*X203350D01*
X199850Y327248D02*X199350Y326748D01*
Y325748D02*Y326748D01*
Y325748D02*X199850Y325248D01*
X202850D01*
X203350Y325748D02*X202850Y325248D01*
X203350Y325748D02*Y326748D01*
X202850Y327248D02*X203350Y326748D01*
X201350Y325248D02*Y326748D01*
X235393Y323257D02*Y325257D01*
Y323257D02*X235893Y322757D01*
X236893D01*
X237393Y323257D02*X236893Y322757D01*
X237393Y323257D02*Y324757D01*
X235393D02*X239393D01*
X237393D02*X239393Y322757D01*
X235893Y321556D02*X235393Y321056D01*
Y319556D02*Y321056D01*
Y319556D02*X235893Y319056D01*
X236893D01*
X239393Y321556D02*X236893Y319056D01*
X239393D02*Y321556D01*
X235893Y317855D02*X235393Y317355D01*
Y315855D02*Y317355D01*
Y315855D02*X235893Y315355D01*
X236893D01*
X239393Y317855D02*X236893Y315355D01*
X239393D02*Y317855D01*
X235393Y312154D02*Y314154D01*
X237393D01*
X236893Y313654D01*
Y312654D02*Y313654D01*
Y312654D02*X237393Y312154D01*
X238893D01*
X239393Y312654D02*X238893Y312154D01*
X239393Y312654D02*Y313654D01*
X238893Y314154D02*X239393Y313654D01*
X234850Y339150D02*Y341150D01*
Y339150D02*X235350Y338650D01*
X236350D01*
X236850Y339150D02*X236350Y338650D01*
X236850Y339150D02*Y340650D01*
X234850D02*X238850D01*
X236850D02*X238850Y338650D01*
X235350Y337449D02*X234850Y336949D01*
Y335449D02*Y336949D01*
Y335449D02*X235350Y334949D01*
X236350D01*
X238850Y337449D02*X236350Y334949D01*
X238850D02*Y337449D01*
X235350Y333748D02*X234850Y333248D01*
Y331748D02*Y333248D01*
Y331748D02*X235350Y331248D01*
X236350D01*
X238850Y333748D02*X236350Y331248D01*
X238850D02*Y333748D01*
X238350Y330047D02*X238850Y329547D01*
X237350Y330047D02*X238350D01*
X237350D02*X236850Y329547D01*
Y328547D02*Y329547D01*
Y328547D02*X237350Y328047D01*
X238350D01*
X238850Y328547D02*X238350Y328047D01*
X238850Y328547D02*Y329547D01*
X236350Y330047D02*X236850Y329547D01*
X235350Y330047D02*X236350D01*
X235350D02*X234850Y329547D01*
Y328547D02*Y329547D01*
Y328547D02*X235350Y328047D01*
X236350D01*
X236850Y328547D02*X236350Y328047D01*
X269850Y361150D02*Y363150D01*
Y361150D02*X270350Y360650D01*
X271350D01*
X271850Y361150D02*X271350Y360650D01*
X271850Y361150D02*Y362650D01*
X269850D02*X273850D01*
X271850D02*X273850Y360650D01*
X270350Y359449D02*X269850Y358949D01*
Y357449D02*Y358949D01*
Y357449D02*X270350Y356949D01*
X271350D01*
X273850Y359449D02*X271350Y356949D01*
X273850D02*Y359449D01*
X270350Y355748D02*X269850Y355248D01*
Y354248D02*Y355248D01*
Y354248D02*X270350Y353748D01*
X273350D01*
X273850Y354248D02*X273350Y353748D01*
X273850Y354248D02*Y355248D01*
X273350Y355748D02*X273850Y355248D01*
X271850Y353748D02*Y355248D01*
X273850Y351047D02*Y352047D01*
X269850Y351547D02*X273850D01*
X270850Y352547D02*X269850Y351547D01*
X235350Y354150D02*Y356150D01*
Y354150D02*X235850Y353650D01*
X236850D01*
X237350Y354150D02*X236850Y353650D01*
X237350Y354150D02*Y355650D01*
X235350D02*X239350D01*
X237350D02*X239350Y353650D01*
X235850Y352449D02*X235350Y351949D01*
Y350449D02*Y351949D01*
Y350449D02*X235850Y349949D01*
X236850D01*
X239350Y352449D02*X236850Y349949D01*
X239350D02*Y352449D01*
X235850Y348748D02*X235350Y348248D01*
Y346748D02*Y348248D01*
Y346748D02*X235850Y346248D01*
X236850D01*
X239350Y348748D02*X236850Y346248D01*
X239350D02*Y348748D01*
Y345047D02*X237350Y343047D01*
X235850D02*X237350D01*
X235350Y343547D02*X235850Y343047D01*
X235350Y343547D02*Y344547D01*
X235850Y345047D02*X235350Y344547D01*
X235850Y345047D02*X236850D01*
X237350Y344547D01*
Y343047D02*Y344547D01*
X205807Y356457D02*X207307D01*
X205307Y355957D02*X205807Y356457D01*
X205307Y352957D02*Y355957D01*
Y352957D02*X205807Y352457D01*
X207307D01*
X209008Y356457D02*X210008D01*
X209508Y352457D02*Y356457D01*
X208508Y353457D02*X209508Y352457D01*
X211209Y356457D02*X213209Y354457D01*
Y352957D02*Y354457D01*
X212709Y352457D02*X213209Y352957D01*
X211709Y352457D02*X212709D01*
X211209Y352957D02*X211709Y352457D01*
X211209Y352957D02*Y353957D01*
X211709Y354457D01*
X213209D01*
X225850Y362350D02*X227850D01*
X228350Y362850D01*
Y363850D01*
X227850Y364350D02*X228350Y363850D01*
X226350Y364350D02*X227850D01*
X226350Y362350D02*Y366350D01*
Y364350D02*X228350Y366350D01*
X229551Y362850D02*X230051Y362350D01*
X231551D01*
X232051Y362850D01*
Y363850D01*
X229551Y366350D02*X232051Y363850D01*
X229551Y366350D02*X232051D01*
X233252Y362850D02*X233752Y362350D01*
X234752D01*
X235252Y362850D01*
Y365850D01*
X234752Y366350D02*X235252Y365850D01*
X233752Y366350D02*X234752D01*
X233252Y365850D02*X233752Y366350D01*
Y364350D02*X235252D01*
X236453Y362850D02*X236953Y362350D01*
X238453D01*
X238953Y362850D01*
Y363850D01*
X236453Y366350D02*X238953Y363850D01*
X236453Y366350D02*X238953D01*
X255200Y378500D02*X259200D01*
X255200Y377000D02*X255700Y376500D01*
X258700D01*
X259200Y377000D02*X258700Y376500D01*
X259200Y377000D02*Y379000D01*
X255200Y377000D02*Y379000D01*
X255700Y375299D02*X255200Y374799D01*
Y373299D02*Y374799D01*
Y373299D02*X255700Y372799D01*
X256700D01*
X259200Y375299D02*X256700Y372799D01*
X259200D02*Y375299D01*
Y370098D02*Y371098D01*
X255200Y370598D02*X259200D01*
X256200Y371598D02*X255200Y370598D01*
X255700Y368897D02*X255200Y368397D01*
Y367397D02*Y368397D01*
Y367397D02*X255700Y366897D01*
X258700D01*
X259200Y367397D02*X258700Y366897D01*
X259200Y367397D02*Y368397D01*
X258700Y368897D02*X259200Y368397D01*
X257200Y366897D02*Y368397D01*
X284850Y239850D02*X286850D01*
X287350Y240350D01*
Y241350D01*
X286850Y241850D02*X287350Y241350D01*
X285350Y241850D02*X286850D01*
X285350Y239850D02*Y243850D01*
Y241850D02*X287350Y243850D01*
X288551Y240350D02*X289051Y239850D01*
X290551D01*
X291051Y240350D01*
Y241350D01*
X288551Y243850D02*X291051Y241350D01*
X288551Y243850D02*X291051D01*
X292252Y240350D02*X292752Y239850D01*
X294252D01*
X294752Y240350D01*
Y241350D01*
X292252Y243850D02*X294752Y241350D01*
X292252Y243850D02*X294752D01*
X295953Y243350D02*X296453Y243850D01*
X295953Y240350D02*Y243350D01*
Y240350D02*X296453Y239850D01*
X297453D01*
X297953Y240350D01*
Y243350D01*
X297453Y243850D02*X297953Y243350D01*
X296453Y243850D02*X297453D01*
X295953Y242850D02*X297953Y240850D01*
X285850Y254850D02*X287850D01*
X288350Y255350D01*
Y256350D01*
X287850Y256850D02*X288350Y256350D01*
X286350Y256850D02*X287850D01*
X286350Y254850D02*Y258850D01*
Y256850D02*X288350Y258850D01*
X289551Y255350D02*X290051Y254850D01*
X291551D01*
X292051Y255350D01*
Y256350D01*
X289551Y258850D02*X292051Y256350D01*
X289551Y258850D02*X292051D01*
X293252Y255350D02*X293752Y254850D01*
X295252D01*
X295752Y255350D01*
Y256350D01*
X293252Y258850D02*X295752Y256350D01*
X293252Y258850D02*X295752D01*
X296953Y255350D02*X297453Y254850D01*
X298953D01*
X299453Y255350D01*
Y256350D01*
X296953Y258850D02*X299453Y256350D01*
X296953Y258850D02*X299453D01*
X284350Y268350D02*X286350D01*
X286850Y268850D01*
Y269850D01*
X286350Y270350D02*X286850Y269850D01*
X284850Y270350D02*X286350D01*
X284850Y268350D02*Y272350D01*
Y270350D02*X286850Y272350D01*
X288051Y268850D02*X288551Y268350D01*
X290051D01*
X290551Y268850D01*
Y269850D01*
X288051Y272350D02*X290551Y269850D01*
X288051Y272350D02*X290551D01*
X292252D02*X293252D01*
X292752Y268350D02*Y272350D01*
X291752Y269350D02*X292752Y268350D01*
X294453Y271850D02*X294953Y272350D01*
X294453Y270850D02*Y271850D01*
Y270850D02*X294953Y270350D01*
X295953D01*
X296453Y270850D01*
Y271850D01*
X295953Y272350D02*X296453Y271850D01*
X294953Y272350D02*X295953D01*
X294453Y269850D02*X294953Y270350D01*
X294453Y268850D02*Y269850D01*
Y268850D02*X294953Y268350D01*
X295953D01*
X296453Y268850D01*
Y269850D01*
X295953Y270350D02*X296453Y269850D01*
X332900Y242500D02*Y244000D01*
X332400Y244500D02*X332900Y244000D01*
X329400Y244500D02*X332400D01*
X329400D02*X328900Y244000D01*
Y242500D02*Y244000D01*
X329400Y241299D02*X328900Y240799D01*
Y239299D02*Y240799D01*
Y239299D02*X329400Y238799D01*
X330400D01*
X332900Y241299D02*X330400Y238799D01*
X332900D02*Y241299D01*
X332400Y237598D02*X332900Y237098D01*
X329400Y237598D02*X332400D01*
X329400D02*X328900Y237098D01*
Y236098D02*Y237098D01*
Y236098D02*X329400Y235598D01*
X332400D01*
X332900Y236098D02*X332400Y235598D01*
X332900Y236098D02*Y237098D01*
X331900Y237598D02*X329900Y235598D01*
X332900Y232897D02*Y233897D01*
X328900Y233397D02*X332900D01*
X329900Y234397D02*X328900Y233397D01*
X323755Y267669D02*X325755D01*
X326255Y268169D01*
Y269169D01*
X325755Y269669D02*X326255Y269169D01*
X324255Y269669D02*X325755D01*
X324255Y267669D02*Y271669D01*
Y269669D02*X326255Y271669D01*
X327456Y268169D02*X327956Y267669D01*
X329456D01*
X329956Y268169D01*
Y269169D01*
X327456Y271669D02*X329956Y269169D01*
X327456Y271669D02*X329956D01*
X331657D02*X332657D01*
X332157Y267669D02*Y271669D01*
X331157Y268669D02*X332157Y267669D01*
X333858Y271669D02*X336358Y269169D01*
Y267669D02*Y269169D01*
X333858Y267669D02*X336358D01*
X317350Y244650D02*Y246650D01*
Y244650D02*X317850Y244150D01*
X318850D01*
X319350Y244650D02*X318850Y244150D01*
X319350Y244650D02*Y246150D01*
X317350D02*X321350D01*
X319350D02*X321350Y244150D01*
X317850Y242949D02*X317350Y242449D01*
Y240949D02*Y242449D01*
Y240949D02*X317850Y240449D01*
X318850D01*
X321350Y242949D02*X318850Y240449D01*
X321350D02*Y242949D01*
X317850Y239248D02*X317350Y238748D01*
Y237248D02*Y238748D01*
Y237248D02*X317850Y236748D01*
X318850D01*
X321350Y239248D02*X318850Y236748D01*
X321350D02*Y239248D01*
X317350Y234047D02*X317850Y233547D01*
X317350Y234047D02*Y235047D01*
X317850Y235547D02*X317350Y235047D01*
X317850Y235547D02*X320850D01*
X321350Y235047D01*
X319350Y234047D02*X319850Y233547D01*
X319350Y234047D02*Y235547D01*
X321350Y234047D02*Y235047D01*
Y234047D02*X320850Y233547D01*
X319850D02*X320850D01*
X373500Y230400D02*Y230900D01*
X376000Y233400D01*
Y234400D01*
X373500Y233400D02*Y234400D01*
Y233400D02*X376000Y230900D01*
Y230400D02*Y230900D01*
X377201D02*X377701Y230400D01*
X379201D01*
X379701Y230900D01*
Y231900D01*
X377201Y234400D02*X379701Y231900D01*
X377201Y234400D02*X379701D01*
X381402D02*X382402D01*
X381902Y230400D02*Y234400D01*
X380902Y231400D02*X381902Y230400D01*
X383603Y233900D02*X384103Y234400D01*
X383603Y230900D02*Y233900D01*
Y230900D02*X384103Y230400D01*
X385103D01*
X385603Y230900D01*
Y233900D01*
X385103Y234400D02*X385603Y233900D01*
X384103Y234400D02*X385103D01*
X383603Y233400D02*X385603Y231400D01*
X365850Y292350D02*X367850D01*
X368350Y292850D01*
Y293850D01*
X367850Y294350D02*X368350Y293850D01*
X366350Y294350D02*X367850D01*
X366350Y292350D02*Y296350D01*
Y294350D02*X368350Y296350D01*
X369551Y292850D02*X370051Y292350D01*
X371551D01*
X372051Y292850D01*
Y293850D01*
X369551Y296350D02*X372051Y293850D01*
X369551Y296350D02*X372051D01*
X373752D02*X374752D01*
X374252Y292350D02*Y296350D01*
X373252Y293350D02*X374252Y292350D01*
X377453D02*X377953Y292850D01*
X376453Y292350D02*X377453D01*
X375953Y292850D02*X376453Y292350D01*
X375953Y292850D02*Y295850D01*
X376453Y296350D01*
X377453Y294350D02*X377953Y294850D01*
X375953Y294350D02*X377453D01*
X376453Y296350D02*X377453D01*
X377953Y295850D01*
Y294850D02*Y295850D01*
X314350Y300850D02*X316350D01*
X316850Y301350D01*
Y302350D01*
X316350Y302850D02*X316850Y302350D01*
X314850Y302850D02*X316350D01*
X314850Y300850D02*Y304850D01*
Y302850D02*X316850Y304850D01*
X318051Y301350D02*X318551Y300850D01*
X320051D01*
X320551Y301350D01*
Y302350D01*
X318051Y304850D02*X320551Y302350D01*
X318051Y304850D02*X320551D01*
X322252D02*X323252D01*
X322752Y300850D02*Y304850D01*
X321752Y301850D02*X322752Y300850D01*
X324453Y304850D02*X326453Y302850D01*
Y301350D02*Y302850D01*
X325953Y300850D02*X326453Y301350D01*
X324953Y300850D02*X325953D01*
X324453Y301350D02*X324953Y300850D01*
X324453Y301350D02*Y302350D01*
X324953Y302850D01*
X326453D01*
X276700Y309500D02*X280700D01*
X276700Y308000D02*X277200Y307500D01*
X280200D01*
X280700Y308000D02*X280200Y307500D01*
X280700Y308000D02*Y310000D01*
X276700Y308000D02*Y310000D01*
X277200Y306299D02*X276700Y305799D01*
Y304299D02*Y305799D01*
Y304299D02*X277200Y303799D01*
X278200D01*
X280700Y306299D02*X278200Y303799D01*
X280700D02*Y306299D01*
Y301098D02*Y302098D01*
X276700Y301598D02*X280700D01*
X277700Y302598D02*X276700Y301598D01*
X280700Y298397D02*Y299397D01*
X276700Y298897D02*X280700D01*
X277700Y299897D02*X276700Y298897D01*
X334755Y309169D02*X336755D01*
X337255Y309669D01*
Y310669D01*
X336755Y311169D02*X337255Y310669D01*
X335255Y311169D02*X336755D01*
X335255Y309169D02*Y313169D01*
Y311169D02*X337255Y313169D01*
X338456Y309669D02*X338956Y309169D01*
X340456D01*
X340956Y309669D01*
Y310669D01*
X338456Y313169D02*X340956Y310669D01*
X338456Y313169D02*X340956D01*
X342157Y309669D02*X342657Y309169D01*
X343657D01*
X344157Y309669D01*
Y312669D01*
X343657Y313169D02*X344157Y312669D01*
X342657Y313169D02*X343657D01*
X342157Y312669D02*X342657Y313169D01*
Y311169D02*X344157D01*
X345358Y309169D02*X347358D01*
X345358D02*Y311169D01*
X345858Y310669D01*
X346858D01*
X347358Y311169D01*
Y312669D01*
X346858Y313169D02*X347358Y312669D01*
X345858Y313169D02*X346858D01*
X345358Y312669D02*X345858Y313169D01*
X305350Y194650D02*Y196650D01*
Y194650D02*X305850Y194150D01*
X306850D01*
X307350Y194650D02*X306850Y194150D01*
X307350Y194650D02*Y196150D01*
X305350D02*X309350D01*
X307350D02*X309350Y194150D01*
X305850Y192949D02*X305350Y192449D01*
Y190949D02*Y192449D01*
Y190949D02*X305850Y190449D01*
X306850D01*
X309350Y192949D02*X306850Y190449D01*
X309350D02*Y192949D01*
X308850Y189248D02*X309350Y188748D01*
X305850Y189248D02*X308850D01*
X305850D02*X305350Y188748D01*
Y187748D02*Y188748D01*
Y187748D02*X305850Y187248D01*
X308850D01*
X309350Y187748D02*X308850Y187248D01*
X309350Y187748D02*Y188748D01*
X308350Y189248D02*X306350Y187248D01*
X308850Y186047D02*X309350Y185547D01*
X305850Y186047D02*X308850D01*
X305850D02*X305350Y185547D01*
Y184547D02*Y185547D01*
Y184547D02*X305850Y184047D01*
X308850D01*
X309350Y184547D02*X308850Y184047D01*
X309350Y184547D02*Y185547D01*
X308350Y186047D02*X306350Y184047D01*
X318850Y188350D02*X320850D01*
X321350Y188850D01*
Y189850D01*
X320850Y190350D02*X321350Y189850D01*
X319350Y190350D02*X320850D01*
X319350Y188350D02*Y192350D01*
Y190350D02*X321350Y192350D01*
X322551Y188850D02*X323051Y188350D01*
X324551D01*
X325051Y188850D01*
Y189850D01*
X322551Y192350D02*X325051Y189850D01*
X322551Y192350D02*X325051D01*
X326752D02*X327752D01*
X327252Y188350D02*Y192350D01*
X326252Y189350D02*X327252Y188350D01*
X329453Y192350D02*X330453D01*
X329953Y188350D02*Y192350D01*
X328953Y189350D02*X329953Y188350D01*
X304200Y164000D02*X308200D01*
X304200Y162500D02*X304700Y162000D01*
X307700D01*
X308200Y162500D02*X307700Y162000D01*
X308200Y162500D02*Y164500D01*
X304200Y162500D02*Y164500D01*
X304700Y160799D02*X304200Y160299D01*
Y158799D02*Y160299D01*
Y158799D02*X304700Y158299D01*
X305700D01*
X308200Y160799D02*X305700Y158299D01*
X308200D02*Y160799D01*
X307700Y157098D02*X308200Y156598D01*
X304700Y157098D02*X307700D01*
X304700D02*X304200Y156598D01*
Y155598D02*Y156598D01*
Y155598D02*X304700Y155098D01*
X307700D01*
X308200Y155598D02*X307700Y155098D01*
X308200Y155598D02*Y156598D01*
X307200Y157098D02*X305200Y155098D01*
X307700Y153897D02*X308200Y153397D01*
X304700Y153897D02*X307700D01*
X304700D02*X304200Y153397D01*
Y152397D02*Y153397D01*
Y152397D02*X304700Y151897D01*
X307700D01*
X308200Y152397D02*X307700Y151897D01*
X308200Y152397D02*Y153397D01*
X307200Y153897D02*X305200Y151897D01*
X274350Y164350D02*X276350D01*
X276850Y164850D01*
Y165850D01*
X276350Y166350D02*X276850Y165850D01*
X274850Y166350D02*X276350D01*
X274850Y164350D02*Y168350D01*
Y166350D02*X276850Y168350D01*
X278051Y164850D02*X278551Y164350D01*
X280051D01*
X280551Y164850D01*
Y165850D01*
X278051Y168350D02*X280551Y165850D01*
X278051Y168350D02*X280551D01*
X281752Y167850D02*X282252Y168350D01*
X281752Y164850D02*Y167850D01*
Y164850D02*X282252Y164350D01*
X283252D01*
X283752Y164850D01*
Y167850D01*
X283252Y168350D02*X283752Y167850D01*
X282252Y168350D02*X283252D01*
X281752Y167350D02*X283752Y165350D01*
X284953Y166350D02*X286953Y164350D01*
X284953Y166350D02*X287453D01*
X286953Y164350D02*Y168350D01*
X270350Y188350D02*X272350D01*
X272850Y188850D01*
Y189850D01*
X272350Y190350D02*X272850Y189850D01*
X270850Y190350D02*X272350D01*
X270850Y188350D02*Y192350D01*
Y190350D02*X272850Y192350D01*
X274051Y188850D02*X274551Y188350D01*
X276051D01*
X276551Y188850D01*
Y189850D01*
X274051Y192350D02*X276551Y189850D01*
X274051Y192350D02*X276551D01*
X277752Y191850D02*X278252Y192350D01*
X277752Y188850D02*Y191850D01*
Y188850D02*X278252Y188350D01*
X279252D01*
X279752Y188850D01*
Y191850D01*
X279252Y192350D02*X279752Y191850D01*
X278252Y192350D02*X279252D01*
X277752Y191350D02*X279752Y189350D01*
X280953Y188350D02*X282953D01*
X280953D02*Y190350D01*
X281453Y189850D01*
X282453D01*
X282953Y190350D01*
Y191850D01*
X282453Y192350D02*X282953Y191850D01*
X281453Y192350D02*X282453D01*
X280953Y191850D02*X281453Y192350D01*
X348700Y163500D02*X352700D01*
X348700Y162000D02*X349200Y161500D01*
X352200D01*
X352700Y162000D02*X352200Y161500D01*
X352700Y162000D02*Y164000D01*
X348700Y162000D02*Y164000D01*
X349200Y160299D02*X348700Y159799D01*
Y158299D02*Y159799D01*
Y158299D02*X349200Y157799D01*
X350200D01*
X352700Y160299D02*X350200Y157799D01*
X352700D02*Y160299D01*
X352200Y156598D02*X352700Y156098D01*
X349200Y156598D02*X352200D01*
X349200D02*X348700Y156098D01*
Y155098D02*Y156098D01*
Y155098D02*X349200Y154598D01*
X352200D01*
X352700Y155098D02*X352200Y154598D01*
X352700Y155098D02*Y156098D01*
X351700Y156598D02*X349700Y154598D01*
X352700Y151897D02*Y152897D01*
X348700Y152397D02*X352700D01*
X349700Y153397D02*X348700Y152397D01*
X321350Y164850D02*X323350D01*
X323850Y165350D01*
Y166350D01*
X323350Y166850D02*X323850Y166350D01*
X321850Y166850D02*X323350D01*
X321850Y164850D02*Y168850D01*
Y166850D02*X323850Y168850D01*
X325051Y165350D02*X325551Y164850D01*
X327051D01*
X327551Y165350D01*
Y166350D01*
X325051Y168850D02*X327551Y166350D01*
X325051Y168850D02*X327551D01*
X329252D02*X330252D01*
X329752Y164850D02*Y168850D01*
X328752Y165850D02*X329752Y164850D01*
X331453Y168350D02*X331953Y168850D01*
X331453Y165350D02*Y168350D01*
Y165350D02*X331953Y164850D01*
X332953D01*
X333453Y165350D01*
Y168350D01*
X332953Y168850D02*X333453Y168350D01*
X331953Y168850D02*X332953D01*
X331453Y167850D02*X333453Y165850D01*
X288850Y161150D02*Y162650D01*
X288350Y163150D02*X288850Y162650D01*
X285350Y163150D02*X288350D01*
X285350D02*X284850Y162650D01*
Y161150D02*Y162650D01*
X286850Y159949D02*X284850Y157949D01*
X286850Y157449D02*Y159949D01*
X284850Y157949D02*X288850D01*
X284850Y154248D02*Y156248D01*
X286850D01*
X286350Y155748D01*
Y154748D02*Y155748D01*
Y154748D02*X286850Y154248D01*
X288350D01*
X288850Y154748D02*X288350Y154248D01*
X288850Y154748D02*Y155748D01*
X288350Y156248D02*X288850Y155748D01*
X225755Y192169D02*X227755D01*
X228255Y192669D01*
Y193669D01*
X227755Y194169D02*X228255Y193669D01*
X226255Y194169D02*X227755D01*
X226255Y192169D02*Y196169D01*
Y194169D02*X228255Y196169D01*
X229456Y192669D02*X229956Y192169D01*
X231456D01*
X231956Y192669D01*
Y193669D01*
X229456Y196169D02*X231956Y193669D01*
X229456Y196169D02*X231956D01*
X233657D02*X234657D01*
X234157Y192169D02*Y196169D01*
X233157Y193169D02*X234157Y192169D01*
X211850Y197850D02*X213350D01*
X211350Y197350D02*X211850Y197850D01*
X211350Y194350D02*Y197350D01*
Y194350D02*X211850Y193850D01*
X213350D01*
X214551Y197850D02*X216551Y195850D01*
Y194350D02*Y195850D01*
X216051Y193850D02*X216551Y194350D01*
X215051Y193850D02*X216051D01*
X214551Y194350D02*X215051Y193850D01*
X214551Y194350D02*Y195350D01*
X215051Y195850D01*
X216551D01*
X198850Y211350D02*X200350D01*
X198350Y210850D02*X198850Y211350D01*
X198350Y207850D02*Y210850D01*
Y207850D02*X198850Y207350D01*
X200350D01*
X203051D02*X203551Y207850D01*
X202051Y207350D02*X203051D01*
X201551Y207850D02*X202051Y207350D01*
X201551Y207850D02*Y210850D01*
X202051Y211350D01*
X203051Y209350D02*X203551Y209850D01*
X201551Y209350D02*X203051D01*
X202051Y211350D02*X203051D01*
X203551Y210850D01*
Y209850D02*Y210850D01*
X164243Y176107D02*Y177607D01*
X163743Y178107D02*X164243Y177607D01*
X160743Y178107D02*X163743D01*
X160743D02*X160243Y177607D01*
Y176107D02*Y177607D01*
X160743Y174906D02*X160243Y174406D01*
Y172906D02*Y174406D01*
Y172906D02*X160743Y172406D01*
X161743D01*
X164243Y174906D02*X161743Y172406D01*
X164243D02*Y174906D01*
X160743Y171205D02*X160243Y170705D01*
Y169205D02*Y170705D01*
Y169205D02*X160743Y168705D01*
X161743D01*
X164243Y171205D02*X161743Y168705D01*
X164243D02*Y171205D01*
X148350Y213350D02*X150350D01*
X150850Y213850D01*
Y214850D01*
X150350Y215350D02*X150850Y214850D01*
X148850Y215350D02*X150350D01*
X148850Y213350D02*Y217350D01*
Y215350D02*X150850Y217350D01*
X152551D02*X153551D01*
X153051Y213350D02*Y217350D01*
X152051Y214350D02*X153051Y213350D01*
X154752Y215350D02*X156752Y213350D01*
X154752Y215350D02*X157252D01*
X156752Y213350D02*Y217350D01*
X168350Y213350D02*X170350D01*
X170850Y213850D01*
Y214850D01*
X170350Y215350D02*X170850Y214850D01*
X168850Y215350D02*X170350D01*
X168850Y213350D02*Y217350D01*
Y215350D02*X170850Y217350D01*
X172551D02*X173551D01*
X173051Y213350D02*Y217350D01*
X172051Y214350D02*X173051Y213350D01*
X174752Y217350D02*X176752Y215350D01*
Y213850D02*Y215350D01*
X176252Y213350D02*X176752Y213850D01*
X175252Y213350D02*X176252D01*
X174752Y213850D02*X175252Y213350D01*
X174752Y213850D02*Y214850D01*
X175252Y215350D01*
X176752D01*
X213500Y144400D02*Y148400D01*
X215000Y144400D02*X215500Y144900D01*
Y147900D01*
X215000Y148400D02*X215500Y147900D01*
X213000Y148400D02*X215000D01*
X213000Y144400D02*X215000D01*
X217201Y148400D02*X218201D01*
X217701Y144400D02*Y148400D01*
X216701Y145400D02*X217701Y144400D01*
X219902Y148400D02*X220902D01*
X220402Y144400D02*Y148400D01*
X219402Y145400D02*X220402Y144400D01*
X237000Y96900D02*Y100900D01*
X238500Y96900D02*X239000Y97400D01*
Y100400D01*
X238500Y100900D02*X239000Y100400D01*
X236500Y100900D02*X238500D01*
X236500Y96900D02*X238500D01*
X240701Y100900D02*X241701D01*
X241201Y96900D02*Y100900D01*
X240201Y97900D02*X241201Y96900D01*
X242902Y100400D02*X243402Y100900D01*
X242902Y97400D02*Y100400D01*
Y97400D02*X243402Y96900D01*
X244402D01*
X244902Y97400D01*
Y100400D01*
X244402Y100900D02*X244902Y100400D01*
X243402Y100900D02*X244402D01*
X242902Y99900D02*X244902Y97900D01*
X185064Y116650D02*Y118150D01*
X184564Y118650D02*X185064Y118150D01*
X181564Y118650D02*X184564D01*
X181564D02*X181064Y118150D01*
Y116650D02*Y118150D01*
X181564Y115449D02*X181064Y114949D01*
Y113449D02*Y114949D01*
Y113449D02*X181564Y112949D01*
X182564D01*
X185064Y115449D02*X182564Y112949D01*
X185064D02*Y115449D01*
X181564Y111748D02*X181064Y111248D01*
Y110248D02*Y111248D01*
Y110248D02*X181564Y109748D01*
X184564D01*
X185064Y110248D02*X184564Y109748D01*
X185064Y110248D02*Y111248D01*
X184564Y111748D02*X185064Y111248D01*
X183064Y109748D02*Y111248D01*
X158850Y113650D02*Y115150D01*
X158350Y115650D02*X158850Y115150D01*
X155350Y115650D02*X158350D01*
X155350D02*X154850Y115150D01*
Y113650D02*Y115150D01*
X156850Y112449D02*X154850Y110449D01*
X156850Y109949D02*Y112449D01*
X154850Y110449D02*X158850D01*
X113850Y110850D02*X115850D01*
X116350Y111350D01*
Y112350D01*
X115850Y112850D02*X116350Y112350D01*
X114350Y112850D02*X115850D01*
X114350Y110850D02*Y114850D01*
Y112850D02*X116350Y114850D01*
X117551Y112850D02*X119551Y110850D01*
X117551Y112850D02*X120051D01*
X119551Y110850D02*Y114850D01*
X121252Y111350D02*X121752Y110850D01*
X123252D01*
X123752Y111350D01*
Y112350D01*
X121252Y114850D02*X123752Y112350D01*
X121252Y114850D02*X123752D01*
X115350Y119850D02*X117350D01*
X117850Y120350D01*
Y121350D01*
X117350Y121850D02*X117850Y121350D01*
X115850Y121850D02*X117350D01*
X115850Y119850D02*Y123850D01*
Y121850D02*X117850Y123850D01*
X119051Y121850D02*X121051Y119850D01*
X119051Y121850D02*X121551D01*
X121051Y119850D02*Y123850D01*
X123252D02*X124252D01*
X123752Y119850D02*Y123850D01*
X122752Y120850D02*X123752Y119850D01*
X146000Y146500D02*Y150000D01*
X146500Y150500D01*
X147500D01*
X148000Y150000D01*
Y146500D02*Y150000D01*
X149201Y150500D02*X151701Y148000D01*
Y146500D02*Y148000D01*
X149201Y146500D02*X151701D01*
X114350Y129850D02*X116350D01*
X116850Y130350D01*
Y131350D01*
X116350Y131850D02*X116850Y131350D01*
X114850Y131850D02*X116350D01*
X114850Y129850D02*Y133850D01*
Y131850D02*X116850Y133850D01*
X118051Y131850D02*X120051Y129850D01*
X118051Y131850D02*X120551D01*
X120051Y129850D02*Y133850D01*
X121752Y133350D02*X122252Y133850D01*
X121752Y130350D02*Y133350D01*
Y130350D02*X122252Y129850D01*
X123252D01*
X123752Y130350D01*
Y133350D01*
X123252Y133850D02*X123752Y133350D01*
X122252Y133850D02*X123252D01*
X121752Y132850D02*X123752Y130850D01*
X102000Y141500D02*Y145000D01*
X102500Y145500D01*
X103500D01*
X104000Y145000D01*
Y141500D02*Y145000D01*
X105701Y145500D02*X106701D01*
X106201Y141500D02*Y145500D01*
X105201Y142500D02*X106201Y141500D01*
X107902Y142000D02*X108402Y141500D01*
X109402D01*
X109902Y142000D01*
Y145000D01*
X109402Y145500D02*X109902Y145000D01*
X108402Y145500D02*X109402D01*
X107902Y145000D02*X108402Y145500D01*
Y143500D02*X109902D01*
X377307Y148743D02*X378807D01*
X376807Y148243D02*X377307Y148743D01*
X376807Y145243D02*Y148243D01*
Y145243D02*X377307Y144743D01*
X378807D01*
X380008Y146743D02*X382008Y144743D01*
X380008Y146743D02*X382508D01*
X382008Y144743D02*Y148743D01*
X383709Y146743D02*X385709Y144743D01*
X383709Y146743D02*X386209D01*
X385709Y144743D02*Y148743D01*
X360900Y136000D02*X364900D01*
X360900Y134500D02*X361400Y134000D01*
X364400D01*
X364900Y134500D02*X364400Y134000D01*
X364900Y134500D02*Y136500D01*
X360900Y134500D02*Y136500D01*
X361400Y132799D02*X360900Y132299D01*
Y130799D02*Y132299D01*
Y130799D02*X361400Y130299D01*
X362400D01*
X364900Y132799D02*X362400Y130299D01*
X364900D02*Y132799D01*
Y127598D02*Y128598D01*
X360900Y128098D02*X364900D01*
X361900Y129098D02*X360900Y128098D01*
Y124397D02*Y126397D01*
X362900D01*
X362400Y125897D01*
Y124897D02*Y125897D01*
Y124897D02*X362900Y124397D01*
X364400D01*
X364900Y124897D02*X364400Y124397D01*
X364900Y124897D02*Y125897D01*
X364400Y126397D02*X364900Y125897D01*
X335350Y156150D02*Y157650D01*
X334850Y158150D02*X335350Y157650D01*
X331850Y158150D02*X334850D01*
X331850D02*X331350Y157650D01*
Y156150D02*Y157650D01*
X333350Y154949D02*X331350Y152949D01*
X333350Y152449D02*Y154949D01*
X331350Y152949D02*X335350D01*
X331350Y149748D02*X331850Y149248D01*
X331350Y149748D02*Y150748D01*
X331850Y151248D02*X331350Y150748D01*
X331850Y151248D02*X334850D01*
X335350Y150748D01*
X333350Y149748D02*X333850Y149248D01*
X333350Y149748D02*Y151248D01*
X335350Y149748D02*Y150748D01*
Y149748D02*X334850Y149248D01*
X333850D02*X334850D01*
X390350Y157850D02*X392350D01*
X392850Y158350D01*
Y159350D01*
X392350Y159850D02*X392850Y159350D01*
X390850Y159850D02*X392350D01*
X390850Y157850D02*Y161850D01*
Y159850D02*X392850Y161850D01*
X394051Y158350D02*X394551Y157850D01*
X396051D01*
X396551Y158350D01*
Y159350D01*
X394051Y161850D02*X396551Y159350D01*
X394051Y161850D02*X396551D01*
X398252D02*X399252D01*
X398752Y157850D02*Y161850D01*
X397752Y158850D02*X398752Y157850D01*
X400453Y158350D02*X400953Y157850D01*
X401953D01*
X402453Y158350D01*
Y161350D01*
X401953Y161850D02*X402453Y161350D01*
X400953Y161850D02*X401953D01*
X400453Y161350D02*X400953Y161850D01*
Y159850D02*X402453D01*
X352850Y194650D02*Y196650D01*
Y194650D02*X353350Y194150D01*
X354350D01*
X354850Y194650D02*X354350Y194150D01*
X354850Y194650D02*Y196150D01*
X352850D02*X356850D01*
X354850D02*X356850Y194150D01*
X353350Y192949D02*X352850Y192449D01*
Y190949D02*Y192449D01*
Y190949D02*X353350Y190449D01*
X354350D01*
X356850Y192949D02*X354350Y190449D01*
X356850D02*Y192949D01*
X356350Y189248D02*X356850Y188748D01*
X353350Y189248D02*X356350D01*
X353350D02*X352850Y188748D01*
Y187748D02*Y188748D01*
Y187748D02*X353350Y187248D01*
X356350D01*
X356850Y187748D02*X356350Y187248D01*
X356850Y187748D02*Y188748D01*
X355850Y189248D02*X353850Y187248D01*
X352850Y184547D02*X353350Y184047D01*
X352850Y184547D02*Y185547D01*
X353350Y186047D02*X352850Y185547D01*
X353350Y186047D02*X356350D01*
X356850Y185547D01*
X354850Y184547D02*X355350Y184047D01*
X354850Y184547D02*Y186047D01*
X356850Y184547D02*Y185547D01*
Y184547D02*X356350Y184047D01*
X355350D02*X356350D01*
X305500Y209500D02*Y211500D01*
Y209500D02*X306000Y209000D01*
X307000D01*
X307500Y209500D02*X307000Y209000D01*
X307500Y209500D02*Y211000D01*
X305500D02*X309500D01*
X307500D02*X309500Y209000D01*
X306000Y207799D02*X305500Y207299D01*
Y205799D02*Y207299D01*
Y205799D02*X306000Y205299D01*
X307000D01*
X309500Y207799D02*X307000Y205299D01*
X309500D02*Y207799D01*
X309000Y204098D02*X309500Y203598D01*
X306000Y204098D02*X309000D01*
X306000D02*X305500Y203598D01*
Y202598D02*Y203598D01*
Y202598D02*X306000Y202098D01*
X309000D01*
X309500Y202598D02*X309000Y202098D01*
X309500Y202598D02*Y203598D01*
X308500Y204098D02*X306500Y202098D01*
X306000Y200897D02*X305500Y200397D01*
Y199397D02*Y200397D01*
Y199397D02*X306000Y198897D01*
X309000D01*
X309500Y199397D02*X309000Y198897D01*
X309500Y199397D02*Y200397D01*
X309000Y200897D02*X309500Y200397D01*
X307500Y198897D02*Y200397D01*
X335000Y212500D02*X337000D01*
X337500Y213000D01*
Y214000D01*
X337000Y214500D02*X337500Y214000D01*
X335500Y214500D02*X337000D01*
X335500Y212500D02*Y216500D01*
Y214500D02*X337500Y216500D01*
X338701Y213000D02*X339201Y212500D01*
X340701D01*
X341201Y213000D01*
Y214000D01*
X338701Y216500D02*X341201Y214000D01*
X338701Y216500D02*X341201D01*
X342402Y216000D02*X342902Y216500D01*
X342402Y213000D02*Y216000D01*
Y213000D02*X342902Y212500D01*
X343902D01*
X344402Y213000D01*
Y216000D01*
X343902Y216500D02*X344402Y216000D01*
X342902Y216500D02*X343902D01*
X342402Y215500D02*X344402Y213500D01*
X345603Y216500D02*X347603Y214500D01*
Y213000D02*Y214500D01*
X347103Y212500D02*X347603Y213000D01*
X346103Y212500D02*X347103D01*
X345603Y213000D02*X346103Y212500D01*
X345603Y213000D02*Y214000D01*
X346103Y214500D01*
X347603D01*
X396850Y213150D02*Y215150D01*
Y213150D02*X397350Y212650D01*
X398350D01*
X398850Y213150D02*X398350Y212650D01*
X398850Y213150D02*Y214650D01*
X396850D02*X400850D01*
X398850D02*X400850Y212650D01*
X397350Y211449D02*X396850Y210949D01*
Y209449D02*Y210949D01*
Y209449D02*X397350Y208949D01*
X398350D01*
X400850Y211449D02*X398350Y208949D01*
X400850D02*Y211449D01*
X397350Y207748D02*X396850Y207248D01*
Y206248D02*Y207248D01*
Y206248D02*X397350Y205748D01*
X400350D01*
X400850Y206248D02*X400350Y205748D01*
X400850Y206248D02*Y207248D01*
X400350Y207748D02*X400850Y207248D01*
X398850Y205748D02*Y207248D01*
X400850Y204547D02*X398350Y202047D01*
X396850D02*X398350D01*
X396850D02*Y204547D01*
X386445Y175531D02*X388445D01*
X388945Y176031D01*
Y177031D01*
X388445Y177531D02*X388945Y177031D01*
X386945Y177531D02*X388445D01*
X386945Y175531D02*Y179531D01*
Y177531D02*X388945Y179531D01*
X390146Y176031D02*X390646Y175531D01*
X392146D01*
X392646Y176031D01*
Y177031D01*
X390146Y179531D02*X392646Y177031D01*
X390146Y179531D02*X392646D01*
X394347D02*X395347D01*
X394847Y175531D02*Y179531D01*
X393847Y176531D02*X394847Y175531D01*
X396548Y176031D02*X397048Y175531D01*
X398548D01*
X399048Y176031D01*
Y177031D01*
X396548Y179531D02*X399048Y177031D01*
X396548Y179531D02*X399048D01*
X139850Y358350D02*X141850D01*
X142350Y358850D01*
Y359850D01*
X141850Y360350D02*X142350Y359850D01*
X140350Y360350D02*X141850D01*
X140350Y358350D02*Y362350D01*
Y360350D02*X142350Y362350D01*
X143551Y358850D02*X144051Y358350D01*
X145051D01*
X145551Y358850D01*
Y361850D01*
X145051Y362350D02*X145551Y361850D01*
X144051Y362350D02*X145051D01*
X143551Y361850D02*X144051Y362350D01*
Y360350D02*X145551D01*
X146752D02*X148752Y358350D01*
X146752Y360350D02*X149252D01*
X148752Y358350D02*Y362350D01*
X120850Y357850D02*X122850D01*
X123350Y358350D01*
Y359350D01*
X122850Y359850D02*X123350Y359350D01*
X121350Y359850D02*X122850D01*
X121350Y357850D02*Y361850D01*
Y359850D02*X123350Y361850D01*
X124551Y358350D02*X125051Y357850D01*
X126051D01*
X126551Y358350D01*
Y361350D01*
X126051Y361850D02*X126551Y361350D01*
X125051Y361850D02*X126051D01*
X124551Y361350D02*X125051Y361850D01*
Y359850D02*X126551D01*
X129252Y357850D02*X129752Y358350D01*
X128252Y357850D02*X129252D01*
X127752Y358350D02*X128252Y357850D01*
X127752Y358350D02*Y361350D01*
X128252Y361850D01*
X129252Y359850D02*X129752Y360350D01*
X127752Y359850D02*X129252D01*
X128252Y361850D02*X129252D01*
X129752Y361350D01*
Y360350D02*Y361350D01*
X130350Y382850D02*X132350D01*
X132850Y383350D01*
Y384350D01*
X132350Y384850D02*X132850Y384350D01*
X130850Y384850D02*X132350D01*
X130850Y382850D02*Y386850D01*
Y384850D02*X132850Y386850D01*
X134051Y383350D02*X134551Y382850D01*
X135551D01*
X136051Y383350D01*
Y386350D01*
X135551Y386850D02*X136051Y386350D01*
X134551Y386850D02*X135551D01*
X134051Y386350D02*X134551Y386850D01*
Y384850D02*X136051D01*
X137752Y386850D02*X138752D01*
X138252Y382850D02*Y386850D01*
X137252Y383850D02*X138252Y382850D01*
X131350Y377850D02*X133350D01*
X133850Y378350D01*
Y379350D01*
X133350Y379850D02*X133850Y379350D01*
X131850Y379850D02*X133350D01*
X131850Y377850D02*Y381850D01*
Y379850D02*X133850Y381850D01*
X135051Y378350D02*X135551Y377850D01*
X136551D01*
X137051Y378350D01*
Y381350D01*
X136551Y381850D02*X137051Y381350D01*
X135551Y381850D02*X136551D01*
X135051Y381350D02*X135551Y381850D01*
Y379850D02*X137051D01*
X138252Y381850D02*X140252Y379850D01*
Y378350D02*Y379850D01*
X139752Y377850D02*X140252Y378350D01*
X138752Y377850D02*X139752D01*
X138252Y378350D02*X138752Y377850D01*
X138252Y378350D02*Y379350D01*
X138752Y379850D01*
X140252D01*
X160850Y403850D02*X162850D01*
X163350Y404350D01*
Y405350D01*
X162850Y405850D02*X163350Y405350D01*
X161350Y405850D02*X162850D01*
X161350Y403850D02*Y407850D01*
Y405850D02*X163350Y407850D01*
X164551Y404350D02*X165051Y403850D01*
X166051D01*
X166551Y404350D01*
Y407350D01*
X166051Y407850D02*X166551Y407350D01*
X165051Y407850D02*X166051D01*
X164551Y407350D02*X165051Y407850D01*
Y405850D02*X166551D01*
X167752Y407850D02*X170252Y405350D01*
Y403850D02*Y405350D01*
X167752Y403850D02*X170252D01*
X242350Y406650D02*Y408650D01*
Y406650D02*X242850Y406150D01*
X243850D01*
X244350Y406650D02*X243850Y406150D01*
X244350Y406650D02*Y408150D01*
X242350D02*X246350D01*
X244350D02*X246350Y406150D01*
X242850Y404949D02*X242350Y404449D01*
Y402949D02*Y404449D01*
Y402949D02*X242850Y402449D01*
X243850D01*
X246350Y404949D02*X243850Y402449D01*
X246350D02*Y404949D01*
X242850Y401248D02*X242350Y400748D01*
Y399748D02*Y400748D01*
Y399748D02*X242850Y399248D01*
X245850D01*
X246350Y399748D02*X245850Y399248D01*
X246350Y399748D02*Y400748D01*
X245850Y401248D02*X246350Y400748D01*
X244350Y399248D02*Y400748D01*
Y398047D02*X242350Y396047D01*
X244350Y395547D02*Y398047D01*
X242350Y396047D02*X246350D01*
X183850Y360350D02*X185850D01*
X186350Y360850D01*
Y361850D01*
X185850Y362350D02*X186350Y361850D01*
X184350Y362350D02*X185850D01*
X184350Y360350D02*Y364350D01*
Y362350D02*X186350Y364350D01*
X187551Y360850D02*X188051Y360350D01*
X189051D01*
X189551Y360850D01*
Y363850D01*
X189051Y364350D02*X189551Y363850D01*
X188051Y364350D02*X189051D01*
X187551Y363850D02*X188051Y364350D01*
Y362350D02*X189551D01*
X190752Y360350D02*X192752D01*
X190752D02*Y362350D01*
X191252Y361850D01*
X192252D01*
X192752Y362350D01*
Y363850D01*
X192252Y364350D02*X192752Y363850D01*
X191252Y364350D02*X192252D01*
X190752Y363850D02*X191252Y364350D01*
X160350Y388350D02*X162350D01*
X162850Y388850D01*
Y389850D01*
X162350Y390350D02*X162850Y389850D01*
X160850Y390350D02*X162350D01*
X160850Y388350D02*Y392350D01*
Y390350D02*X162850Y392350D01*
X164051Y388850D02*X164551Y388350D01*
X165551D01*
X166051Y388850D01*
Y391850D01*
X165551Y392350D02*X166051Y391850D01*
X164551Y392350D02*X165551D01*
X164051Y391850D02*X164551Y392350D01*
Y390350D02*X166051D01*
X167252Y388850D02*X167752Y388350D01*
X169252D01*
X169752Y388850D01*
Y389850D01*
X167252Y392350D02*X169752Y389850D01*
X167252Y392350D02*X169752D01*
X164850Y367850D02*X166850D01*
X167350Y368350D01*
Y369350D01*
X166850Y369850D02*X167350Y369350D01*
X165350Y369850D02*X166850D01*
X165350Y367850D02*Y371850D01*
Y369850D02*X167350Y371850D01*
X168551Y368350D02*X169051Y367850D01*
X170051D01*
X170551Y368350D01*
Y371350D01*
X170051Y371850D02*X170551Y371350D01*
X169051Y371850D02*X170051D01*
X168551Y371350D02*X169051Y371850D01*
Y369850D02*X170551D01*
X171752Y371350D02*X172252Y371850D01*
X171752Y370350D02*Y371350D01*
Y370350D02*X172252Y369850D01*
X173252D01*
X173752Y370350D01*
Y371350D01*
X173252Y371850D02*X173752Y371350D01*
X172252Y371850D02*X173252D01*
X171752Y369350D02*X172252Y369850D01*
X171752Y368350D02*Y369350D01*
Y368350D02*X172252Y367850D01*
X173252D01*
X173752Y368350D01*
Y369350D01*
X173252Y369850D02*X173752Y369350D01*
X186850Y380850D02*X188850D01*
X189350Y381350D01*
Y382350D01*
X188850Y382850D02*X189350Y382350D01*
X187350Y382850D02*X188850D01*
X187350Y380850D02*Y384850D01*
Y382850D02*X189350Y384850D01*
X190551Y381350D02*X191051Y380850D01*
X192051D01*
X192551Y381350D01*
Y384350D01*
X192051Y384850D02*X192551Y384350D01*
X191051Y384850D02*X192051D01*
X190551Y384350D02*X191051Y384850D01*
Y382850D02*X192551D01*
X193752Y381350D02*X194252Y380850D01*
X195252D01*
X195752Y381350D01*
Y384350D01*
X195252Y384850D02*X195752Y384350D01*
X194252Y384850D02*X195252D01*
X193752Y384350D02*X194252Y384850D01*
Y382850D02*X195752D01*
X154255Y343669D02*X156255D01*
X156755Y344169D01*
Y345169D01*
X156255Y345669D02*X156755Y345169D01*
X154755Y345669D02*X156255D01*
X154755Y343669D02*Y347669D01*
Y345669D02*X156755Y347669D01*
X158456D02*X159456D01*
X158956Y343669D02*Y347669D01*
X157956Y344669D02*X158956Y343669D01*
X146755Y327169D02*X148755D01*
X149255Y327669D01*
Y328669D01*
X148755Y329169D02*X149255Y328669D01*
X147255Y329169D02*X148755D01*
X147255Y327169D02*Y331169D01*
Y329169D02*X149255Y331169D01*
X150456Y327669D02*X150956Y327169D01*
X152456D01*
X152956Y327669D01*
Y328669D01*
X150456Y331169D02*X152956Y328669D01*
X150456Y331169D02*X152956D01*
X166350Y343850D02*X167850D01*
X165850Y343350D02*X166350Y343850D01*
X165850Y340350D02*Y343350D01*
Y340350D02*X166350Y339850D01*
X167850D01*
X169051Y343850D02*X171551Y341350D01*
Y339850D02*Y341350D01*
X169051Y339850D02*X171551D01*
X168850Y331350D02*X170850D01*
X171350Y331850D01*
Y332850D01*
X170850Y333350D02*X171350Y332850D01*
X169350Y333350D02*X170850D01*
X169350Y331350D02*Y335350D01*
Y333350D02*X171350Y335350D01*
X172551Y331850D02*X173051Y331350D01*
X174051D01*
X174551Y331850D01*
Y334850D01*
X174051Y335350D02*X174551Y334850D01*
X173051Y335350D02*X174051D01*
X172551Y334850D02*X173051Y335350D01*
Y333350D02*X174551D01*
X175752Y334850D02*X176252Y335350D01*
X175752Y331850D02*Y334850D01*
Y331850D02*X176252Y331350D01*
X177252D01*
X177752Y331850D01*
Y334850D01*
X177252Y335350D02*X177752Y334850D01*
X176252Y335350D02*X177252D01*
X175752Y334350D02*X177752Y332350D01*
X168350Y323850D02*X170350D01*
X170850Y324350D01*
Y325350D01*
X170350Y325850D02*X170850Y325350D01*
X168850Y325850D02*X170350D01*
X168850Y323850D02*Y327850D01*
Y325850D02*X170850Y327850D01*
X172051Y324350D02*X172551Y323850D01*
X174051D01*
X174551Y324350D01*
Y325350D01*
X172051Y327850D02*X174551Y325350D01*
X172051Y327850D02*X174551D01*
X175752D02*X177752Y325850D01*
Y324350D02*Y325850D01*
X177252Y323850D02*X177752Y324350D01*
X176252Y323850D02*X177252D01*
X175752Y324350D02*X176252Y323850D01*
X175752Y324350D02*Y325350D01*
X176252Y325850D01*
X177752D01*
X263350Y281850D02*X265350D01*
X265850Y282350D01*
Y283350D01*
X265350Y283850D02*X265850Y283350D01*
X263850Y283850D02*X265350D01*
X263850Y281850D02*Y285850D01*
Y283850D02*X265850Y285850D01*
X267051Y282350D02*X267551Y281850D01*
X269051D01*
X269551Y282350D01*
Y283350D01*
X267051Y285850D02*X269551Y283350D01*
X267051Y285850D02*X269551D01*
X270752Y282350D02*X271252Y281850D01*
X272752D01*
X273252Y282350D01*
Y283350D01*
X270752Y285850D02*X273252Y283350D01*
X270752Y285850D02*X273252D01*
X274953D02*X275953D01*
X275453Y281850D02*Y285850D01*
X274453Y282850D02*X275453Y281850D01*
X252350Y271350D02*X254350D01*
X254850Y271850D01*
Y272850D01*
X254350Y273350D02*X254850Y272850D01*
X252850Y273350D02*X254350D01*
X252850Y271350D02*Y275350D01*
Y273350D02*X254850Y275350D01*
X256051Y271850D02*X256551Y271350D01*
X258051D01*
X258551Y271850D01*
Y272850D01*
X256051Y275350D02*X258551Y272850D01*
X256051Y275350D02*X258551D01*
X259752Y271850D02*X260252Y271350D01*
X261752D01*
X262252Y271850D01*
Y272850D01*
X259752Y275350D02*X262252Y272850D01*
X259752Y275350D02*X262252D01*
X263453Y271850D02*X263953Y271350D01*
X264953D01*
X265453Y271850D01*
Y274850D01*
X264953Y275350D02*X265453Y274850D01*
X263953Y275350D02*X264953D01*
X263453Y274850D02*X263953Y275350D01*
Y273350D02*X265453D01*
X113350Y284650D02*Y286650D01*
Y284650D02*X113850Y284150D01*
X114850D01*
X115350Y284650D02*X114850Y284150D01*
X115350Y284650D02*Y286150D01*
X113350D02*X117350D01*
X115350D02*X117350Y284150D01*
X113850Y282949D02*X113350Y282449D01*
Y280949D02*Y282449D01*
Y280949D02*X113850Y280449D01*
X114850D01*
X117350Y282949D02*X114850Y280449D01*
X117350D02*Y282949D01*
X113350Y277248D02*Y279248D01*
X115350D01*
X114850Y278748D01*
Y277748D02*Y278748D01*
Y277748D02*X115350Y277248D01*
X116850D01*
X117350Y277748D02*X116850Y277248D01*
X117350Y277748D02*Y278748D01*
X116850Y279248D02*X117350Y278748D01*
X218743Y293107D02*Y294607D01*
X218243Y295107D02*X218743Y294607D01*
X215243Y295107D02*X218243D01*
X215243D02*X214743Y294607D01*
Y293107D02*Y294607D01*
X218743Y290406D02*Y291406D01*
X214743Y290906D02*X218743D01*
X215743Y291906D02*X214743Y290906D01*
Y287705D02*X215243Y287205D01*
X214743Y287705D02*Y288705D01*
X215243Y289205D02*X214743Y288705D01*
X215243Y289205D02*X218243D01*
X218743Y288705D01*
X216743Y287705D02*X217243Y287205D01*
X216743Y287705D02*Y289205D01*
X218743Y287705D02*Y288705D01*
Y287705D02*X218243Y287205D01*
X217243D02*X218243D01*
X203850Y284850D02*X205850D01*
X206350Y285350D01*
Y286350D01*
X205850Y286850D02*X206350Y286350D01*
X204350Y286850D02*X205850D01*
X204350Y284850D02*Y288850D01*
Y286850D02*X206350Y288850D01*
X208051D02*X209051D01*
X208551Y284850D02*Y288850D01*
X207551Y285850D02*X208551Y284850D01*
X210252Y285350D02*X210752Y284850D01*
X211752D01*
X212252Y285350D01*
Y288350D01*
X211752Y288850D02*X212252Y288350D01*
X210752Y288850D02*X211752D01*
X210252Y288350D02*X210752Y288850D01*
Y286850D02*X212252D01*
X206893Y302957D02*X208393D01*
X206393Y302457D02*X206893Y302957D01*
X206393Y299457D02*Y302457D01*
Y299457D02*X206893Y298957D01*
X208393D01*
X209594Y299457D02*X210094Y298957D01*
X211094D01*
X211594Y299457D01*
Y302457D01*
X211094Y302957D02*X211594Y302457D01*
X210094Y302957D02*X211094D01*
X209594Y302457D02*X210094Y302957D01*
Y300957D02*X211594D01*
X187850Y303850D02*X189850D01*
X190350Y304350D01*
Y305350D01*
X189850Y305850D02*X190350Y305350D01*
X188350Y305850D02*X189850D01*
X188350Y303850D02*Y307850D01*
Y305850D02*X190350Y307850D01*
X192051D02*X193051D01*
X192551Y303850D02*Y307850D01*
X191551Y304850D02*X192551Y303850D01*
X194252Y304350D02*X194752Y303850D01*
X196252D01*
X196752Y304350D01*
Y305350D01*
X194252Y307850D02*X196752Y305350D01*
X194252Y307850D02*X196752D01*
X150850Y300850D02*X152850D01*
X153350Y301350D01*
Y302350D01*
X152850Y302850D02*X153350Y302350D01*
X151350Y302850D02*X152850D01*
X151350Y300850D02*Y304850D01*
Y302850D02*X153350Y304850D01*
X154551Y300850D02*X156551D01*
X154551D02*Y302850D01*
X155051Y302350D01*
X156051D01*
X156551Y302850D01*
Y304350D01*
X156051Y304850D02*X156551Y304350D01*
X155051Y304850D02*X156051D01*
X154551Y304350D02*X155051Y304850D01*
X175000Y302700D02*Y306700D01*
X176500Y302700D02*X177000Y303200D01*
Y306200D01*
X176500Y306700D02*X177000Y306200D01*
X174500Y306700D02*X176500D01*
X174500Y302700D02*X176500D01*
X179701D02*X180201Y303200D01*
X178701Y302700D02*X179701D01*
X178201Y303200D02*X178701Y302700D01*
X178201Y303200D02*Y306200D01*
X178701Y306700D01*
X179701Y304700D02*X180201Y305200D01*
X178201Y304700D02*X179701D01*
X178701Y306700D02*X179701D01*
X180201Y306200D01*
Y305200D02*Y306200D01*
X119700Y315000D02*X123700D01*
X119700Y313500D02*X120200Y313000D01*
X123200D01*
X123700Y313500D02*X123200Y313000D01*
X123700Y313500D02*Y315500D01*
X119700Y313500D02*Y315500D01*
X120200Y311799D02*X119700Y311299D01*
Y309799D02*Y311299D01*
Y309799D02*X120200Y309299D01*
X121200D01*
X123700Y311799D02*X121200Y309299D01*
X123700D02*Y311799D01*
X95500Y248200D02*X97000D01*
X95000Y247700D02*X95500Y248200D01*
X95000Y244700D02*Y247700D01*
Y244700D02*X95500Y244200D01*
X97000D01*
X98201Y244700D02*X98701Y244200D01*
X100201D01*
X100701Y244700D01*
Y245700D01*
X98201Y248200D02*X100701Y245700D01*
X98201Y248200D02*X100701D01*
X101902Y247700D02*X102402Y248200D01*
X101902Y244700D02*Y247700D01*
Y244700D02*X102402Y244200D01*
X103402D01*
X103902Y244700D01*
Y247700D01*
X103402Y248200D02*X103902Y247700D01*
X102402Y248200D02*X103402D01*
X101902Y247200D02*X103902Y245200D01*
X216350Y248150D02*Y250150D01*
Y248150D02*X216850Y247650D01*
X217850D01*
X218350Y248150D02*X217850Y247650D01*
X218350Y248150D02*Y249650D01*
X216350D02*X220350D01*
X218350D02*X220350Y247650D01*
X216850Y246449D02*X216350Y245949D01*
Y244449D02*Y245949D01*
Y244449D02*X216850Y243949D01*
X217850D01*
X220350Y246449D02*X217850Y243949D01*
X220350D02*Y246449D01*
X219850Y242748D02*X220350Y242248D01*
X216850Y242748D02*X219850D01*
X216850D02*X216350Y242248D01*
Y241248D02*Y242248D01*
Y241248D02*X216850Y240748D01*
X219850D01*
X220350Y241248D02*X219850Y240748D01*
X220350Y241248D02*Y242248D01*
X219350Y242748D02*X217350Y240748D01*
X207307Y219957D02*X208807D01*
X206807Y219457D02*X207307Y219957D01*
X206807Y216457D02*Y219457D01*
Y216457D02*X207307Y215957D01*
X208807D01*
X210508Y219957D02*X211508D01*
X211008Y215957D02*Y219957D01*
X210008Y216957D02*X211008Y215957D01*
X212709Y216457D02*X213209Y215957D01*
X214209D01*
X214709Y216457D01*
Y219457D01*
X214209Y219957D02*X214709Y219457D01*
X213209Y219957D02*X214209D01*
X212709Y219457D02*X213209Y219957D01*
Y217957D02*X214709D01*
X207807Y232457D02*X209307D01*
X207307Y231957D02*X207807Y232457D01*
X207307Y228957D02*Y231957D01*
Y228957D02*X207807Y228457D01*
X209307D01*
X211008Y232457D02*X212008D01*
X211508Y228457D02*Y232457D01*
X210508Y229457D02*X211508Y228457D01*
X213209Y228957D02*X213709Y228457D01*
X215209D01*
X215709Y228957D01*
Y229957D01*
X213209Y232457D02*X215709Y229957D01*
X213209Y232457D02*X215709D01*
X111350Y225350D02*X113350D01*
X113850Y225850D01*
Y226850D01*
X113350Y227350D02*X113850Y226850D01*
X111850Y227350D02*X113350D01*
X111850Y225350D02*Y229350D01*
Y227350D02*X113850Y229350D01*
X115051Y225850D02*X115551Y225350D01*
X117051D01*
X117551Y225850D01*
Y226850D01*
X115051Y229350D02*X117551Y226850D01*
X115051Y229350D02*X117551D01*
X118752Y227350D02*X120752Y225350D01*
X118752Y227350D02*X121252D01*
X120752Y225350D02*Y229350D01*
X179350Y231850D02*X181350D01*
X181850Y232350D01*
Y233350D01*
X181350Y233850D02*X181850Y233350D01*
X179850Y233850D02*X181350D01*
X179850Y231850D02*Y235850D01*
Y233850D02*X181850Y235850D01*
X183551D02*X184551D01*
X184051Y231850D02*Y235850D01*
X183051Y232850D02*X184051Y231850D01*
X185752Y235350D02*X186252Y235850D01*
X185752Y234350D02*Y235350D01*
Y234350D02*X186252Y233850D01*
X187252D01*
X187752Y234350D01*
Y235350D01*
X187252Y235850D02*X187752Y235350D01*
X186252Y235850D02*X187252D01*
X185752Y233350D02*X186252Y233850D01*
X185752Y232350D02*Y233350D01*
Y232350D02*X186252Y231850D01*
X187252D01*
X187752Y232350D01*
Y233350D01*
X187252Y233850D02*X187752Y233350D01*
X159350Y246850D02*X161350D01*
X161850Y247350D01*
Y248350D01*
X161350Y248850D02*X161850Y248350D01*
X159850Y248850D02*X161350D01*
X159850Y246850D02*Y250850D01*
Y248850D02*X161850Y250850D01*
X163051Y248850D02*X165051Y246850D01*
X163051Y248850D02*X165551D01*
X165051Y246850D02*Y250850D01*
X166752Y246850D02*X168752D01*
X166752D02*Y248850D01*
X167252Y248350D01*
X168252D01*
X168752Y248850D01*
Y250350D01*
X168252Y250850D02*X168752Y250350D01*
X167252Y250850D02*X168252D01*
X166752Y250350D02*X167252Y250850D01*
X119350Y252850D02*X121350D01*
X121850Y253350D01*
Y254350D01*
X121350Y254850D02*X121850Y254350D01*
X119850Y254850D02*X121350D01*
X119850Y252850D02*Y256850D01*
Y254850D02*X121850Y256850D01*
X123051Y254850D02*X125051Y252850D01*
X123051Y254850D02*X125551D01*
X125051Y252850D02*Y256850D01*
X128252Y252850D02*X128752Y253350D01*
X127252Y252850D02*X128252D01*
X126752Y253350D02*X127252Y252850D01*
X126752Y253350D02*Y256350D01*
X127252Y256850D01*
X128252Y254850D02*X128752Y255350D01*
X126752Y254850D02*X128252D01*
X127252Y256850D02*X128252D01*
X128752Y256350D01*
Y255350D02*Y256350D01*
X118945Y241531D02*X120945D01*
X121445Y242031D01*
Y243031D01*
X120945Y243531D02*X121445Y243031D01*
X119445Y243531D02*X120945D01*
X119445Y241531D02*Y245531D01*
Y243531D02*X121445Y245531D01*
X122646Y243531D02*X124646Y241531D01*
X122646Y243531D02*X125146D01*
X124646Y241531D02*Y245531D01*
X126347Y243531D02*X128347Y241531D01*
X126347Y243531D02*X128847D01*
X128347Y241531D02*Y245531D01*
X129350Y229350D02*X131350D01*
X131850Y229850D01*
Y230850D01*
X131350Y231350D02*X131850Y230850D01*
X129850Y231350D02*X131350D01*
X129850Y229350D02*Y233350D01*
Y231350D02*X131850Y233350D01*
X133551D02*X134551D01*
X134051Y229350D02*Y233350D01*
X133051Y230350D02*X134051Y229350D01*
X137252D02*X137752Y229850D01*
X136252Y229350D02*X137252D01*
X135752Y229850D02*X136252Y229350D01*
X135752Y229850D02*Y232850D01*
X136252Y233350D01*
X137252Y231350D02*X137752Y231850D01*
X135752Y231350D02*X137252D01*
X136252Y233350D02*X137252D01*
X137752Y232850D01*
Y231850D02*Y232850D01*
X87000Y92500D02*X416000D01*
X66000Y404500D02*Y103500D01*
X68500Y101000D02*X78500D01*
X68500Y407000D02*X78500D01*
X424500D02*X443000D01*
X445500Y404500D02*Y103500D01*
X424500Y101000D02*X443000D01*
X394500Y272000D02*X408500D01*
X87000Y415500D02*X416000D01*
X390000Y290000D02*Y276500D01*
X399000Y290000D02*Y285500D01*
X403500Y281000D02*X408500D01*
X335500Y352000D02*Y342000D01*
X349000Y346500D02*X352000D01*
X399000Y342000D02*Y333000D01*
X340000Y337500D02*X352000D01*
X385500Y346500D02*X394500D01*
X344500Y352000D02*Y351000D01*
X84500Y413000D02*G75*G02X87000Y415500I2500J0D01*G01*
X66000Y404500D02*G75*G02X68500Y407000I2500J0D01*G01*
X78500Y101000D02*G75*G02X84500Y95000I0J-6000D01*G01*
Y413000D02*G75*G02X78500Y407000I-6000J0D01*G01*
X68500Y101000D02*G75*G02X66000Y103500I0J2500D01*G01*
X87000Y92500D02*G75*G02X84500Y95000I0J2500D01*G01*
X445500Y103500D02*G75*G02X443000Y101000I-2500J0D01*G01*
X418500Y95000D02*G75*G02X416000Y92500I-2500J0D01*G01*
Y415500D02*G75*G02X418500Y413000I0J-2500D01*G01*
Y95000D02*G75*G02X424500Y101000I6000J0D01*G01*
Y407000D02*G75*G02X418500Y413000I0J6000D01*G01*
X443000Y407000D02*G75*G02X445500Y404500I0J-2500D01*G01*
X344500Y352000D02*G75*G03X340000Y356500I-4500J0D01*G01*
X335500Y342000D02*G75*G03X340000Y337500I4500J0D01*G01*
X352000D02*G75*G03X356500Y342000I0J4500D01*G01*
G75*G03X352000Y346500I-4500J0D01*G01*
X344500Y351000D02*G75*G03X349000Y346500I4500J0D01*G01*
X340000Y356500D02*G75*G03X335500Y352000I0J-4500D01*G01*
X390000Y276500D02*G75*G03X394500Y272000I4500J0D01*G01*
X399000Y290000D02*G75*G03X394500Y294500I-4500J0D01*G01*
G75*G03X390000Y290000I0J-4500D01*G01*
X399000Y285500D02*G75*G03X403500Y281000I4500J0D01*G01*
X408500Y272000D02*G75*G03X413000Y276500I0J4500D01*G01*
G75*G03X408500Y281000I-4500J0D01*G01*
X385500Y346500D02*G75*G03X381000Y342000I0J-4500D01*G01*
G75*G03X385500Y337500I4500J0D01*G01*
X399000Y342000D02*G75*G03X394500Y346500I-4500J0D01*G01*
X390000Y333000D02*G75*G03X394500Y328500I4500J0D01*G01*
G75*G03X399000Y333000I0J4500D01*G01*
X390000D02*G75*G03X385500Y337500I-4500J0D01*G01*
M02*
