G04 start of page 4 for group 10 idx 10 *
G04 Title: (unknown), outline *
G04 Creator: pcb 20091103 *
G04 CreationDate: Sun Aug  4 14:17:31 2024 UTC *
G04 For: bh *
G04 Format: Gerber/RS-274X *
G04 PCB-Dimensions: 560000 580000 *
G04 PCB-Coordinate-Origin: lower left *
%MOIN*%
%FSLAX25Y25*%
%LNMECHANICAL*%
%ADD52C,0.0060*%
G54D52*X87000Y101000D02*X416000D01*
X66000Y413000D02*Y112000D01*
X68500Y109500D02*X78500D01*
X68500Y415500D02*X78500D01*
X424500D02*X443000D01*
X445500Y413000D02*Y112000D01*
X424500Y109500D02*X443000D01*
X394500Y280500D02*X408500D01*
X87000Y424000D02*X416000D01*
X390000Y298500D02*Y285000D01*
X399000Y298500D02*Y294000D01*
X403500Y289500D02*X408500D01*
X335500Y360500D02*Y350500D01*
X349000Y355000D02*X352000D01*
X399000Y350500D02*Y341500D01*
X340000Y346000D02*X352000D01*
X385500Y355000D02*X394500D01*
X344500Y360500D02*Y359500D01*
X84500Y421500D02*G75*G02X87000Y424000I2500J0D01*G01*
X66000Y413000D02*G75*G02X68500Y415500I2500J0D01*G01*
X78500Y109500D02*G75*G02X84500Y103500I0J-6000D01*G01*
Y421500D02*G75*G02X78500Y415500I-6000J0D01*G01*
X68500Y109500D02*G75*G02X66000Y112000I0J2500D01*G01*
X87000Y101000D02*G75*G02X84500Y103500I0J2500D01*G01*
X445500Y112000D02*G75*G02X443000Y109500I-2500J0D01*G01*
X418500Y103500D02*G75*G02X416000Y101000I-2500J0D01*G01*
Y424000D02*G75*G02X418500Y421500I0J-2500D01*G01*
X443000Y415500D02*G75*G02X445500Y413000I0J-2500D01*G01*
X418500Y103500D02*G75*G02X424500Y109500I6000J0D01*G01*
Y415500D02*G75*G02X418500Y421500I0J6000D01*G01*
X408500Y280500D02*G75*G03X413000Y285000I0J4500D01*G01*
G75*G03X408500Y289500I-4500J0D01*G01*
X390000Y285000D02*G75*G03X394500Y280500I4500J0D01*G01*
X390000Y341500D02*G75*G03X394500Y337000I4500J0D01*G01*
G75*G03X399000Y341500I0J4500D01*G01*
Y298500D02*G75*G03X394500Y303000I-4500J0D01*G01*
G75*G03X390000Y298500I0J-4500D01*G01*
X385500Y355000D02*G75*G03X381000Y350500I0J-4500D01*G01*
G75*G03X385500Y346000I4500J0D01*G01*
X399000Y350500D02*G75*G03X394500Y355000I-4500J0D01*G01*
X390000Y341500D02*G75*G03X385500Y346000I-4500J0D01*G01*
X344500Y359500D02*G75*G03X349000Y355000I4500J0D01*G01*
X340000Y365000D02*G75*G03X335500Y360500I0J-4500D01*G01*
X344500D02*G75*G03X340000Y365000I-4500J0D01*G01*
X335500Y350500D02*G75*G03X340000Y346000I4500J0D01*G01*
X352000D02*G75*G03X356500Y350500I0J4500D01*G01*
G75*G03X352000Y355000I-4500J0D01*G01*
X399000Y294000D02*G75*G03X403500Y289500I4500J0D01*G01*
M02*
