G04 start of page 2 for group 0 idx 0 *
G04 Title: (unknown), component *
G04 Creator: pcb 20091103 *
G04 CreationDate: Sun Aug  4 14:17:31 2024 UTC *
G04 For: bh *
G04 Format: Gerber/RS-274X *
G04 PCB-Dimensions: 560000 580000 *
G04 PCB-Coordinate-Origin: lower left *
%MOIN*%
%FSLAX25Y25*%
%LNTOP*%
%ADD11C,0.0200*%
%ADD12C,0.0400*%
%ADD13C,0.0100*%
%ADD14C,0.0180*%
%ADD15C,0.0140*%
%ADD16C,0.0250*%
%ADD17C,0.0350*%
%ADD18C,0.0600*%
%ADD19C,0.0900*%
%ADD20C,0.0520*%
%ADD21C,0.1216*%
%ADD22C,0.1661*%
%ADD23C,0.0650*%
%ADD24C,0.0880*%
%ADD25C,0.0800*%
%ADD26C,0.1060*%
%ADD27C,0.0868*%
%ADD28C,0.0905*%
%ADD29C,0.0360*%
%ADD30R,0.0200X0.0200*%
%ADD31C,0.0160*%
%ADD32R,0.0160X0.0160*%
%ADD33R,0.0512X0.0512*%
%ADD34R,0.1400X0.1400*%
%ADD35R,0.0394X0.0394*%
%ADD36R,0.0866X0.0866*%
%ADD37R,0.1230X0.1230*%
%ADD38R,0.0340X0.0340*%
%ADD39R,0.0970X0.0970*%
%ADD40C,0.0380*%
%ADD41C,0.0220*%
%ADD42C,0.1299*%
%ADD43C,0.0672*%
%ADD44C,0.1027*%
%ADD45C,0.0430*%
%ADD46C,0.0408*%
%ADD47C,0.0709*%
%ADD48C,0.0620*%
%ADD49C,0.0418*%
%ADD50C,0.0455*%
%ADD51C,0.0300*%
%ADD52C,0.0060*%
G54D11*G36*
X333000Y291000D02*X346500D01*
Y288000D01*
X334500Y276000D01*
Y250500D01*
X317000D01*
Y275000D01*
X333000Y291000D01*
G37*
G36*
X305000Y231000D02*Y252500D01*
X347500D01*
Y231000D01*
X305000D01*
G37*
G36*
Y235500D02*X318000D01*
Y216000D01*
X305000D01*
Y235500D01*
G37*
G36*
X334500D02*X347500D01*
Y216000D01*
X334500D01*
Y235500D01*
G37*
G36*
X417500Y238500D02*Y244500D01*
X429000D01*
Y238500D01*
X417500D01*
G37*
G36*
X279500Y142500D02*X282500D01*
Y132500D01*
X283000Y132000D01*
X289500D01*
Y119000D01*
X283000D01*
X282500Y118500D01*
Y111500D01*
X279500D01*
Y142500D01*
G37*
G36*
X303000Y120000D02*X299000D01*
Y125000D01*
X312500D01*
Y114500D01*
X309500Y111500D01*
X303000D01*
Y120000D01*
G37*
G36*
X299000Y133000D02*Y142500D01*
X312500D01*
Y133000D01*
X299000D01*
G37*
G36*
X286000Y291000D02*X299500D01*
Y288000D01*
X287500Y276000D01*
Y250500D01*
X270000D01*
Y275000D01*
X286000Y291000D01*
G37*
G36*
X258000Y231000D02*Y252500D01*
X300500D01*
Y231000D01*
X258000D01*
G37*
G36*
Y235500D02*X271000D01*
Y216000D01*
X258000D01*
Y235500D01*
G37*
G36*
X287500D02*X300500D01*
Y216000D01*
X287500D01*
Y235500D01*
G37*
G36*
X117000Y318000D02*X96500D01*
Y326000D01*
X117000D01*
Y318000D01*
G37*
G36*
X241500Y111500D02*Y117000D01*
X282500D01*
Y111500D01*
X241500D01*
G37*
G36*
Y136500D02*Y142500D01*
X282500D01*
Y136500D01*
X241500D01*
G37*
G54D12*X114000Y411500D02*Y397000D01*
X109500Y390000D01*
X115000Y368500D02*X109500D01*
Y390000D02*Y368500D01*
Y378500D02*X97000D01*
X109500Y368500D02*X97000Y363900D01*
Y378500D02*Y363900D01*
G54D13*X115000Y362500D02*Y358150D01*
G54D12*Y368500D02*Y362500D01*
G54D14*X96905Y309881D02*Y324405D01*
X85000Y332200D02*Y309976D01*
X97000Y344200D02*X85000Y332200D01*
G54D15*X108500Y331500D02*X112850D01*
X97000Y344200D02*X108500Y331500D01*
G54D14*X118500Y338000D02*X112914D01*
G54D15*X119000Y343000D02*X120000Y342000D01*
G54D14*X97000Y344200D02*Y344500D01*
G54D13*X177405Y329681D02*Y337819D01*
G54D15*X123000Y342000D02*X121500Y329000D01*
X120000Y342000D02*X123086D01*
G54D13*X160500Y334000D02*X165595Y330681D01*
X131000Y342500D02*Y338000D01*
X127000Y332000D02*X137500Y336000D01*
X142500Y340000D01*
X128000Y314000D02*Y319200D01*
X131500Y310500D02*Y305500D01*
X130000Y304000D01*
X126500D01*
X131500Y310500D02*X128000Y314000D01*
X135500Y309000D02*Y300500D01*
X136000Y319000D02*X135800Y319200D01*
X136000Y314000D02*Y319000D01*
X131900Y327400D02*X142950D01*
X135500Y309000D02*X136000Y314000D01*
X135500Y300500D02*X137000Y299000D01*
X140500D01*
X173000Y302000D02*X177086D01*
G54D15*X159500Y301000D02*X164914D01*
X159500D02*X154500Y304000D01*
G54D13*X165595Y320181D02*X154905D01*
X178724Y321500D02*X177405Y320181D01*
X131000Y299000D02*X126500D01*
X131000Y347500D02*X125724D01*
G54D15*X122000Y358000D02*X122500Y346586D01*
G54D13*X144500Y352500D02*X137500D01*
G54D12*X126500Y368500D02*Y362000D01*
G54D15*X112595Y347319D02*X117681D01*
X119000Y346000D01*
Y343000D01*
G54D13*X139000Y368000D02*Y386500D01*
X122000Y378500D02*X119500D01*
X128500Y373500D02*Y368000D01*
Y383500D02*X133500D01*
X119500Y378500D02*X118500Y379500D01*
Y393000D01*
X139000Y386500D02*X135000Y397500D01*
G54D12*X143000Y363500D02*X143500Y363000D01*
X143000Y368500D02*Y363500D01*
X135500Y368500D02*Y363000D01*
X177500Y368500D02*Y363000D01*
X169000D02*Y368500D01*
X159500D02*Y363000D01*
X150500Y368500D02*Y363000D01*
X126500Y368500D02*X177500D01*
X135500Y363000D02*X177500D01*
G54D15*X207000Y413000D02*X212500Y407500D01*
X225000Y380000D02*X174500Y407500D01*
X170000Y413000D02*X207000D01*
G54D13*X153500Y378500D02*X149000D01*
G54D15*X158500Y379500D02*X157500Y378500D01*
X153500D01*
G54D13*Y383500D02*X149000D01*
X143500Y410000D02*Y404000D01*
X140500Y413000D02*X143500Y410000D01*
X120500Y413000D02*X140500D01*
G54D15*X126000Y406000D02*X158500Y392000D01*
G54D13*X143500Y404000D02*X162500Y394500D01*
X118500Y393000D02*X120500Y413000D01*
G54D15*X158500Y392000D02*Y379500D01*
G54D13*X162500Y394500D02*Y379500D01*
X163500Y378500D01*
G54D15*X183500Y393000D02*Y379000D01*
G54D13*X173000Y383500D02*X175500D01*
X178000Y385500D01*
X163500Y378500D02*X166500D01*
X173000D02*X176500D01*
X185000Y370000D01*
X173000Y373500D02*Y368500D01*
X185000Y370000D02*X199500D01*
G54D15*X178000Y385500D02*Y391500D01*
X183500Y393000D02*X164500Y407500D01*
X178000Y391500D02*X150500Y407500D01*
X164500D02*X170000Y413000D01*
G54D13*X239000Y370500D02*X234000D01*
X244500Y375500D02*X249000D01*
X258500D02*X254000D01*
G54D15*X232000Y408500D02*X239500Y416000D01*
X225000Y396500D02*X212500Y407500D01*
X229500Y389000D02*X232000Y404000D01*
Y408500D01*
G54D13*X237000Y408000D02*Y402650D01*
G54D16*X233500Y387000D02*X236000Y389500D01*
G54D13*Y393350D01*
X238150Y401500D02*X237607Y402043D01*
G54D15*X239500Y416000D02*X254000D01*
G54D13*X278064Y406500D02*X278457Y406893D01*
X285500Y413500D02*Y400000D01*
X277500Y397000D02*Y405936D01*
X278457Y406893D01*
X272000Y406500D02*X278064D01*
G54D15*X256500Y389000D02*X249000Y380500D01*
G54D13*X245000Y396500D02*X239936D01*
X245000Y401500D02*X238150D01*
G54D15*X254000Y416000D02*X256000Y411500D01*
X261000Y408000D01*
G54D13*X244500Y380500D02*X249000D01*
X265000D02*X269000D01*
G54D16*X277000D01*
X277500Y380000D01*
G54D13*X251500Y406500D02*X256000D01*
G54D15*X268000Y389000D02*X256500D01*
X268000D02*X271000Y386000D01*
X261000Y408000D02*Y402500D01*
X262000Y401500D01*
G54D13*X265500D01*
X177405Y317819D02*Y310681D01*
X205500Y347500D02*X201500D01*
X198000Y373500D02*X204936D01*
X198000Y349000D02*Y346000D01*
G54D16*X195000Y342000D02*X196000Y334500D01*
X195000Y342000D02*Y367000D01*
G54D13*X201000Y368500D02*Y364000D01*
X198000Y349000D01*
X224000Y306936D02*X224393Y306543D01*
X224000Y312500D02*Y306936D01*
G54D15*X224500Y326500D02*X229500Y331500D01*
G54D13*X253000Y302000D02*X248000D01*
X231457Y299457D02*X231500Y299500D01*
X268500Y302000D02*X274000D01*
X249000Y322500D02*X244500D01*
X249000Y327500D02*X244500D01*
X238000Y317500D02*X233500D01*
G54D12*Y387000D01*
G54D15*X229500Y331500D02*Y389000D01*
G54D12*X233500Y317500D02*X231000Y305500D01*
G54D15*X225000Y380000D02*Y366500D01*
G54D13*X238000Y344000D02*X233000D01*
X254000Y322500D02*X258500D01*
X270000Y327500D02*X265000D01*
G54D16*X249000Y339000D02*X267000D01*
X277500Y363000D02*X268500Y354000D01*
G54D13*X254000Y349000D02*X258500D01*
X265000Y354000D02*X268500D01*
X249000D02*X244500D01*
X249000Y349000D02*X244500D01*
G54D14*X271000Y365500D02*X254500D01*
X249000Y375500D01*
G54D12*X277500Y363000D02*Y397000D01*
G54D13*X183500Y114500D02*X179000D01*
Y119500D02*X183500D01*
G54D16*X188500Y120500D02*Y108000D01*
G54D13*Y129500D02*X179000D01*
X188500Y134500D02*X193000D01*
X179000D02*X183500D01*
X188500Y144500D02*X193000D01*
X179000Y124500D02*X193000D01*
G54D16*X183500Y114500D02*Y124500D01*
G54D12*X206000Y159000D02*Y108000D01*
X193500Y150000D02*X206000D01*
X193500Y159000D02*X206000D01*
Y188000D02*X215000D01*
X206000Y108000D02*X115500D01*
G54D13*X135000Y133000D02*X136500Y139500D01*
X144000Y144500D02*X140000D01*
X157000Y144000D02*X158500Y142500D01*
X165500Y143000D02*X169000Y139500D01*
X172500D01*
G54D12*X218000Y138500D02*X206000D01*
G54D13*X134500Y114500D02*X130000D01*
X155000D02*X150500D01*
X155000Y134500D02*X150500D01*
X158500Y142500D02*Y121500D01*
X155000Y129500D02*X150500D01*
X158500Y121500D02*X155000Y114500D01*
X150500Y124500D02*X155000D01*
X150500Y119500D02*X153500D01*
X155000Y129500D02*Y122000D01*
X153500Y119500D01*
X199500Y129500D02*Y124500D01*
X181500Y183000D02*Y176724D01*
X181819Y176405D02*Y176319D01*
X176500Y171000D01*
G54D15*X181500Y159000D02*Y164276D01*
G54D13*X176500Y171000D02*Y144500D01*
X151000Y160000D02*X155000Y139500D01*
X161500Y162000D02*X165000Y154000D01*
X154500Y155000D02*X157000Y144000D01*
G54D16*X158000Y156000D02*X160000Y148000D01*
G54D13*X165500D02*Y143000D01*
G54D16*X154500Y179000D02*X158000Y175500D01*
G54D13*X150500Y189000D02*X154500D01*
G54D16*Y198500D02*Y179000D01*
G54D13*X130000Y134500D02*Y124500D01*
X135000Y133000D02*Y124500D01*
X130000Y119500D01*
X120500Y137500D02*Y150000D01*
G54D12*X115500Y147000D02*Y108000D01*
G54D13*X144000Y139500D02*Y134500D01*
X120500Y137500D02*X123500Y134500D01*
X130000Y139500D02*X133000D01*
X131500Y147000D02*X130000Y144500D01*
X133000Y139500D02*X134000Y140500D01*
G54D16*X140000Y148000D02*Y107500D01*
G54D13*X95500Y152500D02*X118000D01*
G54D12*X73000Y147000D02*X115500D01*
G54D13*X118000Y152500D02*X120500Y150000D01*
X110000Y159000D02*X117000D01*
X122500Y153500D01*
G54D16*X78500Y159000D02*Y155500D01*
X80500Y153500D01*
G54D13*X78500Y164000D02*X73000D01*
X142000Y184000D02*X136000Y182000D01*
X113500Y164000D01*
X138000Y186500D02*Y191000D01*
X140000Y175500D02*X141500Y174000D01*
X144500Y194000D02*X141000D01*
X140000Y179500D02*Y175500D01*
X117000Y189000D02*X138000Y186500D01*
X131500Y167000D02*Y147000D01*
X134000Y156000D02*X135000Y164000D01*
X134000Y140500D02*Y156000D01*
X136500Y139500D02*Y153500D01*
X138500Y162500D01*
Y167000D01*
X122500Y153500D02*X127500Y149000D01*
X96650Y214000D02*X94543Y211893D01*
X95957Y230607D02*Y222957D01*
X103000Y214000D02*X96650D01*
G54D12*X127000Y222500D02*X83500D01*
G54D13*X114850Y232500D02*X103150D01*
X127500Y234000D02*X122000Y233500D01*
G54D12*X109000Y216000D02*X127000D01*
G54D16*X136000Y237500D02*Y231500D01*
G54D14*X136500Y243000D02*X127500Y234000D01*
G54D16*X136000Y231500D02*X127000Y222500D01*
X132500Y220000D02*X140500Y222000D01*
G54D13*X140000Y215000D02*X157500Y223000D01*
X155000Y225500D02*X141500Y218500D01*
X139000D01*
X134500Y215000D01*
G54D16*X151500Y228500D02*X140500Y222000D01*
G54D14*X136500Y245500D02*Y243000D01*
G54D12*X83500Y222500D02*X79000Y227000D01*
G54D14*X90000Y232500D02*Y236776D01*
G54D13*X94500Y239500D02*Y232064D01*
G54D12*X79000Y216500D02*X73000D01*
Y210500D02*X79000D01*
G54D13*X87000Y244500D02*Y249224D01*
X94500Y244500D02*X87000D01*
G54D14*X90000Y236776D02*X88181Y238595D01*
G54D12*X79000Y227000D02*Y255500D01*
G54D13*X103000Y210000D02*X95650D01*
G54D12*X73000Y306500D02*X79000D01*
X85500Y300500D02*X73000D01*
G54D16*X79000Y287500D02*X87000D01*
G54D12*X79000Y294500D02*X73000D01*
G54D16*X79000Y255500D02*X90100Y269600D01*
X79000Y283000D02*X93500D01*
G54D12*X115500Y302000D02*Y287500D01*
G54D13*X120000Y294000D02*X115500D01*
X109543Y298607D02*X115893D01*
X95500Y297500D02*X101350D01*
G54D12*X132500Y271500D02*X116500D01*
G54D13*X132500Y282000D02*X128150D01*
X126043Y279893D01*
G54D12*X116500Y271500D02*X111500Y276500D01*
G54D13*X119957Y278607D02*Y271043D01*
G54D12*X111500Y276500D02*X73000D01*
G54D13*X141000Y237500D02*X136000D01*
G54D16*X175500Y244500D02*Y233500D01*
G54D12*X153000Y204500D02*X165000D01*
X127000Y222500D02*Y210000D01*
X109000D02*Y222500D01*
X115000D02*Y210000D01*
X121000Y222500D02*Y210000D01*
X73000Y199000D02*X193500D01*
G54D16*X200500Y199500D02*X206000Y188000D01*
G54D13*X221000Y209000D02*X223000Y207000D01*
Y202000D01*
X216000Y209000D02*X221000D01*
X209500Y204000D02*X205000D01*
G54D16*X201000D01*
G54D12*X188000Y219000D02*X200500D01*
X188000Y212000D02*X200500D01*
G54D13*X185500Y232500D02*Y226000D01*
X192000Y237500D02*X195500D01*
X199000Y234000D02*X195500Y237500D01*
G54D12*X200500Y199000D02*Y226000D01*
X170000Y210000D02*X177000Y204500D01*
X200500D01*
X193500D02*Y224500D01*
X188000Y219000D02*Y204500D01*
X193000Y199000D02*X193500D01*
X127000Y204500D02*X147000D01*
X121000D02*X73000D01*
X109000Y210000D02*X170000D01*
G54D13*X87457Y211107D02*Y204043D01*
X87500Y204000D01*
G54D12*X121000Y204500D02*Y199000D01*
X103000Y204500D02*Y199000D01*
X109000Y204000D02*Y199000D01*
X115000Y204500D02*Y199000D01*
X97000Y204500D02*Y199000D01*
X79000Y216500D02*Y199000D01*
X85000Y204500D02*Y199000D01*
X91000Y204500D02*Y199000D01*
X153000D02*Y204500D01*
X159000Y199000D02*Y204500D01*
X165000Y199000D02*Y204500D01*
G54D13*X201000Y321500D02*X205500D01*
G54D12*X217500Y378500D02*Y242500D01*
G54D13*X212500D02*X217500D01*
X212500Y266000D02*X217500D01*
G54D16*X212000Y251500D02*X195500D01*
G54D13*X192000Y256000D01*
X175500Y255000D02*X172000Y257500D01*
X175500Y249500D02*Y255000D01*
X199500Y370000D02*X201000Y368500D01*
G54D12*X197500Y366500D02*X177500D01*
G54D13*X198000Y378500D02*X193500D01*
Y383500D02*X205350D01*
G54D15*X183500Y379000D02*X184000Y378500D01*
G54D13*X187000D01*
X89500Y189000D02*X99000D01*
X89500Y184000D02*X93000D01*
X94000Y183000D01*
X89500Y194000D02*X103500D01*
X78500D02*Y199500D01*
X99000Y166000D02*X105000Y164000D01*
X94000Y162000D02*X88500Y164000D01*
X110000D02*X113500D01*
X94000Y183000D02*Y170000D01*
X93000Y169000D01*
X89000D01*
X78500Y174000D02*X83000D01*
X89500Y179000D02*X94000D01*
X89500Y174000D02*X98000D01*
X105000Y159000D02*X99000Y157500D01*
X89500Y159000D02*Y153500D01*
X94000Y162000D02*Y154000D01*
X95500Y152500D01*
G54D16*X80500Y153500D02*X89500D01*
G54D13*X117000Y179000D02*X110000D01*
X117000Y184000D02*X110000D01*
Y194000D02*X114500D01*
G54D16*Y198500D02*Y194000D01*
X119500D01*
Y199000D01*
G54D13*X117000Y171000D02*X108500Y174000D01*
X154000Y179000D02*X151000D01*
Y164000D02*Y160000D01*
Y174000D02*X153500D01*
X161500Y179500D02*Y162000D01*
G54D16*X158000Y175500D02*Y156000D01*
G54D13*X153500Y174000D02*X154500Y173000D01*
X165500Y148000D02*X171500Y154000D01*
Y164000D01*
G54D12*X193500Y199000D02*Y150000D01*
G54D13*X176000Y179000D02*X171500D01*
X165000D02*Y174000D01*
X157500Y186000D02*X161500Y179500D01*
X165000Y194000D02*X160500D01*
X157500Y191000D01*
X161000Y189000D02*X165000D01*
X157500Y191000D02*Y186000D01*
X141500Y174000D02*X144500D01*
X135000Y169000D02*X131500Y167000D01*
X144500Y169000D02*X140500D01*
X138500Y167000D01*
X127500Y169500D02*X135000Y174000D01*
X127500Y154000D02*Y169500D01*
X138000Y191000D02*X141000Y194000D01*
X144500Y184000D02*X142000D01*
X154500Y173000D02*Y155000D01*
G54D12*X140000Y287500D02*Y282000D01*
X147000D01*
Y287500D01*
X73000Y147000D02*Y312500D01*
X79000D01*
Y294500D01*
X73000Y324500D02*X79500D01*
Y344000D01*
X79300Y344200D02*X97000Y363900D01*
X132500Y249500D02*Y276500D01*
G54D13*X108000Y244500D02*X115000D01*
G54D14*X127000Y249500D02*X132500D01*
G54D13*X127000D02*X121500D01*
X132000Y244500D02*X121500D01*
G54D12*X108500Y269500D02*Y263000D01*
G54D14*X132500Y249500D02*X136500Y245500D01*
G54D13*X138500Y247500D02*X141000D01*
Y257500D02*X138500D01*
X137500Y256500D01*
Y248500D01*
X138500Y247500D01*
G54D12*X115500Y287500D02*X108500Y284000D01*
G54D16*X95500Y297500D02*Y286300D01*
X140000Y271500D02*X147000D01*
X108500Y269500D02*X98800D01*
X96400Y267100D01*
G54D13*X108000Y249500D02*X101000D01*
G54D12*X147000Y287500D02*X115500D01*
G54D13*X185500Y256000D02*X180000D01*
X181000Y266000D02*X185500D01*
G54D16*X180000Y256000D02*Y248500D01*
G54D13*X181000Y242500D02*X185500D01*
G54D12*X154500Y287500D02*Y276500D01*
G54D16*X156500Y265000D02*X155500Y271500D01*
G54D13*X168000Y267500D02*Y276500D01*
G54D12*X164000Y293000D02*X153000D01*
G54D16*X151500Y251500D02*X154000Y254000D01*
G54D13*X151500Y257500D02*X147500D01*
X151500Y262500D02*X147500D01*
X151500Y267500D02*X147500D01*
G54D16*X156500Y258000D02*Y265000D01*
G54D13*X172000Y252500D02*X168000D01*
X161500Y262500D02*X156500D01*
X161500Y257500D02*X158500Y254500D01*
X157000Y250500D01*
G54D14*X154000Y254000D02*X156500Y258000D01*
G54D13*X161500Y229500D02*X163000Y228000D01*
X157500Y236500D02*Y223000D01*
X155000Y240000D02*Y225500D01*
G54D16*X151500Y251500D02*Y228500D01*
G54D13*X161500Y232500D02*Y229500D01*
X163000Y228000D02*X169000D01*
G54D12*X161500Y219000D02*X177000D01*
X169000Y228000D02*Y219000D01*
G54D16*X175500Y233500D02*X181500Y226000D01*
G54D13*X161500Y237500D02*X158500D01*
X157500Y236500D01*
X161500Y242500D02*X157500D01*
X155000Y240000D01*
X147500Y242500D02*X151500D01*
X147500Y232500D02*X151500D01*
G54D16*X175500Y244500D02*X180000Y248500D01*
G54D13*X167500Y247500D02*X173500D01*
X175500Y249500D01*
X165595Y308319D02*X170681D01*
X172000Y307000D01*
Y303000D01*
X173000Y302000D01*
X154000Y304000D02*X147000D01*
G54D14*Y271500D02*X155500D01*
G54D12*X153000Y293000D02*X147000Y287500D01*
G54D13*X159500Y337500D02*X165276D01*
X165595Y337819D01*
X156000Y321276D02*Y331500D01*
X163000Y352500D02*X158000D01*
X144500Y347500D02*X151500D01*
X160500Y334000D02*X157500D01*
X151500Y337000D01*
X144500D01*
X156000Y328500D02*X150650D01*
X146500Y333000D02*X153000D01*
X142957Y326607D02*Y320319D01*
X156000Y331500D02*X153000Y333000D01*
X144500Y337000D02*X138000Y330500D01*
G54D12*X278500Y327500D02*X287500Y343500D01*
G54D16*X270000Y327500D02*X278500D01*
G54D13*X142500Y340000D02*X144500Y347500D01*
X138000Y330500D02*Y327500D01*
G54D12*X378000Y303500D02*Y320000D01*
X348000Y300000D02*X328000D01*
G54D16*X358000D02*X348000D01*
G54D14*X274000Y302000D02*X278500D01*
G54D16*X318000Y300000D02*X328000D01*
G54D15*X425972Y359142D02*X410358D01*
X377936Y380145D01*
G54D16*X267000Y339000D02*X278000Y350000D01*
G54D12*X287500Y343500D02*Y357000D01*
X282000Y363000D01*
G54D13*X303500Y365500D02*X293000D01*
G54D12*X277500Y363000D02*X282000D01*
X285500Y375000D02*X293000Y365500D01*
G54D13*X174000Y352500D02*X185000D01*
X174000Y347500D02*X185000D01*
X198000Y346000D02*X201000Y336500D01*
X191500Y342500D02*X195000D01*
X191500Y316500D02*X196000D01*
G54D16*Y307500D02*Y334500D01*
G54D13*X212000Y352500D02*X218000D01*
X201000Y321500D02*Y329000D01*
X212000Y326500D02*X217500D01*
X185000D02*X178224D01*
X185000Y321500D02*X178724D01*
X186500Y261000D02*X177000D01*
X195000Y266000D02*X192000D01*
X199000Y261000D02*X206000D01*
X195000Y266000D02*X199000Y267000D01*
G54D12*X132500Y276500D02*X217500D01*
G54D13*X192000Y242500D02*X196500D01*
G54D12*X198500Y287500D02*X190500D01*
G54D16*X198500D02*Y305000D01*
G54D13*X205000Y304000D02*X209500D01*
G54D15*X208319Y296595D02*X198595D01*
G54D13*X209500Y304000D02*X211500Y302000D01*
Y282000D01*
X186000Y299800D02*X177886D01*
G54D16*X198500Y305000D02*X196000Y307500D01*
G54D13*X184000D02*X189800D01*
X205000Y304000D02*Y309224D01*
G54D12*X190500Y287500D02*X164000Y293000D01*
X154500Y282000D02*X180000D01*
Y276500D01*
X161000Y282000D02*Y276500D01*
X167500Y282000D02*Y276500D01*
X174000Y282000D02*Y276500D01*
G54D13*X196500Y242500D02*X201500Y237500D01*
X206000D01*
G54D12*X181500Y226000D02*X215000D01*
X217500Y232500D02*Y228500D01*
X403500Y231500D02*X397500D01*
G54D16*X389600D01*
G54D14*X375000D02*X385400D01*
G54D16*X354500Y229500D02*X360400D01*
X354500Y221500D02*X363600D01*
G54D14*X375000Y241000D02*X370000Y246000D01*
G54D13*X229457Y291957D02*X229500Y292000D01*
G54D12*X278500Y293000D02*Y327500D01*
G54D13*X241500Y292000D02*X231000D01*
X257500Y297000D02*X248000D01*
X259043Y279543D02*X259000Y279500D01*
X267500Y286500D02*X256150D01*
X255543Y285893D01*
G54D15*X268500Y297000D02*X273500D01*
G54D12*X268000Y286500D02*Y283000D01*
X278500Y293000D02*X264500Y279000D01*
X271500Y286500D02*X268000D01*
X298000Y320000D02*Y288500D01*
G54D13*X229457Y285893D02*Y291957D01*
G54D12*X217500Y244500D02*X234000D01*
X242000Y236500D01*
G54D13*X237000Y250000D02*X231650D01*
X224043Y250607D02*Y244543D01*
G54D12*X224500Y272500D02*X248000D01*
X237000Y266000D02*X248000D01*
G54D14*X370000Y246000D02*Y276500D01*
G54D15*X267500Y222000D02*X292000D01*
X279100Y226217D02*Y233400D01*
X279000Y233500D01*
G54D12*X242000Y272500D02*Y250000D01*
X254000Y221500D02*Y250000D01*
X237000D02*Y272500D01*
Y259500D02*X248000D01*
Y272500D02*Y221500D01*
X217500Y279000D02*X264500D01*
G54D13*X237650Y287000D02*X236543Y285893D01*
X247350Y287000D02*X237650D01*
X247350D02*X248457Y285893D01*
X235850Y287000D02*X236957Y285893D01*
G54D12*X231000Y292000D02*Y305500D01*
G54D13*X223607Y299457D02*Y291607D01*
X223500Y291500D01*
G54D12*X223000Y287500D02*Y292000D01*
X231000D01*
G54D13*X216000Y214000D02*X219000D01*
X225724Y209000D01*
G54D12*X217500Y228500D02*X215000Y226000D01*
G54D16*X217500Y232500D02*X223000D01*
G54D13*X222500Y226000D02*X228936D01*
X223000Y232500D02*X227564D01*
X226000Y239500D02*X231500D01*
X235500Y235500D02*Y224500D01*
X230000Y209000D02*X225724D01*
X227000D02*Y202000D01*
X231500Y239500D02*X235500Y235500D01*
G54D12*X237000Y250000D02*X254000D01*
X248000Y242500D02*X254000D01*
X248000Y235500D02*X254000D01*
X248000Y229500D02*X254000D01*
X248000Y214000D02*Y180500D01*
G54D13*X242000Y214000D02*X236500D01*
G54D12*X254000D02*X241500D01*
X248000Y221500D02*X254000D01*
X242000Y236500D02*Y199500D01*
X254000D01*
X242000Y207500D02*X254000D01*
X248000Y187000D02*X260500D01*
Y193500D02*X248000D01*
G54D13*X241393Y185957D02*X252957D01*
G54D12*X254000Y214000D02*Y180500D01*
G54D15*X233000Y183500D02*X237000Y180000D01*
X241000Y179500D01*
X227000Y202000D02*Y195500D01*
X233000Y183500D01*
X240107Y193043D02*X236500Y198500D01*
G54D12*X215000Y188000D02*X243500Y170000D01*
X248000Y180500D02*X260500D01*
G54D15*X293500Y258000D02*X310500D01*
X293500Y273000D02*X310500D01*
X326100Y234400D02*X326000Y234500D01*
G54D16*X359500Y289500D02*Y257500D01*
G54D12*X342000Y289500D02*X364000D01*
X378000Y303500D01*
G54D15*X314000Y222000D02*X340000D01*
X326100Y226217D02*Y234400D01*
G54D14*X417000Y191500D02*Y181500D01*
G54D13*X391500Y184500D02*X396000D01*
G54D16*Y193500D01*
X384000D01*
G54D14*X417000Y181500D02*X411000Y175500D01*
G54D15*X380500Y179500D02*Y191500D01*
X376500Y195000D01*
G54D13*X380500Y179500D02*X385000D01*
X375500Y184500D02*X371000D01*
G54D16*X384000Y193500D02*X378500Y198000D01*
G54D15*X373500Y192500D02*X375500Y189500D01*
G54D12*X426500Y220000D02*Y241500D01*
X421000D02*X403500Y231500D01*
G54D17*X426500Y163000D02*Y220000D01*
G54D16*X407000Y201500D02*X417000Y211500D01*
G54D14*X400000Y195500D02*Y176500D01*
G54D13*X392543Y199607D02*Y193043D01*
X392500Y193000D01*
G54D14*X407000Y201500D02*X400000Y195500D01*
Y176500D02*X388500Y165000D01*
X392500Y162500D02*X411000Y175500D01*
X388500Y165000D02*Y159500D01*
G54D12*X402000Y146500D02*X426500Y163000D01*
G54D14*X388500Y159500D02*X392500Y157000D01*
G54D13*X363500Y168000D02*X371000D01*
G54D16*X373500Y116000D02*X383500Y126000D01*
G54D12*X380500Y108000D02*X391500Y119000D01*
Y134500D01*
G54D13*X364500Y168000D02*Y174500D01*
X384000Y168500D02*X379650D01*
G54D16*X426500Y241500D02*Y251700D01*
X420000Y241500D02*Y251500D01*
X380600Y258900D02*X403400D01*
G54D13*X377500Y202500D02*X385500D01*
X368043Y208893D02*Y209043D01*
X372500Y213500D01*
G54D14*X375000Y216000D01*
Y241000D01*
G54D15*X291000Y208000D02*X285500D01*
X292414Y199500D02*X280586D01*
X273190Y208500D02*Y203810D01*
X275500Y201500D01*
X279586D01*
X266500Y207500D02*Y200414D01*
X268095Y198819D01*
G54D12*X260500Y193500D02*Y180500D01*
G54D13*X293900Y129400D02*Y136536D01*
X286457Y136107D02*Y127043D01*
X275000Y129500D02*Y133500D01*
G54D12*X239000Y108000D02*X312000D01*
G54D16*X269500Y133500D02*Y139000D01*
Y133500D02*X243500D01*
G54D13*X296500Y125000D02*Y129500D01*
G54D12*X218000Y117000D02*X239000Y108000D01*
G54D16*X223500Y146500D02*X218000Y138500D01*
G54D12*X232000Y154500D02*X223500Y146500D01*
G54D15*X246000Y161500D02*X241000D01*
G54D12*X232000Y154500D02*X246500D01*
G54D14*X281500Y141500D02*X304000D01*
G54D12*X254000Y152500D02*X310500D01*
Y138500D01*
X243500Y146500D02*X310500D01*
G54D13*X267000Y162500D02*X262150D01*
G54D12*X310500Y129500D02*X300500D01*
G54D13*X293900Y129400D02*X302900D01*
X303000Y129500D01*
G54D12*X261500Y127500D02*X243500D01*
Y146500D02*Y115500D01*
X249500Y140500D02*Y115500D01*
X255500Y138500D02*Y115500D01*
X261500Y121500D02*X243500D01*
G54D15*X246000Y161500D02*X252000Y157000D01*
G54D12*X254000Y152500D02*Y138500D01*
G54D13*X254457Y163893D02*Y169957D01*
X268500Y174500D02*Y169500D01*
X279500Y184500D02*X275000D01*
Y179500D02*X278500D01*
G54D12*X272500Y170000D02*Y162500D01*
G54D16*X278000Y167000D02*Y162500D01*
G54D15*X278500Y179500D02*X286500Y171000D01*
G54D12*X272500Y170000D02*X243500D01*
G54D15*X296500Y171000D02*X300500Y172000D01*
G54D16*X303000Y167000D02*Y162500D01*
X308500Y167000D02*Y162500D01*
G54D13*X300500Y179500D02*X295500D01*
G54D16*X298000Y167000D02*Y162500D01*
X283000Y167000D02*Y162500D01*
X293000Y167000D02*Y162500D01*
X288000Y167000D02*Y162500D01*
G54D15*X286500Y171000D02*X296500D01*
X338000Y208000D02*X332500D01*
X339414Y199500D02*X327586D01*
G54D16*X260500Y193500D02*X354500D01*
X359500Y198000D02*X378500D01*
G54D15*X376500Y195000D02*X361000D01*
G54D16*X354500Y193500D02*X359500Y198000D01*
G54D15*X320190Y208500D02*Y203810D01*
X322500Y201500D01*
X326586D01*
X303905Y198819D02*Y193595D01*
X313500Y207500D02*Y202776D01*
X315095Y201181D01*
G54D16*X304905Y193095D02*X305000Y184500D01*
G54D13*X295500D02*X305000D01*
G54D15*X362500Y192500D02*X373500D01*
X362500D02*X355500Y185500D01*
X351500Y186000D02*X361000Y195000D01*
G54D16*X315500Y167000D02*X273000D01*
G54D14*X334500Y164000D02*X351500D01*
G54D15*X252000Y157000D02*X323500D01*
G54D16*X273000Y162500D02*X334500D01*
G54D15*X341000Y160000D02*X335500Y158000D01*
G54D16*X323500Y146500D02*Y133700D01*
X310500Y129500D02*X320500D01*
G54D12*X301000Y140000D02*Y152500D01*
G54D16*X318000Y119500D02*Y128200D01*
G54D14*X296500Y152500D02*Y141500D01*
G54D13*X342000Y154000D02*X347414D01*
G54D15*X325000Y179500D02*X332500Y171500D01*
G54D16*X329500Y168000D02*Y162500D01*
X332000Y116000D02*Y107500D01*
G54D13*X299000Y116000D02*X294650D01*
G54D12*X312000Y108000D02*X318000Y114000D01*
Y119500D01*
G54D16*X324500Y168000D02*Y162500D01*
X320000Y168000D02*Y162500D01*
G54D13*X315500Y174500D02*Y167500D01*
G54D16*Y168000D02*Y162500D01*
G54D13*X295800Y124300D02*X296500Y125000D01*
X293900Y115250D02*X293543Y114893D01*
X291700Y126800D02*X287800D01*
X286457Y114893D02*Y122043D01*
X293900Y124300D02*X295800D01*
X293900Y121700D02*Y115250D01*
X275000Y126900D02*X269536D01*
X275000Y121800D02*X268450D01*
X277200Y124400D02*X281400D01*
G54D12*X261500Y138500D02*Y115500D01*
X260500Y138500D02*Y152500D01*
X266500Y138500D02*Y152500D01*
X273500Y139500D02*Y152500D01*
X280500Y138500D02*Y152500D01*
G54D14*X285500Y141500D02*Y152500D01*
X289000Y141500D02*Y152500D01*
X292500Y141500D02*Y153000D01*
G54D13*X347500Y179500D02*X342500D01*
X326500Y184500D02*X322000D01*
X320500Y179500D02*X325000D01*
X364500D02*X360000D01*
G54D15*X350405Y198319D02*Y193095D01*
G54D16*X347500Y193500D02*Y184500D01*
G54D13*X342500D01*
X355000Y207500D02*X360350D01*
X360957Y208107D01*
G54D15*X355500Y185500D02*Y172000D01*
X351500Y176000D02*Y186000D01*
G54D16*X342000Y116000D02*X373500D01*
G54D12*X332000Y108000D02*X380500D01*
G54D16*X363500Y126000D02*X348200D01*
X342600Y131600D01*
G54D15*X347000Y171500D02*X351500Y176000D01*
G54D14*X348000Y164000D02*Y168000D01*
G54D15*X360500Y160000D02*X371000Y158000D01*
X341000Y160000D02*X360500D01*
G54D13*X354500D02*Y155000D01*
G54D14*X351500Y164000D02*Y168000D01*
G54D15*X355500Y163500D02*X366000Y163000D01*
G54D14*X343000Y168000D02*Y164000D01*
G54D15*X332500Y171500D02*X347000D01*
G54D16*X334500Y162500D02*Y168000D01*
X315500D02*X364500D01*
G54D14*X339000D02*Y164000D01*
G54D12*X323500Y146500D02*X402000D01*
G54D11*G36*
X161000Y130000D02*Y124000D01*
X167000D01*
Y130000D01*
X161000D01*
G37*
G54D18*X164000Y137000D03*
G54D11*G36*
X201500Y172500D02*Y163500D01*
X210500D01*
Y172500D01*
X201500D01*
G37*
G54D19*X206000Y178000D03*
Y188000D03*
G54D20*X181500Y183000D03*
G54D11*G36*
X178900Y215600D02*Y210400D01*
X184100D01*
Y215600D01*
X178900D01*
G37*
G36*
X213500Y123000D02*Y114000D01*
X222500D01*
Y123000D01*
X213500D01*
G37*
G54D19*X218000Y128500D03*
Y138500D03*
G54D11*G36*
X221500Y349500D02*Y343500D01*
X227500D01*
Y349500D01*
X221500D01*
G37*
G36*
X222400Y369100D02*Y363900D01*
X227600D01*
Y369100D01*
X222400D01*
G37*
G54D20*X225000Y396500D03*
G54D18*X224500Y336500D03*
Y326500D03*
G54D21*X97000Y344000D03*
G54D22*Y324300D03*
Y363700D03*
X79300Y344000D03*
G54D11*G36*
X123250Y410750D02*Y404250D01*
X129750D01*
Y410750D01*
X123250D01*
G37*
G54D23*X136500Y407500D03*
G54D11*G36*
X161250Y410750D02*Y404250D01*
X167750D01*
Y410750D01*
X161250D01*
G37*
G54D23*X174500Y407500D03*
G54D11*G36*
X199250Y410750D02*Y404250D01*
X205750D01*
Y410750D01*
X199250D01*
G37*
G54D23*X212500Y407500D03*
G54D24*X318000Y400000D03*
X358000D03*
X378000Y380000D03*
G54D11*G36*
X283000Y299500D02*Y293500D01*
X289000D01*
Y299500D01*
X283000D01*
G37*
G54D24*X298000Y380000D03*
Y320000D03*
G54D25*X426000Y369000D03*
Y359000D03*
Y349000D03*
Y339000D03*
G54D24*X318000Y300000D03*
G54D26*X278000Y350000D03*
G54D27*X407000Y191500D03*
Y181500D03*
Y201500D03*
G54D28*X417100Y191500D03*
Y171500D03*
Y211500D03*
X436100Y171500D03*
Y211500D03*
G54D11*G36*
X380500Y129000D02*Y123000D01*
X386500D01*
Y129000D01*
X380500D01*
G37*
G54D18*X363500Y126000D03*
G54D11*G36*
X339000Y119000D02*Y113000D01*
X345000D01*
Y119000D01*
X339000D01*
G37*
G54D18*X332000Y116000D03*
G54D11*G36*
X260900Y260600D02*Y255400D01*
X266100D01*
Y260600D01*
X260900D01*
G37*
G54D20*X293500Y258000D03*
G54D11*G36*
X307900Y275600D02*Y270400D01*
X313100D01*
Y275600D01*
X307900D01*
G37*
G36*
X290900D02*Y270400D01*
X296100D01*
Y275600D01*
X290900D01*
G37*
G54D20*X263500Y273000D03*
X310500Y258000D03*
G54D11*G36*
X422000Y301500D02*Y295500D01*
X428000D01*
Y301500D01*
X422000D01*
G37*
G54D18*X425000Y308500D03*
Y318500D03*
G54D11*G36*
X412094Y301440D02*Y295440D01*
X418094D01*
Y301440D01*
X412094D01*
G37*
G54D20*X340500Y273000D03*
G54D24*X378000Y320000D03*
X358000Y300000D03*
G54D11*G36*
X337900Y260600D02*Y255400D01*
X343100D01*
Y260600D01*
X337900D01*
G37*
G54D29*X163000Y352500D03*
X144500Y347500D03*
X174000D03*
Y352500D03*
X144500D03*
X115000Y368500D03*
G54D18*X126500Y362000D03*
G54D29*X115000Y362500D03*
X198000Y373500D03*
X201500Y347500D03*
X133500Y383500D03*
X135000Y397500D03*
G54D18*X114000Y411500D03*
G54D29*X153500Y378500D03*
X197500Y366500D03*
X115000Y320000D03*
X128000Y314000D03*
X115000Y324000D03*
X73000Y324500D03*
X79500D03*
X156000Y328500D03*
X136000Y314000D03*
X154500Y304000D03*
X146500Y333000D03*
X131000Y338000D03*
X118500D03*
X131000Y299000D03*
X115500Y302000D03*
G54D18*X85500Y300500D03*
X95500Y297500D03*
G54D29*X127000Y332000D03*
X159500Y337500D03*
X153500Y383500D03*
X150500Y407500D03*
X198000Y383500D03*
X178000Y385500D03*
X198000Y378500D03*
X217500D03*
X285500Y413500D03*
Y400000D03*
Y375000D03*
X271000Y365500D03*
X293000D03*
X303500D03*
X249000Y380500D03*
X237000Y408000D03*
X256000Y406500D03*
Y411500D03*
X249000Y375500D03*
X254000D03*
X271000Y386000D03*
X201000Y329000D03*
X184000Y307500D03*
X201000Y321500D03*
X205000Y304000D03*
X217500Y306500D03*
X224000Y312500D03*
X257500Y297000D03*
X253000Y302000D03*
X273500Y297000D03*
G54D18*X298000Y295500D03*
G54D29*X249000Y327500D03*
Y322500D03*
X254000D03*
X249000Y349000D03*
Y354000D03*
X254000Y349000D03*
X249000Y339000D03*
X201000Y336500D03*
X188500Y120500D03*
X183500Y114500D03*
X188500Y129500D03*
X183500Y134500D03*
X188500D03*
X134500Y114000D03*
X155000Y114500D03*
X160000Y148000D03*
X155000Y134500D03*
Y129500D03*
Y139500D03*
X140000Y148000D03*
X147000Y271500D03*
X151500Y267500D03*
Y262500D03*
X181000Y242500D03*
X161500Y219000D03*
X177000D03*
X169000Y228000D03*
X134500Y215000D03*
X132500Y220000D03*
X132000Y244500D03*
X140000Y215000D03*
X140500Y222000D03*
X151500Y257500D03*
X157000Y250500D03*
X181000Y266000D03*
X156500Y258000D03*
X172000Y252500D03*
X177000Y261000D03*
X103000Y214000D03*
Y210000D03*
X108000Y249500D03*
G54D18*X108500Y269500D03*
Y263000D03*
G54D29*X79000Y287500D03*
Y283000D03*
X88500Y276500D03*
X95500D03*
G54D18*X108500Y284000D03*
G54D29*X161000Y189000D03*
X176000Y179000D03*
X157500Y176000D03*
X165000Y154000D03*
X165500Y148000D03*
X188500Y144500D03*
X181500Y159000D03*
X212000Y251500D03*
X199000Y234000D03*
X147000Y204500D03*
X127000D03*
X266500Y207500D03*
X355000D03*
X217500Y232500D03*
X235500Y224500D03*
X237000Y250000D03*
X254000Y221500D03*
Y250000D03*
X248000D03*
Y221500D03*
X223000Y202000D03*
X377500Y202500D03*
X222500Y226000D03*
X226000Y239500D03*
X87000Y244500D03*
X108000D03*
X90000Y232500D03*
G54D18*X420000Y241500D03*
X426500D03*
G54D29*X217500Y244500D03*
X109000Y232500D03*
X354500Y221500D03*
Y229500D03*
X140000Y271500D03*
X154500Y287500D03*
X132500Y282000D03*
X172000Y257500D03*
X198500Y287500D03*
X211500Y282000D03*
X199000Y261000D03*
X223000Y287500D03*
X199000Y267000D03*
X224500Y272500D03*
X242000Y287000D03*
X248000Y272500D03*
G54D18*X370000Y276500D03*
G54D29*X99000Y166000D03*
X94000Y162000D03*
X99000Y157500D03*
X89500Y153500D03*
X135000Y174000D03*
Y169000D03*
Y164000D03*
X138000Y186500D03*
X140000Y179500D03*
X99000Y189000D03*
X98000Y174000D03*
X117000Y171000D03*
Y179000D03*
Y184000D03*
X114500Y194000D03*
X119500D03*
X117000Y189000D03*
X127500Y154000D03*
Y149000D03*
X78500Y164000D03*
Y159000D03*
Y174000D03*
Y194000D03*
X255500Y115500D03*
Y127500D03*
X261500Y115500D03*
Y127500D03*
X254000Y138500D03*
X260500D03*
X266500D03*
X299000Y116000D03*
X287500Y121000D03*
X280500Y113500D03*
X301000Y122500D03*
X280500Y138500D03*
X301000Y140000D03*
X310500Y138500D03*
X301000Y135000D03*
X274000Y115500D03*
X275000Y133500D03*
X281500Y121000D03*
Y127500D03*
X310000Y123000D03*
G54D18*X318000Y119500D03*
G54D29*X305500Y114000D03*
X375500Y189500D03*
Y184500D03*
X391500Y134500D03*
X392500Y157000D03*
Y162500D03*
X380500Y179500D03*
X360000D03*
X436000Y181500D03*
Y191500D03*
Y201500D03*
X241000Y179500D03*
X248000Y193500D03*
Y180500D03*
Y185000D03*
Y189000D03*
X384000Y168500D03*
X355500Y163500D03*
Y172000D03*
X342000Y154000D03*
X241000Y161500D03*
X232000Y154500D03*
X241500D03*
X236500D03*
X246500D03*
X366000Y163000D03*
X371000Y158000D03*
X279000Y184500D03*
X300500Y179500D03*
X286000Y199500D03*
X300500Y172000D03*
X338000Y208000D03*
X291000D03*
X313500Y207500D03*
X236500Y198500D03*
X267000Y162500D03*
X326000Y184500D03*
X347500Y179500D03*
X333000Y199500D03*
G54D30*X123500Y129500D02*X130000D01*
X144000D02*X150500D01*
X144000Y134500D02*X150500D01*
X123500Y124500D02*X130000D01*
X123500Y119500D02*X130000D01*
X123500Y114500D02*X130000D01*
X144000D02*X150500D01*
X144000Y119500D02*X150500D01*
X144000Y124500D02*X150500D01*
X123500Y144500D02*X130000D01*
X144000D02*X150500D01*
X123500Y139500D02*X130000D01*
X144000D02*X150500D01*
X123500Y134500D02*X130000D01*
X172500Y129500D02*X179000D01*
X172500Y124500D02*X179000D01*
X172500Y119500D02*X179000D01*
X172500Y114500D02*X179000D01*
X172500Y144500D02*X179000D01*
X172500Y139500D02*X179000D01*
X172500Y134500D02*X179000D01*
X193000Y114500D02*X199500D01*
X193000Y119500D02*X199500D01*
X193000Y124500D02*X199500D01*
X193000Y129500D02*X199500D01*
X193000Y134500D02*X199500D01*
X193000Y139500D02*X199500D01*
X193000Y144500D02*X199500D01*
G54D31*X275000Y129500D02*X277200D01*
G54D32*X275000Y126900D02*X277200D01*
X275000Y124400D02*X277200D01*
X275000Y121800D02*X277200D01*
G54D33*X267607Y120957D02*X268393D01*
X267607Y128043D02*X268393D01*
G54D32*X291700Y121700D02*X293900D01*
X291700Y124300D02*X293900D01*
X291700Y126800D02*X293900D01*
X291700Y129400D02*X293900D01*
G54D33*X286457Y136893D02*Y136107D01*
X293543Y136893D02*Y136107D01*
X286457Y114893D02*Y114107D01*
X293543Y114893D02*Y114107D01*
G54D34*X321400Y135400D02*Y131600D01*
X342600Y135400D02*Y131600D01*
G54D33*X254457Y163893D02*Y163107D01*
X261543Y163893D02*Y163107D01*
G54D30*X268500Y174500D02*X275000D01*
X268500Y189500D02*X275000D01*
X268500Y184500D02*X275000D01*
X268500Y179500D02*X275000D01*
X289000Y174500D02*X295500D01*
X289000Y179500D02*X295500D01*
X289000Y184500D02*X295500D01*
X289000Y189500D02*X295500D01*
G54D33*X268095Y201181D02*Y198819D01*
X279905Y201181D02*Y198819D01*
X240607Y193043D02*X241393D01*
X240607Y185957D02*X241393D01*
G54D35*X273190Y210469D02*Y208500D01*
X279100Y226217D02*Y208500D01*
G54D11*G36*
X280569Y218844D02*X283431Y215981D01*
X281068Y213619D01*
X278206Y216482D01*
X280569Y218844D01*
G37*
G36*
X274768Y215981D02*X277630Y218844D01*
X279993Y216482D01*
X277131Y213619D01*
X274768Y215981D01*
G37*
G54D36*X279100Y221493D02*Y220311D01*
G54D11*G36*
X278206Y225323D02*X281068Y228186D01*
X283431Y225824D01*
X280569Y222961D01*
X278206Y225323D01*
G37*
G36*
X277131Y228186D02*X279993Y225323D01*
X277630Y222961D01*
X274768Y225824D01*
X277131Y228186D01*
G37*
G54D35*X285000Y210469D02*Y208500D01*
X326100Y226217D02*Y208500D01*
G54D36*Y221493D02*Y220311D01*
G54D11*G36*
X327569Y218844D02*X330431Y215981D01*
X328068Y213619D01*
X325206Y216482D01*
X327569Y218844D01*
G37*
G36*
X321768Y215981D02*X324630Y218844D01*
X326993Y216482D01*
X324131Y213619D01*
X321768Y215981D01*
G37*
G36*
X325206Y225323D02*X328068Y228186D01*
X330431Y225824D01*
X327569Y222961D01*
X325206Y225323D01*
G37*
G36*
X324131Y228186D02*X326993Y225323D01*
X324630Y222961D01*
X321768Y225824D01*
X324131Y228186D01*
G37*
G54D30*X205500Y352500D02*X212000D01*
X205500Y357500D02*X212000D01*
X258500Y370500D02*X265000D01*
X258500Y375500D02*X265000D01*
X258500Y380500D02*X265000D01*
X238000Y359000D02*X244500D01*
X238000Y354000D02*X244500D01*
X238000Y380500D02*X244500D01*
X238000Y375500D02*X244500D01*
X238000Y370500D02*X244500D01*
X258500Y354000D02*X265000D01*
X258500Y359000D02*X265000D01*
X238000Y317500D02*X244500D01*
X258500D02*X265000D01*
X262000Y292000D02*X268500D01*
G54D33*X229457Y285893D02*Y285107D01*
X236543Y285893D02*Y285107D01*
G54D30*X238000Y332500D02*X244500D01*
X238000Y327500D02*X244500D01*
X238000Y322500D02*X244500D01*
X238000Y349000D02*X244500D01*
X238000Y344000D02*X244500D01*
X258500Y322500D02*X265000D01*
X258500Y327500D02*X265000D01*
X258500Y332500D02*X265000D01*
X258500Y344000D02*X265000D01*
X258500Y349000D02*X265000D01*
G54D34*X380600Y258900D02*Y255100D01*
X359400Y258900D02*Y255100D01*
X403400Y258900D02*Y255100D01*
X424600Y258900D02*Y255100D01*
G54D30*X315500Y189500D02*X322000D01*
X315500Y184500D02*X322000D01*
X315500Y179500D02*X322000D01*
X315500Y174500D02*X322000D01*
G54D33*X335405Y156681D02*Y154319D01*
X323595Y156681D02*Y154319D01*
X347914Y155286D02*Y154500D01*
X355000Y155286D02*Y154500D01*
G54D30*X336000Y174500D02*X342500D01*
X336000Y179500D02*X342500D01*
X336000Y184500D02*X342500D01*
X336000Y189500D02*X342500D01*
G54D33*X292095Y201181D02*Y198819D01*
X303905Y201181D02*Y198819D01*
X315095Y201181D02*Y198819D01*
X326905Y201181D02*Y198819D01*
X339095Y201181D02*Y198819D01*
X350905Y201181D02*Y198819D01*
G54D35*X320190Y210469D02*Y208500D01*
X332000Y210469D02*Y208500D01*
G54D37*X387500Y233600D02*Y222400D01*
X364500Y233600D02*Y222400D01*
G54D33*X385457Y201893D02*Y201107D01*
X392543Y201893D02*Y201107D01*
X360957Y208893D02*Y208107D01*
X368043Y208893D02*Y208107D01*
G54D30*X364500Y189500D02*X371000D01*
X364500Y184500D02*X371000D01*
X385000Y174500D02*X391500D01*
X385000Y179500D02*X391500D01*
X385000Y184500D02*X391500D01*
X385000Y189500D02*X391500D01*
X364500Y179500D02*X371000D01*
X364500Y174500D02*X371000D01*
G54D33*X371457Y167393D02*Y166607D01*
X378543Y167393D02*Y166607D01*
G54D30*X185000Y357500D02*X191500D01*
X185000Y352500D02*X191500D01*
X185000Y347500D02*X191500D01*
X205500Y342500D02*X212000D01*
X205500Y347500D02*X212000D01*
X205500Y316500D02*X212000D01*
X205500Y321500D02*X212000D01*
X205500Y326500D02*X212000D01*
X205500Y331500D02*X212000D01*
X185000Y342500D02*X191500D01*
X185000Y331500D02*X191500D01*
X185000Y326500D02*X191500D01*
G54D33*X177405Y340181D02*Y337819D01*
G54D30*X185000Y321500D02*X191500D01*
X187000Y373500D02*X193500D01*
G54D33*X205607Y374957D02*X206393D01*
X205607Y382043D02*X206393D01*
G54D30*X187000Y378500D02*X193500D01*
X187000Y383500D02*X193500D01*
X187000Y388500D02*X193500D01*
G54D33*X165595Y310681D02*Y308319D01*
Y301681D02*Y299319D01*
Y320181D02*Y317819D01*
Y329681D02*Y327319D01*
Y340181D02*Y337819D01*
X177405Y320181D02*Y317819D01*
Y329681D02*Y327319D01*
G54D30*X185000Y316500D02*X191500D01*
G54D33*X177405Y310681D02*Y308319D01*
Y301681D02*Y299319D01*
G54D38*X186000Y299800D02*Y299200D01*
X193800Y299800D02*Y299200D01*
X189900Y308000D02*Y307400D01*
G54D33*X204319Y309905D02*X206681D01*
X204319Y298095D02*X206681D01*
X223607Y306543D02*X224393D01*
X223607Y299457D02*X224393D01*
G54D30*X241500Y307000D02*X248000D01*
X241500Y302000D02*X248000D01*
X241500Y297000D02*X248000D01*
X241500Y292000D02*X248000D01*
G54D33*X248457Y285893D02*Y285107D01*
X255543Y285893D02*Y285107D01*
G54D30*X262000Y297000D02*X268500D01*
X262000Y302000D02*X268500D01*
X262000Y307000D02*X268500D01*
X151500Y342500D02*X158000D01*
X151500Y347500D02*X158000D01*
X151500Y352500D02*X158000D01*
X151500Y357500D02*X158000D01*
G54D38*X135800Y319800D02*Y319200D01*
X131900Y328000D02*Y327400D01*
G54D33*X142957Y327393D02*Y326607D01*
X150043Y327393D02*Y326607D01*
X143095Y320181D02*Y317819D01*
X154905Y320181D02*Y317819D01*
G54D38*X128000Y319800D02*Y319200D01*
G54D33*X124405Y340681D02*Y338319D01*
Y349681D02*Y347319D01*
G54D30*X120000Y309000D02*X126500D01*
X140500D02*X147000D01*
X120000Y304000D02*X126500D01*
X140500D02*X147000D01*
X120000Y299000D02*X126500D01*
X140500D02*X147000D01*
G54D33*X109543Y299393D02*Y298607D01*
G54D30*X120000Y294000D02*X126500D01*
X140500D02*X147000D01*
G54D33*X126043Y279893D02*Y279107D01*
X118957Y279893D02*Y279107D01*
G54D39*X88600Y285900D02*X96400D01*
G54D33*X85095Y310681D02*Y308319D01*
X96905Y310681D02*Y308319D01*
X102457Y299393D02*Y298607D01*
G54D39*X88600Y267100D02*X96400D01*
G54D30*X166500Y388500D02*X173000D01*
X166500Y383500D02*X173000D01*
X166500Y378500D02*X173000D01*
X166500Y373500D02*X173000D01*
X142500D02*X149000D01*
X142500Y378500D02*X149000D01*
X122000Y383500D02*X128500D01*
X122000Y378500D02*X128500D01*
X122000Y373500D02*X128500D01*
X122000Y388500D02*X128500D01*
X142500Y383500D02*X149000D01*
X142500Y388500D02*X149000D01*
X131000Y357500D02*X137500D01*
X131000Y352500D02*X137500D01*
X131000Y347500D02*X137500D01*
X131000Y342500D02*X137500D01*
G54D33*X112957Y356893D02*Y356107D01*
X120043Y356893D02*Y356107D01*
X112595Y340681D02*Y338319D01*
Y349681D02*Y347319D01*
X112957Y331393D02*Y330607D01*
X120043Y331393D02*Y330607D01*
G54D30*X141000Y252500D02*X147500D01*
X141000Y247500D02*X147500D01*
X141000Y242500D02*X147500D01*
X141000Y237500D02*X147500D01*
X206000D02*X212500D01*
X141000Y232500D02*X147500D01*
X206000D02*X212500D01*
X161500D02*X168000D01*
X161500Y237500D02*X168000D01*
X161500Y242500D02*X168000D01*
X141000Y267500D02*X147500D01*
X141000Y262500D02*X147500D01*
X141000Y257500D02*X147500D01*
X161500Y247500D02*X168000D01*
X161500Y252500D02*X168000D01*
X161500Y257500D02*X168000D01*
X161500Y262500D02*X168000D01*
X185500Y247500D02*X192000D01*
X185500Y242500D02*X192000D01*
X185500Y237500D02*X192000D01*
X185500Y232500D02*X192000D01*
X206000Y242500D02*X212500D01*
X206000Y247500D02*X212500D01*
X206000Y256000D02*X212500D01*
X206000Y261000D02*X212500D01*
X206000Y266000D02*X212500D01*
X206000Y271000D02*X212500D01*
X209500Y219000D02*X216000D01*
X209500Y214000D02*X216000D01*
X209500Y209000D02*X216000D01*
X209500Y204000D02*X216000D01*
X230000D02*X236500D01*
X230000Y209000D02*X236500D01*
X230000Y214000D02*X236500D01*
X230000Y219000D02*X236500D01*
G54D33*X228607Y226457D02*X229393D01*
X228607Y233543D02*X229393D01*
G54D30*X161500Y267500D02*X168000D01*
X185500Y271000D02*X192000D01*
X185500Y266000D02*X192000D01*
X185500Y261000D02*X192000D01*
X185500Y256000D02*X192000D01*
G54D33*X231043Y251393D02*Y250607D01*
X223957Y251393D02*Y250607D01*
G54D30*X94500Y254500D02*X101000D01*
X94500Y249500D02*X101000D01*
X94500Y244500D02*X101000D01*
G54D33*X85819Y250405D02*X88181D01*
G54D30*X115000Y239500D02*X121500D01*
G54D33*X114957Y231393D02*Y230607D01*
X122043Y231393D02*Y230607D01*
X103043Y231393D02*Y230607D01*
X95957Y231393D02*Y230607D01*
G54D30*X115000Y244500D02*X121500D01*
X115000Y249500D02*X121500D01*
X115000Y254500D02*X121500D01*
X144500Y179000D02*X151000D01*
X144500Y174000D02*X151000D01*
X144500Y169000D02*X151000D01*
X144500Y164000D02*X151000D01*
X144500Y194000D02*X151000D01*
X144500Y189000D02*X151000D01*
X144500Y184000D02*X151000D01*
X94500Y239500D02*X101000D01*
G54D33*X85819Y238595D02*X88181D01*
X87457Y211893D02*Y211107D01*
G54D30*X165000Y164000D02*X171500D01*
X165000Y169000D02*X171500D01*
X165000Y174000D02*X171500D01*
X165000Y179000D02*X171500D01*
X165000Y184000D02*X171500D01*
X165000Y189000D02*X171500D01*
X165000Y194000D02*X171500D01*
G54D33*X181819Y164595D02*X184181D01*
X181819Y176405D02*X184181D01*
X94543Y211893D02*Y211107D01*
G54D30*X83000Y194000D02*X89500D01*
X83000Y189000D02*X89500D01*
X103500Y184000D02*X110000D01*
X103500Y189000D02*X110000D01*
X103500Y194000D02*X110000D01*
X103500Y179000D02*X110000D01*
X83000Y174000D02*X89500D01*
X103500D02*X110000D01*
X83000Y169000D02*X89500D01*
X103500D02*X110000D01*
X83000Y164000D02*X89500D01*
X83000Y159000D02*X89500D01*
X83000Y184000D02*X89500D01*
X83000Y179000D02*X89500D01*
X103500Y159000D02*X110000D01*
X103500Y164000D02*X110000D01*
G54D33*X285543Y406893D02*Y406107D01*
X278457Y406893D02*Y406107D01*
G54D30*X265500Y396500D02*X272000D01*
X265500Y401500D02*X272000D01*
X265500Y406500D02*X272000D01*
X265500Y411500D02*X272000D01*
X245000D02*X251500D01*
X245000Y406500D02*X251500D01*
X258500Y385500D02*X265000D01*
X238000D02*X244500D01*
G54D33*X237607Y394957D02*X238393D01*
G54D30*X245000Y401500D02*X251500D01*
X245000Y396500D02*X251500D01*
G54D33*X237607Y402043D02*X238393D01*
G54D40*G54D18*G54D41*G54D42*G54D18*G54D40*G54D41*G54D40*G54D43*G54D44*G54D42*G54D44*G54D45*G54D42*G54D20*G54D40*G54D20*G54D46*G54D47*G54D20*G54D48*G54D49*G54D50*G54D42*G54D51*G54D40*G54D41*G54D40*G54D47*G54D41*G54D20*G54D41*G54D11*G54D17*G54D11*G54D17*G54D11*G54D17*G54D11*G54D17*G54D11*G54D17*G54D11*G54D17*G54D11*G54D17*G54D11*G54D17*G54D11*G54D17*G54D11*G54D52*X87000Y101000D02*X416000D01*
X66000Y413000D02*Y112000D01*
X68500Y109500D02*X78500D01*
X68500Y415500D02*X78500D01*
X424500D02*X443000D01*
X445500Y413000D02*Y112000D01*
X424500Y109500D02*X443000D01*
X394500Y280500D02*X408500D01*
X87000Y424000D02*X416000D01*
X390000Y298500D02*Y285000D01*
X399000Y298500D02*Y294000D01*
X403500Y289500D02*X408500D01*
X335500Y360500D02*Y350500D01*
X349000Y355000D02*X352000D01*
X399000Y350500D02*Y341500D01*
X340000Y346000D02*X352000D01*
X385500Y355000D02*X394500D01*
X344500Y360500D02*Y359500D01*
X84500Y421500D02*G75*G02X87000Y424000I2500J0D01*G01*
X66000Y413000D02*G75*G02X68500Y415500I2500J0D01*G01*
X78500Y109500D02*G75*G02X84500Y103500I0J-6000D01*G01*
Y421500D02*G75*G02X78500Y415500I-6000J0D01*G01*
X68500Y109500D02*G75*G02X66000Y112000I0J2500D01*G01*
X87000Y101000D02*G75*G02X84500Y103500I0J2500D01*G01*
X445500Y112000D02*G75*G02X443000Y109500I-2500J0D01*G01*
X418500Y103500D02*G75*G02X416000Y101000I-2500J0D01*G01*
Y424000D02*G75*G02X418500Y421500I0J-2500D01*G01*
X443000Y415500D02*G75*G02X445500Y413000I0J-2500D01*G01*
X418500Y103500D02*G75*G02X424500Y109500I6000J0D01*G01*
Y415500D02*G75*G02X418500Y421500I0J6000D01*G01*
X408500Y280500D02*G75*G03X413000Y285000I0J4500D01*G01*
G75*G03X408500Y289500I-4500J0D01*G01*
X390000Y285000D02*G75*G03X394500Y280500I4500J0D01*G01*
X390000Y341500D02*G75*G03X394500Y337000I4500J0D01*G01*
G75*G03X399000Y341500I0J4500D01*G01*
Y298500D02*G75*G03X394500Y303000I-4500J0D01*G01*
G75*G03X390000Y298500I0J-4500D01*G01*
X385500Y355000D02*G75*G03X381000Y350500I0J-4500D01*G01*
G75*G03X385500Y346000I4500J0D01*G01*
X399000Y350500D02*G75*G03X394500Y355000I-4500J0D01*G01*
X390000Y341500D02*G75*G03X385500Y346000I-4500J0D01*G01*
X344500Y359500D02*G75*G03X349000Y355000I4500J0D01*G01*
X340000Y365000D02*G75*G03X335500Y360500I0J-4500D01*G01*
X344500D02*G75*G03X340000Y365000I-4500J0D01*G01*
X335500Y350500D02*G75*G03X340000Y346000I4500J0D01*G01*
X352000D02*G75*G03X356500Y350500I0J4500D01*G01*
G75*G03X352000Y355000I-4500J0D01*G01*
X399000Y294000D02*G75*G03X403500Y289500I4500J0D01*G01*
M02*
