G04 start of page 14 for group -4015 idx -4015 *
G04 Title: (unknown), toppaste *
G04 Creator: pcb 20091103 *
G04 CreationDate: Thu Nov 21 17:08:47 2024 UTC *
G04 For: bh *
G04 Format: Gerber/RS-274X *
G04 PCB-Dimensions: 560000 900000 *
G04 PCB-Coordinate-Origin: lower left *
%MOIN*%
%FSLAX25Y25*%
%LNTOPPASTE*%
%ADD11C,0.0200*%
%ADD30R,0.0200X0.0200*%
%ADD31C,0.0160*%
%ADD32R,0.0160X0.0160*%
%ADD33R,0.0512X0.0512*%
%ADD34R,0.1400X0.1400*%
%ADD35R,0.0394X0.0394*%
%ADD36R,0.0866X0.0866*%
%ADD37R,0.1230X0.1230*%
%ADD38R,0.0340X0.0340*%
%ADD39R,0.0970X0.0970*%
%ADD52C,0.0060*%
G54D52*X87000Y92500D02*X416000D01*
X66000Y404500D02*Y103500D01*
X68500Y101000D02*X78500D01*
X68500Y407000D02*X78500D01*
X424500D02*X443000D01*
X445500Y404500D02*Y103500D01*
X424500Y101000D02*X443000D01*
X394500Y272000D02*X408500D01*
X87000Y415500D02*X416000D01*
X390000Y290000D02*Y276500D01*
X399000Y290000D02*Y285500D01*
X403500Y281000D02*X408500D01*
X335500Y352000D02*Y342000D01*
X349000Y346500D02*X352000D01*
X399000Y342000D02*Y333000D01*
X340000Y337500D02*X352000D01*
X385500Y346500D02*X394500D01*
X344500Y352000D02*Y351000D01*
X84500Y413000D02*G75*G02X87000Y415500I2500J0D01*G01*
X66000Y404500D02*G75*G02X68500Y407000I2500J0D01*G01*
X78500Y101000D02*G75*G02X84500Y95000I0J-6000D01*G01*
Y413000D02*G75*G02X78500Y407000I-6000J0D01*G01*
X68500Y101000D02*G75*G02X66000Y103500I0J2500D01*G01*
X87000Y92500D02*G75*G02X84500Y95000I0J2500D01*G01*
X445500Y103500D02*G75*G02X443000Y101000I-2500J0D01*G01*
X418500Y95000D02*G75*G02X416000Y92500I-2500J0D01*G01*
Y415500D02*G75*G02X418500Y413000I0J-2500D01*G01*
Y95000D02*G75*G02X424500Y101000I6000J0D01*G01*
Y407000D02*G75*G02X418500Y413000I0J6000D01*G01*
X443000Y407000D02*G75*G02X445500Y404500I0J-2500D01*G01*
X344500Y352000D02*G75*G03X340000Y356500I-4500J0D01*G01*
X335500Y342000D02*G75*G03X340000Y337500I4500J0D01*G01*
X352000D02*G75*G03X356500Y342000I0J4500D01*G01*
G75*G03X352000Y346500I-4500J0D01*G01*
X344500Y351000D02*G75*G03X349000Y346500I4500J0D01*G01*
X340000Y356500D02*G75*G03X335500Y352000I0J-4500D01*G01*
X390000Y276500D02*G75*G03X394500Y272000I4500J0D01*G01*
X399000Y290000D02*G75*G03X394500Y294500I-4500J0D01*G01*
G75*G03X390000Y290000I0J-4500D01*G01*
X399000Y285500D02*G75*G03X403500Y281000I4500J0D01*G01*
X408500Y272000D02*G75*G03X413000Y276500I0J4500D01*G01*
G75*G03X408500Y281000I-4500J0D01*G01*
X385500Y346500D02*G75*G03X381000Y342000I0J-4500D01*G01*
G75*G03X385500Y337500I4500J0D01*G01*
X399000Y342000D02*G75*G03X394500Y346500I-4500J0D01*G01*
X390000Y333000D02*G75*G03X394500Y328500I4500J0D01*G01*
G75*G03X399000Y333000I0J4500D01*G01*
X390000D02*G75*G03X385500Y337500I-4500J0D01*G01*
G54D33*X240607Y184543D02*X241393D01*
X240607Y177457D02*X241393D01*
X360957Y200393D02*Y199607D01*
X368043Y200393D02*Y199607D01*
X385457Y193393D02*Y192607D01*
X392543Y193393D02*Y192607D01*
X371457Y158893D02*Y158107D01*
X378543Y158893D02*Y158107D01*
G54D37*X387500Y225100D02*Y213900D01*
X364500Y225100D02*Y213900D01*
G54D30*Y181000D02*X371000D01*
X364500Y176000D02*X371000D01*
X364500Y171000D02*X371000D01*
X364500Y166000D02*X371000D01*
X385000D02*X391500D01*
X385000Y171000D02*X391500D01*
X385000Y176000D02*X391500D01*
X385000Y181000D02*X391500D01*
G54D33*X237607Y386457D02*X238393D01*
X237607Y393543D02*X238393D01*
G54D30*X238000Y377000D02*X244500D01*
X238000Y372000D02*X244500D01*
X238000Y367000D02*X244500D01*
X238000Y362000D02*X244500D01*
X258500D02*X265000D01*
X258500Y367000D02*X265000D01*
X258500Y372000D02*X265000D01*
X258500Y377000D02*X265000D01*
G54D34*X321400Y126900D02*Y123100D01*
X342600Y126900D02*Y123100D01*
G54D33*X267607Y112457D02*X268393D01*
X267607Y119543D02*X268393D01*
X286457Y128393D02*Y127607D01*
X293543Y128393D02*Y127607D01*
X286457Y106393D02*Y105607D01*
X293543Y106393D02*Y105607D01*
G54D31*X275000Y121000D02*X277200D01*
G54D32*X275000Y118400D02*X277200D01*
X275000Y115900D02*X277200D01*
X275000Y113300D02*X277200D01*
X291700Y113200D02*X293900D01*
X291700Y115800D02*X293900D01*
X291700Y118300D02*X293900D01*
X291700Y120900D02*X293900D01*
G54D30*X238000Y350500D02*X244500D01*
X238000Y345500D02*X244500D01*
X238000Y340500D02*X244500D01*
X238000Y335500D02*X244500D01*
X258500D02*X265000D01*
X258500Y340500D02*X265000D01*
X258500Y345500D02*X265000D01*
X258500Y350500D02*X265000D01*
X245000Y403000D02*X251500D01*
X245000Y398000D02*X251500D01*
X245000Y393000D02*X251500D01*
X245000Y388000D02*X251500D01*
X265500D02*X272000D01*
X265500Y393000D02*X272000D01*
X265500Y398000D02*X272000D01*
X265500Y403000D02*X272000D01*
G54D33*X285543Y398393D02*Y397607D01*
X278457Y398393D02*Y397607D01*
X229457Y277393D02*Y276607D01*
X236543Y277393D02*Y276607D01*
G54D30*X238000Y324000D02*X244500D01*
X238000Y319000D02*X244500D01*
X238000Y314000D02*X244500D01*
X238000Y309000D02*X244500D01*
X258500D02*X265000D01*
X258500Y314000D02*X265000D01*
X258500Y319000D02*X265000D01*
X258500Y324000D02*X265000D01*
G54D34*X380600Y250400D02*Y246600D01*
X359400Y250400D02*Y246600D01*
G54D33*X339095Y192681D02*Y190319D01*
X350905Y192681D02*Y190319D01*
X315095Y192681D02*Y190319D01*
X326905Y192681D02*Y190319D01*
X292095Y192681D02*Y190319D01*
X303905Y192681D02*Y190319D01*
X268095Y192681D02*Y190319D01*
X279905Y192681D02*Y190319D01*
G54D35*X320190Y201969D02*Y200000D01*
X326100Y217717D02*Y200000D01*
G54D36*Y212993D02*Y211811D01*
G54D11*G36*
X327569Y210344D02*X330431Y207481D01*
X328068Y205119D01*
X325206Y207982D01*
X327569Y210344D01*
G37*
G36*
X321768Y207481D02*X324630Y210344D01*
X326993Y207982D01*
X324131Y205119D01*
X321768Y207481D01*
G37*
G36*
X325206Y216823D02*X328068Y219686D01*
X330431Y217324D01*
X327569Y214461D01*
X325206Y216823D01*
G37*
G36*
X324131Y219686D02*X326993Y216823D01*
X324630Y214461D01*
X321768Y217324D01*
X324131Y219686D01*
G37*
G54D35*X332000Y201969D02*Y200000D01*
X273190Y201969D02*Y200000D01*
X279100Y217717D02*Y200000D01*
G54D36*Y212993D02*Y211811D01*
G54D11*G36*
X280569Y210344D02*X283431Y207481D01*
X281068Y205119D01*
X278206Y207982D01*
X280569Y210344D01*
G37*
G36*
X274768Y207481D02*X277630Y210344D01*
X279993Y207982D01*
X277131Y205119D01*
X274768Y207481D01*
G37*
G36*
X278206Y216823D02*X281068Y219686D01*
X283431Y217324D01*
X280569Y214461D01*
X278206Y216823D01*
G37*
G36*
X277131Y219686D02*X279993Y216823D01*
X277630Y214461D01*
X274768Y217324D01*
X277131Y219686D01*
G37*
G54D35*X285000Y201969D02*Y200000D01*
G54D30*X268500Y181000D02*X275000D01*
X268500Y176000D02*X275000D01*
X268500Y171000D02*X275000D01*
X268500Y166000D02*X275000D01*
X289000D02*X295500D01*
X289000Y171000D02*X295500D01*
X289000Y176000D02*X295500D01*
X289000Y181000D02*X295500D01*
G54D34*X403400Y250400D02*Y246600D01*
X424600Y250400D02*Y246600D01*
G54D33*X347914Y146786D02*Y146000D01*
X355000Y146786D02*Y146000D01*
X335405Y148181D02*Y145819D01*
X323595Y148181D02*Y145819D01*
X228607Y217957D02*X229393D01*
X228607Y225043D02*X229393D01*
X231043Y242893D02*Y242107D01*
X223957Y242893D02*Y242107D01*
X248457Y277393D02*Y276607D01*
X255543Y277393D02*Y276607D01*
G54D30*X241500Y298500D02*X248000D01*
X241500Y293500D02*X248000D01*
X241500Y288500D02*X248000D01*
X241500Y283500D02*X248000D01*
X262000D02*X268500D01*
X262000Y288500D02*X268500D01*
X262000Y293500D02*X268500D01*
X262000Y298500D02*X268500D01*
X209500Y210500D02*X216000D01*
X209500Y205500D02*X216000D01*
X209500Y200500D02*X216000D01*
X209500Y195500D02*X216000D01*
X230000D02*X236500D01*
X230000Y200500D02*X236500D01*
X230000Y205500D02*X236500D01*
X230000Y210500D02*X236500D01*
G54D33*X112957Y322893D02*Y322107D01*
X120043Y322893D02*Y322107D01*
X223607Y298043D02*X224393D01*
X223607Y290957D02*X224393D01*
X126043Y271393D02*Y270607D01*
X118957Y271393D02*Y270607D01*
X102457Y290893D02*Y290107D01*
X109543Y290893D02*Y290107D01*
X112595Y341181D02*Y338819D01*
X124405Y341181D02*Y338819D01*
Y332181D02*Y329819D01*
X112595Y332181D02*Y329819D01*
X254457Y155393D02*Y154607D01*
X261543Y155393D02*Y154607D01*
X205607Y366457D02*X206393D01*
X205607Y373543D02*X206393D01*
G54D30*X122000Y380000D02*X128500D01*
X122000Y375000D02*X128500D01*
X122000Y370000D02*X128500D01*
X122000Y365000D02*X128500D01*
X142500D02*X149000D01*
X142500Y370000D02*X149000D01*
X142500Y375000D02*X149000D01*
X142500Y380000D02*X149000D01*
G54D33*X85095Y302181D02*Y299819D01*
X96905Y302181D02*Y299819D01*
G54D30*X166500Y380000D02*X173000D01*
X166500Y375000D02*X173000D01*
X166500Y370000D02*X173000D01*
X166500Y365000D02*X173000D01*
X187000D02*X193500D01*
X187000Y370000D02*X193500D01*
X187000Y375000D02*X193500D01*
X187000Y380000D02*X193500D01*
G54D33*X112957Y348393D02*Y347607D01*
X120043Y348393D02*Y347607D01*
X204319Y289595D02*X206681D01*
X204319Y301405D02*X206681D01*
G54D38*X186000Y291300D02*Y290700D01*
X193800Y291300D02*Y290700D01*
X189900Y299500D02*Y298900D01*
G54D33*X177405Y293181D02*Y290819D01*
X165595Y293181D02*Y290819D01*
G54D30*X123500Y136000D02*X130000D01*
X123500Y131000D02*X130000D01*
X123500Y126000D02*X130000D01*
X123500Y121000D02*X130000D01*
X123500Y116000D02*X130000D01*
X123500Y111000D02*X130000D01*
X123500Y106000D02*X130000D01*
X144000D02*X150500D01*
X144000Y111000D02*X150500D01*
X144000Y116000D02*X150500D01*
X144000Y121000D02*X150500D01*
X144000Y126000D02*X150500D01*
X144000Y131000D02*X150500D01*
X144000Y136000D02*X150500D01*
X315500Y181000D02*X322000D01*
X315500Y176000D02*X322000D01*
X315500Y171000D02*X322000D01*
X315500Y166000D02*X322000D01*
X336000D02*X342500D01*
X336000Y171000D02*X342500D01*
X336000Y176000D02*X342500D01*
X336000Y181000D02*X342500D01*
G54D33*X181819Y156095D02*X184181D01*
X181819Y167905D02*X184181D01*
G54D30*X83000Y185500D02*X89500D01*
X83000Y180500D02*X89500D01*
X83000Y175500D02*X89500D01*
X83000Y170500D02*X89500D01*
X83000Y165500D02*X89500D01*
X83000Y160500D02*X89500D01*
X83000Y155500D02*X89500D01*
X83000Y150500D02*X89500D01*
X103500D02*X110000D01*
X103500Y155500D02*X110000D01*
X103500Y160500D02*X110000D01*
X103500Y165500D02*X110000D01*
X103500Y170500D02*X110000D01*
X103500Y175500D02*X110000D01*
X103500Y180500D02*X110000D01*
X103500Y185500D02*X110000D01*
X144500D02*X151000D01*
X144500Y180500D02*X151000D01*
X144500Y175500D02*X151000D01*
X144500Y170500D02*X151000D01*
X144500Y165500D02*X151000D01*
X144500Y160500D02*X151000D01*
X144500Y155500D02*X151000D01*
X165000D02*X171500D01*
X165000Y160500D02*X171500D01*
X165000Y165500D02*X171500D01*
X165000Y170500D02*X171500D01*
X165000Y175500D02*X171500D01*
X165000Y180500D02*X171500D01*
X165000Y185500D02*X171500D01*
X131000Y349000D02*X137500D01*
X131000Y344000D02*X137500D01*
X131000Y339000D02*X137500D01*
X131000Y334000D02*X137500D01*
X151500D02*X158000D01*
X151500Y339000D02*X158000D01*
X151500Y344000D02*X158000D01*
X151500Y349000D02*X158000D01*
G54D33*X94543Y203393D02*Y202607D01*
X87457Y203393D02*Y202607D01*
X103043Y222893D02*Y222107D01*
X95957Y222893D02*Y222107D01*
X114957Y222893D02*Y222107D01*
X122043Y222893D02*Y222107D01*
X85819Y230095D02*X88181D01*
X85819Y241905D02*X88181D01*
G54D30*X94500Y246000D02*X101000D01*
X94500Y241000D02*X101000D01*
X94500Y236000D02*X101000D01*
X94500Y231000D02*X101000D01*
X115000D02*X121500D01*
X115000Y236000D02*X121500D01*
X115000Y241000D02*X121500D01*
X115000Y246000D02*X121500D01*
G54D39*X88600Y277400D02*X96400D01*
X88600Y258600D02*X96400D01*
G54D30*X185500Y262500D02*X192000D01*
X185500Y257500D02*X192000D01*
X185500Y252500D02*X192000D01*
X185500Y247500D02*X192000D01*
X206000D02*X212500D01*
X206000Y252500D02*X212500D01*
X206000Y257500D02*X212500D01*
X206000Y262500D02*X212500D01*
X185500Y239000D02*X192000D01*
X185500Y234000D02*X192000D01*
X185500Y229000D02*X192000D01*
X185500Y224000D02*X192000D01*
X206000D02*X212500D01*
X206000Y229000D02*X212500D01*
X206000Y234000D02*X212500D01*
X206000Y239000D02*X212500D01*
X141000Y259000D02*X147500D01*
X141000Y254000D02*X147500D01*
X141000Y249000D02*X147500D01*
X141000Y244000D02*X147500D01*
X141000Y239000D02*X147500D01*
X141000Y234000D02*X147500D01*
X141000Y229000D02*X147500D01*
X141000Y224000D02*X147500D01*
X161500D02*X168000D01*
X161500Y229000D02*X168000D01*
X161500Y234000D02*X168000D01*
X161500Y239000D02*X168000D01*
X161500Y244000D02*X168000D01*
X161500Y249000D02*X168000D01*
X161500Y254000D02*X168000D01*
X161500Y259000D02*X168000D01*
G54D38*X128000Y311300D02*Y310700D01*
X135800Y311300D02*Y310700D01*
X131900Y319500D02*Y318900D01*
G54D30*X172500Y136000D02*X179000D01*
X172500Y131000D02*X179000D01*
X172500Y126000D02*X179000D01*
X172500Y121000D02*X179000D01*
X172500Y116000D02*X179000D01*
X172500Y111000D02*X179000D01*
X172500Y106000D02*X179000D01*
X193000D02*X199500D01*
X193000Y111000D02*X199500D01*
X193000Y116000D02*X199500D01*
X193000Y121000D02*X199500D01*
X193000Y126000D02*X199500D01*
X193000Y131000D02*X199500D01*
X193000Y136000D02*X199500D01*
G54D33*X177405Y331681D02*Y329319D01*
X165595Y331681D02*Y329319D01*
G54D30*X120000Y300500D02*X126500D01*
X120000Y295500D02*X126500D01*
X120000Y290500D02*X126500D01*
X120000Y285500D02*X126500D01*
X140500D02*X147000D01*
X140500Y290500D02*X147000D01*
X140500Y295500D02*X147000D01*
X140500Y300500D02*X147000D01*
X185000Y323000D02*X191500D01*
X185000Y318000D02*X191500D01*
X185000Y313000D02*X191500D01*
X185000Y308000D02*X191500D01*
X205500D02*X212000D01*
X205500Y313000D02*X212000D01*
X205500Y318000D02*X212000D01*
X205500Y323000D02*X212000D01*
G54D33*X165595Y302181D02*Y299819D01*
X177405Y302181D02*Y299819D01*
X165595Y321181D02*Y318819D01*
X177405Y321181D02*Y318819D01*
X165595Y311681D02*Y309319D01*
X177405Y311681D02*Y309319D01*
G54D30*X185000Y349000D02*X191500D01*
X185000Y344000D02*X191500D01*
X185000Y339000D02*X191500D01*
X185000Y334000D02*X191500D01*
X205500D02*X212000D01*
X205500Y339000D02*X212000D01*
X205500Y344000D02*X212000D01*
X205500Y349000D02*X212000D01*
G54D33*X143095Y311681D02*Y309319D01*
X154905Y311681D02*Y309319D01*
X142957Y318893D02*Y318107D01*
X150043Y318893D02*Y318107D01*
M02*
