G04 start of page 13 for group -4014 idx -4014 *
G04 Title: (unknown), bottompaste *
G04 Creator: pcb 20091103 *
G04 CreationDate: Sun Apr 13 13:29:21 2025 UTC *
G04 For: bh *
G04 Format: Gerber/RS-274X *
G04 PCB-Dimensions: 730000 950000 *
G04 PCB-Coordinate-Origin: lower left *
%MOIN*%
%FSLAX25Y25*%
%LNBOTTOMPASTE*%
%ADD30R,0.0200X0.0200*%
%ADD33R,0.0512X0.0512*%
%ADD34R,0.1400X0.1400*%
%ADD38R,0.0340X0.0340*%
%ADD39R,0.0970X0.0970*%
%ADD52C,0.0060*%
%ADD53R,0.0680X0.0680*%
%ADD54R,0.0780X0.0780*%
%ADD55R,0.0490X0.0490*%
G54D52*X194000Y92500D02*X523000D01*
X173000Y404500D02*Y103500D01*
X175500Y101000D02*X185500D01*
X175500Y407000D02*X185500D01*
X531500D02*X550000D01*
X552500Y404500D02*Y103500D01*
X531500Y101000D02*X550000D01*
X501500Y272000D02*X515500D01*
X194000Y415500D02*X523000D01*
X497000Y290000D02*Y276500D01*
X506000Y290000D02*Y285500D01*
X510500Y281000D02*X515500D01*
X442500Y352000D02*Y342000D01*
X456000Y346500D02*X459000D01*
X506000Y342000D02*Y333000D01*
X447000Y337500D02*X459000D01*
X492500Y346500D02*X501500D01*
X451500Y352000D02*Y351000D01*
X191500Y413000D02*G75*G02X194000Y415500I2500J0D01*G01*
X173000Y404500D02*G75*G02X175500Y407000I2500J0D01*G01*
X185500Y101000D02*G75*G02X191500Y95000I0J-6000D01*G01*
Y413000D02*G75*G02X185500Y407000I-6000J0D01*G01*
X175500Y101000D02*G75*G02X173000Y103500I0J2500D01*G01*
X194000Y92500D02*G75*G02X191500Y95000I0J2500D01*G01*
X552500Y103500D02*G75*G02X550000Y101000I-2500J0D01*G01*
X525500Y95000D02*G75*G02X523000Y92500I-2500J0D01*G01*
Y415500D02*G75*G02X525500Y413000I0J-2500D01*G01*
Y95000D02*G75*G02X531500Y101000I6000J0D01*G01*
Y407000D02*G75*G02X525500Y413000I0J6000D01*G01*
X550000Y407000D02*G75*G02X552500Y404500I0J-2500D01*G01*
X451500Y352000D02*G75*G03X447000Y356500I-4500J0D01*G01*
X442500Y342000D02*G75*G03X447000Y337500I4500J0D01*G01*
X459000D02*G75*G03X463500Y342000I0J4500D01*G01*
G75*G03X459000Y346500I-4500J0D01*G01*
X451500Y351000D02*G75*G03X456000Y346500I4500J0D01*G01*
X447000Y356500D02*G75*G03X442500Y352000I0J-4500D01*G01*
X497000Y276500D02*G75*G03X501500Y272000I4500J0D01*G01*
X506000Y290000D02*G75*G03X501500Y294500I-4500J0D01*G01*
G75*G03X497000Y290000I0J-4500D01*G01*
X506000Y285500D02*G75*G03X510500Y281000I4500J0D01*G01*
X515500Y272000D02*G75*G03X520000Y276500I0J4500D01*G01*
G75*G03X515500Y281000I-4500J0D01*G01*
X492500Y346500D02*G75*G03X488000Y342000I0J-4500D01*G01*
G75*G03X492500Y337500I4500J0D01*G01*
X506000Y342000D02*G75*G03X501500Y346500I-4500J0D01*G01*
X497000Y333000D02*G75*G03X501500Y328500I4500J0D01*G01*
G75*G03X506000Y333000I0J4500D01*G01*
X497000D02*G75*G03X492500Y337500I-4500J0D01*G01*
G54D33*X446319Y177595D02*X448681D01*
X446319Y189405D02*X448681D01*
X399319Y159095D02*X401681D01*
X399319Y170905D02*X401681D01*
X481595Y169181D02*Y166819D01*
X493405Y169181D02*Y166819D01*
X476595Y179181D02*Y176819D01*
X488405Y179181D02*Y176819D01*
G54D34*X510400Y250400D02*Y246600D01*
X531600Y250400D02*Y246600D01*
G54D33*X462595Y315681D02*Y313319D01*
X474405Y315681D02*Y313319D01*
X453405Y320181D02*Y317819D01*
X441595Y320181D02*Y317819D01*
X512819Y202095D02*X515181D01*
X512819Y213905D02*X515181D01*
X357095Y402181D02*Y399819D01*
X368905Y402181D02*Y399819D01*
X350819Y379595D02*X353181D01*
X350819Y391405D02*X353181D01*
G54D34*X433400Y126900D02*Y123100D01*
X454600Y126900D02*Y123100D01*
G54D38*X371000Y383800D02*Y383200D01*
X363200Y383800D02*Y383200D01*
X367100Y392000D02*Y391400D01*
G54D33*X385319Y314595D02*X387681D01*
X385319Y326405D02*X387681D01*
G54D38*X370000Y314800D02*Y314200D01*
X377800Y314800D02*Y314200D01*
X373900Y306600D02*Y306000D01*
G54D33*X432405Y311681D02*Y309319D01*
X420595Y311681D02*Y309319D01*
X299905Y392181D02*Y389819D01*
X288095Y392181D02*Y389819D01*
G54D38*X370000Y330800D02*Y330200D01*
X377800Y330800D02*Y330200D01*
X373900Y322600D02*Y322000D01*
G54D33*X350095Y361181D02*Y358819D01*
X361905Y361181D02*Y358819D01*
X368819Y349095D02*X371181D01*
X368819Y360905D02*X371181D01*
G54D53*X427000Y205000D02*Y198000D01*
X452000Y205000D02*Y198000D01*
X380000Y205000D02*Y198000D01*
X405000Y205000D02*Y198000D01*
G54D54*X425700Y371800D02*Y371200D01*
X447300Y371800D02*Y371200D01*
G54D33*X399319Y177595D02*X401681D01*
X399319Y189405D02*X401681D01*
X361905Y307681D02*Y305319D01*
X350095Y307681D02*Y305319D01*
G54D38*X456500Y177300D02*Y176700D01*
X464300Y177300D02*Y176700D01*
X460400Y169100D02*Y168500D01*
G54D33*X427095Y175181D02*Y172819D01*
X438905Y175181D02*Y172819D01*
X427095Y184681D02*Y182319D01*
X438905Y184681D02*Y182319D01*
X393905Y250681D02*Y248319D01*
X382095Y250681D02*Y248319D01*
X393905Y265681D02*Y263319D01*
X382095Y265681D02*Y263319D01*
X479905Y303181D02*Y300819D01*
X468095Y303181D02*Y300819D01*
G54D38*X409500Y177300D02*Y176700D01*
X417300Y177300D02*Y176700D01*
X413400Y169100D02*Y168500D01*
G54D33*X484957Y154393D02*Y153607D01*
X492043Y154393D02*Y153607D01*
X380095Y175181D02*Y172819D01*
X391905Y175181D02*Y172819D01*
X474957Y323893D02*Y323107D01*
X482043Y323893D02*Y323107D01*
X430043Y320393D02*Y319607D01*
X422957Y320393D02*Y319607D01*
G54D55*X436200Y252000D02*X439800D01*
X436200Y262000D02*X439800D01*
G54D33*X380095Y184681D02*Y182319D01*
X391905Y184681D02*Y182319D01*
X399405Y278181D02*Y275819D01*
X387595Y278181D02*Y275819D01*
X435595Y278181D02*Y275819D01*
X447405Y278181D02*Y275819D01*
X366095Y296681D02*Y294319D01*
X377905Y296681D02*Y294319D01*
X424819Y262905D02*X427181D01*
X424819Y251095D02*X427181D01*
X350202Y322638D02*Y320276D01*
X362012Y322638D02*Y320276D01*
X472905Y372681D02*Y370319D01*
X461095Y372681D02*Y370319D01*
X355095Y282181D02*Y279819D01*
X366905Y282181D02*Y279819D01*
X331819Y199595D02*X334181D01*
X331819Y211405D02*X334181D01*
X446319Y159095D02*X448681D01*
X446319Y170905D02*X448681D01*
G54D34*X329600Y180600D02*X333400D01*
X329600Y159400D02*X333400D01*
X344100Y113900D02*X347900D01*
X344100Y135100D02*X347900D01*
G54D33*X350095Y348681D02*Y346319D01*
X361905Y348681D02*Y346319D01*
X315457Y202393D02*Y201607D01*
X322543Y202393D02*Y201607D01*
X331819Y257405D02*X334181D01*
X331819Y245595D02*X334181D01*
X315457Y211393D02*Y210607D01*
X322543Y211393D02*Y210607D01*
G54D39*X195600Y258600D02*X203400D01*
X195600Y277400D02*X203400D01*
G54D33*X228819Y290405D02*X231181D01*
X228819Y278595D02*X231181D01*
X311957Y224893D02*Y224107D01*
X319043Y224893D02*Y224107D01*
X302607Y107457D02*X303393D01*
X302607Y114543D02*X303393D01*
X275607Y183543D02*X276393D01*
X275607Y176457D02*X276393D01*
X330607Y290957D02*X331393D01*
X330607Y298043D02*X331393D01*
X263405Y392181D02*Y389819D01*
X251595Y392181D02*Y389819D01*
Y402181D02*Y399819D01*
X263405Y402181D02*Y399819D01*
X318043Y361893D02*Y361107D01*
X310957Y361893D02*Y361107D01*
G54D34*X487600Y250400D02*Y246600D01*
X466400Y250400D02*Y246600D01*
G54D33*X221595Y391681D02*Y389319D01*
X233405Y391681D02*Y389319D01*
X287095Y371181D02*Y368819D01*
X298905Y371181D02*Y368819D01*
X278905Y378181D02*Y375819D01*
X267095Y378181D02*Y375819D01*
X242595Y368681D02*Y366319D01*
X254405Y368681D02*Y366319D01*
X222595Y368681D02*Y366319D01*
X234405Y368681D02*Y366319D01*
Y378181D02*Y375819D01*
X222595Y378181D02*Y375819D01*
X314319Y321095D02*X316681D01*
X314319Y332905D02*X316681D01*
X305595Y294681D02*Y292319D01*
X317405Y294681D02*Y292319D01*
X310457Y306893D02*Y306107D01*
X317543Y306893D02*Y306107D01*
X247905Y134181D02*Y131819D01*
X236095Y134181D02*Y131819D01*
G54D30*X251500Y185500D02*X258000D01*
X251500Y180500D02*X258000D01*
X251500Y175500D02*X258000D01*
X251500Y170500D02*X258000D01*
X251500Y165500D02*X258000D01*
X251500Y160500D02*X258000D01*
X251500Y155500D02*X258000D01*
X231000D02*X237500D01*
X231000Y160500D02*X237500D01*
X231000Y165500D02*X237500D01*
X231000Y170500D02*X237500D01*
X231000Y175500D02*X237500D01*
X231000Y180500D02*X237500D01*
X231000Y185500D02*X237500D01*
X210500D02*X217000D01*
X210500Y180500D02*X217000D01*
X210500Y175500D02*X217000D01*
X210500Y170500D02*X217000D01*
X210500Y165500D02*X217000D01*
X210500Y160500D02*X217000D01*
X210500Y155500D02*X217000D01*
X210500Y150500D02*X217000D01*
X190000D02*X196500D01*
X190000Y155500D02*X196500D01*
X190000Y160500D02*X196500D01*
X190000Y165500D02*X196500D01*
X190000Y170500D02*X196500D01*
X190000Y175500D02*X196500D01*
X190000Y180500D02*X196500D01*
X190000Y185500D02*X196500D01*
G54D33*X311957Y236393D02*Y235607D01*
X319043Y236393D02*Y235607D01*
X209095Y236181D02*Y233819D01*
X220905Y236181D02*Y233819D01*
X250095Y224681D02*Y222319D01*
X261905Y224681D02*Y222319D01*
X281905Y224681D02*Y222319D01*
X270095Y224681D02*Y222319D01*
Y235681D02*Y233319D01*
X281905Y235681D02*Y233319D01*
X312595Y258181D02*Y255819D01*
X324405Y258181D02*Y255819D01*
X264595Y257681D02*Y255319D01*
X276405Y257681D02*Y255319D01*
X241095Y256181D02*Y253819D01*
X252905Y256181D02*Y253819D01*
Y247181D02*Y244819D01*
X241095Y247181D02*Y244819D01*
X261905Y311681D02*Y309319D01*
X250095Y311681D02*Y309319D01*
G54D38*X281200Y319000D02*X281800D01*
X281200Y311200D02*X281800D01*
X273000Y315100D02*X273600D01*
G54D33*X261905Y235681D02*Y233319D01*
X250095Y235681D02*Y233319D01*
X361905Y334681D02*Y332319D01*
X350095Y334681D02*Y332319D01*
X271107Y111543D02*X271893D01*
X271107Y104457D02*X271893D01*
X257405Y347681D02*Y345319D01*
X245595Y347681D02*Y345319D01*
X289595Y341681D02*Y339319D01*
X301405Y341681D02*Y339319D01*
X236595Y113681D02*Y111319D01*
X248405Y113681D02*Y111319D01*
X289595Y332681D02*Y330319D01*
X301405Y332681D02*Y330319D01*
X245595Y338681D02*Y336319D01*
X257405Y338681D02*Y336319D01*
X301405Y323181D02*Y320819D01*
X289595Y323181D02*Y320819D01*
X301405Y314181D02*Y311819D01*
X289595Y314181D02*Y311819D01*
G54D38*X243000Y311300D02*Y310700D01*
X235200Y311300D02*Y310700D01*
X239100Y319500D02*Y318900D01*
G54D33*X236595Y123681D02*Y121319D01*
X248405Y123681D02*Y121319D01*
M02*
