G04 start of page 3 for group 1 idx 1 *
G04 Title: (unknown), solder *
G04 Creator: pcb 20091103 *
G04 CreationDate: Thu Nov 21 17:08:47 2024 UTC *
G04 For: bh *
G04 Format: Gerber/RS-274X *
G04 PCB-Dimensions: 560000 900000 *
G04 PCB-Coordinate-Origin: lower left *
%MOIN*%
%FSLAX25Y25*%
%LNBOTTOM*%
%ADD11C,0.0200*%
%ADD12C,0.0400*%
%ADD13C,0.0100*%
%ADD14C,0.0180*%
%ADD15C,0.0140*%
%ADD16C,0.0250*%
%ADD17C,0.0350*%
%ADD18C,0.0600*%
%ADD19C,0.0900*%
%ADD20C,0.0520*%
%ADD21C,0.1216*%
%ADD22C,0.1661*%
%ADD23C,0.0650*%
%ADD24C,0.0880*%
%ADD25C,0.0800*%
%ADD26C,0.1060*%
%ADD27C,0.0868*%
%ADD28C,0.0905*%
%ADD29C,0.0360*%
%ADD30R,0.0200X0.0200*%
%ADD33R,0.0512X0.0512*%
%ADD34R,0.1400X0.1400*%
%ADD38R,0.0340X0.0340*%
%ADD39R,0.0970X0.0970*%
%ADD40C,0.0380*%
%ADD41C,0.0220*%
%ADD42C,0.1299*%
%ADD43C,0.0672*%
%ADD44C,0.1027*%
%ADD45C,0.0430*%
%ADD46C,0.0408*%
%ADD47C,0.0709*%
%ADD48C,0.0620*%
%ADD49C,0.0418*%
%ADD50C,0.0455*%
%ADD51C,0.0300*%
%ADD52C,0.0060*%
%ADD53R,0.0680X0.0680*%
%ADD54R,0.0780X0.0780*%
%ADD55R,0.0490X0.0490*%
G54D11*G36*
X118500Y326500D02*X115000D01*
Y332000D01*
X121500D01*
Y329500D01*
X118500Y326500D01*
G37*
G36*
X279500Y121000D02*X282500D01*
X289500Y114000D01*
Y97500D01*
X279500D01*
Y121000D01*
G37*
G36*
X303000Y110000D02*X301500Y111500D01*
X299000D01*
Y134000D01*
X312500D01*
Y99500D01*
X303000D01*
Y110000D01*
G37*
G54D12*X161000Y284500D02*X237000D01*
X198500Y279000D02*X223000D01*
X161500D02*X186500D01*
G54D16*X231500Y278500D02*X231000Y278000D01*
G54D13*X210405Y292319D02*Y284595D01*
X205000Y295500D02*Y300724D01*
X204319Y301405D01*
Y305245D01*
X205000Y295500D02*X199414D01*
X199000Y310000D02*X201000Y313000D01*
X210543Y306107D02*X217393D01*
X223000Y284500D02*Y290350D01*
X217500Y298000D02*X224350D01*
G54D16*X190000Y303500D02*Y284000D01*
X161000Y284500D02*Y303500D01*
G54D13*X195095Y259181D02*Y248405D01*
X199000Y252500D02*X204000Y250500D01*
X172000Y244000D02*X177000D01*
X196000Y262000D02*X195095Y259181D01*
X199500Y264000D02*X196000Y262000D01*
X199500Y264000D02*X208500D01*
X199000Y258500D02*X205276D01*
G54D12*X192000Y273500D02*Y268000D01*
X198000Y273500D02*Y268000D01*
G54D13*X172000Y249000D02*X171000Y258000D01*
G54D12*X224500Y273500D02*Y264000D01*
G54D13*X208500D02*X211500Y273500D01*
G54D12*X217500D02*Y264000D01*
G54D13*X204000Y250500D02*X212086D01*
X217405Y255819D01*
X224819Y257405D02*X218181D01*
X210000Y247000D02*X216500D01*
G54D14*X221500Y251000D01*
G54D12*X237000Y257500D02*X248000D01*
Y273500D02*X217500D01*
Y264000D02*X248000D01*
G54D16*X217500Y268500D02*X248000D01*
X240000Y273500D02*X229500D01*
G54D13*X196724Y316500D02*X194405Y314181D01*
X196724Y316500D02*X203500D01*
X197000Y349000D02*X201500Y344500D01*
Y338500D01*
X201000Y320500D02*X206724D01*
X204500Y315500D02*Y307150D01*
X198000Y307000D02*X199000Y308000D01*
X203500Y316500D02*X204500Y315500D01*
X199000Y308000D02*Y310000D01*
X194405Y339319D02*Y323181D01*
X194724Y333000D02*X194405Y332681D01*
X207224Y333000D02*X194724D01*
G54D12*X231000Y336500D02*X237000D01*
X231000Y264000D02*Y408500D01*
Y358000D02*X237000D01*
X231000Y391500D02*X237000D01*
Y327500D02*X231500D01*
X231000Y320000D02*X237000D01*
X231500Y327500D02*X231000Y327000D01*
X204000Y268000D02*Y273500D01*
G54D13*X201000Y328000D02*X224500D01*
G54D12*X237000Y364500D02*X217500D01*
X223500Y370500D02*X237000D01*
X217500Y351500D02*X237000D01*
G54D16*X223000Y382000D02*X237500D01*
X223000Y394000D02*X231500D01*
G54D12*X223500D02*Y408500D01*
X217500Y364500D02*Y346000D01*
X237000Y221000D02*Y408500D01*
G54D14*X214000Y366500D02*X201500D01*
X214000D02*X217500Y364500D01*
G54D13*X211000Y354500D02*Y366500D01*
G54D16*X201500Y384500D02*X213000Y370000D01*
X217500D01*
G54D12*X223500Y376500D02*X237000D01*
X223500Y364500D02*Y382000D01*
G54D14*X249000Y356000D02*Y367000D01*
G54D15*X243095Y369095D02*X249000Y372000D01*
X250914Y398000D02*X250095Y398819D01*
G54D12*X243500Y399500D02*Y408500D01*
X223500Y399500D02*X243500D01*
G54D15*X243095Y361181D02*Y369095D01*
G54D13*X201500Y339000D02*X223500D01*
G54D12*X202000Y354500D02*X217500D01*
G54D13*X223500Y339000D02*X224500Y338000D01*
G54D12*X217500Y346000D02*X237000D01*
G54D14*X249000Y330500D02*Y340500D01*
G54D15*X243095Y334681D02*Y346319D01*
X249000Y325000D02*X251500Y327500D01*
G54D14*X236500D02*X247000D01*
X249000Y330500D01*
G54D15*X244478Y319000D02*X243202Y320276D01*
X249000Y319000D02*X244478D01*
X243095Y307681D02*Y320169D01*
X243202Y320276D01*
X249000Y325000D02*Y319000D01*
G54D13*Y345500D02*X243914D01*
X243095Y346319D01*
G54D15*X249000Y351500D02*X251500Y354000D01*
G54D14*X237500Y353500D02*X246500D01*
X249000Y356000D01*
G54D15*Y351500D02*Y345500D01*
G54D12*X118000Y408500D02*X285500D01*
G54D15*X144595Y402181D02*Y408405D01*
X119500Y402000D02*X122000Y404500D01*
G54D12*X118000Y408500D02*X114000Y403000D01*
G54D15*X122000Y404500D02*X132000D01*
X256000Y403000D02*X261086D01*
X150500Y399000D02*X155586D01*
X256000Y398000D02*X250914D01*
X202500Y399000D02*X193000Y393000D01*
X256000Y398000D02*Y392000D01*
X244500D01*
G54D13*X256000D02*X260100D01*
G54D12*X285500Y391500D02*X277500D01*
G54D15*X137819Y392181D02*X126000Y397500D01*
X132000Y404500D02*X136500Y399000D01*
X119500Y396500D02*Y402000D01*
G54D13*X135000Y389000D02*X125724D01*
G54D15*X114595Y391681D02*X114681D01*
X167181D02*X156905D01*
X167181D02*X174500Y399000D01*
X144595Y392181D02*X137819D01*
G54D13*X197500Y358000D02*X205000Y359500D01*
G54D12*X169000Y354500D02*Y360000D01*
X135500Y354500D02*X193000D01*
X135500D02*Y360000D01*
X192500Y354500D02*Y360000D01*
X185500Y355000D02*Y360000D01*
G54D13*X178000Y345000D02*X179500Y346500D01*
X189086D02*X179500D01*
X179000Y349000D02*X197000D01*
X189086Y346500D02*X193905Y341681D01*
G54D16*X191000Y353500D02*X204000D01*
G54D13*X144500Y344000D02*X139914D01*
G54D16*X120500Y343500D02*X115000D01*
G54D13*X303500Y357000D02*X318700Y371200D01*
G54D15*X298000Y357500D02*X294500Y361000D01*
X298000Y353500D02*Y357500D01*
X254000Y340500D02*Y345414D01*
X254905Y346319D01*
X267000Y340000D02*X269000Y347000D01*
X254000Y340500D02*X263000D01*
X269000Y353000D02*Y347000D01*
X268000Y354000D02*X269000Y353000D01*
G54D13*X260905Y379595D02*X264000Y383200D01*
G54D15*X251500Y354000D02*X268000D01*
X246181Y379595D02*X260905D01*
G54D12*X277500Y379500D02*X285500D01*
G54D15*X294500Y361000D02*X264276D01*
X271000Y377500D02*Y361000D01*
X254000Y362086D02*Y379500D01*
G54D16*X271000Y357000D02*X293000D01*
G54D12*X277500Y366500D02*X285500D01*
G54D16*X278000Y357000D02*Y341500D01*
G54D12*X285500Y408500D02*Y366500D01*
X277500Y408500D02*Y366500D01*
G54D16*X170819Y332681D02*X169000Y334500D01*
G54D13*X182595Y332681D02*Y339319D01*
X174000Y339000D02*X178000Y343000D01*
X182595Y332681D02*X170819D01*
G54D16*X149000Y313500D02*X151500Y322000D01*
G54D13*X166000Y315100D02*Y322500D01*
X176619Y320819D02*X174800Y319000D01*
Y311200D02*X181976D01*
X182595Y320819D02*X176619D01*
G54D16*X151500Y322000D02*X155500Y331000D01*
X163000Y344000D01*
G54D13*X144500Y339000D02*X149224D01*
X166000Y322500D02*X159500Y329000D01*
G54D16*X120500Y360000D02*Y331500D01*
G54D13*X128224Y375000D02*X127405Y375819D01*
Y368681D01*
G54D16*X120000Y321000D02*X125500Y329500D01*
G54D12*X109500Y381500D02*Y309000D01*
G54D15*X114681Y391681D02*X119500Y396500D01*
G54D16*X109500Y381500D02*X112500Y384500D01*
G54D13*X116500Y360000D02*Y365414D01*
G54D12*X115000Y305000D02*Y360000D01*
X126500Y353500D02*Y329500D01*
X131000D02*X126000D01*
G54D16*X120500Y354000D02*X115000D01*
X120500Y348500D02*X114500D01*
X120500Y337500D02*X115000D01*
G54D15*X153500Y375000D02*Y384500D01*
G54D16*X112500D02*X201500D01*
G54D15*X115595Y378181D02*Y384405D01*
X160095Y378181D02*Y384595D01*
G54D13*X133500Y375000D02*X128224D01*
X171905Y375819D02*Y368681D01*
X178000Y377000D02*Y370776D01*
X180095Y368681D01*
X198000Y370000D02*X193224D01*
G54D16*X198000Y365000D02*X192500Y360000D01*
G54D14*X201500Y366500D02*X198000Y365000D01*
G54D13*X178000Y377000D02*X172724D01*
Y375000D02*X171905Y375819D01*
G54D15*X198000Y375000D02*Y384500D01*
X181190Y390638D02*Y384914D01*
G54D12*X192500Y360000D02*X115000D01*
G54D13*X133500Y370776D02*X135595Y368681D01*
X133500Y375000D02*Y370776D01*
G54D16*X169000Y334500D02*Y355000D01*
G54D13*X138595Y345319D02*Y338681D01*
X153500Y370000D02*X148724D01*
X150405Y347681D02*Y354905D01*
G54D12*X150500Y354500D02*Y360000D01*
X159500Y354500D02*Y360000D01*
X143000Y354500D02*Y359500D01*
X144000D02*X143500Y360000D01*
G54D13*X178000Y343000D02*Y345000D01*
X174000Y344000D02*X179000Y349000D01*
G54D12*X177500Y355000D02*Y360000D01*
X79300Y335700D02*Y315800D01*
X97000Y355400D02*X79400Y335600D01*
G54D13*X161000Y303500D02*X154905Y309319D01*
X141500Y302000D02*X144000Y304500D01*
Y308414D01*
G54D16*X149000Y305000D02*X154500Y295500D01*
G54D13*X131900Y318900D02*X142950D01*
X142957Y318893D02*X146500Y324500D01*
G54D15*X127000Y323500D02*X124000Y320500D01*
G54D13*X166600Y315100D02*Y310400D01*
X170000Y307000D01*
G54D16*X149000Y305000D02*Y313500D01*
G54D13*X136000Y310500D02*X135800Y310700D01*
X136000Y305500D02*Y310500D01*
X128000Y305500D02*Y310700D01*
G54D15*X124000Y320500D02*Y290500D01*
G54D16*X120000Y321000D02*Y301000D01*
G54D14*X151500Y249000D02*X147724D01*
G54D13*X156500Y249500D02*Y254224D01*
X147724Y249000D02*X145905Y247181D01*
G54D16*X160000Y249500D02*X156500D01*
G54D13*X151500Y254000D02*X146000D01*
G54D12*X161000Y284500D02*Y268000D01*
X167500Y284500D02*Y268000D01*
X180000Y284500D02*Y268000D01*
X174000Y284500D02*Y268000D01*
G54D16*X154500Y273500D02*Y268000D01*
X161000Y303500D02*X193000D01*
G54D13*X204319Y305245D02*X203457Y306107D01*
X128000Y305500D02*X131500Y302000D01*
X141500D01*
X170000Y307000D02*X198000D01*
G54D12*X109500Y309000D02*X103000Y302500D01*
G54D13*X131000Y290500D02*X124276D01*
X124181Y290405D01*
G54D16*X120000Y301000D02*X115500Y293500D01*
G54D12*X109500Y295500D02*X109586Y284500D01*
X103000Y302500D02*X85500Y292000D01*
G54D16*X79000Y274500D02*X85700D01*
X103500Y284500D02*X96400Y277400D01*
G54D12*X109500Y295500D02*X103500D01*
G54D16*X132500Y284500D02*X115000D01*
G54D12*X103500D01*
X115000Y305000D02*X109500Y295500D01*
X154500D02*Y279000D01*
G54D15*X134000Y267500D02*Y244914D01*
G54D12*X127000Y263000D02*X147000D01*
G54D15*X121500Y278500D02*Y254500D01*
G54D12*X108500Y275500D02*Y254500D01*
X147000Y263000D02*Y284500D01*
X132500D02*Y268000D01*
X140000Y284500D02*Y263000D01*
X132500Y279000D02*X147000D01*
X132500Y284500D02*X147000D01*
G54D16*X95500Y268000D02*Y259500D01*
X88500Y268000D02*Y258700D01*
G54D13*X173000Y263500D02*X177000Y259500D01*
X181000Y257500D02*Y247500D01*
G54D12*X204000Y273500D02*X132500D01*
X127000Y268000D02*X204000D01*
G54D13*X151500Y259000D02*X154500Y263500D01*
X173000D01*
G54D14*X221500Y251000D02*X234000D01*
G54D12*X248000D02*X234000D01*
G54D14*X248000Y264000D02*X252500D01*
X248000Y251000D02*X252500D01*
X248500Y257500D02*X252500D01*
G54D12*X237000Y241500D02*X254000D01*
G54D15*X263500Y249500D02*Y264500D01*
X270000Y255000D02*X274000Y263500D01*
X275095Y265681D02*X274819D01*
X293500Y249500D02*X288086D01*
X293500Y264500D02*X288086D01*
X270000Y248500D02*Y255000D01*
X310500Y264500D02*X316224D01*
X260500Y244500D02*X267000D01*
X260500D02*X258000Y247500D01*
X269000Y242000D02*X259500D01*
X255500Y246500D01*
X267000Y244500D02*X270000Y248500D01*
X269000Y242000D02*X275095Y248319D01*
X274500Y306500D02*X267400D01*
X273500Y288500D02*X272500Y297000D01*
X261267Y303819D02*X270905Y296681D01*
X263500Y264500D02*X274500Y275500D01*
G54D14*X249000Y302500D02*X243500Y297000D01*
G54D15*X253000Y277000D02*Y293500D01*
X258276D01*
G54D12*X243000Y297000D02*Y290500D01*
G54D14*X248000Y268500D02*X252500D01*
G54D13*X263000Y307500D02*X266000D01*
X266900Y306600D01*
G54D15*X253905Y303819D02*X261267D01*
X258000Y247500D02*Y279500D01*
X255500Y246500D02*Y269500D01*
X253000Y277000D01*
G54D14*X252500Y268500D02*Y241500D01*
G54D12*X231000Y297000D02*X243000D01*
X231000Y290500D02*X243000D01*
G54D15*X298000Y287000D02*X292405Y275819D01*
X257500Y288500D02*X258000Y281000D01*
X247095Y282181D02*X237681D01*
X274500Y275500D02*X280276D01*
X280595Y275819D01*
X274500Y306500D02*X284000Y288000D01*
G54D12*X298000Y287000D02*Y301500D01*
X217500Y311000D02*Y304000D01*
X224000D02*Y311000D01*
X237000Y304000D02*X217500D01*
Y311000D02*X237000D01*
G54D14*X249000Y314000D02*Y302500D01*
G54D15*X254000Y314000D02*Y319264D01*
X255012Y320276D01*
X254000Y314000D02*X258500D01*
X263000Y321500D02*Y320000D01*
G54D13*Y314800D01*
G54D15*X258500Y314000D02*X261000Y307500D01*
X263000D01*
X251500Y327500D02*X259500D01*
X263000Y321500D01*
G54D13*Y335500D02*Y330200D01*
X266900Y322600D02*Y327900D01*
G54D15*X267000Y340000D01*
X263000Y335500D02*Y347914D01*
X274500Y306500D02*X278319Y314595D01*
X281500Y326500D02*X298000Y353500D01*
G54D16*Y301500D02*Y311500D01*
G54D13*X315095Y311681D02*Y319905D01*
G54D16*X298000Y311500D02*X306000D01*
G54D13*X313414D01*
X313595Y311681D01*
X155000Y106000D02*X162850D01*
X164893Y103957D01*
G54D12*X115500Y105500D02*X134500D01*
G54D13*X147500Y107000D02*X153500Y110500D01*
X163936D01*
G54D16*X156000Y99000D02*X172500D01*
G54D13*X195500Y99500D02*Y106564D01*
G54D12*X115500Y99500D02*X156500D01*
X134500Y105500D02*Y99500D01*
X128000D02*Y105500D01*
G54D13*X115500Y166500D02*X119000D01*
G54D12*X79000Y230000D02*X73000D01*
G54D13*X101914Y236000D02*X102095Y236181D01*
X108000Y236000D02*X113724D01*
X87000D02*X101914D01*
G54D12*X90000Y224000D02*Y218000D01*
X73000D02*X127000D01*
Y224000D02*X73000D01*
X79000Y207500D02*X127000D01*
G54D16*X72500Y212500D02*X126500D01*
G54D12*X73000Y208000D02*X79000D01*
G54D13*X89500Y185500D02*X103500D01*
G54D12*X127000Y196000D02*X75500D01*
X73000Y190500D02*X127000D01*
G54D13*X78500Y185500D02*X83000D01*
G54D12*X79000Y201500D02*X127000D01*
G54D13*X89500Y180500D02*X93000D01*
X94000Y179500D01*
Y160500D01*
X103500Y175500D02*X101000D01*
X113500Y172000D02*Y168500D01*
X101000Y175500D02*X98000Y173500D01*
X117000Y175500D02*X113500Y172000D01*
X98000Y173500D02*Y162000D01*
X106000Y160500D01*
X104000Y170500D02*X98000D01*
X99000Y153500D02*X105000Y155500D01*
X98000Y165500D02*X103500D01*
X99000Y180500D02*X103500D01*
G54D12*X103000Y224000D02*Y190500D01*
X90000Y218500D02*Y190500D01*
G54D16*X84500D02*Y224000D01*
X96500Y190000D02*Y224000D01*
G54D12*X114850D02*X115000Y190500D01*
X109000Y224000D02*Y190500D01*
G54D15*X121500Y254500D02*X108000Y241000D01*
G54D13*X94000Y160500D02*X99000Y157500D01*
X78500Y165500D02*X73000D01*
X83000Y155500D02*X78500D01*
G54D16*X83500Y144000D02*Y138500D01*
X78500Y150500D02*Y138500D01*
G54D12*X73000Y144000D02*X122000D01*
X73000Y138500D02*X122000D01*
X109500Y144000D02*Y138500D01*
X103500Y144000D02*Y138500D01*
X89500D02*Y144000D01*
X96500D02*Y138500D01*
G54D13*X94000Y153500D02*X99000D01*
X88500Y150500D02*X92500Y149000D01*
X99000D01*
X103500Y150500D02*Y144000D01*
G54D16*X73000Y150500D02*X78500D01*
G54D12*X79000Y190500D02*Y316000D01*
X73000Y138500D02*Y316000D01*
Y236000D02*X79000D01*
X73000Y242000D02*X79000D01*
X73000Y248000D02*X79000D01*
X73000Y254000D02*X79000D01*
X73000Y260000D02*X79000D01*
X73000Y266000D02*X79000D01*
X73000Y272000D02*X79000D01*
X73000Y202000D02*X79000D01*
G54D16*X104000Y290000D02*X109500D01*
G54D12*X103500Y295500D02*Y284500D01*
X73000Y316000D02*X97000D01*
X73000Y310000D02*X79000D01*
Y279000D02*X73000D01*
Y304000D02*X78500D01*
X73000D02*X79000D01*
X73000Y298000D02*X79000D01*
X73000Y292000D02*X79000D01*
X73000Y286000D02*X79000D01*
G54D16*X78500Y279000D02*X86000D01*
G54D13*X144500Y165500D02*X140000D01*
Y160500D01*
X135000D02*X144500D01*
X141000D01*
X144500Y155500D02*Y150000D01*
X134000Y170500D02*X130500D01*
X124000D02*X116500D01*
X135000Y165500D02*X130500D01*
X124000Y160500D02*X121500D01*
X121000Y161000D01*
Y164500D02*Y161000D01*
X135000Y155500D02*X130500D01*
X117000Y157500D02*X119000Y155500D01*
X124000D01*
X117000Y157500D02*Y162500D01*
X110000Y150500D02*X115500D01*
X119500Y185500D02*X124000D01*
X110000Y180500D02*X117000D01*
X113500Y168500D02*X115500Y166500D01*
X134000Y183500D02*X134500Y184000D01*
X138000Y168000D02*X134000Y170500D01*
X134500Y184000D02*Y206500D01*
X130000Y175500D02*X136500Y181500D01*
X130500Y180500D02*X134000Y183500D01*
X140000Y186500D02*Y206500D01*
Y165500D02*X138000Y168000D01*
Y178000D02*X140000Y171000D01*
X144500Y185500D02*X141000D01*
X140000Y186500D01*
X151000Y175500D02*Y170500D01*
X136500Y181500D02*X140500D01*
X151000Y180500D01*
G54D16*X140500Y213500D02*X150500Y210500D01*
G54D13*X138000Y210000D02*X136500Y211500D01*
X143095Y222319D02*X143181D01*
X148000Y217500D01*
X140000Y217000D02*X145000D01*
X147000Y215000D01*
X142000Y210000D02*X146000Y206000D01*
X143095Y233319D02*Y233095D01*
X138500Y228500D01*
Y218500D01*
X140000Y217000D01*
G54D12*X127000Y190500D02*Y268000D01*
X121000Y224000D02*Y190500D01*
G54D13*X138000Y210000D02*X142000D01*
G54D12*X132500Y211500D02*X127000D01*
G54D13*X136500D02*Y216000D01*
X135000Y217500D01*
Y228000D01*
X132000Y236000D01*
X129595Y113681D02*Y131319D01*
X129095Y131819D01*
G54D16*X126500Y212500D02*X127000Y212000D01*
G54D13*X128000Y140500D02*X131000D01*
X136000Y143000D01*
X119000Y166500D02*X121000Y164500D01*
X140905Y131819D02*X146181D01*
X155000Y126000D01*
X141405Y121319D02*X147181D01*
X155000Y121000D01*
X141405Y113681D02*X155181D01*
X155000Y113500D02*X159500Y117000D01*
X163000D01*
X155000Y121000D02*X164000Y128500D01*
X155000Y131000D02*X162500Y133500D01*
G54D15*X163000Y136000D02*X160000Y139500D01*
G54D12*X115500Y150500D02*X206000D01*
G54D13*X127500Y145500D02*X165000D01*
X136000Y143000D02*X161500D01*
G54D16*X140000Y139500D02*X160000D01*
G54D15*X163000Y136000D02*X188500D01*
G54D12*X171500Y141500D02*X206000D01*
G54D13*X161500Y143000D02*X165500Y139500D01*
G54D12*X181500Y150500D02*Y141500D01*
X171500D02*Y150500D01*
G54D16*X183500Y126000D02*Y99500D01*
G54D13*X162500Y133500D02*X178000D01*
X186500Y129500D01*
X188500Y126000D01*
G54D16*Y136000D02*X195500Y131000D01*
Y122000D01*
X194500Y121000D01*
X188500D01*
G54D13*X194500D02*Y115650D01*
G54D16*X188500Y121000D02*Y112000D01*
G54D12*X218000Y120000D02*X206000D01*
Y159500D02*Y99500D01*
X188000Y210500D02*Y190500D01*
X193500Y235500D02*Y141500D01*
X200500Y190500D02*Y217500D01*
X188000Y203500D02*X200500D01*
X171000Y196000D02*Y190500D01*
X170000Y150500D02*Y167500D01*
G54D16*X176000Y170500D02*Y191000D01*
G54D12*X170000Y167500D02*X176000Y170500D01*
G54D16*X157500Y167500D02*X162500Y172500D01*
G54D13*X200500Y201500D02*X208350D01*
X138500Y107000D02*X147500D01*
X138500D02*X135000Y110500D01*
X130414D01*
G54D12*X115500Y99500D02*Y150500D01*
X122000Y99500D02*Y150500D01*
X115500Y111500D02*X122000D01*
X115500Y117500D02*X122000D01*
X115500Y123500D02*X122000D01*
X115500Y129500D02*X122000D01*
G54D13*X223000Y193500D02*Y198776D01*
X215000Y200500D02*X225000D01*
X224819Y211405D02*X215555D01*
X215543Y211393D01*
G54D16*X206000Y169500D02*X227900Y163400D01*
X206000Y179500D02*X220500D01*
G54D12*X222500Y217500D02*X226000Y221000D01*
G54D13*X235500Y216000D02*X231776D01*
X227181Y211405D01*
G54D12*X254000Y241500D02*Y130000D01*
G54D15*X241000Y153000D02*Y171000D01*
G54D16*X236500Y190000D02*X243500D01*
G54D13*X227500Y189500D02*X236500Y190000D01*
X208457Y202393D02*Y217457D01*
X218000Y189500D02*X227500D01*
X218000D02*X211500Y190500D01*
G54D12*X147000D02*X212000D01*
G54D13*X161000Y180500D02*X151000D01*
X162500Y172500D02*X168500Y175000D01*
X169107Y184043D02*Y189893D01*
G54D12*X147000Y196000D02*X200500D01*
X181500D02*Y190500D01*
G54D13*X157000Y242000D02*X160000D01*
X154905Y224681D02*Y233319D01*
X163095D01*
X163500Y217500D02*X167500Y215500D01*
G54D16*X169000Y219500D02*Y240500D01*
G54D13*X163095Y224681D02*X169181D01*
X180000Y219000D02*X181000Y234000D01*
G54D16*X176000Y190500D02*Y196000D01*
G54D13*X167000Y213000D02*X171000D01*
G54D16*X159000Y210000D02*X179000D01*
G54D12*X177000Y210500D02*X200500D01*
G54D13*X179500Y215000D02*X182500Y218000D01*
X178500Y217500D02*X180000Y219000D01*
X179500Y215000D02*X176500D01*
X178500Y217500D02*X174000D01*
X167500Y215500D02*X170500D01*
X176500Y215000D02*X171000Y213000D01*
X174000Y217500D02*X170500Y215500D01*
X171000Y206000D02*X174500Y204500D01*
X181500D02*X174500D01*
X185000Y230500D02*X182500Y218000D01*
X147000Y215000D02*X163000D01*
X148000Y217500D02*X163500D01*
G54D12*X161500Y210500D02*X150500D01*
G54D13*X163000Y215000D02*X167000Y213000D01*
G54D12*X147000Y201500D02*X165000D01*
X147000D02*Y190500D01*
X153000D02*Y201500D01*
X165000D02*Y190500D01*
X159000Y201500D02*Y190500D01*
G54D13*X171000Y206000D02*X146000D01*
X199000Y238000D02*Y225500D01*
G54D12*X222500Y217500D02*X193500D01*
G54D13*X204957Y224893D02*Y241457D01*
X181000Y247500D02*X185000Y238000D01*
G54D12*X186500Y248500D02*X193500Y235500D01*
G54D13*X185000Y238000D02*Y230500D01*
X177000Y225276D02*Y259500D01*
G54D16*X222000Y233000D02*Y239500D01*
G54D13*X195095Y248405D02*X199000Y238000D01*
G54D16*X222000Y239500D02*X212000Y243000D01*
G54D13*X204957Y241457D02*X210000Y247000D01*
G54D16*X407000Y183000D02*X417000D01*
G54D12*X436000Y163000D02*X398500D01*
Y173000D02*X407000D01*
X354500Y192500D02*X398500D01*
X360000Y171000D02*X363500D01*
X354500Y186000D02*X398500D01*
G54D15*X432500Y336000D02*X426000Y340500D01*
G54D14*X412000Y348000D02*Y312000D01*
G54D15*X432500Y321500D02*Y336000D01*
G54D14*X426000Y330500D02*X412000D01*
G54D15*X435500Y352500D02*X426000Y360500D01*
X425000Y290000D02*X415154D01*
X415094Y289940D01*
X435500Y352500D02*Y313500D01*
X432453Y321453D02*X425000Y310000D01*
Y300000D02*X435500Y313500D01*
G54D14*X412000Y312000D02*X415000Y298000D01*
G54D12*X427000Y212000D02*X436000D01*
X391500Y234000D02*Y186000D01*
G54D14*X417000Y211000D02*Y203000D01*
G54D12*X405500Y234000D02*Y221000D01*
G54D14*X414095Y213905D02*X417000Y211000D01*
X408181Y213905D02*X414095D01*
X399000Y202500D02*X407776D01*
G54D12*X370500Y234000D02*Y186000D01*
X384500Y234000D02*Y186000D01*
X377500Y234000D02*Y186000D01*
X354500Y206000D02*X398500D01*
X354500Y199000D02*X398500D01*
X436000Y203000D02*X427000D01*
X436000Y221000D02*Y203000D01*
X426500Y144000D02*Y221000D01*
G54D16*X380600Y250400D02*X403400D01*
G54D12*X386000Y263500D02*X428000D01*
G54D16*X420000Y233000D02*Y243000D01*
X426500Y232500D02*Y242700D01*
X428000Y263500D02*Y253800D01*
X421000Y263500D02*Y250200D01*
G54D12*X358000Y291500D02*X386000Y263500D01*
G54D14*X370000Y268000D02*X376000Y274000D01*
G54D13*X355595Y313319D02*Y313095D01*
X367405Y315681D02*Y322055D01*
X378000Y311500D02*X377000Y324500D01*
G54D14*X361500Y356500D02*X403500D01*
X412000Y348000D01*
X415000Y298000D02*Y290034D01*
X415094Y289940D01*
G54D16*X391500Y143500D02*Y137000D01*
G54D12*X407000Y173000D02*Y144000D01*
X398500Y156500D02*X407000D01*
G54D16*X384500Y143500D02*X398500D01*
G54D15*X376000Y148500D02*X392500D01*
G54D13*Y154000D02*X385436D01*
G54D14*X355500Y163500D02*Y155000D01*
G54D12*X398500Y160500D02*X360500D01*
G54D15*X376000Y148500D02*X371000Y149500D01*
X366000Y154500D02*X373000D01*
G54D13*X377850D01*
G54D12*X360500Y160500D02*Y144000D01*
X417000Y163000D02*Y144000D01*
X405500Y138000D02*Y144000D01*
X436000Y163000D02*Y144000D01*
X398500D01*
Y150000D02*X436000D01*
X260500Y130000D02*Y234000D01*
G54D13*X279000Y176000D02*X273914D01*
G54D12*X266500Y130000D02*Y234000D01*
G54D13*X279000Y168000D02*Y176000D01*
G54D12*X254000Y161500D02*X273500D01*
G54D13*X217500Y236000D02*X212436D01*
X204957Y224107D02*Y217543D01*
X212043Y224893D02*Y225043D01*
G54D16*X217500Y224000D02*X222000Y233000D01*
G54D13*X217500Y224000D02*X212150D01*
G54D12*X248000Y273500D02*Y191000D01*
X242000Y199000D02*X266500D01*
G54D15*X357936Y391645D02*X353855Y382145D01*
X357936Y391645D02*X342145D01*
X340500Y390000D01*
Y371400D01*
X377936Y371645D02*X367231D01*
X354000Y382500D02*Y372776D01*
X354095Y372681D01*
X353214Y371200D02*X354095Y370319D01*
Y363905D01*
G54D14*X361500Y356500D01*
G54D16*X358000Y291500D02*X351500Y298000D01*
Y307500D01*
G54D13*X361095Y303181D02*X351181D01*
X351000Y303000D01*
X355595Y313095D02*X350500Y308000D01*
G54D16*X332500Y310500D02*X348500D01*
G54D13*X332500D02*X326586D01*
X325405Y311681D01*
X346405Y317819D02*Y310595D01*
X323043Y319607D02*X334021D01*
G54D15*X320181Y251095D02*X328295D01*
X318586Y249500D02*X320181Y251095D01*
X310500Y249500D02*X318586D01*
Y264500D02*X320181Y262905D01*
X328295D01*
G54D12*X242000Y213000D02*X398500D01*
X237000Y227000D02*X405500D01*
X237000Y234000D02*X405500D01*
X226000Y221000D02*X436000D01*
G54D16*X305000Y185500D02*Y212500D01*
X313500Y185500D02*Y213000D01*
X309500Y185500D02*Y213000D01*
X320000Y199000D02*X305000D01*
X313500Y205500D02*X305000D01*
G54D12*X398500Y132000D02*Y234000D01*
Y132000D02*X361000D01*
G54D15*X332500Y155500D02*Y160500D01*
G54D16*X322000Y138000D02*Y158500D01*
X316500Y138000D02*Y158500D01*
X327500Y138500D02*Y158500D01*
G54D13*X305500Y132500D02*Y159000D01*
G54D16*X351000Y149000D02*Y138000D01*
G54D12*X342000Y149000D02*Y138500D01*
G54D13*X349500Y177300D02*X341976D01*
X349500Y167000D02*X354500Y167500D01*
X349500Y167000D02*X346000D01*
X333000Y168000D02*Y171724D01*
X334500Y166500D02*X333000Y168000D01*
X347500Y171000D02*X341776D01*
G54D12*X254000Y144000D02*X384500D01*
X254000Y138000D02*X405500D01*
X310500Y158500D02*Y130000D01*
G54D13*X292319Y159095D02*X287905D01*
G54D16*X294000Y149000D02*Y154000D01*
X254000Y149000D02*X360500D01*
X301000Y158500D02*X327500D01*
G54D12*X301000Y131500D02*Y149000D01*
X280500Y130000D02*Y154000D01*
X287000D02*Y130000D01*
X294000Y149000D02*Y130000D01*
G54D13*X287905Y159095D02*X279000Y168000D01*
X286000Y171724D02*X284905Y172819D01*
X286000Y168000D02*Y171724D01*
X287500Y166500D02*X286000Y168000D01*
G54D16*X301000Y158500D02*Y149000D01*
G54D13*X302500Y167000D02*X299000D01*
X294681Y170905D02*Y177595D01*
X297500Y166500D02*X287500D01*
X299000Y167000D02*X297500Y166500D01*
X184000Y284500D02*Y303500D01*
G54D12*X186500Y248500D02*Y284500D01*
G54D13*X160000Y242000D02*X161500Y240500D01*
Y237276D01*
G54D12*X282500Y241500D02*X346500D01*
G54D16*X169000Y240500D02*X160000Y249500D01*
G54D15*X340500D02*Y278086D01*
G54D16*X359500Y274500D02*Y249000D01*
G54D12*X298000Y301500D02*X332500D01*
X359500Y274500D01*
G54D15*X340500Y278086D02*X340405Y278181D01*
X318000Y291500D02*X329000Y276500D01*
G54D16*X348500Y310500D02*X351500Y307500D01*
G54D15*X378000Y311500D02*X374000Y303000D01*
G54D13*X226000Y231000D02*Y244414D01*
G54D12*X242000Y206000D02*X266500D01*
G54D16*Y199000D02*X272000D01*
X273000Y198000D01*
G54D12*X242000Y191000D02*Y296000D01*
X274500Y213000D02*Y234000D01*
X282500Y213000D02*Y241500D01*
X290500Y213000D02*Y241500D01*
X298500Y213000D02*Y241500D01*
X306500Y213000D02*Y241500D01*
X314500Y213000D02*Y241500D01*
X322500Y213000D02*Y241500D01*
X330500Y213000D02*Y241500D01*
X338500Y213000D02*Y241500D01*
X346500Y213000D02*Y241500D01*
X354500Y186000D02*Y234000D01*
X363500D02*Y160500D01*
G54D13*X341681Y170905D02*Y177595D01*
Y159095D02*X334500Y162500D01*
X344500Y166500D02*X334500D01*
X346000Y167000D02*X344500Y166500D01*
G54D15*X346000Y154000D02*X334000D01*
Y191000D02*X338224D01*
G54D13*X334500Y162500D02*X326000Y171000D01*
G54D15*X334000Y154000D02*X332500Y155500D01*
G54D13*X326000Y176000D02*Y171000D01*
G54D15*X329500Y163500D02*X332500Y160500D01*
G54D13*X332405Y172819D02*Y172595D01*
G54D15*X371414Y181000D02*X369595Y179181D01*
X375500Y181000D02*X371414D01*
G54D13*X273595Y175181D02*Y184681D01*
G54D12*X248000Y152500D02*Y185000D01*
X254000Y184000D02*X266500D01*
X254000Y177000D02*X266500D01*
X254000Y170000D02*X266500D01*
X254000Y154000D02*X267000D01*
G54D15*X282000Y193500D02*X291000Y199500D01*
X287000Y191000D02*X291224D01*
X284000Y184000D02*X282000Y190000D01*
Y193500D01*
X291000Y199500D02*X296500D01*
G54D12*X242000Y191000D02*X266500D01*
G54D15*X331000Y184000D02*X329000Y190000D01*
Y193500D01*
X338000Y199500D01*
X300500Y163500D02*X329500D01*
G54D13*X302500Y167000D02*X307500Y167500D01*
G54D15*X338000Y199500D02*X343500D01*
G54D13*X320595Y175181D02*Y184681D01*
X326500Y176000D02*X321414D01*
X302500Y177800D02*X295476D01*
G54D16*X315000Y168000D02*Y185500D01*
X305000D01*
G54D13*X300500Y171000D02*X294776D01*
G54D16*X313500Y191000D02*X305000D01*
X219000Y145000D02*Y155800D01*
X226500Y134000D02*X219000Y145000D01*
G54D13*X275000Y125000D02*X281500D01*
G54D16*X252000Y124500D02*X275000Y125000D01*
G54D12*X254500Y130000D02*X299500D01*
G54D16*X267000Y154000D02*X327500D01*
G54D12*X273500Y130000D02*Y161500D01*
G54D16*X236500Y146000D02*Y137000D01*
X226500Y134000D02*Y125500D01*
X227500Y124500D01*
X252000D01*
G54D12*X232000Y146000D02*X246500D01*
X248000Y152500D02*X246500Y146000D01*
X171500Y99500D02*X380500D01*
X268500Y119000D02*Y99500D01*
G54D13*X281500Y125000D02*X299000Y107500D01*
G54D12*X255500Y119000D02*X281000D01*
X282500Y107000D02*X255500D01*
X283000Y113000D02*X255500D01*
X275500Y119000D02*Y99500D01*
G54D16*X218000Y110000D02*X234200D01*
G54D12*X261500Y119000D02*Y99500D01*
X255500Y119000D02*Y99500D01*
G54D16*X332000Y107500D02*Y99500D01*
X318000Y111000D02*X323500Y128000D01*
G54D12*X391500Y110500D02*X380500Y99500D01*
G54D16*X373500Y107500D02*X383500Y117500D01*
G54D12*X361000Y126000D02*X391500D01*
G54D16*X342000Y107500D02*X373500D01*
G54D13*X347000Y138000D02*Y149000D01*
X355500Y138500D02*Y149000D01*
G54D15*Y155000D02*X346000Y154000D01*
G54D13*X337500Y137500D02*Y149000D01*
G54D16*X333500D02*Y138000D01*
X361000Y128500D02*X349200D01*
G54D12*X361000Y144000D02*Y126000D01*
G54D15*X375500Y176000D02*X380586D01*
X380500Y171000D02*X384586D01*
X386405Y169181D01*
X375500Y176000D02*Y170086D01*
X374595Y169181D01*
G54D12*X391500Y110500D02*Y138000D01*
X384500Y144000D02*Y126000D01*
X377500Y144000D02*Y126000D01*
X370500Y144000D02*Y126000D01*
G54D11*G36*
X161000Y121500D02*Y115500D01*
X167000D01*
Y121500D01*
X161000D01*
G37*
G54D18*X164000Y128500D03*
G54D11*G36*
X201500Y164000D02*Y155000D01*
X210500D01*
Y164000D01*
X201500D01*
G37*
G54D19*X206000Y169500D03*
Y179500D03*
G54D20*X181500Y174500D03*
G54D11*G36*
X178900Y207100D02*Y201900D01*
X184100D01*
Y207100D01*
X178900D01*
G37*
G36*
X213500Y114500D02*Y105500D01*
X222500D01*
Y114500D01*
X213500D01*
G37*
G54D19*X218000Y120000D03*
Y130000D03*
G54D11*G36*
X221500Y341000D02*Y335000D01*
X227500D01*
Y341000D01*
X221500D01*
G37*
G36*
X222400Y360600D02*Y355400D01*
X227600D01*
Y360600D01*
X222400D01*
G37*
G54D20*X225000Y388000D03*
G54D18*X224500Y328000D03*
Y318000D03*
G54D21*X97000Y335500D03*
G54D22*Y315800D03*
Y355200D03*
X79300Y335500D03*
G54D11*G36*
X123250Y402250D02*Y395750D01*
X129750D01*
Y402250D01*
X123250D01*
G37*
G54D23*X136500Y399000D03*
G54D11*G36*
X161250Y402250D02*Y395750D01*
X167750D01*
Y402250D01*
X161250D01*
G37*
G54D23*X174500Y399000D03*
G54D11*G36*
X199250Y402250D02*Y395750D01*
X205750D01*
Y402250D01*
X199250D01*
G37*
G54D23*X212500Y399000D03*
G54D24*X318000Y391500D03*
X358000D03*
X378000Y371500D03*
G54D11*G36*
X283000Y291000D02*Y285000D01*
X289000D01*
Y291000D01*
X283000D01*
G37*
G54D24*X298000Y371500D03*
Y311500D03*
G54D25*X426000Y360500D03*
Y350500D03*
Y340500D03*
Y330500D03*
G54D24*X318000Y291500D03*
G54D26*X278000Y341500D03*
G54D27*X407000Y183000D03*
Y173000D03*
Y193000D03*
G54D28*X417100Y183000D03*
Y163000D03*
Y203000D03*
X436100Y163000D03*
Y203000D03*
G54D11*G36*
X380500Y120500D02*Y114500D01*
X386500D01*
Y120500D01*
X380500D01*
G37*
G54D18*X363500Y117500D03*
G54D11*G36*
X339000Y110500D02*Y104500D01*
X345000D01*
Y110500D01*
X339000D01*
G37*
G54D18*X332000Y107500D03*
G54D11*G36*
X260900Y252100D02*Y246900D01*
X266100D01*
Y252100D01*
X260900D01*
G37*
G54D20*X293500Y249500D03*
G54D11*G36*
X307900Y267100D02*Y261900D01*
X313100D01*
Y267100D01*
X307900D01*
G37*
G36*
X290900D02*Y261900D01*
X296100D01*
Y267100D01*
X290900D01*
G37*
G54D20*X263500Y264500D03*
X310500Y249500D03*
G54D11*G36*
X422000Y293000D02*Y287000D01*
X428000D01*
Y293000D01*
X422000D01*
G37*
G54D18*X425000Y300000D03*
Y310000D03*
G54D11*G36*
X412094Y292940D02*Y286940D01*
X418094D01*
Y292940D01*
X412094D01*
G37*
G54D20*X340500Y264500D03*
G54D24*X378000Y311500D03*
X358000Y291500D03*
G54D11*G36*
X337900Y252100D02*Y246900D01*
X343100D01*
Y252100D01*
X337900D01*
G37*
G54D29*X163000Y344000D03*
X144500Y339000D03*
X174000D03*
Y344000D03*
X144500D03*
X115000Y360000D03*
G54D18*X126500Y353500D03*
G54D29*X115000Y354000D03*
X198000Y365000D03*
X201500Y339000D03*
X133500Y375000D03*
X135000Y389000D03*
G54D18*X114000Y403000D03*
G54D29*X153500Y370000D03*
X197500Y358000D03*
X115000Y311500D03*
X128000Y305500D03*
X115000Y315500D03*
X73000Y316000D03*
X79500D03*
X156000Y320000D03*
X136000Y305500D03*
X154500Y295500D03*
X146500Y324500D03*
X131000Y329500D03*
X118500D03*
X131000Y290500D03*
X115500Y293500D03*
G54D18*X85500Y292000D03*
X95500Y289000D03*
G54D29*X127000Y323500D03*
X159500Y329000D03*
X153500Y375000D03*
X150500Y399000D03*
X198000Y375000D03*
X178000Y377000D03*
X198000Y370000D03*
X217500D03*
X285500Y405000D03*
Y391500D03*
Y366500D03*
X271000Y357000D03*
X293000D03*
X303500D03*
X249000Y372000D03*
X237000Y399500D03*
X256000Y398000D03*
Y403000D03*
X249000Y367000D03*
X254000D03*
X271000Y377500D03*
X201000Y320500D03*
X184000Y299000D03*
X201000Y313000D03*
X205000Y295500D03*
X217500Y298000D03*
X224000Y304000D03*
X257500Y288500D03*
X253000Y293500D03*
X273500Y288500D03*
G54D18*X298000Y287000D03*
G54D29*X249000Y319000D03*
Y314000D03*
X254000D03*
X249000Y340500D03*
Y345500D03*
X254000Y340500D03*
X249000Y330500D03*
X201000Y328000D03*
X188500Y112000D03*
X183500Y106000D03*
X188500Y121000D03*
X183500Y126000D03*
X188500D03*
X134500Y105500D03*
X155000Y106000D03*
X160000Y139500D03*
X155000Y126000D03*
Y121000D03*
Y131000D03*
X140000Y139500D03*
X147000Y263000D03*
X151500Y259000D03*
Y254000D03*
X181000Y234000D03*
X161500Y210500D03*
X177000D03*
X169000Y219500D03*
X134500Y206500D03*
X132500Y211500D03*
X132000Y236000D03*
X140000Y206500D03*
X140500Y213500D03*
X151500Y249000D03*
X157000Y242000D03*
X181000Y257500D03*
X156500Y249500D03*
X172000Y244000D03*
X177000Y252500D03*
X103000Y205500D03*
Y201500D03*
X108000Y241000D03*
G54D18*X108500Y261000D03*
Y254500D03*
G54D29*X79000Y279000D03*
Y274500D03*
X88500Y268000D03*
X95500D03*
G54D18*X108500Y275500D03*
G54D29*X161000Y180500D03*
X176000Y170500D03*
X157500Y167500D03*
X165000Y145500D03*
X165500Y139500D03*
X188500Y136000D03*
X181500Y150500D03*
X212000Y243000D03*
X199000Y225500D03*
X147000Y196000D03*
X127000D03*
X266500Y199000D03*
X355000D03*
X217500Y224000D03*
X235500Y216000D03*
X237000Y241500D03*
X254000Y213000D03*
Y241500D03*
X248000D03*
Y213000D03*
X223000Y193500D03*
X377500Y194000D03*
X222500Y217500D03*
X226000Y231000D03*
X87000Y236000D03*
X108000D03*
X90000Y224000D03*
G54D18*X420000Y233000D03*
X426500D03*
G54D29*X217500Y236000D03*
X109000Y224000D03*
X354500Y213000D03*
Y221000D03*
X140000Y263000D03*
X154500Y279000D03*
X132500Y273500D03*
X172000Y249000D03*
X198500Y279000D03*
X211500Y273500D03*
X199000Y252500D03*
X223000Y279000D03*
X199000Y258500D03*
X224500Y264000D03*
X242000Y278500D03*
X248000Y264000D03*
G54D18*X370000Y268000D03*
G54D29*X99000Y157500D03*
X94000Y153500D03*
X99000Y149000D03*
X89500Y145000D03*
X135000Y165500D03*
Y160500D03*
Y155500D03*
X138000Y178000D03*
X140000Y171000D03*
X99000Y180500D03*
X98000Y165500D03*
X117000Y162500D03*
Y170500D03*
Y175500D03*
X114500Y185500D03*
X119500D03*
X117000Y180500D03*
X127500Y145500D03*
Y140500D03*
X78500Y155500D03*
Y150500D03*
Y165500D03*
Y185500D03*
X255500Y107000D03*
Y119000D03*
X261500Y107000D03*
Y119000D03*
X254000Y130000D03*
X260500D03*
X266500D03*
X299000Y107500D03*
X287500Y112500D03*
X280500Y105000D03*
X301000Y114000D03*
X280500Y130000D03*
X301000Y131500D03*
X310500Y130000D03*
X301000Y126500D03*
X274000Y107000D03*
X275000Y125000D03*
X281500Y112500D03*
Y119000D03*
X310000Y114500D03*
G54D18*X318000Y111000D03*
G54D29*X305500Y105500D03*
X375500Y181000D03*
Y176000D03*
X391500Y126000D03*
X392500Y148500D03*
Y154000D03*
X380500Y171000D03*
X360000D03*
X436000Y173000D03*
Y183000D03*
Y193000D03*
X241000Y171000D03*
X248000Y185000D03*
Y172000D03*
Y176500D03*
Y180500D03*
X384000Y160000D03*
X355500Y155000D03*
Y163500D03*
X342000Y145500D03*
X241000Y153000D03*
X232000Y146000D03*
X241500D03*
X236500D03*
X246500D03*
X366000Y154500D03*
X371000Y149500D03*
X279000Y176000D03*
X300500Y171000D03*
X286000Y191000D03*
X300500Y163500D03*
X338000Y199500D03*
X291000D03*
X313500Y199000D03*
X236500Y190000D03*
X267000Y154000D03*
X326000Y176000D03*
X347500Y171000D03*
X333000Y191000D03*
G54D33*X129595Y123681D02*Y121319D01*
X141405Y123681D02*Y121319D01*
X129595Y113681D02*Y111319D01*
X141405Y113681D02*Y111319D01*
X140905Y134181D02*Y131819D01*
X129095Y134181D02*Y131819D01*
X164107Y111543D02*X164893D01*
X164107Y104457D02*X164893D01*
X195607Y107457D02*X196393D01*
X195607Y114543D02*X196393D01*
G54D34*X237100Y113900D02*X240900D01*
X237100Y135100D02*X240900D01*
X326400Y126900D02*Y123100D01*
X347600Y126900D02*Y123100D01*
G54D33*X292319Y159095D02*X294681D01*
X273095Y184681D02*Y182319D01*
X284905Y184681D02*Y182319D01*
X273095Y175181D02*Y172819D01*
X284905Y175181D02*Y172819D01*
G54D38*X306400Y169100D02*Y168500D01*
X302500Y177300D02*Y176700D01*
G54D33*X292319Y177595D02*X294681D01*
X292319Y170905D02*X294681D01*
G54D53*X273000Y205000D02*Y198000D01*
X298000Y205000D02*Y198000D01*
G54D54*X318700Y371800D02*Y371200D01*
G54D33*X365905Y372681D02*Y370319D01*
X354095Y372681D02*Y370319D01*
X261819Y360905D02*X264181D01*
X243095Y361181D02*Y358819D01*
X254905Y361181D02*Y358819D01*
X243095Y348681D02*Y346319D01*
X254905Y348681D02*Y346319D01*
X261819Y349095D02*X264181D01*
X328595Y278181D02*Y275819D01*
X340405Y278181D02*Y275819D01*
X292405Y278181D02*Y275819D01*
X280595Y278181D02*Y275819D01*
X372905Y303181D02*Y300819D01*
X361095Y303181D02*Y300819D01*
X367957Y323893D02*Y323107D01*
X355595Y315681D02*Y313319D01*
X367405Y315681D02*Y313319D01*
X375043Y323893D02*Y323107D01*
G54D54*X340300Y371800D02*Y371200D01*
G54D33*X323043Y320393D02*Y319607D01*
X315957Y320393D02*Y319607D01*
X346405Y320181D02*Y317819D01*
X334595Y320181D02*Y317819D01*
X325405Y311681D02*Y309319D01*
X313595Y311681D02*Y309319D01*
X254905Y307681D02*Y305319D01*
X243095Y307681D02*Y305319D01*
G54D38*X266900Y306600D02*Y306000D01*
G54D33*X255012Y322638D02*Y320276D01*
G54D38*X266900Y322600D02*Y322000D01*
X263000Y314800D02*Y314200D01*
X270800Y314800D02*Y314200D01*
G54D33*X278319Y314595D02*X280681D01*
X278319Y326405D02*X280681D01*
G54D38*X263000Y330800D02*Y330200D01*
X270800Y330800D02*Y330200D01*
G54D34*X380600Y250400D02*Y246600D01*
X359400Y250400D02*Y246600D01*
G54D33*X317819Y262905D02*X320181D01*
X286905Y265681D02*Y263319D01*
X275095Y265681D02*Y263319D01*
X317819Y251095D02*X320181D01*
X286905Y250681D02*Y248319D01*
X275095Y250681D02*Y248319D01*
G54D55*X329200Y252000D02*X332800D01*
X329200Y262000D02*X332800D01*
G54D34*X403400Y250400D02*Y246600D01*
X424600Y250400D02*Y246600D01*
G54D33*X320095Y184681D02*Y182319D01*
Y175181D02*Y172819D01*
X339319Y159095D02*X341681D01*
G54D38*X310300Y177300D02*Y176700D01*
X353400Y169100D02*Y168500D01*
G54D33*X339319Y177595D02*X341681D01*
X339319Y170905D02*X341681D01*
X331905Y175181D02*Y172819D01*
Y184681D02*Y182319D01*
G54D38*X349500Y177300D02*Y176700D01*
X357300Y177300D02*Y176700D01*
G54D33*X292319Y189405D02*X294681D01*
X339319D02*X341681D01*
G54D53*X320000Y205000D02*Y198000D01*
X345000Y205000D02*Y198000D01*
G54D33*X405819Y202095D02*X408181D01*
X405819Y213905D02*X408181D01*
X377957Y154393D02*Y153607D01*
X385043Y154393D02*Y153607D01*
X369595Y179181D02*Y176819D01*
X381405Y179181D02*Y176819D01*
X386405Y169181D02*Y166819D01*
X374595Y169181D02*Y166819D01*
X182595Y341681D02*Y339319D01*
X194405Y341681D02*Y339319D01*
Y332681D02*Y330319D01*
X254905Y334681D02*Y332319D01*
X243095Y334681D02*Y332319D01*
X207319Y332905D02*X209681D01*
X194405Y314181D02*Y311819D01*
Y323181D02*Y320819D01*
X207319Y321095D02*X209681D01*
X243202Y322638D02*Y320276D01*
X182595Y323181D02*Y320819D01*
Y332681D02*Y330319D01*
X211043Y361893D02*Y361107D01*
X203957Y361893D02*Y361107D01*
X180095Y371181D02*Y368819D01*
X191905Y371181D02*Y368819D01*
X171905Y378181D02*Y375819D01*
X192905Y392181D02*Y389819D01*
X181095Y392181D02*Y389819D01*
G54D38*X174200Y319000D02*X174800D01*
X174200Y311200D02*X174800D01*
X166000Y315100D02*X166600D01*
G54D33*X182595Y314181D02*Y311819D01*
X203457Y306893D02*Y306107D01*
X198595Y294681D02*Y292319D01*
X210543Y306893D02*Y306107D01*
X210405Y294681D02*Y292319D01*
X223607Y290957D02*X224393D01*
X223607Y298043D02*X224393D01*
X248095Y282181D02*Y279819D01*
X259905Y282181D02*Y279819D01*
X259095Y296681D02*Y294319D01*
X270905Y296681D02*Y294319D01*
X150405Y338681D02*Y336319D01*
Y347681D02*Y345319D01*
G54D38*X136000Y311300D02*Y310700D01*
X128200Y311300D02*Y310700D01*
X132100Y319500D02*Y318900D01*
G54D33*X154905Y311681D02*Y309319D01*
X143095Y311681D02*Y309319D01*
X121819Y290405D02*X124181D01*
X121819Y278595D02*X124181D01*
G54D39*X88600Y277400D02*X96400D01*
X88600Y258600D02*X96400D01*
G54D33*X160095Y378181D02*Y375819D01*
X156405Y402181D02*Y399819D01*
Y392181D02*Y389819D01*
X138595Y338681D02*Y336319D01*
Y347681D02*Y345319D01*
X135595Y368681D02*Y366319D01*
X147405Y368681D02*Y366319D01*
X127405Y378181D02*Y375819D01*
X115595Y368681D02*Y366319D01*
X127405Y368681D02*Y366319D01*
X115595Y378181D02*Y375819D01*
X114595Y391681D02*Y389319D01*
X126405Y391681D02*Y389319D01*
X144595Y402181D02*Y399819D01*
Y392181D02*Y389819D01*
X154905Y235681D02*Y233319D01*
Y224681D02*Y222319D01*
X143095Y235681D02*Y233319D01*
Y224681D02*Y222319D01*
X204957Y224893D02*Y224107D01*
X212043Y224893D02*Y224107D01*
X174905Y224681D02*Y222319D01*
X163095Y224681D02*Y222319D01*
Y235681D02*Y233319D01*
X174905Y235681D02*Y233319D01*
X204957Y236393D02*Y235607D01*
X145905Y256181D02*Y253819D01*
Y247181D02*Y244819D01*
X134095Y247181D02*Y244819D01*
Y256181D02*Y253819D01*
X212043Y236393D02*Y235607D01*
X205595Y258181D02*Y255819D01*
X217405Y258181D02*Y255819D01*
X168607Y183543D02*X169393D01*
X168607Y176457D02*X169393D01*
X208457Y211393D02*Y210607D01*
X215543Y211393D02*Y210607D01*
X224819Y211405D02*X227181D01*
X208457Y202393D02*Y201607D01*
X215543Y202393D02*Y201607D01*
G54D34*X222600Y180600D02*X226400D01*
X222600Y159400D02*X226400D01*
G54D33*X224819Y199595D02*X227181D01*
X157595Y257681D02*Y255319D01*
X169405Y257681D02*Y255319D01*
X224819Y257405D02*X227181D01*
X224819Y245595D02*X227181D01*
X102095Y236181D02*Y233819D01*
X113905Y236181D02*Y233819D01*
G54D30*X144500Y170500D02*X151000D01*
X144500Y165500D02*X151000D01*
X144500Y160500D02*X151000D01*
X144500Y155500D02*X151000D01*
X144500Y185500D02*X151000D01*
X144500Y180500D02*X151000D01*
X144500Y175500D02*X151000D01*
X124000Y155500D02*X130500D01*
X124000Y160500D02*X130500D01*
X124000Y165500D02*X130500D01*
X124000Y170500D02*X130500D01*
X124000Y175500D02*X130500D01*
X124000Y180500D02*X130500D01*
X124000Y185500D02*X130500D01*
X83000Y180500D02*X89500D01*
X83000Y185500D02*X89500D01*
X103500D02*X110000D01*
X103500Y180500D02*X110000D01*
X103500Y175500D02*X110000D01*
X103500Y170500D02*X110000D01*
X103500Y165500D02*X110000D01*
X83000D02*X89500D01*
X103500Y160500D02*X110000D01*
X83000D02*X89500D01*
X83000Y150500D02*X89500D01*
X83000Y155500D02*X89500D01*
X83000Y170500D02*X89500D01*
X83000Y175500D02*X89500D01*
X103500Y155500D02*X110000D01*
X103500Y150500D02*X110000D01*
G54D38*X260100Y392000D02*Y391400D01*
G54D33*X261905Y402181D02*Y399819D01*
X250095Y402181D02*Y399819D01*
G54D38*X264000Y383800D02*Y383200D01*
X256200Y383800D02*Y383200D01*
G54D33*X243819Y379595D02*X246181D01*
X243819Y391405D02*X246181D01*
G54D40*G54D18*G54D41*G54D42*G54D18*G54D40*G54D41*G54D40*G54D43*G54D44*G54D42*G54D44*G54D45*G54D42*G54D20*G54D40*G54D20*G54D46*G54D47*G54D20*G54D48*G54D49*G54D50*G54D42*G54D51*G54D40*G54D41*G54D40*G54D47*G54D41*G54D20*G54D41*G54D11*G54D17*G54D11*G54D17*G54D11*G54D17*G54D11*G54D17*G54D11*G54D17*G54D11*G54D17*G54D11*G54D17*G54D11*G54D17*G54D11*G54D17*G54D11*G54D52*X87000Y92500D02*X416000D01*
X66000Y404500D02*Y103500D01*
X68500Y101000D02*X78500D01*
X68500Y407000D02*X78500D01*
X424500D02*X443000D01*
X445500Y404500D02*Y103500D01*
X424500Y101000D02*X443000D01*
X394500Y272000D02*X408500D01*
X87000Y415500D02*X416000D01*
X390000Y290000D02*Y276500D01*
X399000Y290000D02*Y285500D01*
X403500Y281000D02*X408500D01*
X335500Y352000D02*Y342000D01*
X349000Y346500D02*X352000D01*
X399000Y342000D02*Y333000D01*
X340000Y337500D02*X352000D01*
X385500Y346500D02*X394500D01*
X344500Y352000D02*Y351000D01*
X84500Y413000D02*G75*G02X87000Y415500I2500J0D01*G01*
X66000Y404500D02*G75*G02X68500Y407000I2500J0D01*G01*
X78500Y101000D02*G75*G02X84500Y95000I0J-6000D01*G01*
Y413000D02*G75*G02X78500Y407000I-6000J0D01*G01*
X68500Y101000D02*G75*G02X66000Y103500I0J2500D01*G01*
X87000Y92500D02*G75*G02X84500Y95000I0J2500D01*G01*
X445500Y103500D02*G75*G02X443000Y101000I-2500J0D01*G01*
X418500Y95000D02*G75*G02X416000Y92500I-2500J0D01*G01*
Y415500D02*G75*G02X418500Y413000I0J-2500D01*G01*
Y95000D02*G75*G02X424500Y101000I6000J0D01*G01*
Y407000D02*G75*G02X418500Y413000I0J6000D01*G01*
X443000Y407000D02*G75*G02X445500Y404500I0J-2500D01*G01*
X344500Y352000D02*G75*G03X340000Y356500I-4500J0D01*G01*
X335500Y342000D02*G75*G03X340000Y337500I4500J0D01*G01*
X352000D02*G75*G03X356500Y342000I0J4500D01*G01*
G75*G03X352000Y346500I-4500J0D01*G01*
X344500Y351000D02*G75*G03X349000Y346500I4500J0D01*G01*
X340000Y356500D02*G75*G03X335500Y352000I0J-4500D01*G01*
X390000Y276500D02*G75*G03X394500Y272000I4500J0D01*G01*
X399000Y290000D02*G75*G03X394500Y294500I-4500J0D01*G01*
G75*G03X390000Y290000I0J-4500D01*G01*
X399000Y285500D02*G75*G03X403500Y281000I4500J0D01*G01*
X408500Y272000D02*G75*G03X413000Y276500I0J4500D01*G01*
G75*G03X408500Y281000I-4500J0D01*G01*
X385500Y346500D02*G75*G03X381000Y342000I0J-4500D01*G01*
G75*G03X385500Y337500I4500J0D01*G01*
X399000Y342000D02*G75*G03X394500Y346500I-4500J0D01*G01*
X390000Y333000D02*G75*G03X394500Y328500I4500J0D01*G01*
G75*G03X399000Y333000I0J4500D01*G01*
X390000D02*G75*G03X385500Y337500I-4500J0D01*G01*
M02*
