G04 start of page 15 for group -3984 idx -3984 *
G04 Title: (unknown), fab *
G04 Creator: pcb 20091103 *
G04 CreationDate: Sun Nov  5 16:28:14 2023 UTC *
G04 For: bh *
G04 Format: Gerber/RS-274X *
G04 PCB-Dimensions: 560000 580000 *
G04 PCB-Coordinate-Origin: lower left *
%MOIN*%
%FSLAX25Y25*%
%LNFAB*%
%ADD13C,0.0100*%
%ADD50C,0.0060*%
%ADD54C,0.0102*%
%ADD88R,0.0080X0.0080*%
G54D88*X415700Y401500D02*G75*G03X417300Y401500I800J0D01*G01*
G75*G03X415700Y401500I-800J0D01*G01*
X414100D02*G75*G03X418900Y401500I2400J0D01*G01*
G75*G03X414100Y401500I-2400J0D01*G01*
X412500D02*G75*G03X420500Y401500I4000J0D01*G01*
G75*G03X412500Y401500I-4000J0D01*G01*
X88200Y123500D02*G75*G03X89800Y123500I800J0D01*G01*
G75*G03X88200Y123500I-800J0D01*G01*
X86600D02*G75*G03X91400Y123500I2400J0D01*G01*
G75*G03X86600Y123500I-2400J0D01*G01*
X85000D02*G75*G03X93000Y123500I4000J0D01*G01*
G75*G03X85000Y123500I-4000J0D01*G01*
X415700D02*G75*G03X417300Y123500I800J0D01*G01*
G75*G03X415700Y123500I-800J0D01*G01*
X414100D02*G75*G03X418900Y123500I2400J0D01*G01*
G75*G03X414100Y123500I-2400J0D01*G01*
X412500D02*G75*G03X420500Y123500I4000J0D01*G01*
G75*G03X412500Y123500I-4000J0D01*G01*
X88200Y401500D02*G75*G03X89800Y401500I800J0D01*G01*
G75*G03X88200Y401500I-800J0D01*G01*
X86600D02*G75*G03X91400Y401500I2400J0D01*G01*
G75*G03X86600Y401500I-2400J0D01*G01*
X85000D02*G75*G03X93000Y401500I4000J0D01*G01*
G75*G03X85000Y401500I-4000J0D01*G01*
X14200Y591250D02*G75*G03X15800Y591250I800J0D01*G01*
G75*G03X14200Y591250I-800J0D01*G01*
X12600D02*G75*G03X17400Y591250I2400J0D01*G01*
G75*G03X12600Y591250I-2400J0D01*G01*
X11000D02*G75*G03X19000Y591250I4000J0D01*G01*
G75*G03X11000Y591250I-4000J0D01*G01*
G54D50*X200000Y593500D02*Y587500D01*
Y593500D02*Y592750D01*
X203750Y589000D01*
Y593500D02*Y587500D01*
X205551Y592750D02*Y588250D01*
Y592750D02*X206301Y593500D01*
X207801D01*
X208551Y592750D01*
Y588250D01*
X207801Y587500D02*X208551Y588250D01*
X206301Y587500D02*X207801D01*
X205551Y588250D02*X206301Y587500D01*
X200000Y584249D02*X210353D01*
X158000Y590500D02*X161000Y593500D01*
X158000Y590500D02*X161750D01*
X161000Y593500D02*Y587500D01*
X158000Y584249D02*X163551D01*
X41000Y588250D02*X41750Y587500D01*
X41000Y592750D02*Y588250D01*
Y592750D02*X41750Y593500D01*
X43250D01*
X44000Y592750D01*
Y588250D01*
X43250Y587500D02*X44000Y588250D01*
X41750Y587500D02*X43250D01*
X41000Y589000D02*X44000Y592000D01*
X45801Y587500D02*X46551D01*
X49103D02*X50603D01*
X49853Y593500D02*Y587500D01*
X48353Y592000D02*X49853Y593500D01*
X52404Y590500D02*X55404Y593500D01*
X52404Y590500D02*X56154D01*
X55404Y593500D02*Y587500D01*
X57956Y592750D02*X58706Y593500D01*
X60956D01*
X61706Y592750D01*
Y591250D01*
X57956Y587500D02*X61706Y591250D01*
X57956Y587500D02*X61706D01*
X66207Y588250D02*X66957Y587500D01*
X66207Y592750D02*X66957Y593500D01*
X66207Y592750D02*Y588250D01*
X71459Y592750D02*X72209Y593500D01*
X73709D01*
X74459Y592750D01*
Y588250D01*
X73709Y587500D02*X74459Y588250D01*
X72209Y587500D02*X73709D01*
X71459Y588250D02*X72209Y587500D01*
Y590500D02*X74459D01*
X76260Y587500D02*X77010D01*
X81062Y593500D02*X81812Y592750D01*
X79562Y593500D02*X81062D01*
X78812Y592750D02*X79562Y593500D01*
X78812Y592750D02*Y588250D01*
X79562Y587500D01*
X81062Y590500D02*X81812Y589750D01*
X78812Y590500D02*X81062D01*
X79562Y587500D02*X81062D01*
X81812Y588250D01*
Y589750D02*Y588250D01*
X83613D02*X84363Y587500D01*
X83613Y592750D02*Y588250D01*
Y592750D02*X84363Y593500D01*
X85863D01*
X86613Y592750D01*
Y588250D01*
X85863Y587500D02*X86613Y588250D01*
X84363Y587500D02*X85863D01*
X83613Y589000D02*X86613Y592000D01*
X88415Y588250D02*X89165Y587500D01*
X88415Y592750D02*Y588250D01*
Y592750D02*X89165Y593500D01*
X90665D01*
X91415Y592750D01*
Y588250D01*
X90665Y587500D02*X91415Y588250D01*
X89165Y587500D02*X90665D01*
X88415Y589000D02*X91415Y592000D01*
X93216Y588250D02*X93966Y587500D01*
X93216Y592750D02*Y588250D01*
Y592750D02*X93966Y593500D01*
X95466D01*
X96216Y592750D01*
Y588250D01*
X95466Y587500D02*X96216Y588250D01*
X93966Y587500D02*X95466D01*
X93216Y589000D02*X96216Y592000D01*
X101468Y589750D02*Y587500D01*
Y589750D02*X102218Y590500D01*
X102968D01*
X103718Y589750D01*
Y587500D01*
Y589750D02*X104468Y590500D01*
X105218D01*
X105968Y589750D01*
Y587500D01*
X100718Y590500D02*X101468Y589750D01*
X108519D02*Y587500D01*
Y589750D02*X109269Y590500D01*
X110019D01*
X110769Y589750D01*
Y587500D01*
Y589750D02*X111519Y590500D01*
X112269D01*
X113019Y589750D01*
Y587500D01*
X107769Y590500D02*X108519Y589750D01*
X117521Y593500D02*X118271Y592750D01*
Y588250D01*
X117521Y587500D02*X118271Y588250D01*
X41000Y584249D02*X120072D01*
X274400Y353600D02*X281600Y346400D01*
X274400D02*X281600Y353600D01*
X276400Y351600D02*X279600D01*
X276400D02*Y348400D01*
X279600D01*
Y351600D02*Y348400D01*
X274800Y353200D02*X281200D01*
X274800D02*Y346800D01*
X281200D01*
Y353200D02*Y346800D01*
X11400Y609850D02*X18600Y602650D01*
X11400D02*X18600Y609850D01*
X13400Y607850D02*X16600D01*
X13400D02*Y604650D01*
X16600D01*
Y607850D02*Y604650D01*
X11800Y609450D02*X18200D01*
X11800D02*Y603050D01*
X18200D01*
Y609450D02*Y603050D01*
X195000Y608500D02*Y607750D01*
X196500Y606250D01*
X198000Y607750D01*
Y608500D02*Y607750D01*
X196500Y606250D02*Y602500D01*
X199801Y605500D02*X202051D01*
X199801Y602500D02*X202801D01*
X199801Y608500D02*Y602500D01*
Y608500D02*X202801D01*
X207603D02*X208353Y607750D01*
X205353Y608500D02*X207603D01*
X204603Y607750D02*X205353Y608500D01*
X204603Y607750D02*Y606250D01*
X205353Y605500D01*
X207603D01*
X208353Y604750D01*
Y603250D01*
X207603Y602500D02*X208353Y603250D01*
X205353Y602500D02*X207603D01*
X204603Y603250D02*X205353Y602500D01*
X195000Y599249D02*X210154D01*
X158750Y602500D02*X160250D01*
X159500Y608500D02*Y602500D01*
X158000Y607000D02*X159500Y608500D01*
X158000Y599249D02*X162051D01*
X41000Y603250D02*X41750Y602500D01*
X41000Y607750D02*Y603250D01*
Y607750D02*X41750Y608500D01*
X43250D01*
X44000Y607750D01*
Y603250D01*
X43250Y602500D02*X44000Y603250D01*
X41750Y602500D02*X43250D01*
X41000Y604000D02*X44000Y607000D01*
X45801Y602500D02*X46551D01*
X49103D02*X50603D01*
X49853Y608500D02*Y602500D01*
X48353Y607000D02*X49853Y608500D01*
X53154Y602500D02*X54654D01*
X53904Y608500D02*Y602500D01*
X52404Y607000D02*X53904Y608500D01*
X57206Y602500D02*X58706D01*
X57956Y608500D02*Y602500D01*
X56456Y607000D02*X57956Y608500D01*
X63207Y603250D02*X63957Y602500D01*
X63207Y607750D02*X63957Y608500D01*
X63207Y607750D02*Y603250D01*
X68459Y607750D02*X69209Y608500D01*
X71459D01*
X72209Y607750D01*
Y606250D01*
X68459Y602500D02*X72209Y606250D01*
X68459Y602500D02*X72209D01*
X74010D02*X74760D01*
X76562Y603250D02*X77312Y602500D01*
X76562Y604750D02*Y603250D01*
Y604750D02*X77312Y605500D01*
X78812D01*
X79562Y604750D01*
Y603250D01*
X78812Y602500D02*X79562Y603250D01*
X77312Y602500D02*X78812D01*
X76562Y606250D02*X77312Y605500D01*
X76562Y607750D02*Y606250D01*
Y607750D02*X77312Y608500D01*
X78812D01*
X79562Y607750D01*
Y606250D01*
X78812Y605500D02*X79562Y606250D01*
X82113Y602500D02*X83613D01*
X82863Y608500D02*Y602500D01*
X81363Y607000D02*X82863Y608500D01*
X85415Y602500D02*X88415Y605500D01*
Y607750D02*Y605500D01*
X87665Y608500D02*X88415Y607750D01*
X86165Y608500D02*X87665D01*
X85415Y607750D02*X86165Y608500D01*
X85415Y607750D02*Y606250D01*
X86165Y605500D01*
X88415D01*
X90216D02*X93216Y608500D01*
X90216Y605500D02*X93966D01*
X93216Y608500D02*Y602500D01*
X99218Y604750D02*Y602500D01*
Y604750D02*X99968Y605500D01*
X100718D01*
X101468Y604750D01*
Y602500D01*
Y604750D02*X102218Y605500D01*
X102968D01*
X103718Y604750D01*
Y602500D01*
X98468Y605500D02*X99218Y604750D01*
X106269D02*Y602500D01*
Y604750D02*X107019Y605500D01*
X107769D01*
X108519Y604750D01*
Y602500D01*
Y604750D02*X109269Y605500D01*
X110019D01*
X110769Y604750D01*
Y602500D01*
X105519Y605500D02*X106269Y604750D01*
X115271Y608500D02*X116021Y607750D01*
Y603250D01*
X115271Y602500D02*X116021Y603250D01*
X41000Y599249D02*X117822D01*
X79300Y349000D02*Y339400D01*
X74500Y344200D02*X84100D01*
X77700Y345800D02*X80900D01*
X77700D02*Y342600D01*
X80900D01*
Y345800D02*Y342600D01*
X76100Y347400D02*X82500D01*
X76100D02*Y341000D01*
X82500D01*
Y347400D02*Y341000D01*
X97000Y329300D02*Y319700D01*
X92200Y324500D02*X101800D01*
X95400Y326100D02*X98600D01*
X95400D02*Y322900D01*
X98600D01*
Y326100D02*Y322900D01*
X93800Y327700D02*X100200D01*
X93800D02*Y321300D01*
X100200D01*
Y327700D02*Y321300D01*
X97000Y368700D02*Y359100D01*
X92200Y363900D02*X101800D01*
X95400Y365500D02*X98600D01*
X95400D02*Y362300D01*
X98600D01*
Y365500D02*Y362300D01*
X93800Y367100D02*X100200D01*
X93800D02*Y360700D01*
X100200D01*
Y367100D02*Y360700D01*
X15000Y626050D02*Y616450D01*
X10200Y621250D02*X19800D01*
X13400Y622850D02*X16600D01*
X13400D02*Y619650D01*
X16600D01*
Y622850D02*Y619650D01*
X11800Y624450D02*X18200D01*
X11800D02*Y618050D01*
X18200D01*
Y624450D02*Y618050D01*
X195000Y623500D02*Y622750D01*
X196500Y621250D01*
X198000Y622750D01*
Y623500D02*Y622750D01*
X196500Y621250D02*Y617500D01*
X199801Y620500D02*X202051D01*
X199801Y617500D02*X202801D01*
X199801Y623500D02*Y617500D01*
Y623500D02*X202801D01*
X207603D02*X208353Y622750D01*
X205353Y623500D02*X207603D01*
X204603Y622750D02*X205353Y623500D01*
X204603Y622750D02*Y621250D01*
X205353Y620500D01*
X207603D01*
X208353Y619750D01*
Y618250D01*
X207603Y617500D02*X208353Y618250D01*
X205353Y617500D02*X207603D01*
X204603Y618250D02*X205353Y617500D01*
X195000Y614249D02*X210154D01*
X158000Y622750D02*X158750Y623500D01*
X160250D01*
X161000Y622750D01*
Y618250D01*
X160250Y617500D02*X161000Y618250D01*
X158750Y617500D02*X160250D01*
X158000Y618250D02*X158750Y617500D01*
Y620500D02*X161000D01*
X158000Y614249D02*X162801D01*
X41000Y618250D02*X41750Y617500D01*
X41000Y622750D02*Y618250D01*
Y622750D02*X41750Y623500D01*
X43250D01*
X44000Y622750D01*
Y618250D01*
X43250Y617500D02*X44000Y618250D01*
X41750Y617500D02*X43250D01*
X41000Y619000D02*X44000Y622000D01*
X45801Y617500D02*X46551D01*
X49103D02*X50603D01*
X49853Y623500D02*Y617500D01*
X48353Y622000D02*X49853Y623500D01*
X52404Y618250D02*X53154Y617500D01*
X52404Y622750D02*Y618250D01*
Y622750D02*X53154Y623500D01*
X54654D01*
X55404Y622750D01*
Y618250D01*
X54654Y617500D02*X55404Y618250D01*
X53154Y617500D02*X54654D01*
X52404Y619000D02*X55404Y622000D01*
X57206Y622750D02*X57956Y623500D01*
X59456D01*
X60206Y622750D01*
Y618250D01*
X59456Y617500D02*X60206Y618250D01*
X57956Y617500D02*X59456D01*
X57206Y618250D02*X57956Y617500D01*
Y620500D02*X60206D01*
X64707Y618250D02*X65457Y617500D01*
X64707Y622750D02*X65457Y623500D01*
X64707Y622750D02*Y618250D01*
X69959Y622750D02*X70709Y623500D01*
X72959D01*
X73709Y622750D01*
Y621250D01*
X69959Y617500D02*X73709Y621250D01*
X69959Y617500D02*X73709D01*
X75510D02*X76260D01*
X80312Y623500D02*X81062Y622750D01*
X78812Y623500D02*X80312D01*
X78062Y622750D02*X78812Y623500D01*
X78062Y622750D02*Y618250D01*
X78812Y617500D01*
X80312Y620500D02*X81062Y619750D01*
X78062Y620500D02*X80312D01*
X78812Y617500D02*X80312D01*
X81062Y618250D01*
Y619750D02*Y618250D01*
X83613Y617500D02*X85113D01*
X84363Y623500D02*Y617500D01*
X82863Y622000D02*X84363Y623500D01*
X89165D02*X89915Y622750D01*
X87665Y623500D02*X89165D01*
X86915Y622750D02*X87665Y623500D01*
X86915Y622750D02*Y618250D01*
X87665Y617500D01*
X89165Y620500D02*X89915Y619750D01*
X86915Y620500D02*X89165D01*
X87665Y617500D02*X89165D01*
X89915Y618250D01*
Y619750D02*Y618250D01*
X91716Y622750D02*X92466Y623500D01*
X94716D01*
X95466Y622750D01*
Y621250D01*
X91716Y617500D02*X95466Y621250D01*
X91716Y617500D02*X95466D01*
X100718Y619750D02*Y617500D01*
Y619750D02*X101468Y620500D01*
X102218D01*
X102968Y619750D01*
Y617500D01*
Y619750D02*X103718Y620500D01*
X104468D01*
X105218Y619750D01*
Y617500D01*
X99968Y620500D02*X100718Y619750D01*
X107769D02*Y617500D01*
Y619750D02*X108519Y620500D01*
X109269D01*
X110019Y619750D01*
Y617500D01*
Y619750D02*X110769Y620500D01*
X111519D01*
X112269Y619750D01*
Y617500D01*
X107019Y620500D02*X107769Y619750D01*
X116771Y623500D02*X117521Y622750D01*
Y618250D01*
X116771Y617500D02*X117521Y618250D01*
X41000Y614249D02*X119322D01*
X420578Y331642D02*Y326842D01*
Y331642D02*X424738Y334042D01*
X420578Y331642D02*X416418Y334042D01*
X418978Y331642D02*G75*G03X422178Y331642I1600J0D01*G01*
G75*G03X418978Y331642I-1600J0D01*G01*
X417378D02*G75*G03X423778Y331642I3200J0D01*G01*
G75*G03X417378Y331642I-3200J0D01*G01*
X420578Y376642D02*Y371842D01*
Y376642D02*X424738Y379042D01*
X420578Y376642D02*X416418Y379042D01*
X418978Y376642D02*G75*G03X422178Y376642I1600J0D01*G01*
G75*G03X418978Y376642I-1600J0D01*G01*
X417378D02*G75*G03X423778Y376642I3200J0D01*G01*
G75*G03X417378Y376642I-3200J0D01*G01*
X15000Y636250D02*Y631450D01*
Y636250D02*X19160Y638650D01*
X15000Y636250D02*X10840Y638650D01*
X13400Y636250D02*G75*G03X16600Y636250I1600J0D01*G01*
G75*G03X13400Y636250I-1600J0D01*G01*
X11800D02*G75*G03X18200Y636250I3200J0D01*G01*
G75*G03X11800Y636250I-3200J0D01*G01*
X200000Y638500D02*Y632500D01*
Y638500D02*Y637750D01*
X203750Y634000D01*
Y638500D02*Y632500D01*
X205551Y637750D02*Y633250D01*
Y637750D02*X206301Y638500D01*
X207801D01*
X208551Y637750D01*
Y633250D01*
X207801Y632500D02*X208551Y633250D01*
X206301Y632500D02*X207801D01*
X205551Y633250D02*X206301Y632500D01*
X200000Y629249D02*X210353D01*
X158000Y637750D02*X158750Y638500D01*
X161000D01*
X161750Y637750D01*
Y636250D01*
X158000Y632500D02*X161750Y636250D01*
X158000Y632500D02*X161750D01*
X158000Y629249D02*X163551D01*
X41000Y633250D02*X41750Y632500D01*
X41000Y637750D02*Y633250D01*
Y637750D02*X41750Y638500D01*
X43250D01*
X44000Y637750D01*
Y633250D01*
X43250Y632500D02*X44000Y633250D01*
X41750Y632500D02*X43250D01*
X41000Y634000D02*X44000Y637000D01*
X45801Y632500D02*X46551D01*
X48353Y633250D02*X49103Y632500D01*
X48353Y637750D02*Y633250D01*
Y637750D02*X49103Y638500D01*
X50603D01*
X51353Y637750D01*
Y633250D01*
X50603Y632500D02*X51353Y633250D01*
X49103Y632500D02*X50603D01*
X48353Y634000D02*X51353Y637000D01*
X53154Y632500D02*X56904Y636250D01*
Y638500D02*Y636250D01*
X53154Y638500D02*X56904D01*
X59456Y632500D02*X60956D01*
X60206Y638500D02*Y632500D01*
X58706Y637000D02*X60206Y638500D01*
X65457Y633250D02*X66207Y632500D01*
X65457Y637750D02*X66207Y638500D01*
X65457Y637750D02*Y633250D01*
X71459Y632500D02*X72959D01*
X72209Y638500D02*Y632500D01*
X70709Y637000D02*X72209Y638500D01*
X74760Y632500D02*X75510D01*
X77312Y633250D02*X78062Y632500D01*
X77312Y634750D02*Y633250D01*
Y634750D02*X78062Y635500D01*
X79562D01*
X80312Y634750D01*
Y633250D01*
X79562Y632500D02*X80312Y633250D01*
X78062Y632500D02*X79562D01*
X77312Y636250D02*X78062Y635500D01*
X77312Y637750D02*Y636250D01*
Y637750D02*X78062Y638500D01*
X79562D01*
X80312Y637750D01*
Y636250D01*
X79562Y635500D02*X80312Y636250D01*
X82113Y633250D02*X82863Y632500D01*
X82113Y637750D02*Y633250D01*
Y637750D02*X82863Y638500D01*
X84363D01*
X85113Y637750D01*
Y633250D01*
X84363Y632500D02*X85113Y633250D01*
X82863Y632500D02*X84363D01*
X82113Y634000D02*X85113Y637000D01*
X86915Y637750D02*X87665Y638500D01*
X89165D01*
X89915Y637750D01*
Y633250D01*
X89165Y632500D02*X89915Y633250D01*
X87665Y632500D02*X89165D01*
X86915Y633250D02*X87665Y632500D01*
Y635500D02*X89915D01*
X91716D02*X94716Y638500D01*
X91716Y635500D02*X95466D01*
X94716Y638500D02*Y632500D01*
X100718Y634750D02*Y632500D01*
Y634750D02*X101468Y635500D01*
X102218D01*
X102968Y634750D01*
Y632500D01*
Y634750D02*X103718Y635500D01*
X104468D01*
X105218Y634750D01*
Y632500D01*
X99968Y635500D02*X100718Y634750D01*
X107769D02*Y632500D01*
Y634750D02*X108519Y635500D01*
X109269D01*
X110019Y634750D01*
Y632500D01*
Y634750D02*X110769Y635500D01*
X111519D01*
X112269Y634750D01*
Y632500D01*
X107019Y635500D02*X107769Y634750D01*
X116771Y638500D02*X117521Y637750D01*
Y633250D01*
X116771Y632500D02*X117521Y633250D01*
X41000Y629249D02*X119322D01*
X95400Y345800D02*X98600D01*
X95400D02*Y342600D01*
X98600D01*
Y345800D02*Y342600D01*
X93800Y347400D02*X100200D01*
X93800D02*Y341000D01*
X100200D01*
Y347400D02*Y341000D01*
X13400Y652850D02*X16600D01*
X13400D02*Y649650D01*
X16600D01*
Y652850D02*Y649650D01*
X11800Y654450D02*X18200D01*
X11800D02*Y648050D01*
X18200D01*
Y654450D02*Y648050D01*
X195000Y653500D02*Y652750D01*
X196500Y651250D01*
X198000Y652750D01*
Y653500D02*Y652750D01*
X196500Y651250D02*Y647500D01*
X199801Y650500D02*X202051D01*
X199801Y647500D02*X202801D01*
X199801Y653500D02*Y647500D01*
Y653500D02*X202801D01*
X207603D02*X208353Y652750D01*
X205353Y653500D02*X207603D01*
X204603Y652750D02*X205353Y653500D01*
X204603Y652750D02*Y651250D01*
X205353Y650500D01*
X207603D01*
X208353Y649750D01*
Y648250D01*
X207603Y647500D02*X208353Y648250D01*
X205353Y647500D02*X207603D01*
X204603Y648250D02*X205353Y647500D01*
X195000Y644249D02*X210154D01*
X158750Y647500D02*X160250D01*
X159500Y653500D02*Y647500D01*
X158000Y652000D02*X159500Y653500D01*
X158000Y644249D02*X162051D01*
X41000Y648250D02*X41750Y647500D01*
X41000Y652750D02*Y648250D01*
Y652750D02*X41750Y653500D01*
X43250D01*
X44000Y652750D01*
Y648250D01*
X43250Y647500D02*X44000Y648250D01*
X41750Y647500D02*X43250D01*
X41000Y649000D02*X44000Y652000D01*
X45801Y647500D02*X46551D01*
X48353Y648250D02*X49103Y647500D01*
X48353Y652750D02*Y648250D01*
Y652750D02*X49103Y653500D01*
X50603D01*
X51353Y652750D01*
Y648250D01*
X50603Y647500D02*X51353Y648250D01*
X49103Y647500D02*X50603D01*
X48353Y649000D02*X51353Y652000D01*
X55404Y653500D02*X56154Y652750D01*
X53904Y653500D02*X55404D01*
X53154Y652750D02*X53904Y653500D01*
X53154Y652750D02*Y648250D01*
X53904Y647500D01*
X55404Y650500D02*X56154Y649750D01*
X53154Y650500D02*X55404D01*
X53904Y647500D02*X55404D01*
X56154Y648250D01*
Y649750D02*Y648250D01*
X57956Y647500D02*X61706Y651250D01*
Y653500D02*Y651250D01*
X57956Y653500D02*X61706D01*
X66207Y648250D02*X66957Y647500D01*
X66207Y652750D02*X66957Y653500D01*
X66207Y652750D02*Y648250D01*
X72209Y647500D02*X73709D01*
X72959Y653500D02*Y647500D01*
X71459Y652000D02*X72959Y653500D01*
X75510Y647500D02*X76260D01*
X78062D02*X81812Y651250D01*
Y653500D02*Y651250D01*
X78062Y653500D02*X81812D01*
X83613Y648250D02*X84363Y647500D01*
X83613Y652750D02*Y648250D01*
Y652750D02*X84363Y653500D01*
X85863D01*
X86613Y652750D01*
Y648250D01*
X85863Y647500D02*X86613Y648250D01*
X84363Y647500D02*X85863D01*
X83613Y649000D02*X86613Y652000D01*
X89165Y647500D02*X90665D01*
X89915Y653500D02*Y647500D01*
X88415Y652000D02*X89915Y653500D01*
X92466Y648250D02*X93216Y647500D01*
X92466Y649750D02*Y648250D01*
Y649750D02*X93216Y650500D01*
X94716D01*
X95466Y649750D01*
Y648250D01*
X94716Y647500D02*X95466Y648250D01*
X93216Y647500D02*X94716D01*
X92466Y651250D02*X93216Y650500D01*
X92466Y652750D02*Y651250D01*
Y652750D02*X93216Y653500D01*
X94716D01*
X95466Y652750D01*
Y651250D01*
X94716Y650500D02*X95466Y651250D01*
X100718Y649750D02*Y647500D01*
Y649750D02*X101468Y650500D01*
X102218D01*
X102968Y649750D01*
Y647500D01*
Y649750D02*X103718Y650500D01*
X104468D01*
X105218Y649750D01*
Y647500D01*
X99968Y650500D02*X100718Y649750D01*
X107769D02*Y647500D01*
Y649750D02*X108519Y650500D01*
X109269D01*
X110019Y649750D01*
Y647500D01*
Y649750D02*X110769Y650500D01*
X111519D01*
X112269Y649750D01*
Y647500D01*
X107019Y650500D02*X107769Y649750D01*
X116771Y653500D02*X117521Y652750D01*
Y648250D01*
X116771Y647500D02*X117521Y648250D01*
X41000Y644249D02*X119322D01*
X217200Y118500D02*G75*G03X218800Y118500I800J0D01*G01*
G75*G03X217200Y118500I-800J0D01*G01*
X215600D02*G75*G03X220400Y118500I2400J0D01*G01*
G75*G03X215600Y118500I-2400J0D01*G01*
X217200Y128500D02*G75*G03X218800Y128500I800J0D01*G01*
G75*G03X217200Y128500I-800J0D01*G01*
X215600D02*G75*G03X220400Y128500I2400J0D01*G01*
G75*G03X215600Y128500I-2400J0D01*G01*
X217200Y138500D02*G75*G03X218800Y138500I800J0D01*G01*
G75*G03X217200Y138500I-800J0D01*G01*
X215600D02*G75*G03X220400Y138500I2400J0D01*G01*
G75*G03X215600Y138500I-2400J0D01*G01*
X205200Y168000D02*G75*G03X206800Y168000I800J0D01*G01*
G75*G03X205200Y168000I-800J0D01*G01*
X203600D02*G75*G03X208400Y168000I2400J0D01*G01*
G75*G03X203600Y168000I-2400J0D01*G01*
X205200Y178000D02*G75*G03X206800Y178000I800J0D01*G01*
G75*G03X205200Y178000I-800J0D01*G01*
X203600D02*G75*G03X208400Y178000I2400J0D01*G01*
G75*G03X203600Y178000I-2400J0D01*G01*
X205200Y188000D02*G75*G03X206800Y188000I800J0D01*G01*
G75*G03X205200Y188000I-800J0D01*G01*
X203600D02*G75*G03X208400Y188000I2400J0D01*G01*
G75*G03X203600Y188000I-2400J0D01*G01*
X14200Y666250D02*G75*G03X15800Y666250I800J0D01*G01*
G75*G03X14200Y666250I-800J0D01*G01*
X12600D02*G75*G03X17400Y666250I2400J0D01*G01*
G75*G03X12600Y666250I-2400J0D01*G01*
X195000Y668500D02*Y667750D01*
X196500Y666250D01*
X198000Y667750D01*
Y668500D02*Y667750D01*
X196500Y666250D02*Y662500D01*
X199801Y665500D02*X202051D01*
X199801Y662500D02*X202801D01*
X199801Y668500D02*Y662500D01*
Y668500D02*X202801D01*
X207603D02*X208353Y667750D01*
X205353Y668500D02*X207603D01*
X204603Y667750D02*X205353Y668500D01*
X204603Y667750D02*Y666250D01*
X205353Y665500D01*
X207603D01*
X208353Y664750D01*
Y663250D01*
X207603Y662500D02*X208353Y663250D01*
X205353Y662500D02*X207603D01*
X204603Y663250D02*X205353Y662500D01*
X195000Y659249D02*X210154D01*
X160250Y668500D02*X161000Y667750D01*
X158750Y668500D02*X160250D01*
X158000Y667750D02*X158750Y668500D01*
X158000Y667750D02*Y663250D01*
X158750Y662500D01*
X160250Y665500D02*X161000Y664750D01*
X158000Y665500D02*X160250D01*
X158750Y662500D02*X160250D01*
X161000Y663250D01*
Y664750D02*Y663250D01*
X158000Y659249D02*X162801D01*
X41000Y663250D02*X41750Y662500D01*
X41000Y667750D02*Y663250D01*
Y667750D02*X41750Y668500D01*
X43250D01*
X44000Y667750D01*
Y663250D01*
X43250Y662500D02*X44000Y663250D01*
X41750Y662500D02*X43250D01*
X41000Y664000D02*X44000Y667000D01*
X45801Y662500D02*X46551D01*
X48353Y663250D02*X49103Y662500D01*
X48353Y667750D02*Y663250D01*
Y667750D02*X49103Y668500D01*
X50603D01*
X51353Y667750D01*
Y663250D01*
X50603Y662500D02*X51353Y663250D01*
X49103Y662500D02*X50603D01*
X48353Y664000D02*X51353Y667000D01*
X55404Y668500D02*X56154Y667750D01*
X53904Y668500D02*X55404D01*
X53154Y667750D02*X53904Y668500D01*
X53154Y667750D02*Y663250D01*
X53904Y662500D01*
X55404Y665500D02*X56154Y664750D01*
X53154Y665500D02*X55404D01*
X53904Y662500D02*X55404D01*
X56154Y663250D01*
Y664750D02*Y663250D01*
X57956D02*X58706Y662500D01*
X57956Y667750D02*Y663250D01*
Y667750D02*X58706Y668500D01*
X60206D01*
X60956Y667750D01*
Y663250D01*
X60206Y662500D02*X60956Y663250D01*
X58706Y662500D02*X60206D01*
X57956Y664000D02*X60956Y667000D01*
X65457Y663250D02*X66207Y662500D01*
X65457Y667750D02*X66207Y668500D01*
X65457Y667750D02*Y663250D01*
X71459Y662500D02*X72959D01*
X72209Y668500D02*Y662500D01*
X70709Y667000D02*X72209Y668500D01*
X74760Y662500D02*X75510D01*
X77312Y668500D02*X80312D01*
X77312D02*Y665500D01*
X78062Y666250D01*
X79562D01*
X80312Y665500D01*
Y663250D01*
X79562Y662500D02*X80312Y663250D01*
X78062Y662500D02*X79562D01*
X77312Y663250D02*X78062Y662500D01*
X82113Y667750D02*X82863Y668500D01*
X85113D01*
X85863Y667750D01*
Y666250D01*
X82113Y662500D02*X85863Y666250D01*
X82113Y662500D02*X85863D01*
X87665Y665500D02*X90665Y668500D01*
X87665Y665500D02*X91415D01*
X90665Y668500D02*Y662500D01*
X93216Y663250D02*X93966Y662500D01*
X93216Y667750D02*Y663250D01*
Y667750D02*X93966Y668500D01*
X95466D01*
X96216Y667750D01*
Y663250D01*
X95466Y662500D02*X96216Y663250D01*
X93966Y662500D02*X95466D01*
X93216Y664000D02*X96216Y667000D01*
X101468Y664750D02*Y662500D01*
Y664750D02*X102218Y665500D01*
X102968D01*
X103718Y664750D01*
Y662500D01*
Y664750D02*X104468Y665500D01*
X105218D01*
X105968Y664750D01*
Y662500D01*
X100718Y665500D02*X101468Y664750D01*
X108519D02*Y662500D01*
Y664750D02*X109269Y665500D01*
X110019D01*
X110769Y664750D01*
Y662500D01*
Y664750D02*X111519Y665500D01*
X112269D01*
X113019Y664750D01*
Y662500D01*
X107769Y665500D02*X108519Y664750D01*
X117521Y668500D02*X118271Y667750D01*
Y663250D01*
X117521Y662500D02*X118271Y663250D01*
X41000Y659249D02*X120072D01*
X295600Y382400D02*X300400Y377600D01*
X295600D02*X300400Y382400D01*
X296400Y381600D02*X299600D01*
X296400D02*Y378400D01*
X299600D01*
Y381600D02*Y378400D01*
X315600Y402400D02*X320400Y397600D01*
X315600D02*X320400Y402400D01*
X316400Y401600D02*X319600D01*
X316400D02*Y398400D01*
X319600D01*
Y401600D02*Y398400D01*
X355600Y402400D02*X360400Y397600D01*
X355600D02*X360400Y402400D01*
X356400Y401600D02*X359600D01*
X356400D02*Y398400D01*
X359600D01*
Y401600D02*Y398400D01*
X375600Y382400D02*X380400Y377600D01*
X375600D02*X380400Y382400D01*
X376400Y381600D02*X379600D01*
X376400D02*Y378400D01*
X379600D01*
Y381600D02*Y378400D01*
X375600Y322400D02*X380400Y317600D01*
X375600D02*X380400Y322400D01*
X376400Y321600D02*X379600D01*
X376400D02*Y318400D01*
X379600D01*
Y321600D02*Y318400D01*
X355600Y302400D02*X360400Y297600D01*
X355600D02*X360400Y302400D01*
X356400Y301600D02*X359600D01*
X356400D02*Y298400D01*
X359600D01*
Y301600D02*Y298400D01*
X315600Y302400D02*X320400Y297600D01*
X315600D02*X320400Y302400D01*
X316400Y301600D02*X319600D01*
X316400D02*Y298400D01*
X319600D01*
Y301600D02*Y298400D01*
X295600Y322400D02*X300400Y317600D01*
X295600D02*X300400Y322400D01*
X296400Y321600D02*X299600D01*
X296400D02*Y318400D01*
X299600D01*
Y321600D02*Y318400D01*
X12600Y683650D02*X17400Y678850D01*
X12600D02*X17400Y683650D01*
X13400Y682850D02*X16600D01*
X13400D02*Y679650D01*
X16600D01*
Y682850D02*Y679650D01*
X195000Y683500D02*Y682750D01*
X196500Y681250D01*
X198000Y682750D01*
Y683500D02*Y682750D01*
X196500Y681250D02*Y677500D01*
X199801Y680500D02*X202051D01*
X199801Y677500D02*X202801D01*
X199801Y683500D02*Y677500D01*
Y683500D02*X202801D01*
X207603D02*X208353Y682750D01*
X205353Y683500D02*X207603D01*
X204603Y682750D02*X205353Y683500D01*
X204603Y682750D02*Y681250D01*
X205353Y680500D01*
X207603D01*
X208353Y679750D01*
Y678250D01*
X207603Y677500D02*X208353Y678250D01*
X205353Y677500D02*X207603D01*
X204603Y678250D02*X205353Y677500D01*
X195000Y674249D02*X210154D01*
X158000Y678250D02*X158750Y677500D01*
X158000Y679750D02*Y678250D01*
Y679750D02*X158750Y680500D01*
X160250D01*
X161000Y679750D01*
Y678250D01*
X160250Y677500D02*X161000Y678250D01*
X158750Y677500D02*X160250D01*
X158000Y681250D02*X158750Y680500D01*
X158000Y682750D02*Y681250D01*
Y682750D02*X158750Y683500D01*
X160250D01*
X161000Y682750D01*
Y681250D01*
X160250Y680500D02*X161000Y681250D01*
X158000Y674249D02*X162801D01*
X41000Y678250D02*X41750Y677500D01*
X41000Y682750D02*Y678250D01*
Y682750D02*X41750Y683500D01*
X43250D01*
X44000Y682750D01*
Y678250D01*
X43250Y677500D02*X44000Y678250D01*
X41750Y677500D02*X43250D01*
X41000Y679000D02*X44000Y682000D01*
X45801Y677500D02*X46551D01*
X48353Y678250D02*X49103Y677500D01*
X48353Y682750D02*Y678250D01*
Y682750D02*X49103Y683500D01*
X50603D01*
X51353Y682750D01*
Y678250D01*
X50603Y677500D02*X51353Y678250D01*
X49103Y677500D02*X50603D01*
X48353Y679000D02*X51353Y682000D01*
X53154Y683500D02*X56154D01*
X53154D02*Y680500D01*
X53904Y681250D01*
X55404D01*
X56154Y680500D01*
Y678250D01*
X55404Y677500D02*X56154Y678250D01*
X53904Y677500D02*X55404D01*
X53154Y678250D02*X53904Y677500D01*
X57956Y682750D02*X58706Y683500D01*
X60956D01*
X61706Y682750D01*
Y681250D01*
X57956Y677500D02*X61706Y681250D01*
X57956Y677500D02*X61706D01*
X66207Y678250D02*X66957Y677500D01*
X66207Y682750D02*X66957Y683500D01*
X66207Y682750D02*Y678250D01*
X72209Y677500D02*X73709D01*
X72959Y683500D02*Y677500D01*
X71459Y682000D02*X72959Y683500D01*
X75510Y677500D02*X76260D01*
X78062Y682750D02*X78812Y683500D01*
X80312D01*
X81062Y682750D01*
Y678250D01*
X80312Y677500D02*X81062Y678250D01*
X78812Y677500D02*X80312D01*
X78062Y678250D02*X78812Y677500D01*
Y680500D02*X81062D01*
X82863Y682750D02*X83613Y683500D01*
X85863D01*
X86613Y682750D01*
Y681250D01*
X82863Y677500D02*X86613Y681250D01*
X82863Y677500D02*X86613D01*
X88415Y678250D02*X89165Y677500D01*
X88415Y682750D02*Y678250D01*
Y682750D02*X89165Y683500D01*
X90665D01*
X91415Y682750D01*
Y678250D01*
X90665Y677500D02*X91415Y678250D01*
X89165Y677500D02*X90665D01*
X88415Y679000D02*X91415Y682000D01*
X93216Y678250D02*X93966Y677500D01*
X93216Y679750D02*Y678250D01*
Y679750D02*X93966Y680500D01*
X95466D01*
X96216Y679750D01*
Y678250D01*
X95466Y677500D02*X96216Y678250D01*
X93966Y677500D02*X95466D01*
X93216Y681250D02*X93966Y680500D01*
X93216Y682750D02*Y681250D01*
Y682750D02*X93966Y683500D01*
X95466D01*
X96216Y682750D01*
Y681250D01*
X95466Y680500D02*X96216Y681250D01*
X101468Y679750D02*Y677500D01*
Y679750D02*X102218Y680500D01*
X102968D01*
X103718Y679750D01*
Y677500D01*
Y679750D02*X104468Y680500D01*
X105218D01*
X105968Y679750D01*
Y677500D01*
X100718Y680500D02*X101468Y679750D01*
X108519D02*Y677500D01*
Y679750D02*X109269Y680500D01*
X110019D01*
X110769Y679750D01*
Y677500D01*
Y679750D02*X111519Y680500D01*
X112269D01*
X113019Y679750D01*
Y677500D01*
X107769Y680500D02*X108519Y679750D01*
X117521Y683500D02*X118271Y682750D01*
Y678250D01*
X117521Y677500D02*X118271Y678250D01*
X41000Y674249D02*X120072D01*
X423000Y194700D02*Y188300D01*
X419800Y191500D02*X426200D01*
X421400Y193100D02*X424600D01*
X421400D02*Y189900D01*
X424600D01*
Y193100D02*Y189900D01*
X423000Y174700D02*Y168300D01*
X419800Y171500D02*X426200D01*
X421400Y173100D02*X424600D01*
X421400D02*Y169900D01*
X424600D01*
Y173100D02*Y169900D01*
X423000Y214700D02*Y208300D01*
X419800Y211500D02*X426200D01*
X421400Y213100D02*X424600D01*
X421400D02*Y209900D01*
X424600D01*
Y213100D02*Y209900D01*
X15000Y699450D02*Y693050D01*
X11800Y696250D02*X18200D01*
X13400Y697850D02*X16600D01*
X13400D02*Y694650D01*
X16600D01*
Y697850D02*Y694650D01*
X195000Y698500D02*Y697750D01*
X196500Y696250D01*
X198000Y697750D01*
Y698500D02*Y697750D01*
X196500Y696250D02*Y692500D01*
X199801Y695500D02*X202051D01*
X199801Y692500D02*X202801D01*
X199801Y698500D02*Y692500D01*
Y698500D02*X202801D01*
X207603D02*X208353Y697750D01*
X205353Y698500D02*X207603D01*
X204603Y697750D02*X205353Y698500D01*
X204603Y697750D02*Y696250D01*
X205353Y695500D01*
X207603D01*
X208353Y694750D01*
Y693250D01*
X207603Y692500D02*X208353Y693250D01*
X205353Y692500D02*X207603D01*
X204603Y693250D02*X205353Y692500D01*
X195000Y689249D02*X210154D01*
X158000Y697750D02*X158750Y698500D01*
X160250D01*
X161000Y697750D01*
Y693250D01*
X160250Y692500D02*X161000Y693250D01*
X158750Y692500D02*X160250D01*
X158000Y693250D02*X158750Y692500D01*
Y695500D02*X161000D01*
X158000Y689249D02*X162801D01*
X41000Y693250D02*X41750Y692500D01*
X41000Y697750D02*Y693250D01*
Y697750D02*X41750Y698500D01*
X43250D01*
X44000Y697750D01*
Y693250D01*
X43250Y692500D02*X44000Y693250D01*
X41750Y692500D02*X43250D01*
X41000Y694000D02*X44000Y697000D01*
X45801Y692500D02*X46551D01*
X48353Y693250D02*X49103Y692500D01*
X48353Y697750D02*Y693250D01*
Y697750D02*X49103Y698500D01*
X50603D01*
X51353Y697750D01*
Y693250D01*
X50603Y692500D02*X51353Y693250D01*
X49103Y692500D02*X50603D01*
X48353Y694000D02*X51353Y697000D01*
X53154Y695500D02*X56154Y698500D01*
X53154Y695500D02*X56904D01*
X56154Y698500D02*Y692500D01*
X58706D02*X62456Y696250D01*
Y698500D02*Y696250D01*
X58706Y698500D02*X62456D01*
X66957Y693250D02*X67707Y692500D01*
X66957Y697750D02*X67707Y698500D01*
X66957Y697750D02*Y693250D01*
X72959Y692500D02*X74459D01*
X73709Y698500D02*Y692500D01*
X72209Y697000D02*X73709Y698500D01*
X76260Y692500D02*X77010D01*
X79562D02*X81062D01*
X80312Y698500D02*Y692500D01*
X78812Y697000D02*X80312Y698500D01*
X82863Y692500D02*X85863Y695500D01*
Y697750D02*Y695500D01*
X85113Y698500D02*X85863Y697750D01*
X83613Y698500D02*X85113D01*
X82863Y697750D02*X83613Y698500D01*
X82863Y697750D02*Y696250D01*
X83613Y695500D01*
X85863D01*
X87665Y697750D02*X88415Y698500D01*
X89915D01*
X90665Y697750D01*
Y693250D01*
X89915Y692500D02*X90665Y693250D01*
X88415Y692500D02*X89915D01*
X87665Y693250D02*X88415Y692500D01*
Y695500D02*X90665D01*
X92466Y693250D02*X93216Y692500D01*
X92466Y694750D02*Y693250D01*
Y694750D02*X93216Y695500D01*
X94716D01*
X95466Y694750D01*
Y693250D01*
X94716Y692500D02*X95466Y693250D01*
X93216Y692500D02*X94716D01*
X92466Y696250D02*X93216Y695500D01*
X92466Y697750D02*Y696250D01*
Y697750D02*X93216Y698500D01*
X94716D01*
X95466Y697750D01*
Y696250D01*
X94716Y695500D02*X95466Y696250D01*
X100718Y694750D02*Y692500D01*
Y694750D02*X101468Y695500D01*
X102218D01*
X102968Y694750D01*
Y692500D01*
Y694750D02*X103718Y695500D01*
X104468D01*
X105218Y694750D01*
Y692500D01*
X99968Y695500D02*X100718Y694750D01*
X107769D02*Y692500D01*
Y694750D02*X108519Y695500D01*
X109269D01*
X110019Y694750D01*
Y692500D01*
Y694750D02*X110769Y695500D01*
X111519D01*
X112269Y694750D01*
Y692500D01*
X107019Y695500D02*X107769Y694750D01*
X116771Y698500D02*X117521Y697750D01*
Y693250D01*
X116771Y692500D02*X117521Y693250D01*
X41000Y689249D02*X119322D01*
X202500Y407500D02*Y404300D01*
Y407500D02*X205273Y409100D01*
X202500Y407500D02*X199727Y409100D01*
X200900Y407500D02*G75*G03X204100Y407500I1600J0D01*G01*
G75*G03X200900Y407500I-1600J0D01*G01*
X212500D02*Y404300D01*
Y407500D02*X215273Y409100D01*
X212500Y407500D02*X209727Y409100D01*
X210900Y407500D02*G75*G03X214100Y407500I1600J0D01*G01*
G75*G03X210900Y407500I-1600J0D01*G01*
X164500D02*Y404300D01*
Y407500D02*X167273Y409100D01*
X164500Y407500D02*X161727Y409100D01*
X162900Y407500D02*G75*G03X166100Y407500I1600J0D01*G01*
G75*G03X162900Y407500I-1600J0D01*G01*
X174500D02*Y404300D01*
Y407500D02*X177273Y409100D01*
X174500Y407500D02*X171727Y409100D01*
X172900Y407500D02*G75*G03X176100Y407500I1600J0D01*G01*
G75*G03X172900Y407500I-1600J0D01*G01*
X126500D02*Y404300D01*
Y407500D02*X129273Y409100D01*
X126500Y407500D02*X123727Y409100D01*
X124900Y407500D02*G75*G03X128100Y407500I1600J0D01*G01*
G75*G03X124900Y407500I-1600J0D01*G01*
X136500D02*Y404300D01*
Y407500D02*X139273Y409100D01*
X136500Y407500D02*X133727Y409100D01*
X134900Y407500D02*G75*G03X138100Y407500I1600J0D01*G01*
G75*G03X134900Y407500I-1600J0D01*G01*
X15000Y711250D02*Y708050D01*
Y711250D02*X17773Y712850D01*
X15000Y711250D02*X12227Y712850D01*
X13400Y711250D02*G75*G03X16600Y711250I1600J0D01*G01*
G75*G03X13400Y711250I-1600J0D01*G01*
X195000Y713500D02*Y712750D01*
X196500Y711250D01*
X198000Y712750D01*
Y713500D02*Y712750D01*
X196500Y711250D02*Y707500D01*
X199801Y710500D02*X202051D01*
X199801Y707500D02*X202801D01*
X199801Y713500D02*Y707500D01*
Y713500D02*X202801D01*
X207603D02*X208353Y712750D01*
X205353Y713500D02*X207603D01*
X204603Y712750D02*X205353Y713500D01*
X204603Y712750D02*Y711250D01*
X205353Y710500D01*
X207603D01*
X208353Y709750D01*
Y708250D01*
X207603Y707500D02*X208353Y708250D01*
X205353Y707500D02*X207603D01*
X204603Y708250D02*X205353Y707500D01*
X195000Y704249D02*X210154D01*
X160250Y713500D02*X161000Y712750D01*
X158750Y713500D02*X160250D01*
X158000Y712750D02*X158750Y713500D01*
X158000Y712750D02*Y708250D01*
X158750Y707500D01*
X160250Y710500D02*X161000Y709750D01*
X158000Y710500D02*X160250D01*
X158750Y707500D02*X160250D01*
X161000Y708250D01*
Y709750D02*Y708250D01*
X158000Y704249D02*X162801D01*
X41000Y708250D02*X41750Y707500D01*
X41000Y712750D02*Y708250D01*
Y712750D02*X41750Y713500D01*
X43250D01*
X44000Y712750D01*
Y708250D01*
X43250Y707500D02*X44000Y708250D01*
X41750Y707500D02*X43250D01*
X41000Y709000D02*X44000Y712000D01*
X45801Y707500D02*X46551D01*
X48353Y708250D02*X49103Y707500D01*
X48353Y712750D02*Y708250D01*
Y712750D02*X49103Y713500D01*
X50603D01*
X51353Y712750D01*
Y708250D01*
X50603Y707500D02*X51353Y708250D01*
X49103Y707500D02*X50603D01*
X48353Y709000D02*X51353Y712000D01*
X53154Y710500D02*X56154Y713500D01*
X53154Y710500D02*X56904D01*
X56154Y713500D02*Y707500D01*
X58706Y712750D02*X59456Y713500D01*
X60956D01*
X61706Y712750D01*
Y708250D01*
X60956Y707500D02*X61706Y708250D01*
X59456Y707500D02*X60956D01*
X58706Y708250D02*X59456Y707500D01*
Y710500D02*X61706D01*
X66207Y708250D02*X66957Y707500D01*
X66207Y712750D02*X66957Y713500D01*
X66207Y712750D02*Y708250D01*
X72209Y707500D02*X73709D01*
X72959Y713500D02*Y707500D01*
X71459Y712000D02*X72959Y713500D01*
X75510Y707500D02*X76260D01*
X78062Y708250D02*X78812Y707500D01*
X78062Y712750D02*Y708250D01*
Y712750D02*X78812Y713500D01*
X80312D01*
X81062Y712750D01*
Y708250D01*
X80312Y707500D02*X81062Y708250D01*
X78812Y707500D02*X80312D01*
X78062Y709000D02*X81062Y712000D01*
X82863Y707500D02*X85863Y710500D01*
Y712750D02*Y710500D01*
X85113Y713500D02*X85863Y712750D01*
X83613Y713500D02*X85113D01*
X82863Y712750D02*X83613Y713500D01*
X82863Y712750D02*Y711250D01*
X83613Y710500D01*
X85863D01*
X87665Y712750D02*X88415Y713500D01*
X90665D01*
X91415Y712750D01*
Y711250D01*
X87665Y707500D02*X91415Y711250D01*
X87665Y707500D02*X91415D01*
X93216Y712750D02*X93966Y713500D01*
X96216D01*
X96966Y712750D01*
Y711250D01*
X93216Y707500D02*X96966Y711250D01*
X93216Y707500D02*X96966D01*
X102218Y709750D02*Y707500D01*
Y709750D02*X102968Y710500D01*
X103718D01*
X104468Y709750D01*
Y707500D01*
Y709750D02*X105218Y710500D01*
X105968D01*
X106718Y709750D01*
Y707500D01*
X101468Y710500D02*X102218Y709750D01*
X109269D02*Y707500D01*
Y709750D02*X110019Y710500D01*
X110769D01*
X111519Y709750D01*
Y707500D01*
Y709750D02*X112269Y710500D01*
X113019D01*
X113769Y709750D01*
Y707500D01*
X108519Y710500D02*X109269Y709750D01*
X118271Y713500D02*X119021Y712750D01*
Y708250D01*
X118271Y707500D02*X119021Y708250D01*
X41000Y704249D02*X120822D01*
X424372Y370742D02*X427572D01*
X424372D02*Y367542D01*
X427572D01*
Y370742D02*Y367542D01*
X424372Y360742D02*X427572D01*
X424372D02*Y357542D01*
X427572D01*
Y360742D02*Y357542D01*
X424372Y350742D02*X427572D01*
X424372D02*Y347542D01*
X427572D01*
Y350742D02*Y347542D01*
X424372Y340742D02*X427572D01*
X424372D02*Y337542D01*
X427572D01*
Y340742D02*Y337542D01*
X13400Y727850D02*X16600D01*
X13400D02*Y724650D01*
X16600D01*
Y727850D02*Y724650D01*
X195000Y728500D02*Y727750D01*
X196500Y726250D01*
X198000Y727750D01*
Y728500D02*Y727750D01*
X196500Y726250D02*Y722500D01*
X199801Y725500D02*X202051D01*
X199801Y722500D02*X202801D01*
X199801Y728500D02*Y722500D01*
Y728500D02*X202801D01*
X207603D02*X208353Y727750D01*
X205353Y728500D02*X207603D01*
X204603Y727750D02*X205353Y728500D01*
X204603Y727750D02*Y726250D01*
X205353Y725500D01*
X207603D01*
X208353Y724750D01*
Y723250D01*
X207603Y722500D02*X208353Y723250D01*
X205353Y722500D02*X207603D01*
X204603Y723250D02*X205353Y722500D01*
X195000Y719249D02*X210154D01*
X158000Y725500D02*X161000Y728500D01*
X158000Y725500D02*X161750D01*
X161000Y728500D02*Y722500D01*
X158000Y719249D02*X163551D01*
X41000Y723250D02*X41750Y722500D01*
X41000Y727750D02*Y723250D01*
Y727750D02*X41750Y728500D01*
X43250D01*
X44000Y727750D01*
Y723250D01*
X43250Y722500D02*X44000Y723250D01*
X41750Y722500D02*X43250D01*
X41000Y724000D02*X44000Y727000D01*
X45801Y722500D02*X46551D01*
X48353Y723250D02*X49103Y722500D01*
X48353Y727750D02*Y723250D01*
Y727750D02*X49103Y728500D01*
X50603D01*
X51353Y727750D01*
Y723250D01*
X50603Y722500D02*X51353Y723250D01*
X49103Y722500D02*X50603D01*
X48353Y724000D02*X51353Y727000D01*
X53154Y727750D02*X53904Y728500D01*
X55404D01*
X56154Y727750D01*
Y723250D01*
X55404Y722500D02*X56154Y723250D01*
X53904Y722500D02*X55404D01*
X53154Y723250D02*X53904Y722500D01*
Y725500D02*X56154D01*
X57956Y722500D02*X60956Y725500D01*
Y727750D02*Y725500D01*
X60206Y728500D02*X60956Y727750D01*
X58706Y728500D02*X60206D01*
X57956Y727750D02*X58706Y728500D01*
X57956Y727750D02*Y726250D01*
X58706Y725500D01*
X60956D01*
X65457Y723250D02*X66207Y722500D01*
X65457Y727750D02*X66207Y728500D01*
X65457Y727750D02*Y723250D01*
X70709D02*X71459Y722500D01*
X70709Y727750D02*Y723250D01*
Y727750D02*X71459Y728500D01*
X72959D01*
X73709Y727750D01*
Y723250D01*
X72959Y722500D02*X73709Y723250D01*
X71459Y722500D02*X72959D01*
X70709Y724000D02*X73709Y727000D01*
X75510Y722500D02*X76260D01*
X78062D02*X81062Y725500D01*
Y727750D02*Y725500D01*
X80312Y728500D02*X81062Y727750D01*
X78812Y728500D02*X80312D01*
X78062Y727750D02*X78812Y728500D01*
X78062Y727750D02*Y726250D01*
X78812Y725500D01*
X81062D01*
X82863Y722500D02*X85863Y725500D01*
Y727750D02*Y725500D01*
X85113Y728500D02*X85863Y727750D01*
X83613Y728500D02*X85113D01*
X82863Y727750D02*X83613Y728500D01*
X82863Y727750D02*Y726250D01*
X83613Y725500D01*
X85863D01*
X87665Y723250D02*X88415Y722500D01*
X87665Y727750D02*Y723250D01*
Y727750D02*X88415Y728500D01*
X89915D01*
X90665Y727750D01*
Y723250D01*
X89915Y722500D02*X90665Y723250D01*
X88415Y722500D02*X89915D01*
X87665Y724000D02*X90665Y727000D01*
X94716Y728500D02*X95466Y727750D01*
X93216Y728500D02*X94716D01*
X92466Y727750D02*X93216Y728500D01*
X92466Y727750D02*Y723250D01*
X93216Y722500D01*
X94716Y725500D02*X95466Y724750D01*
X92466Y725500D02*X94716D01*
X93216Y722500D02*X94716D01*
X95466Y723250D01*
Y724750D02*Y723250D01*
X100718Y724750D02*Y722500D01*
Y724750D02*X101468Y725500D01*
X102218D01*
X102968Y724750D01*
Y722500D01*
Y724750D02*X103718Y725500D01*
X104468D01*
X105218Y724750D01*
Y722500D01*
X99968Y725500D02*X100718Y724750D01*
X107769D02*Y722500D01*
Y724750D02*X108519Y725500D01*
X109269D01*
X110019Y724750D01*
Y722500D01*
Y724750D02*X110769Y725500D01*
X111519D01*
X112269Y724750D01*
Y722500D01*
X107019Y725500D02*X107769Y724750D01*
X116771Y728500D02*X117521Y727750D01*
Y723250D01*
X116771Y722500D02*X117521Y723250D01*
X41000Y719249D02*X119322D01*
X341200Y116000D02*G75*G03X342800Y116000I800J0D01*G01*
G75*G03X341200Y116000I-800J0D01*G01*
X331200D02*G75*G03X332800Y116000I800J0D01*G01*
G75*G03X331200Y116000I-800J0D01*G01*
X285200Y296500D02*G75*G03X286800Y296500I800J0D01*G01*
G75*G03X285200Y296500I-800J0D01*G01*
X414294Y298440D02*G75*G03X415894Y298440I800J0D01*G01*
G75*G03X414294Y298440I-800J0D01*G01*
X424200Y298500D02*G75*G03X425800Y298500I800J0D01*G01*
G75*G03X424200Y298500I-800J0D01*G01*
Y308500D02*G75*G03X425800Y308500I800J0D01*G01*
G75*G03X424200Y308500I-800J0D01*G01*
Y318500D02*G75*G03X425800Y318500I800J0D01*G01*
G75*G03X424200Y318500I-800J0D01*G01*
X223700Y346500D02*G75*G03X225300Y346500I800J0D01*G01*
G75*G03X223700Y346500I-800J0D01*G01*
Y336500D02*G75*G03X225300Y336500I800J0D01*G01*
G75*G03X223700Y336500I-800J0D01*G01*
Y326500D02*G75*G03X225300Y326500I800J0D01*G01*
G75*G03X223700Y326500I-800J0D01*G01*
X163200Y127000D02*G75*G03X164800Y127000I800J0D01*G01*
G75*G03X163200Y127000I-800J0D01*G01*
Y137000D02*G75*G03X164800Y137000I800J0D01*G01*
G75*G03X163200Y137000I-800J0D01*G01*
X14200Y741250D02*G75*G03X15800Y741250I800J0D01*G01*
G75*G03X14200Y741250I-800J0D01*G01*
X195000Y743500D02*Y742750D01*
X196500Y741250D01*
X198000Y742750D01*
Y743500D02*Y742750D01*
X196500Y741250D02*Y737500D01*
X199801Y740500D02*X202051D01*
X199801Y737500D02*X202801D01*
X199801Y743500D02*Y737500D01*
Y743500D02*X202801D01*
X207603D02*X208353Y742750D01*
X205353Y743500D02*X207603D01*
X204603Y742750D02*X205353Y743500D01*
X204603Y742750D02*Y741250D01*
X205353Y740500D01*
X207603D01*
X208353Y739750D01*
Y738250D01*
X207603Y737500D02*X208353Y738250D01*
X205353Y737500D02*X207603D01*
X204603Y738250D02*X205353Y737500D01*
X195000Y734249D02*X210154D01*
X158750Y737500D02*X160250D01*
X159500Y743500D02*Y737500D01*
X158000Y742000D02*X159500Y743500D01*
X162051Y742750D02*X162801Y743500D01*
X165051D01*
X165801Y742750D01*
Y741250D01*
X162051Y737500D02*X165801Y741250D01*
X162051Y737500D02*X165801D01*
X158000Y734249D02*X167603D01*
X41000Y738250D02*X41750Y737500D01*
X41000Y742750D02*Y738250D01*
Y742750D02*X41750Y743500D01*
X43250D01*
X44000Y742750D01*
Y738250D01*
X43250Y737500D02*X44000Y738250D01*
X41750Y737500D02*X43250D01*
X41000Y739000D02*X44000Y742000D01*
X45801Y737500D02*X46551D01*
X48353Y738250D02*X49103Y737500D01*
X48353Y742750D02*Y738250D01*
Y742750D02*X49103Y743500D01*
X50603D01*
X51353Y742750D01*
Y738250D01*
X50603Y737500D02*X51353Y738250D01*
X49103Y737500D02*X50603D01*
X48353Y739000D02*X51353Y742000D01*
X53154Y742750D02*X53904Y743500D01*
X55404D01*
X56154Y742750D01*
Y738250D01*
X55404Y737500D02*X56154Y738250D01*
X53904Y737500D02*X55404D01*
X53154Y738250D02*X53904Y737500D01*
Y740500D02*X56154D01*
X57956Y738250D02*X58706Y737500D01*
X57956Y739750D02*Y738250D01*
Y739750D02*X58706Y740500D01*
X60206D01*
X60956Y739750D01*
Y738250D01*
X60206Y737500D02*X60956Y738250D01*
X58706Y737500D02*X60206D01*
X57956Y741250D02*X58706Y740500D01*
X57956Y742750D02*Y741250D01*
Y742750D02*X58706Y743500D01*
X60206D01*
X60956Y742750D01*
Y741250D01*
X60206Y740500D02*X60956Y741250D01*
X65457Y738250D02*X66207Y737500D01*
X65457Y742750D02*X66207Y743500D01*
X65457Y742750D02*Y738250D01*
X70709D02*X71459Y737500D01*
X70709Y742750D02*Y738250D01*
Y742750D02*X71459Y743500D01*
X72959D01*
X73709Y742750D01*
Y738250D01*
X72959Y737500D02*X73709Y738250D01*
X71459Y737500D02*X72959D01*
X70709Y739000D02*X73709Y742000D01*
X75510Y737500D02*X76260D01*
X78062D02*X81062Y740500D01*
Y742750D02*Y740500D01*
X80312Y743500D02*X81062Y742750D01*
X78812Y743500D02*X80312D01*
X78062Y742750D02*X78812Y743500D01*
X78062Y742750D02*Y741250D01*
X78812Y740500D01*
X81062D01*
X85113Y743500D02*X85863Y742750D01*
X83613Y743500D02*X85113D01*
X82863Y742750D02*X83613Y743500D01*
X82863Y742750D02*Y738250D01*
X83613Y737500D01*
X85113Y740500D02*X85863Y739750D01*
X82863Y740500D02*X85113D01*
X83613Y737500D02*X85113D01*
X85863Y738250D01*
Y739750D02*Y738250D01*
X87665Y743500D02*X90665D01*
X87665D02*Y740500D01*
X88415Y741250D01*
X89915D01*
X90665Y740500D01*
Y738250D01*
X89915Y737500D02*X90665Y738250D01*
X88415Y737500D02*X89915D01*
X87665Y738250D02*X88415Y737500D01*
X92466Y742750D02*X93216Y743500D01*
X95466D01*
X96216Y742750D01*
Y741250D01*
X92466Y737500D02*X96216Y741250D01*
X92466Y737500D02*X96216D01*
X101468Y739750D02*Y737500D01*
Y739750D02*X102218Y740500D01*
X102968D01*
X103718Y739750D01*
Y737500D01*
Y739750D02*X104468Y740500D01*
X105218D01*
X105968Y739750D01*
Y737500D01*
X100718Y740500D02*X101468Y739750D01*
X108519D02*Y737500D01*
Y739750D02*X109269Y740500D01*
X110019D01*
X110769Y739750D01*
Y737500D01*
Y739750D02*X111519Y740500D01*
X112269D01*
X113019Y739750D01*
Y737500D01*
X107769Y740500D02*X108519Y739750D01*
X117521Y743500D02*X118271Y742750D01*
Y738250D01*
X117521Y737500D02*X118271Y738250D01*
X41000Y734249D02*X120072D01*
X125300Y363200D02*X127700Y360800D01*
X125300D02*X127700Y363200D01*
X107300Y270700D02*X109700Y268300D01*
X107300D02*X109700Y270700D01*
X107300Y264200D02*X109700Y261800D01*
X107300D02*X109700Y264200D01*
X84300Y301700D02*X86700Y299300D01*
X84300D02*X86700Y301700D01*
X107300Y285200D02*X109700Y282800D01*
X107300D02*X109700Y285200D01*
X94300Y298700D02*X96700Y296300D01*
X94300D02*X96700Y298700D01*
X112800Y412700D02*X115200Y410300D01*
X112800D02*X115200Y412700D01*
X296800Y296700D02*X299200Y294300D01*
X296800D02*X299200Y296700D01*
X368800Y277700D02*X371200Y275300D01*
X368800D02*X371200Y277700D01*
X426800Y242700D02*X429200Y240300D01*
X426800D02*X429200Y242700D01*
X316800Y120700D02*X319200Y118300D01*
X316800D02*X319200Y120700D01*
X419800Y242700D02*X422200Y240300D01*
X419800D02*X422200Y242700D01*
X13800Y757450D02*X16200Y755050D01*
X13800D02*X16200Y757450D01*
X195000Y758500D02*Y757750D01*
X196500Y756250D01*
X198000Y757750D01*
Y758500D02*Y757750D01*
X196500Y756250D02*Y752500D01*
X199801Y755500D02*X202051D01*
X199801Y752500D02*X202801D01*
X199801Y758500D02*Y752500D01*
Y758500D02*X202801D01*
X207603D02*X208353Y757750D01*
X205353Y758500D02*X207603D01*
X204603Y757750D02*X205353Y758500D01*
X204603Y757750D02*Y756250D01*
X205353Y755500D01*
X207603D01*
X208353Y754750D01*
Y753250D01*
X207603Y752500D02*X208353Y753250D01*
X205353Y752500D02*X207603D01*
X204603Y753250D02*X205353Y752500D01*
X195000Y749249D02*X210154D01*
X158750Y752500D02*X160250D01*
X159500Y758500D02*Y752500D01*
X158000Y757000D02*X159500Y758500D01*
X162051Y757750D02*X162801Y758500D01*
X165051D01*
X165801Y757750D01*
Y756250D01*
X162051Y752500D02*X165801Y756250D01*
X162051Y752500D02*X165801D01*
X158000Y749249D02*X167603D01*
X41000Y753250D02*X41750Y752500D01*
X41000Y757750D02*Y753250D01*
Y757750D02*X41750Y758500D01*
X43250D01*
X44000Y757750D01*
Y753250D01*
X43250Y752500D02*X44000Y753250D01*
X41750Y752500D02*X43250D01*
X41000Y754000D02*X44000Y757000D01*
X45801Y752500D02*X46551D01*
X48353Y753250D02*X49103Y752500D01*
X48353Y757750D02*Y753250D01*
Y757750D02*X49103Y758500D01*
X50603D01*
X51353Y757750D01*
Y753250D01*
X50603Y752500D02*X51353Y753250D01*
X49103Y752500D02*X50603D01*
X48353Y754000D02*X51353Y757000D01*
X53154Y757750D02*X53904Y758500D01*
X55404D01*
X56154Y757750D01*
Y753250D01*
X55404Y752500D02*X56154Y753250D01*
X53904Y752500D02*X55404D01*
X53154Y753250D02*X53904Y752500D01*
Y755500D02*X56154D01*
X57956Y758500D02*X60956D01*
X57956D02*Y755500D01*
X58706Y756250D01*
X60206D01*
X60956Y755500D01*
Y753250D01*
X60206Y752500D02*X60956Y753250D01*
X58706Y752500D02*X60206D01*
X57956Y753250D02*X58706Y752500D01*
X65457Y753250D02*X66207Y752500D01*
X65457Y757750D02*X66207Y758500D01*
X65457Y757750D02*Y753250D01*
X70709D02*X71459Y752500D01*
X70709Y757750D02*Y753250D01*
Y757750D02*X71459Y758500D01*
X72959D01*
X73709Y757750D01*
Y753250D01*
X72959Y752500D02*X73709Y753250D01*
X71459Y752500D02*X72959D01*
X70709Y754000D02*X73709Y757000D01*
X75510Y752500D02*X76260D01*
X78062Y753250D02*X78812Y752500D01*
X78062Y754750D02*Y753250D01*
Y754750D02*X78812Y755500D01*
X80312D01*
X81062Y754750D01*
Y753250D01*
X80312Y752500D02*X81062Y753250D01*
X78812Y752500D02*X80312D01*
X78062Y756250D02*X78812Y755500D01*
X78062Y757750D02*Y756250D01*
Y757750D02*X78812Y758500D01*
X80312D01*
X81062Y757750D01*
Y756250D01*
X80312Y755500D02*X81062Y756250D01*
X82863Y753250D02*X83613Y752500D01*
X82863Y754750D02*Y753250D01*
Y754750D02*X83613Y755500D01*
X85113D01*
X85863Y754750D01*
Y753250D01*
X85113Y752500D02*X85863Y753250D01*
X83613Y752500D02*X85113D01*
X82863Y756250D02*X83613Y755500D01*
X82863Y757750D02*Y756250D01*
Y757750D02*X83613Y758500D01*
X85113D01*
X85863Y757750D01*
Y756250D01*
X85113Y755500D02*X85863Y756250D01*
X87665Y752500D02*X90665Y755500D01*
Y757750D02*Y755500D01*
X89915Y758500D02*X90665Y757750D01*
X88415Y758500D02*X89915D01*
X87665Y757750D02*X88415Y758500D01*
X87665Y757750D02*Y756250D01*
X88415Y755500D01*
X90665D01*
X92466Y753250D02*X93216Y752500D01*
X92466Y757750D02*Y753250D01*
Y757750D02*X93216Y758500D01*
X94716D01*
X95466Y757750D01*
Y753250D01*
X94716Y752500D02*X95466Y753250D01*
X93216Y752500D02*X94716D01*
X92466Y754000D02*X95466Y757000D01*
X100718Y754750D02*Y752500D01*
Y754750D02*X101468Y755500D01*
X102218D01*
X102968Y754750D01*
Y752500D01*
Y754750D02*X103718Y755500D01*
X104468D01*
X105218Y754750D01*
Y752500D01*
X99968Y755500D02*X100718Y754750D01*
X107769D02*Y752500D01*
Y754750D02*X108519Y755500D01*
X109269D01*
X110019Y754750D01*
Y752500D01*
Y754750D02*X110769Y755500D01*
X111519D01*
X112269Y754750D01*
Y752500D01*
X107019Y755500D02*X107769Y754750D01*
X116771Y758500D02*X117521Y757750D01*
Y753250D01*
X116771Y752500D02*X117521Y753250D01*
X41000Y749249D02*X119322D01*
X383500Y127600D02*Y124400D01*
X381900Y126000D02*X385100D01*
X363500Y127600D02*Y124400D01*
X361900Y126000D02*X365100D01*
X15000Y772850D02*Y769650D01*
X13400Y771250D02*X16600D01*
X195000Y773500D02*Y772750D01*
X196500Y771250D01*
X198000Y772750D01*
Y773500D02*Y772750D01*
X196500Y771250D02*Y767500D01*
X199801Y770500D02*X202051D01*
X199801Y767500D02*X202801D01*
X199801Y773500D02*Y767500D01*
Y773500D02*X202801D01*
X207603D02*X208353Y772750D01*
X205353Y773500D02*X207603D01*
X204603Y772750D02*X205353Y773500D01*
X204603Y772750D02*Y771250D01*
X205353Y770500D01*
X207603D01*
X208353Y769750D01*
Y768250D01*
X207603Y767500D02*X208353Y768250D01*
X205353Y767500D02*X207603D01*
X204603Y768250D02*X205353Y767500D01*
X195000Y764249D02*X210154D01*
X158000Y772750D02*X158750Y773500D01*
X161000D01*
X161750Y772750D01*
Y771250D01*
X158000Y767500D02*X161750Y771250D01*
X158000Y767500D02*X161750D01*
X158000Y764249D02*X163551D01*
X41000Y768250D02*X41750Y767500D01*
X41000Y772750D02*Y768250D01*
Y772750D02*X41750Y773500D01*
X43250D01*
X44000Y772750D01*
Y768250D01*
X43250Y767500D02*X44000Y768250D01*
X41750Y767500D02*X43250D01*
X41000Y769000D02*X44000Y772000D01*
X45801Y767500D02*X46551D01*
X48353Y768250D02*X49103Y767500D01*
X48353Y772750D02*Y768250D01*
Y772750D02*X49103Y773500D01*
X50603D01*
X51353Y772750D01*
Y768250D01*
X50603Y767500D02*X51353Y768250D01*
X49103Y767500D02*X50603D01*
X48353Y769000D02*X51353Y772000D01*
X53154Y772750D02*X53904Y773500D01*
X55404D01*
X56154Y772750D01*
Y768250D01*
X55404Y767500D02*X56154Y768250D01*
X53904Y767500D02*X55404D01*
X53154Y768250D02*X53904Y767500D01*
Y770500D02*X56154D01*
X57956Y768250D02*X58706Y767500D01*
X57956Y772750D02*Y768250D01*
Y772750D02*X58706Y773500D01*
X60206D01*
X60956Y772750D01*
Y768250D01*
X60206Y767500D02*X60956Y768250D01*
X58706Y767500D02*X60206D01*
X57956Y769000D02*X60956Y772000D01*
X65457Y768250D02*X66207Y767500D01*
X65457Y772750D02*X66207Y773500D01*
X65457Y772750D02*Y768250D01*
X70709D02*X71459Y767500D01*
X70709Y772750D02*Y768250D01*
Y772750D02*X71459Y773500D01*
X72959D01*
X73709Y772750D01*
Y768250D01*
X72959Y767500D02*X73709Y768250D01*
X71459Y767500D02*X72959D01*
X70709Y769000D02*X73709Y772000D01*
X75510Y767500D02*X76260D01*
X78062D02*X81812Y771250D01*
Y773500D02*Y771250D01*
X78062Y773500D02*X81812D01*
X85863D02*X86613Y772750D01*
X84363Y773500D02*X85863D01*
X83613Y772750D02*X84363Y773500D01*
X83613Y772750D02*Y768250D01*
X84363Y767500D01*
X85863Y770500D02*X86613Y769750D01*
X83613Y770500D02*X85863D01*
X84363Y767500D02*X85863D01*
X86613Y768250D01*
Y769750D02*Y768250D01*
X88415Y772750D02*X89165Y773500D01*
X91415D01*
X92165Y772750D01*
Y771250D01*
X88415Y767500D02*X92165Y771250D01*
X88415Y767500D02*X92165D01*
X93966Y768250D02*X94716Y767500D01*
X93966Y772750D02*Y768250D01*
Y772750D02*X94716Y773500D01*
X96216D01*
X96966Y772750D01*
Y768250D01*
X96216Y767500D02*X96966Y768250D01*
X94716Y767500D02*X96216D01*
X93966Y769000D02*X96966Y772000D01*
X102218Y769750D02*Y767500D01*
Y769750D02*X102968Y770500D01*
X103718D01*
X104468Y769750D01*
Y767500D01*
Y769750D02*X105218Y770500D01*
X105968D01*
X106718Y769750D01*
Y767500D01*
X101468Y770500D02*X102218Y769750D01*
X109269D02*Y767500D01*
Y769750D02*X110019Y770500D01*
X110769D01*
X111519Y769750D01*
Y767500D01*
Y769750D02*X112269Y770500D01*
X113019D01*
X113769Y769750D01*
Y767500D01*
X108519Y770500D02*X109269Y769750D01*
X118271Y773500D02*X119021Y772750D01*
Y768250D01*
X118271Y767500D02*X119021Y768250D01*
X41000Y764249D02*X120822D01*
X263500Y258000D02*Y256400D01*
Y258000D02*X264886Y258800D01*
X263500Y258000D02*X262114Y258800D01*
X293500Y258000D02*Y256400D01*
Y258000D02*X294886Y258800D01*
X293500Y258000D02*X292114Y258800D01*
X310500Y273000D02*Y271400D01*
Y273000D02*X311886Y273800D01*
X310500Y273000D02*X309114Y273800D01*
X340500Y273000D02*Y271400D01*
Y273000D02*X341886Y273800D01*
X340500Y273000D02*X339114Y273800D01*
X340500Y258000D02*Y256400D01*
Y258000D02*X341886Y258800D01*
X340500Y258000D02*X339114Y258800D01*
X310500Y258000D02*Y256400D01*
Y258000D02*X311886Y258800D01*
X310500Y258000D02*X309114Y258800D01*
X293500Y273000D02*Y271400D01*
Y273000D02*X294886Y273800D01*
X293500Y273000D02*X292114Y273800D01*
X263500Y273000D02*Y271400D01*
Y273000D02*X264886Y273800D01*
X263500Y273000D02*X262114Y273800D01*
X225000Y366500D02*Y364900D01*
Y366500D02*X226386Y367300D01*
X225000Y366500D02*X223614Y367300D01*
X225000Y396500D02*Y394900D01*
Y396500D02*X226386Y397300D01*
X225000Y396500D02*X223614Y397300D01*
X181500Y213000D02*Y211400D01*
Y213000D02*X182886Y213800D01*
X181500Y213000D02*X180114Y213800D01*
X181500Y183000D02*Y181400D01*
Y183000D02*X182886Y183800D01*
X181500Y183000D02*X180114Y183800D01*
X163000Y352500D02*Y350900D01*
Y352500D02*X164386Y353300D01*
X163000Y352500D02*X161614Y353300D01*
X144500Y347500D02*Y345900D01*
Y347500D02*X145886Y348300D01*
X144500Y347500D02*X143114Y348300D01*
X156000Y328500D02*Y326900D01*
Y328500D02*X157386Y329300D01*
X156000Y328500D02*X154614Y329300D01*
X136000Y314000D02*Y312400D01*
Y314000D02*X137386Y314800D01*
X136000Y314000D02*X134614Y314800D01*
X212000Y251500D02*Y249900D01*
Y251500D02*X213386Y252300D01*
X212000Y251500D02*X210614Y252300D01*
X188500Y120500D02*Y118900D01*
Y120500D02*X189886Y121300D01*
X188500Y120500D02*X187114Y121300D01*
X183500Y114500D02*Y112900D01*
Y114500D02*X184886Y115300D01*
X183500Y114500D02*X182114Y115300D01*
X188500Y129500D02*Y127900D01*
Y129500D02*X189886Y130300D01*
X188500Y129500D02*X187114Y130300D01*
X183500Y134500D02*Y132900D01*
Y134500D02*X184886Y135300D01*
X183500Y134500D02*X182114Y135300D01*
X199000Y234000D02*Y232400D01*
Y234000D02*X200386Y234800D01*
X199000Y234000D02*X197614Y234800D01*
X188500Y144500D02*Y142900D01*
Y144500D02*X189886Y145300D01*
X188500Y144500D02*X187114Y145300D01*
X147000Y271500D02*Y269900D01*
Y271500D02*X148386Y272300D01*
X147000Y271500D02*X145614Y272300D01*
X87000Y244500D02*Y242900D01*
Y244500D02*X88386Y245300D01*
X87000Y244500D02*X85614Y245300D01*
X90000Y232500D02*Y230900D01*
Y232500D02*X91386Y233300D01*
X90000Y232500D02*X88614Y233300D01*
X108000Y244500D02*Y242900D01*
Y244500D02*X109386Y245300D01*
X108000Y244500D02*X106614Y245300D01*
X198500Y287500D02*Y285900D01*
Y287500D02*X199886Y288300D01*
X198500Y287500D02*X197114Y288300D01*
X211500Y282000D02*Y280400D01*
Y282000D02*X212886Y282800D01*
X211500Y282000D02*X210114Y282800D01*
X99000Y166000D02*Y164400D01*
Y166000D02*X100386Y166800D01*
X99000Y166000D02*X97614Y166800D01*
X94000Y162000D02*Y160400D01*
Y162000D02*X95386Y162800D01*
X94000Y162000D02*X92614Y162800D01*
X99000Y189000D02*Y187400D01*
Y189000D02*X100386Y189800D01*
X99000Y189000D02*X97614Y189800D01*
X99000Y157500D02*Y155900D01*
Y157500D02*X100386Y158300D01*
X99000Y157500D02*X97614Y158300D01*
X117000Y171000D02*Y169400D01*
Y171000D02*X118386Y171800D01*
X117000Y171000D02*X115614Y171800D01*
X117000Y179000D02*Y177400D01*
Y179000D02*X118386Y179800D01*
X117000Y179000D02*X115614Y179800D01*
X135000Y174000D02*Y172400D01*
Y174000D02*X136386Y174800D01*
X135000Y174000D02*X133614Y174800D01*
X117000Y184000D02*Y182400D01*
Y184000D02*X118386Y184800D01*
X117000Y184000D02*X115614Y184800D01*
X114500Y194000D02*Y192400D01*
Y194000D02*X115886Y194800D01*
X114500Y194000D02*X113114Y194800D01*
X119500Y194000D02*Y192400D01*
Y194000D02*X120886Y194800D01*
X119500Y194000D02*X118114Y194800D01*
X117000Y189000D02*Y187400D01*
Y189000D02*X118386Y189800D01*
X117000Y189000D02*X115614Y189800D01*
X89500Y153500D02*Y151900D01*
Y153500D02*X90886Y154300D01*
X89500Y153500D02*X88114Y154300D01*
X161000Y189000D02*Y187400D01*
Y189000D02*X162386Y189800D01*
X161000Y189000D02*X159614Y189800D01*
X135000Y169000D02*Y167400D01*
Y169000D02*X136386Y169800D01*
X135000Y169000D02*X133614Y169800D01*
X135000Y164000D02*Y162400D01*
Y164000D02*X136386Y164800D01*
X135000Y164000D02*X133614Y164800D01*
X127500Y154000D02*Y152400D01*
Y154000D02*X128886Y154800D01*
X127500Y154000D02*X126114Y154800D01*
X165000Y154000D02*Y152400D01*
Y154000D02*X166386Y154800D01*
X165000Y154000D02*X163614Y154800D01*
X138000Y186500D02*Y184900D01*
Y186500D02*X139386Y187300D01*
X138000Y186500D02*X136614Y187300D01*
X140000Y179500D02*Y177900D01*
Y179500D02*X141386Y180300D01*
X140000Y179500D02*X138614Y180300D01*
X134500Y114000D02*Y112400D01*
Y114000D02*X135886Y114800D01*
X134500Y114000D02*X133114Y114800D01*
X127500Y149000D02*Y147400D01*
Y149000D02*X128886Y149800D01*
X127500Y149000D02*X126114Y149800D01*
X160000Y148000D02*Y146400D01*
Y148000D02*X161386Y148800D01*
X160000Y148000D02*X158614Y148800D01*
X140000Y148000D02*Y146400D01*
Y148000D02*X141386Y148800D01*
X140000Y148000D02*X138614Y148800D01*
X155000Y134500D02*Y132900D01*
Y134500D02*X156386Y135300D01*
X155000Y134500D02*X153614Y135300D01*
X155000Y129500D02*Y127900D01*
Y129500D02*X156386Y130300D01*
X155000Y129500D02*X153614Y130300D01*
X155000Y114500D02*Y112900D01*
Y114500D02*X156386Y115300D01*
X155000Y114500D02*X153614Y115300D01*
X155000Y139500D02*Y137900D01*
Y139500D02*X156386Y140300D01*
X155000Y139500D02*X153614Y140300D01*
X165500Y148000D02*Y146400D01*
Y148000D02*X166886Y148800D01*
X165500Y148000D02*X164114Y148800D01*
X78500Y164000D02*Y162400D01*
Y164000D02*X79886Y164800D01*
X78500Y164000D02*X77114Y164800D01*
X78500Y159000D02*Y157400D01*
Y159000D02*X79886Y159800D01*
X78500Y159000D02*X77114Y159800D01*
X78500Y174000D02*Y172400D01*
Y174000D02*X79886Y174800D01*
X78500Y174000D02*X77114Y174800D01*
X98000Y174000D02*Y172400D01*
Y174000D02*X99386Y174800D01*
X98000Y174000D02*X96614Y174800D01*
X188500Y134500D02*Y132900D01*
Y134500D02*X189886Y135300D01*
X188500Y134500D02*X187114Y135300D01*
X115000Y368500D02*Y366900D01*
Y368500D02*X116386Y369300D01*
X115000Y368500D02*X113614Y369300D01*
X115000Y320000D02*Y318400D01*
Y320000D02*X116386Y320800D01*
X115000Y320000D02*X113614Y320800D01*
X201000Y334000D02*Y332400D01*
Y334000D02*X202386Y334800D01*
X201000Y334000D02*X199614Y334800D01*
X198000Y373500D02*Y371900D01*
Y373500D02*X199386Y374300D01*
X198000Y373500D02*X196614Y374300D01*
X201000Y341500D02*Y339900D01*
Y341500D02*X202386Y342300D01*
X201000Y341500D02*X199614Y342300D01*
X151500Y257500D02*Y255900D01*
Y257500D02*X152886Y258300D01*
X151500Y257500D02*X150114Y258300D01*
X157000Y250500D02*Y248900D01*
Y250500D02*X158386Y251300D01*
X157000Y250500D02*X155614Y251300D01*
X217500Y244500D02*Y242900D01*
Y244500D02*X218886Y245300D01*
X217500Y244500D02*X216114Y245300D01*
X199000Y261000D02*Y259400D01*
Y261000D02*X200386Y261800D01*
X199000Y261000D02*X197614Y261800D01*
X181000Y242500D02*Y240900D01*
Y242500D02*X182386Y243300D01*
X181000Y242500D02*X179614Y243300D01*
X181000Y266000D02*Y264400D01*
Y266000D02*X182386Y266800D01*
X181000Y266000D02*X179614Y266800D01*
X161500Y219000D02*Y217400D01*
Y219000D02*X162886Y219800D01*
X161500Y219000D02*X160114Y219800D01*
X177000Y219000D02*Y217400D01*
Y219000D02*X178386Y219800D01*
X177000Y219000D02*X175614Y219800D01*
X169000Y228000D02*Y226400D01*
Y228000D02*X170386Y228800D01*
X169000Y228000D02*X167614Y228800D01*
X156500Y258000D02*Y256400D01*
Y258000D02*X157886Y258800D01*
X156500Y258000D02*X155114Y258800D01*
X134500Y215000D02*Y213400D01*
Y215000D02*X135886Y215800D01*
X134500Y215000D02*X133114Y215800D01*
X140000Y215000D02*Y213400D01*
Y215000D02*X141386Y215800D01*
X140000Y215000D02*X138614Y215800D01*
X147000Y204500D02*Y202900D01*
Y204500D02*X148386Y205300D01*
X147000Y204500D02*X145614Y205300D01*
X127000Y204500D02*Y202900D01*
Y204500D02*X128386Y205300D01*
X127000Y204500D02*X125614Y205300D01*
X78500Y194000D02*Y192400D01*
Y194000D02*X79886Y194800D01*
X78500Y194000D02*X77114Y194800D01*
X176000Y179000D02*Y177400D01*
Y179000D02*X177386Y179800D01*
X176000Y179000D02*X174614Y179800D01*
X140500Y222000D02*Y220400D01*
Y222000D02*X141886Y222800D01*
X140500Y222000D02*X139114Y222800D01*
X285500Y413500D02*Y411900D01*
Y413500D02*X286886Y414300D01*
X285500Y413500D02*X284114Y414300D01*
X157500Y176000D02*Y174400D01*
Y176000D02*X158886Y176800D01*
X157500Y176000D02*X156114Y176800D01*
X132500Y220000D02*Y218400D01*
Y220000D02*X133886Y220800D01*
X132500Y220000D02*X131114Y220800D01*
X132000Y244500D02*Y242900D01*
Y244500D02*X133386Y245300D01*
X132000Y244500D02*X130614Y245300D01*
X109000Y232500D02*Y230900D01*
Y232500D02*X110386Y233300D01*
X109000Y232500D02*X107614Y233300D01*
X201000Y329000D02*Y327400D01*
Y329000D02*X202386Y329800D01*
X201000Y329000D02*X199614Y329800D01*
X184000Y307500D02*Y305900D01*
Y307500D02*X185386Y308300D01*
X184000Y307500D02*X182614Y308300D01*
X174000Y347500D02*Y345900D01*
Y347500D02*X175386Y348300D01*
X174000Y347500D02*X172614Y348300D01*
X174000Y352500D02*Y350900D01*
Y352500D02*X175386Y353300D01*
X174000Y352500D02*X172614Y353300D01*
X201000Y347500D02*Y345900D01*
Y347500D02*X202386Y348300D01*
X201000Y347500D02*X199614Y348300D01*
X154500Y304000D02*Y302400D01*
Y304000D02*X155886Y304800D01*
X154500Y304000D02*X153114Y304800D01*
X146500Y333000D02*Y331400D01*
Y333000D02*X147886Y333800D01*
X146500Y333000D02*X145114Y333800D01*
X223000Y287500D02*Y285900D01*
Y287500D02*X224386Y288300D01*
X223000Y287500D02*X221614Y288300D01*
X201000Y321500D02*Y319900D01*
Y321500D02*X202386Y322300D01*
X201000Y321500D02*X199614Y322300D01*
X159500Y337500D02*Y335900D01*
Y337500D02*X160886Y338300D01*
X159500Y337500D02*X158114Y338300D01*
X128000Y314000D02*Y312400D01*
Y314000D02*X129386Y314800D01*
X128000Y314000D02*X126614Y314800D01*
X205000Y304000D02*Y302400D01*
Y304000D02*X206386Y304800D01*
X205000Y304000D02*X203614Y304800D01*
X153500Y383500D02*Y381900D01*
Y383500D02*X154886Y384300D01*
X153500Y383500D02*X152114Y384300D01*
X198000Y383500D02*Y381900D01*
Y383500D02*X199386Y384300D01*
X198000Y383500D02*X196614Y384300D01*
X178000Y385500D02*Y383900D01*
Y385500D02*X179386Y386300D01*
X178000Y385500D02*X176614Y386300D01*
X198000Y378500D02*Y376900D01*
Y378500D02*X199386Y379300D01*
X198000Y378500D02*X196614Y379300D01*
X133500Y383500D02*Y381900D01*
Y383500D02*X134886Y384300D01*
X133500Y383500D02*X132114Y384300D01*
X266500Y207500D02*Y205900D01*
Y207500D02*X267886Y208300D01*
X266500Y207500D02*X265114Y208300D01*
X153500Y378500D02*Y376900D01*
Y378500D02*X154886Y379300D01*
X153500Y378500D02*X152114Y379300D01*
X217500Y378500D02*Y376900D01*
Y378500D02*X218886Y379300D01*
X217500Y378500D02*X216114Y379300D01*
X197500Y366500D02*Y364900D01*
Y366500D02*X198886Y367300D01*
X197500Y366500D02*X196114Y367300D01*
X151500Y267500D02*Y265900D01*
Y267500D02*X152886Y268300D01*
X151500Y267500D02*X150114Y268300D01*
X151500Y262500D02*Y260900D01*
Y262500D02*X152886Y263300D01*
X151500Y262500D02*X150114Y263300D01*
X285500Y400000D02*Y398400D01*
Y400000D02*X286886Y400800D01*
X285500Y400000D02*X284114Y400800D01*
X140000Y271500D02*Y269900D01*
Y271500D02*X141386Y272300D01*
X140000Y271500D02*X138614Y272300D01*
X144500Y352500D02*Y350900D01*
Y352500D02*X145886Y353300D01*
X144500Y352500D02*X143114Y353300D01*
X131000Y338000D02*Y336400D01*
Y338000D02*X132386Y338800D01*
X131000Y338000D02*X129614Y338800D01*
X103000Y214000D02*Y212400D01*
Y214000D02*X104386Y214800D01*
X103000Y214000D02*X101614Y214800D01*
X103000Y210000D02*Y208400D01*
Y210000D02*X104386Y210800D01*
X103000Y210000D02*X101614Y210800D01*
X131000Y299000D02*Y297400D01*
Y299000D02*X132386Y299800D01*
X131000Y299000D02*X129614Y299800D01*
X127000Y332000D02*Y330400D01*
Y332000D02*X128386Y332800D01*
X127000Y332000D02*X125614Y332800D01*
X108000Y249500D02*Y247900D01*
Y249500D02*X109386Y250300D01*
X108000Y249500D02*X106614Y250300D01*
X115000Y324000D02*Y322400D01*
Y324000D02*X116386Y324800D01*
X115000Y324000D02*X113614Y324800D01*
X115500Y302000D02*Y300400D01*
Y302000D02*X116886Y302800D01*
X115500Y302000D02*X114114Y302800D01*
X79000Y287500D02*Y285900D01*
Y287500D02*X80386Y288300D01*
X79000Y287500D02*X77614Y288300D01*
X79000Y283000D02*Y281400D01*
Y283000D02*X80386Y283800D01*
X79000Y283000D02*X77614Y283800D01*
X88500Y276500D02*Y274900D01*
Y276500D02*X89886Y277300D01*
X88500Y276500D02*X87114Y277300D01*
X95500Y276500D02*Y274900D01*
Y276500D02*X96886Y277300D01*
X95500Y276500D02*X94114Y277300D01*
X154500Y287500D02*Y285900D01*
Y287500D02*X155886Y288300D01*
X154500Y287500D02*X153114Y288300D01*
X132500Y282000D02*Y280400D01*
Y282000D02*X133886Y282800D01*
X132500Y282000D02*X131114Y282800D01*
X135000Y397500D02*Y395900D01*
Y397500D02*X136386Y398300D01*
X135000Y397500D02*X133614Y398300D01*
X172000Y257500D02*Y255900D01*
Y257500D02*X173386Y258300D01*
X172000Y257500D02*X170614Y258300D01*
X150500Y407500D02*Y405900D01*
Y407500D02*X151886Y408300D01*
X150500Y407500D02*X149114Y408300D01*
X181500Y159000D02*Y157400D01*
Y159000D02*X182886Y159800D01*
X181500Y159000D02*X180114Y159800D01*
X73000Y324500D02*Y322900D01*
Y324500D02*X74386Y325300D01*
X73000Y324500D02*X71614Y325300D01*
X79500Y324500D02*Y322900D01*
Y324500D02*X80886Y325300D01*
X79500Y324500D02*X78114Y325300D01*
X199000Y267000D02*Y265400D01*
Y267000D02*X200386Y267800D01*
X199000Y267000D02*X197614Y267800D01*
X217500Y232500D02*Y230900D01*
Y232500D02*X218886Y233300D01*
X217500Y232500D02*X216114Y233300D01*
X235500Y224500D02*Y222900D01*
Y224500D02*X236886Y225300D01*
X235500Y224500D02*X234114Y225300D01*
X118500Y338000D02*Y336400D01*
Y338000D02*X119886Y338800D01*
X118500Y338000D02*X117114Y338800D01*
X223000Y202000D02*Y200400D01*
Y202000D02*X224386Y202800D01*
X223000Y202000D02*X221614Y202800D01*
X224000Y312500D02*Y310900D01*
Y312500D02*X225386Y313300D01*
X224000Y312500D02*X222614Y313300D01*
X217500Y306500D02*Y304900D01*
Y306500D02*X218886Y307300D01*
X217500Y306500D02*X216114Y307300D01*
X115000Y362500D02*Y360900D01*
Y362500D02*X116386Y363300D01*
X115000Y362500D02*X113614Y363300D01*
X222500Y226000D02*Y224400D01*
Y226000D02*X223886Y226800D01*
X222500Y226000D02*X221114Y226800D01*
X226000Y239500D02*Y237900D01*
Y239500D02*X227386Y240300D01*
X226000Y239500D02*X224614Y240300D01*
X237000Y250000D02*Y248400D01*
Y250000D02*X238386Y250800D01*
X237000Y250000D02*X235614Y250800D01*
X279500Y184500D02*Y182900D01*
Y184500D02*X280886Y185300D01*
X279500Y184500D02*X278114Y185300D01*
X326500Y184500D02*Y182900D01*
Y184500D02*X327886Y185300D01*
X326500Y184500D02*X325114Y185300D01*
X300500Y179500D02*Y177900D01*
Y179500D02*X301886Y180300D01*
X300500Y179500D02*X299114Y180300D01*
X347500Y179500D02*Y177900D01*
Y179500D02*X348886Y180300D01*
X347500Y179500D02*X346114Y180300D01*
X257500Y297000D02*Y295400D01*
Y297000D02*X258886Y297800D01*
X257500Y297000D02*X256114Y297800D01*
X253000Y302000D02*Y300400D01*
Y302000D02*X254386Y302800D01*
X253000Y302000D02*X251614Y302800D01*
X273500Y297000D02*Y295400D01*
Y297000D02*X274886Y297800D01*
X273500Y297000D02*X272114Y297800D01*
X333000Y199500D02*Y197900D01*
Y199500D02*X334386Y200300D01*
X333000Y199500D02*X331614Y200300D01*
X338000Y208000D02*Y206400D01*
Y208000D02*X339386Y208800D01*
X338000Y208000D02*X336614Y208800D01*
X286000Y199500D02*Y197900D01*
Y199500D02*X287386Y200300D01*
X286000Y199500D02*X284614Y200300D01*
X291000Y208000D02*Y206400D01*
Y208000D02*X292386Y208800D01*
X291000Y208000D02*X289614Y208800D01*
X313500Y207500D02*Y205900D01*
Y207500D02*X314886Y208300D01*
X313500Y207500D02*X312114Y208300D01*
X249000Y327500D02*Y325900D01*
Y327500D02*X250386Y328300D01*
X249000Y327500D02*X247614Y328300D01*
X249000Y322500D02*Y320900D01*
Y322500D02*X250386Y323300D01*
X249000Y322500D02*X247614Y323300D01*
X254000Y322500D02*Y320900D01*
Y322500D02*X255386Y323300D01*
X254000Y322500D02*X252614Y323300D01*
X242000Y287000D02*Y285400D01*
Y287000D02*X243386Y287800D01*
X242000Y287000D02*X240614Y287800D01*
X254000Y221500D02*Y219900D01*
Y221500D02*X255386Y222300D01*
X254000Y221500D02*X252614Y222300D01*
X254000Y250000D02*Y248400D01*
Y250000D02*X255386Y250800D01*
X254000Y250000D02*X252614Y250800D01*
X224500Y272500D02*Y270900D01*
Y272500D02*X225886Y273300D01*
X224500Y272500D02*X223114Y273300D01*
X248000Y272500D02*Y270900D01*
Y272500D02*X249386Y273300D01*
X248000Y272500D02*X246614Y273300D01*
X248000Y250000D02*Y248400D01*
Y250000D02*X249386Y250800D01*
X248000Y250000D02*X246614Y250800D01*
X172000Y252500D02*Y250900D01*
Y252500D02*X173386Y253300D01*
X172000Y252500D02*X170614Y253300D01*
X285500Y375000D02*Y373400D01*
Y375000D02*X286886Y375800D01*
X285500Y375000D02*X284114Y375800D01*
X177000Y261000D02*Y259400D01*
Y261000D02*X178386Y261800D01*
X177000Y261000D02*X175614Y261800D01*
X248000Y221500D02*Y219900D01*
Y221500D02*X249386Y222300D01*
X248000Y221500D02*X246614Y222300D01*
X249000Y349000D02*Y347400D01*
Y349000D02*X250386Y349800D01*
X249000Y349000D02*X247614Y349800D01*
X249000Y354000D02*Y352400D01*
Y354000D02*X250386Y354800D01*
X249000Y354000D02*X247614Y354800D01*
X254000Y349000D02*Y347400D01*
Y349000D02*X255386Y349800D01*
X254000Y349000D02*X252614Y349800D01*
X249000Y339000D02*Y337400D01*
Y339000D02*X250386Y339800D01*
X249000Y339000D02*X247614Y339800D01*
X255500Y115500D02*Y113900D01*
Y115500D02*X256886Y116300D01*
X255500Y115500D02*X254114Y116300D01*
X354500Y221500D02*Y219900D01*
Y221500D02*X355886Y222300D01*
X354500Y221500D02*X353114Y222300D01*
X299000Y116000D02*Y114400D01*
Y116000D02*X300386Y116800D01*
X299000Y116000D02*X297614Y116800D01*
X275000Y133500D02*Y131900D01*
Y133500D02*X276386Y134300D01*
X275000Y133500D02*X273614Y134300D01*
X287500Y121000D02*Y119400D01*
Y121000D02*X288886Y121800D01*
X287500Y121000D02*X286114Y121800D01*
X281500Y121000D02*Y119400D01*
Y121000D02*X282886Y121800D01*
X281500Y121000D02*X280114Y121800D01*
X281500Y127500D02*Y125900D01*
Y127500D02*X282886Y128300D01*
X281500Y127500D02*X280114Y128300D01*
X280500Y113500D02*Y111900D01*
Y113500D02*X281886Y114300D01*
X280500Y113500D02*X279114Y114300D01*
X280500Y138500D02*Y136900D01*
Y138500D02*X281886Y139300D01*
X280500Y138500D02*X279114Y139300D01*
X274000Y115500D02*Y113900D01*
Y115500D02*X275386Y116300D01*
X274000Y115500D02*X272614Y116300D01*
X261500Y115500D02*Y113900D01*
Y115500D02*X262886Y116300D01*
X261500Y115500D02*X260114Y116300D01*
X354500Y229500D02*Y227900D01*
Y229500D02*X355886Y230300D01*
X354500Y229500D02*X353114Y230300D01*
X241000Y179500D02*Y177900D01*
Y179500D02*X242386Y180300D01*
X241000Y179500D02*X239614Y180300D01*
X241000Y161500D02*Y159900D01*
Y161500D02*X242386Y162300D01*
X241000Y161500D02*X239614Y162300D01*
X248000Y193500D02*Y191900D01*
Y193500D02*X249386Y194300D01*
X248000Y193500D02*X246614Y194300D01*
X248000Y180500D02*Y178900D01*
Y180500D02*X249386Y181300D01*
X248000Y180500D02*X246614Y181300D01*
X248000Y185000D02*Y183400D01*
Y185000D02*X249386Y185800D01*
X248000Y185000D02*X246614Y185800D01*
X248000Y189000D02*Y187400D01*
Y189000D02*X249386Y189800D01*
X248000Y189000D02*X246614Y189800D01*
X271000Y365500D02*Y363900D01*
Y365500D02*X272386Y366300D01*
X271000Y365500D02*X269614Y366300D01*
X254000Y138500D02*Y136900D01*
Y138500D02*X255386Y139300D01*
X254000Y138500D02*X252614Y139300D01*
X260500Y138500D02*Y136900D01*
Y138500D02*X261886Y139300D01*
X260500Y138500D02*X259114Y139300D01*
X266500Y138500D02*Y136900D01*
Y138500D02*X267886Y139300D01*
X266500Y138500D02*X265114Y139300D01*
X261500Y127500D02*Y125900D01*
Y127500D02*X262886Y128300D01*
X261500Y127500D02*X260114Y128300D01*
X255500Y127500D02*Y125900D01*
Y127500D02*X256886Y128300D01*
X255500Y127500D02*X254114Y128300D01*
X301000Y122500D02*Y120900D01*
Y122500D02*X302386Y123300D01*
X301000Y122500D02*X299614Y123300D01*
X310000Y123000D02*Y121400D01*
Y123000D02*X311386Y123800D01*
X310000Y123000D02*X308614Y123800D01*
X305500Y114000D02*Y112400D01*
Y114000D02*X306886Y114800D01*
X305500Y114000D02*X304114Y114800D01*
X301000Y140000D02*Y138400D01*
Y140000D02*X302386Y140800D01*
X301000Y140000D02*X299614Y140800D01*
X310500Y138500D02*Y136900D01*
Y138500D02*X311886Y139300D01*
X310500Y138500D02*X309114Y139300D01*
X301000Y135000D02*Y133400D01*
Y135000D02*X302386Y135800D01*
X301000Y135000D02*X299614Y135800D01*
X249000Y380500D02*Y378900D01*
Y380500D02*X250386Y381300D01*
X249000Y380500D02*X247614Y381300D01*
X249000Y375500D02*Y373900D01*
Y375500D02*X250386Y376300D01*
X249000Y375500D02*X247614Y376300D01*
X254000Y375500D02*Y373900D01*
Y375500D02*X255386Y376300D01*
X254000Y375500D02*X252614Y376300D01*
X293000Y365500D02*Y363900D01*
Y365500D02*X294386Y366300D01*
X293000Y365500D02*X291614Y366300D01*
X303500Y365500D02*Y363900D01*
Y365500D02*X304886Y366300D01*
X303500Y365500D02*X302114Y366300D01*
X237000Y408000D02*Y406400D01*
Y408000D02*X238386Y408800D01*
X237000Y408000D02*X235614Y408800D01*
X256000Y406500D02*Y404900D01*
Y406500D02*X257386Y407300D01*
X256000Y406500D02*X254614Y407300D01*
X271000Y386000D02*Y384400D01*
Y386000D02*X272386Y386800D01*
X271000Y386000D02*X269614Y386800D01*
X256000Y411500D02*Y409900D01*
Y411500D02*X257386Y412300D01*
X256000Y411500D02*X254614Y412300D01*
X375500Y189500D02*Y187900D01*
Y189500D02*X376886Y190300D01*
X375500Y189500D02*X374114Y190300D01*
X375500Y184500D02*Y182900D01*
Y184500D02*X376886Y185300D01*
X375500Y184500D02*X374114Y185300D01*
X380500Y179500D02*Y177900D01*
Y179500D02*X381886Y180300D01*
X380500Y179500D02*X379114Y180300D01*
X360000Y179500D02*Y177900D01*
Y179500D02*X361386Y180300D01*
X360000Y179500D02*X358614Y180300D01*
X232000Y154500D02*Y152900D01*
Y154500D02*X233386Y155300D01*
X232000Y154500D02*X230614Y155300D01*
X241500Y154500D02*Y152900D01*
Y154500D02*X242886Y155300D01*
X241500Y154500D02*X240114Y155300D01*
X236500Y154500D02*Y152900D01*
Y154500D02*X237886Y155300D01*
X236500Y154500D02*X235114Y155300D01*
X246500Y154500D02*Y152900D01*
Y154500D02*X247886Y155300D01*
X246500Y154500D02*X245114Y155300D01*
X377500Y202500D02*Y200900D01*
Y202500D02*X378886Y203300D01*
X377500Y202500D02*X376114Y203300D01*
X355000Y207500D02*Y205900D01*
Y207500D02*X356386Y208300D01*
X355000Y207500D02*X353614Y208300D01*
X391500Y134500D02*Y132900D01*
Y134500D02*X392886Y135300D01*
X391500Y134500D02*X390114Y135300D01*
X392500Y152500D02*Y150900D01*
Y152500D02*X393886Y153300D01*
X392500Y152500D02*X391114Y153300D01*
X392500Y159000D02*Y157400D01*
Y159000D02*X393886Y159800D01*
X392500Y159000D02*X391114Y159800D01*
X236500Y198500D02*Y196900D01*
Y198500D02*X237886Y199300D01*
X236500Y198500D02*X235114Y199300D01*
X267000Y162500D02*Y160900D01*
Y162500D02*X268386Y163300D01*
X267000Y162500D02*X265614Y163300D01*
X355500Y172000D02*Y170400D01*
Y172000D02*X356886Y172800D01*
X355500Y172000D02*X354114Y172800D01*
X300500Y172000D02*Y170400D01*
Y172000D02*X301886Y172800D01*
X300500Y172000D02*X299114Y172800D01*
X342000Y154000D02*Y152400D01*
Y154000D02*X343386Y154800D01*
X342000Y154000D02*X340614Y154800D01*
X423000Y161500D02*Y159900D01*
Y161500D02*X424386Y162300D01*
X423000Y161500D02*X421614Y162300D01*
X423000Y151500D02*Y149900D01*
Y151500D02*X424386Y152300D01*
X423000Y151500D02*X421614Y152300D01*
X423000Y201500D02*Y199900D01*
Y201500D02*X424386Y202300D01*
X423000Y201500D02*X421614Y202300D01*
X423000Y181500D02*Y179900D01*
Y181500D02*X424386Y182300D01*
X423000Y181500D02*X421614Y182300D01*
X423000Y221500D02*Y219900D01*
Y221500D02*X424386Y222300D01*
X423000Y221500D02*X421614Y222300D01*
X423000Y231500D02*Y229900D01*
Y231500D02*X424386Y232300D01*
X423000Y231500D02*X421614Y232300D01*
X384000Y168500D02*Y166900D01*
Y168500D02*X385386Y169300D01*
X384000Y168500D02*X382614Y169300D01*
X366000Y163000D02*Y161400D01*
Y163000D02*X367386Y163800D01*
X366000Y163000D02*X364614Y163800D01*
X355500Y163500D02*Y161900D01*
Y163500D02*X356886Y164300D01*
X355500Y163500D02*X354114Y164300D01*
X371000Y158000D02*Y156400D01*
Y158000D02*X372386Y158800D01*
X371000Y158000D02*X369614Y158800D01*
X15000Y786250D02*Y784650D01*
Y786250D02*X16386Y787050D01*
X15000Y786250D02*X13614Y787050D01*
X195000Y788500D02*Y787750D01*
X196500Y786250D01*
X198000Y787750D01*
Y788500D02*Y787750D01*
X196500Y786250D02*Y782500D01*
X199801Y785500D02*X202051D01*
X199801Y782500D02*X202801D01*
X199801Y788500D02*Y782500D01*
Y788500D02*X202801D01*
X207603D02*X208353Y787750D01*
X205353Y788500D02*X207603D01*
X204603Y787750D02*X205353Y788500D01*
X204603Y787750D02*Y786250D01*
X205353Y785500D01*
X207603D01*
X208353Y784750D01*
Y783250D01*
X207603Y782500D02*X208353Y783250D01*
X205353Y782500D02*X207603D01*
X204603Y783250D02*X205353Y782500D01*
X195000Y779249D02*X210154D01*
X158000Y787750D02*X158750Y788500D01*
X161000D01*
X161750Y787750D01*
Y786250D01*
X158000Y782500D02*X161750Y786250D01*
X158000Y782500D02*X161750D01*
X163551Y785500D02*X166551Y788500D01*
X163551Y785500D02*X167301D01*
X166551Y788500D02*Y782500D01*
X169103Y787750D02*X169853Y788500D01*
X172103D01*
X172853Y787750D01*
Y786250D01*
X169103Y782500D02*X172853Y786250D01*
X169103Y782500D02*X172853D01*
X158000Y779249D02*X174654D01*
X41000Y783250D02*X41750Y782500D01*
X41000Y787750D02*Y783250D01*
Y787750D02*X41750Y788500D01*
X43250D01*
X44000Y787750D01*
Y783250D01*
X43250Y782500D02*X44000Y783250D01*
X41750Y782500D02*X43250D01*
X41000Y784000D02*X44000Y787000D01*
X45801Y782500D02*X46551D01*
X48353Y783250D02*X49103Y782500D01*
X48353Y787750D02*Y783250D01*
Y787750D02*X49103Y788500D01*
X50603D01*
X51353Y787750D01*
Y783250D01*
X50603Y782500D02*X51353Y783250D01*
X49103Y782500D02*X50603D01*
X48353Y784000D02*X51353Y787000D01*
X53154Y787750D02*X53904Y788500D01*
X56154D01*
X56904Y787750D01*
Y786250D01*
X53154Y782500D02*X56904Y786250D01*
X53154Y782500D02*X56904D01*
X58706Y783250D02*X59456Y782500D01*
X58706Y787750D02*Y783250D01*
Y787750D02*X59456Y788500D01*
X60956D01*
X61706Y787750D01*
Y783250D01*
X60956Y782500D02*X61706Y783250D01*
X59456Y782500D02*X60956D01*
X58706Y784000D02*X61706Y787000D01*
X66207Y783250D02*X66957Y782500D01*
X66207Y787750D02*X66957Y788500D01*
X66207Y787750D02*Y783250D01*
X71459D02*X72209Y782500D01*
X71459Y787750D02*Y783250D01*
Y787750D02*X72209Y788500D01*
X73709D01*
X74459Y787750D01*
Y783250D01*
X73709Y782500D02*X74459Y783250D01*
X72209Y782500D02*X73709D01*
X71459Y784000D02*X74459Y787000D01*
X76260Y782500D02*X77010D01*
X78812Y788500D02*X81812D01*
X78812D02*Y785500D01*
X79562Y786250D01*
X81062D01*
X81812Y785500D01*
Y783250D01*
X81062Y782500D02*X81812Y783250D01*
X79562Y782500D02*X81062D01*
X78812Y783250D02*X79562Y782500D01*
X83613Y783250D02*X84363Y782500D01*
X83613Y787750D02*Y783250D01*
Y787750D02*X84363Y788500D01*
X85863D01*
X86613Y787750D01*
Y783250D01*
X85863Y782500D02*X86613Y783250D01*
X84363Y782500D02*X85863D01*
X83613Y784000D02*X86613Y787000D01*
X88415Y783250D02*X89165Y782500D01*
X88415Y784750D02*Y783250D01*
Y784750D02*X89165Y785500D01*
X90665D01*
X91415Y784750D01*
Y783250D01*
X90665Y782500D02*X91415Y783250D01*
X89165Y782500D02*X90665D01*
X88415Y786250D02*X89165Y785500D01*
X88415Y787750D02*Y786250D01*
Y787750D02*X89165Y788500D01*
X90665D01*
X91415Y787750D01*
Y786250D01*
X90665Y785500D02*X91415Y786250D01*
X93216Y783250D02*X93966Y782500D01*
X93216Y787750D02*Y783250D01*
Y787750D02*X93966Y788500D01*
X95466D01*
X96216Y787750D01*
Y783250D01*
X95466Y782500D02*X96216Y783250D01*
X93966Y782500D02*X95466D01*
X93216Y784000D02*X96216Y787000D01*
X101468Y784750D02*Y782500D01*
Y784750D02*X102218Y785500D01*
X102968D01*
X103718Y784750D01*
Y782500D01*
Y784750D02*X104468Y785500D01*
X105218D01*
X105968Y784750D01*
Y782500D01*
X100718Y785500D02*X101468Y784750D01*
X108519D02*Y782500D01*
Y784750D02*X109269Y785500D01*
X110019D01*
X110769Y784750D01*
Y782500D01*
Y784750D02*X111519Y785500D01*
X112269D01*
X113019Y784750D01*
Y782500D01*
X107769Y785500D02*X108519Y784750D01*
X117521Y788500D02*X118271Y787750D01*
Y783250D01*
X117521Y782500D02*X118271Y783250D01*
X41000Y779249D02*X120072D01*
X3000Y803500D02*X3750Y802750D01*
X750Y803500D02*X3000D01*
X0Y802750D02*X750Y803500D01*
X0Y802750D02*Y801250D01*
X750Y800500D01*
X3000D01*
X3750Y799750D01*
Y798250D01*
X3000Y797500D02*X3750Y798250D01*
X750Y797500D02*X3000D01*
X0Y798250D02*X750Y797500D01*
X5551Y800500D02*Y798250D01*
X6301Y797500D01*
X8551Y800500D02*Y796000D01*
X7801Y795250D02*X8551Y796000D01*
X6301Y795250D02*X7801D01*
X5551Y796000D02*X6301Y795250D01*
Y797500D02*X7801D01*
X8551Y798250D01*
X11103Y799750D02*Y797500D01*
Y799750D02*X11853Y800500D01*
X12603D01*
X13353Y799750D01*
Y797500D01*
Y799750D02*X14103Y800500D01*
X14853D01*
X15603Y799750D01*
Y797500D01*
X10353Y800500D02*X11103Y799750D01*
X17404Y803500D02*Y797500D01*
Y798250D02*X18154Y797500D01*
X19654D01*
X20404Y798250D01*
Y799750D02*Y798250D01*
X19654Y800500D02*X20404Y799750D01*
X18154Y800500D02*X19654D01*
X17404Y799750D02*X18154Y800500D01*
X22206Y799750D02*Y798250D01*
Y799750D02*X22956Y800500D01*
X24456D01*
X25206Y799750D01*
Y798250D01*
X24456Y797500D02*X25206Y798250D01*
X22956Y797500D02*X24456D01*
X22206Y798250D02*X22956Y797500D01*
X27007Y803500D02*Y798250D01*
X27757Y797500D01*
X41750Y803500D02*Y797500D01*
X44000Y803500D02*X44750Y802750D01*
Y798250D01*
X44000Y797500D02*X44750Y798250D01*
X41000Y797500D02*X44000D01*
X41000Y803500D02*X44000D01*
X46551Y802000D02*Y801250D01*
Y799750D02*Y797500D01*
X50303Y800500D02*X51053Y799750D01*
X48803Y800500D02*X50303D01*
X48053Y799750D02*X48803Y800500D01*
X48053Y799750D02*Y798250D01*
X48803Y797500D01*
X51053Y800500D02*Y798250D01*
X51803Y797500D01*
X48803D02*X50303D01*
X51053Y798250D01*
X54354Y799750D02*Y797500D01*
Y799750D02*X55104Y800500D01*
X55854D01*
X56604Y799750D01*
Y797500D01*
Y799750D02*X57354Y800500D01*
X58104D01*
X58854Y799750D01*
Y797500D01*
X53604Y800500D02*X54354Y799750D01*
X60656Y797500D02*X61406D01*
X65907Y803500D02*X67407D01*
X66657D02*Y797500D01*
X65907D02*X67407D01*
X69959Y799750D02*Y797500D01*
Y799750D02*X70709Y800500D01*
X71459D01*
X72209Y799750D01*
Y797500D01*
X69209Y800500D02*X69959Y799750D01*
X74760Y800500D02*X77010D01*
X74010Y799750D02*X74760Y800500D01*
X74010Y799750D02*Y798250D01*
X74760Y797500D01*
X77010D01*
X78812Y803500D02*Y797500D01*
Y799750D02*X79562Y800500D01*
X81062D01*
X81812Y799750D01*
Y797500D01*
X86313Y798250D02*X87063Y797500D01*
X86313Y802750D02*X87063Y803500D01*
X86313Y802750D02*Y798250D01*
X89615Y799750D02*Y797500D01*
Y799750D02*X90365Y800500D01*
X91115D01*
X91865Y799750D01*
Y797500D01*
Y799750D02*X92615Y800500D01*
X93365D01*
X94115Y799750D01*
Y797500D01*
X88865Y800500D02*X89615Y799750D01*
X96666D02*Y797500D01*
Y799750D02*X97416Y800500D01*
X98166D01*
X98916Y799750D01*
Y797500D01*
Y799750D02*X99666Y800500D01*
X100416D01*
X101166Y799750D01*
Y797500D01*
X95916Y800500D02*X96666Y799750D01*
X102968Y803500D02*X103718Y802750D01*
Y798250D01*
X102968Y797500D02*X103718Y798250D01*
X155750Y797500D02*X158000D01*
X155000Y798250D02*X155750Y797500D01*
X155000Y802750D02*Y798250D01*
Y802750D02*X155750Y803500D01*
X158000D01*
X159801Y799750D02*Y798250D01*
Y799750D02*X160551Y800500D01*
X162051D01*
X162801Y799750D01*
Y798250D01*
X162051Y797500D02*X162801Y798250D01*
X160551Y797500D02*X162051D01*
X159801Y798250D02*X160551Y797500D01*
X164603Y800500D02*Y798250D01*
X165353Y797500D01*
X166853D01*
X167603Y798250D01*
Y800500D02*Y798250D01*
X170154Y799750D02*Y797500D01*
Y799750D02*X170904Y800500D01*
X171654D01*
X172404Y799750D01*
Y797500D01*
X169404Y800500D02*X170154Y799750D01*
X174956Y803500D02*Y798250D01*
X175706Y797500D01*
X174206Y801250D02*X175706D01*
X190750Y803500D02*Y797500D01*
X190000Y803500D02*X193000D01*
X193750Y802750D01*
Y801250D01*
X193000Y800500D02*X193750Y801250D01*
X190750Y800500D02*X193000D01*
X195551Y803500D02*Y798250D01*
X196301Y797500D01*
X200053Y800500D02*X200803Y799750D01*
X198553Y800500D02*X200053D01*
X197803Y799750D02*X198553Y800500D01*
X197803Y799750D02*Y798250D01*
X198553Y797500D01*
X200803Y800500D02*Y798250D01*
X201553Y797500D01*
X198553D02*X200053D01*
X200803Y798250D01*
X204104Y803500D02*Y798250D01*
X204854Y797500D01*
X203354Y801250D02*X204854D01*
X207106Y797500D02*X209356D01*
X206356Y798250D02*X207106Y797500D01*
X206356Y799750D02*Y798250D01*
Y799750D02*X207106Y800500D01*
X208606D01*
X209356Y799750D01*
X206356Y799000D02*X209356D01*
Y799750D02*Y799000D01*
X214157Y803500D02*Y797500D01*
X213407D02*X214157Y798250D01*
X211907Y797500D02*X213407D01*
X211157Y798250D02*X211907Y797500D01*
X211157Y799750D02*Y798250D01*
Y799750D02*X211907Y800500D01*
X213407D01*
X214157Y799750D01*
X217459Y800500D02*Y799750D01*
Y798250D02*Y797500D01*
X215959Y802750D02*Y802000D01*
Y802750D02*X216709Y803500D01*
X218209D01*
X218959Y802750D01*
Y802000D01*
X217459Y800500D02*X218959Y802000D01*
X0Y818500D02*X3000D01*
X1500D02*Y812500D01*
X4801Y818500D02*Y812500D01*
Y814750D02*X5551Y815500D01*
X7051D01*
X7801Y814750D01*
Y812500D01*
X10353D02*X12603D01*
X9603Y813250D02*X10353Y812500D01*
X9603Y814750D02*Y813250D01*
Y814750D02*X10353Y815500D01*
X11853D01*
X12603Y814750D01*
X9603Y814000D02*X12603D01*
Y814750D02*Y814000D01*
X15154Y814750D02*Y812500D01*
Y814750D02*X15904Y815500D01*
X17404D01*
X14404D02*X15154Y814750D01*
X19956Y812500D02*X22206D01*
X19206Y813250D02*X19956Y812500D01*
X19206Y814750D02*Y813250D01*
Y814750D02*X19956Y815500D01*
X21456D01*
X22206Y814750D01*
X19206Y814000D02*X22206D01*
Y814750D02*Y814000D01*
X28957Y815500D02*X29707Y814750D01*
X27457Y815500D02*X28957D01*
X26707Y814750D02*X27457Y815500D01*
X26707Y814750D02*Y813250D01*
X27457Y812500D01*
X29707Y815500D02*Y813250D01*
X30457Y812500D01*
X27457D02*X28957D01*
X29707Y813250D01*
X33009Y814750D02*Y812500D01*
Y814750D02*X33759Y815500D01*
X35259D01*
X32259D02*X33009Y814750D01*
X37810Y812500D02*X40060D01*
X37060Y813250D02*X37810Y812500D01*
X37060Y814750D02*Y813250D01*
Y814750D02*X37810Y815500D01*
X39310D01*
X40060Y814750D01*
X37060Y814000D02*X40060D01*
Y814750D02*Y814000D01*
X45312Y812500D02*X46812D01*
X46062Y818500D02*Y812500D01*
X44562Y817000D02*X46062Y818500D01*
X48613Y815500D02*X51613Y818500D01*
X48613Y815500D02*X52363D01*
X51613Y818500D02*Y812500D01*
X59865Y818500D02*Y812500D01*
X59115D02*X59865Y813250D01*
X57615Y812500D02*X59115D01*
X56865Y813250D02*X57615Y812500D01*
X56865Y814750D02*Y813250D01*
Y814750D02*X57615Y815500D01*
X59115D01*
X59865Y814750D01*
X61666Y817000D02*Y816250D01*
Y814750D02*Y812500D01*
X63918Y817750D02*Y812500D01*
Y817750D02*X64668Y818500D01*
X65418D01*
X63168Y815500D02*X64668D01*
X67669Y817750D02*Y812500D01*
Y817750D02*X68419Y818500D01*
X69169D01*
X66919Y815500D02*X68419D01*
X71421Y812500D02*X73671D01*
X70671Y813250D02*X71421Y812500D01*
X70671Y814750D02*Y813250D01*
Y814750D02*X71421Y815500D01*
X72921D01*
X73671Y814750D01*
X70671Y814000D02*X73671D01*
Y814750D02*Y814000D01*
X76222Y814750D02*Y812500D01*
Y814750D02*X76972Y815500D01*
X78472D01*
X75472D02*X76222Y814750D01*
X81024Y812500D02*X83274D01*
X80274Y813250D02*X81024Y812500D01*
X80274Y814750D02*Y813250D01*
Y814750D02*X81024Y815500D01*
X82524D01*
X83274Y814750D01*
X80274Y814000D02*X83274D01*
Y814750D02*Y814000D01*
X85825Y814750D02*Y812500D01*
Y814750D02*X86575Y815500D01*
X87325D01*
X88075Y814750D01*
Y812500D01*
X85075Y815500D02*X85825Y814750D01*
X90627Y818500D02*Y813250D01*
X91377Y812500D01*
X89877Y816250D02*X91377D01*
X98578Y818500D02*Y812500D01*
X97828D02*X98578Y813250D01*
X96328Y812500D02*X97828D01*
X95578Y813250D02*X96328Y812500D01*
X95578Y814750D02*Y813250D01*
Y814750D02*X96328Y815500D01*
X97828D01*
X98578Y814750D01*
X101130D02*Y812500D01*
Y814750D02*X101880Y815500D01*
X103380D01*
X100380D02*X101130Y814750D01*
X105181Y817000D02*Y816250D01*
Y814750D02*Y812500D01*
X106683Y818500D02*Y813250D01*
X107433Y812500D01*
X108934Y818500D02*Y813250D01*
X109684Y812500D01*
X114636D02*X116886D01*
X117636Y813250D01*
X116886Y814000D02*X117636Y813250D01*
X114636Y814000D02*X116886D01*
X113886Y814750D02*X114636Y814000D01*
X113886Y814750D02*X114636Y815500D01*
X116886D01*
X117636Y814750D01*
X113886Y813250D02*X114636Y812500D01*
X119437Y817000D02*Y816250D01*
Y814750D02*Y812500D01*
X120939Y815500D02*X123939D01*
X120939Y812500D02*X123939Y815500D01*
X120939Y812500D02*X123939D01*
X126490D02*X128740D01*
X125740Y813250D02*X126490Y812500D01*
X125740Y814750D02*Y813250D01*
Y814750D02*X126490Y815500D01*
X127990D01*
X128740Y814750D01*
X125740Y814000D02*X128740D01*
Y814750D02*Y814000D01*
X131292Y812500D02*X133542D01*
X134292Y813250D01*
X133542Y814000D02*X134292Y813250D01*
X131292Y814000D02*X133542D01*
X130542Y814750D02*X131292Y814000D01*
X130542Y814750D02*X131292Y815500D01*
X133542D01*
X134292Y814750D01*
X130542Y813250D02*X131292Y812500D01*
X138793Y815500D02*Y813250D01*
X139543Y812500D01*
X141043D01*
X141793Y813250D01*
Y815500D02*Y813250D01*
X144345Y812500D02*X146595D01*
X147345Y813250D01*
X146595Y814000D02*X147345Y813250D01*
X144345Y814000D02*X146595D01*
X143595Y814750D02*X144345Y814000D01*
X143595Y814750D02*X144345Y815500D01*
X146595D01*
X147345Y814750D01*
X143595Y813250D02*X144345Y812500D01*
X149896D02*X152146D01*
X149146Y813250D02*X149896Y812500D01*
X149146Y814750D02*Y813250D01*
Y814750D02*X149896Y815500D01*
X151396D01*
X152146Y814750D01*
X149146Y814000D02*X152146D01*
Y814750D02*Y814000D01*
X156948Y818500D02*Y812500D01*
X156198D02*X156948Y813250D01*
X154698Y812500D02*X156198D01*
X153948Y813250D02*X154698Y812500D01*
X153948Y814750D02*Y813250D01*
Y814750D02*X154698Y815500D01*
X156198D01*
X156948Y814750D01*
X161449Y817000D02*Y816250D01*
Y814750D02*Y812500D01*
X163701Y814750D02*Y812500D01*
Y814750D02*X164451Y815500D01*
X165201D01*
X165951Y814750D01*
Y812500D01*
X162951Y815500D02*X163701Y814750D01*
X171202Y818500D02*Y813250D01*
X171952Y812500D01*
X170452Y816250D02*X171952D01*
X173454Y818500D02*Y812500D01*
Y814750D02*X174204Y815500D01*
X175704D01*
X176454Y814750D01*
Y812500D01*
X178255Y817000D02*Y816250D01*
Y814750D02*Y812500D01*
X180507D02*X182757D01*
X183507Y813250D01*
X182757Y814000D02*X183507Y813250D01*
X180507Y814000D02*X182757D01*
X179757Y814750D02*X180507Y814000D01*
X179757Y814750D02*X180507Y815500D01*
X182757D01*
X183507Y814750D01*
X179757Y813250D02*X180507Y812500D01*
X188008Y818500D02*Y813250D01*
X188758Y812500D01*
X192510Y815500D02*X193260Y814750D01*
X191010Y815500D02*X192510D01*
X190260Y814750D02*X191010Y815500D01*
X190260Y814750D02*Y813250D01*
X191010Y812500D01*
X193260Y815500D02*Y813250D01*
X194010Y812500D01*
X191010D02*X192510D01*
X193260Y813250D01*
X195811Y815500D02*Y813250D01*
X196561Y812500D01*
X198811Y815500D02*Y811000D01*
X198061Y810250D02*X198811Y811000D01*
X196561Y810250D02*X198061D01*
X195811Y811000D02*X196561Y810250D01*
Y812500D02*X198061D01*
X198811Y813250D01*
X200613Y814750D02*Y813250D01*
Y814750D02*X201363Y815500D01*
X202863D01*
X203613Y814750D01*
Y813250D01*
X202863Y812500D02*X203613Y813250D01*
X201363Y812500D02*X202863D01*
X200613Y813250D02*X201363Y812500D01*
X205414Y815500D02*Y813250D01*
X206164Y812500D01*
X207664D01*
X208414Y813250D01*
Y815500D02*Y813250D01*
X210966Y818500D02*Y813250D01*
X211716Y812500D01*
X210216Y816250D02*X211716D01*
X213217Y811000D02*X214717Y812500D01*
X219219Y817750D02*X219969Y818500D01*
X221469D01*
X222219Y817750D01*
Y813250D01*
X221469Y812500D02*X222219Y813250D01*
X219969Y812500D02*X221469D01*
X219219Y813250D02*X219969Y812500D01*
Y815500D02*X222219D01*
X224020Y813250D02*X224770Y812500D01*
X224020Y817750D02*Y813250D01*
Y817750D02*X224770Y818500D01*
X226270D01*
X227020Y817750D01*
Y813250D01*
X226270Y812500D02*X227020Y813250D01*
X224770Y812500D02*X226270D01*
X224020Y814000D02*X227020Y817000D01*
X231072Y818500D02*X231822Y817750D01*
X229572Y818500D02*X231072D01*
X228822Y817750D02*X229572Y818500D01*
X228822Y817750D02*Y813250D01*
X229572Y812500D01*
X231072Y815500D02*X231822Y814750D01*
X228822Y815500D02*X231072D01*
X229572Y812500D02*X231072D01*
X231822Y813250D01*
Y814750D02*Y813250D01*
X236323Y818500D02*Y812500D01*
Y814750D02*X237073Y815500D01*
X238573D01*
X239323Y814750D01*
Y812500D01*
X241125Y814750D02*Y813250D01*
Y814750D02*X241875Y815500D01*
X243375D01*
X244125Y814750D01*
Y813250D01*
X243375Y812500D02*X244125Y813250D01*
X241875Y812500D02*X243375D01*
X241125Y813250D02*X241875Y812500D01*
X245926Y818500D02*Y813250D01*
X246676Y812500D01*
X248928D02*X251178D01*
X248178Y813250D02*X248928Y812500D01*
X248178Y814750D02*Y813250D01*
Y814750D02*X248928Y815500D01*
X250428D01*
X251178Y814750D01*
X248178Y814000D02*X251178D01*
Y814750D02*Y814000D01*
X253729Y812500D02*X255979D01*
X256729Y813250D01*
X255979Y814000D02*X256729Y813250D01*
X253729Y814000D02*X255979D01*
X252979Y814750D02*X253729Y814000D01*
X252979Y814750D02*X253729Y815500D01*
X255979D01*
X256729Y814750D01*
X252979Y813250D02*X253729Y812500D01*
X261981Y818500D02*Y813250D01*
X262731Y812500D01*
X261231Y816250D02*X262731D01*
X264232Y814750D02*Y813250D01*
Y814750D02*X264982Y815500D01*
X266482D01*
X267232Y814750D01*
Y813250D01*
X266482Y812500D02*X267232Y813250D01*
X264982Y812500D02*X266482D01*
X264232Y813250D02*X264982Y812500D01*
X269784Y818500D02*Y813250D01*
X270534Y812500D01*
X269034Y816250D02*X270534D01*
X274285Y815500D02*X275035Y814750D01*
X272785Y815500D02*X274285D01*
X272035Y814750D02*X272785Y815500D01*
X272035Y814750D02*Y813250D01*
X272785Y812500D01*
X275035Y815500D02*Y813250D01*
X275785Y812500D01*
X272785D02*X274285D01*
X275035Y813250D01*
X277587Y818500D02*Y813250D01*
X278337Y812500D01*
G54D13*X349000Y355000D02*X352000D01*
X344500Y360500D02*Y359500D01*
X335500Y360500D02*Y350500D01*
X403500Y289500D02*X408500D01*
X399000Y298500D02*Y294000D01*
X390000Y298500D02*Y285000D01*
X385500Y355000D02*X394500D01*
Y280500D02*X408500D01*
X340000Y346000D02*X352000D01*
X399000Y350500D02*Y341500D01*
X426000Y415500D02*X443000D01*
X426000Y109500D02*X443000D01*
X68500Y415500D02*X78500D01*
X68500Y109500D02*X78500D01*
X445500Y413000D02*Y112000D01*
X87000Y101000D02*X417500D01*
X87000Y424000D02*X417500D01*
X66000Y413000D02*Y112000D01*
X344500Y360500D02*G75*G03X340000Y365000I-4500J0D01*G01*
G75*G03X335500Y360500I0J-4500D01*G01*
X399000Y294000D02*G75*G03X403500Y289500I4500J0D01*G01*
X413000Y285000D02*G75*G03X408500Y289500I-4500J0D01*G01*
X390000Y341500D02*G75*G03X385500Y346000I-4500J0D01*G01*
X394500Y337000D02*G75*G03X399000Y341500I0J4500D01*G01*
X390000D02*G75*G03X394500Y337000I4500J0D01*G01*
X399000Y350500D02*G75*G03X394500Y355000I-4500J0D01*G01*
X344500Y359500D02*G75*G03X349000Y355000I4500J0D01*G01*
X356500Y350500D02*G75*G03X352000Y355000I-4500J0D01*G01*
Y346000D02*G75*G03X356500Y350500I0J4500D01*G01*
X335500D02*G75*G03X340000Y346000I4500J0D01*G01*
X381000Y350500D02*G75*G03X385500Y346000I4500J0D01*G01*
Y355000D02*G75*G03X381000Y350500I0J-4500D01*G01*
X394500Y303000D02*G75*G03X390000Y298500I0J-4500D01*G01*
X399000D02*G75*G03X394500Y303000I-4500J0D01*G01*
X408500Y280500D02*G75*G03X413000Y285000I0J4500D01*G01*
X390000D02*G75*G03X394500Y280500I4500J0D01*G01*
X426000Y415500D02*G75*G02X420000Y421500I0J6000D01*G01*
Y103500D02*G75*G02X426000Y109500I6000J0D01*G01*
X68500D02*G75*G02X66000Y112000I0J2500D01*G01*
X87000Y101000D02*G75*G02X84500Y103500I0J2500D01*G01*
X443000Y415500D02*G75*G02X445500Y413000I0J-2500D01*G01*
X417500Y424000D02*G75*G02X420000Y421500I0J-2500D01*G01*
X84500D02*G75*G02X78500Y415500I-6000J0D01*G01*
X420000Y103500D02*G75*G02X417500Y101000I-2500J0D01*G01*
X445500Y112000D02*G75*G02X443000Y109500I-2500J0D01*G01*
X78500D02*G75*G02X84500Y103500I0J-6000D01*G01*
X66000Y413000D02*G75*G02X68500Y415500I2500J0D01*G01*
X84500Y421500D02*G75*G02X87000Y424000I2500J0D01*G01*
G54D50*X524000Y191500D02*X552500D01*
X548000Y424000D02*Y191500D01*
X207500Y478500D02*Y425000D01*
Y474000D02*X66000D01*
X169500Y458500D02*Y425000D01*
Y454000D02*X66000D01*
X131500Y438500D02*Y425000D01*
X66000Y434000D02*X131500D01*
X65000Y407500D02*X41000D01*
X21000Y424000D02*X85000D01*
X21000Y344000D02*X51000D01*
X25500Y424000D02*Y344000D01*
X45500Y424000D02*Y407500D01*
X480500Y354000D02*X532500D01*
X418000Y424000D02*X552500D01*
X78500Y498500D02*Y416000D01*
X66000Y494000D02*X78500D01*
X66000Y414500D02*Y498500D01*
X445500Y441500D02*Y415000D01*
X426000Y435500D02*X445500D01*
X426000Y416000D02*Y441500D01*
X445000Y415500D02*X492500D01*
X444500Y109500D02*X492500D01*
X488000Y415500D02*Y109500D01*
X425500Y78500D02*X507000D01*
X425500Y103500D02*Y73500D01*
X421500Y107500D02*X425500Y103500D01*
X467500Y401500D02*Y123500D01*
X416500Y401500D02*X472000D01*
X416500Y123500D02*X472000D01*
X528000Y354000D02*Y424000D01*
X508500Y101000D02*Y424000D01*
X418000Y101000D02*X523000D01*
X408000Y115000D02*X428000Y135000D01*
X445500Y111000D02*Y54000D01*
X66000Y58500D02*X445500D01*
X66000Y111000D02*Y53500D01*
X89000Y123500D02*Y73500D01*
X416500Y124000D02*Y73500D01*
X89000Y78500D02*X416500D01*
X428000Y135000D02*X548500D01*
G54D54*X535810Y208000D02*X534540Y209270D01*
Y213080D02*Y209270D01*
Y213080D02*X535810Y214350D01*
X538350D01*
X544700Y208000D02*X538350Y214350D01*
X544700D02*Y208000D01*
Y218670D02*Y217400D01*
X535810Y221721D02*X534540Y222991D01*
Y225531D02*Y222991D01*
Y225531D02*X535810Y226801D01*
X543430D01*
X544700Y225531D02*X543430Y226801D01*
X544700Y225531D02*Y222991D01*
X543430Y221721D02*X544700Y222991D01*
X539620Y226801D02*Y222991D01*
X535810Y229851D02*X534540Y231121D01*
Y234931D02*Y231121D01*
Y234931D02*X535810Y236201D01*
X538350D01*
X544700Y229851D02*X538350Y236201D01*
X544700D02*Y229851D01*
X534540Y244332D02*Y239252D01*
X539620D01*
X538350Y240522D01*
Y243062D02*Y240522D01*
Y243062D02*X539620Y244332D01*
X543430D01*
X544700Y243062D02*X543430Y244332D01*
X544700Y243062D02*Y240522D01*
X543430Y239252D02*X544700Y240522D01*
X537080Y247382D02*X538350D01*
X540890D02*X544700D01*
X540890Y251195D02*X544700D01*
X540890D02*X539620Y252465D01*
Y253735D02*Y252465D01*
Y253735D02*X540890Y255005D01*
X544700D01*
X539620Y249925D02*X540890Y251195D01*
X534540Y267707D02*Y262627D01*
X539620D01*
X538350Y263897D01*
Y266437D02*Y263897D01*
Y266437D02*X539620Y267707D01*
X543430D01*
X544700Y266437D02*X543430Y267707D01*
X544700Y266437D02*Y263897D01*
X543430Y262627D02*X544700Y263897D01*
Y270758D02*X539620Y275838D01*
X535810D02*X539620D01*
X534540Y274568D02*X535810Y275838D01*
X534540Y274568D02*Y272028D01*
X535810Y270758D02*X534540Y272028D01*
X535810Y270758D02*X538350D01*
X539620Y272028D01*
Y275838D02*Y272028D01*
X544700Y280158D02*Y278888D01*
X543430Y283209D02*X544700Y284479D01*
X535810Y283209D02*X543430D01*
X535810D02*X534540Y284479D01*
Y287019D02*Y284479D01*
Y287019D02*X535810Y288289D01*
X543430D01*
X544700Y287019D02*X543430Y288289D01*
X544700Y287019D02*Y284479D01*
X542160Y283209D02*X537080Y288289D01*
X534540Y296419D02*Y291339D01*
X539620D01*
X538350Y292609D01*
Y295149D02*Y292609D01*
Y295149D02*X539620Y296419D01*
X543430D01*
X544700Y295149D02*X543430Y296419D01*
X544700Y295149D02*Y292609D01*
X543430Y291339D02*X544700Y292609D01*
X534540Y304550D02*Y299470D01*
X539620D01*
X538350Y300740D01*
Y303280D02*Y300740D01*
Y303280D02*X539620Y304550D01*
X543430D01*
X544700Y303280D02*X543430Y304550D01*
X544700Y303280D02*Y300740D01*
X543430Y299470D02*X544700Y300740D01*
X540890Y308871D02*X544700D01*
X540890D02*X539620Y310141D01*
Y311411D02*Y310141D01*
Y311411D02*X540890Y312681D01*
X544700D01*
X540890D02*X539620Y313951D01*
Y315221D02*Y313951D01*
Y315221D02*X540890Y316491D01*
X544700D01*
X539620Y307601D02*X540890Y308871D01*
Y320811D02*X544700D01*
X540890D02*X539620Y322081D01*
Y323351D02*Y322081D01*
Y323351D02*X540890Y324621D01*
X544700D01*
X540890D02*X539620Y325891D01*
Y327161D02*Y325891D01*
Y327161D02*X540890Y328431D01*
X544700D01*
X539620Y319541D02*X540890Y320811D01*
X81500Y439070D02*X82770Y437800D01*
X81500Y446690D02*Y439070D01*
Y446690D02*X82770Y447960D01*
X85310D01*
X86580Y446690D01*
Y439070D01*
X85310Y437800D02*X86580Y439070D01*
X82770Y437800D02*X85310D01*
X81500Y440340D02*X86580Y445420D01*
X89630Y437800D02*X90900D01*
X97761Y447960D02*X99031Y446690D01*
X95221Y447960D02*X97761D01*
X93951Y446690D02*X95221Y447960D01*
X93951Y446690D02*Y439070D01*
X95221Y437800D01*
X97761Y442880D02*X99031Y441610D01*
X93951Y442880D02*X97761D01*
X95221Y437800D02*X97761D01*
X99031Y439070D01*
Y441610D02*Y439070D01*
X102081Y447960D02*X107161D01*
X102081D02*Y442880D01*
X103351Y444150D01*
X105891D01*
X107161Y442880D01*
Y439070D01*
X105891Y437800D02*X107161Y439070D01*
X103351Y437800D02*X105891D01*
X102081Y439070D02*X103351Y437800D01*
X110212Y447960D02*X115292D01*
X110212D02*Y442880D01*
X111482Y444150D01*
X114022D01*
X115292Y442880D01*
Y439070D01*
X114022Y437800D02*X115292Y439070D01*
X111482Y437800D02*X114022D01*
X110212Y439070D02*X111482Y437800D01*
X118342Y445420D02*Y444150D01*
Y441610D02*Y437800D01*
X122155Y441610D02*Y437800D01*
Y441610D02*X123425Y442880D01*
X124695D01*
X125965Y441610D01*
Y437800D01*
X120885Y442880D02*X122155Y441610D01*
X134857Y437800D02*X137397D01*
X136127Y447960D02*Y437800D01*
X133587Y445420D02*X136127Y447960D01*
X144258D02*X145528Y446690D01*
X141718Y447960D02*X144258D01*
X140448Y446690D02*X141718Y447960D01*
X140448Y446690D02*Y439070D01*
X141718Y437800D01*
X144258Y442880D02*X145528Y441610D01*
X140448Y442880D02*X144258D01*
X141718Y437800D02*X144258D01*
X145528Y439070D01*
Y441610D02*Y439070D01*
X148578Y437800D02*X149848D01*
X156709Y447960D02*X157979Y446690D01*
X154169Y447960D02*X156709D01*
X152899Y446690D02*X154169Y447960D01*
X152899Y446690D02*Y439070D01*
X154169Y437800D01*
X156709Y442880D02*X157979Y441610D01*
X152899Y442880D02*X156709D01*
X154169Y437800D02*X156709D01*
X157979Y439070D01*
Y441610D02*Y439070D01*
X161029Y446690D02*X162299Y447960D01*
X164839D01*
X166109Y446690D01*
Y439070D01*
X164839Y437800D02*X166109Y439070D01*
X162299Y437800D02*X164839D01*
X161029Y439070D02*X162299Y437800D01*
Y442880D02*X166109D01*
X169160Y437800D02*X175510Y444150D01*
Y447960D02*Y444150D01*
X169160Y447960D02*X175510D01*
X179831Y441610D02*Y437800D01*
Y441610D02*X181101Y442880D01*
X182371D01*
X183641Y441610D01*
Y437800D01*
Y441610D02*X184911Y442880D01*
X186181D01*
X187451Y441610D01*
Y437800D01*
X178561Y442880D02*X179831Y441610D01*
X191771D02*Y437800D01*
Y441610D02*X193041Y442880D01*
X194311D01*
X195581Y441610D01*
Y437800D01*
Y441610D02*X196851Y442880D01*
X198121D01*
X199391Y441610D01*
Y437800D01*
X190501Y442880D02*X191771Y441610D01*
X20930Y323000D02*X22200Y324270D01*
X13310Y323000D02*X20930D01*
X13310D02*X12040Y324270D01*
Y326810D02*Y324270D01*
Y326810D02*X13310Y328080D01*
X20930D01*
X22200Y326810D02*X20930Y328080D01*
X22200Y326810D02*Y324270D01*
X19660Y323000D02*X14580Y328080D01*
X22200Y332400D02*Y331130D01*
X20930Y335451D02*X22200Y336721D01*
X18390Y335451D02*X20930D01*
X18390D02*X17120Y336721D01*
Y339261D02*Y336721D01*
Y339261D02*X18390Y340531D01*
X20930D01*
X22200Y339261D02*X20930Y340531D01*
X22200Y339261D02*Y336721D01*
X15850Y335451D02*X17120Y336721D01*
X13310Y335451D02*X15850D01*
X13310D02*X12040Y336721D01*
Y339261D02*Y336721D01*
Y339261D02*X13310Y340531D01*
X15850D01*
X17120Y339261D02*X15850Y340531D01*
X20930Y343581D02*X22200Y344851D01*
X13310Y343581D02*X20930D01*
X13310D02*X12040Y344851D01*
Y347391D02*Y344851D01*
Y347391D02*X13310Y348661D01*
X20930D01*
X22200Y347391D02*X20930Y348661D01*
X22200Y347391D02*Y344851D01*
X19660Y343581D02*X14580Y348661D01*
X20930Y351712D02*X22200Y352982D01*
X13310Y351712D02*X20930D01*
X13310D02*X12040Y352982D01*
Y355522D02*Y352982D01*
Y355522D02*X13310Y356792D01*
X20930D01*
X22200Y355522D02*X20930Y356792D01*
X22200Y355522D02*Y352982D01*
X19660Y351712D02*X14580Y356792D01*
Y359842D02*X15850D01*
X18390D02*X22200D01*
X18390Y363655D02*X22200D01*
X18390D02*X17120Y364925D01*
Y366195D02*Y364925D01*
Y366195D02*X18390Y367465D01*
X22200D01*
X17120Y362385D02*X18390Y363655D01*
X13310Y375087D02*X12040Y376357D01*
Y380167D02*Y376357D01*
Y380167D02*X13310Y381437D01*
X15850D01*
X22200Y375087D02*X15850Y381437D01*
X22200D02*Y375087D01*
X20930Y384488D02*X22200Y385758D01*
X13310Y384488D02*X20930D01*
X13310D02*X12040Y385758D01*
Y388298D02*Y385758D01*
Y388298D02*X13310Y389568D01*
X20930D01*
X22200Y388298D02*X20930Y389568D01*
X22200Y388298D02*Y385758D01*
X19660Y384488D02*X14580Y389568D01*
X22200Y393888D02*Y392618D01*
X13310Y396939D02*X12040Y398209D01*
Y400749D02*Y398209D01*
Y400749D02*X13310Y402019D01*
X20930D01*
X22200Y400749D02*X20930Y402019D01*
X22200Y400749D02*Y398209D01*
X20930Y396939D02*X22200Y398209D01*
X17120Y402019D02*Y398209D01*
X13310Y405069D02*X12040Y406339D01*
Y410149D02*Y406339D01*
Y410149D02*X13310Y411419D01*
X15850D01*
X22200Y405069D02*X15850Y411419D01*
X22200D02*Y405069D01*
X20930Y414470D02*X22200Y415740D01*
X13310Y414470D02*X20930D01*
X13310D02*X12040Y415740D01*
Y418280D02*Y415740D01*
Y418280D02*X13310Y419550D01*
X20930D01*
X22200Y418280D02*X20930Y419550D01*
X22200Y418280D02*Y415740D01*
X19660Y414470D02*X14580Y419550D01*
X18390Y423871D02*X22200D01*
X18390D02*X17120Y425141D01*
Y426411D02*Y425141D01*
Y426411D02*X18390Y427681D01*
X22200D01*
X18390D02*X17120Y428951D01*
Y430221D02*Y428951D01*
Y430221D02*X18390Y431491D01*
X22200D01*
X17120Y422601D02*X18390Y423871D01*
Y435811D02*X22200D01*
X18390D02*X17120Y437081D01*
Y438351D02*Y437081D01*
Y438351D02*X18390Y439621D01*
X22200D01*
X18390D02*X17120Y440891D01*
Y442161D02*Y440891D01*
Y442161D02*X18390Y443431D01*
X22200D01*
X17120Y434541D02*X18390Y435811D01*
X41930Y362000D02*X43200Y363270D01*
X34310Y362000D02*X41930D01*
X34310D02*X33040Y363270D01*
Y365810D02*Y363270D01*
Y365810D02*X34310Y367080D01*
X41930D01*
X43200Y365810D02*X41930Y367080D01*
X43200Y365810D02*Y363270D01*
X40660Y362000D02*X35580Y367080D01*
X43200Y371400D02*Y370130D01*
Y378261D02*Y375721D01*
X33040Y376991D02*X43200D01*
X35580Y374451D02*X33040Y376991D01*
Y385121D02*X34310Y386391D01*
X33040Y385121D02*Y382581D01*
X34310Y381311D02*X33040Y382581D01*
X34310Y381311D02*X41930D01*
X43200Y382581D01*
X38120Y385121D02*X39390Y386391D01*
X38120Y385121D02*Y381311D01*
X43200Y385121D02*Y382581D01*
Y385121D02*X41930Y386391D01*
X39390D02*X41930D01*
X33040Y394522D02*Y389442D01*
X38120D01*
X36850Y390712D01*
Y393252D02*Y390712D01*
Y393252D02*X38120Y394522D01*
X41930D01*
X43200Y393252D02*X41930Y394522D01*
X43200Y393252D02*Y390712D01*
X41930Y389442D02*X43200Y390712D01*
X35580Y397572D02*X36850D01*
X39390D02*X43200D01*
X39390Y401385D02*X43200D01*
X39390D02*X38120Y402655D01*
Y403925D02*Y402655D01*
Y403925D02*X39390Y405195D01*
X43200D01*
X38120Y400115D02*X39390Y401385D01*
X38120Y412817D02*X33040Y417897D01*
X38120Y419167D02*Y412817D01*
X33040Y417897D02*X43200D01*
Y423488D02*Y422218D01*
Y430348D02*Y427808D01*
X33040Y429078D02*X43200D01*
X35580Y426538D02*X33040Y429078D01*
X43200Y433399D02*X38120Y438479D01*
X34310D02*X38120D01*
X33040Y437209D02*X34310Y438479D01*
X33040Y437209D02*Y434669D01*
X34310Y433399D02*X33040Y434669D01*
X34310Y433399D02*X36850D01*
X38120Y434669D01*
Y438479D02*Y434669D01*
X43200Y445339D02*Y442799D01*
X33040Y444069D02*X43200D01*
X35580Y441529D02*X33040Y444069D01*
X39390Y449660D02*X43200D01*
X39390D02*X38120Y450930D01*
Y452200D02*Y450930D01*
Y452200D02*X39390Y453470D01*
X43200D01*
X39390D02*X38120Y454740D01*
Y456010D02*Y454740D01*
Y456010D02*X39390Y457280D01*
X43200D01*
X38120Y448390D02*X39390Y449660D01*
Y461601D02*X43200D01*
X39390D02*X38120Y462871D01*
Y464141D02*Y462871D01*
Y464141D02*X39390Y465411D01*
X43200D01*
X39390D02*X38120Y466681D01*
Y467951D02*Y466681D01*
Y467951D02*X39390Y469221D01*
X43200D01*
X38120Y460331D02*X39390Y461601D01*
X523930Y316000D02*X525200Y317270D01*
X516310Y316000D02*X523930D01*
X516310D02*X515040Y317270D01*
Y319810D02*Y317270D01*
Y319810D02*X516310Y321080D01*
X523930D01*
X525200Y319810D02*X523930Y321080D01*
X525200Y319810D02*Y317270D01*
X522660Y316000D02*X517580Y321080D01*
X525200Y325400D02*Y324130D01*
Y328451D02*X518850Y334801D01*
X515040D02*X518850D01*
X515040D02*Y328451D01*
X523930Y337851D02*X525200Y339121D01*
X516310Y337851D02*X523930D01*
X516310D02*X515040Y339121D01*
Y341661D02*Y339121D01*
Y341661D02*X516310Y342931D01*
X523930D01*
X525200Y341661D02*X523930Y342931D01*
X525200Y341661D02*Y339121D01*
X522660Y337851D02*X517580Y342931D01*
X523930Y345982D02*X525200Y347252D01*
X516310Y345982D02*X523930D01*
X516310D02*X515040Y347252D01*
Y349792D02*Y347252D01*
Y349792D02*X516310Y351062D01*
X523930D01*
X525200Y349792D02*X523930Y351062D01*
X525200Y349792D02*Y347252D01*
X522660Y345982D02*X517580Y351062D01*
Y354112D02*X518850D01*
X521390D02*X525200D01*
X521390Y357925D02*X525200D01*
X521390D02*X520120Y359195D01*
Y360465D02*Y359195D01*
Y360465D02*X521390Y361735D01*
X525200D01*
X520120Y356655D02*X521390Y357925D01*
X525200Y373167D02*Y370627D01*
X515040Y371897D02*X525200D01*
X517580Y369357D02*X515040Y371897D01*
X525200Y376218D02*X518850Y382568D01*
X515040D02*X518850D01*
X515040D02*Y376218D01*
X525200Y386888D02*Y385618D01*
Y389939D02*X518850Y396289D01*
X515040D02*X518850D01*
X515040D02*Y389939D01*
X523930Y399339D02*X525200Y400609D01*
X521390Y399339D02*X523930D01*
X521390D02*X520120Y400609D01*
Y403149D02*Y400609D01*
Y403149D02*X521390Y404419D01*
X523930D01*
X525200Y403149D02*X523930Y404419D01*
X525200Y403149D02*Y400609D01*
X518850Y399339D02*X520120Y400609D01*
X516310Y399339D02*X518850D01*
X516310D02*X515040Y400609D01*
Y403149D02*Y400609D01*
Y403149D02*X516310Y404419D01*
X518850D01*
X520120Y403149D02*X518850Y404419D01*
X523930Y407470D02*X525200Y408740D01*
X516310Y407470D02*X523930D01*
X516310D02*X515040Y408740D01*
Y411280D02*Y408740D01*
Y411280D02*X516310Y412550D01*
X523930D01*
X525200Y411280D02*X523930Y412550D01*
X525200Y411280D02*Y408740D01*
X522660Y407470D02*X517580Y412550D01*
X521390Y416871D02*X525200D01*
X521390D02*X520120Y418141D01*
Y419411D02*Y418141D01*
Y419411D02*X521390Y420681D01*
X525200D01*
X521390D02*X520120Y421951D01*
Y423221D02*Y421951D01*
Y423221D02*X521390Y424491D01*
X525200D01*
X520120Y415601D02*X521390Y416871D01*
Y428811D02*X525200D01*
X521390D02*X520120Y430081D01*
Y431351D02*Y430081D01*
Y431351D02*X521390Y432621D01*
X525200D01*
X521390D02*X520120Y433891D01*
Y435161D02*Y433891D01*
Y435161D02*X521390Y436431D01*
X525200D01*
X520120Y427541D02*X521390Y428811D01*
X23500Y499070D02*X24770Y497800D01*
X23500Y506690D02*Y499070D01*
Y506690D02*X24770Y507960D01*
X27310D01*
X28580Y506690D01*
Y499070D01*
X27310Y497800D02*X28580Y499070D01*
X24770Y497800D02*X27310D01*
X23500Y500340D02*X28580Y505420D01*
X31630Y497800D02*X32900D01*
X37221D02*X39761D01*
X38491Y507960D02*Y497800D01*
X35951Y505420D02*X38491Y507960D01*
X42811Y506690D02*X44081Y507960D01*
X47891D01*
X49161Y506690D01*
Y504150D01*
X42811Y497800D02*X49161Y504150D01*
X42811Y497800D02*X49161D01*
X52212Y507960D02*X57292D01*
X52212D02*Y502880D01*
X53482Y504150D01*
X56022D01*
X57292Y502880D01*
Y499070D01*
X56022Y497800D02*X57292Y499070D01*
X53482Y497800D02*X56022D01*
X52212Y499070D02*X53482Y497800D01*
X60342Y505420D02*Y504150D01*
Y501610D02*Y497800D01*
X64155Y501610D02*Y497800D01*
Y501610D02*X65425Y502880D01*
X66695D01*
X67965Y501610D01*
Y497800D01*
X62885Y502880D02*X64155Y501610D01*
X75587Y506690D02*X76857Y507960D01*
X79397D01*
X80667Y506690D01*
Y499070D01*
X79397Y497800D02*X80667Y499070D01*
X76857Y497800D02*X79397D01*
X75587Y499070D02*X76857Y497800D01*
Y502880D02*X80667D01*
X83718Y497800D02*X84988D01*
X89308D02*X91848D01*
X90578Y507960D02*Y497800D01*
X88038Y505420D02*X90578Y507960D01*
X94899Y497800D02*X101249Y504150D01*
Y507960D02*Y504150D01*
X94899Y507960D02*X101249D01*
X104299D02*X109379D01*
X104299D02*Y502880D01*
X105569Y504150D01*
X108109D01*
X109379Y502880D01*
Y499070D01*
X108109Y497800D02*X109379Y499070D01*
X105569Y497800D02*X108109D01*
X104299Y499070D02*X105569Y497800D01*
X113700Y501610D02*Y497800D01*
Y501610D02*X114970Y502880D01*
X116240D01*
X117510Y501610D01*
Y497800D01*
Y501610D02*X118780Y502880D01*
X120050D01*
X121320Y501610D01*
Y497800D01*
X112430Y502880D02*X113700Y501610D01*
X125641D02*Y497800D01*
Y501610D02*X126911Y502880D01*
X128181D01*
X129451Y501610D01*
Y497800D01*
Y501610D02*X130721Y502880D01*
X131991D01*
X133261Y501610D01*
Y497800D01*
X124371Y502880D02*X125641Y501610D01*
X311000Y434470D02*X312270Y433200D01*
X311000Y442090D02*Y434470D01*
Y442090D02*X312270Y443360D01*
X314810D01*
X316080Y442090D01*
Y434470D01*
X314810Y433200D02*X316080Y434470D01*
X312270Y433200D02*X314810D01*
X311000Y435740D02*X316080Y440820D01*
X319130Y433200D02*X320400D01*
X324721D02*X327261D01*
X325991Y443360D02*Y433200D01*
X323451Y440820D02*X325991Y443360D01*
X330311Y433200D02*X335391Y438280D01*
Y442090D02*Y438280D01*
X334121Y443360D02*X335391Y442090D01*
X331581Y443360D02*X334121D01*
X330311Y442090D02*X331581Y443360D01*
X330311Y442090D02*Y439550D01*
X331581Y438280D01*
X335391D01*
X338442Y443360D02*X343522D01*
X338442D02*Y438280D01*
X339712Y439550D01*
X342252D01*
X343522Y438280D01*
Y434470D01*
X342252Y433200D02*X343522Y434470D01*
X339712Y433200D02*X342252D01*
X338442Y434470D02*X339712Y433200D01*
X346572Y440820D02*Y439550D01*
Y437010D02*Y433200D01*
X350385Y437010D02*Y433200D01*
Y437010D02*X351655Y438280D01*
X352925D01*
X354195Y437010D01*
Y433200D01*
X349115Y438280D02*X350385Y437010D01*
X361817Y438280D02*X366897Y443360D01*
X361817Y438280D02*X368167D01*
X366897Y443360D02*Y433200D01*
X371218D02*X372488D01*
X375538D02*X380618Y438280D01*
Y442090D02*Y438280D01*
X379348Y443360D02*X380618Y442090D01*
X376808Y443360D02*X379348D01*
X375538Y442090D02*X376808Y443360D01*
X375538Y442090D02*Y439550D01*
X376808Y438280D01*
X380618D01*
X383669Y443360D02*X388749D01*
X383669D02*Y438280D01*
X384939Y439550D01*
X387479D01*
X388749Y438280D01*
Y434470D01*
X387479Y433200D02*X388749Y434470D01*
X384939Y433200D02*X387479D01*
X383669Y434470D02*X384939Y433200D01*
X391799Y442090D02*X393069Y443360D01*
X395609D01*
X396879Y442090D01*
Y434470D01*
X395609Y433200D02*X396879Y434470D01*
X393069Y433200D02*X395609D01*
X391799Y434470D02*X393069Y433200D01*
Y438280D02*X396879D01*
X401200Y437010D02*Y433200D01*
Y437010D02*X402470Y438280D01*
X403740D01*
X405010Y437010D01*
Y433200D01*
Y437010D02*X406280Y438280D01*
X407550D01*
X408820Y437010D01*
Y433200D01*
X399930Y438280D02*X401200Y437010D01*
X413141D02*Y433200D01*
Y437010D02*X414411Y438280D01*
X415681D01*
X416951Y437010D01*
Y433200D01*
Y437010D02*X418221Y438280D01*
X419491D01*
X420761Y437010D01*
Y433200D01*
X411871Y438280D02*X413141Y437010D01*
X189500Y91190D02*X190770Y92460D01*
X193310D01*
X194580Y91190D01*
Y83570D01*
X193310Y82300D02*X194580Y83570D01*
X190770Y82300D02*X193310D01*
X189500Y83570D02*X190770Y82300D01*
Y87380D02*X194580D01*
X197630Y82300D02*X198900D01*
X201951Y91190D02*X203221Y92460D01*
X207031D01*
X208301Y91190D01*
Y88650D01*
X201951Y82300D02*X208301Y88650D01*
X201951Y82300D02*X208301D01*
X211351D02*X217701Y88650D01*
Y92460D02*Y88650D01*
X211351Y92460D02*X217701D01*
X220752D02*X225832D01*
X220752D02*Y87380D01*
X222022Y88650D01*
X224562D01*
X225832Y87380D01*
Y83570D01*
X224562Y82300D02*X225832Y83570D01*
X222022Y82300D02*X224562D01*
X220752Y83570D02*X222022Y82300D01*
X228882Y89920D02*Y88650D01*
Y86110D02*Y82300D01*
X232695Y86110D02*Y82300D01*
Y86110D02*X233965Y87380D01*
X235235D01*
X236505Y86110D01*
Y82300D01*
X231425Y87380D02*X232695Y86110D01*
X244127Y83570D02*X245397Y82300D01*
X244127Y86110D02*Y83570D01*
Y86110D02*X245397Y87380D01*
X247937D01*
X249207Y86110D01*
Y83570D01*
X247937Y82300D02*X249207Y83570D01*
X245397Y82300D02*X247937D01*
X244127Y88650D02*X245397Y87380D01*
X244127Y91190D02*Y88650D01*
Y91190D02*X245397Y92460D01*
X247937D01*
X249207Y91190D01*
Y88650D01*
X247937Y87380D02*X249207Y88650D01*
X252258Y91190D02*X253528Y92460D01*
X256068D01*
X257338Y91190D01*
Y83570D01*
X256068Y82300D02*X257338Y83570D01*
X253528Y82300D02*X256068D01*
X252258Y83570D02*X253528Y82300D01*
Y87380D02*X257338D01*
X260388Y82300D02*X261658D01*
X265979D02*X268519D01*
X267249Y92460D02*Y82300D01*
X264709Y89920D02*X267249Y92460D01*
X271569Y83570D02*X272839Y82300D01*
X271569Y86110D02*Y83570D01*
Y86110D02*X272839Y87380D01*
X275379D01*
X276649Y86110D01*
Y83570D01*
X275379Y82300D02*X276649Y83570D01*
X272839Y82300D02*X275379D01*
X271569Y88650D02*X272839Y87380D01*
X271569Y91190D02*Y88650D01*
Y91190D02*X272839Y92460D01*
X275379D01*
X276649Y91190D01*
Y88650D01*
X275379Y87380D02*X276649Y88650D01*
X279700Y92460D02*X284780D01*
X279700D02*Y87380D01*
X280970Y88650D01*
X283510D01*
X284780Y87380D01*
Y83570D01*
X283510Y82300D02*X284780Y83570D01*
X280970Y82300D02*X283510D01*
X279700Y83570D02*X280970Y82300D01*
X289101Y86110D02*Y82300D01*
Y86110D02*X290371Y87380D01*
X291641D01*
X292911Y86110D01*
Y82300D01*
Y86110D02*X294181Y87380D01*
X295451D01*
X296721Y86110D01*
Y82300D01*
X287831Y87380D02*X289101Y86110D01*
X301041D02*Y82300D01*
Y86110D02*X302311Y87380D01*
X303581D01*
X304851Y86110D01*
Y82300D01*
Y86110D02*X306121Y87380D01*
X307391D01*
X308661Y86110D01*
Y82300D01*
X299771Y87380D02*X301041Y86110D01*
X189500Y71690D02*X190770Y72960D01*
X193310D01*
X194580Y71690D01*
Y64070D01*
X193310Y62800D02*X194580Y64070D01*
X190770Y62800D02*X193310D01*
X189500Y64070D02*X190770Y62800D01*
Y67880D02*X194580D01*
X197630Y62800D02*X198900D01*
X201951D02*X208301Y69150D01*
Y72960D02*Y69150D01*
X201951Y72960D02*X208301D01*
X211351Y62800D02*X216431Y67880D01*
Y71690D02*Y67880D01*
X215161Y72960D02*X216431Y71690D01*
X212621Y72960D02*X215161D01*
X211351Y71690D02*X212621Y72960D01*
X211351Y71690D02*Y69150D01*
X212621Y67880D01*
X216431D01*
X219482Y72960D02*X224562D01*
X219482D02*Y67880D01*
X220752Y69150D01*
X223292D01*
X224562Y67880D01*
Y64070D01*
X223292Y62800D02*X224562Y64070D01*
X220752Y62800D02*X223292D01*
X219482Y64070D02*X220752Y62800D01*
X227612Y70420D02*Y69150D01*
Y66610D02*Y62800D01*
X231425Y66610D02*Y62800D01*
Y66610D02*X232695Y67880D01*
X233965D01*
X235235Y66610D01*
Y62800D01*
X230155Y67880D02*X231425Y66610D01*
X242857Y62800D02*X247937Y67880D01*
Y71690D02*Y67880D01*
X246667Y72960D02*X247937Y71690D01*
X244127Y72960D02*X246667D01*
X242857Y71690D02*X244127Y72960D01*
X242857Y71690D02*Y69150D01*
X244127Y67880D01*
X247937D01*
X254798Y72960D02*X256068Y71690D01*
X252258Y72960D02*X254798D01*
X250988Y71690D02*X252258Y72960D01*
X250988Y71690D02*Y64070D01*
X252258Y62800D01*
X254798Y67880D02*X256068Y66610D01*
X250988Y67880D02*X254798D01*
X252258Y62800D02*X254798D01*
X256068Y64070D01*
Y66610D02*Y64070D01*
X259118Y62800D02*X260388D01*
X263439Y71690D02*X264709Y72960D01*
X267249D01*
X268519Y71690D01*
Y64070D01*
X267249Y62800D02*X268519Y64070D01*
X264709Y62800D02*X267249D01*
X263439Y64070D02*X264709Y62800D01*
Y67880D02*X268519D01*
X271569Y62800D02*X276649Y67880D01*
Y71690D02*Y67880D01*
X275379Y72960D02*X276649Y71690D01*
X272839Y72960D02*X275379D01*
X271569Y71690D02*X272839Y72960D01*
X271569Y71690D02*Y69150D01*
X272839Y67880D01*
X276649D01*
X279700Y71690D02*X280970Y72960D01*
X283510D01*
X284780Y71690D01*
Y64070D01*
X283510Y62800D02*X284780Y64070D01*
X280970Y62800D02*X283510D01*
X279700Y64070D02*X280970Y62800D01*
Y67880D02*X284780D01*
X289101Y66610D02*Y62800D01*
Y66610D02*X290371Y67880D01*
X291641D01*
X292911Y66610D01*
Y62800D01*
Y66610D02*X294181Y67880D01*
X295451D01*
X296721Y66610D01*
Y62800D01*
X287831Y67880D02*X289101Y66610D01*
X301041D02*Y62800D01*
Y66610D02*X302311Y67880D01*
X303581D01*
X304851Y66610D01*
Y62800D01*
Y66610D02*X306121Y67880D01*
X307391D01*
X308661Y66610D01*
Y62800D01*
X299771Y67880D02*X301041Y66610D01*
X496810Y207500D02*X495540Y208770D01*
Y211310D02*Y208770D01*
Y211310D02*X496810Y212580D01*
X504430D01*
X505700Y211310D02*X504430Y212580D01*
X505700Y211310D02*Y208770D01*
X504430Y207500D02*X505700Y208770D01*
X500620Y212580D02*Y208770D01*
X505700Y216900D02*Y215630D01*
X496810Y219951D02*X495540Y221221D01*
Y225031D02*Y221221D01*
Y225031D02*X496810Y226301D01*
X499350D01*
X505700Y219951D02*X499350Y226301D01*
X505700D02*Y219951D01*
X496810Y229351D02*X495540Y230621D01*
Y233161D02*Y230621D01*
Y233161D02*X496810Y234431D01*
X504430D01*
X505700Y233161D02*X504430Y234431D01*
X505700Y233161D02*Y230621D01*
X504430Y229351D02*X505700Y230621D01*
X500620Y234431D02*Y230621D01*
X504430Y237482D02*X505700Y238752D01*
X496810Y237482D02*X504430D01*
X496810D02*X495540Y238752D01*
Y241292D02*Y238752D01*
Y241292D02*X496810Y242562D01*
X504430D01*
X505700Y241292D02*X504430Y242562D01*
X505700Y241292D02*Y238752D01*
X503160Y237482D02*X498080Y242562D01*
Y245612D02*X499350D01*
X501890D02*X505700D01*
X501890Y249425D02*X505700D01*
X501890D02*X500620Y250695D01*
Y251965D02*Y250695D01*
Y251965D02*X501890Y253235D01*
X505700D01*
X500620Y248155D02*X501890Y249425D01*
X504430Y260857D02*X505700Y262127D01*
X501890Y260857D02*X504430D01*
X501890D02*X500620Y262127D01*
Y264667D02*Y262127D01*
Y264667D02*X501890Y265937D01*
X504430D01*
X505700Y264667D02*X504430Y265937D01*
X505700Y264667D02*Y262127D01*
X499350Y260857D02*X500620Y262127D01*
X496810Y260857D02*X499350D01*
X496810D02*X495540Y262127D01*
Y264667D02*Y262127D01*
Y264667D02*X496810Y265937D01*
X499350D01*
X500620Y264667D02*X499350Y265937D01*
X496810Y268988D02*X495540Y270258D01*
Y274068D02*Y270258D01*
Y274068D02*X496810Y275338D01*
X499350D01*
X505700Y268988D02*X499350Y275338D01*
X505700D02*Y268988D01*
Y279658D02*Y278388D01*
X504430Y282709D02*X505700Y283979D01*
X496810Y282709D02*X504430D01*
X496810D02*X495540Y283979D01*
Y286519D02*Y283979D01*
Y286519D02*X496810Y287789D01*
X504430D01*
X505700Y286519D02*X504430Y287789D01*
X505700Y286519D02*Y283979D01*
X503160Y282709D02*X498080Y287789D01*
X500620Y290839D02*X495540Y295919D01*
X500620Y297189D02*Y290839D01*
X495540Y295919D02*X505700D01*
X496810Y300240D02*X495540Y301510D01*
Y305320D02*Y301510D01*
Y305320D02*X496810Y306590D01*
X499350D01*
X505700Y300240D02*X499350Y306590D01*
X505700D02*Y300240D01*
X501890Y310911D02*X505700D01*
X501890D02*X500620Y312181D01*
Y313451D02*Y312181D01*
Y313451D02*X501890Y314721D01*
X505700D01*
X501890D02*X500620Y315991D01*
Y317261D02*Y315991D01*
Y317261D02*X501890Y318531D01*
X505700D01*
X500620Y309641D02*X501890Y310911D01*
Y322851D02*X505700D01*
X501890D02*X500620Y324121D01*
Y325391D02*Y324121D01*
Y325391D02*X501890Y326661D01*
X505700D01*
X501890D02*X500620Y327931D01*
Y329201D02*Y327931D01*
Y329201D02*X501890Y330471D01*
X505700D01*
X500620Y321581D02*X501890Y322851D01*
X476310Y215000D02*X475040Y216270D01*
Y218810D02*Y216270D01*
Y218810D02*X476310Y220080D01*
X483930D01*
X485200Y218810D02*X483930Y220080D01*
X485200Y218810D02*Y216270D01*
X483930Y215000D02*X485200Y216270D01*
X480120Y220080D02*Y216270D01*
X485200Y224400D02*Y223130D01*
X483930Y227451D02*X485200Y228721D01*
X476310Y227451D02*X483930D01*
X476310D02*X475040Y228721D01*
Y231261D02*Y228721D01*
Y231261D02*X476310Y232531D01*
X483930D01*
X485200Y231261D02*X483930Y232531D01*
X485200Y231261D02*Y228721D01*
X482660Y227451D02*X477580Y232531D01*
X475040Y239391D02*X476310Y240661D01*
X475040Y239391D02*Y236851D01*
X476310Y235581D02*X475040Y236851D01*
X476310Y235581D02*X483930D01*
X485200Y236851D01*
X480120Y239391D02*X481390Y240661D01*
X480120Y239391D02*Y235581D01*
X485200Y239391D02*Y236851D01*
Y239391D02*X483930Y240661D01*
X481390D02*X483930D01*
Y243712D02*X485200Y244982D01*
X476310Y243712D02*X483930D01*
X476310D02*X475040Y244982D01*
Y247522D02*Y244982D01*
Y247522D02*X476310Y248792D01*
X483930D01*
X485200Y247522D02*X483930Y248792D01*
X485200Y247522D02*Y244982D01*
X482660Y243712D02*X477580Y248792D01*
Y251842D02*X478850D01*
X481390D02*X485200D01*
X481390Y255655D02*X485200D01*
X481390D02*X480120Y256925D01*
Y258195D02*Y256925D01*
Y258195D02*X481390Y259465D01*
X485200D01*
X480120Y254385D02*X481390Y255655D01*
X485200Y267087D02*X478850Y273437D01*
X475040D02*X478850D01*
X475040D02*Y267087D01*
X485200Y276488D02*X478850Y282838D01*
X475040D02*X478850D01*
X475040D02*Y276488D01*
X485200Y287158D02*Y285888D01*
Y290209D02*X478850Y296559D01*
X475040D02*X478850D01*
X475040D02*Y290209D01*
X476310Y299609D02*X475040Y300879D01*
Y304689D02*Y300879D01*
Y304689D02*X476310Y305959D01*
X478850D01*
X485200Y299609D02*X478850Y305959D01*
X485200D02*Y299609D01*
X480120Y309010D02*X475040Y314090D01*
X480120Y315360D02*Y309010D01*
X475040Y314090D02*X485200D01*
X481390Y319681D02*X485200D01*
X481390D02*X480120Y320951D01*
Y322221D02*Y320951D01*
Y322221D02*X481390Y323491D01*
X485200D01*
X481390D02*X480120Y324761D01*
Y326031D02*Y324761D01*
Y326031D02*X481390Y327301D01*
X485200D01*
X480120Y318411D02*X481390Y319681D01*
Y331621D02*X485200D01*
X481390D02*X480120Y332891D01*
Y334161D02*Y332891D01*
Y334161D02*X481390Y335431D01*
X485200D01*
X481390D02*X480120Y336701D01*
Y337971D02*Y336701D01*
Y337971D02*X481390Y339241D01*
X485200D01*
X480120Y330351D02*X481390Y331621D01*
X429000Y91960D02*X434080D01*
X435350Y90690D01*
Y88150D01*
X434080Y86880D02*X435350Y88150D01*
X430270Y86880D02*X434080D01*
X430270Y91960D02*Y81800D01*
Y86880D02*X435350Y81800D01*
X438400Y88150D02*X443480D01*
X438400Y85610D02*X443480D01*
X446531Y90690D02*X447801Y91960D01*
X451611D01*
X452881Y90690D01*
Y88150D01*
X446531Y81800D02*X452881Y88150D01*
X446531Y81800D02*X452881D01*
X455931D02*X457201D01*
X461522D02*X464062D01*
X462792Y91960D02*Y81800D01*
X460252Y89420D02*X462792Y91960D01*
X467112D02*X472192D01*
X467112D02*Y86880D01*
X468382Y88150D01*
X470922D01*
X472192Y86880D01*
Y83070D01*
X470922Y81800D02*X472192Y83070D01*
X468382Y81800D02*X470922D01*
X467112Y83070D02*X468382Y81800D01*
X475243D02*X480323Y86880D01*
Y90690D02*Y86880D01*
X479053Y91960D02*X480323Y90690D01*
X476513Y91960D02*X479053D01*
X475243Y90690D02*X476513Y91960D01*
X475243Y90690D02*Y88150D01*
X476513Y86880D01*
X480323D01*
X484643Y85610D02*Y81800D01*
Y85610D02*X485913Y86880D01*
X487183D01*
X488453Y85610D01*
Y81800D01*
Y85610D02*X489723Y86880D01*
X490993D01*
X492263Y85610D01*
Y81800D01*
X483373Y86880D02*X484643Y85610D01*
X496584D02*Y81800D01*
Y85610D02*X497854Y86880D01*
X499124D01*
X500394Y85610D01*
Y81800D01*
Y85610D02*X501664Y86880D01*
X502934D01*
X504204Y85610D01*
Y81800D01*
X495314Y86880D02*X496584Y85610D01*
X454310Y214000D02*X453040Y215270D01*
Y219080D02*Y215270D01*
Y219080D02*X454310Y220350D01*
X456850D01*
X463200Y214000D02*X456850Y220350D01*
X463200D02*Y214000D01*
Y224670D02*Y223400D01*
Y227721D02*X456850Y234071D01*
X453040D02*X456850D01*
X453040D02*Y227721D01*
X461930Y237121D02*X463200Y238391D01*
X459390Y237121D02*X461930D01*
X459390D02*X458120Y238391D01*
Y240931D02*Y238391D01*
Y240931D02*X459390Y242201D01*
X461930D01*
X463200Y240931D02*X461930Y242201D01*
X463200Y240931D02*Y238391D01*
X456850Y237121D02*X458120Y238391D01*
X454310Y237121D02*X456850D01*
X454310D02*X453040Y238391D01*
Y240931D02*Y238391D01*
Y240931D02*X454310Y242201D01*
X456850D01*
X458120Y240931D02*X456850Y242201D01*
X453040Y250332D02*Y245252D01*
X458120D01*
X456850Y246522D01*
Y249062D02*Y246522D01*
Y249062D02*X458120Y250332D01*
X461930D01*
X463200Y249062D02*X461930Y250332D01*
X463200Y249062D02*Y246522D01*
X461930Y245252D02*X463200Y246522D01*
X455580Y253382D02*X456850D01*
X459390D02*X463200D01*
X459390Y257195D02*X463200D01*
X459390D02*X458120Y258465D01*
Y259735D02*Y258465D01*
Y259735D02*X459390Y261005D01*
X463200D01*
X458120Y255925D02*X459390Y257195D01*
X463200Y268627D02*X456850Y274977D01*
X453040D02*X456850D01*
X453040D02*Y268627D01*
X461930Y278028D02*X463200Y279298D01*
X454310Y278028D02*X461930D01*
X454310D02*X453040Y279298D01*
Y281838D02*Y279298D01*
Y281838D02*X454310Y283108D01*
X461930D01*
X463200Y281838D02*X461930Y283108D01*
X463200Y281838D02*Y279298D01*
X460660Y278028D02*X455580Y283108D01*
X463200Y287428D02*Y286158D01*
Y290479D02*X456850Y296829D01*
X453040D02*X456850D01*
X453040D02*Y290479D01*
X454310Y299879D02*X453040Y301149D01*
Y303689D02*Y301149D01*
Y303689D02*X454310Y304959D01*
X461930D01*
X463200Y303689D02*X461930Y304959D01*
X463200Y303689D02*Y301149D01*
X461930Y299879D02*X463200Y301149D01*
X458120Y304959D02*Y301149D01*
X463200Y308010D02*X458120Y313090D01*
X454310D02*X458120D01*
X453040Y311820D02*X454310Y313090D01*
X453040Y311820D02*Y309280D01*
X454310Y308010D02*X453040Y309280D01*
X454310Y308010D02*X456850D01*
X458120Y309280D01*
Y313090D02*Y309280D01*
X459390Y317411D02*X463200D01*
X459390D02*X458120Y318681D01*
Y319951D02*Y318681D01*
Y319951D02*X459390Y321221D01*
X463200D01*
X459390D02*X458120Y322491D01*
Y323761D02*Y322491D01*
Y323761D02*X459390Y325031D01*
X463200D01*
X458120Y316141D02*X459390Y317411D01*
Y329351D02*X463200D01*
X459390D02*X458120Y330621D01*
Y331891D02*Y330621D01*
Y331891D02*X459390Y333161D01*
X463200D01*
X459390D02*X458120Y334431D01*
Y335701D02*Y334431D01*
Y335701D02*X459390Y336971D01*
X463200D01*
X458120Y328081D02*X459390Y329351D01*
X84270Y457300D02*X86810D01*
X85540Y467460D02*Y457300D01*
X83000Y464920D02*X85540Y467460D01*
X89860Y457300D02*X91130D01*
X94181Y458570D02*X95451Y457300D01*
X94181Y466190D02*Y458570D01*
Y466190D02*X95451Y467460D01*
X97991D01*
X99261Y466190D01*
Y458570D01*
X97991Y457300D02*X99261Y458570D01*
X95451Y457300D02*X97991D01*
X94181Y459840D02*X99261Y464920D01*
X102311Y466190D02*X103581Y467460D01*
X106121D01*
X107391Y466190D01*
Y458570D01*
X106121Y457300D02*X107391Y458570D01*
X103581Y457300D02*X106121D01*
X102311Y458570D02*X103581Y457300D01*
Y462380D02*X107391D01*
X110442Y467460D02*X115522D01*
X110442D02*Y462380D01*
X111712Y463650D01*
X114252D01*
X115522Y462380D01*
Y458570D01*
X114252Y457300D02*X115522Y458570D01*
X111712Y457300D02*X114252D01*
X110442Y458570D02*X111712Y457300D01*
X118572Y464920D02*Y463650D01*
Y461110D02*Y457300D01*
X122385Y461110D02*Y457300D01*
Y461110D02*X123655Y462380D01*
X124925D01*
X126195Y461110D01*
Y457300D01*
X121115Y462380D02*X122385Y461110D01*
X133817Y466190D02*X135087Y467460D01*
X138897D01*
X140167Y466190D01*
Y463650D01*
X133817Y457300D02*X140167Y463650D01*
X133817Y457300D02*X140167D01*
X147028Y467460D02*X148298Y466190D01*
X144488Y467460D02*X147028D01*
X143218Y466190D02*X144488Y467460D01*
X143218Y466190D02*Y458570D01*
X144488Y457300D01*
X147028Y462380D02*X148298Y461110D01*
X143218Y462380D02*X147028D01*
X144488Y457300D02*X147028D01*
X148298Y458570D01*
Y461110D02*Y458570D01*
X151348Y457300D02*X152618D01*
X155669Y466190D02*X156939Y467460D01*
X160749D01*
X162019Y466190D01*
Y463650D01*
X155669Y457300D02*X162019Y463650D01*
X155669Y457300D02*X162019D01*
X165069Y458570D02*X166339Y457300D01*
X165069Y461110D02*Y458570D01*
Y461110D02*X166339Y462380D01*
X168879D01*
X170149Y461110D01*
Y458570D01*
X168879Y457300D02*X170149Y458570D01*
X166339Y457300D02*X168879D01*
X165069Y463650D02*X166339Y462380D01*
X165069Y466190D02*Y463650D01*
Y466190D02*X166339Y467460D01*
X168879D01*
X170149Y466190D01*
Y463650D01*
X168879Y462380D02*X170149Y463650D01*
X173200Y457300D02*X178280Y462380D01*
Y466190D02*Y462380D01*
X177010Y467460D02*X178280Y466190D01*
X174470Y467460D02*X177010D01*
X173200Y466190D02*X174470Y467460D01*
X173200Y466190D02*Y463650D01*
X174470Y462380D01*
X178280D01*
X182601Y461110D02*Y457300D01*
Y461110D02*X183871Y462380D01*
X185141D01*
X186411Y461110D01*
Y457300D01*
Y461110D02*X187681Y462380D01*
X188951D01*
X190221Y461110D01*
Y457300D01*
X181331Y462380D02*X182601Y461110D01*
X194541D02*Y457300D01*
Y461110D02*X195811Y462380D01*
X197081D01*
X198351Y461110D01*
Y457300D01*
Y461110D02*X199621Y462380D01*
X200891D01*
X202161Y461110D01*
Y457300D01*
X193271Y462380D02*X194541Y461110D01*
X84270Y476800D02*X86810D01*
X85540Y486960D02*Y476800D01*
X83000Y484420D02*X85540Y486960D01*
X89860Y476800D02*X91130D01*
X94181Y481880D02*X99261Y486960D01*
X94181Y481880D02*X100531D01*
X99261Y486960D02*Y476800D01*
X104851D02*X107391D01*
X106121Y486960D02*Y476800D01*
X103581Y484420D02*X106121Y486960D01*
X110442D02*X115522D01*
X110442D02*Y481880D01*
X111712Y483150D01*
X114252D01*
X115522Y481880D01*
Y478070D01*
X114252Y476800D02*X115522Y478070D01*
X111712Y476800D02*X114252D01*
X110442Y478070D02*X111712Y476800D01*
X118572Y484420D02*Y483150D01*
Y480610D02*Y476800D01*
X122385Y480610D02*Y476800D01*
Y480610D02*X123655Y481880D01*
X124925D01*
X126195Y480610D01*
Y476800D01*
X121115Y481880D02*X122385Y480610D01*
X133817Y485690D02*X135087Y486960D01*
X137627D01*
X138897Y485690D01*
Y478070D01*
X137627Y476800D02*X138897Y478070D01*
X135087Y476800D02*X137627D01*
X133817Y478070D02*X135087Y476800D01*
Y481880D02*X138897D01*
X141948Y486960D02*X147028D01*
X141948D02*Y481880D01*
X143218Y483150D01*
X145758D01*
X147028Y481880D01*
Y478070D01*
X145758Y476800D02*X147028Y478070D01*
X143218Y476800D02*X145758D01*
X141948Y478070D02*X143218Y476800D01*
X150078D02*X151348D01*
X154399D02*X159479Y481880D01*
Y485690D02*Y481880D01*
X158209Y486960D02*X159479Y485690D01*
X155669Y486960D02*X158209D01*
X154399Y485690D02*X155669Y486960D01*
X154399Y485690D02*Y483150D01*
X155669Y481880D01*
X159479D01*
X162529D02*X167609Y486960D01*
X162529Y481880D02*X168879D01*
X167609Y486960D02*Y476800D01*
X173200D02*X175740D01*
X174470Y486960D02*Y476800D01*
X171930Y484420D02*X174470Y486960D01*
X180061Y480610D02*Y476800D01*
Y480610D02*X181331Y481880D01*
X182601D01*
X183871Y480610D01*
Y476800D01*
Y480610D02*X185141Y481880D01*
X186411D01*
X187681Y480610D01*
Y476800D01*
X178791Y481880D02*X180061Y480610D01*
X192001D02*Y476800D01*
Y480610D02*X193271Y481880D01*
X194541D01*
X195811Y480610D01*
Y476800D01*
Y480610D02*X197081Y481880D01*
X198351D01*
X199621Y480610D01*
Y476800D01*
X190731Y481880D02*X192001Y480610D01*
X450000Y140070D02*X451270Y138800D01*
X450000Y147690D02*Y140070D01*
Y147690D02*X451270Y148960D01*
X453810D01*
X455080Y147690D01*
Y140070D01*
X453810Y138800D02*X455080Y140070D01*
X451270Y138800D02*X453810D01*
X450000Y141340D02*X455080Y146420D01*
X458130Y138800D02*X459400D01*
X463721D02*X466261D01*
X464991Y148960D02*Y138800D01*
X462451Y146420D02*X464991Y148960D01*
X469311Y147690D02*X470581Y148960D01*
X473121D01*
X474391Y147690D01*
Y140070D01*
X473121Y138800D02*X474391Y140070D01*
X470581Y138800D02*X473121D01*
X469311Y140070D02*X470581Y138800D01*
Y143880D02*X474391D01*
X477442Y140070D02*X478712Y138800D01*
X477442Y142610D02*Y140070D01*
Y142610D02*X478712Y143880D01*
X481252D01*
X482522Y142610D01*
Y140070D01*
X481252Y138800D02*X482522Y140070D01*
X478712Y138800D02*X481252D01*
X477442Y145150D02*X478712Y143880D01*
X477442Y147690D02*Y145150D01*
Y147690D02*X478712Y148960D01*
X481252D01*
X482522Y147690D01*
Y145150D01*
X481252Y143880D02*X482522Y145150D01*
X485572Y146420D02*Y145150D01*
Y142610D02*Y138800D01*
X489385Y142610D02*Y138800D01*
Y142610D02*X490655Y143880D01*
X491925D01*
X493195Y142610D01*
Y138800D01*
X488115Y143880D02*X489385Y142610D01*
X500817Y147690D02*X502087Y148960D01*
X504627D01*
X505897Y147690D01*
Y140070D01*
X504627Y138800D02*X505897Y140070D01*
X502087Y138800D02*X504627D01*
X500817Y140070D02*X502087Y138800D01*
Y143880D02*X505897D01*
X508948Y138800D02*X510218D01*
X513268Y148960D02*X518348D01*
X513268D02*Y143880D01*
X514538Y145150D01*
X517078D01*
X518348Y143880D01*
Y140070D01*
X517078Y138800D02*X518348Y140070D01*
X514538Y138800D02*X517078D01*
X513268Y140070D02*X514538Y138800D01*
X522669Y142610D02*Y138800D01*
Y142610D02*X523939Y143880D01*
X525209D01*
X526479Y142610D01*
Y138800D01*
Y142610D02*X527749Y143880D01*
X529019D01*
X530289Y142610D01*
Y138800D01*
X521399Y143880D02*X522669Y142610D01*
X534609D02*Y138800D01*
Y142610D02*X535879Y143880D01*
X537149D01*
X538419Y142610D01*
Y138800D01*
Y142610D02*X539689Y143880D01*
X540959D01*
X542229Y142610D01*
Y138800D01*
X533339Y143880D02*X534609Y142610D01*
G54D50*X260000Y593500D02*Y587500D01*
Y593500D02*X262250Y591250D01*
X264500Y593500D01*
Y587500D01*
X268551Y590500D02*X269301Y589750D01*
X267051Y590500D02*X268551D01*
X266301Y589750D02*X267051Y590500D01*
X266301Y589750D02*Y588250D01*
X267051Y587500D01*
X269301Y590500D02*Y588250D01*
X270051Y587500D01*
X267051D02*X268551D01*
X269301Y588250D01*
X271853Y590500D02*X274853Y587500D01*
X271853D02*X274853Y590500D01*
X276654Y592000D02*Y591250D01*
Y589750D02*Y587500D01*
X278906Y589750D02*Y587500D01*
Y589750D02*X279656Y590500D01*
X280406D01*
X281156Y589750D01*
Y587500D01*
Y589750D02*X281906Y590500D01*
X282656D01*
X283406Y589750D01*
Y587500D01*
X278156Y590500D02*X278906Y589750D01*
X285207Y590500D02*Y588250D01*
X285957Y587500D01*
X287457D01*
X288207Y588250D01*
Y590500D02*Y588250D01*
X290759Y589750D02*Y587500D01*
Y589750D02*X291509Y590500D01*
X292259D01*
X293009Y589750D01*
Y587500D01*
Y589750D02*X293759Y590500D01*
X294509D01*
X295259Y589750D01*
Y587500D01*
X290009Y590500D02*X290759Y589750D01*
X300510Y593500D02*Y587500D01*
X302760Y593500D02*X303510Y592750D01*
Y588250D01*
X302760Y587500D02*X303510Y588250D01*
X299760Y587500D02*X302760D01*
X299760Y593500D02*X302760D01*
X305312Y592000D02*Y591250D01*
Y589750D02*Y587500D01*
X307563Y589750D02*Y587500D01*
Y589750D02*X308313Y590500D01*
X309063D01*
X309813Y589750D01*
Y587500D01*
Y589750D02*X310563Y590500D01*
X311313D01*
X312063Y589750D01*
Y587500D01*
X306813Y590500D02*X307563Y589750D01*
X314615Y587500D02*X316865D01*
X313865Y588250D02*X314615Y587500D01*
X313865Y589750D02*Y588250D01*
Y589750D02*X314615Y590500D01*
X316115D01*
X316865Y589750D01*
X313865Y589000D02*X316865D01*
Y589750D02*Y589000D01*
X319416Y589750D02*Y587500D01*
Y589750D02*X320166Y590500D01*
X320916D01*
X321666Y589750D01*
Y587500D01*
X318666Y590500D02*X319416Y589750D01*
X324218Y587500D02*X326468D01*
X327218Y588250D01*
X326468Y589000D02*X327218Y588250D01*
X324218Y589000D02*X326468D01*
X323468Y589750D02*X324218Y589000D01*
X323468Y589750D02*X324218Y590500D01*
X326468D01*
X327218Y589750D01*
X323468Y588250D02*X324218Y587500D01*
X329019Y592000D02*Y591250D01*
Y589750D02*Y587500D01*
X330521Y589750D02*Y588250D01*
Y589750D02*X331271Y590500D01*
X332771D01*
X333521Y589750D01*
Y588250D01*
X332771Y587500D02*X333521Y588250D01*
X331271Y587500D02*X332771D01*
X330521Y588250D02*X331271Y587500D01*
X336072Y589750D02*Y587500D01*
Y589750D02*X336822Y590500D01*
X337572D01*
X338322Y589750D01*
Y587500D01*
X335322Y590500D02*X336072Y589750D01*
X340874Y587500D02*X343124D01*
X343874Y588250D01*
X343124Y589000D02*X343874Y588250D01*
X340874Y589000D02*X343124D01*
X340124Y589750D02*X340874Y589000D01*
X340124Y589750D02*X340874Y590500D01*
X343124D01*
X343874Y589750D01*
X340124Y588250D02*X340874Y587500D01*
X345675Y591250D02*X346425D01*
X345675Y589750D02*X346425D01*
X350927Y592750D02*X351677Y593500D01*
X353177D01*
X353927Y592750D01*
Y588250D01*
X353177Y587500D02*X353927Y588250D01*
X351677Y587500D02*X353177D01*
X350927Y588250D02*X351677Y587500D01*
Y590500D02*X353927D01*
X355728Y587500D02*X359478Y591250D01*
Y593500D02*Y591250D01*
X355728Y593500D02*X359478D01*
X361280Y587500D02*X364280Y590500D01*
Y592750D02*Y590500D01*
X363530Y593500D02*X364280Y592750D01*
X362030Y593500D02*X363530D01*
X361280Y592750D02*X362030Y593500D01*
X361280Y592750D02*Y591250D01*
X362030Y590500D01*
X364280D01*
X366081Y593500D02*X369081D01*
X366081D02*Y590500D01*
X366831Y591250D01*
X368331D01*
X369081Y590500D01*
Y588250D01*
X368331Y587500D02*X369081Y588250D01*
X366831Y587500D02*X368331D01*
X366081Y588250D02*X366831Y587500D01*
X374333Y589750D02*Y587500D01*
Y589750D02*X375083Y590500D01*
X375833D01*
X376583Y589750D01*
Y587500D01*
Y589750D02*X377333Y590500D01*
X378083D01*
X378833Y589750D01*
Y587500D01*
X373583Y590500D02*X374333Y589750D01*
X380634Y592000D02*Y591250D01*
Y589750D02*Y587500D01*
X382136Y593500D02*Y588250D01*
X382886Y587500D01*
X385137D02*X387387D01*
X388137Y588250D01*
X387387Y589000D02*X388137Y588250D01*
X385137Y589000D02*X387387D01*
X384387Y589750D02*X385137Y589000D01*
X384387Y589750D02*X385137Y590500D01*
X387387D01*
X388137Y589750D01*
X384387Y588250D02*X385137Y587500D01*
X392639Y588250D02*X393389Y587500D01*
X392639Y592750D02*X393389Y593500D01*
X392639Y592750D02*Y588250D01*
X397890Y587500D02*X400890Y590500D01*
Y592750D02*Y590500D01*
X400140Y593500D02*X400890Y592750D01*
X398640Y593500D02*X400140D01*
X397890Y592750D02*X398640Y593500D01*
X397890Y592750D02*Y591250D01*
X398640Y590500D01*
X400890D01*
X404942Y593500D02*X405692Y592750D01*
X403442Y593500D02*X404942D01*
X402692Y592750D02*X403442Y593500D01*
X402692Y592750D02*Y588250D01*
X403442Y587500D01*
X404942Y590500D02*X405692Y589750D01*
X402692Y590500D02*X404942D01*
X403442Y587500D02*X404942D01*
X405692Y588250D01*
Y589750D02*Y588250D01*
X407493Y587500D02*X408243D01*
X410045Y592750D02*X410795Y593500D01*
X412295D01*
X413045Y592750D01*
Y588250D01*
X412295Y587500D02*X413045Y588250D01*
X410795Y587500D02*X412295D01*
X410045Y588250D02*X410795Y587500D01*
Y590500D02*X413045D01*
X414846Y587500D02*X417846Y590500D01*
Y592750D02*Y590500D01*
X417096Y593500D02*X417846Y592750D01*
X415596Y593500D02*X417096D01*
X414846Y592750D02*X415596Y593500D01*
X414846Y592750D02*Y591250D01*
X415596Y590500D01*
X417846D01*
X419648Y592750D02*X420398Y593500D01*
X421898D01*
X422648Y592750D01*
Y588250D01*
X421898Y587500D02*X422648Y588250D01*
X420398Y587500D02*X421898D01*
X419648Y588250D02*X420398Y587500D01*
Y590500D02*X422648D01*
X427899Y589750D02*Y587500D01*
Y589750D02*X428649Y590500D01*
X429399D01*
X430149Y589750D01*
Y587500D01*
Y589750D02*X430899Y590500D01*
X431649D01*
X432399Y589750D01*
Y587500D01*
X427149Y590500D02*X427899Y589750D01*
X434951D02*Y587500D01*
Y589750D02*X435701Y590500D01*
X436451D01*
X437201Y589750D01*
Y587500D01*
Y589750D02*X437951Y590500D01*
X438701D01*
X439451Y589750D01*
Y587500D01*
X434201Y590500D02*X434951Y589750D01*
X443952Y593500D02*X444702Y592750D01*
Y588250D01*
X443952Y587500D02*X444702Y588250D01*
X449204Y590500D02*Y588250D01*
X449954Y587500D01*
X450704D01*
X451454Y588250D01*
Y590500D02*Y588250D01*
X452204Y587500D01*
X452954D01*
X453704Y588250D01*
Y590500D02*Y588250D01*
X455505Y592000D02*Y591250D01*
Y589750D02*Y587500D01*
X460007Y593500D02*Y587500D01*
X459257D02*X460007Y588250D01*
X457757Y587500D02*X459257D01*
X457007Y588250D02*X457757Y587500D01*
X457007Y589750D02*Y588250D01*
Y589750D02*X457757Y590500D01*
X459257D01*
X460007Y589750D01*
X462558Y587500D02*X464808D01*
X461808Y588250D02*X462558Y587500D01*
X461808Y589750D02*Y588250D01*
Y589750D02*X462558Y590500D01*
X464058D01*
X464808Y589750D01*
X461808Y589000D02*X464808D01*
Y589750D02*Y589000D01*
X466610Y586000D02*X468110Y587500D01*
X472611Y592750D02*X473361Y593500D01*
X474861D01*
X475611Y592750D01*
Y588250D01*
X474861Y587500D02*X475611Y588250D01*
X473361Y587500D02*X474861D01*
X472611Y588250D02*X473361Y587500D01*
Y590500D02*X475611D01*
X477413Y592750D02*X478163Y593500D01*
X480413D01*
X481163Y592750D01*
Y591250D01*
X477413Y587500D02*X481163Y591250D01*
X477413Y587500D02*X481163D01*
X482964Y592750D02*X483714Y593500D01*
X485214D01*
X485964Y592750D01*
Y588250D01*
X485214Y587500D02*X485964Y588250D01*
X483714Y587500D02*X485214D01*
X482964Y588250D02*X483714Y587500D01*
Y590500D02*X485964D01*
X487766Y588250D02*X488516Y587500D01*
X487766Y592750D02*Y588250D01*
Y592750D02*X488516Y593500D01*
X490016D01*
X490766Y592750D01*
Y588250D01*
X490016Y587500D02*X490766Y588250D01*
X488516Y587500D02*X490016D01*
X487766Y589000D02*X490766Y592000D01*
X496017Y589750D02*Y587500D01*
Y589750D02*X496767Y590500D01*
X497517D01*
X498267Y589750D01*
Y587500D01*
Y589750D02*X499017Y590500D01*
X499767D01*
X500517Y589750D01*
Y587500D01*
X495267Y590500D02*X496017Y589750D01*
X502319Y592000D02*Y591250D01*
Y589750D02*Y587500D01*
X503820Y593500D02*Y588250D01*
X504570Y587500D01*
X506822D02*X509072D01*
X509822Y588250D01*
X509072Y589000D02*X509822Y588250D01*
X506822Y589000D02*X509072D01*
X506072Y589750D02*X506822Y589000D01*
X506072Y589750D02*X506822Y590500D01*
X509072D01*
X509822Y589750D01*
X506072Y588250D02*X506822Y587500D01*
X514323Y588250D02*X515073Y587500D01*
X514323Y592750D02*X515073Y593500D01*
X514323Y592750D02*Y588250D01*
X519575D02*X520325Y587500D01*
X519575Y589750D02*Y588250D01*
Y589750D02*X520325Y590500D01*
X521825D01*
X522575Y589750D01*
Y588250D01*
X521825Y587500D02*X522575Y588250D01*
X520325Y587500D02*X521825D01*
X519575Y591250D02*X520325Y590500D01*
X519575Y592750D02*Y591250D01*
Y592750D02*X520325Y593500D01*
X521825D01*
X522575Y592750D01*
Y591250D01*
X521825Y590500D02*X522575Y591250D01*
X524376Y592750D02*X525126Y593500D01*
X527376D01*
X528126Y592750D01*
Y591250D01*
X524376Y587500D02*X528126Y591250D01*
X524376Y587500D02*X528126D01*
X529928D02*X530678D01*
X532479Y588250D02*X533229Y587500D01*
X532479Y592750D02*Y588250D01*
Y592750D02*X533229Y593500D01*
X534729D01*
X535479Y592750D01*
Y588250D01*
X534729Y587500D02*X535479Y588250D01*
X533229Y587500D02*X534729D01*
X532479Y589000D02*X535479Y592000D01*
X537281Y590500D02*X540281Y593500D01*
X537281Y590500D02*X541031D01*
X540281Y593500D02*Y587500D01*
X542832Y592750D02*X543582Y593500D01*
X545832D01*
X546582Y592750D01*
Y591250D01*
X542832Y587500D02*X546582Y591250D01*
X542832Y587500D02*X546582D01*
X551834Y589750D02*Y587500D01*
Y589750D02*X552584Y590500D01*
X553334D01*
X554084Y589750D01*
Y587500D01*
Y589750D02*X554834Y590500D01*
X555584D01*
X556334Y589750D01*
Y587500D01*
X551084Y590500D02*X551834Y589750D01*
X558885D02*Y587500D01*
Y589750D02*X559635Y590500D01*
X560385D01*
X561135Y589750D01*
Y587500D01*
Y589750D02*X561885Y590500D01*
X562635D01*
X563385Y589750D01*
Y587500D01*
X558135Y590500D02*X558885Y589750D01*
X567887Y593500D02*X568637Y592750D01*
Y588250D01*
X567887Y587500D02*X568637Y588250D01*
X573138Y593500D02*Y587500D01*
Y589750D02*X573888Y590500D01*
X575388D01*
X576138Y589750D01*
Y587500D01*
X577940Y592000D02*Y591250D01*
Y589750D02*Y587500D01*
X581691Y590500D02*X582441Y589750D01*
X580191Y590500D02*X581691D01*
X579441Y589750D02*X580191Y590500D01*
X579441Y589750D02*Y588250D01*
X580191Y587500D01*
X581691D01*
X582441Y588250D01*
X579441Y586000D02*X580191Y585250D01*
X581691D01*
X582441Y586000D01*
Y590500D02*Y586000D01*
X584243Y593500D02*Y587500D01*
Y589750D02*X584993Y590500D01*
X586493D01*
X587243Y589750D01*
Y587500D01*
X76232Y-9500D02*X79232D01*
X79982Y-8750D01*
Y-7250D02*Y-8750D01*
X79232Y-6500D02*X79982Y-7250D01*
X76982Y-6500D02*X79232D01*
X76982Y-3500D02*Y-9500D01*
X76232Y-3500D02*X79232D01*
X79982Y-4250D01*
Y-5750D01*
X79232Y-6500D02*X79982Y-5750D01*
X81783Y-7250D02*Y-8750D01*
Y-7250D02*X82533Y-6500D01*
X84033D01*
X84783Y-7250D01*
Y-8750D01*
X84033Y-9500D02*X84783Y-8750D01*
X82533Y-9500D02*X84033D01*
X81783Y-8750D02*X82533Y-9500D01*
X88835Y-6500D02*X89585Y-7250D01*
X87335Y-6500D02*X88835D01*
X86585Y-7250D02*X87335Y-6500D01*
X86585Y-7250D02*Y-8750D01*
X87335Y-9500D01*
X89585Y-6500D02*Y-8750D01*
X90335Y-9500D01*
X87335D02*X88835D01*
X89585Y-8750D01*
X92886Y-7250D02*Y-9500D01*
Y-7250D02*X93636Y-6500D01*
X95136D01*
X92136D02*X92886Y-7250D01*
X99938Y-3500D02*Y-9500D01*
X99188D02*X99938Y-8750D01*
X97688Y-9500D02*X99188D01*
X96938Y-8750D02*X97688Y-9500D01*
X96938Y-7250D02*Y-8750D01*
Y-7250D02*X97688Y-6500D01*
X99188D01*
X99938Y-7250D01*
X104439D02*Y-8750D01*
Y-7250D02*X105189Y-6500D01*
X106689D01*
X107439Y-7250D01*
Y-8750D01*
X106689Y-9500D02*X107439Y-8750D01*
X105189Y-9500D02*X106689D01*
X104439Y-8750D02*X105189Y-9500D01*
X109241Y-6500D02*Y-8750D01*
X109991Y-9500D01*
X111491D01*
X112241Y-8750D01*
Y-6500D02*Y-8750D01*
X114792Y-3500D02*Y-8750D01*
X115542Y-9500D01*
X114042Y-5750D02*X115542D01*
X117044Y-3500D02*Y-8750D01*
X117794Y-9500D01*
X119295Y-5000D02*Y-5750D01*
Y-7250D02*Y-9500D01*
X121547Y-7250D02*Y-9500D01*
Y-7250D02*X122297Y-6500D01*
X123047D01*
X123797Y-7250D01*
Y-9500D01*
X120797Y-6500D02*X121547Y-7250D01*
X126348Y-9500D02*X128598D01*
X125598Y-8750D02*X126348Y-9500D01*
X125598Y-7250D02*Y-8750D01*
Y-7250D02*X126348Y-6500D01*
X127848D01*
X128598Y-7250D01*
X125598Y-8000D02*X128598D01*
Y-7250D02*Y-8000D01*
X133100Y-5000D02*Y-5750D01*
Y-7250D02*Y-9500D01*
X135351D02*X137601D01*
X138351Y-8750D01*
X137601Y-8000D02*X138351Y-8750D01*
X135351Y-8000D02*X137601D01*
X134601Y-7250D02*X135351Y-8000D01*
X134601Y-7250D02*X135351Y-6500D01*
X137601D01*
X138351Y-7250D01*
X134601Y-8750D02*X135351Y-9500D01*
X143603Y-3500D02*Y-8750D01*
X144353Y-9500D01*
X142853Y-5750D02*X144353D01*
X145854Y-3500D02*Y-9500D01*
Y-7250D02*X146604Y-6500D01*
X148104D01*
X148854Y-7250D01*
Y-9500D01*
X151406D02*X153656D01*
X150656Y-8750D02*X151406Y-9500D01*
X150656Y-7250D02*Y-8750D01*
Y-7250D02*X151406Y-6500D01*
X152906D01*
X153656Y-7250D01*
X150656Y-8000D02*X153656D01*
Y-7250D02*Y-8000D01*
X158907Y-6500D02*X161157D01*
X158157Y-7250D02*X158907Y-6500D01*
X158157Y-7250D02*Y-8750D01*
X158907Y-9500D01*
X161157D01*
X163709D02*X165959D01*
X162959Y-8750D02*X163709Y-9500D01*
X162959Y-7250D02*Y-8750D01*
Y-7250D02*X163709Y-6500D01*
X165209D01*
X165959Y-7250D01*
X162959Y-8000D02*X165959D01*
Y-7250D02*Y-8000D01*
X168510Y-7250D02*Y-9500D01*
Y-7250D02*X169260Y-6500D01*
X170010D01*
X170760Y-7250D01*
Y-9500D01*
X167760Y-6500D02*X168510Y-7250D01*
X173312Y-3500D02*Y-8750D01*
X174062Y-9500D01*
X172562Y-5750D02*X174062D01*
X176313Y-9500D02*X178563D01*
X175563Y-8750D02*X176313Y-9500D01*
X175563Y-7250D02*Y-8750D01*
Y-7250D02*X176313Y-6500D01*
X177813D01*
X178563Y-7250D01*
X175563Y-8000D02*X178563D01*
Y-7250D02*Y-8000D01*
X181115Y-7250D02*Y-9500D01*
Y-7250D02*X181865Y-6500D01*
X183365D01*
X180365D02*X181115Y-7250D01*
X185166Y-3500D02*Y-8750D01*
X185916Y-9500D01*
X187418Y-5000D02*Y-5750D01*
Y-7250D02*Y-9500D01*
X189669Y-7250D02*Y-9500D01*
Y-7250D02*X190419Y-6500D01*
X191169D01*
X191919Y-7250D01*
Y-9500D01*
X188919Y-6500D02*X189669Y-7250D01*
X194471Y-9500D02*X196721D01*
X193721Y-8750D02*X194471Y-9500D01*
X193721Y-7250D02*Y-8750D01*
Y-7250D02*X194471Y-6500D01*
X195971D01*
X196721Y-7250D01*
X193721Y-8000D02*X196721D01*
Y-7250D02*Y-8000D01*
X201222Y-7250D02*Y-8750D01*
Y-7250D02*X201972Y-6500D01*
X203472D01*
X204222Y-7250D01*
Y-8750D01*
X203472Y-9500D02*X204222Y-8750D01*
X201972Y-9500D02*X203472D01*
X201222Y-8750D02*X201972Y-9500D01*
X206774Y-4250D02*Y-9500D01*
Y-4250D02*X207524Y-3500D01*
X208274D01*
X206024Y-6500D02*X207524D01*
X213225Y-3500D02*Y-8750D01*
X213975Y-9500D01*
X212475Y-5750D02*X213975D01*
X215477Y-3500D02*Y-9500D01*
Y-7250D02*X216227Y-6500D01*
X217727D01*
X218477Y-7250D01*
Y-9500D01*
X220278Y-5000D02*Y-5750D01*
Y-7250D02*Y-9500D01*
X222530D02*X224780D01*
X225530Y-8750D01*
X224780Y-8000D02*X225530Y-8750D01*
X222530Y-8000D02*X224780D01*
X221780Y-7250D02*X222530Y-8000D01*
X221780Y-7250D02*X222530Y-6500D01*
X224780D01*
X225530Y-7250D01*
X221780Y-8750D02*X222530Y-9500D01*
X230781D02*X232281D01*
X231531Y-3500D02*Y-9500D01*
X230031Y-5000D02*X231531Y-3500D01*
X234083Y-8750D02*X234833Y-9500D01*
X234083Y-4250D02*Y-8750D01*
Y-4250D02*X234833Y-3500D01*
X236333D01*
X237083Y-4250D01*
Y-8750D01*
X236333Y-9500D02*X237083Y-8750D01*
X234833Y-9500D02*X236333D01*
X234083Y-8000D02*X237083Y-5000D01*
X242334Y-7250D02*Y-9500D01*
Y-7250D02*X243084Y-6500D01*
X243834D01*
X244584Y-7250D01*
Y-9500D01*
Y-7250D02*X245334Y-6500D01*
X246084D01*
X246834Y-7250D01*
Y-9500D01*
X241584Y-6500D02*X242334Y-7250D01*
X248636Y-5000D02*Y-5750D01*
Y-7250D02*Y-9500D01*
X250137Y-3500D02*Y-8750D01*
X250887Y-9500D01*
X255839Y-7250D02*Y-11750D01*
X255089Y-6500D02*X255839Y-7250D01*
X256589Y-6500D01*
X258089D01*
X258839Y-7250D01*
Y-8750D01*
X258089Y-9500D02*X258839Y-8750D01*
X256589Y-9500D02*X258089D01*
X255839Y-8750D02*X256589Y-9500D01*
X262890Y-6500D02*X263640Y-7250D01*
X261390Y-6500D02*X262890D01*
X260640Y-7250D02*X261390Y-6500D01*
X260640Y-7250D02*Y-8750D01*
X261390Y-9500D01*
X263640Y-6500D02*Y-8750D01*
X264390Y-9500D01*
X261390D02*X262890D01*
X263640Y-8750D01*
X266942Y-3500D02*Y-8750D01*
X267692Y-9500D01*
X266192Y-5750D02*X267692D01*
X269193Y-3500D02*Y-9500D01*
Y-7250D02*X269943Y-6500D01*
X271443D01*
X272193Y-7250D01*
Y-9500D01*
X277445Y-4250D02*Y-9500D01*
Y-4250D02*X278195Y-3500D01*
X278945D01*
X276695Y-6500D02*X278195D01*
X280446Y-7250D02*Y-8750D01*
Y-7250D02*X281196Y-6500D01*
X282696D01*
X283446Y-7250D01*
Y-8750D01*
X282696Y-9500D02*X283446Y-8750D01*
X281196Y-9500D02*X282696D01*
X280446Y-8750D02*X281196Y-9500D01*
X285998Y-7250D02*Y-9500D01*
Y-7250D02*X286748Y-6500D01*
X288248D01*
X285248D02*X285998Y-7250D01*
X290799D02*Y-9500D01*
Y-7250D02*X291549Y-6500D01*
X292299D01*
X293049Y-7250D01*
Y-9500D01*
Y-7250D02*X293799Y-6500D01*
X294549D01*
X295299Y-7250D01*
Y-9500D01*
X290049Y-6500D02*X290799Y-7250D01*
X14418Y-18500D02*X15168Y-19250D01*
X12918Y-18500D02*X14418D01*
X12168Y-19250D02*X12918Y-18500D01*
X12168Y-19250D02*Y-23750D01*
X12918Y-24500D01*
X14418Y-21500D02*X15168Y-22250D01*
X12168Y-21500D02*X14418D01*
X12918Y-24500D02*X14418D01*
X15168Y-23750D01*
Y-22250D02*Y-23750D01*
X19219Y-18500D02*X19969Y-19250D01*
X17719Y-18500D02*X19219D01*
X16969Y-19250D02*X17719Y-18500D01*
X16969Y-19250D02*Y-23750D01*
X17719Y-24500D01*
X19219Y-21500D02*X19969Y-22250D01*
X16969Y-21500D02*X19219D01*
X17719Y-24500D02*X19219D01*
X19969Y-23750D01*
Y-22250D02*Y-23750D01*
X21771D02*X22521Y-24500D01*
X21771Y-19250D02*Y-23750D01*
Y-19250D02*X22521Y-18500D01*
X24021D01*
X24771Y-19250D01*
Y-23750D01*
X24021Y-24500D02*X24771Y-23750D01*
X22521Y-24500D02*X24021D01*
X21771Y-23000D02*X24771Y-20000D01*
X29272Y-23750D02*X30022Y-24500D01*
X29272Y-19250D02*X30022Y-18500D01*
X29272Y-19250D02*Y-23750D01*
X35274Y-24500D02*X36774D01*
X36024Y-18500D02*Y-24500D01*
X34524Y-20000D02*X36024Y-18500D01*
X40825D02*X41575Y-19250D01*
X39325Y-18500D02*X40825D01*
X38575Y-19250D02*X39325Y-18500D01*
X38575Y-19250D02*Y-23750D01*
X39325Y-24500D01*
X40825Y-21500D02*X41575Y-22250D01*
X38575Y-21500D02*X40825D01*
X39325Y-24500D02*X40825D01*
X41575Y-23750D01*
Y-22250D02*Y-23750D01*
X43377Y-24500D02*X44127D01*
X45928D02*X49678Y-20750D01*
Y-18500D02*Y-20750D01*
X45928Y-18500D02*X49678D01*
X53730D02*X54480Y-19250D01*
X52230Y-18500D02*X53730D01*
X51480Y-19250D02*X52230Y-18500D01*
X51480Y-19250D02*Y-23750D01*
X52230Y-24500D01*
X53730Y-21500D02*X54480Y-22250D01*
X51480Y-21500D02*X53730D01*
X52230Y-24500D02*X53730D01*
X54480Y-23750D01*
Y-22250D02*Y-23750D01*
X56281Y-21500D02*X59281Y-18500D01*
X56281Y-21500D02*X60031D01*
X59281Y-18500D02*Y-24500D01*
X62583Y-22250D02*Y-24500D01*
Y-22250D02*X63333Y-21500D01*
X64083D01*
X64833Y-22250D01*
Y-24500D01*
Y-22250D02*X65583Y-21500D01*
X66333D01*
X67083Y-22250D01*
Y-24500D01*
X61833Y-21500D02*X62583Y-22250D01*
X69634D02*Y-24500D01*
Y-22250D02*X70384Y-21500D01*
X71134D01*
X71884Y-22250D01*
Y-24500D01*
Y-22250D02*X72634Y-21500D01*
X73384D01*
X74134Y-22250D01*
Y-24500D01*
X68884Y-21500D02*X69634Y-22250D01*
X78636Y-18500D02*X79386Y-19250D01*
Y-23750D01*
X78636Y-24500D02*X79386Y-23750D01*
X81187Y-26000D02*X82687Y-24500D01*
X87939D02*X89439D01*
X88689Y-18500D02*Y-24500D01*
X87189Y-20000D02*X88689Y-18500D01*
X91240D02*X94240D01*
X91240D02*Y-21500D01*
X91990Y-20750D01*
X93490D01*
X94240Y-21500D01*
Y-23750D01*
X93490Y-24500D02*X94240Y-23750D01*
X91990Y-24500D02*X93490D01*
X91240Y-23750D02*X91990Y-24500D01*
X98292Y-18500D02*X99042Y-19250D01*
X96792Y-18500D02*X98292D01*
X96042Y-19250D02*X96792Y-18500D01*
X96042Y-19250D02*Y-23750D01*
X96792Y-24500D01*
X98292Y-21500D02*X99042Y-22250D01*
X96042Y-21500D02*X98292D01*
X96792Y-24500D02*X98292D01*
X99042Y-23750D01*
Y-22250D02*Y-23750D01*
X100843D02*X101593Y-24500D01*
X100843Y-19250D02*Y-23750D01*
Y-19250D02*X101593Y-18500D01*
X103093D01*
X103843Y-19250D01*
Y-23750D01*
X103093Y-24500D02*X103843Y-23750D01*
X101593Y-24500D02*X103093D01*
X100843Y-23000D02*X103843Y-20000D01*
X108345Y-23750D02*X109095Y-24500D01*
X108345Y-19250D02*X109095Y-18500D01*
X108345Y-19250D02*Y-23750D01*
X113596Y-19250D02*X114346Y-18500D01*
X115846D01*
X116596Y-19250D01*
Y-23750D01*
X115846Y-24500D02*X116596Y-23750D01*
X114346Y-24500D02*X115846D01*
X113596Y-23750D02*X114346Y-24500D01*
Y-21500D02*X116596D01*
X118398Y-24500D02*X121398Y-21500D01*
Y-19250D02*Y-21500D01*
X120648Y-18500D02*X121398Y-19250D01*
X119148Y-18500D02*X120648D01*
X118398Y-19250D02*X119148Y-18500D01*
X118398Y-19250D02*Y-20750D01*
X119148Y-21500D01*
X121398D01*
X123199Y-24500D02*X123949D01*
X128001Y-18500D02*X128751Y-19250D01*
X126501Y-18500D02*X128001D01*
X125751Y-19250D02*X126501Y-18500D01*
X125751Y-19250D02*Y-23750D01*
X126501Y-24500D01*
X128001Y-21500D02*X128751Y-22250D01*
X125751Y-21500D02*X128001D01*
X126501Y-24500D02*X128001D01*
X128751Y-23750D01*
Y-22250D02*Y-23750D01*
X130552Y-19250D02*X131302Y-18500D01*
X133552D01*
X134302Y-19250D01*
Y-20750D01*
X130552Y-24500D02*X134302Y-20750D01*
X130552Y-24500D02*X134302D01*
X136104Y-21500D02*X139104Y-18500D01*
X136104Y-21500D02*X139854D01*
X139104Y-18500D02*Y-24500D01*
X142405Y-22250D02*Y-24500D01*
Y-22250D02*X143155Y-21500D01*
X143905D01*
X144655Y-22250D01*
Y-24500D01*
Y-22250D02*X145405Y-21500D01*
X146155D01*
X146905Y-22250D01*
Y-24500D01*
X141655Y-21500D02*X142405Y-22250D01*
X149457D02*Y-24500D01*
Y-22250D02*X150207Y-21500D01*
X150957D01*
X151707Y-22250D01*
Y-24500D01*
Y-22250D02*X152457Y-21500D01*
X153207D01*
X153957Y-22250D01*
Y-24500D01*
X148707Y-21500D02*X149457Y-22250D01*
X158458Y-18500D02*X159208Y-19250D01*
Y-23750D01*
X158458Y-24500D02*X159208Y-23750D01*
X167160Y-18500D02*Y-23750D01*
X167910Y-24500D01*
X166410Y-20750D02*X167910D01*
X169411Y-22250D02*Y-23750D01*
Y-22250D02*X170161Y-21500D01*
X171661D01*
X172411Y-22250D01*
Y-23750D01*
X171661Y-24500D02*X172411Y-23750D01*
X170161Y-24500D02*X171661D01*
X169411Y-23750D02*X170161Y-24500D01*
X179613Y-21500D02*X182613Y-18500D01*
X179613Y-21500D02*X183363D01*
X182613Y-18500D02*Y-24500D01*
X185164Y-21500D02*X188164Y-18500D01*
X185164Y-21500D02*X188914D01*
X188164Y-18500D02*Y-24500D01*
X190716Y-18500D02*X193716D01*
X190716D02*Y-21500D01*
X191466Y-20750D01*
X192966D01*
X193716Y-21500D01*
Y-23750D01*
X192966Y-24500D02*X193716Y-23750D01*
X191466Y-24500D02*X192966D01*
X190716Y-23750D02*X191466Y-24500D01*
X195517Y-18500D02*X198517D01*
X195517D02*Y-21500D01*
X196267Y-20750D01*
X197767D01*
X198517Y-21500D01*
Y-23750D01*
X197767Y-24500D02*X198517Y-23750D01*
X196267Y-24500D02*X197767D01*
X195517Y-23750D02*X196267Y-24500D01*
X203019Y-23750D02*X203769Y-24500D01*
X203019Y-19250D02*X203769Y-18500D01*
X203019Y-19250D02*Y-23750D01*
X209020Y-24500D02*X210520D01*
X209770Y-18500D02*Y-24500D01*
X208270Y-20000D02*X209770Y-18500D01*
X213072Y-24500D02*X214572D01*
X213822Y-18500D02*Y-24500D01*
X212322Y-20000D02*X213822Y-18500D01*
X216373Y-19250D02*X217123Y-18500D01*
X218623D01*
X219373Y-19250D01*
Y-23750D01*
X218623Y-24500D02*X219373Y-23750D01*
X217123Y-24500D02*X218623D01*
X216373Y-23750D02*X217123Y-24500D01*
Y-21500D02*X219373D01*
X221175Y-24500D02*X221925D01*
X224476D02*X225976D01*
X225226Y-18500D02*Y-24500D01*
X223726Y-20000D02*X225226Y-18500D01*
X227778D02*X230778D01*
X227778D02*Y-21500D01*
X228528Y-20750D01*
X230028D01*
X230778Y-21500D01*
Y-23750D01*
X230028Y-24500D02*X230778Y-23750D01*
X228528Y-24500D02*X230028D01*
X227778Y-23750D02*X228528Y-24500D01*
X232579D02*X236329Y-20750D01*
Y-18500D02*Y-20750D01*
X232579Y-18500D02*X236329D01*
X238881Y-22250D02*Y-24500D01*
Y-22250D02*X239631Y-21500D01*
X240381D01*
X241131Y-22250D01*
Y-24500D01*
Y-22250D02*X241881Y-21500D01*
X242631D01*
X243381Y-22250D01*
Y-24500D01*
X238131Y-21500D02*X238881Y-22250D01*
X245932D02*Y-24500D01*
Y-22250D02*X246682Y-21500D01*
X247432D01*
X248182Y-22250D01*
Y-24500D01*
Y-22250D02*X248932Y-21500D01*
X249682D01*
X250432Y-22250D01*
Y-24500D01*
X245182Y-21500D02*X245932Y-22250D01*
X254934Y-18500D02*X255684Y-19250D01*
Y-23750D01*
X254934Y-24500D02*X255684Y-23750D01*
X257485Y-26000D02*X258985Y-24500D01*
X263487Y-21500D02*X266487Y-18500D01*
X263487Y-21500D02*X267237D01*
X266487Y-18500D02*Y-24500D01*
X269038D02*X272788Y-20750D01*
Y-18500D02*Y-20750D01*
X269038Y-18500D02*X272788D01*
X274590Y-24500D02*X277590Y-21500D01*
Y-19250D02*Y-21500D01*
X276840Y-18500D02*X277590Y-19250D01*
X275340Y-18500D02*X276840D01*
X274590Y-19250D02*X275340Y-18500D01*
X274590Y-19250D02*Y-20750D01*
X275340Y-21500D01*
X277590D01*
X279391Y-23750D02*X280141Y-24500D01*
X279391Y-19250D02*Y-23750D01*
Y-19250D02*X280141Y-18500D01*
X281641D01*
X282391Y-19250D01*
Y-23750D01*
X281641Y-24500D02*X282391Y-23750D01*
X280141Y-24500D02*X281641D01*
X279391Y-23000D02*X282391Y-20000D01*
X286893Y-23750D02*X287643Y-24500D01*
X286893Y-19250D02*X287643Y-18500D01*
X286893Y-19250D02*Y-23750D01*
X292894Y-24500D02*X294394D01*
X293644Y-18500D02*Y-24500D01*
X292144Y-20000D02*X293644Y-18500D01*
X296196Y-19250D02*X296946Y-18500D01*
X299196D01*
X299946Y-19250D01*
Y-20750D01*
X296196Y-24500D02*X299946Y-20750D01*
X296196Y-24500D02*X299946D01*
X302497D02*X303997D01*
X303247Y-18500D02*Y-24500D01*
X301747Y-20000D02*X303247Y-18500D01*
X305799Y-24500D02*X306549D01*
X310600Y-18500D02*X311350Y-19250D01*
X309100Y-18500D02*X310600D01*
X308350Y-19250D02*X309100Y-18500D01*
X308350Y-19250D02*Y-23750D01*
X309100Y-24500D01*
X310600Y-21500D02*X311350Y-22250D01*
X308350Y-21500D02*X310600D01*
X309100Y-24500D02*X310600D01*
X311350Y-23750D01*
Y-22250D02*Y-23750D01*
X315402Y-18500D02*X316152Y-19250D01*
X313902Y-18500D02*X315402D01*
X313152Y-19250D02*X313902Y-18500D01*
X313152Y-19250D02*Y-23750D01*
X313902Y-24500D01*
X315402Y-21500D02*X316152Y-22250D01*
X313152Y-21500D02*X315402D01*
X313902Y-24500D02*X315402D01*
X316152Y-23750D01*
Y-22250D02*Y-23750D01*
X320203Y-18500D02*X320953Y-19250D01*
X318703Y-18500D02*X320203D01*
X317953Y-19250D02*X318703Y-18500D01*
X317953Y-19250D02*Y-23750D01*
X318703Y-24500D01*
X320203Y-21500D02*X320953Y-22250D01*
X317953Y-21500D02*X320203D01*
X318703Y-24500D02*X320203D01*
X320953Y-23750D01*
Y-22250D02*Y-23750D01*
X323505Y-22250D02*Y-24500D01*
Y-22250D02*X324255Y-21500D01*
X325005D01*
X325755Y-22250D01*
Y-24500D01*
Y-22250D02*X326505Y-21500D01*
X327255D01*
X328005Y-22250D01*
Y-24500D01*
X322755Y-21500D02*X323505Y-22250D01*
X330556D02*Y-24500D01*
Y-22250D02*X331306Y-21500D01*
X332056D01*
X332806Y-22250D01*
Y-24500D01*
Y-22250D02*X333556Y-21500D01*
X334306D01*
X335056Y-22250D01*
Y-24500D01*
X329806Y-21500D02*X330556Y-22250D01*
X339558Y-18500D02*X340308Y-19250D01*
Y-23750D01*
X339558Y-24500D02*X340308Y-23750D01*
X345559Y-22250D02*Y-24500D01*
Y-22250D02*X346309Y-21500D01*
X347059D01*
X347809Y-22250D01*
Y-24500D01*
Y-22250D02*X348559Y-21500D01*
X349309D01*
X350059Y-22250D01*
Y-24500D01*
X344809Y-21500D02*X345559Y-22250D01*
X351861Y-20000D02*Y-20750D01*
Y-22250D02*Y-24500D01*
X353362Y-18500D02*Y-23750D01*
X354112Y-24500D01*
X356364D02*X358614D01*
X359364Y-23750D01*
X358614Y-23000D02*X359364Y-23750D01*
X356364Y-23000D02*X358614D01*
X355614Y-22250D02*X356364Y-23000D01*
X355614Y-22250D02*X356364Y-21500D01*
X358614D01*
X359364Y-22250D01*
X355614Y-23750D02*X356364Y-24500D01*
X260750Y608500D02*Y602500D01*
X263000Y608500D02*X263750Y607750D01*
Y603250D01*
X263000Y602500D02*X263750Y603250D01*
X260000Y602500D02*X263000D01*
X260000Y608500D02*X263000D01*
X267801Y605500D02*X268551Y604750D01*
X266301Y605500D02*X267801D01*
X265551Y604750D02*X266301Y605500D01*
X265551Y604750D02*Y603250D01*
X266301Y602500D01*
X268551Y605500D02*Y603250D01*
X269301Y602500D01*
X266301D02*X267801D01*
X268551Y603250D01*
X271853Y608500D02*Y603250D01*
X272603Y602500D01*
X271103Y606250D02*X272603D01*
X274854Y602500D02*X277104D01*
X274104Y603250D02*X274854Y602500D01*
X274104Y604750D02*Y603250D01*
Y604750D02*X274854Y605500D01*
X276354D01*
X277104Y604750D01*
X274104Y604000D02*X277104D01*
Y604750D02*Y604000D01*
X278906Y606250D02*X279656D01*
X278906Y604750D02*X279656D01*
X287157Y608500D02*X287907Y607750D01*
X284907Y608500D02*X287157D01*
X284157Y607750D02*X284907Y608500D01*
X284157Y607750D02*Y606250D01*
X284907Y605500D01*
X287157D01*
X287907Y604750D01*
Y603250D01*
X287157Y602500D02*X287907Y603250D01*
X284907Y602500D02*X287157D01*
X284157Y603250D02*X284907Y602500D01*
X289709Y605500D02*Y603250D01*
X290459Y602500D01*
X291959D01*
X292709Y603250D01*
Y605500D02*Y603250D01*
X295260Y604750D02*Y602500D01*
Y604750D02*X296010Y605500D01*
X296760D01*
X297510Y604750D01*
Y602500D01*
X294510Y605500D02*X295260Y604750D01*
X302012Y608500D02*Y602500D01*
Y608500D02*Y607750D01*
X305762Y604000D01*
Y608500D02*Y602500D01*
X307563Y604750D02*Y603250D01*
Y604750D02*X308313Y605500D01*
X309813D01*
X310563Y604750D01*
Y603250D01*
X309813Y602500D02*X310563Y603250D01*
X308313Y602500D02*X309813D01*
X307563Y603250D02*X308313Y602500D01*
X312365Y605500D02*Y604000D01*
X313865Y602500D01*
X315365Y604000D01*
Y605500D02*Y604000D01*
X322566Y608500D02*X325566D01*
X322566D02*Y605500D01*
X323316Y606250D01*
X324816D01*
X325566Y605500D01*
Y603250D01*
X324816Y602500D02*X325566Y603250D01*
X323316Y602500D02*X324816D01*
X322566Y603250D02*X323316Y602500D01*
X330818D02*X332318D01*
X331568Y608500D02*Y602500D01*
X330068Y607000D02*X331568Y608500D01*
X336369D02*X337119Y607750D01*
X334869Y608500D02*X336369D01*
X334119Y607750D02*X334869Y608500D01*
X334119Y607750D02*Y603250D01*
X334869Y602500D01*
X336369Y605500D02*X337119Y604750D01*
X334119Y605500D02*X336369D01*
X334869Y602500D02*X336369D01*
X337119Y603250D01*
Y604750D02*Y603250D01*
X338921Y606250D02*X339671D01*
X338921Y604750D02*X339671D01*
X341472Y607750D02*X342222Y608500D01*
X344472D01*
X345222Y607750D01*
Y606250D01*
X341472Y602500D02*X345222Y606250D01*
X341472Y602500D02*X345222D01*
X347024Y603250D02*X347774Y602500D01*
X347024Y604750D02*Y603250D01*
Y604750D02*X347774Y605500D01*
X349274D01*
X350024Y604750D01*
Y603250D01*
X349274Y602500D02*X350024Y603250D01*
X347774Y602500D02*X349274D01*
X347024Y606250D02*X347774Y605500D01*
X347024Y607750D02*Y606250D01*
Y607750D02*X347774Y608500D01*
X349274D01*
X350024Y607750D01*
Y606250D01*
X349274Y605500D02*X350024Y606250D01*
X351825D02*X352575D01*
X351825Y604750D02*X352575D01*
X355127Y602500D02*X356627D01*
X355877Y608500D02*Y602500D01*
X354377Y607000D02*X355877Y608500D01*
X358428Y605500D02*X361428Y608500D01*
X358428Y605500D02*X362178D01*
X361428Y608500D02*Y602500D01*
X366680Y607750D02*X367430Y608500D01*
X369680D01*
X370430Y607750D01*
Y606250D01*
X366680Y602500D02*X370430Y606250D01*
X366680Y602500D02*X370430D01*
X372231Y603250D02*X372981Y602500D01*
X372231Y607750D02*Y603250D01*
Y607750D02*X372981Y608500D01*
X374481D01*
X375231Y607750D01*
Y603250D01*
X374481Y602500D02*X375231Y603250D01*
X372981Y602500D02*X374481D01*
X372231Y604000D02*X375231Y607000D01*
X377033Y607750D02*X377783Y608500D01*
X380033D01*
X380783Y607750D01*
Y606250D01*
X377033Y602500D02*X380783Y606250D01*
X377033Y602500D02*X380783D01*
X382584Y607750D02*X383334Y608500D01*
X384834D01*
X385584Y607750D01*
Y603250D01*
X384834Y602500D02*X385584Y603250D01*
X383334Y602500D02*X384834D01*
X382584Y603250D02*X383334Y602500D01*
Y605500D02*X385584D01*
X390086Y608500D02*Y603250D01*
X390836Y602500D01*
X392336D01*
X393086Y603250D01*
Y608500D02*Y603250D01*
X394887Y608500D02*X397887D01*
X396387D02*Y602500D01*
X400439D02*X402689D01*
X399689Y603250D02*X400439Y602500D01*
X399689Y607750D02*Y603250D01*
Y607750D02*X400439Y608500D01*
X402689D01*
X260000Y622750D02*Y617500D01*
Y622750D02*X260750Y623500D01*
X263000D01*
X263750Y622750D01*
Y617500D01*
X260000Y620500D02*X263750D01*
X265551D02*Y618250D01*
X266301Y617500D01*
X267801D01*
X268551Y618250D01*
Y620500D02*Y618250D01*
X271103Y623500D02*Y618250D01*
X271853Y617500D01*
X270353Y621250D02*X271853D01*
X273354Y623500D02*Y617500D01*
Y619750D02*X274104Y620500D01*
X275604D01*
X276354Y619750D01*
Y617500D01*
X278156Y619750D02*Y618250D01*
Y619750D02*X278906Y620500D01*
X280406D01*
X281156Y619750D01*
Y618250D01*
X280406Y617500D02*X281156Y618250D01*
X278906Y617500D02*X280406D01*
X278156Y618250D02*X278906Y617500D01*
X283707Y619750D02*Y617500D01*
Y619750D02*X284457Y620500D01*
X285957D01*
X282957D02*X283707Y619750D01*
X287759Y621250D02*X288509D01*
X287759Y619750D02*X288509D01*
X293010Y623500D02*Y617500D01*
Y618250D02*X293760Y617500D01*
X295260D01*
X296010Y618250D01*
Y619750D02*Y618250D01*
X295260Y620500D02*X296010Y619750D01*
X293760Y620500D02*X295260D01*
X293010Y619750D02*X293760Y620500D01*
X297812Y623500D02*Y617500D01*
Y619750D02*X298562Y620500D01*
X300062D01*
X300812Y619750D01*
Y617500D01*
X260000Y638500D02*X263000D01*
X261500D02*Y632500D01*
X264801Y637000D02*Y636250D01*
Y634750D02*Y632500D01*
X267053Y638500D02*Y633250D01*
X267803Y632500D01*
X266303Y636250D02*X267803D01*
X269304Y638500D02*Y633250D01*
X270054Y632500D01*
X272306D02*X274556D01*
X271556Y633250D02*X272306Y632500D01*
X271556Y634750D02*Y633250D01*
Y634750D02*X272306Y635500D01*
X273806D01*
X274556Y634750D01*
X271556Y634000D02*X274556D01*
Y634750D02*Y634000D01*
X276357Y636250D02*X277107D01*
X276357Y634750D02*X277107D01*
X281609Y633250D02*X282359Y632500D01*
X281609Y637750D02*X282359Y638500D01*
X281609Y637750D02*Y633250D01*
X284160Y635500D02*Y633250D01*
X284910Y632500D01*
X286410D01*
X287160Y633250D01*
Y635500D02*Y633250D01*
X289712Y634750D02*Y632500D01*
Y634750D02*X290462Y635500D01*
X291212D01*
X291962Y634750D01*
Y632500D01*
X288962Y635500D02*X289712Y634750D01*
X293763Y638500D02*Y632500D01*
Y634750D02*X296013Y632500D01*
X293763Y634750D02*X295263Y636250D01*
X298565Y634750D02*Y632500D01*
Y634750D02*X299315Y635500D01*
X300065D01*
X300815Y634750D01*
Y632500D01*
X297815Y635500D02*X298565Y634750D01*
X302616D02*Y633250D01*
Y634750D02*X303366Y635500D01*
X304866D01*
X305616Y634750D01*
Y633250D01*
X304866Y632500D02*X305616Y633250D01*
X303366Y632500D02*X304866D01*
X302616Y633250D02*X303366Y632500D01*
X307418Y635500D02*Y633250D01*
X308168Y632500D01*
X308918D01*
X309668Y633250D01*
Y635500D02*Y633250D01*
X310418Y632500D01*
X311168D01*
X311918Y633250D01*
Y635500D02*Y633250D01*
X314469Y634750D02*Y632500D01*
Y634750D02*X315219Y635500D01*
X315969D01*
X316719Y634750D01*
Y632500D01*
X313719Y635500D02*X314469Y634750D01*
X318521Y638500D02*X319271Y637750D01*
Y633250D01*
X318521Y632500D02*X319271Y633250D01*
X323772Y635500D02*X326772D01*
X331274Y638500D02*Y632500D01*
Y638500D02*X334274D01*
X331274Y635500D02*X333524D01*
X338325D02*X339075Y634750D01*
X336825Y635500D02*X338325D01*
X336075Y634750D02*X336825Y635500D01*
X336075Y634750D02*Y633250D01*
X336825Y632500D01*
X339075Y635500D02*Y633250D01*
X339825Y632500D01*
X336825D02*X338325D01*
X339075Y633250D01*
X341627Y638500D02*Y632500D01*
Y633250D02*X342377Y632500D01*
X343877D01*
X344627Y633250D01*
Y634750D02*Y633250D01*
X343877Y635500D02*X344627Y634750D01*
X342377Y635500D02*X343877D01*
X341627Y634750D02*X342377Y635500D01*
X347178Y634750D02*Y632500D01*
Y634750D02*X347928Y635500D01*
X349428D01*
X346428D02*X347178Y634750D01*
X351230Y637000D02*Y636250D01*
Y634750D02*Y632500D01*
X353481Y635500D02*X355731D01*
X352731Y634750D02*X353481Y635500D01*
X352731Y634750D02*Y633250D01*
X353481Y632500D01*
X355731D01*
X359783Y635500D02*X360533Y634750D01*
X358283Y635500D02*X359783D01*
X357533Y634750D02*X358283Y635500D01*
X357533Y634750D02*Y633250D01*
X358283Y632500D01*
X360533Y635500D02*Y633250D01*
X361283Y632500D01*
X358283D02*X359783D01*
X360533Y633250D01*
X363834Y638500D02*Y633250D01*
X364584Y632500D01*
X363084Y636250D02*X364584D01*
X366086Y637000D02*Y636250D01*
Y634750D02*Y632500D01*
X367587Y634750D02*Y633250D01*
Y634750D02*X368337Y635500D01*
X369837D01*
X370587Y634750D01*
Y633250D01*
X369837Y632500D02*X370587Y633250D01*
X368337Y632500D02*X369837D01*
X367587Y633250D02*X368337Y632500D01*
X373139Y634750D02*Y632500D01*
Y634750D02*X373889Y635500D01*
X374639D01*
X375389Y634750D01*
Y632500D01*
X372389Y635500D02*X373139Y634750D01*
X380640Y638500D02*Y632500D01*
X382890Y638500D02*X383640Y637750D01*
Y633250D01*
X382890Y632500D02*X383640Y633250D01*
X379890Y632500D02*X382890D01*
X379890Y638500D02*X382890D01*
X386192Y634750D02*Y632500D01*
Y634750D02*X386942Y635500D01*
X388442D01*
X385442D02*X386192Y634750D01*
X392493Y635500D02*X393243Y634750D01*
X390993Y635500D02*X392493D01*
X390243Y634750D02*X390993Y635500D01*
X390243Y634750D02*Y633250D01*
X390993Y632500D01*
X393243Y635500D02*Y633250D01*
X393993Y632500D01*
X390993D02*X392493D01*
X393243Y633250D01*
X395795Y635500D02*Y633250D01*
X396545Y632500D01*
X397295D01*
X398045Y633250D01*
Y635500D02*Y633250D01*
X398795Y632500D01*
X399545D01*
X400295Y633250D01*
Y635500D02*Y633250D01*
X402096Y637000D02*Y636250D01*
Y634750D02*Y632500D01*
X404348Y634750D02*Y632500D01*
Y634750D02*X405098Y635500D01*
X405848D01*
X406598Y634750D01*
Y632500D01*
X403598Y635500D02*X404348Y634750D01*
X410649Y635500D02*X411399Y634750D01*
X409149Y635500D02*X410649D01*
X408399Y634750D02*X409149Y635500D01*
X408399Y634750D02*Y633250D01*
X409149Y632500D01*
X410649D01*
X411399Y633250D01*
X408399Y631000D02*X409149Y630250D01*
X410649D01*
X411399Y631000D01*
Y635500D02*Y631000D01*
M02*
