G04 start of page 11 for group -4079 idx -4079 *
G04 Title: (unknown), topsilk *
G04 Creator: pcb 20091103 *
G04 CreationDate: Thu Nov 21 17:08:47 2024 UTC *
G04 For: bh *
G04 Format: Gerber/RS-274X *
G04 PCB-Dimensions: 560000 900000 *
G04 PCB-Coordinate-Origin: lower left *
%MOIN*%
%FSLAX25Y25*%
%LNTOPSILK*%
%ADD11C,0.0200*%
%ADD13C,0.0100*%
%ADD14C,0.0180*%
%ADD52C,0.0060*%
%ADD56C,0.0102*%
%ADD86C,0.0066*%
%ADD87C,0.0090*%
%ADD88C,0.0120*%
%ADD89C,0.0080*%
%ADD90C,0.0150*%
%ADD91C,0.0079*%
G54D11*G36*
X310000Y309000D02*Y314000D01*
X329000D01*
Y309000D01*
X310000D01*
G37*
G36*
X366500D02*X348500D01*
Y314000D01*
X366500D01*
Y309000D01*
G37*
G36*
X347500Y380500D02*Y383500D01*
X386000D01*
Y380500D01*
X347500D01*
G37*
G54D52*X111500Y310500D02*Y316500D01*
X113000Y318000D01*
X349000Y382000D02*X344500D01*
Y391500D01*
X305000Y311500D02*X315500D01*
X371500D02*X362000D01*
X325500D02*X354000D01*
X338000D02*X323500Y297000D01*
X337500Y311500D02*X352000Y297000D01*
X272500Y104500D02*X283000D01*
X344500Y391500D02*X350500D01*
X384500Y382000D02*X389000D01*
Y371500D01*
X384500D01*
G54D56*X117000Y313190D02*Y304300D01*
Y313190D02*X118270Y314460D01*
X122080D01*
X123350Y313190D01*
Y304300D01*
X117000Y309380D02*X123350D01*
G54D86*X143000Y344840D02*Y338200D01*
X146320D01*
G54D56*X190770Y285300D02*X194580D01*
X189500Y286570D02*X190770Y285300D01*
X189500Y294190D02*Y286570D01*
Y294190D02*X190770Y295460D01*
X194580D01*
G54D86*X106500Y241840D02*Y235200D01*
X109820D01*
X132000Y296340D02*Y289700D01*
X135320D01*
G54D56*X111500Y394460D02*X116580D01*
X117850Y393190D01*
Y390650D01*
X116580Y389380D02*X117850Y390650D01*
X112770Y389380D02*X116580D01*
X112770Y394460D02*Y384300D01*
Y389380D02*X117850Y384300D01*
X146000Y393190D02*Y384300D01*
Y393190D02*X147270Y394460D01*
X151080D01*
X152350Y393190D01*
Y384300D01*
X146000Y389380D02*X152350D01*
X189580Y394460D02*X190850Y393190D01*
X185770Y394460D02*X189580D01*
X184500Y393190D02*X185770Y394460D01*
X184500Y393190D02*Y385570D01*
X185770Y384300D01*
X189580D01*
X190850Y385570D01*
Y388110D02*Y385570D01*
X189580Y389380D02*X190850Y388110D01*
X187040Y389380D02*X189580D01*
G54D86*X178500Y375840D02*Y369200D01*
X181820D01*
X134000Y375840D02*Y369200D01*
X137320D01*
X257000Y398840D02*Y392200D01*
X260320D01*
X250000Y319840D02*Y313200D01*
X253320D01*
X250000Y346340D02*Y339700D01*
X253320D01*
X250000Y372840D02*Y366200D01*
X253320D01*
X197000Y344840D02*Y338200D01*
X200320D01*
X197000Y318840D02*Y312200D01*
X200320D01*
X253500Y294340D02*Y287700D01*
X256820D01*
X196500Y258340D02*Y251700D01*
X200650Y258340D02*Y251700D01*
X196500Y255020D02*X200650D01*
G54D56*X403770Y285300D02*X407580D01*
X402500Y286570D02*X403770Y285300D01*
X402500Y294190D02*Y286570D01*
Y294190D02*X403770Y295460D01*
X407580D01*
G54D86*X326500Y176840D02*Y170200D01*
X330650Y176840D02*Y170200D01*
X326500Y173520D02*X330650D01*
X375500Y176840D02*Y170200D01*
X379650Y176840D02*Y170200D01*
X375500Y173520D02*X379650D01*
G54D56*X319500Y106880D02*X324580D01*
X349000D02*X354080D01*
X351540Y109420D02*Y104340D01*
X236800Y104900D02*X230450Y111250D01*
X226640D02*X230450D01*
X226640D02*Y104900D01*
X235530Y114300D02*X236800Y115570D01*
X232990Y114300D02*X235530D01*
X232990D02*X231720Y115570D01*
Y118110D02*Y115570D01*
Y118110D02*X232990Y119380D01*
X235530D01*
X236800Y118110D02*X235530Y119380D01*
X236800Y118110D02*Y115570D01*
X230450Y114300D02*X231720Y115570D01*
X227910Y114300D02*X230450D01*
X227910D02*X226640Y115570D01*
Y118110D02*Y115570D01*
Y118110D02*X227910Y119380D01*
X230450D01*
X231720Y118110D02*X230450Y119380D01*
X235530Y122431D02*X236800Y123701D01*
X227910Y122431D02*X235530D01*
X227910D02*X226640Y123701D01*
Y126241D02*Y123701D01*
Y126241D02*X227910Y127511D01*
X235530D01*
X236800Y126241D02*X235530Y127511D01*
X236800Y126241D02*Y123701D01*
X234260Y122431D02*X229180Y127511D01*
X226640Y134371D02*X227910Y135641D01*
X226640Y134371D02*Y131831D01*
X227910Y130561D02*X226640Y131831D01*
X227910Y130561D02*X235530D01*
X236800Y131831D01*
X231720Y134371D02*X232990Y135641D01*
X231720Y134371D02*Y130561D01*
X236800Y134371D02*Y131831D01*
Y134371D02*X235530Y135641D01*
X232990D02*X235530D01*
X434270Y357800D02*X438080D01*
X433000Y359070D02*X434270Y357800D01*
X433000Y366690D02*Y359070D01*
Y366690D02*X434270Y367960D01*
X438080D01*
X433770Y283800D02*X437580D01*
X432500Y285070D02*X433770Y283800D01*
X432500Y292690D02*Y285070D01*
Y292690D02*X433770Y293960D01*
X437580D01*
X432000Y317960D02*Y307800D01*
Y309070D02*X433270Y307800D01*
X435810D01*
X437080Y309070D01*
Y311610D02*Y309070D01*
X435810Y312880D02*X437080Y311610D01*
X433270Y312880D02*X435810D01*
X432000Y311610D02*X433270Y312880D01*
X435810Y302380D02*X437080Y301110D01*
X433270Y302380D02*X435810D01*
X432000Y301110D02*X433270Y302380D01*
X432000Y301110D02*Y298570D01*
X433270Y297300D01*
X437080Y302380D02*Y298570D01*
X438350Y297300D01*
X433270D02*X435810D01*
X437080Y298570D01*
X356500Y362190D02*X357770Y363460D01*
X360310D01*
X361580Y362190D01*
Y354570D01*
X360310Y353300D02*X361580Y354570D01*
X357770Y353300D02*X360310D01*
X356500Y354570D02*X357770Y353300D01*
Y358380D02*X361580D01*
X364630Y354570D02*X365900Y353300D01*
X364630Y362190D02*Y354570D01*
Y362190D02*X365900Y363460D01*
X368440D01*
X369710Y362190D01*
Y354570D01*
X368440Y353300D02*X369710Y354570D01*
X365900Y353300D02*X368440D01*
X364630Y355840D02*X369710Y360920D01*
X372761Y363460D02*Y362190D01*
X379111Y355840D01*
Y353300D01*
X372761Y355840D02*Y353300D01*
Y355840D02*X379111Y362190D01*
Y363460D02*Y362190D01*
X383431Y353300D02*X385971D01*
X384701Y363460D02*Y353300D01*
X382161Y360920D02*X384701Y363460D01*
X389022Y353300D02*X394102Y358380D01*
Y362190D02*Y358380D01*
X392832Y363460D02*X394102Y362190D01*
X390292Y363460D02*X392832D01*
X389022Y362190D02*X390292Y363460D01*
X389022Y362190D02*Y359650D01*
X390292Y358380D01*
X394102D01*
X397810Y354380D02*X399080Y353110D01*
X395270Y354380D02*X397810D01*
X394000Y353110D02*X395270Y354380D01*
X394000Y353110D02*Y350570D01*
X395270Y349300D01*
X399080Y354380D02*Y350570D01*
X400350Y349300D01*
X395270D02*X397810D01*
X399080Y350570D01*
X403400D02*X411020Y358190D01*
X414071Y359460D02*Y349300D01*
Y350570D02*X415341Y349300D01*
X417881D01*
X419151Y350570D01*
Y353110D02*Y350570D01*
X417881Y354380D02*X419151Y353110D01*
X415341Y354380D02*X417881D01*
X414071Y353110D02*X415341Y354380D01*
X226700Y153000D02*X220350Y159350D01*
X216540D02*X220350D01*
X216540D02*Y153000D01*
X226700Y162400D02*X221620Y167480D01*
X217810D02*X221620D01*
X216540Y166210D02*X217810Y167480D01*
X216540Y166210D02*Y163670D01*
X217810Y162400D02*X216540Y163670D01*
X217810Y162400D02*X220350D01*
X221620Y163670D01*
Y167480D02*Y163670D01*
X225430Y170531D02*X226700Y171801D01*
X217810Y170531D02*X225430D01*
X217810D02*X216540Y171801D01*
Y174341D02*Y171801D01*
Y174341D02*X217810Y175611D01*
X225430D01*
X226700Y174341D02*X225430Y175611D01*
X226700Y174341D02*Y171801D01*
X224160Y170531D02*X219080Y175611D01*
X216540Y182471D02*X217810Y183741D01*
X216540Y182471D02*Y179931D01*
X217810Y178661D02*X216540Y179931D01*
X217810Y178661D02*X225430D01*
X226700Y179931D01*
X221620Y182471D02*X222890Y183741D01*
X221620Y182471D02*Y178661D01*
X226700Y182471D02*Y179931D01*
Y182471D02*X225430Y183741D01*
X222890D02*X225430D01*
G54D86*X278500Y153840D02*Y147200D01*
X282650Y153840D02*Y147200D01*
X278500Y150520D02*X282650D01*
X197500Y234840D02*Y228200D01*
X200820D01*
X279500Y176840D02*Y170200D01*
X283650Y176840D02*Y170200D01*
X279500Y173520D02*X283650D01*
X220500Y206340D02*Y199700D01*
X224650Y206340D02*Y199700D01*
X220500Y203020D02*X224650D01*
G54D87*X308000Y405500D02*X368000D01*
X308000Y277500D02*X368000D01*
X274000Y371500D02*Y311500D01*
X402000Y371500D02*Y311500D01*
X368000Y405500D02*X402000Y371500D01*
X308000Y405500D02*X274000Y371500D01*
X368000Y277500D02*X402000Y311500D01*
X308000Y277500D02*X274000Y311500D01*
G54D14*X344200Y343700D02*X331800Y339300D01*
G54D88*X342400Y341500D02*G75*G03X333600Y341500I-4400J0D01*G01*
G75*G03X342400Y341500I4400J0D01*G01*
G54D87*X359500D02*G75*G03X316500Y341500I-21500J0D01*G01*
G75*G03X359500Y341500I21500J0D01*G01*
G54D11*X430280Y385044D02*Y400956D01*
X402720Y385044D02*Y400956D01*
X430280Y385044D02*X416500Y377089D01*
X430280Y400956D02*X416500Y408911D01*
X402720Y385044D02*X416500Y377089D01*
X402720Y400956D02*X416500Y408911D01*
G54D89*X410055Y318925D02*X450606D01*
Y322862D02*X478559D01*
X410055Y372075D02*X450606D01*
Y368138D02*X478559D01*
X410055Y318925D02*Y372075D01*
X478559Y322862D02*Y368138D01*
X450606Y318925D02*Y322862D01*
Y372075D02*Y368138D01*
G54D13*X263500Y264500D02*X273500D01*
X283500D02*X293500D01*
X273500D02*X283500Y269500D01*
Y259500D01*
X273500Y264500D01*
Y269500D02*Y259500D01*
G54D89*X251607Y279755D02*X252393D01*
X251607Y274245D02*X252393D01*
G54D13*X283500Y249500D02*X293500D01*
X263500D02*X273500D01*
X283500D02*X273500Y244500D01*
Y254500D02*Y244500D01*
Y254500D02*X283500Y249500D01*
Y254500D02*Y244500D01*
X281000Y293000D02*Y283000D01*
X291000D01*
Y293000D01*
X281000D01*
G54D89*X227107Y239745D02*X227893D01*
X227107Y245255D02*X227893D01*
X232607Y279755D02*X233393D01*
X232607Y274245D02*X233393D01*
G54D13*X236000Y326000D02*Y307000D01*
X267000D01*
Y326000D01*
X236000D02*X249000D01*
X267000D02*X254000D01*
X249000D02*G75*G03X254000Y326000I2500J0D01*G01*
G54D89*X271638Y195240D02*X276362D01*
X271638Y187760D02*X276362D01*
G54D13*X266500Y183000D02*Y164000D01*
X297500D01*
Y183000D01*
X266500D02*X279500D01*
X297500D02*X284500D01*
X279500D02*G75*G03X284500Y183000I2500J0D01*G01*
G54D89*X257607Y157755D02*X258393D01*
X257607Y152245D02*X258393D01*
G54D13*X270000Y220410D02*Y197300D01*
X288300D01*
Y220410D01*
X270000D01*
G54D89*X243755Y181393D02*Y180607D01*
X238245Y181393D02*Y180607D01*
G54D13*X236000Y379000D02*Y360000D01*
X267000D01*
Y379000D01*
X236000D02*X249000D01*
X267000D02*X254000D01*
X249000D02*G75*G03X254000Y379000I2500J0D01*G01*
X236000Y352500D02*Y333500D01*
X267000D01*
Y352500D01*
X236000D02*X249000D01*
X267000D02*X254000D01*
X249000D02*G75*G03X254000Y352500I2500J0D01*G01*
G54D89*X281607Y395245D02*X282393D01*
X281607Y400755D02*X282393D01*
G54D13*X243000Y405000D02*Y386000D01*
X274000D01*
Y405000D01*
X243000D02*X256000D01*
X274000D02*X261000D01*
X256000D02*G75*G03X261000Y405000I2500J0D01*G01*
G54D89*X235245Y390393D02*Y389607D01*
X240755Y390393D02*Y389607D01*
G54D13*X330500Y264500D02*X340500D01*
X310500D02*X320500D01*
X330500D02*X320500Y259500D01*
Y269500D02*Y259500D01*
Y269500D02*X330500Y264500D01*
Y269500D02*Y259500D01*
X310500Y249500D02*X320500D01*
X330500D02*X340500D01*
X320500D02*X330500Y254500D01*
Y244500D01*
X320500Y249500D01*
Y254500D02*Y244500D01*
X313500Y183000D02*Y164000D01*
X344500D01*
Y183000D01*
X313500D02*X326500D01*
X344500D02*X331500D01*
X326500D02*G75*G03X331500Y183000I2500J0D01*G01*
G54D89*X342638Y195240D02*X347362D01*
X342638Y187760D02*X347362D01*
G54D11*X397900Y231200D02*Y207800D01*
G54D13*Y231200D02*X391800Y234500D01*
X355100D02*X391800D01*
X355100D02*Y204500D01*
X391800D01*
X397900Y207800D01*
G54D89*X364107Y202755D02*X364893D01*
X364107Y197245D02*X364893D01*
G54D13*X362500Y183000D02*Y164000D01*
X393500D01*
Y183000D01*
X362500D02*X375500D01*
X393500D02*X380500D01*
X375500D02*G75*G03X380500Y183000I2500J0D01*G01*
G54D89*X374607Y161255D02*X375393D01*
X374607Y155745D02*X375393D01*
X388607Y195755D02*X389393D01*
X388607Y190245D02*X389393D01*
G54D11*X391100Y257400D02*Y239600D01*
G54D13*Y257400D02*X384100Y259900D01*
X349900D02*X384100D01*
X349900D02*Y237100D01*
X384100D01*
X391100Y239600D01*
G54D11*X430280Y107044D02*Y122956D01*
X402720Y107044D02*Y122956D01*
X430280Y107044D02*X416500Y99089D01*
X430280Y122956D02*X416500Y130911D01*
X402720Y107044D02*X416500Y99089D01*
X402720Y122956D02*X416500Y130911D01*
G54D90*X407800Y208000D02*Y158000D01*
X487800Y195500D02*X522800D01*
Y170500D01*
X487800D02*X522800D01*
X487800Y183000D02*Y163000D01*
X450300D02*X487800D01*
Y203000D02*Y183000D01*
X450300Y203000D02*X487800D01*
X405300Y158000D02*X415300D01*
X405300Y208000D02*Y158000D01*
Y208000D02*X415300D01*
X430300Y158000D02*X450300D01*
Y208000D02*Y158000D01*
X430300Y208000D02*X450300D01*
X415300D02*X430300D01*
X415300Y158000D02*X430300D01*
X413500Y214300D02*Y151700D01*
X488000Y195500D02*X523000D01*
Y170500D01*
X488000D02*X523000D01*
X488000Y183000D02*Y163000D01*
X450500D02*X488000D01*
Y203000D02*Y183000D01*
X450500Y203000D02*X488000D01*
X400500Y151700D02*X415500D01*
X400500Y214300D02*Y151700D01*
Y214300D02*X415500D01*
X430500Y151700D02*X450500D01*
Y214300D02*Y151700D01*
X430500Y214300D02*X450500D01*
X415500D02*X430500D01*
X415500Y151700D02*X430500D01*
G54D89*X351064Y149148D02*X351850D01*
X351064Y143638D02*X351850D01*
G54D13*X393500Y117500D02*G75*G03X393500Y117500I-20000J0D01*G01*
G54D89*X318638Y195240D02*X323362D01*
X318638Y187760D02*X323362D01*
G54D13*X317000Y220410D02*Y197300D01*
X335300D01*
Y220410D01*
X317000D01*
G54D89*X327138Y143260D02*X331862D01*
X327138Y150740D02*X331862D01*
X295638Y195240D02*X300362D01*
X295638Y187760D02*X300362D01*
G54D13*X273200Y123200D02*X281900D01*
X286900D02*X295700D01*
Y111000D01*
X273200D01*
Y123200D01*
X281900D02*G75*G03X286900Y123200I2500J0D01*G01*
G54D89*X289607Y130755D02*X290393D01*
X289607Y125245D02*X290393D01*
X265245Y116393D02*Y115607D01*
X270755Y116393D02*Y115607D01*
G54D11*X310900Y133900D02*Y116100D01*
G54D13*X317900Y113600D01*
X352100D01*
Y136400D02*Y113600D01*
X317900Y136400D02*X352100D01*
X317900D02*X310900Y133900D01*
G54D89*X289607Y108755D02*X290393D01*
X289607Y103245D02*X290393D01*
G54D13*X327000Y112500D02*X347000D01*
X327000D02*Y102500D01*
X347000D01*
Y112500D02*Y102500D01*
X337000Y112500D02*Y102500D01*
X347000D01*
X410094Y294940D02*Y284940D01*
X420094D01*
Y294940D01*
X410094D01*
X430000Y315000D02*Y285000D01*
X420000Y315000D02*X430000D01*
X420000D02*Y285000D01*
X430000D01*
X420000Y295000D02*X430000D01*
X420000D02*Y285000D01*
G54D11*X392900Y257400D02*Y239600D01*
G54D13*X399900Y237100D01*
X434100D01*
Y259900D01*
X399900D01*
X392900Y257400D01*
G54D11*X194000Y189500D02*Y149500D01*
Y189500D02*X212000D01*
Y149500D01*
X194000D02*X212000D01*
X194000Y189500D02*Y149500D01*
Y189500D02*X200000D01*
Y149500D01*
X194000D02*X200000D01*
G54D13*X194000Y162500D02*X200000D01*
X194000Y176500D02*X200000D01*
G54D11*X206000Y140000D02*Y100000D01*
Y140000D02*X224000D01*
Y100000D01*
X206000D02*X224000D01*
X206000Y140000D02*Y100000D01*
Y140000D02*X212000D01*
Y100000D01*
X206000D02*X212000D01*
G54D13*X206000Y113000D02*X212000D01*
X206000Y127000D02*X212000D01*
G54D89*X226245Y221893D02*Y221107D01*
X231755Y221893D02*Y221107D01*
G54D13*X207500Y212500D02*Y193500D01*
X238500D01*
Y212500D01*
X207500D02*X220500D01*
X238500D02*X225500D01*
X220500D02*G75*G03X225500Y212500I2500J0D01*G01*
X183500Y241000D02*Y222000D01*
X214500D01*
Y241000D01*
X183500D02*X196500D01*
X214500D02*X201500D01*
X196500D02*G75*G03X201500Y241000I2500J0D01*G01*
X169000Y133500D02*Y113500D01*
X159000Y133500D02*X169000D01*
X159000D02*Y113500D01*
X169000D01*
X159000Y123500D02*X169000D01*
X159000D02*Y113500D01*
X81000Y187500D02*Y148500D01*
X112000D01*
Y187500D01*
X81000D02*X94000D01*
X112000D02*X99000D01*
X94000D02*G75*G03X99000Y187500I2500J0D01*G01*
X170500Y138000D02*Y104000D01*
X201500D01*
Y138000D01*
X170500D02*X183500D01*
X201500D02*X188500D01*
X183500D02*G75*G03X188500Y138000I2500J0D01*G01*
G54D11*X102780Y107044D02*Y122956D01*
X75220Y107044D02*Y122956D01*
X102780Y107044D02*X89000Y99089D01*
X102780Y122956D02*X89000Y130911D01*
X75220Y107044D02*X89000Y99089D01*
X75220Y122956D02*X89000Y130911D01*
G54D13*X121500Y138000D02*Y104000D01*
X152500D01*
Y138000D01*
X121500D02*X134500D01*
X152500D02*X139500D01*
X134500D02*G75*G03X139500Y138000I2500J0D01*G01*
X181500Y184500D02*Y174500D01*
Y204500D02*Y194500D01*
Y184500D02*X176500Y194500D01*
X186500D01*
X181500Y184500D01*
X176500D02*X186500D01*
G54D89*X179260Y164362D02*Y159638D01*
X186740Y164362D02*Y159638D01*
G54D13*X142500Y187500D02*Y153500D01*
X173500D01*
Y187500D01*
X142500D02*X155500D01*
X173500D02*X160500D01*
X155500D02*G75*G03X160500Y187500I2500J0D01*G01*
G54D89*X90607Y200245D02*X91393D01*
X90607Y205755D02*X91393D01*
X99107Y219745D02*X99893D01*
X99107Y225255D02*X99893D01*
X83260Y238362D02*Y233638D01*
X90740Y238362D02*Y233638D01*
G54D13*X92500Y248000D02*Y229000D01*
X123500D01*
Y248000D01*
X92500D02*X105500D01*
X123500D02*X110500D01*
X105500D02*G75*G03X110500Y248000I2500J0D01*G01*
G54D89*X118107Y225255D02*X118893D01*
X118107Y219745D02*X118893D01*
G54D13*X139000Y261000D02*Y222000D01*
X170000D01*
Y261000D01*
X139000D02*X152000D01*
X170000D02*X157000D01*
X152000D02*G75*G03X157000Y261000I2500J0D01*G01*
G54D89*X116107Y325255D02*X116893D01*
X116107Y319745D02*X116893D01*
G54D13*X239500Y300500D02*Y281500D01*
X270500D01*
Y300500D01*
X239500D02*X252500D01*
X270500D02*X257500D01*
X252500D02*G75*G03X257500Y300500I2500J0D01*G01*
X219500Y343000D02*Y313000D01*
X229500D01*
Y343000D01*
X219500D01*
Y333000D02*X229500D01*
Y343000D01*
G54D89*X169138Y314240D02*X173862D01*
X169138Y306760D02*X173862D01*
X146638Y314240D02*X151362D01*
X146638Y306760D02*X151362D01*
X146107Y321255D02*X146893D01*
X146107Y315745D02*X146893D01*
G54D13*X183000Y351000D02*Y332000D01*
X214000D01*
Y351000D01*
X183000D02*X196000D01*
X214000D02*X201000D01*
X196000D02*G75*G03X201000Y351000I2500J0D01*G01*
G54D91*X75504Y315815D02*X79441D01*
X75504Y355185D02*X79441D01*
X75504D02*Y315815D01*
X53850Y351248D02*X75504D01*
X51882Y349280D02*X53850Y351248D01*
X51882Y349280D02*Y321721D01*
X53850Y319752D02*X51882Y321721D01*
X53850Y319752D02*X75504D01*
X79441Y360500D02*Y310500D01*
X87000D01*
X79441Y360500D02*X87000D01*
X107000Y310500D02*X109000D01*
X107000Y360500D02*X109000D01*
Y310500D01*
G54D89*X116138Y343740D02*X120862D01*
X116138Y336260D02*X120862D01*
X116138Y327260D02*X120862D01*
X116138Y334740D02*X120862D01*
G54D11*X102780Y385044D02*Y400956D01*
X75220Y385044D02*Y400956D01*
X102780Y385044D02*X89000Y377089D01*
X102780Y400956D02*X89000Y408911D01*
X75220Y385044D02*X89000Y377089D01*
X75220Y400956D02*X89000Y408911D01*
G54D13*X119700Y399000D02*G75*G03X119700Y399000I11800J0D01*G01*
X117700D02*G75*G03X117700Y399000I13800J0D01*G01*
G54D89*X203245Y370393D02*Y369607D01*
X208755Y370393D02*Y369607D01*
G54D13*X225000Y388000D02*Y378000D01*
Y368000D02*Y358000D01*
Y378000D02*X230000Y368000D01*
X220000D02*X230000D01*
X220000D02*X225000Y378000D01*
X220000D02*X230000D01*
X120000Y382000D02*Y363000D01*
X151000D01*
Y382000D01*
X120000D02*X133000D01*
X151000D02*X138000D01*
X133000D02*G75*G03X138000Y382000I2500J0D01*G01*
X157700Y399000D02*G75*G03X157700Y399000I11800J0D01*G01*
X155700D02*G75*G03X155700Y399000I13800J0D01*G01*
X195700D02*G75*G03X195700Y399000I11800J0D01*G01*
X193700D02*G75*G03X193700Y399000I13800J0D01*G01*
X164500Y382000D02*Y363000D01*
X195500D01*
Y382000D01*
X164500D02*X177500D01*
X195500D02*X182500D01*
X177500D02*G75*G03X182500Y382000I2500J0D01*G01*
G54D89*X122107Y268245D02*X122893D01*
X122107Y273755D02*X122893D01*
X105607Y293255D02*X106393D01*
X105607Y287745D02*X106393D01*
X88638Y304740D02*X93362D01*
X88638Y297260D02*X93362D01*
G54D11*X83800Y285800D02*X101200D01*
G54D13*X83800D02*X81300Y281000D01*
Y251200D01*
X103700D01*
Y281000D02*Y251200D01*
Y281000D02*X101200Y285800D01*
G54D89*X116107Y350755D02*X116893D01*
X116107Y345245D02*X116893D01*
G54D13*X183500Y264500D02*Y245500D01*
X214500D01*
Y264500D01*
X183500D02*X196500D01*
X214500D02*X201500D01*
X196500D02*G75*G03X201500Y264500I2500J0D01*G01*
G54D89*X226755Y294893D02*Y294107D01*
X221245Y294893D02*Y294107D01*
X201760Y297862D02*Y293138D01*
X209240Y297862D02*Y293138D01*
G54D13*X183500Y302000D02*Y288100D01*
X196300D01*
Y302000D01*
X183500D01*
G54D89*X169138Y288260D02*X173862D01*
X169138Y295740D02*X173862D01*
G54D13*X129000Y351000D02*Y332000D01*
X160000D01*
Y351000D01*
X129000D02*X142000D01*
X160000D02*X147000D01*
X142000D02*G75*G03X147000Y351000I2500J0D01*G01*
X125500Y322000D02*Y308100D01*
X138300D01*
Y322000D01*
X125500D01*
X183000Y325000D02*Y306000D01*
X214000D01*
Y325000D01*
X183000D02*X196000D01*
X214000D02*X201000D01*
X196000D02*G75*G03X201000Y325000I2500J0D01*G01*
G54D89*X169138Y304740D02*X173862D01*
X169138Y297260D02*X173862D01*
X169138Y323740D02*X173862D01*
X169138Y316260D02*X173862D01*
X169138Y326760D02*X173862D01*
X169138Y334240D02*X173862D01*
G54D13*X118000Y302500D02*Y283500D01*
X149000D01*
Y302500D01*
X118000D02*X131000D01*
X149000D02*X136000D01*
X131000D02*G75*G03X136000Y302500I2500J0D01*G01*
G54D52*X418000Y266600D02*Y266100D01*
X420500Y263600D01*
Y262600D01*
X418000Y263600D02*Y262600D01*
Y263600D02*X420500Y266100D01*
Y266600D02*Y266100D01*
X421701D02*X422201Y266600D01*
X423701D01*
X424201Y266100D01*
Y265100D01*
X421701Y262600D02*X424201Y265100D01*
X421701Y262600D02*X424201D01*
X425902D02*X426902D01*
X426402Y266600D02*Y262600D01*
X425402Y265600D02*X426402Y266600D01*
X428603Y262600D02*X429603D01*
X429103Y266600D02*Y262600D01*
X428103Y265600D02*X429103Y266600D01*
X413547Y298220D02*Y296720D01*
X413047Y296220D02*X413547Y296720D01*
X410047Y296220D02*X413047D01*
X410047D02*X409547Y296720D01*
Y298220D02*Y296720D01*
X410047Y299421D02*X413047D01*
X410047D02*X409547Y299921D01*
Y300921D02*Y299921D01*
Y300921D02*X410047Y301421D01*
X413047D01*
X413547Y300921D02*X413047Y301421D01*
X413547Y300921D02*Y299921D01*
X413047Y299421D02*X413547Y299921D01*
X409547Y302622D02*X413547D01*
X409547D02*X410047D01*
X412547Y305122D01*
X409547D02*X413547D01*
X409547Y306323D02*X413547D01*
X409547D02*X410047D01*
X412547Y308823D01*
X409547D02*X413547D01*
Y310024D02*X411547Y312024D01*
X410047D02*X411547D01*
X409547Y311524D02*X410047Y312024D01*
X409547Y311524D02*Y310524D01*
X410047Y310024D02*X409547Y310524D01*
X410047Y310024D02*X411047D01*
X411547Y310524D01*
Y312024D02*Y310524D01*
X419000Y298000D02*Y296500D01*
X418500Y296000D02*X419000Y296500D01*
X415500Y296000D02*X418500D01*
X415500D02*X415000Y296500D01*
Y298000D02*Y296500D01*
X415500Y299201D02*X418500D01*
X415500D02*X415000Y299701D01*
Y300701D02*Y299701D01*
Y300701D02*X415500Y301201D01*
X418500D01*
X419000Y300701D02*X418500Y301201D01*
X419000Y300701D02*Y299701D01*
X418500Y299201D02*X419000Y299701D01*
X415000Y302402D02*X419000D01*
X415000D02*X415500D01*
X418000Y304902D01*
X415000D02*X419000D01*
X415000Y306103D02*X419000D01*
X415000D02*X415500D01*
X418000Y308603D01*
X415000D02*X419000D01*
X418500Y309804D02*X419000Y310304D01*
X417500Y309804D02*X418500D01*
X417500D02*X417000Y310304D01*
Y311304D02*Y310304D01*
Y311304D02*X417500Y311804D01*
X418500D01*
X419000Y311304D02*X418500Y311804D01*
X419000Y311304D02*Y310304D01*
X416500Y309804D02*X417000Y310304D01*
X415500Y309804D02*X416500D01*
X415500D02*X415000Y310304D01*
Y311304D02*Y310304D01*
Y311304D02*X415500Y311804D01*
X416500D01*
X417000Y311304D02*X416500Y311804D01*
X375000Y405000D02*Y404500D01*
X377500Y402000D01*
Y401000D01*
X375000Y402000D02*Y401000D01*
Y402000D02*X377500Y404500D01*
Y405000D02*Y404500D01*
X378701D02*X379201Y405000D01*
X380701D01*
X381201Y404500D01*
Y403500D01*
X378701Y401000D02*X381201Y403500D01*
X378701Y401000D02*X381201D01*
X382402Y401500D02*X382902Y401000D01*
X382402Y404500D02*Y401500D01*
Y404500D02*X382902Y405000D01*
X383902D01*
X384402Y404500D01*
Y401500D01*
X383902Y401000D02*X384402Y401500D01*
X382902Y401000D02*X383902D01*
X382402Y402000D02*X384402Y404000D01*
X385603Y405000D02*X387603D01*
X385603D02*Y403000D01*
X386103Y403500D01*
X387103D01*
X387603Y403000D01*
Y401500D01*
X387103Y401000D02*X387603Y401500D01*
X386103Y401000D02*X387103D01*
X385603Y401500D02*X386103Y401000D01*
X374500Y266100D02*Y265600D01*
X377000Y263100D01*
Y262100D01*
X374500Y263100D02*Y262100D01*
Y263100D02*X377000Y265600D01*
Y266100D02*Y265600D01*
X378201D02*X378701Y266100D01*
X380201D01*
X380701Y265600D01*
Y264600D01*
X378201Y262100D02*X380701Y264600D01*
X378201Y262100D02*X380701D01*
X382402D02*X383402D01*
X382902Y266100D02*Y262100D01*
X381902Y265100D02*X382902Y266100D01*
X384603Y265600D02*X385103Y266100D01*
X386603D01*
X387103Y265600D01*
Y264600D01*
X384603Y262100D02*X387103Y264600D01*
X384603Y262100D02*X387103D01*
X408500Y327657D02*Y326157D01*
X408000Y325657D02*X408500Y326157D01*
X405000Y325657D02*X408000D01*
X405000D02*X404500Y326157D01*
Y327657D02*Y326157D01*
X405000Y328858D02*X408000D01*
X405000D02*X404500Y329358D01*
Y330358D02*Y329358D01*
Y330358D02*X405000Y330858D01*
X408000D01*
X408500Y330358D02*X408000Y330858D01*
X408500Y330358D02*Y329358D01*
X408000Y328858D02*X408500Y329358D01*
X404500Y332059D02*X408500D01*
X404500D02*X405000D01*
X407500Y334559D01*
X404500D02*X408500D01*
X404500Y335760D02*X408500D01*
X404500D02*X405000D01*
X407500Y338260D01*
X404500D02*X408500D01*
Y339461D02*X406000Y341961D01*
X404500D02*X406000D01*
X404500D02*Y339461D01*
X402000Y229400D02*X403500D01*
X401500Y229900D02*X402000Y229400D01*
X401500Y232900D02*Y229900D01*
Y232900D02*X402000Y233400D01*
X403500D01*
X404701Y231400D02*X406701Y233400D01*
X404701Y231400D02*X407201D01*
X406701Y233400D02*Y229400D01*
X408402Y232900D02*X408902Y233400D01*
X409902D01*
X410402Y232900D01*
Y229900D01*
X409902Y229400D02*X410402Y229900D01*
X408902Y229400D02*X409902D01*
X408402Y229900D02*X408902Y229400D01*
Y231400D02*X410402D01*
X282850Y402650D02*X284350D01*
X282350Y403150D02*X282850Y402650D01*
X282350Y406150D02*Y403150D01*
Y406150D02*X282850Y406650D01*
X284350D01*
X285551Y406150D02*X286051Y406650D01*
X287051D01*
X287551Y406150D01*
Y403150D01*
X287051Y402650D02*X287551Y403150D01*
X286051Y402650D02*X287051D01*
X285551Y403150D02*X286051Y402650D01*
Y404650D02*X287551D01*
X290252Y406650D02*X290752Y406150D01*
X289252Y406650D02*X290252D01*
X288752Y406150D02*X289252Y406650D01*
X288752Y406150D02*Y403150D01*
X289252Y402650D01*
X290252Y404650D02*X290752Y404150D01*
X288752Y404650D02*X290252D01*
X289252Y402650D02*X290252D01*
X290752Y403150D01*
Y404150D02*Y403150D01*
X257500Y305500D02*Y305000D01*
X260000Y302500D01*
Y301500D01*
X257500Y302500D02*Y301500D01*
Y302500D02*X260000Y305000D01*
Y305500D02*Y305000D01*
X261201D02*X261701Y305500D01*
X263201D01*
X263701Y305000D01*
Y304000D01*
X261201Y301500D02*X263701Y304000D01*
X261201Y301500D02*X263701D01*
X264902Y302000D02*X265402Y301500D01*
X264902Y305000D02*Y302000D01*
Y305000D02*X265402Y305500D01*
X266402D01*
X266902Y305000D01*
Y302000D01*
X266402Y301500D02*X266902Y302000D01*
X265402Y301500D02*X266402D01*
X264902Y302500D02*X266902Y304500D01*
X268103Y305000D02*X268603Y305500D01*
X269603D01*
X270103Y305000D01*
Y302000D01*
X269603Y301500D02*X270103Y302000D01*
X268603Y301500D02*X269603D01*
X268103Y302000D02*X268603Y301500D01*
Y303500D02*X270103D01*
X210850Y296350D02*Y294350D01*
Y296350D02*X211350Y296850D01*
X212350D01*
X212850Y296350D02*X212350Y296850D01*
X212850Y296350D02*Y294850D01*
X210850D02*X214850D01*
X212850D02*X214850Y296850D01*
Y299551D02*Y298551D01*
X210850Y299051D02*X214850D01*
X211850Y298051D02*X210850Y299051D01*
Y302752D02*Y300752D01*
X212850D01*
X212350Y301252D01*
Y302252D02*Y301252D01*
Y302252D02*X212850Y302752D01*
X214350D01*
X214850Y302252D02*X214350Y302752D01*
X214850Y302252D02*Y301252D01*
X214350Y300752D02*X214850Y301252D01*
X230500Y301500D02*X231000D01*
X233500Y304000D01*
X234500D01*
X233500Y301500D02*X234500D01*
X233500D02*X231000Y304000D01*
X230500D02*X231000D01*
Y305201D02*X230500Y305701D01*
Y307201D02*Y305701D01*
Y307201D02*X231000Y307701D01*
X232000D01*
X234500Y305201D02*X232000Y307701D01*
X234500D02*Y305201D01*
X234000Y308902D02*X234500Y309402D01*
X231000Y308902D02*X234000D01*
X231000D02*X230500Y309402D01*
Y310402D02*Y309402D01*
Y310402D02*X231000Y310902D01*
X234000D01*
X234500Y310402D02*X234000Y310902D01*
X234500Y310402D02*Y309402D01*
X233500Y308902D02*X231500Y310902D01*
X232500Y312103D02*X230500Y314103D01*
X232500Y314603D02*Y312103D01*
X230500Y314103D02*X234500D01*
X206500Y271000D02*Y270500D01*
X209000Y268000D01*
Y267000D01*
X206500Y268000D02*Y267000D01*
Y268000D02*X209000Y270500D01*
Y271000D02*Y270500D01*
X210201Y267000D02*X212201Y269000D01*
Y270500D02*Y269000D01*
X211701Y271000D02*X212201Y270500D01*
X210701Y271000D02*X211701D01*
X210201Y270500D02*X210701Y271000D01*
X210201Y270500D02*Y269500D01*
X210701Y269000D01*
X212201D01*
X228807Y281757D02*X230307D01*
X228307Y282257D02*X228807Y281757D01*
X228307Y285257D02*Y282257D01*
Y285257D02*X228807Y285757D01*
X230307D01*
X231508Y285257D02*X232008Y285757D01*
X233008D01*
X233508Y285257D01*
Y282257D01*
X233008Y281757D02*X233508Y282257D01*
X232008Y281757D02*X233008D01*
X231508Y282257D02*X232008Y281757D01*
Y283757D02*X233508D01*
X234709Y285757D02*X236709D01*
X234709D02*Y283757D01*
X235209Y284257D01*
X236209D01*
X236709Y283757D01*
Y282257D01*
X236209Y281757D02*X236709Y282257D01*
X235209Y281757D02*X236209D01*
X234709Y282257D02*X235209Y281757D01*
X214000Y245000D02*Y244500D01*
X216500Y242000D01*
Y241000D01*
X214000Y242000D02*Y241000D01*
Y242000D02*X216500Y244500D01*
Y245000D02*Y244500D01*
X217701Y243000D02*X219701Y245000D01*
X217701Y243000D02*X220201D01*
X219701Y245000D02*Y241000D01*
X219000Y329000D02*Y327500D01*
X218500Y327000D02*X219000Y327500D01*
X215500Y327000D02*X218500D01*
X215500D02*X215000Y327500D01*
Y329000D02*Y327500D01*
X215500Y330201D02*X218500D01*
X215500D02*X215000Y330701D01*
Y331701D02*Y330701D01*
Y331701D02*X215500Y332201D01*
X218500D01*
X219000Y331701D02*X218500Y332201D01*
X219000Y331701D02*Y330701D01*
X218500Y330201D02*X219000Y330701D01*
X215000Y333402D02*X219000D01*
X215000D02*X215500D01*
X218000Y335902D01*
X215000D02*X219000D01*
X215000Y337103D02*X219000D01*
X215000D02*X215500D01*
X218000Y339603D01*
X215000D02*X219000D01*
X217000Y340804D02*X215000Y342804D01*
X217000Y343304D02*Y340804D01*
X215000Y342804D02*X219000D01*
X207000Y331000D02*Y330500D01*
X209500Y328000D01*
Y327000D01*
X207000Y328000D02*Y327000D01*
Y328000D02*X209500Y330500D01*
Y331000D02*Y330500D01*
X210701D02*X211201Y331000D01*
X212201D01*
X212701Y330500D01*
Y327500D01*
X212201Y327000D02*X212701Y327500D01*
X211201Y327000D02*X212201D01*
X210701Y327500D02*X211201Y327000D01*
Y329000D02*X212701D01*
X204000Y357000D02*Y356500D01*
X206500Y354000D01*
Y353000D01*
X204000Y354000D02*Y353000D01*
Y354000D02*X206500Y356500D01*
Y357000D02*Y356500D01*
X208201Y353000D02*X209201D01*
X208701Y357000D02*Y353000D01*
X207701Y356000D02*X208701Y357000D01*
X210402Y353500D02*X210902Y353000D01*
X210402Y356500D02*Y353500D01*
Y356500D02*X210902Y357000D01*
X211902D01*
X212402Y356500D01*
Y353500D01*
X211902Y353000D02*X212402Y353500D01*
X210902Y353000D02*X211902D01*
X210402Y354000D02*X212402Y356000D01*
X253500Y358000D02*Y357500D01*
X256000Y355000D01*
Y354000D01*
X253500Y355000D02*Y354000D01*
Y355000D02*X256000Y357500D01*
Y358000D02*Y357500D01*
X257201D02*X257701Y358000D01*
X259201D01*
X259701Y357500D01*
Y356500D01*
X257201Y354000D02*X259701Y356500D01*
X257201Y354000D02*X259701D01*
X260902Y354500D02*X261402Y354000D01*
X260902Y357500D02*Y354500D01*
Y357500D02*X261402Y358000D01*
X262402D01*
X262902Y357500D01*
Y354500D01*
X262402Y354000D02*X262902Y354500D01*
X261402Y354000D02*X262402D01*
X260902Y355000D02*X262902Y357000D01*
X265603Y358000D02*X266103Y357500D01*
X264603Y358000D02*X265603D01*
X264103Y357500D02*X264603Y358000D01*
X264103Y357500D02*Y354500D01*
X264603Y354000D01*
X265603Y356000D02*X266103Y355500D01*
X264103Y356000D02*X265603D01*
X264603Y354000D02*X265603D01*
X266103Y354500D01*
Y355500D02*Y354500D01*
X254500Y385000D02*Y384500D01*
X257000Y382000D01*
Y381000D01*
X254500Y382000D02*Y381000D01*
Y382000D02*X257000Y384500D01*
Y385000D02*Y384500D01*
X258201D02*X258701Y385000D01*
X260201D01*
X260701Y384500D01*
Y383500D01*
X258201Y381000D02*X260701Y383500D01*
X258201Y381000D02*X260701D01*
X261902Y381500D02*X262402Y381000D01*
X261902Y384500D02*Y381500D01*
Y384500D02*X262402Y385000D01*
X263402D01*
X263902Y384500D01*
Y381500D01*
X263402Y381000D02*X263902Y381500D01*
X262402Y381000D02*X263402D01*
X261902Y382000D02*X263902Y384000D01*
X265103Y381000D02*X267603Y383500D01*
Y385000D02*Y383500D01*
X265103Y385000D02*X267603D01*
X232564Y393350D02*Y391850D01*
X232064Y391350D02*X232564Y391850D01*
X229064Y391350D02*X232064D01*
X229064D02*X228564Y391850D01*
Y393350D02*Y391850D01*
X229064Y394551D02*X228564Y395051D01*
Y396051D02*Y395051D01*
Y396051D02*X229064Y396551D01*
X232064D01*
X232564Y396051D02*X232064Y396551D01*
X232564Y396051D02*Y395051D01*
X232064Y394551D02*X232564Y395051D01*
X230564Y396551D02*Y395051D01*
X232564Y397752D02*X230064Y400252D01*
X228564D02*X230064D01*
X228564D02*Y397752D01*
X218000Y381000D02*X222000D01*
X218000Y382500D02*X218500Y383000D01*
X221500D01*
X222000Y382500D02*X221500Y383000D01*
X222000Y382500D02*Y380500D01*
X218000Y382500D02*Y380500D01*
X222000Y384201D02*X220000Y386201D01*
X218500D02*X220000D01*
X218000Y385701D02*X218500Y386201D01*
X218000Y385701D02*Y384701D01*
X218500Y384201D02*X218000Y384701D01*
X218500Y384201D02*X219500D01*
X220000Y384701D01*
Y386201D02*Y384701D01*
X286000Y272500D02*Y268500D01*
X287500Y272500D02*X288000Y272000D01*
Y269000D01*
X287500Y268500D02*X288000Y269000D01*
X285500Y268500D02*X287500D01*
X285500Y272500D02*X287500D01*
X289201Y272000D02*X289701Y272500D01*
X291201D01*
X291701Y272000D01*
Y271000D01*
X289201Y268500D02*X291701Y271000D01*
X289201Y268500D02*X291701D01*
X293402D02*X294402D01*
X293902Y272500D02*Y268500D01*
X292902Y271500D02*X293902Y272500D01*
X295603Y269000D02*X296103Y268500D01*
X295603Y272000D02*Y269000D01*
Y272000D02*X296103Y272500D01*
X297103D01*
X297603Y272000D01*
Y269000D01*
X297103Y268500D02*X297603Y269000D01*
X296103Y268500D02*X297103D01*
X295603Y269500D02*X297603Y271500D01*
X286000Y257500D02*Y253500D01*
X287500Y257500D02*X288000Y257000D01*
Y254000D01*
X287500Y253500D02*X288000Y254000D01*
X285500Y253500D02*X287500D01*
X285500Y257500D02*X287500D01*
X289201Y257000D02*X289701Y257500D01*
X291201D01*
X291701Y257000D01*
Y256000D01*
X289201Y253500D02*X291701Y256000D01*
X289201Y253500D02*X291701D01*
X292902Y254000D02*X293402Y253500D01*
X292902Y257000D02*Y254000D01*
Y257000D02*X293402Y257500D01*
X294402D01*
X294902Y257000D01*
Y254000D01*
X294402Y253500D02*X294902Y254000D01*
X293402Y253500D02*X294402D01*
X292902Y254500D02*X294902Y256500D01*
X296103Y254000D02*X296603Y253500D01*
X296103Y255000D02*Y254000D01*
Y255000D02*X296603Y255500D01*
X297603D01*
X298103Y255000D01*
Y254000D01*
X297603Y253500D02*X298103Y254000D01*
X296603Y253500D02*X297603D01*
X296103Y256000D02*X296603Y255500D01*
X296103Y257000D02*Y256000D01*
Y257000D02*X296603Y257500D01*
X297603D01*
X298103Y257000D01*
Y256000D01*
X297603Y255500D02*X298103Y256000D01*
X333000Y272000D02*Y268000D01*
X334500Y272000D02*X335000Y271500D01*
Y268500D01*
X334500Y268000D02*X335000Y268500D01*
X332500Y268000D02*X334500D01*
X332500Y272000D02*X334500D01*
X336201Y271500D02*X336701Y272000D01*
X338201D01*
X338701Y271500D01*
Y270500D01*
X336201Y268000D02*X338701Y270500D01*
X336201Y268000D02*X338701D01*
X339902Y268500D02*X340402Y268000D01*
X339902Y271500D02*Y268500D01*
Y271500D02*X340402Y272000D01*
X341402D01*
X341902Y271500D01*
Y268500D01*
X341402Y268000D02*X341902Y268500D01*
X340402Y268000D02*X341402D01*
X339902Y269000D02*X341902Y271000D01*
X343103Y268000D02*X345103Y270000D01*
Y271500D02*Y270000D01*
X344603Y272000D02*X345103Y271500D01*
X343603Y272000D02*X344603D01*
X343103Y271500D02*X343603Y272000D01*
X343103Y271500D02*Y270500D01*
X343603Y270000D01*
X345103D01*
X332000Y257500D02*Y253500D01*
X333500Y257500D02*X334000Y257000D01*
Y254000D01*
X333500Y253500D02*X334000Y254000D01*
X331500Y253500D02*X333500D01*
X331500Y257500D02*X333500D01*
X335201Y257000D02*X335701Y257500D01*
X337201D01*
X337701Y257000D01*
Y256000D01*
X335201Y253500D02*X337701Y256000D01*
X335201Y253500D02*X337701D01*
X338902Y254000D02*X339402Y253500D01*
X338902Y257000D02*Y254000D01*
Y257000D02*X339402Y257500D01*
X340402D01*
X340902Y257000D01*
Y254000D01*
X340402Y253500D02*X340902Y254000D01*
X339402Y253500D02*X340402D01*
X338902Y254500D02*X340902Y256500D01*
X342103Y253500D02*X344603Y256000D01*
Y257500D02*Y256000D01*
X342103Y257500D02*X344603D01*
X273681Y280595D02*Y276595D01*
Y280595D02*X275681D01*
X273681Y278595D02*X275181D01*
X276882Y276595D02*X278882D01*
X279382Y277095D01*
Y278095D02*Y277095D01*
X278882Y278595D02*X279382Y278095D01*
X277382Y278595D02*X278882D01*
X277382Y280595D02*Y276595D01*
X276882Y280595D02*X278882D01*
X279382Y280095D01*
Y279095D01*
X278882Y278595D02*X279382Y279095D01*
X280583Y280595D02*Y276595D01*
X282583D01*
X283784Y280595D02*X284784D01*
X284284D02*Y276595D01*
X283784D02*X284784D01*
X287985Y280595D02*X288485Y280095D01*
X286485Y280595D02*X287985D01*
X285985Y280095D02*X286485Y280595D01*
X285985Y280095D02*Y277095D01*
X286485Y276595D01*
X287985D01*
X288485Y277095D01*
Y278095D02*Y277095D01*
X287985Y278595D02*X288485Y278095D01*
X286985Y278595D02*X287985D01*
X289686Y280595D02*Y276595D01*
X292186Y280595D02*Y276595D01*
X289686Y278595D02*X292186D01*
X293387Y280595D02*X295387D01*
X294387D02*Y276595D01*
X429700Y220000D02*Y216000D01*
X429200Y220000D02*X431200D01*
X431700Y219500D01*
Y218500D01*
X431200Y218000D02*X431700Y218500D01*
X429700Y218000D02*X431200D01*
X432901Y219500D02*X433401Y220000D01*
X434901D01*
X435401Y219500D01*
Y218500D01*
X432901Y216000D02*X435401Y218500D01*
X432901Y216000D02*X435401D01*
X436602Y216500D02*X437102Y216000D01*
X436602Y219500D02*Y216500D01*
Y219500D02*X437102Y220000D01*
X438102D01*
X438602Y219500D01*
Y216500D01*
X438102Y216000D02*X438602Y216500D01*
X437102Y216000D02*X438102D01*
X436602Y217000D02*X438602Y219000D01*
X440303Y216000D02*X441303D01*
X440803Y220000D02*Y216000D01*
X439803Y219000D02*X440803Y220000D01*
X428500Y227500D02*Y223500D01*
X428000Y227500D02*X430000D01*
X430500Y227000D01*
Y226000D01*
X430000Y225500D02*X430500Y226000D01*
X428500Y225500D02*X430000D01*
X431701Y227000D02*X432201Y227500D01*
X433701D01*
X434201Y227000D01*
Y226000D01*
X431701Y223500D02*X434201Y226000D01*
X431701Y223500D02*X434201D01*
X435402Y224000D02*X435902Y223500D01*
X435402Y227000D02*Y224000D01*
Y227000D02*X435902Y227500D01*
X436902D01*
X437402Y227000D01*
Y224000D01*
X436902Y223500D02*X437402Y224000D01*
X435902Y223500D02*X436902D01*
X435402Y224500D02*X437402Y226500D01*
X438603Y224000D02*X439103Y223500D01*
X438603Y227000D02*Y224000D01*
Y227000D02*X439103Y227500D01*
X440103D01*
X440603Y227000D01*
Y224000D01*
X440103Y223500D02*X440603Y224000D01*
X439103Y223500D02*X440103D01*
X438603Y224500D02*X440603Y226500D01*
X289350Y205650D02*X291350D01*
X291850Y205150D01*
Y204150D01*
X291350Y203650D02*X291850Y204150D01*
X289850Y203650D02*X291350D01*
X289850Y205650D02*Y201650D01*
Y203650D02*X291850Y201650D01*
X293051Y205150D02*X293551Y205650D01*
X295051D01*
X295551Y205150D01*
Y204150D01*
X293051Y201650D02*X295551Y204150D01*
X293051Y201650D02*X295551D01*
X296752Y202150D02*X297252Y201650D01*
X296752Y205150D02*Y202150D01*
Y205150D02*X297252Y205650D01*
X298252D01*
X298752Y205150D01*
Y202150D01*
X298252Y201650D02*X298752Y202150D01*
X297252Y201650D02*X298252D01*
X296752Y202650D02*X298752Y204650D01*
X300453Y201650D02*X301453D01*
X300953Y205650D02*Y201650D01*
X299953Y204650D02*X300953Y205650D01*
X254350D02*X256350D01*
X256850Y205150D01*
Y204150D01*
X256350Y203650D02*X256850Y204150D01*
X254850Y203650D02*X256350D01*
X254850Y205650D02*Y201650D01*
Y203650D02*X256850Y201650D01*
X258051Y205150D02*X258551Y205650D01*
X260051D01*
X260551Y205150D01*
Y204150D01*
X258051Y201650D02*X260551Y204150D01*
X258051Y201650D02*X260551D01*
X261752Y202150D02*X262252Y201650D01*
X261752Y205150D02*Y202150D01*
Y205150D02*X262252Y205650D01*
X263252D01*
X263752Y205150D01*
Y202150D01*
X263252Y201650D02*X263752Y202150D01*
X262252Y201650D02*X263252D01*
X261752Y202650D02*X263752Y204650D01*
X264953Y205150D02*X265453Y205650D01*
X266953D01*
X267453Y205150D01*
Y204150D01*
X264953Y201650D02*X267453Y204150D01*
X264953Y201650D02*X267453D01*
X298500Y184000D02*Y183500D01*
X301000Y181000D01*
Y180000D01*
X298500Y181000D02*Y180000D01*
Y181000D02*X301000Y183500D01*
Y184000D02*Y183500D01*
X302201D02*X302701Y184000D01*
X304201D01*
X304701Y183500D01*
Y182500D01*
X302201Y180000D02*X304701Y182500D01*
X302201Y180000D02*X304701D01*
X305902Y180500D02*X306402Y180000D01*
X305902Y183500D02*Y180500D01*
Y183500D02*X306402Y184000D01*
X307402D01*
X307902Y183500D01*
Y180500D01*
X307402Y180000D02*X307902Y180500D01*
X306402Y180000D02*X307402D01*
X305902Y181000D02*X307902Y183000D01*
X309103Y180500D02*X309603Y180000D01*
X309103Y183500D02*Y180500D01*
Y183500D02*X309603Y184000D01*
X310603D01*
X311103Y183500D01*
Y180500D01*
X310603Y180000D02*X311103Y180500D01*
X309603Y180000D02*X310603D01*
X309103Y181000D02*X311103Y183000D01*
X256850Y159150D02*X258350D01*
X256350Y159650D02*X256850Y159150D01*
X256350Y162650D02*Y159650D01*
Y162650D02*X256850Y163150D01*
X258350D01*
X259551Y162650D02*X260051Y163150D01*
X261051D01*
X261551Y162650D01*
Y159650D01*
X261051Y159150D02*X261551Y159650D01*
X260051Y159150D02*X261051D01*
X259551Y159650D02*X260051Y159150D01*
Y161150D02*X261551D01*
X262752Y159150D02*X264752Y161150D01*
Y162650D02*Y161150D01*
X264252Y163150D02*X264752Y162650D01*
X263252Y163150D02*X264252D01*
X262752Y162650D02*X263252Y163150D01*
X262752Y162650D02*Y161650D01*
X263252Y161150D01*
X264752D01*
X343850Y151436D02*X345350D01*
X343350Y151936D02*X343850Y151436D01*
X343350Y154936D02*Y151936D01*
Y154936D02*X343850Y155436D01*
X345350D01*
X346551Y154936D02*X347051Y155436D01*
X348551D01*
X349051Y154936D01*
Y153936D01*
X346551Y151436D02*X349051Y153936D01*
X346551Y151436D02*X349051D01*
X351752Y155436D02*X352252Y154936D01*
X350752Y155436D02*X351752D01*
X350252Y154936D02*X350752Y155436D01*
X350252Y154936D02*Y151936D01*
X350752Y151436D01*
X351752Y153436D02*X352252Y152936D01*
X350252Y153436D02*X351752D01*
X350752Y151436D02*X351752D01*
X352252Y151936D01*
Y152936D02*Y151936D01*
X236671Y180893D02*Y179393D01*
X236171Y178893D02*X236671Y179393D01*
X233171Y178893D02*X236171D01*
X233171D02*X232671Y179393D01*
Y180893D02*Y179393D01*
X233171Y182094D02*X232671Y182594D01*
Y183594D02*Y182594D01*
Y183594D02*X233171Y184094D01*
X236171D01*
X236671Y183594D02*X236171Y184094D01*
X236671Y183594D02*Y182594D01*
X236171Y182094D02*X236671Y182594D01*
X234671Y184094D02*Y182594D01*
X236171Y185295D02*X236671Y185795D01*
X235171Y185295D02*X236171D01*
X235171D02*X234671Y185795D01*
Y186795D02*Y185795D01*
Y186795D02*X235171Y187295D01*
X236171D01*
X236671Y186795D02*X236171Y187295D01*
X236671Y186795D02*Y185795D01*
X234171Y185295D02*X234671Y185795D01*
X233171Y185295D02*X234171D01*
X233171D02*X232671Y185795D01*
Y186795D02*Y185795D01*
Y186795D02*X233171Y187295D01*
X234171D01*
X234671Y186795D02*X234171Y187295D01*
X102000Y193500D02*Y190000D01*
X102500Y189500D01*
X103500D01*
X104000Y190000D01*
Y193500D02*Y190000D01*
X105701Y189500D02*X106701D01*
X106201Y193500D02*Y189500D01*
X105201Y192500D02*X106201Y193500D01*
X107902Y191500D02*X109902Y193500D01*
X107902Y191500D02*X110402D01*
X109902Y193500D02*Y189500D01*
X173000Y198500D02*X177000D01*
X173000Y200000D02*X173500Y200500D01*
X176500D01*
X177000Y200000D02*X176500Y200500D01*
X177000Y200000D02*Y198000D01*
X173000Y200000D02*Y198000D01*
X177000Y201701D02*X174500Y204201D01*
X173000D02*X174500D01*
X173000D02*Y201701D01*
X187000Y180500D02*X190500D01*
X191000Y181000D01*
Y182000D02*Y181000D01*
Y182000D02*X190500Y182500D01*
X187000D02*X190500D01*
X191000Y185201D02*Y184201D01*
X187000Y184701D02*X191000D01*
X188000Y183701D02*X187000Y184701D01*
X190500Y186402D02*X191000Y186902D01*
X189500Y186402D02*X190500D01*
X189500D02*X189000Y186902D01*
Y187902D02*Y186902D01*
Y187902D02*X189500Y188402D01*
X190500D01*
X191000Y187902D02*X190500Y188402D01*
X191000Y187902D02*Y186902D01*
X188500Y186402D02*X189000Y186902D01*
X187500Y186402D02*X188500D01*
X187500D02*X187000Y186902D01*
Y187902D02*Y186902D01*
Y187902D02*X187500Y188402D01*
X188500D01*
X189000Y187902D02*X188500Y188402D01*
X167000Y193500D02*Y190000D01*
X167500Y189500D01*
X168500D01*
X169000Y190000D01*
Y193500D02*Y190000D01*
X171701Y193500D02*X172201Y193000D01*
X170701Y193500D02*X171701D01*
X170201Y193000D02*X170701Y193500D01*
X170201Y193000D02*Y190000D01*
X170701Y189500D01*
X171701Y191500D02*X172201Y191000D01*
X170201Y191500D02*X171701D01*
X170701Y189500D02*X171701D01*
X172201Y190000D01*
Y191000D02*Y190000D01*
X88807Y207043D02*X90307D01*
X88307Y207543D02*X88807Y207043D01*
X88307Y210543D02*Y207543D01*
Y210543D02*X88807Y211043D01*
X90307D01*
X91508Y210543D02*X92008Y211043D01*
X93508D01*
X94008Y210543D01*
Y209543D01*
X91508Y207043D02*X94008Y209543D01*
X91508Y207043D02*X94008D01*
X95209Y209043D02*X97209Y211043D01*
X95209Y209043D02*X97709D01*
X97209Y211043D02*Y207043D01*
X84307Y217329D02*X85807D01*
X83807Y217829D02*X84307Y217329D01*
X83807Y220829D02*Y217829D01*
Y220829D02*X84307Y221329D01*
X85807D01*
X87508Y217329D02*X88508D01*
X88008Y221329D02*Y217329D01*
X87008Y220329D02*X88008Y221329D01*
X90209Y217329D02*X91209D01*
X90709Y221329D02*Y217329D01*
X89709Y220329D02*X90709Y221329D01*
X116893Y214043D02*X118393D01*
X116393Y214543D02*X116893Y214043D01*
X116393Y217543D02*Y214543D01*
Y217543D02*X116893Y218043D01*
X118393D01*
X120094Y214043D02*X121094D01*
X120594Y218043D02*Y214043D01*
X119594Y217043D02*X120594Y218043D01*
X122295Y214543D02*X122795Y214043D01*
X122295Y217543D02*Y214543D01*
Y217543D02*X122795Y218043D01*
X123795D01*
X124295Y217543D01*
Y214543D01*
X123795Y214043D02*X124295Y214543D01*
X122795Y214043D02*X123795D01*
X122295Y215043D02*X124295Y217043D01*
X199500Y139500D02*X203000D01*
X203500Y140000D01*
Y141000D02*Y140000D01*
Y141000D02*X203000Y141500D01*
X199500D02*X203000D01*
X203500Y144201D02*Y143201D01*
X199500Y143701D02*X203500D01*
X200500Y142701D02*X199500Y143701D01*
X203500Y145402D02*X201000Y147902D01*
X199500D02*X201000D01*
X199500D02*Y145402D01*
X262850Y103150D02*X264350D01*
X262350Y103650D02*X262850Y103150D01*
X262350Y106650D02*Y103650D01*
Y106650D02*X262850Y107150D01*
X264350D01*
X265551Y106650D02*X266051Y107150D01*
X267051D01*
X267551Y106650D01*
Y103650D01*
X267051Y103150D02*X267551Y103650D01*
X266051Y103150D02*X267051D01*
X265551Y103650D02*X266051Y103150D01*
Y105150D02*X267551D01*
X268752Y106650D02*X269252Y107150D01*
X270752D01*
X271252Y106650D01*
Y105650D01*
X268752Y103150D02*X271252Y105650D01*
X268752Y103150D02*X271252D01*
X263671Y120893D02*Y119393D01*
X263171Y118893D02*X263671Y119393D01*
X260171Y118893D02*X263171D01*
X260171D02*X259671Y119393D01*
Y120893D02*Y119393D01*
X260171Y122094D02*X259671Y122594D01*
Y123594D02*Y122594D01*
Y123594D02*X260171Y124094D01*
X263171D01*
X263671Y123594D02*X263171Y124094D01*
X263671Y123594D02*Y122594D01*
X263171Y122094D02*X263671Y122594D01*
X261671Y124094D02*Y122594D01*
X263171Y125295D02*X263671Y125795D01*
X260171Y125295D02*X263171D01*
X260171D02*X259671Y125795D01*
Y126795D02*Y125795D01*
Y126795D02*X260171Y127295D01*
X263171D01*
X263671Y126795D02*X263171Y127295D01*
X263671Y126795D02*Y125795D01*
X262671Y125295D02*X260671Y127295D01*
X158000Y115500D02*Y114000D01*
X157500Y113500D02*X158000Y114000D01*
X154500Y113500D02*X157500D01*
X154500D02*X154000Y114000D01*
Y115500D02*Y114000D01*
X154500Y116701D02*X157500D01*
X154500D02*X154000Y117201D01*
Y118201D02*Y117201D01*
Y118201D02*X154500Y118701D01*
X157500D01*
X158000Y118201D02*X157500Y118701D01*
X158000Y118201D02*Y117201D01*
X157500Y116701D02*X158000Y117201D01*
X154000Y119902D02*X158000D01*
X154000D02*X154500D01*
X157000Y122402D01*
X154000D02*X158000D01*
X154000Y123603D02*X158000D01*
X154000D02*X154500D01*
X157000Y126103D01*
X154000D02*X158000D01*
X154500Y127304D02*X154000Y127804D01*
Y128804D02*Y127804D01*
Y128804D02*X154500Y129304D01*
X157500D01*
X158000Y128804D02*X157500Y129304D01*
X158000Y128804D02*Y127804D01*
X157500Y127304D02*X158000Y127804D01*
X156000Y129304D02*Y127804D01*
X173850Y144350D02*Y142350D01*
Y144350D02*X174350Y144850D01*
X175350D01*
X175850Y144350D02*X175350Y144850D01*
X175850Y144350D02*Y142850D01*
X173850D02*X177850D01*
X175850D02*X177850Y144850D01*
X174350Y146051D02*X173850Y146551D01*
Y148051D02*Y146551D01*
Y148051D02*X174350Y148551D01*
X175350D01*
X177850Y146051D02*X175350Y148551D01*
X177850D02*Y146051D01*
X173850Y151252D02*X174350Y151752D01*
X173850Y151252D02*Y150252D01*
X174350Y149752D02*X173850Y150252D01*
X174350Y149752D02*X177350D01*
X177850Y150252D01*
X175850Y151252D02*X176350Y151752D01*
X175850Y151252D02*Y149752D01*
X177850Y151252D02*Y150252D01*
Y151252D02*X177350Y151752D01*
X176350D02*X177350D01*
X187000Y144500D02*Y141000D01*
X187500Y140500D01*
X188500D01*
X189000Y141000D01*
Y144500D02*Y141000D01*
X190701Y140500D02*X191701D01*
X191201Y144500D02*Y140500D01*
X190201Y143500D02*X191201Y144500D01*
X194402D02*X194902Y144000D01*
X193402Y144500D02*X194402D01*
X192902Y144000D02*X193402Y144500D01*
X192902Y144000D02*Y141000D01*
X193402Y140500D01*
X194402Y142500D02*X194902Y142000D01*
X192902Y142500D02*X194402D01*
X193402Y140500D02*X194402D01*
X194902Y141000D01*
Y142000D02*Y141000D01*
X144000Y144000D02*Y140500D01*
X144500Y140000D01*
X145500D01*
X146000Y140500D01*
Y144000D02*Y140500D01*
X147701Y140000D02*X148701D01*
X148201Y144000D02*Y140000D01*
X147201Y143000D02*X148201Y144000D01*
X149902D02*X151902D01*
X149902D02*Y142000D01*
X150402Y142500D01*
X151402D01*
X151902Y142000D01*
Y140500D01*
X151402Y140000D02*X151902Y140500D01*
X150402Y140000D02*X151402D01*
X149902Y140500D02*X150402Y140000D01*
X352500Y141100D02*Y137100D01*
X354000Y141100D02*X354500Y140600D01*
Y137600D01*
X354000Y137100D02*X354500Y137600D01*
X352000Y137100D02*X354000D01*
X352000Y141100D02*X354000D01*
X355701Y140600D02*X356201Y141100D01*
X357701D01*
X358201Y140600D01*
Y139600D01*
X355701Y137100D02*X358201Y139600D01*
X355701Y137100D02*X358201D01*
X359902D02*X360902D01*
X360402Y141100D02*Y137100D01*
X359402Y140100D02*X360402Y141100D01*
X362103Y139100D02*X364103Y141100D01*
X362103Y139100D02*X364603D01*
X364103Y141100D02*Y137100D01*
X384000Y139500D02*Y135500D01*
Y139500D02*X386000D01*
X384000Y137500D02*X385500D01*
X387201Y139000D02*X387701Y139500D01*
X389201D01*
X389701Y139000D01*
Y138000D01*
X387201Y135500D02*X389701Y138000D01*
X387201Y135500D02*X389701D01*
X390902Y136000D02*X391402Y135500D01*
X390902Y139000D02*Y136000D01*
Y139000D02*X391402Y139500D01*
X392402D01*
X392902Y139000D01*
Y136000D01*
X392402Y135500D02*X392902Y136000D01*
X391402Y135500D02*X392402D01*
X390902Y136500D02*X392902Y138500D01*
X394103Y136000D02*X394603Y135500D01*
X394103Y139000D02*Y136000D01*
Y139000D02*X394603Y139500D01*
X395603D01*
X396103Y139000D01*
Y136000D01*
X395603Y135500D02*X396103Y136000D01*
X394603Y135500D02*X395603D01*
X394103Y136500D02*X396103Y138500D01*
X326350Y157150D02*X328350D01*
X328850Y156650D01*
Y155650D01*
X328350Y155150D02*X328850Y155650D01*
X326850Y155150D02*X328350D01*
X326850Y157150D02*Y153150D01*
Y155150D02*X328850Y153150D01*
X330051Y157150D02*X332051D01*
X330051D02*Y155150D01*
X330551Y155650D01*
X331551D01*
X332051Y155150D01*
Y153650D01*
X331551Y153150D02*X332051Y153650D01*
X330551Y153150D02*X331551D01*
X330051Y153650D02*X330551Y153150D01*
X333252Y153650D02*X333752Y153150D01*
X333252Y156650D02*Y153650D01*
Y156650D02*X333752Y157150D01*
X334752D01*
X335252Y156650D01*
Y153650D01*
X334752Y153150D02*X335252Y153650D01*
X333752Y153150D02*X334752D01*
X333252Y154150D02*X335252Y156150D01*
X328000Y96500D02*X329500D01*
X327500Y97000D02*X328000Y96500D01*
X327500Y100000D02*Y97000D01*
Y100000D02*X328000Y100500D01*
X329500D01*
X330701Y100000D02*Y97000D01*
Y100000D02*X331201Y100500D01*
X332201D01*
X332701Y100000D01*
Y97000D01*
X332201Y96500D02*X332701Y97000D01*
X331201Y96500D02*X332201D01*
X330701Y97000D02*X331201Y96500D01*
X333902Y100500D02*Y96500D01*
Y100500D02*Y100000D01*
X336402Y97500D01*
Y100500D02*Y96500D01*
X337603Y100500D02*Y96500D01*
Y100500D02*Y100000D01*
X340103Y97500D01*
Y100500D02*Y96500D01*
X341804D02*X342804D01*
X342304Y100500D02*Y96500D01*
X341304Y99500D02*X342304Y100500D01*
X344005Y97000D02*X344505Y96500D01*
X344005Y100000D02*Y97000D01*
Y100000D02*X344505Y100500D01*
X345505D01*
X346005Y100000D01*
Y97000D01*
X345505Y96500D02*X346005Y97000D01*
X344505Y96500D02*X345505D01*
X344005Y97500D02*X346005Y99500D01*
X297800Y123290D02*Y119405D01*
X298355Y118850D01*
X299465D01*
X300020Y119405D01*
Y123290D02*Y119405D01*
X301908Y118850D02*X303018D01*
X302463Y123290D02*Y118850D01*
X301353Y122180D02*X302463Y123290D01*
X304351Y118850D02*X306571Y121070D01*
Y122735D02*Y121070D01*
X306016Y123290D02*X306571Y122735D01*
X304906Y123290D02*X306016D01*
X304351Y122735D02*X304906Y123290D01*
X304351Y122735D02*Y121625D01*
X304906Y121070D01*
X306571D01*
X289893Y133043D02*X291393D01*
X289393Y133543D02*X289893Y133043D01*
X289393Y136543D02*Y133543D01*
Y136543D02*X289893Y137043D01*
X291393D01*
X292594Y136543D02*X293094Y137043D01*
X294094D01*
X294594Y136543D01*
Y133543D01*
X294094Y133043D02*X294594Y133543D01*
X293094Y133043D02*X294094D01*
X292594Y133543D02*X293094Y133043D01*
Y135043D02*X294594D01*
X296295Y133043D02*X297295D01*
X296795Y137043D02*Y133043D01*
X295795Y136043D02*X296795Y137043D01*
X377393Y149043D02*X378893D01*
X376893Y149543D02*X377393Y149043D01*
X376893Y152543D02*Y149543D01*
Y152543D02*X377393Y153043D01*
X378893D01*
X380094Y151043D02*X382094Y153043D01*
X380094Y151043D02*X382594D01*
X382094Y153043D02*Y149043D01*
X384295D02*X385295D01*
X384795Y153043D02*Y149043D01*
X383795Y152043D02*X384795Y153043D01*
X346000Y183500D02*Y183000D01*
X348500Y180500D01*
Y179500D01*
X346000Y180500D02*Y179500D01*
Y180500D02*X348500Y183000D01*
Y183500D02*Y183000D01*
X349701D02*X350201Y183500D01*
X351701D01*
X352201Y183000D01*
Y182000D01*
X349701Y179500D02*X352201Y182000D01*
X349701Y179500D02*X352201D01*
X353402Y180000D02*X353902Y179500D01*
X353402Y183000D02*Y180000D01*
Y183000D02*X353902Y183500D01*
X354902D01*
X355402Y183000D01*
Y180000D01*
X354902Y179500D02*X355402Y180000D01*
X353902Y179500D02*X354902D01*
X353402Y180500D02*X355402Y182500D01*
X357103Y179500D02*X358103D01*
X357603Y183500D02*Y179500D01*
X356603Y182500D02*X357603Y183500D01*
X302850Y206650D02*X304850D01*
X305350Y206150D01*
Y205150D01*
X304850Y204650D02*X305350Y205150D01*
X303350Y204650D02*X304850D01*
X303350Y206650D02*Y202650D01*
Y204650D02*X305350Y202650D01*
X306551Y206150D02*X307051Y206650D01*
X308551D01*
X309051Y206150D01*
Y205150D01*
X306551Y202650D02*X309051Y205150D01*
X306551Y202650D02*X309051D01*
X310252Y203150D02*X310752Y202650D01*
X310252Y206150D02*Y203150D01*
Y206150D02*X310752Y206650D01*
X311752D01*
X312252Y206150D01*
Y203150D01*
X311752Y202650D02*X312252Y203150D01*
X310752Y202650D02*X311752D01*
X310252Y203650D02*X312252Y205650D01*
X313453Y203150D02*X313953Y202650D01*
X313453Y204150D02*Y203150D01*
Y204150D02*X313953Y204650D01*
X314953D01*
X315453Y204150D01*
Y203150D01*
X314953Y202650D02*X315453Y203150D01*
X313953Y202650D02*X314953D01*
X313453Y205150D02*X313953Y204650D01*
X313453Y206150D02*Y205150D01*
Y206150D02*X313953Y206650D01*
X314953D01*
X315453Y206150D01*
Y205150D01*
X314953Y204650D02*X315453Y205150D01*
X323530Y225500D02*Y222500D01*
Y225500D02*X324030Y226000D01*
X325030D01*
X325530Y225500D01*
Y222500D01*
X325030Y222000D02*X325530Y222500D01*
X324030Y222000D02*X325030D01*
X323530Y222500D02*X324030Y222000D01*
X324530Y223000D02*X325530Y222000D01*
X326731Y225500D02*X327231Y226000D01*
X328731D01*
X329231Y225500D01*
Y224500D01*
X326731Y222000D02*X329231Y224500D01*
X326731Y222000D02*X329231D01*
X330432Y222500D02*X330932Y222000D01*
X330432Y225500D02*Y222500D01*
Y225500D02*X330932Y226000D01*
X331932D01*
X332432Y225500D01*
Y222500D01*
X331932Y222000D02*X332432Y222500D01*
X330932Y222000D02*X331932D01*
X330432Y223000D02*X332432Y225000D01*
X334133Y222000D02*X335133D01*
X334633Y226000D02*Y222000D01*
X333633Y225000D02*X334633Y226000D01*
X275530D02*Y223000D01*
Y226000D02*X276030Y226500D01*
X277030D01*
X277530Y226000D01*
Y223000D01*
X277030Y222500D02*X277530Y223000D01*
X276030Y222500D02*X277030D01*
X275530Y223000D02*X276030Y222500D01*
X276530Y223500D02*X277530Y222500D01*
X278731Y226000D02*X279231Y226500D01*
X280731D01*
X281231Y226000D01*
Y225000D01*
X278731Y222500D02*X281231Y225000D01*
X278731Y222500D02*X281231D01*
X282432Y223000D02*X282932Y222500D01*
X282432Y226000D02*Y223000D01*
Y226000D02*X282932Y226500D01*
X283932D01*
X284432Y226000D01*
Y223000D01*
X283932Y222500D02*X284432Y223000D01*
X282932Y222500D02*X283932D01*
X282432Y223500D02*X284432Y225500D01*
X285633Y223000D02*X286133Y222500D01*
X285633Y226000D02*Y223000D01*
Y226000D02*X286133Y226500D01*
X287133D01*
X287633Y226000D01*
Y223000D01*
X287133Y222500D02*X287633Y223000D01*
X286133Y222500D02*X287133D01*
X285633Y223500D02*X287633Y225500D01*
X337350Y206650D02*X339350D01*
X339850Y206150D01*
Y205150D01*
X339350Y204650D02*X339850Y205150D01*
X337850Y204650D02*X339350D01*
X337850Y206650D02*Y202650D01*
Y204650D02*X339850Y202650D01*
X341051Y206150D02*X341551Y206650D01*
X343051D01*
X343551Y206150D01*
Y205150D01*
X341051Y202650D02*X343551Y205150D01*
X341051Y202650D02*X343551D01*
X344752Y203150D02*X345252Y202650D01*
X344752Y206150D02*Y203150D01*
Y206150D02*X345252Y206650D01*
X346252D01*
X346752Y206150D01*
Y203150D01*
X346252Y202650D02*X346752Y203150D01*
X345252Y202650D02*X346252D01*
X344752Y203650D02*X346752Y205650D01*
X347953Y202650D02*X350453Y205150D01*
Y206650D02*Y205150D01*
X347953Y206650D02*X350453D01*
X364000Y189000D02*Y188500D01*
X366500Y186000D01*
Y185000D01*
X364000Y186000D02*Y185000D01*
Y186000D02*X366500Y188500D01*
Y189000D02*Y188500D01*
X367701D02*X368201Y189000D01*
X369701D01*
X370201Y188500D01*
Y187500D01*
X367701Y185000D02*X370201Y187500D01*
X367701Y185000D02*X370201D01*
X371402Y185500D02*X371902Y185000D01*
X371402Y188500D02*Y185500D01*
Y188500D02*X371902Y189000D01*
X372902D01*
X373402Y188500D01*
Y185500D01*
X372902Y185000D02*X373402Y185500D01*
X371902Y185000D02*X372902D01*
X371402Y186000D02*X373402Y188000D01*
X374603Y188500D02*X375103Y189000D01*
X376603D01*
X377103Y188500D01*
Y187500D01*
X374603Y185000D02*X377103Y187500D01*
X374603Y185000D02*X377103D01*
X389850Y197650D02*X391350D01*
X389350Y198150D02*X389850Y197650D01*
X389350Y201150D02*Y198150D01*
Y201150D02*X389850Y201650D01*
X391350D01*
X392551Y199650D02*X394551Y201650D01*
X392551Y199650D02*X395051D01*
X394551Y201650D02*Y197650D01*
X396252Y198150D02*X396752Y197650D01*
X396252Y201150D02*Y198150D01*
Y201150D02*X396752Y201650D01*
X397752D01*
X398252Y201150D01*
Y198150D01*
X397752Y197650D02*X398252Y198150D01*
X396752Y197650D02*X397752D01*
X396252Y198650D02*X398252Y200650D01*
X372807Y197757D02*X374307D01*
X372307Y198257D02*X372807Y197757D01*
X372307Y201257D02*Y198257D01*
Y201257D02*X372807Y201757D01*
X374307D01*
X375508Y199757D02*X377508Y201757D01*
X375508Y199757D02*X378008D01*
X377508Y201757D02*Y197757D01*
X379209Y201257D02*X379709Y201757D01*
X381209D01*
X381709Y201257D01*
Y200257D01*
X379209Y197757D02*X381709Y200257D01*
X379209Y197757D02*X381709D01*
X78504Y364410D02*X80004D01*
X78004Y364910D02*X78504Y364410D01*
X78004Y367910D02*Y364910D01*
Y367910D02*X78504Y368410D01*
X80004D01*
X81205Y367910D02*Y364910D01*
Y367910D02*X81705Y368410D01*
X82705D01*
X83205Y367910D01*
Y364910D01*
X82705Y364410D02*X83205Y364910D01*
X81705Y364410D02*X82705D01*
X81205Y364910D02*X81705Y364410D01*
X84406Y368410D02*Y364410D01*
Y368410D02*Y367910D01*
X86906Y365410D01*
Y368410D02*Y364410D01*
X88107Y368410D02*Y364410D01*
Y368410D02*Y367910D01*
X90607Y365410D01*
Y368410D02*Y364410D01*
X91808Y368410D02*X93808D01*
X91808D02*Y366410D01*
X92308Y366910D01*
X93308D01*
X93808Y366410D01*
Y364910D01*
X93308Y364410D02*X93808Y364910D01*
X92308Y364410D02*X93308D01*
X91808Y364910D02*X92308Y364410D01*
X117850Y361150D02*X119850D01*
X120350Y360650D01*
Y359650D01*
X119850Y359150D02*X120350Y359650D01*
X118350Y359150D02*X119850D01*
X118350Y361150D02*Y357150D01*
Y359150D02*X120350Y357150D01*
X121551Y359150D02*X123551Y361150D01*
X121551Y359150D02*X124051D01*
X123551Y361150D02*Y357150D01*
X125252D02*X127252Y359150D01*
Y360650D02*Y359150D01*
X126752Y361150D02*X127252Y360650D01*
X125752Y361150D02*X126752D01*
X125252Y360650D02*X125752Y361150D01*
X125252Y360650D02*Y359650D01*
X125752Y359150D01*
X127252D01*
X112350Y356150D02*X114350D01*
X114850Y355650D01*
Y354650D01*
X114350Y354150D02*X114850Y354650D01*
X112850Y354150D02*X114350D01*
X112850Y356150D02*Y352150D01*
Y354150D02*X114850Y352150D01*
X116051Y354150D02*X118051Y356150D01*
X116051Y354150D02*X118551D01*
X118051Y356150D02*Y352150D01*
X119752D02*X122252Y354650D01*
Y356150D02*Y354650D01*
X119752Y356150D02*X122252D01*
X131000Y326800D02*Y322800D01*
X132500Y326800D02*X133000Y326300D01*
Y323300D01*
X132500Y322800D02*X133000Y323300D01*
X130500Y322800D02*X132500D01*
X130500Y326800D02*X132500D01*
X134701Y322800D02*X135701D01*
X135201Y326800D02*Y322800D01*
X134201Y325800D02*X135201Y326800D01*
X138350Y323650D02*X139850D01*
X137850Y324150D02*X138350Y323650D01*
X137850Y327150D02*Y324150D01*
Y327150D02*X138350Y327650D01*
X139850D01*
X141051Y327150D02*X141551Y327650D01*
X143051D01*
X143551Y327150D01*
Y326150D01*
X141051Y323650D02*X143551Y326150D01*
X141051Y323650D02*X143551D01*
X110436Y363436D02*X111936D01*
X109936Y363936D02*X110436Y363436D01*
X109936Y366936D02*Y363936D01*
Y366936D02*X110436Y367436D01*
X111936D01*
X113137Y363936D02*X113637Y363436D01*
X113137Y364936D02*Y363936D01*
Y364936D02*X113637Y365436D01*
X114637D01*
X115137Y364936D01*
Y363936D01*
X114637Y363436D02*X115137Y363936D01*
X113637Y363436D02*X114637D01*
X113137Y365936D02*X113637Y365436D01*
X113137Y366936D02*Y365936D01*
Y366936D02*X113637Y367436D01*
X114637D01*
X115137Y366936D01*
Y365936D01*
X114637Y365436D02*X115137Y365936D01*
X182000Y411000D02*Y407000D01*
X183500Y411000D02*X184000Y410500D01*
Y407500D01*
X183500Y407000D02*X184000Y407500D01*
X181500Y407000D02*X183500D01*
X181500Y411000D02*X183500D01*
X185201D02*Y407000D01*
X187201D01*
X188402Y409000D02*X189902D01*
X188402Y407000D02*X190402D01*
X188402Y411000D02*Y407000D01*
Y411000D02*X190402D01*
X192103D02*Y407000D01*
X193603Y411000D02*X194103Y410500D01*
Y407500D01*
X193603Y407000D02*X194103Y407500D01*
X191603Y407000D02*X193603D01*
X191603Y411000D02*X193603D01*
X195304Y410500D02*X195804Y411000D01*
X197304D01*
X197804Y410500D01*
Y409500D01*
X195304Y407000D02*X197804Y409500D01*
X195304Y407000D02*X197804D01*
X144000Y411000D02*Y407000D01*
X145500Y411000D02*X146000Y410500D01*
Y407500D01*
X145500Y407000D02*X146000Y407500D01*
X143500Y407000D02*X145500D01*
X143500Y411000D02*X145500D01*
X147201D02*Y407000D01*
X149201D01*
X150402Y409000D02*X151902D01*
X150402Y407000D02*X152402D01*
X150402Y411000D02*Y407000D01*
Y411000D02*X152402D01*
X154103D02*Y407000D01*
X155603Y411000D02*X156103Y410500D01*
Y407500D01*
X155603Y407000D02*X156103Y407500D01*
X153603Y407000D02*X155603D01*
X153603Y411000D02*X155603D01*
X157304Y410500D02*X157804Y411000D01*
X158804D01*
X159304Y410500D01*
Y407500D01*
X158804Y407000D02*X159304Y407500D01*
X157804Y407000D02*X158804D01*
X157304Y407500D02*X157804Y407000D01*
Y409000D02*X159304D01*
X221500Y410500D02*Y406500D01*
X223000Y410500D02*X223500Y410000D01*
Y407000D01*
X223000Y406500D02*X223500Y407000D01*
X221000Y406500D02*X223000D01*
X221000Y410500D02*X223000D01*
X224701D02*Y406500D01*
X226701D01*
X227902Y408500D02*X229402D01*
X227902Y406500D02*X229902D01*
X227902Y410500D02*Y406500D01*
Y410500D02*X229902D01*
X231603D02*Y406500D01*
X233103Y410500D02*X233603Y410000D01*
Y407000D01*
X233103Y406500D02*X233603Y407000D01*
X231103Y406500D02*X233103D01*
X231103Y410500D02*X233103D01*
X235304Y406500D02*X236304D01*
X235804Y410500D02*Y406500D01*
X234804Y409500D02*X235804Y410500D01*
X266000Y411500D02*Y411000D01*
X268500Y408500D01*
Y407500D01*
X266000Y408500D02*Y407500D01*
Y408500D02*X268500Y411000D01*
Y411500D02*Y411000D01*
X269701D02*X270201Y411500D01*
X271701D01*
X272201Y411000D01*
Y410000D01*
X269701Y407500D02*X272201Y410000D01*
X269701Y407500D02*X272201D01*
X273402Y408000D02*X273902Y407500D01*
X273402Y411000D02*Y408000D01*
Y411000D02*X273902Y411500D01*
X274902D01*
X275402Y411000D01*
Y408000D01*
X274902Y407500D02*X275402Y408000D01*
X273902Y407500D02*X274902D01*
X273402Y408500D02*X275402Y410500D01*
X276603Y408000D02*X277103Y407500D01*
X276603Y409000D02*Y408000D01*
Y409000D02*X277103Y409500D01*
X278103D01*
X278603Y409000D01*
Y408000D01*
X278103Y407500D02*X278603Y408000D01*
X277103Y407500D02*X278103D01*
X276603Y410000D02*X277103Y409500D01*
X276603Y411000D02*Y410000D01*
Y411000D02*X277103Y411500D01*
X278103D01*
X278603Y411000D01*
Y410000D01*
X278103Y409500D02*X278603Y410000D01*
X201457Y368393D02*Y366893D01*
X200957Y366393D02*X201457Y366893D01*
X197957Y366393D02*X200957D01*
X197957D02*X197457Y366893D01*
Y368393D02*Y366893D01*
X201457Y371094D02*Y370094D01*
X197457Y370594D02*X201457D01*
X198457Y369594D02*X197457Y370594D01*
X200957Y372295D02*X201457Y372795D01*
X199957Y372295D02*X200957D01*
X199957D02*X199457Y372795D01*
Y373795D02*Y372795D01*
Y373795D02*X199957Y374295D01*
X200957D01*
X201457Y373795D02*X200957Y374295D01*
X201457Y373795D02*Y372795D01*
X198957Y372295D02*X199457Y372795D01*
X197957Y372295D02*X198957D01*
X197957D02*X197457Y372795D01*
Y373795D02*Y372795D01*
Y373795D02*X197957Y374295D01*
X198957D01*
X199457Y373795D02*X198957Y374295D01*
X152500Y382000D02*Y381500D01*
X155000Y379000D01*
Y378000D01*
X152500Y379000D02*Y378000D01*
Y379000D02*X155000Y381500D01*
Y382000D02*Y381500D01*
X156701Y378000D02*X157701D01*
X157201Y382000D02*Y378000D01*
X156201Y381000D02*X157201Y382000D01*
X158902Y381500D02*X159402Y382000D01*
X160902D01*
X161402Y381500D01*
Y380500D01*
X158902Y378000D02*X161402Y380500D01*
X158902Y378000D02*X161402D01*
X196500Y384000D02*Y383500D01*
X199000Y381000D01*
Y380000D01*
X196500Y381000D02*Y380000D01*
Y381000D02*X199000Y383500D01*
Y384000D02*Y383500D01*
X200701Y380000D02*X201701D01*
X201201Y384000D02*Y380000D01*
X200201Y383000D02*X201201Y384000D01*
X203402Y380000D02*X204402D01*
X203902Y384000D02*Y380000D01*
X202902Y383000D02*X203902Y384000D01*
X162000Y350500D02*Y350000D01*
X164500Y347500D01*
Y346500D01*
X162000Y347500D02*Y346500D01*
Y347500D02*X164500Y350000D01*
Y350500D02*Y350000D01*
X166201Y346500D02*X167201D01*
X166701Y350500D02*Y346500D01*
X165701Y349500D02*X166701Y350500D01*
X172255Y351331D02*X174255D01*
X174755Y350831D01*
Y349831D01*
X174255Y349331D02*X174755Y349831D01*
X172755Y349331D02*X174255D01*
X172755Y351331D02*Y347331D01*
Y349331D02*X174755Y347331D01*
X176456D02*X177456D01*
X176956Y351331D02*Y347331D01*
X175956Y350331D02*X176956Y351331D01*
X179157Y347331D02*X180157D01*
X179657Y351331D02*Y347331D01*
X178657Y350331D02*X179657Y351331D01*
X151850Y327150D02*X153850D01*
X154350Y326650D01*
Y325650D01*
X153850Y325150D02*X154350Y325650D01*
X152350Y325150D02*X153850D01*
X152350Y327150D02*Y323150D01*
Y325150D02*X154350Y323150D01*
X155551D02*X157551Y325150D01*
Y326650D02*Y325150D01*
X157051Y327150D02*X157551Y326650D01*
X156051Y327150D02*X157051D01*
X155551Y326650D02*X156051Y327150D01*
X155551Y326650D02*Y325650D01*
X156051Y325150D01*
X157551D01*
X171850Y345150D02*X173850D01*
X174350Y344650D01*
Y343650D01*
X173850Y343150D02*X174350Y343650D01*
X172350Y343150D02*X173850D01*
X172350Y345150D02*Y341150D01*
Y343150D02*X174350Y341150D01*
X176051D02*X177051D01*
X176551Y345150D02*Y341150D01*
X175551Y344150D02*X176551Y345150D01*
X178252Y341650D02*X178752Y341150D01*
X178252Y344650D02*Y341650D01*
Y344650D02*X178752Y345150D01*
X179752D01*
X180252Y344650D01*
Y341650D01*
X179752Y341150D02*X180252Y341650D01*
X178752Y341150D02*X179752D01*
X178252Y342150D02*X180252Y344150D01*
X171850Y339650D02*X173850D01*
X174350Y339150D01*
Y338150D01*
X173850Y337650D02*X174350Y338150D01*
X172350Y337650D02*X173850D01*
X172350Y339650D02*Y335650D01*
Y337650D02*X174350Y335650D01*
X175551Y336150D02*X176051Y335650D01*
X175551Y337150D02*Y336150D01*
Y337150D02*X176051Y337650D01*
X177051D01*
X177551Y337150D01*
Y336150D01*
X177051Y335650D02*X177551Y336150D01*
X176051Y335650D02*X177051D01*
X175551Y338150D02*X176051Y337650D01*
X175551Y339150D02*Y338150D01*
Y339150D02*X176051Y339650D01*
X177051D01*
X177551Y339150D01*
Y338150D01*
X177051Y337650D02*X177551Y338150D01*
X260807Y274757D02*X262307D01*
X260307Y275257D02*X260807Y274757D01*
X260307Y278257D02*Y275257D01*
Y278257D02*X260807Y278757D01*
X262307D01*
X263508Y278257D02*X264008Y278757D01*
X265008D01*
X265508Y278257D01*
Y275257D01*
X265008Y274757D02*X265508Y275257D01*
X264008Y274757D02*X265008D01*
X263508Y275257D02*X264008Y274757D01*
Y276757D02*X265508D01*
X266709D02*X268709Y278757D01*
X266709Y276757D02*X269209D01*
X268709Y278757D02*Y274757D01*
X119414Y274786D02*X120914D01*
X118914Y275286D02*X119414Y274786D01*
X118914Y278286D02*Y275286D01*
Y278286D02*X119414Y278786D01*
X120914D01*
X122615Y274786D02*X123615D01*
X123115Y278786D02*Y274786D01*
X122115Y277786D02*X123115Y278786D01*
X124816Y276786D02*X126816Y278786D01*
X124816Y276786D02*X127316D01*
X126816Y278786D02*Y274786D01*
X220743Y302893D02*Y301393D01*
X220243Y300893D02*X220743Y301393D01*
X217243Y300893D02*X220243D01*
X217243D02*X216743Y301393D01*
Y302893D02*Y301393D01*
X220743Y305594D02*Y304594D01*
X216743Y305094D02*X220743D01*
X217743Y304094D02*X216743Y305094D01*
X220743Y306795D02*X218243Y309295D01*
X216743D02*X218243D01*
X216743D02*Y306795D01*
X155850Y291650D02*X157850D01*
X158350Y291150D01*
Y290150D01*
X157850Y289650D02*X158350Y290150D01*
X156350Y289650D02*X157850D01*
X156350Y291650D02*Y287650D01*
Y289650D02*X158350Y287650D01*
X161051Y291650D02*X161551Y291150D01*
X160051Y291650D02*X161051D01*
X159551Y291150D02*X160051Y291650D01*
X159551Y291150D02*Y288150D01*
X160051Y287650D01*
X161051Y289650D02*X161551Y289150D01*
X159551Y289650D02*X161051D01*
X160051Y287650D02*X161051D01*
X161551Y288150D01*
Y289150D02*Y288150D01*
X197700Y298500D02*X201700D01*
X197700Y300000D02*X198200Y300500D01*
X201200D01*
X201700Y300000D02*X201200Y300500D01*
X201700Y300000D02*Y298000D01*
X197700Y300000D02*Y298000D01*
Y303701D02*Y301701D01*
X199700D01*
X199200Y302201D01*
Y303201D02*Y302201D01*
Y303201D02*X199700Y303701D01*
X201200D01*
X201700Y303201D02*X201200Y303701D01*
X201700Y303201D02*Y302201D01*
X201200Y301701D02*X201700Y302201D01*
X162500Y267500D02*Y267000D01*
X165000Y264500D01*
Y263500D01*
X162500Y264500D02*Y263500D01*
Y264500D02*X165000Y267000D01*
Y267500D02*Y267000D01*
X166201Y264000D02*X166701Y263500D01*
X166201Y265000D02*Y264000D01*
Y265000D02*X166701Y265500D01*
X167701D01*
X168201Y265000D01*
Y264000D01*
X167701Y263500D02*X168201Y264000D01*
X166701Y263500D02*X167701D01*
X166201Y266000D02*X166701Y265500D01*
X166201Y267000D02*Y266000D01*
Y267000D02*X166701Y267500D01*
X167701D01*
X168201Y267000D01*
Y266000D01*
X167701Y265500D02*X168201Y266000D01*
X137000Y307500D02*Y307000D01*
X139500Y304500D01*
Y303500D01*
X137000Y304500D02*Y303500D01*
Y304500D02*X139500Y307000D01*
Y307500D02*Y307000D01*
X140701D02*X141201Y307500D01*
X142701D01*
X143201Y307000D01*
Y306000D01*
X140701Y303500D02*X143201Y306000D01*
X140701Y303500D02*X143201D01*
X154350Y302150D02*X156350D01*
X156850Y301650D01*
Y300650D01*
X156350Y300150D02*X156850Y300650D01*
X154850Y300150D02*X156350D01*
X154850Y302150D02*Y298150D01*
Y300150D02*X156850Y298150D01*
X158051D02*X160551Y300650D01*
Y302150D02*Y300650D01*
X158051Y302150D02*X160551D01*
X105893Y305043D02*X107393D01*
X105393Y305543D02*X105893Y305043D01*
X105393Y308543D02*Y305543D01*
Y308543D02*X105893Y309043D01*
X107393D01*
X108594Y308543D02*X109094Y309043D01*
X110594D01*
X111094Y308543D01*
Y307543D01*
X108594Y305043D02*X111094Y307543D01*
X108594Y305043D02*X111094D01*
X112295Y309043D02*X114295D01*
X112295D02*Y307043D01*
X112795Y307543D01*
X113795D01*
X114295Y307043D01*
Y305543D01*
X113795Y305043D02*X114295Y305543D01*
X112795Y305043D02*X113795D01*
X112295Y305543D02*X112795Y305043D01*
X104807Y295257D02*X106307D01*
X104307Y295757D02*X104807Y295257D01*
X104307Y298757D02*Y295757D01*
Y298757D02*X104807Y299257D01*
X106307D01*
X108008Y295257D02*X109008D01*
X108508Y299257D02*Y295257D01*
X107508Y298257D02*X108508Y299257D01*
X110209D02*X112209D01*
X110209D02*Y297257D01*
X110709Y297757D01*
X111709D01*
X112209Y297257D01*
Y295757D01*
X111709Y295257D02*X112209Y295757D01*
X110709Y295257D02*X111709D01*
X110209Y295757D02*X110709Y295257D01*
X101850Y304150D02*X103850D01*
X104350Y303650D01*
Y302650D01*
X103850Y302150D02*X104350Y302650D01*
X102350Y302150D02*X103850D01*
X102350Y304150D02*Y300150D01*
Y302150D02*X104350Y300150D01*
X105551Y302150D02*X107551Y304150D01*
X105551Y302150D02*X108051D01*
X107551Y304150D02*Y300150D01*
X109252Y300650D02*X109752Y300150D01*
X109252Y301650D02*Y300650D01*
Y301650D02*X109752Y302150D01*
X110752D01*
X111252Y301650D01*
Y300650D01*
X110752Y300150D02*X111252Y300650D01*
X109752Y300150D02*X110752D01*
X109252Y302650D02*X109752Y302150D01*
X109252Y303650D02*Y302650D01*
Y303650D02*X109752Y304150D01*
X110752D01*
X111252Y303650D01*
Y302650D01*
X110752Y302150D02*X111252Y302650D01*
X78350Y235850D02*Y233850D01*
Y235850D02*X78850Y236350D01*
X79850D01*
X80350Y235850D02*X79850Y236350D01*
X80350Y235850D02*Y234350D01*
X78350D02*X82350D01*
X80350D02*X82350Y236350D01*
X78850Y237551D02*X78350Y238051D01*
Y239551D02*Y238051D01*
Y239551D02*X78850Y240051D01*
X79850D01*
X82350Y237551D02*X79850Y240051D01*
X82350D02*Y237551D01*
X78850Y241252D02*X78350Y241752D01*
Y242752D02*Y241752D01*
Y242752D02*X78850Y243252D01*
X81850D01*
X82350Y242752D02*X81850Y243252D01*
X82350Y242752D02*Y241752D01*
X81850Y241252D02*X82350Y241752D01*
X80350Y243252D02*Y241752D01*
X110700Y265000D02*Y263500D01*
X110200Y263000D02*X110700Y263500D01*
X107200Y263000D02*X110200D01*
X107200D02*X106700Y263500D01*
Y265000D02*Y263500D01*
X107200Y266201D02*X106700Y266701D01*
Y268201D02*Y266701D01*
Y268201D02*X107200Y268701D01*
X108200D01*
X110700Y266201D02*X108200Y268701D01*
X110700D02*Y266201D01*
Y271402D02*Y270402D01*
X106700Y270902D02*X110700D01*
X107700Y269902D02*X106700Y270902D01*
X223957Y221807D02*Y220307D01*
X223457Y219807D02*X223957Y220307D01*
X220457Y219807D02*X223457D01*
X220457D02*X219957Y220307D01*
Y221807D02*Y220307D01*
X220457Y223008D02*X219957Y223508D01*
Y225008D02*Y223508D01*
Y225008D02*X220457Y225508D01*
X221457D01*
X223957Y223008D02*X221457Y225508D01*
X223957D02*Y223008D01*
Y226709D02*X221957Y228709D01*
X220457D02*X221957D01*
X219957Y228209D02*X220457Y228709D01*
X219957Y228209D02*Y227209D01*
X220457Y226709D02*X219957Y227209D01*
X220457Y226709D02*X221457D01*
X221957Y227209D01*
Y228709D02*Y227209D01*
X223350Y247222D02*X224850D01*
X222850Y247722D02*X223350Y247222D01*
X222850Y250722D02*Y247722D01*
Y250722D02*X223350Y251222D01*
X224850D01*
X226051Y250722D02*X226551Y251222D01*
X228051D01*
X228551Y250722D01*
Y249722D01*
X226051Y247222D02*X228551Y249722D01*
X226051Y247222D02*X228551D01*
X229752Y247722D02*X230252Y247222D01*
X229752Y248722D02*Y247722D01*
Y248722D02*X230252Y249222D01*
X231252D01*
X231752Y248722D01*
Y247722D01*
X231252Y247222D02*X231752Y247722D01*
X230252Y247222D02*X231252D01*
X229752Y249722D02*X230252Y249222D01*
X229752Y250722D02*Y249722D01*
Y250722D02*X230252Y251222D01*
X231252D01*
X231752Y250722D01*
Y249722D01*
X231252Y249222D02*X231752Y249722D01*
X236000Y219000D02*Y218500D01*
X238500Y216000D01*
Y215000D01*
X236000Y216000D02*Y215000D01*
Y216000D02*X238500Y218500D01*
Y219000D02*Y218500D01*
X240201Y215000D02*X241201D01*
X240701Y219000D02*Y215000D01*
X239701Y218000D02*X240701Y219000D01*
X242402Y218500D02*X242902Y219000D01*
X243902D01*
X244402Y218500D01*
Y215500D01*
X243902Y215000D02*X244402Y215500D01*
X242902Y215000D02*X243902D01*
X242402Y215500D02*X242902Y215000D01*
Y217000D02*X244402D01*
X117000Y253500D02*Y253000D01*
X119500Y250500D01*
Y249500D01*
X117000Y250500D02*Y249500D01*
Y250500D02*X119500Y253000D01*
Y253500D02*Y253000D01*
X120701Y253500D02*X122701D01*
X120701D02*Y251500D01*
X121201Y252000D01*
X122201D01*
X122701Y251500D01*
Y250000D01*
X122201Y249500D02*X122701Y250000D01*
X121201Y249500D02*X122201D01*
X120701Y250000D02*X121201Y249500D01*
X87000Y92500D02*X416000D01*
X66000Y404500D02*Y103500D01*
X68500Y101000D02*X78500D01*
X68500Y407000D02*X78500D01*
X424500D02*X443000D01*
X445500Y404500D02*Y103500D01*
X424500Y101000D02*X443000D01*
X394500Y272000D02*X408500D01*
X87000Y415500D02*X416000D01*
X390000Y290000D02*Y276500D01*
X399000Y290000D02*Y285500D01*
X403500Y281000D02*X408500D01*
X335500Y352000D02*Y342000D01*
X349000Y346500D02*X352000D01*
X399000Y342000D02*Y333000D01*
X340000Y337500D02*X352000D01*
X385500Y346500D02*X394500D01*
X344500Y352000D02*Y351000D01*
X84500Y413000D02*G75*G02X87000Y415500I2500J0D01*G01*
X66000Y404500D02*G75*G02X68500Y407000I2500J0D01*G01*
X78500Y101000D02*G75*G02X84500Y95000I0J-6000D01*G01*
Y413000D02*G75*G02X78500Y407000I-6000J0D01*G01*
X68500Y101000D02*G75*G02X66000Y103500I0J2500D01*G01*
X87000Y92500D02*G75*G02X84500Y95000I0J2500D01*G01*
X445500Y103500D02*G75*G02X443000Y101000I-2500J0D01*G01*
X418500Y95000D02*G75*G02X416000Y92500I-2500J0D01*G01*
Y415500D02*G75*G02X418500Y413000I0J-2500D01*G01*
Y95000D02*G75*G02X424500Y101000I6000J0D01*G01*
Y407000D02*G75*G02X418500Y413000I0J6000D01*G01*
X443000Y407000D02*G75*G02X445500Y404500I0J-2500D01*G01*
X344500Y352000D02*G75*G03X340000Y356500I-4500J0D01*G01*
X335500Y342000D02*G75*G03X340000Y337500I4500J0D01*G01*
X352000D02*G75*G03X356500Y342000I0J4500D01*G01*
G75*G03X352000Y346500I-4500J0D01*G01*
X344500Y351000D02*G75*G03X349000Y346500I4500J0D01*G01*
X340000Y356500D02*G75*G03X335500Y352000I0J-4500D01*G01*
X390000Y276500D02*G75*G03X394500Y272000I4500J0D01*G01*
X399000Y290000D02*G75*G03X394500Y294500I-4500J0D01*G01*
G75*G03X390000Y290000I0J-4500D01*G01*
X399000Y285500D02*G75*G03X403500Y281000I4500J0D01*G01*
X408500Y272000D02*G75*G03X413000Y276500I0J4500D01*G01*
G75*G03X408500Y281000I-4500J0D01*G01*
X385500Y346500D02*G75*G03X381000Y342000I0J-4500D01*G01*
G75*G03X385500Y337500I4500J0D01*G01*
X399000Y342000D02*G75*G03X394500Y346500I-4500J0D01*G01*
X390000Y333000D02*G75*G03X394500Y328500I4500J0D01*G01*
G75*G03X399000Y333000I0J4500D01*G01*
X390000D02*G75*G03X385500Y337500I-4500J0D01*G01*
M02*
