G04 start of page 2 for group 0 idx 0 *
G04 Title: (unknown), component *
G04 Creator: pcb 20091103 *
G04 CreationDate: Sun Apr 13 13:29:21 2025 UTC *
G04 For: bh *
G04 Format: Gerber/RS-274X *
G04 PCB-Dimensions: 730000 950000 *
G04 PCB-Coordinate-Origin: lower left *
%MOIN*%
%FSLAX25Y25*%
%LNTOP*%
%ADD11C,0.0200*%
%ADD12C,0.0400*%
%ADD13C,0.0100*%
%ADD14C,0.0180*%
%ADD15C,0.0140*%
%ADD16C,0.0250*%
%ADD17C,0.0350*%
%ADD18C,0.0600*%
%ADD19C,0.0900*%
%ADD20C,0.0520*%
%ADD21C,0.1216*%
%ADD22C,0.1661*%
%ADD23C,0.0650*%
%ADD24C,0.0880*%
%ADD25C,0.0800*%
%ADD26C,0.1060*%
%ADD27C,0.0868*%
%ADD28C,0.0905*%
%ADD29C,0.0360*%
%ADD30R,0.0200X0.0200*%
%ADD31C,0.0160*%
%ADD32R,0.0160X0.0160*%
%ADD33R,0.0512X0.0512*%
%ADD34R,0.1400X0.1400*%
%ADD35R,0.0394X0.0394*%
%ADD36R,0.0866X0.0866*%
%ADD37R,0.1230X0.1230*%
%ADD38R,0.0340X0.0340*%
%ADD39R,0.0970X0.0970*%
%ADD40C,0.0380*%
%ADD41C,0.0220*%
%ADD42C,0.1299*%
%ADD43C,0.0672*%
%ADD44C,0.1027*%
%ADD45C,0.0430*%
%ADD46C,0.0408*%
%ADD47C,0.0709*%
%ADD48C,0.0620*%
%ADD49C,0.0418*%
%ADD50C,0.0455*%
%ADD51C,0.0300*%
%ADD52C,0.0060*%
G54D11*G36*
X440000Y282500D02*X453500D01*
Y279500D01*
X441500Y267500D01*
Y242000D01*
X424000D01*
Y266500D01*
X440000Y282500D01*
G37*
G36*
X412000Y222500D02*Y244000D01*
X454500D01*
Y222500D01*
X412000D01*
G37*
G36*
Y227000D02*X425000D01*
Y207500D01*
X412000D01*
Y227000D01*
G37*
G36*
X441500D02*X454500D01*
Y207500D01*
X441500D01*
Y227000D01*
G37*
G36*
X524500Y230000D02*Y236000D01*
X536000D01*
Y230000D01*
X524500D01*
G37*
G36*
X386500Y134000D02*X389500D01*
Y124000D01*
X390000Y123500D01*
X396500D01*
Y110500D01*
X390000D01*
X389500Y110000D01*
Y103000D01*
X386500D01*
Y134000D01*
G37*
G36*
X393000Y282500D02*X406500D01*
Y279500D01*
X394500Y267500D01*
Y242000D01*
X377000D01*
Y266500D01*
X393000Y282500D01*
G37*
G36*
X365000Y222500D02*Y244000D01*
X407500D01*
Y222500D01*
X365000D01*
G37*
G36*
Y227000D02*X378000D01*
Y207500D01*
X365000D01*
Y227000D01*
G37*
G36*
X394500D02*X407500D01*
Y207500D01*
X394500D01*
Y227000D01*
G37*
G36*
X224000Y309500D02*X203500D01*
Y317500D01*
X224000D01*
Y309500D01*
G37*
G36*
X348500Y103000D02*Y108500D01*
X389500D01*
Y103000D01*
X348500D01*
G37*
G36*
Y128000D02*Y134000D01*
X389500D01*
Y128000D01*
X348500D01*
G37*
G36*
X406000Y124500D02*Y134000D01*
X419500D01*
Y124500D01*
X406000D01*
G37*
G54D12*X221000Y403000D02*Y388500D01*
X216500Y381500D01*
X222000Y360000D02*X216500D01*
Y381500D02*Y360000D01*
Y370000D02*X204000D01*
X216500Y360000D02*X204000Y355400D01*
Y370000D02*Y355400D01*
G54D13*X222000Y354000D02*Y349650D01*
G54D12*Y360000D02*Y354000D01*
G54D14*X203905Y301381D02*Y315905D01*
X192000Y323700D02*Y301476D01*
X204000Y335700D02*X192000Y323700D01*
G54D15*X215500Y323000D02*X219850D01*
X204000Y335700D02*X215500Y323000D01*
G54D14*X225500Y329500D02*X219914D01*
G54D15*X226000Y334500D02*X227000Y333500D01*
G54D14*X204000Y335700D02*Y336000D01*
G54D13*X284405Y321181D02*Y329319D01*
G54D15*X230000Y333500D02*X228500Y320500D01*
X227000Y333500D02*X230086D01*
G54D13*X267500Y325500D02*X272595Y322181D01*
X238000Y334000D02*Y329500D01*
X234000Y323500D02*X244500Y327500D01*
X249500Y331500D01*
X235000Y305500D02*Y310700D01*
X238500Y302000D02*Y297000D01*
X237000Y295500D01*
X233500D01*
X238500Y302000D02*X235000Y305500D01*
X242500Y300500D02*Y292000D01*
X243000Y310500D02*X242800Y310700D01*
X243000Y305500D02*Y310500D01*
X238900Y318900D02*X249950D01*
X242500Y300500D02*X243000Y305500D01*
X242500Y292000D02*X244000Y290500D01*
X247500D01*
X280000Y293500D02*X284086D01*
G54D15*X266500Y292500D02*X271914D01*
X266500D02*X261500Y295500D01*
G54D13*X272595Y311681D02*X261905D01*
X285724Y313000D02*X284405Y311681D01*
X238000Y290500D02*X233500D01*
X238000Y339000D02*X232724D01*
G54D15*X229000Y349500D02*X229500Y338086D01*
G54D13*X251500Y344000D02*X244500D01*
G54D12*X233500Y360000D02*Y353500D01*
G54D15*X219595Y338819D02*X224681D01*
X226000Y337500D01*
Y334500D01*
G54D13*X246000Y359500D02*Y378000D01*
X229000Y370000D02*X226500D01*
X235500Y365000D02*Y359500D01*
Y375000D02*X240500D01*
X226500Y370000D02*X225500Y371000D01*
Y384500D01*
X246000Y378000D02*X242000Y389000D01*
G54D12*X250000Y355000D02*X250500Y354500D01*
X242500Y360000D02*Y354500D01*
X250000Y360000D02*Y355000D01*
X257500Y360000D02*Y354500D01*
X242500D02*X284500D01*
X233500Y360000D02*X284500D01*
Y354500D01*
X276000D02*Y360000D01*
X266500D02*Y354500D01*
G54D15*X314000Y404500D02*X319500Y399000D01*
X332000Y371500D02*X281500Y399000D01*
X277000Y404500D02*X314000D01*
G54D13*X260500Y370000D02*X256000D01*
G54D15*X265500Y371000D02*X264500Y370000D01*
X260500D01*
G54D13*Y375000D02*X256000D01*
X250500Y401500D02*Y395500D01*
X247500Y404500D02*X250500Y401500D01*
X227500Y404500D02*X247500D01*
G54D15*X233000Y397500D02*X265500Y383500D01*
G54D13*X250500Y395500D02*X269500Y386000D01*
X225500Y384500D02*X227500Y404500D01*
G54D15*X265500Y383500D02*Y371000D01*
G54D13*X269500Y386000D02*Y371000D01*
X270500Y370000D01*
G54D15*X290500Y384500D02*Y370500D01*
G54D13*X280000Y375000D02*X282500D01*
X285000Y377000D01*
X270500Y370000D02*X273500D01*
X280000D02*X283500D01*
X292000Y361500D01*
X280000Y365000D02*Y360000D01*
X292000Y361500D02*X306500D01*
G54D15*X285000Y377000D02*Y383000D01*
X290500Y384500D02*X271500Y399000D01*
X285000Y383000D02*X257500Y399000D01*
X271500D02*X277000Y404500D01*
G54D13*X346000Y362000D02*X341000D01*
X351500Y367000D02*X356000D01*
X365500D02*X361000D01*
G54D15*X339000Y400000D02*X346500Y407500D01*
X332000Y388000D02*X319500Y399000D01*
X336500Y380500D02*X339000Y395500D01*
Y400000D01*
G54D13*X344000Y399500D02*Y394150D01*
G54D16*X340500Y378500D02*X343000Y381000D01*
G54D13*Y384850D01*
X345150Y393000D02*X344607Y393543D01*
G54D15*X346500Y407500D02*X361000D01*
G54D13*X385064Y398000D02*X385457Y398393D01*
X392500Y405000D02*Y391500D01*
X384500Y388500D02*Y397436D01*
X385457Y398393D01*
X379000Y398000D02*X385064D01*
G54D15*X363500Y380500D02*X356000Y372000D01*
G54D13*X352000Y388000D02*X346936D01*
X352000Y393000D02*X345150D01*
G54D15*X361000Y407500D02*X363000Y403000D01*
X368000Y399500D01*
G54D13*X351500Y372000D02*X356000D01*
X372000D02*X376000D01*
G54D16*X384000D01*
X384500Y371500D01*
G54D13*X358500Y398000D02*X363000D01*
G54D15*X375000Y380500D02*X363500D01*
X375000D02*X378000Y377500D01*
X368000Y399500D02*Y394000D01*
X369000Y393000D01*
G54D13*X372500D01*
X284405Y309319D02*Y302181D01*
X312500Y339000D02*X308500D01*
X305000Y365000D02*X311936D01*
X305000Y340500D02*Y337500D01*
G54D16*X302000Y333500D02*X303000Y326000D01*
X302000Y333500D02*Y358500D01*
G54D13*X308000Y360000D02*Y355500D01*
X305000Y340500D01*
X331000Y298436D02*X331393Y298043D01*
X331000Y304000D02*Y298436D01*
G54D15*X331500Y318000D02*X336500Y323000D01*
G54D13*X360000Y293500D02*X355000D01*
X338457Y290957D02*X338500Y291000D01*
X375500Y293500D02*X381000D01*
X356000Y314000D02*X351500D01*
X356000Y319000D02*X351500D01*
X345000Y309000D02*X340500D01*
G54D12*Y378500D01*
G54D15*X336500Y323000D02*Y380500D01*
G54D12*X340500Y309000D02*X338000Y297000D01*
G54D15*X332000Y371500D02*Y358000D01*
G54D13*X345000Y335500D02*X340000D01*
X361000Y314000D02*X365500D01*
X377000Y319000D02*X372000D01*
G54D16*X356000Y330500D02*X374000D01*
X384500Y354500D02*X375500Y345500D01*
G54D13*X361000Y340500D02*X365500D01*
X372000Y345500D02*X375500D01*
X356000D02*X351500D01*
X356000Y340500D02*X351500D01*
G54D14*X378000Y357000D02*X361500D01*
X356000Y367000D01*
G54D12*X384500Y354500D02*Y388500D01*
G54D13*X290500Y106000D02*X286000D01*
Y111000D02*X290500D01*
G54D16*X295500Y112000D02*Y99500D01*
G54D13*Y121000D02*X286000D01*
X295500Y126000D02*X300000D01*
X286000D02*X290500D01*
X295500Y136000D02*X300000D01*
X286000Y116000D02*X300000D01*
G54D16*X290500Y106000D02*Y116000D01*
G54D12*X313000Y150500D02*Y99500D01*
X300500Y141500D02*X313000D01*
X300500Y150500D02*X313000D01*
Y179500D02*X322000D01*
X313000Y99500D02*X222500D01*
G54D13*X242000Y124500D02*X243500Y131000D01*
X251000Y136000D02*X247000D01*
X264000Y135500D02*X265500Y134000D01*
X272500Y134500D02*X276000Y131000D01*
X279500D01*
G54D12*X325000Y130000D02*X313000D01*
G54D13*X241500Y106000D02*X237000D01*
X262000D02*X257500D01*
X262000Y126000D02*X257500D01*
X265500Y134000D02*Y113000D01*
X262000Y121000D02*X257500D01*
X265500Y113000D02*X262000Y106000D01*
X257500Y116000D02*X262000D01*
X257500Y111000D02*X260500D01*
X262000Y121000D02*Y113500D01*
X260500Y111000D01*
X306500Y121000D02*Y116000D01*
X288500Y174500D02*Y168224D01*
X288819Y167905D02*Y167819D01*
X283500Y162500D01*
G54D15*X288500Y150500D02*Y155776D01*
G54D13*X283500Y162500D02*Y136000D01*
X258000Y151500D02*X262000Y131000D01*
X268500Y153500D02*X272000Y145500D01*
X261500Y146500D02*X264000Y135500D01*
G54D16*X265000Y147500D02*X267000Y139500D01*
G54D13*X272500D02*Y134500D01*
G54D16*X261500Y170500D02*X265000Y167000D01*
G54D13*X257500Y180500D02*X261500D01*
G54D16*Y190000D02*Y170500D01*
G54D13*X237000Y126000D02*Y116000D01*
X242000Y124500D02*Y116000D01*
X237000Y111000D01*
X227500Y129000D02*Y141500D01*
G54D12*X222500Y138500D02*Y99500D01*
G54D13*X251000Y131000D02*Y126000D01*
X227500Y129000D02*X230500Y126000D01*
X237000Y131000D02*X240000D01*
X238500Y138500D02*X237000Y136000D01*
X240000Y131000D02*X241000Y132000D01*
G54D16*X247000Y139500D02*Y99000D01*
G54D13*X202500Y144000D02*X225000D01*
G54D12*X180000Y138500D02*X222500D01*
G54D13*X225000Y144000D02*X227500Y141500D01*
X217000Y150500D02*X224000D01*
X229500Y145000D01*
G54D16*X185500Y150500D02*Y147000D01*
X187500Y145000D01*
G54D13*X185500Y155500D02*X180000D01*
X249000Y175500D02*X243000Y173500D01*
X220500Y155500D01*
X245000Y178000D02*Y182500D01*
X247000Y167000D02*X248500Y165500D01*
X251500Y185500D02*X248000D01*
X247000Y171000D02*Y167000D01*
X224000Y180500D02*X245000Y178000D01*
X238500Y158500D02*Y138500D01*
X241000Y147500D02*X242000Y155500D01*
X241000Y132000D02*Y147500D01*
X243500Y131000D02*Y145000D01*
X245500Y154000D01*
Y158500D01*
X229500Y145000D02*X234500Y140500D01*
X203650Y205500D02*X201543Y203393D01*
X202957Y222107D02*Y214457D01*
X210000Y205500D02*X203650D01*
G54D12*X234000Y214000D02*X190500D01*
G54D13*X221850Y224000D02*X210150D01*
X234500Y225500D02*X229000Y225000D01*
G54D12*X216000Y207500D02*X234000D01*
G54D16*X243000Y229000D02*Y223000D01*
G54D14*X243500Y234500D02*X234500Y225500D01*
G54D16*X243000Y223000D02*X234000Y214000D01*
X239500Y211500D02*X247500Y213500D01*
G54D13*X247000Y206500D02*X264500Y214500D01*
X262000Y217000D02*X248500Y210000D01*
X246000D01*
X241500Y206500D01*
G54D16*X258500Y220000D02*X247500Y213500D01*
G54D14*X243500Y237000D02*Y234500D01*
G54D12*X190500Y214000D02*X186000Y218500D01*
G54D14*X197000Y224000D02*Y228276D01*
G54D13*X201500Y231000D02*Y223564D01*
G54D12*X186000Y208000D02*X180000D01*
Y202000D02*X186000D01*
G54D13*X194000Y236000D02*Y240724D01*
X201500Y236000D02*X194000D01*
G54D14*X197000Y228276D02*X195181Y230095D01*
G54D12*X186000Y218500D02*Y247000D01*
G54D13*X210000Y201500D02*X202650D01*
G54D12*X180000Y298000D02*X186000D01*
X192500Y292000D02*X180000D01*
G54D16*X186000Y279000D02*X194000D01*
G54D12*X186000Y286000D02*X180000D01*
G54D16*X186000Y247000D02*X197100Y261100D01*
X186000Y274500D02*X200500D01*
G54D12*X222500Y293500D02*Y279000D01*
G54D13*X227000Y285500D02*X222500D01*
X216543Y290107D02*X222893D01*
X202500Y289000D02*X208350D01*
G54D12*X239500Y263000D02*X223500D01*
G54D13*X239500Y273500D02*X235150D01*
X233043Y271393D01*
G54D12*X223500Y263000D02*X218500Y268000D01*
G54D13*X226957Y270107D02*Y262543D01*
G54D12*X218500Y268000D02*X180000D01*
G54D13*X248000Y229000D02*X243000D01*
G54D16*X282500Y236000D02*Y225000D01*
G54D12*X260000Y196000D02*X272000D01*
X234000Y214000D02*Y201500D01*
X216000D02*Y214000D01*
X222000D02*Y201500D01*
X228000Y214000D02*Y201500D01*
X180000Y190500D02*X300500D01*
G54D16*X307500Y191000D02*X313000Y179500D01*
G54D13*X328000Y200500D02*X330000Y198500D01*
Y193500D01*
X323000Y200500D02*X328000D01*
X316500Y195500D02*X312000D01*
G54D16*X308000D01*
G54D12*X295000Y210500D02*X307500D01*
X295000Y203500D02*X307500D01*
G54D13*X292500Y224000D02*Y217500D01*
X299000Y229000D02*X302500D01*
X306000Y225500D02*X302500Y229000D01*
G54D12*X307500Y190500D02*Y217500D01*
X277000Y201500D02*X284000Y196000D01*
X307500D01*
X300500D02*Y216000D01*
X295000Y210500D02*Y196000D01*
X300000Y190500D02*X300500D01*
X234000Y196000D02*X254000D01*
X228000D02*X180000D01*
X216000Y201500D02*X277000D01*
G54D13*X194457Y202607D02*Y195543D01*
X194500Y195500D01*
G54D12*X228000Y196000D02*Y190500D01*
X210000Y196000D02*Y190500D01*
X216000Y195500D02*Y190500D01*
X222000Y196000D02*Y190500D01*
X204000Y196000D02*Y190500D01*
X186000Y208000D02*Y190500D01*
X192000Y196000D02*Y190500D01*
X198000Y196000D02*Y190500D01*
X260000D02*Y196000D01*
X266000Y190500D02*Y196000D01*
X272000Y190500D02*Y196000D01*
G54D13*X308000Y313000D02*X312500D01*
G54D12*X324500Y370000D02*Y234000D01*
G54D13*X319500D02*X324500D01*
X319500Y257500D02*X324500D01*
G54D16*X319000Y243000D02*X302500D01*
G54D13*X299000Y247500D01*
X282500Y246500D02*X279000Y249000D01*
X282500Y241000D02*Y246500D01*
X306500Y361500D02*X308000Y360000D01*
G54D12*X304500Y358000D02*X284500D01*
G54D13*X305000Y370000D02*X300500D01*
Y375000D02*X312350D01*
G54D15*X290500Y370500D02*X291000Y370000D01*
G54D13*X294000D01*
X196500Y180500D02*X206000D01*
X196500Y175500D02*X200000D01*
X201000Y174500D01*
X196500Y185500D02*X210500D01*
X185500D02*Y191000D01*
X206000Y157500D02*X212000Y155500D01*
X201000Y153500D02*X195500Y155500D01*
X217000D02*X220500D01*
X201000Y174500D02*Y161500D01*
X200000Y160500D01*
X196000D01*
X185500Y165500D02*X190000D01*
X196500Y170500D02*X201000D01*
X196500Y165500D02*X205000D01*
X212000Y150500D02*X206000Y149000D01*
X196500Y150500D02*Y145000D01*
X201000Y153500D02*Y145500D01*
X202500Y144000D01*
G54D16*X187500Y145000D02*X196500D01*
G54D13*X224000Y170500D02*X217000D01*
X224000Y175500D02*X217000D01*
Y185500D02*X221500D01*
G54D16*Y190000D02*Y185500D01*
X226500D01*
Y190500D01*
G54D13*X224000Y162500D02*X215500Y165500D01*
X261000Y170500D02*X258000D01*
Y155500D02*Y151500D01*
Y165500D02*X260500D01*
X268500Y171000D02*Y153500D01*
G54D16*X265000Y167000D02*Y147500D01*
G54D13*X260500Y165500D02*X261500Y164500D01*
X272500Y139500D02*X278500Y145500D01*
Y155500D01*
G54D12*X300500Y190500D02*Y141500D01*
G54D13*X283000Y170500D02*X278500D01*
X272000D02*Y165500D01*
X264500Y177500D02*X268500Y171000D01*
X272000Y185500D02*X267500D01*
X264500Y182500D01*
X268000Y180500D02*X272000D01*
X264500Y182500D02*Y177500D01*
X248500Y165500D02*X251500D01*
X242000Y160500D02*X238500Y158500D01*
X251500Y160500D02*X247500D01*
X245500Y158500D01*
X234500Y161000D02*X242000Y165500D01*
X234500Y145500D02*Y161000D01*
X245000Y182500D02*X248000Y185500D01*
X251500Y175500D02*X249000D01*
X261500Y164500D02*Y146500D01*
G54D12*X247000Y279000D02*Y273500D01*
X254000D01*
Y279000D01*
X180000Y138500D02*Y304000D01*
X186000D01*
Y286000D01*
X180000Y316000D02*X186500D01*
Y335500D01*
X186300Y335700D02*X204000Y355400D01*
X239500Y241000D02*Y268000D01*
G54D13*X215000Y236000D02*X222000D01*
G54D14*X234000Y241000D02*X239500D01*
G54D13*X234000D02*X228500D01*
X239000Y236000D02*X228500D01*
G54D12*X215500Y261000D02*Y254500D01*
G54D14*X239500Y241000D02*X243500Y237000D01*
G54D13*X245500Y239000D02*X248000D01*
Y249000D02*X245500D01*
X244500Y248000D01*
Y240000D01*
X245500Y239000D01*
G54D12*X222500Y279000D02*X215500Y275500D01*
G54D16*X202500Y289000D02*Y277800D01*
X247000Y263000D02*X254000D01*
X215500Y261000D02*X205800D01*
X203400Y258600D01*
G54D13*X215000Y241000D02*X208000D01*
G54D12*X254000Y279000D02*X222500D01*
G54D13*X292500Y247500D02*X287000D01*
X288000Y257500D02*X292500D01*
G54D16*X287000Y247500D02*Y240000D01*
G54D13*X288000Y234000D02*X292500D01*
G54D12*X261500Y279000D02*Y268000D01*
G54D16*X263500Y256500D02*X262500Y263000D01*
G54D13*X275000Y259000D02*Y268000D01*
G54D12*X271000Y284500D02*X260000D01*
G54D16*X258500Y243000D02*X261000Y245500D01*
G54D13*X258500Y249000D02*X254500D01*
X258500Y254000D02*X254500D01*
X258500Y259000D02*X254500D01*
G54D16*X263500Y249500D02*Y256500D01*
G54D13*X279000Y244000D02*X275000D01*
X268500Y254000D02*X263500D01*
X268500Y249000D02*X265500Y246000D01*
X264000Y242000D01*
G54D14*X261000Y245500D02*X263500Y249500D01*
G54D13*X268500Y221000D02*X270000Y219500D01*
X264500Y228000D02*Y214500D01*
X262000Y231500D02*Y217000D01*
G54D16*X258500Y243000D02*Y220000D01*
G54D13*X268500Y224000D02*Y221000D01*
X270000Y219500D02*X276000D01*
G54D12*X268500Y210500D02*X284000D01*
X276000Y219500D02*Y210500D01*
G54D16*X282500Y225000D02*X288500Y217500D01*
G54D13*X268500Y229000D02*X265500D01*
X264500Y228000D01*
X268500Y234000D02*X264500D01*
X262000Y231500D01*
X254500Y234000D02*X258500D01*
X254500Y224000D02*X258500D01*
G54D16*X282500Y236000D02*X287000Y240000D01*
G54D13*X274500Y239000D02*X280500D01*
X282500Y241000D01*
X272595Y299819D02*X277681D01*
X279000Y298500D01*
Y294500D01*
X280000Y293500D01*
X261000Y295500D02*X254000D01*
G54D14*Y263000D02*X262500D01*
G54D12*X260000Y284500D02*X254000Y279000D01*
G54D13*X266500Y329000D02*X272276D01*
X272595Y329319D01*
X263000Y312776D02*Y323000D01*
X270000Y344000D02*X265000D01*
X251500Y339000D02*X258500D01*
X267500Y325500D02*X264500D01*
X258500Y328500D01*
X251500D01*
X263000Y320000D02*X257650D01*
X253500Y324500D02*X260000D01*
X249957Y318107D02*Y311819D01*
X263000Y323000D02*X260000Y324500D01*
X251500Y328500D02*X245000Y322000D01*
G54D12*X385500Y319000D02*X394500Y335000D01*
G54D16*X377000Y319000D02*X385500D01*
G54D13*X249500Y331500D02*X251500Y339000D01*
X245000Y322000D02*Y319000D01*
G54D12*X485000Y295000D02*Y311500D01*
X455000Y291500D02*X435000D01*
G54D16*X465000D02*X455000D01*
G54D14*X381000Y293500D02*X385500D01*
G54D16*X425000Y291500D02*X435000D01*
G54D15*X532972Y350642D02*X517358D01*
X484936Y371645D01*
G54D16*X374000Y330500D02*X385000Y341500D01*
G54D12*X394500Y335000D02*Y348500D01*
X389000Y354500D01*
G54D13*X410500Y357000D02*X400000D01*
G54D12*X384500Y354500D02*X389000D01*
X392500Y366500D02*X400000Y357000D01*
G54D15*X400500Y249500D02*X417500D01*
X400500Y264500D02*X417500D01*
X433100Y225900D02*X433000Y226000D01*
G54D12*X510500Y223000D02*X504500D01*
G54D16*X496600D01*
X461500Y221000D02*X467400D01*
G54D14*X482000Y223000D02*X492400D01*
G54D16*X466500Y281000D02*Y249000D01*
G54D12*X449000Y281000D02*X471000D01*
X485000Y295000D01*
G54D14*X482000Y232500D02*X477000Y237500D01*
Y268000D01*
G54D15*X421000Y213500D02*X447000D01*
G54D16*X461500Y213000D02*X470600D01*
G54D15*X433100Y217717D02*Y225900D01*
G54D13*X281000Y344000D02*X292000D01*
X281000Y339000D02*X292000D01*
X305000Y337500D02*X308000Y328000D01*
X298500Y334000D02*X302000D01*
X298500Y308000D02*X303000D01*
G54D16*Y299000D02*Y326000D01*
G54D13*X319000Y344000D02*X325000D01*
X308000Y313000D02*Y320500D01*
X319000Y318000D02*X324500D01*
X292000D02*X285224D01*
X292000Y313000D02*X285724D01*
X293500Y252500D02*X284000D01*
X302000Y257500D02*X299000D01*
X306000Y252500D02*X313000D01*
X302000Y257500D02*X306000Y258500D01*
G54D12*X239500Y268000D02*X324500D01*
G54D13*X299000Y234000D02*X303500D01*
G54D12*X305500Y279000D02*X297500D01*
G54D16*X305500D02*Y296500D01*
G54D13*X312000Y295500D02*X316500D01*
G54D15*X315319Y288095D02*X305595D01*
G54D13*X316500Y295500D02*X318500Y293500D01*
Y273500D01*
X293000Y291300D02*X284886D01*
G54D16*X305500Y296500D02*X303000Y299000D01*
G54D13*X291000D02*X296800D01*
X312000Y295500D02*Y300724D01*
G54D12*X297500Y279000D02*X271000Y284500D01*
X261500Y273500D02*X287000D01*
Y268000D01*
X268000Y273500D02*Y268000D01*
X274500Y273500D02*Y268000D01*
X281000Y273500D02*Y268000D01*
G54D13*X303500Y234000D02*X308500Y229000D01*
X313000D01*
G54D12*X288500Y217500D02*X322000D01*
X324500Y224000D02*Y220000D01*
G54D13*X336457Y283457D02*X336500Y283500D01*
G54D12*X385500Y284500D02*Y319000D01*
G54D13*X348500Y283500D02*X338000D01*
X364500Y288500D02*X355000D01*
X366043Y271043D02*X366000Y271000D01*
X374500Y278000D02*X363150D01*
X362543Y277393D01*
G54D15*X375500Y288500D02*X380500D01*
G54D12*X375000Y278000D02*Y274500D01*
X385500Y284500D02*X371500Y270500D01*
X378500Y278000D02*X375000D01*
X405000Y311500D02*Y280000D01*
G54D13*X336457Y277393D02*Y283457D01*
G54D12*X324500Y236000D02*X341000D01*
X349000Y228000D01*
G54D13*X344000Y241500D02*X338650D01*
X331043Y242107D02*Y236043D01*
G54D12*X331500Y264000D02*X355000D01*
X344000Y257500D02*X355000D01*
G54D15*X374500Y213500D02*X399000D01*
X386100Y217717D02*Y224900D01*
X386000Y225000D01*
G54D12*X349000Y264000D02*Y241500D01*
X361000Y213000D02*Y241500D01*
X344000D02*Y264000D01*
Y251000D02*X355000D01*
Y264000D02*Y213000D01*
X324500Y270500D02*X371500D01*
G54D13*X344650Y278500D02*X343543Y277393D01*
X354350Y278500D02*X344650D01*
X354350D02*X355457Y277393D01*
X342850Y278500D02*X343957Y277393D01*
G54D12*X338000Y283500D02*Y297000D01*
G54D13*X330607Y290957D02*Y283107D01*
X330500Y283000D01*
G54D12*X330000Y279000D02*Y283500D01*
X338000D01*
G54D13*X323000Y205500D02*X326000D01*
X332724Y200500D01*
G54D12*X324500Y220000D02*X322000Y217500D01*
G54D16*X324500Y224000D02*X330000D01*
G54D13*X329500Y217500D02*X335936D01*
X330000Y224000D02*X334564D01*
X333000Y231000D02*X338500D01*
X342500Y227000D02*Y216000D01*
X337000Y200500D02*X332724D01*
X334000D02*Y193500D01*
X338500Y231000D02*X342500Y227000D01*
G54D12*X344000Y241500D02*X361000D01*
X355000Y234000D02*X361000D01*
X355000Y227000D02*X361000D01*
X355000Y221000D02*X361000D01*
G54D13*X349000Y205500D02*X343500D01*
G54D12*X361000D02*X348500D01*
X355000Y213000D02*X361000D01*
X349000Y228000D02*Y191000D01*
G54D15*X334000Y193500D02*Y187000D01*
X340000Y175000D01*
X347107Y184543D02*X343500Y190000D01*
G54D12*X322000Y179500D02*X350500Y161500D01*
X355000Y172000D02*X367500D01*
G54D13*X348393Y177457D02*X359957D01*
G54D15*X340000Y175000D02*X344000Y171500D01*
X348000Y171000D01*
G54D12*X355000Y205500D02*Y172000D01*
X349000Y191000D02*X361000D01*
X349000Y199000D02*X361000D01*
X355000Y178500D02*X367500D01*
Y185000D02*X355000D01*
X361000Y205500D02*Y172000D01*
G54D13*X361457Y155393D02*Y161457D01*
G54D12*X368500Y119000D02*X350500D01*
Y138000D02*Y107000D01*
X356500Y132000D02*Y107000D01*
X362500Y130000D02*Y107000D01*
X368500Y113000D02*X350500D01*
G54D15*X353000Y153000D02*X359000Y148500D01*
G54D12*X339000Y146000D02*X353500D01*
X361000Y144000D02*Y130000D01*
X367500D02*Y144000D01*
G54D14*X524000Y183000D02*Y173000D01*
G54D13*X498500Y176000D02*X503000D01*
G54D16*Y185000D01*
X491000D01*
G54D14*X524000Y173000D02*X518000Y167000D01*
G54D15*X487500Y171000D02*Y183000D01*
X483500Y186500D01*
G54D13*X487500Y171000D02*X492000D01*
X482500Y176000D02*X478000D01*
G54D16*X491000Y185000D02*X485500Y189500D01*
G54D15*X480500Y184000D02*X482500Y181000D01*
G54D12*X533500Y211500D02*Y233000D01*
X528000D02*X510500Y223000D01*
G54D17*X533500Y154500D02*Y211500D01*
G54D16*X514000Y193000D02*X524000Y203000D01*
G54D14*X507000Y187000D02*Y168000D01*
G54D13*X499543Y191107D02*Y184543D01*
X499500Y184500D01*
G54D14*X514000Y193000D02*X507000Y187000D01*
Y168000D02*X495500Y156500D01*
X499500Y154000D02*X518000Y167000D01*
X495500Y156500D02*Y151000D01*
G54D12*X509000Y138000D02*X533500Y154500D01*
G54D14*X495500Y151000D02*X499500Y148500D01*
G54D13*X470500Y159500D02*X478000D01*
G54D16*X480500Y107500D02*X490500Y117500D01*
G54D12*X487500Y99500D02*X498500Y110500D01*
Y126000D01*
G54D13*X471500Y159500D02*Y166000D01*
X491000Y160000D02*X486650D01*
G54D16*X533500Y233000D02*Y243200D01*
X527000Y233000D02*Y243000D01*
X487600Y250400D02*X510400D01*
G54D13*X484500Y194000D02*X492500D01*
X475043Y200393D02*Y200543D01*
X479500Y205000D01*
G54D14*X482000Y207500D01*
Y232500D01*
G54D15*X398000Y199500D02*X392500D01*
X399414Y191000D02*X387586D01*
X380190Y200000D02*Y195310D01*
X382500Y193000D01*
X386586D01*
X373500Y199000D02*Y191914D01*
X375095Y190319D01*
G54D12*X367500Y185000D02*Y172000D01*
X325000Y108500D02*X346000Y99500D01*
G54D16*X330500Y138000D02*X325000Y130000D01*
G54D12*X339000Y146000D02*X330500Y138000D01*
G54D15*X353000Y153000D02*X348000D01*
G54D13*X375500Y166000D02*Y161000D01*
X386500Y176000D02*X382000D01*
Y171000D02*X385500D01*
G54D12*X379500Y161500D02*Y154000D01*
G54D16*X385000Y158500D02*Y154000D01*
X390000Y158500D02*Y154000D01*
G54D13*X374000D02*X369150D01*
G54D15*X385500Y171000D02*X393500Y162500D01*
G54D12*X379500Y161500D02*X350500D01*
G54D15*X445000Y199500D02*X439500D01*
X446414Y191000D02*X434586D01*
G54D16*X367500Y185000D02*X461500D01*
X466500Y189500D02*X485500D01*
G54D15*X483500Y186500D02*X468000D01*
G54D16*X461500Y185000D02*X466500Y189500D01*
G54D15*X427190Y200000D02*Y195310D01*
X429500Y193000D01*
X433586D01*
X410905Y190319D02*Y185095D01*
X420500Y199000D02*Y194276D01*
X422095Y192681D01*
G54D16*X411905Y184595D02*X412000Y176000D01*
G54D13*X402500D02*X412000D01*
G54D15*X469500Y184000D02*X480500D01*
X469500D02*X462500Y177000D01*
X458500Y177500D02*X468000Y186500D01*
G54D16*X422500Y158500D02*X380000D01*
Y154000D02*X441500D01*
X430500Y138000D02*Y125200D01*
X429000Y111000D02*Y119700D01*
G54D12*X417500Y144000D02*Y130000D01*
X408000Y131500D02*Y144000D01*
G54D14*X392500Y133000D02*Y144000D01*
X396000Y133000D02*Y144000D01*
X399500Y133000D02*Y144500D01*
X403500Y144000D02*Y133000D01*
G54D16*X449000Y107500D02*X480500D01*
G54D12*X439000Y99500D02*X487500D01*
G54D16*X470500Y117500D02*X455200D01*
X449600Y123100D01*
G54D13*X382000Y118400D02*X376536D01*
X382000Y113300D02*X375450D01*
X384200Y115900D02*X388400D01*
G54D12*X368500Y130000D02*Y107000D01*
G54D13*X400900Y106750D02*X400543Y106393D01*
X398700Y118300D02*X394800D01*
X393457Y106393D02*Y113543D01*
X400900Y113200D02*Y106750D01*
X409900Y120900D02*X410000Y121000D01*
X406000Y107500D02*X401650D01*
X415043Y120957D02*X415000Y121000D01*
X415043Y114393D02*Y120957D01*
G54D12*X373500Y130000D02*Y144000D01*
X387500Y130000D02*Y144000D01*
X380500Y131000D02*Y144000D01*
G54D13*X454500Y171000D02*X449500D01*
X433500Y176000D02*X429000D01*
X427500Y171000D02*X432000D01*
X471500D02*X467000D01*
G54D15*X457405Y189819D02*Y184595D01*
G54D16*X454500Y185000D02*Y176000D01*
G54D13*X449500D01*
X462000Y199000D02*X467350D01*
X467957Y199607D01*
G54D15*X462500Y177000D02*Y163500D01*
X458500Y167500D02*Y177500D01*
X432000Y171000D02*X439500Y163000D01*
G54D14*X441500Y155500D02*X458500D01*
X450000Y159500D02*Y155500D01*
X455000D02*Y159500D01*
X446000D02*Y155500D01*
G54D16*X436500Y159500D02*Y154000D01*
G54D15*X439500Y163000D02*X454000D01*
X458500Y167500D01*
G54D16*X441500Y154000D02*Y159500D01*
G54D13*X449000Y145500D02*X454414D01*
G54D15*X448000Y151500D02*X442500Y149500D01*
G54D13*X461500Y151500D02*Y146500D01*
G54D12*X430500Y138000D02*X509000D01*
G54D16*X422500Y159500D02*X471500D01*
G54D14*X458500Y155500D02*Y159500D01*
G54D15*X467500Y151500D02*X478000Y149500D01*
X448000Y151500D02*X467500D01*
X462500Y155000D02*X473000Y154500D01*
G54D13*X400900Y120900D02*Y128036D01*
X393457Y127607D02*Y118543D01*
X382000Y121000D02*Y125000D01*
G54D12*X346000Y99500D02*X423000D01*
G54D16*X376500Y125000D02*Y130500D01*
Y125000D02*X350500D01*
G54D15*X359000Y148500D02*X430500D01*
G54D12*X361000Y144000D02*X417500D01*
X350500Y138000D02*X417500D01*
G54D14*X388500Y133000D02*X411000D01*
G54D15*X403500Y162500D02*X407500Y163500D01*
G54D16*X410000Y158500D02*Y154000D01*
X415500Y158500D02*Y154000D01*
G54D13*X407500Y171000D02*X402500D01*
G54D16*X431500Y159500D02*Y154000D01*
X427000Y159500D02*Y154000D01*
G54D13*X422500Y166000D02*Y159000D01*
G54D16*Y159500D02*Y154000D01*
X405000Y158500D02*Y154000D01*
X400000Y158500D02*Y154000D01*
X395000Y158500D02*Y154000D01*
G54D15*X393500Y162500D02*X403500D01*
G54D12*X417500Y121000D02*X407500D01*
G54D16*X417500D02*X427500D01*
G54D13*X400900Y120900D02*X409900D01*
G54D16*X439000Y107500D02*Y99000D01*
G54D13*X400900Y115800D02*X406550D01*
X407957Y114393D01*
G54D12*X429000Y105500D02*Y111000D01*
X423000Y99500D02*X429000Y105500D01*
G54D13*X420500Y112500D02*Y108350D01*
X408500Y112500D02*Y110350D01*
X411957Y106893D01*
G54D11*G36*
X268000Y121500D02*Y115500D01*
X274000D01*
Y121500D01*
X268000D01*
G37*
G54D18*X271000Y128500D03*
G54D11*G36*
X308500Y164000D02*Y155000D01*
X317500D01*
Y164000D01*
X308500D01*
G37*
G54D19*X313000Y169500D03*
Y179500D03*
G54D20*X288500Y174500D03*
G54D11*G36*
X285900Y207100D02*Y201900D01*
X291100D01*
Y207100D01*
X285900D01*
G37*
G36*
X320500Y114500D02*Y105500D01*
X329500D01*
Y114500D01*
X320500D01*
G37*
G54D19*X325000Y120000D03*
Y130000D03*
G54D11*G36*
X328500Y341000D02*Y335000D01*
X334500D01*
Y341000D01*
X328500D01*
G37*
G36*
X329400Y360600D02*Y355400D01*
X334600D01*
Y360600D01*
X329400D01*
G37*
G54D20*X332000Y388000D03*
G54D18*X331500Y328000D03*
Y318000D03*
G54D21*X204000Y335500D03*
G54D22*Y315800D03*
Y355200D03*
X186300Y335500D03*
G54D11*G36*
X230250Y402250D02*Y395750D01*
X236750D01*
Y402250D01*
X230250D01*
G37*
G54D23*X243500Y399000D03*
G54D11*G36*
X268250Y402250D02*Y395750D01*
X274750D01*
Y402250D01*
X268250D01*
G37*
G54D23*X281500Y399000D03*
G54D11*G36*
X306250Y402250D02*Y395750D01*
X312750D01*
Y402250D01*
X306250D01*
G37*
G54D23*X319500Y399000D03*
G54D24*X425000Y391500D03*
X465000D03*
X485000Y371500D03*
G54D11*G36*
X390000Y291000D02*Y285000D01*
X396000D01*
Y291000D01*
X390000D01*
G37*
G54D24*X405000Y371500D03*
Y311500D03*
G54D25*X533000Y360500D03*
Y350500D03*
Y340500D03*
Y330500D03*
G54D24*X425000Y291500D03*
G54D26*X385000Y341500D03*
G54D27*X514000Y183000D03*
Y173000D03*
Y193000D03*
G54D28*X524100Y183000D03*
Y163000D03*
Y203000D03*
X543100Y163000D03*
Y203000D03*
G54D11*G36*
X487500Y120500D02*Y114500D01*
X493500D01*
Y120500D01*
X487500D01*
G37*
G54D18*X470500Y117500D03*
G54D11*G36*
X446000Y110500D02*Y104500D01*
X452000D01*
Y110500D01*
X446000D01*
G37*
G54D18*X439000Y107500D03*
G54D11*G36*
X367900Y252100D02*Y246900D01*
X373100D01*
Y252100D01*
X367900D01*
G37*
G54D20*X400500Y249500D03*
G54D11*G36*
X414900Y267100D02*Y261900D01*
X420100D01*
Y267100D01*
X414900D01*
G37*
G36*
X397900D02*Y261900D01*
X403100D01*
Y267100D01*
X397900D01*
G37*
G54D20*X370500Y264500D03*
X417500Y249500D03*
G54D11*G36*
X529000Y293000D02*Y287000D01*
X535000D01*
Y293000D01*
X529000D01*
G37*
G54D18*X532000Y300000D03*
Y310000D03*
G54D11*G36*
X519094Y292940D02*Y286940D01*
X525094D01*
Y292940D01*
X519094D01*
G37*
G54D20*X447500Y264500D03*
G54D24*X485000Y311500D03*
X465000Y291500D03*
G54D11*G36*
X444900Y252100D02*Y246900D01*
X450100D01*
Y252100D01*
X444900D01*
G37*
G54D29*X194000Y236000D03*
G54D18*X192500Y292000D03*
G54D29*X186000Y279000D03*
Y274500D03*
X195500Y268000D03*
X202500D03*
X222000Y360000D03*
G54D18*X233500Y353500D03*
G54D29*X222000Y354000D03*
Y311500D03*
X235000Y305500D03*
X234000Y323500D03*
X222000Y315500D03*
X222500Y293500D03*
X225500Y329500D03*
X215000Y241000D03*
G54D18*X215500Y261000D03*
Y254500D03*
Y275500D03*
X202500Y289000D03*
G54D29*X180000Y316000D03*
X186500D03*
G54D18*X221000Y403000D03*
G54D29*X305000Y365000D03*
Y375000D03*
Y370000D03*
X308000Y320500D03*
X308500Y339000D03*
X308000Y313000D03*
Y328000D03*
X324500Y370000D03*
X291000Y299000D03*
X312000Y295500D03*
X281000Y344000D03*
X279000Y244000D03*
X284000Y252500D03*
X261500Y295500D03*
X238000Y290500D03*
X261500Y279000D03*
X239500Y273500D03*
X243000Y305500D03*
X263000Y320000D03*
X270000Y344000D03*
X251500Y339000D03*
X392500Y405000D03*
Y391500D03*
Y366500D03*
X378000Y357000D03*
X400000D03*
X410500D03*
X356000Y372000D03*
X344000Y399500D03*
X363000Y398000D03*
Y403000D03*
X356000Y367000D03*
X361000D03*
X378000Y377500D03*
X331000Y304000D03*
X324500Y298000D03*
X364500Y288500D03*
X360000Y293500D03*
X356000Y319000D03*
Y314000D03*
X361000D03*
X349000Y278500D03*
X331500Y264000D03*
X355000D03*
X361000Y241500D03*
X355000D03*
X319000Y243000D03*
X380500Y288500D03*
G54D18*X405000Y287000D03*
G54D29*X356000Y340500D03*
Y345500D03*
X361000Y340500D03*
X356000Y330500D03*
X281000Y339000D03*
X253500Y324500D03*
X266500Y329000D03*
X238000Y329500D03*
X260500Y375000D03*
X285000Y377000D03*
X240500Y375000D03*
X260500Y370000D03*
X242000Y389000D03*
X257500Y399000D03*
X304500Y358000D03*
X251500Y344000D03*
X295500Y112000D03*
X290500Y106000D03*
X295500Y121000D03*
X290500Y126000D03*
X295500Y136000D03*
Y126000D03*
X241500Y105500D03*
X262000Y126000D03*
X382000Y125000D03*
X361000Y130000D03*
X367500D03*
X373500D03*
X262000Y121000D03*
Y106000D03*
X381000Y107000D03*
X368500D03*
Y119000D03*
X362500D03*
X224000Y162500D03*
Y170500D03*
X343500Y190000D03*
X374000Y154000D03*
X262000Y131000D03*
X268500Y210500D03*
X284000D03*
X276000Y219500D03*
X283000Y170500D03*
X264500Y167500D03*
X241500Y206500D03*
X247000D03*
X254000Y196000D03*
X234000D03*
X247500Y213500D03*
X239500Y211500D03*
X196500Y145000D03*
X234500Y145500D03*
Y140500D03*
X242000Y165500D03*
X268000Y180500D03*
X242000Y160500D03*
Y155500D03*
X245000Y178000D03*
X247000Y171000D03*
X272000Y145500D03*
X267000Y139500D03*
X247000D03*
X272500D03*
X185500Y155500D03*
Y165500D03*
Y185500D03*
Y150500D03*
X306000Y225500D03*
Y252500D03*
X288000Y234000D03*
X305500Y279000D03*
X318500Y273500D03*
X330000Y279000D03*
X324500Y236000D03*
X330000Y193500D03*
X329500Y217500D03*
X333000Y231000D03*
X288500Y150500D03*
X306000Y258500D03*
X324500Y224000D03*
X342500Y216000D03*
X215000Y236000D03*
X239000D03*
G54D18*X527000Y233000D03*
X477000Y268000D03*
X533500Y233000D03*
G54D29*X254000Y263000D03*
X258500Y259000D03*
Y254000D03*
Y249000D03*
X264000Y242000D03*
X288000Y257500D03*
X263500Y249500D03*
X279000Y249000D03*
X247000Y263000D03*
X344000Y241500D03*
X197000Y224000D03*
X206000Y157500D03*
X201000Y153500D03*
X206000Y180500D03*
Y149000D03*
X205000Y165500D03*
X224000Y175500D03*
X221500Y185500D03*
X226500D03*
X224000Y180500D03*
X216000Y224000D03*
X210000Y205500D03*
Y201500D03*
X386000Y176000D03*
X433000D03*
X407500Y171000D03*
X454500D03*
X440000Y191000D03*
X445000Y199500D03*
X461500Y221000D03*
X462500Y163500D03*
X543000Y173000D03*
Y183000D03*
Y193000D03*
X407500Y163500D03*
X462500Y155000D03*
X473000Y154500D03*
X478000Y149500D03*
X362500Y107000D03*
X387500Y105000D03*
X406000Y107500D03*
X394500Y112500D03*
X388500D03*
Y119000D03*
X387500Y130000D03*
X348000Y153000D03*
X339000Y146000D03*
X348500D03*
X343500D03*
X353500D03*
X373500Y199000D03*
X355000Y185000D03*
Y176500D03*
Y180500D03*
X393000Y191000D03*
X482500Y181000D03*
Y176000D03*
X484500Y194000D03*
X398000Y199500D03*
X420500Y199000D03*
X462000D03*
X361000Y213000D03*
X355000D03*
X461500D03*
X491000Y160000D03*
X348000Y171000D03*
X355000Y172000D03*
X487500Y171000D03*
X467000D03*
X408000Y131500D03*
X417500Y130000D03*
G54D18*X429000Y111000D03*
G54D29*X420500Y112500D03*
X408000Y126500D03*
X498500Y126000D03*
X499500Y148500D03*
Y154000D03*
X449000Y145500D03*
G54D30*X230500Y121000D02*X237000D01*
X251000D02*X257500D01*
X251000Y126000D02*X257500D01*
X230500Y116000D02*X237000D01*
X230500Y111000D02*X237000D01*
X230500Y106000D02*X237000D01*
X251000D02*X257500D01*
X251000Y111000D02*X257500D01*
X251000Y116000D02*X257500D01*
X230500Y136000D02*X237000D01*
X251000D02*X257500D01*
X230500Y131000D02*X237000D01*
X251000D02*X257500D01*
X230500Y126000D02*X237000D01*
X279500Y121000D02*X286000D01*
X279500Y116000D02*X286000D01*
X279500Y111000D02*X286000D01*
X279500Y106000D02*X286000D01*
X279500Y136000D02*X286000D01*
X279500Y131000D02*X286000D01*
X279500Y126000D02*X286000D01*
X300000Y106000D02*X306500D01*
X300000Y111000D02*X306500D01*
X300000Y116000D02*X306500D01*
X300000Y121000D02*X306500D01*
X300000Y126000D02*X306500D01*
X300000Y131000D02*X306500D01*
X300000Y136000D02*X306500D01*
G54D31*X382000Y121000D02*X384200D01*
G54D32*X382000Y118400D02*X384200D01*
X382000Y115900D02*X384200D01*
X382000Y113300D02*X384200D01*
G54D33*X374607Y112457D02*X375393D01*
X374607Y119543D02*X375393D01*
G54D32*X398700Y113200D02*X400900D01*
X398700Y115800D02*X400900D01*
X398700Y118300D02*X400900D01*
X398700Y120900D02*X400900D01*
G54D33*X393457Y128393D02*Y127607D01*
X400543Y128393D02*Y127607D01*
X393457Y106393D02*Y105607D01*
X400543Y106393D02*Y105607D01*
G54D34*X428400Y126900D02*Y123100D01*
X449600Y126900D02*Y123100D01*
G54D33*X407957Y115393D02*Y114607D01*
X415043Y115393D02*Y114607D01*
X419043Y106893D02*Y106107D01*
X411957Y106893D02*Y106107D01*
X361457Y155393D02*Y154607D01*
X368543Y155393D02*Y154607D01*
G54D30*X375500Y166000D02*X382000D01*
X375500Y181000D02*X382000D01*
X375500Y176000D02*X382000D01*
X375500Y171000D02*X382000D01*
X396000Y166000D02*X402500D01*
X396000Y171000D02*X402500D01*
X396000Y176000D02*X402500D01*
X396000Y181000D02*X402500D01*
G54D33*X375095Y192681D02*Y190319D01*
X386905Y192681D02*Y190319D01*
X347607Y184543D02*X348393D01*
X347607Y177457D02*X348393D01*
G54D35*X380190Y201969D02*Y200000D01*
X386100Y217717D02*Y200000D01*
G54D11*G36*
X387569Y210344D02*X390431Y207481D01*
X388068Y205119D01*
X385206Y207982D01*
X387569Y210344D01*
G37*
G36*
X381768Y207481D02*X384630Y210344D01*
X386993Y207982D01*
X384131Y205119D01*
X381768Y207481D01*
G37*
G54D36*X386100Y212993D02*Y211811D01*
G54D11*G36*
X385206Y216823D02*X388068Y219686D01*
X390431Y217324D01*
X387569Y214461D01*
X385206Y216823D01*
G37*
G36*
X384131Y219686D02*X386993Y216823D01*
X384630Y214461D01*
X381768Y217324D01*
X384131Y219686D01*
G37*
G54D35*X392000Y201969D02*Y200000D01*
X433100Y217717D02*Y200000D01*
G54D36*Y212993D02*Y211811D01*
G54D11*G36*
X434569Y210344D02*X437431Y207481D01*
X435068Y205119D01*
X432206Y207982D01*
X434569Y210344D01*
G37*
G36*
X428768Y207481D02*X431630Y210344D01*
X433993Y207982D01*
X431131Y205119D01*
X428768Y207481D01*
G37*
G36*
X432206Y216823D02*X435068Y219686D01*
X437431Y217324D01*
X434569Y214461D01*
X432206Y216823D01*
G37*
G36*
X431131Y219686D02*X433993Y216823D01*
X431630Y214461D01*
X428768Y217324D01*
X431131Y219686D01*
G37*
G54D30*X312500Y344000D02*X319000D01*
X312500Y349000D02*X319000D01*
X365500Y362000D02*X372000D01*
X365500Y367000D02*X372000D01*
X365500Y372000D02*X372000D01*
X345000Y350500D02*X351500D01*
X345000Y345500D02*X351500D01*
X345000Y372000D02*X351500D01*
X345000Y367000D02*X351500D01*
X345000Y362000D02*X351500D01*
X365500Y345500D02*X372000D01*
X365500Y350500D02*X372000D01*
X345000Y309000D02*X351500D01*
X365500D02*X372000D01*
X369000Y283500D02*X375500D01*
G54D33*X336457Y277393D02*Y276607D01*
X343543Y277393D02*Y276607D01*
G54D30*X345000Y324000D02*X351500D01*
X345000Y319000D02*X351500D01*
X345000Y314000D02*X351500D01*
X345000Y340500D02*X351500D01*
X345000Y335500D02*X351500D01*
X365500Y314000D02*X372000D01*
X365500Y319000D02*X372000D01*
X365500Y324000D02*X372000D01*
X365500Y335500D02*X372000D01*
X365500Y340500D02*X372000D01*
G54D34*X487600Y250400D02*Y246600D01*
X466400Y250400D02*Y246600D01*
X510400Y250400D02*Y246600D01*
X531600Y250400D02*Y246600D01*
G54D30*X422500Y181000D02*X429000D01*
X422500Y176000D02*X429000D01*
X422500Y171000D02*X429000D01*
X422500Y166000D02*X429000D01*
G54D33*X442405Y148181D02*Y145819D01*
X430595Y148181D02*Y145819D01*
X454914Y146786D02*Y146000D01*
X462000Y146786D02*Y146000D01*
G54D30*X443000Y166000D02*X449500D01*
X443000Y171000D02*X449500D01*
X443000Y176000D02*X449500D01*
X443000Y181000D02*X449500D01*
G54D33*X399095Y192681D02*Y190319D01*
X410905Y192681D02*Y190319D01*
X422095Y192681D02*Y190319D01*
X433905Y192681D02*Y190319D01*
X446095Y192681D02*Y190319D01*
X457905Y192681D02*Y190319D01*
G54D35*X427190Y201969D02*Y200000D01*
X439000Y201969D02*Y200000D01*
G54D37*X494500Y225100D02*Y213900D01*
X471500Y225100D02*Y213900D01*
G54D33*X492457Y193393D02*Y192607D01*
X499543Y193393D02*Y192607D01*
X467957Y200393D02*Y199607D01*
X475043Y200393D02*Y199607D01*
G54D30*X471500Y181000D02*X478000D01*
X471500Y176000D02*X478000D01*
X492000Y166000D02*X498500D01*
X492000Y171000D02*X498500D01*
X492000Y176000D02*X498500D01*
X492000Y181000D02*X498500D01*
X471500Y171000D02*X478000D01*
X471500Y166000D02*X478000D01*
G54D33*X478457Y158893D02*Y158107D01*
X485543Y158893D02*Y158107D01*
G54D30*X292000Y349000D02*X298500D01*
X292000Y344000D02*X298500D01*
X292000Y339000D02*X298500D01*
X312500Y334000D02*X319000D01*
X312500Y339000D02*X319000D01*
X312500Y308000D02*X319000D01*
X312500Y313000D02*X319000D01*
X312500Y318000D02*X319000D01*
X312500Y323000D02*X319000D01*
X292000Y334000D02*X298500D01*
X292000Y323000D02*X298500D01*
X292000Y318000D02*X298500D01*
G54D33*X284405Y331681D02*Y329319D01*
G54D30*X292000Y313000D02*X298500D01*
X294000Y365000D02*X300500D01*
G54D33*X312607Y366457D02*X313393D01*
X312607Y373543D02*X313393D01*
G54D30*X294000Y370000D02*X300500D01*
X294000Y375000D02*X300500D01*
X294000Y380000D02*X300500D01*
G54D33*X272595Y302181D02*Y299819D01*
Y293181D02*Y290819D01*
Y311681D02*Y309319D01*
Y321181D02*Y318819D01*
Y331681D02*Y329319D01*
X284405Y311681D02*Y309319D01*
Y321181D02*Y318819D01*
G54D30*X292000Y308000D02*X298500D01*
G54D33*X284405Y302181D02*Y299819D01*
Y293181D02*Y290819D01*
G54D38*X293000Y291300D02*Y290700D01*
X300800Y291300D02*Y290700D01*
X296900Y299500D02*Y298900D01*
G54D33*X311319Y301405D02*X313681D01*
X311319Y289595D02*X313681D01*
X330607Y298043D02*X331393D01*
X330607Y290957D02*X331393D01*
G54D30*X348500Y298500D02*X355000D01*
X348500Y293500D02*X355000D01*
X348500Y288500D02*X355000D01*
X348500Y283500D02*X355000D01*
G54D33*X355457Y277393D02*Y276607D01*
X362543Y277393D02*Y276607D01*
G54D30*X369000Y288500D02*X375500D01*
X369000Y293500D02*X375500D01*
X369000Y298500D02*X375500D01*
X258500Y334000D02*X265000D01*
X258500Y339000D02*X265000D01*
X258500Y344000D02*X265000D01*
X258500Y349000D02*X265000D01*
G54D38*X242800Y311300D02*Y310700D01*
X238900Y319500D02*Y318900D01*
G54D33*X249957Y318893D02*Y318107D01*
X257043Y318893D02*Y318107D01*
X250095Y311681D02*Y309319D01*
X261905Y311681D02*Y309319D01*
G54D38*X235000Y311300D02*Y310700D01*
G54D33*X231405Y332181D02*Y329819D01*
Y341181D02*Y338819D01*
G54D30*X227000Y300500D02*X233500D01*
X247500D02*X254000D01*
X227000Y295500D02*X233500D01*
X247500D02*X254000D01*
X227000Y290500D02*X233500D01*
X247500D02*X254000D01*
G54D33*X216543Y290893D02*Y290107D01*
G54D30*X227000Y285500D02*X233500D01*
X247500D02*X254000D01*
G54D33*X233043Y271393D02*Y270607D01*
X225957Y271393D02*Y270607D01*
G54D39*X195600Y277400D02*X203400D01*
G54D33*X192095Y302181D02*Y299819D01*
X203905Y302181D02*Y299819D01*
X209457Y290893D02*Y290107D01*
G54D39*X195600Y258600D02*X203400D01*
G54D30*X273500Y380000D02*X280000D01*
X273500Y375000D02*X280000D01*
X273500Y370000D02*X280000D01*
X273500Y365000D02*X280000D01*
X249500D02*X256000D01*
X249500Y370000D02*X256000D01*
X229000Y375000D02*X235500D01*
X229000Y370000D02*X235500D01*
X229000Y365000D02*X235500D01*
X229000Y380000D02*X235500D01*
X249500Y375000D02*X256000D01*
X249500Y380000D02*X256000D01*
X238000Y349000D02*X244500D01*
X238000Y344000D02*X244500D01*
X238000Y339000D02*X244500D01*
X238000Y334000D02*X244500D01*
G54D33*X219957Y348393D02*Y347607D01*
X227043Y348393D02*Y347607D01*
X219595Y332181D02*Y329819D01*
Y341181D02*Y338819D01*
X219957Y322893D02*Y322107D01*
X227043Y322893D02*Y322107D01*
G54D30*X248000Y244000D02*X254500D01*
X248000Y239000D02*X254500D01*
X248000Y234000D02*X254500D01*
X248000Y229000D02*X254500D01*
X313000D02*X319500D01*
X248000Y224000D02*X254500D01*
X313000D02*X319500D01*
X268500D02*X275000D01*
X268500Y229000D02*X275000D01*
X268500Y234000D02*X275000D01*
X248000Y259000D02*X254500D01*
X248000Y254000D02*X254500D01*
X248000Y249000D02*X254500D01*
X268500Y239000D02*X275000D01*
X268500Y244000D02*X275000D01*
X268500Y249000D02*X275000D01*
X268500Y254000D02*X275000D01*
X292500Y239000D02*X299000D01*
X292500Y234000D02*X299000D01*
X292500Y229000D02*X299000D01*
X292500Y224000D02*X299000D01*
X313000Y234000D02*X319500D01*
X313000Y239000D02*X319500D01*
X313000Y247500D02*X319500D01*
X313000Y252500D02*X319500D01*
X313000Y257500D02*X319500D01*
X313000Y262500D02*X319500D01*
X316500Y210500D02*X323000D01*
X316500Y205500D02*X323000D01*
X316500Y200500D02*X323000D01*
X316500Y195500D02*X323000D01*
X337000D02*X343500D01*
X337000Y200500D02*X343500D01*
X337000Y205500D02*X343500D01*
X337000Y210500D02*X343500D01*
G54D33*X335607Y217957D02*X336393D01*
X335607Y225043D02*X336393D01*
G54D30*X268500Y259000D02*X275000D01*
X292500Y262500D02*X299000D01*
X292500Y257500D02*X299000D01*
X292500Y252500D02*X299000D01*
X292500Y247500D02*X299000D01*
G54D33*X338043Y242893D02*Y242107D01*
X330957Y242893D02*Y242107D01*
G54D30*X201500Y246000D02*X208000D01*
X201500Y241000D02*X208000D01*
X201500Y236000D02*X208000D01*
G54D33*X192819Y241905D02*X195181D01*
G54D30*X222000Y231000D02*X228500D01*
G54D33*X221957Y222893D02*Y222107D01*
X229043Y222893D02*Y222107D01*
X210043Y222893D02*Y222107D01*
X202957Y222893D02*Y222107D01*
G54D30*X222000Y236000D02*X228500D01*
X222000Y241000D02*X228500D01*
X222000Y246000D02*X228500D01*
X251500Y170500D02*X258000D01*
X251500Y165500D02*X258000D01*
X251500Y160500D02*X258000D01*
X251500Y155500D02*X258000D01*
X251500Y185500D02*X258000D01*
X251500Y180500D02*X258000D01*
X251500Y175500D02*X258000D01*
X201500Y231000D02*X208000D01*
G54D33*X192819Y230095D02*X195181D01*
X194457Y203393D02*Y202607D01*
G54D30*X272000Y155500D02*X278500D01*
X272000Y160500D02*X278500D01*
X272000Y165500D02*X278500D01*
X272000Y170500D02*X278500D01*
X272000Y175500D02*X278500D01*
X272000Y180500D02*X278500D01*
X272000Y185500D02*X278500D01*
G54D33*X288819Y156095D02*X291181D01*
X288819Y167905D02*X291181D01*
X201543Y203393D02*Y202607D01*
G54D30*X190000Y185500D02*X196500D01*
X190000Y180500D02*X196500D01*
X210500Y175500D02*X217000D01*
X210500Y180500D02*X217000D01*
X210500Y185500D02*X217000D01*
X210500Y170500D02*X217000D01*
X190000Y165500D02*X196500D01*
X210500D02*X217000D01*
X190000Y160500D02*X196500D01*
X210500D02*X217000D01*
X190000Y155500D02*X196500D01*
X190000Y150500D02*X196500D01*
X190000Y175500D02*X196500D01*
X190000Y170500D02*X196500D01*
X210500Y150500D02*X217000D01*
X210500Y155500D02*X217000D01*
G54D33*X392543Y398393D02*Y397607D01*
X385457Y398393D02*Y397607D01*
G54D30*X372500Y388000D02*X379000D01*
X372500Y393000D02*X379000D01*
X372500Y398000D02*X379000D01*
X372500Y403000D02*X379000D01*
X352000D02*X358500D01*
X352000Y398000D02*X358500D01*
X365500Y377000D02*X372000D01*
X345000D02*X351500D01*
G54D33*X344607Y386457D02*X345393D01*
G54D30*X352000Y393000D02*X358500D01*
X352000Y388000D02*X358500D01*
G54D33*X344607Y393543D02*X345393D01*
G54D40*G54D18*G54D41*G54D42*G54D18*G54D40*G54D41*G54D40*G54D43*G54D44*G54D42*G54D44*G54D45*G54D42*G54D20*G54D40*G54D20*G54D46*G54D47*G54D20*G54D48*G54D49*G54D50*G54D42*G54D51*G54D40*G54D41*G54D40*G54D47*G54D41*G54D20*G54D41*G54D11*G54D17*G54D11*G54D17*G54D11*G54D17*G54D11*G54D17*G54D11*G54D17*G54D11*G54D17*G54D11*G54D17*G54D11*G54D52*X194000Y92500D02*X523000D01*
X173000Y404500D02*Y103500D01*
X175500Y101000D02*X185500D01*
X175500Y407000D02*X185500D01*
X531500D02*X550000D01*
X552500Y404500D02*Y103500D01*
X531500Y101000D02*X550000D01*
X501500Y272000D02*X515500D01*
X194000Y415500D02*X523000D01*
X497000Y290000D02*Y276500D01*
X506000Y290000D02*Y285500D01*
X510500Y281000D02*X515500D01*
X442500Y352000D02*Y342000D01*
X456000Y346500D02*X459000D01*
X506000Y342000D02*Y333000D01*
X447000Y337500D02*X459000D01*
X492500Y346500D02*X501500D01*
X451500Y352000D02*Y351000D01*
X191500Y413000D02*G75*G02X194000Y415500I2500J0D01*G01*
X173000Y404500D02*G75*G02X175500Y407000I2500J0D01*G01*
X185500Y101000D02*G75*G02X191500Y95000I0J-6000D01*G01*
Y413000D02*G75*G02X185500Y407000I-6000J0D01*G01*
X175500Y101000D02*G75*G02X173000Y103500I0J2500D01*G01*
X194000Y92500D02*G75*G02X191500Y95000I0J2500D01*G01*
X552500Y103500D02*G75*G02X550000Y101000I-2500J0D01*G01*
X525500Y95000D02*G75*G02X523000Y92500I-2500J0D01*G01*
Y415500D02*G75*G02X525500Y413000I0J-2500D01*G01*
Y95000D02*G75*G02X531500Y101000I6000J0D01*G01*
Y407000D02*G75*G02X525500Y413000I0J6000D01*G01*
X550000Y407000D02*G75*G02X552500Y404500I0J-2500D01*G01*
X451500Y352000D02*G75*G03X447000Y356500I-4500J0D01*G01*
X442500Y342000D02*G75*G03X447000Y337500I4500J0D01*G01*
X459000D02*G75*G03X463500Y342000I0J4500D01*G01*
G75*G03X459000Y346500I-4500J0D01*G01*
X451500Y351000D02*G75*G03X456000Y346500I4500J0D01*G01*
X447000Y356500D02*G75*G03X442500Y352000I0J-4500D01*G01*
X497000Y276500D02*G75*G03X501500Y272000I4500J0D01*G01*
X506000Y290000D02*G75*G03X501500Y294500I-4500J0D01*G01*
G75*G03X497000Y290000I0J-4500D01*G01*
X506000Y285500D02*G75*G03X510500Y281000I4500J0D01*G01*
X515500Y272000D02*G75*G03X520000Y276500I0J4500D01*G01*
G75*G03X515500Y281000I-4500J0D01*G01*
X492500Y346500D02*G75*G03X488000Y342000I0J-4500D01*G01*
G75*G03X492500Y337500I4500J0D01*G01*
X506000Y342000D02*G75*G03X501500Y346500I-4500J0D01*G01*
X497000Y333000D02*G75*G03X501500Y328500I4500J0D01*G01*
G75*G03X506000Y333000I0J4500D01*G01*
X497000D02*G75*G03X492500Y337500I-4500J0D01*G01*
M02*
