G04 start of page 13 for group -4014 idx -4014 *
G04 Title: (unknown), bottompaste *
G04 Creator: pcb 20091103 *
G04 CreationDate: Sun Aug  4 14:17:31 2024 UTC *
G04 For: bh *
G04 Format: Gerber/RS-274X *
G04 PCB-Dimensions: 560000 580000 *
G04 PCB-Coordinate-Origin: lower left *
%MOIN*%
%FSLAX25Y25*%
%LNBOTTOMPASTE*%
%ADD30R,0.0200X0.0200*%
%ADD33R,0.0512X0.0512*%
%ADD34R,0.1400X0.1400*%
%ADD38R,0.0340X0.0340*%
%ADD39R,0.0970X0.0970*%
%ADD52C,0.0060*%
%ADD53R,0.0680X0.0680*%
%ADD54R,0.0780X0.0780*%
%ADD55R,0.0490X0.0490*%
G54D52*X87000Y101000D02*X416000D01*
X66000Y413000D02*Y112000D01*
X68500Y109500D02*X78500D01*
X68500Y415500D02*X78500D01*
X424500D02*X443000D01*
X445500Y413000D02*Y112000D01*
X424500Y109500D02*X443000D01*
X394500Y280500D02*X408500D01*
X87000Y424000D02*X416000D01*
X390000Y298500D02*Y285000D01*
X399000Y298500D02*Y294000D01*
X403500Y289500D02*X408500D01*
X335500Y360500D02*Y350500D01*
X349000Y355000D02*X352000D01*
X399000Y350500D02*Y341500D01*
X340000Y346000D02*X352000D01*
X385500Y355000D02*X394500D01*
X344500Y360500D02*Y359500D01*
X84500Y421500D02*G75*G02X87000Y424000I2500J0D01*G01*
X66000Y413000D02*G75*G02X68500Y415500I2500J0D01*G01*
X78500Y109500D02*G75*G02X84500Y103500I0J-6000D01*G01*
Y421500D02*G75*G02X78500Y415500I-6000J0D01*G01*
X68500Y109500D02*G75*G02X66000Y112000I0J2500D01*G01*
X87000Y101000D02*G75*G02X84500Y103500I0J2500D01*G01*
X445500Y112000D02*G75*G02X443000Y109500I-2500J0D01*G01*
X418500Y103500D02*G75*G02X416000Y101000I-2500J0D01*G01*
Y424000D02*G75*G02X418500Y421500I0J-2500D01*G01*
X443000Y415500D02*G75*G02X445500Y413000I0J-2500D01*G01*
X418500Y103500D02*G75*G02X424500Y109500I6000J0D01*G01*
Y415500D02*G75*G02X418500Y421500I0J6000D01*G01*
X408500Y280500D02*G75*G03X413000Y285000I0J4500D01*G01*
G75*G03X408500Y289500I-4500J0D01*G01*
X390000Y285000D02*G75*G03X394500Y280500I4500J0D01*G01*
X390000Y341500D02*G75*G03X394500Y337000I4500J0D01*G01*
G75*G03X399000Y341500I0J4500D01*G01*
Y298500D02*G75*G03X394500Y303000I-4500J0D01*G01*
G75*G03X390000Y298500I0J-4500D01*G01*
X385500Y355000D02*G75*G03X381000Y350500I0J-4500D01*G01*
G75*G03X385500Y346000I4500J0D01*G01*
X399000Y350500D02*G75*G03X394500Y355000I-4500J0D01*G01*
X390000Y341500D02*G75*G03X385500Y346000I-4500J0D01*G01*
X344500Y359500D02*G75*G03X349000Y355000I4500J0D01*G01*
X340000Y365000D02*G75*G03X335500Y360500I0J-4500D01*G01*
X344500D02*G75*G03X340000Y365000I-4500J0D01*G01*
X335500Y350500D02*G75*G03X340000Y346000I4500J0D01*G01*
X352000D02*G75*G03X356500Y350500I0J4500D01*G01*
G75*G03X352000Y355000I-4500J0D01*G01*
X399000Y294000D02*G75*G03X403500Y289500I4500J0D01*G01*
G54D33*X339319Y186095D02*X341681D01*
X339319Y197905D02*X341681D01*
X292319Y167595D02*X294681D01*
X292319Y179405D02*X294681D01*
X374595Y177681D02*Y175319D01*
X386405Y177681D02*Y175319D01*
X369595Y187681D02*Y185319D01*
X381405Y187681D02*Y185319D01*
G54D34*X403400Y258900D02*Y255100D01*
X424600Y258900D02*Y255100D01*
G54D33*X355595Y324181D02*Y321819D01*
X367405Y324181D02*Y321819D01*
X346405Y328681D02*Y326319D01*
X334595Y328681D02*Y326319D01*
X405819Y210595D02*X408181D01*
X405819Y222405D02*X408181D01*
X250095Y410681D02*Y408319D01*
X261905Y410681D02*Y408319D01*
X243819Y388095D02*X246181D01*
X243819Y399905D02*X246181D01*
G54D34*X326400Y135400D02*Y131600D01*
X347600Y135400D02*Y131600D01*
G54D38*X264000Y392300D02*Y391700D01*
X256200Y392300D02*Y391700D01*
X260100Y400500D02*Y399900D01*
G54D33*X278319Y323095D02*X280681D01*
X278319Y334905D02*X280681D01*
G54D38*X263000Y323300D02*Y322700D01*
X270800Y323300D02*Y322700D01*
X266900Y315100D02*Y314500D01*
G54D33*X325405Y320181D02*Y317819D01*
X313595Y320181D02*Y317819D01*
X192905Y400681D02*Y398319D01*
X181095Y400681D02*Y398319D01*
G54D38*X263000Y339300D02*Y338700D01*
X270800Y339300D02*Y338700D01*
X266900Y331100D02*Y330500D01*
G54D33*X243095Y369681D02*Y367319D01*
X254905Y369681D02*Y367319D01*
X261819Y357595D02*X264181D01*
X261819Y369405D02*X264181D01*
G54D53*X320000Y213500D02*Y206500D01*
X345000Y213500D02*Y206500D01*
X273000Y213500D02*Y206500D01*
X298000Y213500D02*Y206500D01*
G54D54*X318700Y380300D02*Y379700D01*
X340300Y380300D02*Y379700D01*
G54D33*X292319Y186095D02*X294681D01*
X292319Y197905D02*X294681D01*
X254905Y316181D02*Y313819D01*
X243095Y316181D02*Y313819D01*
G54D38*X349500Y185800D02*Y185200D01*
X357300Y185800D02*Y185200D01*
X353400Y177600D02*Y177000D01*
G54D33*X320095Y183681D02*Y181319D01*
X331905Y183681D02*Y181319D01*
X320095Y193181D02*Y190819D01*
X331905Y193181D02*Y190819D01*
X286905Y259181D02*Y256819D01*
X275095Y259181D02*Y256819D01*
X286905Y274181D02*Y271819D01*
X275095Y274181D02*Y271819D01*
X372905Y311681D02*Y309319D01*
X361095Y311681D02*Y309319D01*
G54D38*X302500Y185800D02*Y185200D01*
X310300Y185800D02*Y185200D01*
X306400Y177600D02*Y177000D01*
G54D33*X377957Y162893D02*Y162107D01*
X385043Y162893D02*Y162107D01*
X273095Y183681D02*Y181319D01*
X284905Y183681D02*Y181319D01*
X367957Y332393D02*Y331607D01*
X375043Y332393D02*Y331607D01*
X323043Y328893D02*Y328107D01*
X315957Y328893D02*Y328107D01*
G54D55*X329200Y260500D02*X332800D01*
X329200Y270500D02*X332800D01*
G54D33*X273095Y193181D02*Y190819D01*
X284905Y193181D02*Y190819D01*
X292405Y286681D02*Y284319D01*
X280595Y286681D02*Y284319D01*
X328595Y286681D02*Y284319D01*
X340405Y286681D02*Y284319D01*
X259095Y305181D02*Y302819D01*
X270905Y305181D02*Y302819D01*
X317819Y271405D02*X320181D01*
X317819Y259595D02*X320181D01*
X243202Y331138D02*Y328776D01*
X255012Y331138D02*Y328776D01*
X365905Y381181D02*Y378819D01*
X354095Y381181D02*Y378819D01*
X248095Y290681D02*Y288319D01*
X259905Y290681D02*Y288319D01*
X224819Y208095D02*X227181D01*
X224819Y219905D02*X227181D01*
X339319Y167595D02*X341681D01*
X339319Y179405D02*X341681D01*
G54D34*X222600Y189100D02*X226400D01*
X222600Y167900D02*X226400D01*
X237100Y122400D02*X240900D01*
X237100Y143600D02*X240900D01*
G54D33*X243095Y357181D02*Y354819D01*
X254905Y357181D02*Y354819D01*
X208457Y210893D02*Y210107D01*
X215543Y210893D02*Y210107D01*
X224819Y265905D02*X227181D01*
X224819Y254095D02*X227181D01*
X208457Y219893D02*Y219107D01*
X215543Y219893D02*Y219107D01*
G54D39*X88600Y267100D02*X96400D01*
X88600Y285900D02*X96400D01*
G54D33*X121819Y298905D02*X124181D01*
X121819Y287095D02*X124181D01*
X204957Y233393D02*Y232607D01*
X212043Y233393D02*Y232607D01*
X195607Y115957D02*X196393D01*
X195607Y123043D02*X196393D01*
X168607Y192043D02*X169393D01*
X168607Y184957D02*X169393D01*
X223607Y299457D02*X224393D01*
X223607Y306543D02*X224393D01*
X156405Y400681D02*Y398319D01*
X144595Y400681D02*Y398319D01*
Y410681D02*Y408319D01*
X156405Y410681D02*Y408319D01*
X211043Y370393D02*Y369607D01*
X203957Y370393D02*Y369607D01*
G54D34*X380600Y258900D02*Y255100D01*
X359400Y258900D02*Y255100D01*
G54D33*X114595Y400181D02*Y397819D01*
X126405Y400181D02*Y397819D01*
X180095Y379681D02*Y377319D01*
X191905Y379681D02*Y377319D01*
X171905Y386681D02*Y384319D01*
X160095Y386681D02*Y384319D01*
X135595Y377181D02*Y374819D01*
X147405Y377181D02*Y374819D01*
X115595Y377181D02*Y374819D01*
X127405Y377181D02*Y374819D01*
Y386681D02*Y384319D01*
X115595Y386681D02*Y384319D01*
X207319Y329595D02*X209681D01*
X207319Y341405D02*X209681D01*
X198595Y303181D02*Y300819D01*
X210405Y303181D02*Y300819D01*
X203457Y315393D02*Y314607D01*
X210543Y315393D02*Y314607D01*
X140905Y142681D02*Y140319D01*
X129095Y142681D02*Y140319D01*
G54D30*X144500Y194000D02*X151000D01*
X144500Y189000D02*X151000D01*
X144500Y184000D02*X151000D01*
X144500Y179000D02*X151000D01*
X144500Y174000D02*X151000D01*
X144500Y169000D02*X151000D01*
X144500Y164000D02*X151000D01*
X124000D02*X130500D01*
X124000Y169000D02*X130500D01*
X124000Y174000D02*X130500D01*
X124000Y179000D02*X130500D01*
X124000Y184000D02*X130500D01*
X124000Y189000D02*X130500D01*
X124000Y194000D02*X130500D01*
X103500D02*X110000D01*
X103500Y189000D02*X110000D01*
X103500Y184000D02*X110000D01*
X103500Y179000D02*X110000D01*
X103500Y174000D02*X110000D01*
X103500Y169000D02*X110000D01*
X103500Y164000D02*X110000D01*
X103500Y159000D02*X110000D01*
X83000D02*X89500D01*
X83000Y164000D02*X89500D01*
X83000Y169000D02*X89500D01*
X83000Y174000D02*X89500D01*
X83000Y179000D02*X89500D01*
X83000Y184000D02*X89500D01*
X83000Y189000D02*X89500D01*
X83000Y194000D02*X89500D01*
G54D33*X204957Y244893D02*Y244107D01*
X212043Y244893D02*Y244107D01*
X102095Y244681D02*Y242319D01*
X113905Y244681D02*Y242319D01*
X143095Y233181D02*Y230819D01*
X154905Y233181D02*Y230819D01*
X174905Y233181D02*Y230819D01*
X163095Y233181D02*Y230819D01*
Y244181D02*Y241819D01*
X174905Y244181D02*Y241819D01*
X205595Y266681D02*Y264319D01*
X217405Y266681D02*Y264319D01*
X157595Y266181D02*Y263819D01*
X169405Y266181D02*Y263819D01*
X134095Y264681D02*Y262319D01*
X145905Y264681D02*Y262319D01*
Y255681D02*Y253319D01*
X134095Y255681D02*Y253319D01*
X154905Y320181D02*Y317819D01*
X143095Y320181D02*Y317819D01*
G54D38*X174200Y327500D02*X174800D01*
X174200Y319700D02*X174800D01*
X166000Y323600D02*X166600D01*
G54D33*X154905Y244181D02*Y241819D01*
X143095Y244181D02*Y241819D01*
X254905Y343181D02*Y340819D01*
X243095Y343181D02*Y340819D01*
X164107Y120043D02*X164893D01*
X164107Y112957D02*X164893D01*
X150405Y356181D02*Y353819D01*
X138595Y356181D02*Y353819D01*
X182595Y350181D02*Y347819D01*
X194405Y350181D02*Y347819D01*
X129595Y122181D02*Y119819D01*
X141405Y122181D02*Y119819D01*
X182595Y341181D02*Y338819D01*
X194405Y341181D02*Y338819D01*
X138595Y347181D02*Y344819D01*
X150405Y347181D02*Y344819D01*
X194405Y331681D02*Y329319D01*
X182595Y331681D02*Y329319D01*
X194405Y322681D02*Y320319D01*
X182595Y322681D02*Y320319D01*
G54D38*X136000Y319800D02*Y319200D01*
X128200Y319800D02*Y319200D01*
X132100Y328000D02*Y327400D01*
G54D33*X129595Y132181D02*Y129819D01*
X141405Y132181D02*Y129819D01*
M02*
