G04 start of page 7 for group -4063 idx -4063 *
G04 Title: (unknown), componentmask *
G04 Creator: pcb 20091103 *
G04 CreationDate: Sun Aug  4 14:17:31 2024 UTC *
G04 For: bh *
G04 Format: Gerber/RS-274X *
G04 PCB-Dimensions: 560000 580000 *
G04 PCB-Coordinate-Origin: lower left *
%MOIN*%
%FSLAX25Y25*%
%LNTOPMASK*%
%ADD11C,0.0200*%
%ADD19C,0.0900*%
%ADD41C,0.0220*%
%ADD47C,0.0709*%
%ADD52C,0.0060*%
%ADD57C,0.0660*%
%ADD58C,0.0960*%
%ADD59C,0.0580*%
%ADD60C,0.1417*%
%ADD61C,0.1315*%
%ADD62C,0.1760*%
%ADD63C,0.0710*%
%ADD64C,0.0940*%
%ADD65C,0.1120*%
%ADD66C,0.0968*%
%ADD67C,0.1005*%
%ADD68R,0.0300X0.0300*%
%ADD69R,0.0220X0.0220*%
%ADD70R,0.0572X0.0572*%
%ADD71R,0.1460X0.1460*%
%ADD72R,0.0540X0.0540*%
%ADD73R,0.1016X0.1016*%
%ADD74R,0.1290X0.1290*%
%ADD75R,0.0400X0.0400*%
%ADD76R,0.1030X0.1030*%
G54D11*G36*
X160700Y130300D02*Y123700D01*
X167300D01*
Y130300D01*
X160700D01*
G37*
G54D57*X164000Y137000D03*
G54D11*G36*
X201200Y172800D02*Y163200D01*
X210800D01*
Y172800D01*
X201200D01*
G37*
G54D58*X206000Y178000D03*
Y188000D03*
G54D59*X181500Y183000D03*
G54D11*G36*
X178600Y215900D02*Y210100D01*
X184400D01*
Y215900D01*
X178600D01*
G37*
G54D60*X89000Y123500D03*
G54D11*G36*
X213200Y123300D02*Y113700D01*
X222800D01*
Y123300D01*
X213200D01*
G37*
G54D58*X218000Y128500D03*
Y138500D03*
G54D11*G36*
X221200Y349800D02*Y343200D01*
X227800D01*
Y349800D01*
X221200D01*
G37*
G36*
X222100Y369400D02*Y363600D01*
X227900D01*
Y369400D01*
X222100D01*
G37*
G54D59*X225000Y396500D03*
G54D57*X224500Y336500D03*
Y326500D03*
G54D61*X97000Y344000D03*
G54D62*Y324300D03*
Y363700D03*
G54D60*X89000Y401500D03*
G54D62*X79300Y344000D03*
G54D11*G36*
X122950Y411050D02*Y403950D01*
X130050D01*
Y411050D01*
X122950D01*
G37*
G54D63*X136500Y407500D03*
G54D11*G36*
X160950Y411050D02*Y403950D01*
X168050D01*
Y411050D01*
X160950D01*
G37*
G54D63*X174500Y407500D03*
G54D11*G36*
X198950Y411050D02*Y403950D01*
X206050D01*
Y411050D01*
X198950D01*
G37*
G54D63*X212500Y407500D03*
G54D60*X416500Y401500D03*
G54D64*X318000Y400000D03*
X358000D03*
X378000Y380000D03*
G54D11*G36*
X282700Y299800D02*Y293200D01*
X289300D01*
Y299800D01*
X282700D01*
G37*
G54D64*X298000Y380000D03*
Y320000D03*
G54D19*X426000Y369000D03*
Y359000D03*
Y349000D03*
Y339000D03*
G54D47*X420606Y376500D03*
G54D64*X318000Y300000D03*
G54D65*X278000Y350000D03*
G54D66*X407000Y191500D03*
Y181500D03*
Y201500D03*
G54D67*X417100Y191500D03*
Y171500D03*
Y211500D03*
X436100Y171500D03*
Y211500D03*
G54D60*X416500Y123500D03*
G54D11*G36*
X380200Y129300D02*Y122700D01*
X386800D01*
Y129300D01*
X380200D01*
G37*
G54D57*X363500Y126000D03*
G54D11*G36*
X338700Y119300D02*Y112700D01*
X345300D01*
Y119300D01*
X338700D01*
G37*
G54D57*X332000Y116000D03*
G54D11*G36*
X260600Y260900D02*Y255100D01*
X266400D01*
Y260900D01*
X260600D01*
G37*
G54D59*X293500Y258000D03*
G54D11*G36*
X307600Y275900D02*Y270100D01*
X313400D01*
Y275900D01*
X307600D01*
G37*
G36*
X290600D02*Y270100D01*
X296400D01*
Y275900D01*
X290600D01*
G37*
G54D59*X263500Y273000D03*
X310500Y258000D03*
G54D11*G36*
X421700Y301800D02*Y295200D01*
X428300D01*
Y301800D01*
X421700D01*
G37*
G54D57*X425000Y308500D03*
Y318500D03*
G54D11*G36*
X411794Y301740D02*Y295140D01*
X418394D01*
Y301740D01*
X411794D01*
G37*
G54D47*X420606Y331500D03*
G54D59*X340500Y273000D03*
G54D64*X378000Y320000D03*
X358000Y300000D03*
G54D11*G36*
X337600Y260900D02*Y255100D01*
X343400D01*
Y260900D01*
X337600D01*
G37*
G54D68*X123500Y129500D02*X130000D01*
X144000D02*X150500D01*
X144000Y134500D02*X150500D01*
X123500Y124500D02*X130000D01*
X123500Y119500D02*X130000D01*
X123500Y114500D02*X130000D01*
X144000D02*X150500D01*
X144000Y119500D02*X150500D01*
X144000Y124500D02*X150500D01*
X123500Y144500D02*X130000D01*
X144000D02*X150500D01*
X123500Y139500D02*X130000D01*
X144000D02*X150500D01*
X123500Y134500D02*X130000D01*
X172500Y129500D02*X179000D01*
X172500Y124500D02*X179000D01*
X172500Y119500D02*X179000D01*
X172500Y114500D02*X179000D01*
X172500Y144500D02*X179000D01*
X172500Y139500D02*X179000D01*
X172500Y134500D02*X179000D01*
X193000Y114500D02*X199500D01*
X193000Y119500D02*X199500D01*
X193000Y124500D02*X199500D01*
X193000Y129500D02*X199500D01*
X193000Y134500D02*X199500D01*
X193000Y139500D02*X199500D01*
X193000Y144500D02*X199500D01*
G54D41*X275000Y129500D02*X277200D01*
G54D69*X275000Y126900D02*X277200D01*
X275000Y124400D02*X277200D01*
X275000Y121800D02*X277200D01*
G54D70*X267607Y120957D02*X268393D01*
X267607Y128043D02*X268393D01*
G54D69*X291700Y121700D02*X293900D01*
X291700Y124300D02*X293900D01*
X291700Y126800D02*X293900D01*
X291700Y129400D02*X293900D01*
G54D70*X286457Y136893D02*Y136107D01*
X293543Y136893D02*Y136107D01*
X286457Y114893D02*Y114107D01*
X293543Y114893D02*Y114107D01*
G54D71*X321400Y135400D02*Y131600D01*
X342600Y135400D02*Y131600D01*
G54D70*X254457Y163893D02*Y163107D01*
X261543Y163893D02*Y163107D01*
G54D68*X268500Y174500D02*X275000D01*
X268500Y189500D02*X275000D01*
X268500Y184500D02*X275000D01*
X268500Y179500D02*X275000D01*
X289000Y174500D02*X295500D01*
X289000Y179500D02*X295500D01*
X289000Y184500D02*X295500D01*
X289000Y189500D02*X295500D01*
G54D70*X268095Y201181D02*Y198819D01*
X279905Y201181D02*Y198819D01*
X240607Y193043D02*X241393D01*
X240607Y185957D02*X241393D01*
G54D72*X273190Y210469D02*Y208500D01*
X279100Y226217D02*Y208500D01*
G54D11*G36*
X280569Y220300D02*X284887Y215981D01*
X281068Y212163D01*
X276750Y216482D01*
X280569Y220300D01*
G37*
G36*
X273312Y215981D02*X277630Y220300D01*
X281449Y216482D01*
X277131Y212163D01*
X273312Y215981D01*
G37*
G54D73*X279100Y221493D02*Y220311D01*
G54D11*G36*
X276750Y225323D02*X281068Y229642D01*
X284887Y225824D01*
X280569Y221505D01*
X276750Y225323D01*
G37*
G36*
X277131Y229642D02*X281449Y225323D01*
X277630Y221505D01*
X273312Y225824D01*
X277131Y229642D01*
G37*
G54D72*X285000Y210469D02*Y208500D01*
X326100Y226217D02*Y208500D01*
G54D73*Y221493D02*Y220311D01*
G54D11*G36*
X327569Y220300D02*X331887Y215981D01*
X328068Y212163D01*
X323750Y216482D01*
X327569Y220300D01*
G37*
G36*
X320312Y215981D02*X324630Y220300D01*
X328449Y216482D01*
X324131Y212163D01*
X320312Y215981D01*
G37*
G36*
X323750Y225323D02*X328068Y229642D01*
X331887Y225824D01*
X327569Y221505D01*
X323750Y225323D01*
G37*
G36*
X324131Y229642D02*X328449Y225323D01*
X324630Y221505D01*
X320312Y225824D01*
X324131Y229642D01*
G37*
G54D68*X205500Y352500D02*X212000D01*
X205500Y357500D02*X212000D01*
X258500Y370500D02*X265000D01*
X258500Y375500D02*X265000D01*
X258500Y380500D02*X265000D01*
X238000Y359000D02*X244500D01*
X238000Y354000D02*X244500D01*
X238000Y380500D02*X244500D01*
X238000Y375500D02*X244500D01*
X238000Y370500D02*X244500D01*
X258500Y354000D02*X265000D01*
X258500Y359000D02*X265000D01*
X238000Y317500D02*X244500D01*
X258500D02*X265000D01*
X262000Y292000D02*X268500D01*
G54D70*X229457Y285893D02*Y285107D01*
X236543Y285893D02*Y285107D01*
G54D68*X238000Y332500D02*X244500D01*
X238000Y327500D02*X244500D01*
X238000Y322500D02*X244500D01*
X238000Y349000D02*X244500D01*
X238000Y344000D02*X244500D01*
X258500Y322500D02*X265000D01*
X258500Y327500D02*X265000D01*
X258500Y332500D02*X265000D01*
X258500Y344000D02*X265000D01*
X258500Y349000D02*X265000D01*
G54D71*X380600Y258900D02*Y255100D01*
X359400Y258900D02*Y255100D01*
X403400Y258900D02*Y255100D01*
X424600Y258900D02*Y255100D01*
G54D68*X315500Y189500D02*X322000D01*
X315500Y184500D02*X322000D01*
X315500Y179500D02*X322000D01*
X315500Y174500D02*X322000D01*
G54D70*X335405Y156681D02*Y154319D01*
X323595Y156681D02*Y154319D01*
X347914Y155286D02*Y154500D01*
X355000Y155286D02*Y154500D01*
G54D68*X336000Y174500D02*X342500D01*
X336000Y179500D02*X342500D01*
X336000Y184500D02*X342500D01*
X336000Y189500D02*X342500D01*
G54D70*X292095Y201181D02*Y198819D01*
X303905Y201181D02*Y198819D01*
X315095Y201181D02*Y198819D01*
X326905Y201181D02*Y198819D01*
X339095Y201181D02*Y198819D01*
X350905Y201181D02*Y198819D01*
G54D72*X320190Y210469D02*Y208500D01*
X332000Y210469D02*Y208500D01*
G54D74*X387500Y233600D02*Y222400D01*
X364500Y233600D02*Y222400D01*
G54D70*X385457Y201893D02*Y201107D01*
X392543Y201893D02*Y201107D01*
X360957Y208893D02*Y208107D01*
X368043Y208893D02*Y208107D01*
G54D68*X364500Y189500D02*X371000D01*
X364500Y184500D02*X371000D01*
X385000Y174500D02*X391500D01*
X385000Y179500D02*X391500D01*
X385000Y184500D02*X391500D01*
X385000Y189500D02*X391500D01*
X364500Y179500D02*X371000D01*
X364500Y174500D02*X371000D01*
G54D70*X371457Y167393D02*Y166607D01*
X378543Y167393D02*Y166607D01*
G54D68*X185000Y357500D02*X191500D01*
X185000Y352500D02*X191500D01*
X185000Y347500D02*X191500D01*
X205500Y342500D02*X212000D01*
X205500Y347500D02*X212000D01*
X205500Y316500D02*X212000D01*
X205500Y321500D02*X212000D01*
X205500Y326500D02*X212000D01*
X205500Y331500D02*X212000D01*
X185000Y342500D02*X191500D01*
X185000Y331500D02*X191500D01*
X185000Y326500D02*X191500D01*
G54D70*X177405Y340181D02*Y337819D01*
G54D68*X185000Y321500D02*X191500D01*
X187000Y373500D02*X193500D01*
G54D70*X205607Y374957D02*X206393D01*
X205607Y382043D02*X206393D01*
G54D68*X187000Y378500D02*X193500D01*
X187000Y383500D02*X193500D01*
X187000Y388500D02*X193500D01*
G54D70*X165595Y310681D02*Y308319D01*
Y301681D02*Y299319D01*
Y320181D02*Y317819D01*
Y329681D02*Y327319D01*
Y340181D02*Y337819D01*
X177405Y320181D02*Y317819D01*
Y329681D02*Y327319D01*
G54D68*X185000Y316500D02*X191500D01*
G54D70*X177405Y310681D02*Y308319D01*
Y301681D02*Y299319D01*
G54D75*X186000Y299800D02*Y299200D01*
X193800Y299800D02*Y299200D01*
X189900Y308000D02*Y307400D01*
G54D70*X204319Y309905D02*X206681D01*
X204319Y298095D02*X206681D01*
X223607Y306543D02*X224393D01*
X223607Y299457D02*X224393D01*
G54D68*X241500Y307000D02*X248000D01*
X241500Y302000D02*X248000D01*
X241500Y297000D02*X248000D01*
X241500Y292000D02*X248000D01*
G54D70*X248457Y285893D02*Y285107D01*
X255543Y285893D02*Y285107D01*
G54D68*X262000Y297000D02*X268500D01*
X262000Y302000D02*X268500D01*
X262000Y307000D02*X268500D01*
X151500Y342500D02*X158000D01*
X151500Y347500D02*X158000D01*
X151500Y352500D02*X158000D01*
X151500Y357500D02*X158000D01*
G54D75*X135800Y319800D02*Y319200D01*
X131900Y328000D02*Y327400D01*
G54D70*X142957Y327393D02*Y326607D01*
X150043Y327393D02*Y326607D01*
X143095Y320181D02*Y317819D01*
X154905Y320181D02*Y317819D01*
G54D75*X128000Y319800D02*Y319200D01*
G54D70*X124405Y340681D02*Y338319D01*
Y349681D02*Y347319D01*
G54D68*X120000Y309000D02*X126500D01*
X140500D02*X147000D01*
X120000Y304000D02*X126500D01*
X140500D02*X147000D01*
X120000Y299000D02*X126500D01*
X140500D02*X147000D01*
G54D70*X109543Y299393D02*Y298607D01*
G54D68*X120000Y294000D02*X126500D01*
X140500D02*X147000D01*
G54D70*X126043Y279893D02*Y279107D01*
X118957Y279893D02*Y279107D01*
G54D76*X88600Y285900D02*X96400D01*
G54D70*X85095Y310681D02*Y308319D01*
X96905Y310681D02*Y308319D01*
X102457Y299393D02*Y298607D01*
G54D76*X88600Y267100D02*X96400D01*
G54D68*X166500Y388500D02*X173000D01*
X166500Y383500D02*X173000D01*
X166500Y378500D02*X173000D01*
X166500Y373500D02*X173000D01*
X142500D02*X149000D01*
X142500Y378500D02*X149000D01*
X122000Y383500D02*X128500D01*
X122000Y378500D02*X128500D01*
X122000Y373500D02*X128500D01*
X122000Y388500D02*X128500D01*
X142500Y383500D02*X149000D01*
X142500Y388500D02*X149000D01*
X131000Y357500D02*X137500D01*
X131000Y352500D02*X137500D01*
X131000Y347500D02*X137500D01*
X131000Y342500D02*X137500D01*
G54D70*X112957Y356893D02*Y356107D01*
X120043Y356893D02*Y356107D01*
X112595Y340681D02*Y338319D01*
Y349681D02*Y347319D01*
X112957Y331393D02*Y330607D01*
X120043Y331393D02*Y330607D01*
G54D68*X141000Y252500D02*X147500D01*
X141000Y247500D02*X147500D01*
X141000Y242500D02*X147500D01*
X141000Y237500D02*X147500D01*
X206000D02*X212500D01*
X141000Y232500D02*X147500D01*
X206000D02*X212500D01*
X161500D02*X168000D01*
X161500Y237500D02*X168000D01*
X161500Y242500D02*X168000D01*
X141000Y267500D02*X147500D01*
X141000Y262500D02*X147500D01*
X141000Y257500D02*X147500D01*
X161500Y247500D02*X168000D01*
X161500Y252500D02*X168000D01*
X161500Y257500D02*X168000D01*
X161500Y262500D02*X168000D01*
X185500Y247500D02*X192000D01*
X185500Y242500D02*X192000D01*
X185500Y237500D02*X192000D01*
X185500Y232500D02*X192000D01*
X206000Y242500D02*X212500D01*
X206000Y247500D02*X212500D01*
X206000Y256000D02*X212500D01*
X206000Y261000D02*X212500D01*
X206000Y266000D02*X212500D01*
X206000Y271000D02*X212500D01*
X209500Y219000D02*X216000D01*
X209500Y214000D02*X216000D01*
X209500Y209000D02*X216000D01*
X209500Y204000D02*X216000D01*
X230000D02*X236500D01*
X230000Y209000D02*X236500D01*
X230000Y214000D02*X236500D01*
X230000Y219000D02*X236500D01*
G54D70*X228607Y226457D02*X229393D01*
X228607Y233543D02*X229393D01*
G54D68*X161500Y267500D02*X168000D01*
X185500Y271000D02*X192000D01*
X185500Y266000D02*X192000D01*
X185500Y261000D02*X192000D01*
X185500Y256000D02*X192000D01*
G54D70*X231043Y251393D02*Y250607D01*
X223957Y251393D02*Y250607D01*
G54D68*X94500Y254500D02*X101000D01*
X94500Y249500D02*X101000D01*
X94500Y244500D02*X101000D01*
G54D70*X85819Y250405D02*X88181D01*
G54D68*X115000Y239500D02*X121500D01*
G54D70*X114957Y231393D02*Y230607D01*
X122043Y231393D02*Y230607D01*
X103043Y231393D02*Y230607D01*
X95957Y231393D02*Y230607D01*
G54D68*X115000Y244500D02*X121500D01*
X115000Y249500D02*X121500D01*
X115000Y254500D02*X121500D01*
X144500Y179000D02*X151000D01*
X144500Y174000D02*X151000D01*
X144500Y169000D02*X151000D01*
X144500Y164000D02*X151000D01*
X144500Y194000D02*X151000D01*
X144500Y189000D02*X151000D01*
X144500Y184000D02*X151000D01*
X94500Y239500D02*X101000D01*
G54D70*X85819Y238595D02*X88181D01*
X87457Y211893D02*Y211107D01*
G54D68*X165000Y164000D02*X171500D01*
X165000Y169000D02*X171500D01*
X165000Y174000D02*X171500D01*
X165000Y179000D02*X171500D01*
X165000Y184000D02*X171500D01*
X165000Y189000D02*X171500D01*
X165000Y194000D02*X171500D01*
G54D70*X181819Y164595D02*X184181D01*
X181819Y176405D02*X184181D01*
X94543Y211893D02*Y211107D01*
G54D68*X83000Y194000D02*X89500D01*
X83000Y189000D02*X89500D01*
X103500Y184000D02*X110000D01*
X103500Y189000D02*X110000D01*
X103500Y194000D02*X110000D01*
X103500Y179000D02*X110000D01*
X83000Y174000D02*X89500D01*
X103500D02*X110000D01*
X83000Y169000D02*X89500D01*
X103500D02*X110000D01*
X83000Y164000D02*X89500D01*
X83000Y159000D02*X89500D01*
X83000Y184000D02*X89500D01*
X83000Y179000D02*X89500D01*
X103500Y159000D02*X110000D01*
X103500Y164000D02*X110000D01*
G54D70*X285543Y406893D02*Y406107D01*
X278457Y406893D02*Y406107D01*
G54D68*X265500Y396500D02*X272000D01*
X265500Y401500D02*X272000D01*
X265500Y406500D02*X272000D01*
X265500Y411500D02*X272000D01*
X245000D02*X251500D01*
X245000Y406500D02*X251500D01*
X258500Y385500D02*X265000D01*
X238000D02*X244500D01*
G54D70*X237607Y394957D02*X238393D01*
G54D68*X245000Y401500D02*X251500D01*
X245000Y396500D02*X251500D01*
G54D70*X237607Y402043D02*X238393D01*
G54D52*X87000Y101000D02*X416000D01*
X66000Y413000D02*Y112000D01*
X68500Y109500D02*X78500D01*
X68500Y415500D02*X78500D01*
X424500D02*X443000D01*
X445500Y413000D02*Y112000D01*
X424500Y109500D02*X443000D01*
X394500Y280500D02*X408500D01*
X87000Y424000D02*X416000D01*
X390000Y298500D02*Y285000D01*
X399000Y298500D02*Y294000D01*
X403500Y289500D02*X408500D01*
X335500Y360500D02*Y350500D01*
X349000Y355000D02*X352000D01*
X399000Y350500D02*Y341500D01*
X340000Y346000D02*X352000D01*
X385500Y355000D02*X394500D01*
X344500Y360500D02*Y359500D01*
X84500Y421500D02*G75*G02X87000Y424000I2500J0D01*G01*
X66000Y413000D02*G75*G02X68500Y415500I2500J0D01*G01*
X78500Y109500D02*G75*G02X84500Y103500I0J-6000D01*G01*
Y421500D02*G75*G02X78500Y415500I-6000J0D01*G01*
X68500Y109500D02*G75*G02X66000Y112000I0J2500D01*G01*
X87000Y101000D02*G75*G02X84500Y103500I0J2500D01*G01*
X445500Y112000D02*G75*G02X443000Y109500I-2500J0D01*G01*
X418500Y103500D02*G75*G02X416000Y101000I-2500J0D01*G01*
Y424000D02*G75*G02X418500Y421500I0J-2500D01*G01*
X443000Y415500D02*G75*G02X445500Y413000I0J-2500D01*G01*
X418500Y103500D02*G75*G02X424500Y109500I6000J0D01*G01*
Y415500D02*G75*G02X418500Y421500I0J6000D01*G01*
X408500Y280500D02*G75*G03X413000Y285000I0J4500D01*G01*
G75*G03X408500Y289500I-4500J0D01*G01*
X390000Y285000D02*G75*G03X394500Y280500I4500J0D01*G01*
X390000Y341500D02*G75*G03X394500Y337000I4500J0D01*G01*
G75*G03X399000Y341500I0J4500D01*G01*
Y298500D02*G75*G03X394500Y303000I-4500J0D01*G01*
G75*G03X390000Y298500I0J-4500D01*G01*
X385500Y355000D02*G75*G03X381000Y350500I0J-4500D01*G01*
G75*G03X385500Y346000I4500J0D01*G01*
X399000Y350500D02*G75*G03X394500Y355000I-4500J0D01*G01*
X390000Y341500D02*G75*G03X385500Y346000I-4500J0D01*G01*
X344500Y359500D02*G75*G03X349000Y355000I4500J0D01*G01*
X340000Y365000D02*G75*G03X335500Y360500I0J-4500D01*G01*
X344500D02*G75*G03X340000Y365000I-4500J0D01*G01*
X335500Y350500D02*G75*G03X340000Y346000I4500J0D01*G01*
X352000D02*G75*G03X356500Y350500I0J4500D01*G01*
G75*G03X352000Y355000I-4500J0D01*G01*
X399000Y294000D02*G75*G03X403500Y289500I4500J0D01*G01*
M02*
