G04 start of page 11 for group -4079 idx -4079 *
G04 Title: (unknown), topsilk *
G04 Creator: pcb 20091103 *
G04 CreationDate: Sun Apr 13 13:29:21 2025 UTC *
G04 For: bh *
G04 Format: Gerber/RS-274X *
G04 PCB-Dimensions: 730000 950000 *
G04 PCB-Coordinate-Origin: lower left *
%MOIN*%
%FSLAX25Y25*%
%LNTOPSILK*%
%ADD11C,0.0200*%
%ADD13C,0.0100*%
%ADD14C,0.0180*%
%ADD52C,0.0060*%
%ADD56C,0.0102*%
%ADD86C,0.0066*%
%ADD87C,0.0080*%
%ADD88C,0.0150*%
%ADD89C,0.0090*%
%ADD90C,0.0120*%
%ADD91C,0.0079*%
G54D11*G36*
X417000Y309000D02*Y314000D01*
X436000D01*
Y309000D01*
X417000D01*
G37*
G36*
X473500D02*X455500D01*
Y314000D01*
X473500D01*
Y309000D01*
G37*
G36*
X454500Y380500D02*Y383500D01*
X493000D01*
Y380500D01*
X454500D01*
G37*
G54D52*X218500Y310500D02*Y316500D01*
X220000Y318000D01*
X456000Y382000D02*X451500D01*
Y391500D01*
X412000Y311500D02*X422500D01*
X478500D02*X469000D01*
X432500D02*X461000D01*
X445000D02*X430500Y297000D01*
X444500Y311500D02*X459000Y297000D01*
X379500Y104500D02*X390000D01*
X451500Y391500D02*X457500D01*
X491500Y382000D02*X496000D01*
Y371500D01*
X491500D01*
G54D56*X224000Y313190D02*Y304300D01*
Y313190D02*X225270Y314460D01*
X229080D01*
X230350Y313190D01*
Y304300D01*
X224000Y309380D02*X230350D01*
G54D86*X250000Y344840D02*Y338200D01*
X253320D01*
G54D56*X297770Y285300D02*X301580D01*
X296500Y286570D02*X297770Y285300D01*
X296500Y294190D02*Y286570D01*
Y294190D02*X297770Y295460D01*
X301580D01*
G54D86*X213500Y241840D02*Y235200D01*
X216820D01*
X239000Y296340D02*Y289700D01*
X242320D01*
G54D56*X218500Y394460D02*X223580D01*
X224850Y393190D01*
Y390650D01*
X223580Y389380D02*X224850Y390650D01*
X219770Y389380D02*X223580D01*
X219770Y394460D02*Y384300D01*
Y389380D02*X224850Y384300D01*
X253000Y393190D02*Y384300D01*
Y393190D02*X254270Y394460D01*
X258080D01*
X259350Y393190D01*
Y384300D01*
X253000Y389380D02*X259350D01*
X296580Y394460D02*X297850Y393190D01*
X292770Y394460D02*X296580D01*
X291500Y393190D02*X292770Y394460D01*
X291500Y393190D02*Y385570D01*
X292770Y384300D01*
X296580D01*
X297850Y385570D01*
Y388110D02*Y385570D01*
X296580Y389380D02*X297850Y388110D01*
X294040Y389380D02*X296580D01*
G54D86*X285500Y375840D02*Y369200D01*
X288820D01*
X241000Y375840D02*Y369200D01*
X244320D01*
X364000Y398840D02*Y392200D01*
X367320D01*
X357000Y319840D02*Y313200D01*
X360320D01*
X357000Y346340D02*Y339700D01*
X360320D01*
X357000Y372840D02*Y366200D01*
X360320D01*
X304000Y344840D02*Y338200D01*
X307320D01*
X304000Y318840D02*Y312200D01*
X307320D01*
X360500Y294340D02*Y287700D01*
X363820D01*
X303500Y258340D02*Y251700D01*
X307650Y258340D02*Y251700D01*
X303500Y255020D02*X307650D01*
G54D56*X510770Y285300D02*X514580D01*
X509500Y286570D02*X510770Y285300D01*
X509500Y294190D02*Y286570D01*
Y294190D02*X510770Y295460D01*
X514580D01*
G54D86*X433500Y176840D02*Y170200D01*
X437650Y176840D02*Y170200D01*
X433500Y173520D02*X437650D01*
X482500Y176840D02*Y170200D01*
X486650Y176840D02*Y170200D01*
X482500Y173520D02*X486650D01*
G54D56*X426500Y106880D02*X431580D01*
X456000D02*X461080D01*
X458540Y109420D02*Y104340D01*
X343800Y104900D02*X337450Y111250D01*
X333640D02*X337450D01*
X333640D02*Y104900D01*
X342530Y114300D02*X343800Y115570D01*
X339990Y114300D02*X342530D01*
X339990D02*X338720Y115570D01*
Y118110D02*Y115570D01*
Y118110D02*X339990Y119380D01*
X342530D01*
X343800Y118110D02*X342530Y119380D01*
X343800Y118110D02*Y115570D01*
X337450Y114300D02*X338720Y115570D01*
X334910Y114300D02*X337450D01*
X334910D02*X333640Y115570D01*
Y118110D02*Y115570D01*
Y118110D02*X334910Y119380D01*
X337450D01*
X338720Y118110D02*X337450Y119380D01*
X342530Y122431D02*X343800Y123701D01*
X334910Y122431D02*X342530D01*
X334910D02*X333640Y123701D01*
Y126241D02*Y123701D01*
Y126241D02*X334910Y127511D01*
X342530D01*
X343800Y126241D02*X342530Y127511D01*
X343800Y126241D02*Y123701D01*
X341260Y122431D02*X336180Y127511D01*
X333640Y134371D02*X334910Y135641D01*
X333640Y134371D02*Y131831D01*
X334910Y130561D02*X333640Y131831D01*
X334910Y130561D02*X342530D01*
X343800Y131831D01*
X338720Y134371D02*X339990Y135641D01*
X338720Y134371D02*Y130561D01*
X343800Y134371D02*Y131831D01*
Y134371D02*X342530Y135641D01*
X339990D02*X342530D01*
X541270Y357800D02*X545080D01*
X540000Y359070D02*X541270Y357800D01*
X540000Y366690D02*Y359070D01*
Y366690D02*X541270Y367960D01*
X545080D01*
X540770Y283800D02*X544580D01*
X539500Y285070D02*X540770Y283800D01*
X539500Y292690D02*Y285070D01*
Y292690D02*X540770Y293960D01*
X544580D01*
X539000Y317960D02*Y307800D01*
Y309070D02*X540270Y307800D01*
X542810D01*
X544080Y309070D01*
Y311610D02*Y309070D01*
X542810Y312880D02*X544080Y311610D01*
X540270Y312880D02*X542810D01*
X539000Y311610D02*X540270Y312880D01*
X542810Y302380D02*X544080Y301110D01*
X540270Y302380D02*X542810D01*
X539000Y301110D02*X540270Y302380D01*
X539000Y301110D02*Y298570D01*
X540270Y297300D01*
X544080Y302380D02*Y298570D01*
X545350Y297300D01*
X540270D02*X542810D01*
X544080Y298570D01*
X463500Y362190D02*X464770Y363460D01*
X467310D01*
X468580Y362190D01*
Y354570D01*
X467310Y353300D02*X468580Y354570D01*
X464770Y353300D02*X467310D01*
X463500Y354570D02*X464770Y353300D01*
Y358380D02*X468580D01*
X471630Y354570D02*X472900Y353300D01*
X471630Y362190D02*Y354570D01*
Y362190D02*X472900Y363460D01*
X475440D01*
X476710Y362190D01*
Y354570D01*
X475440Y353300D02*X476710Y354570D01*
X472900Y353300D02*X475440D01*
X471630Y355840D02*X476710Y360920D01*
X479761Y363460D02*Y362190D01*
X486111Y355840D01*
Y353300D01*
X479761Y355840D02*Y353300D01*
Y355840D02*X486111Y362190D01*
Y363460D02*Y362190D01*
X490431Y353300D02*X492971D01*
X491701Y363460D02*Y353300D01*
X489161Y360920D02*X491701Y363460D01*
X496022Y353300D02*X501102Y358380D01*
Y362190D02*Y358380D01*
X499832Y363460D02*X501102Y362190D01*
X497292Y363460D02*X499832D01*
X496022Y362190D02*X497292Y363460D01*
X496022Y362190D02*Y359650D01*
X497292Y358380D01*
X501102D01*
X504810Y354380D02*X506080Y353110D01*
X502270Y354380D02*X504810D01*
X501000Y353110D02*X502270Y354380D01*
X501000Y353110D02*Y350570D01*
X502270Y349300D01*
X506080Y354380D02*Y350570D01*
X507350Y349300D01*
X502270D02*X504810D01*
X506080Y350570D01*
X510400D02*X518020Y358190D01*
X521071Y359460D02*Y349300D01*
Y350570D02*X522341Y349300D01*
X524881D01*
X526151Y350570D01*
Y353110D02*Y350570D01*
X524881Y354380D02*X526151Y353110D01*
X522341Y354380D02*X524881D01*
X521071Y353110D02*X522341Y354380D01*
X333700Y153000D02*X327350Y159350D01*
X323540D02*X327350D01*
X323540D02*Y153000D01*
X333700Y162400D02*X328620Y167480D01*
X324810D02*X328620D01*
X323540Y166210D02*X324810Y167480D01*
X323540Y166210D02*Y163670D01*
X324810Y162400D02*X323540Y163670D01*
X324810Y162400D02*X327350D01*
X328620Y163670D01*
Y167480D02*Y163670D01*
X332430Y170531D02*X333700Y171801D01*
X324810Y170531D02*X332430D01*
X324810D02*X323540Y171801D01*
Y174341D02*Y171801D01*
Y174341D02*X324810Y175611D01*
X332430D01*
X333700Y174341D02*X332430Y175611D01*
X333700Y174341D02*Y171801D01*
X331160Y170531D02*X326080Y175611D01*
X323540Y182471D02*X324810Y183741D01*
X323540Y182471D02*Y179931D01*
X324810Y178661D02*X323540Y179931D01*
X324810Y178661D02*X332430D01*
X333700Y179931D01*
X328620Y182471D02*X329890Y183741D01*
X328620Y182471D02*Y178661D01*
X333700Y182471D02*Y179931D01*
Y182471D02*X332430Y183741D01*
X329890D02*X332430D01*
G54D86*X385500Y153840D02*Y147200D01*
X389650Y153840D02*Y147200D01*
X385500Y150520D02*X389650D01*
X304500Y234840D02*Y228200D01*
X307820D01*
X386500Y176840D02*Y170200D01*
X390650Y176840D02*Y170200D01*
X386500Y173520D02*X390650D01*
X327500Y206340D02*Y199700D01*
X331650Y206340D02*Y199700D01*
X327500Y203020D02*X331650D01*
G54D87*X517055Y318925D02*X557606D01*
Y322862D02*X585559D01*
X517055Y372075D02*X557606D01*
Y368138D02*X585559D01*
X517055Y318925D02*Y372075D01*
X585559Y322862D02*Y368138D01*
X557606Y318925D02*Y322862D01*
Y372075D02*Y368138D01*
X471107Y202755D02*X471893D01*
X471107Y197245D02*X471893D01*
X495607Y195755D02*X496393D01*
X495607Y190245D02*X496393D01*
G54D11*X504900Y231200D02*Y207800D01*
G54D13*Y231200D02*X498800Y234500D01*
X462100D02*X498800D01*
X462100D02*Y204500D01*
X498800D01*
X504900Y207800D01*
G54D11*X499900Y257400D02*Y239600D01*
G54D13*X506900Y237100D01*
X541100D01*
Y259900D01*
X506900D01*
X499900Y257400D01*
G54D11*X498100D02*Y239600D01*
G54D13*Y257400D02*X491100Y259900D01*
X456900D02*X491100D01*
X456900D02*Y237100D01*
X491100D01*
X498100Y239600D01*
X517094Y294940D02*Y284940D01*
X527094D01*
Y294940D01*
X517094D01*
X537000Y315000D02*Y285000D01*
X527000Y315000D02*X537000D01*
X527000D02*Y285000D01*
X537000D01*
X527000Y295000D02*X537000D01*
X527000D02*Y285000D01*
G54D87*X449638Y195240D02*X454362D01*
X449638Y187760D02*X454362D01*
X481607Y161255D02*X482393D01*
X481607Y155745D02*X482393D01*
G54D13*X469500Y183000D02*Y164000D01*
X500500D01*
Y183000D01*
X469500D02*X482500D01*
X500500D02*X487500D01*
X482500D02*G75*G03X487500Y183000I2500J0D01*G01*
X500500Y117500D02*G75*G03X500500Y117500I-20000J0D01*G01*
G54D11*X417900Y133900D02*Y116100D01*
G54D13*X424900Y113600D01*
X459100D01*
Y136400D02*Y113600D01*
X424900Y136400D02*X459100D01*
X424900D02*X417900Y133900D01*
X434000Y112500D02*X454000D01*
X434000D02*Y102500D01*
X454000D01*
Y112500D02*Y102500D01*
X444000Y112500D02*Y102500D01*
X454000D01*
G54D87*X425638Y195240D02*X430362D01*
X425638Y187760D02*X430362D01*
G54D13*X424000Y220410D02*Y197300D01*
X442300D01*
Y220410D01*
X424000D01*
X420500Y183000D02*Y164000D01*
X451500D01*
Y183000D01*
X420500D02*X433500D01*
X451500D02*X438500D01*
X433500D02*G75*G03X438500Y183000I2500J0D01*G01*
G54D87*X458064Y149148D02*X458850D01*
X458064Y143638D02*X458850D01*
X434138Y143260D02*X438862D01*
X434138Y150740D02*X438862D01*
G54D11*X537280Y107044D02*Y122956D01*
X509720Y107044D02*Y122956D01*
X537280Y107044D02*X523500Y99089D01*
X537280Y122956D02*X523500Y130911D01*
X509720Y107044D02*X523500Y99089D01*
X509720Y122956D02*X523500Y130911D01*
G54D88*X514800Y208000D02*Y158000D01*
X594800Y195500D02*X629800D01*
Y170500D01*
X594800D02*X629800D01*
X594800Y183000D02*Y163000D01*
X557300D02*X594800D01*
Y203000D02*Y183000D01*
X557300Y203000D02*X594800D01*
X512300Y158000D02*X522300D01*
X512300Y208000D02*Y158000D01*
Y208000D02*X522300D01*
X537300Y158000D02*X557300D01*
Y208000D02*Y158000D01*
X537300Y208000D02*X557300D01*
X522300D02*X537300D01*
X522300Y158000D02*X537300D01*
X520500Y214300D02*Y151700D01*
X595000Y195500D02*X630000D01*
Y170500D01*
X595000D02*X630000D01*
X595000Y183000D02*Y163000D01*
X557500D02*X595000D01*
Y203000D02*Y183000D01*
X557500Y203000D02*X595000D01*
X507500Y151700D02*X522500D01*
X507500Y214300D02*Y151700D01*
Y214300D02*X522500D01*
X537500Y151700D02*X557500D01*
Y214300D02*Y151700D01*
X537500Y214300D02*X557500D01*
X522500D02*X537500D01*
X522500Y151700D02*X537500D01*
G54D13*X332000Y388000D02*Y378000D01*
Y368000D02*Y358000D01*
Y378000D02*X337000Y368000D01*
X327000D02*X337000D01*
X327000D02*X332000Y378000D01*
X327000D02*X337000D01*
G54D87*X342245Y390393D02*Y389607D01*
X347755Y390393D02*Y389607D01*
G54D13*X343000Y379000D02*Y360000D01*
X374000D01*
Y379000D01*
X343000D02*X356000D01*
X374000D02*X361000D01*
X356000D02*G75*G03X361000Y379000I2500J0D01*G01*
G54D87*X310245Y370393D02*Y369607D01*
X315755Y370393D02*Y369607D01*
G54D13*X271500Y382000D02*Y363000D01*
X302500D01*
Y382000D01*
X271500D02*X284500D01*
X302500D02*X289500D01*
X284500D02*G75*G03X289500Y382000I2500J0D01*G01*
X350000Y405000D02*Y386000D01*
X381000D01*
Y405000D01*
X350000D02*X363000D01*
X381000D02*X368000D01*
X363000D02*G75*G03X368000Y405000I2500J0D01*G01*
X302700Y399000D02*G75*G03X302700Y399000I11800J0D01*G01*
X300700D02*G75*G03X300700Y399000I13800J0D01*G01*
X417500Y249500D02*X427500D01*
X437500D02*X447500D01*
X427500D02*X437500Y254500D01*
Y244500D01*
X427500Y249500D01*
Y254500D02*Y244500D01*
X388000Y293000D02*Y283000D01*
X398000D01*
Y293000D01*
X388000D01*
X437500Y264500D02*X447500D01*
X417500D02*X427500D01*
X437500D02*X427500Y259500D01*
Y269500D02*Y259500D01*
Y269500D02*X437500Y264500D01*
Y269500D02*Y259500D01*
X390500Y249500D02*X400500D01*
X370500D02*X380500D01*
X390500D02*X380500Y244500D01*
Y254500D02*Y244500D01*
Y254500D02*X390500Y249500D01*
Y254500D02*Y244500D01*
X370500Y264500D02*X380500D01*
X390500D02*X400500D01*
X380500D02*X390500Y269500D01*
Y259500D01*
X380500Y264500D01*
Y269500D02*Y259500D01*
X343000Y352500D02*Y333500D01*
X374000D01*
Y352500D01*
X343000D02*X356000D01*
X374000D02*X361000D01*
X356000D02*G75*G03X361000Y352500I2500J0D01*G01*
G54D87*X339607Y279755D02*X340393D01*
X339607Y274245D02*X340393D01*
G54D13*X343000Y326000D02*Y307000D01*
X374000D01*
Y326000D01*
X343000D02*X356000D01*
X374000D02*X361000D01*
X356000D02*G75*G03X361000Y326000I2500J0D01*G01*
X290000Y325000D02*Y306000D01*
X321000D01*
Y325000D01*
X290000D02*X303000D01*
X321000D02*X308000D01*
X303000D02*G75*G03X308000Y325000I2500J0D01*G01*
X290000Y351000D02*Y332000D01*
X321000D01*
Y351000D01*
X290000D02*X303000D01*
X321000D02*X308000D01*
X303000D02*G75*G03X308000Y351000I2500J0D01*G01*
G54D89*X415000Y405500D02*X475000D01*
X415000Y277500D02*X475000D01*
X381000Y371500D02*Y311500D01*
X509000Y371500D02*Y311500D01*
X475000Y405500D02*X509000Y371500D01*
X415000Y405500D02*X381000Y371500D01*
X475000Y277500D02*X509000Y311500D01*
X415000Y277500D02*X381000Y311500D01*
G54D14*X451200Y343700D02*X438800Y339300D01*
G54D90*X449400Y341500D02*G75*G03X440600Y341500I-4400J0D01*G01*
G75*G03X449400Y341500I4400J0D01*G01*
G54D89*X466500D02*G75*G03X423500Y341500I-21500J0D01*G01*
G75*G03X466500Y341500I21500J0D01*G01*
G54D87*X388607Y395245D02*X389393D01*
X388607Y400755D02*X389393D01*
G54D11*X537280Y385044D02*Y400956D01*
X509720Y385044D02*Y400956D01*
X537280Y385044D02*X523500Y377089D01*
X537280Y400956D02*X523500Y408911D01*
X509720Y385044D02*X523500Y377089D01*
X509720Y400956D02*X523500Y408911D01*
G54D87*X411107Y117755D02*X411893D01*
X411107Y112245D02*X411893D01*
X372245Y116393D02*Y115607D01*
X377755Y116393D02*Y115607D01*
X396607Y130755D02*X397393D01*
X396607Y125245D02*X397393D01*
X396607Y108755D02*X397393D01*
X396607Y103245D02*X397393D01*
G54D13*X380200Y123200D02*X388900D01*
X393900D02*X402700D01*
Y111000D01*
X380200D01*
Y123200D01*
X388900D02*G75*G03X393900Y123200I2500J0D01*G01*
G54D87*X415107Y103745D02*X415893D01*
X415107Y109255D02*X415893D01*
X402638Y195240D02*X407362D01*
X402638Y187760D02*X407362D01*
X378638Y195240D02*X383362D01*
X378638Y187760D02*X383362D01*
G54D13*X377000Y220410D02*Y197300D01*
X395300D01*
Y220410D01*
X377000D01*
G54D87*X333245Y221893D02*Y221107D01*
X338755Y221893D02*Y221107D01*
X358607Y279755D02*X359393D01*
X358607Y274245D02*X359393D01*
G54D13*X346500Y300500D02*Y281500D01*
X377500D01*
Y300500D01*
X346500D02*X359500D01*
X377500D02*X364500D01*
X359500D02*G75*G03X364500Y300500I2500J0D01*G01*
X314500Y212500D02*Y193500D01*
X345500D01*
Y212500D01*
X314500D02*X327500D01*
X345500D02*X332500D01*
X327500D02*G75*G03X332500Y212500I2500J0D01*G01*
X288500Y184500D02*Y174500D01*
Y204500D02*Y194500D01*
Y184500D02*X283500Y194500D01*
X293500D01*
X288500Y184500D01*
X283500D02*X293500D01*
X290500Y241000D02*Y222000D01*
X321500D01*
Y241000D01*
X290500D02*X303500D01*
X321500D02*X308500D01*
X303500D02*G75*G03X308500Y241000I2500J0D01*G01*
G54D87*X350755Y181393D02*Y180607D01*
X345245Y181393D02*Y180607D01*
G54D13*X373500Y183000D02*Y164000D01*
X404500D01*
Y183000D01*
X373500D02*X386500D01*
X404500D02*X391500D01*
X386500D02*G75*G03X391500Y183000I2500J0D01*G01*
G54D87*X364607Y157755D02*X365393D01*
X364607Y152245D02*X365393D01*
G54D11*X301000Y189500D02*Y149500D01*
Y189500D02*X319000D01*
Y149500D01*
X301000D02*X319000D01*
X301000Y189500D02*Y149500D01*
Y189500D02*X307000D01*
Y149500D01*
X301000D02*X307000D01*
G54D13*X301000Y162500D02*X307000D01*
X301000Y176500D02*X307000D01*
G54D11*X313000Y140000D02*Y100000D01*
Y140000D02*X331000D01*
Y100000D01*
X313000D02*X331000D01*
X313000Y140000D02*Y100000D01*
Y140000D02*X319000D01*
Y100000D01*
X313000D02*X319000D01*
G54D13*X313000Y113000D02*X319000D01*
X313000Y127000D02*X319000D01*
X276000Y133500D02*Y113500D01*
X266000Y133500D02*X276000D01*
X266000D02*Y113500D01*
X276000D01*
X266000Y123500D02*X276000D01*
X266000D02*Y113500D01*
X277500Y138000D02*Y104000D01*
X308500D01*
Y138000D01*
X277500D02*X290500D01*
X308500D02*X295500D01*
X290500D02*G75*G03X295500Y138000I2500J0D01*G01*
X188000Y187500D02*Y148500D01*
X219000D01*
Y187500D01*
X188000D02*X201000D01*
X219000D02*X206000D01*
X201000D02*G75*G03X206000Y187500I2500J0D01*G01*
G54D87*X197607Y200245D02*X198393D01*
X197607Y205755D02*X198393D01*
G54D11*X209780Y107044D02*Y122956D01*
X182220Y107044D02*Y122956D01*
X209780Y107044D02*X196000Y99089D01*
X209780Y122956D02*X196000Y130911D01*
X182220Y107044D02*X196000Y99089D01*
X182220Y122956D02*X196000Y130911D01*
G54D13*X228500Y138000D02*Y104000D01*
X259500D01*
Y138000D01*
X228500D02*X241500D01*
X259500D02*X246500D01*
X241500D02*G75*G03X246500Y138000I2500J0D01*G01*
G54D11*X209780Y385044D02*Y400956D01*
X182220Y385044D02*Y400956D01*
X209780Y385044D02*X196000Y377089D01*
X209780Y400956D02*X196000Y408911D01*
X182220Y385044D02*X196000Y377089D01*
X182220Y400956D02*X196000Y408911D01*
G54D87*X229107Y268245D02*X229893D01*
X229107Y273755D02*X229893D01*
X212607Y293255D02*X213393D01*
X212607Y287745D02*X213393D01*
G54D11*X190800Y285800D02*X208200D01*
G54D13*X190800D02*X188300Y281000D01*
Y251200D01*
X210700D01*
Y281000D02*Y251200D01*
Y281000D02*X208200Y285800D01*
G54D87*X223107Y325255D02*X223893D01*
X223107Y319745D02*X223893D01*
G54D91*X182504Y315815D02*X186441D01*
X182504Y355185D02*X186441D01*
X182504D02*Y315815D01*
X160850Y351248D02*X182504D01*
X158882Y349280D02*X160850Y351248D01*
X158882Y349280D02*Y321721D01*
X160850Y319752D02*X158882Y321721D01*
X160850Y319752D02*X182504D01*
X186441Y360500D02*Y310500D01*
X194000D01*
X186441Y360500D02*X194000D01*
X214000Y310500D02*X216000D01*
X214000Y360500D02*X216000D01*
Y310500D01*
G54D87*X223107Y350755D02*X223893D01*
X223107Y345245D02*X223893D01*
G54D13*X264700Y399000D02*G75*G03X264700Y399000I11800J0D01*G01*
X262700D02*G75*G03X262700Y399000I13800J0D01*G01*
X226700D02*G75*G03X226700Y399000I11800J0D01*G01*
X224700D02*G75*G03X224700Y399000I13800J0D01*G01*
X227000Y382000D02*Y363000D01*
X258000D01*
Y382000D01*
X227000D02*X240000D01*
X258000D02*X245000D01*
X240000D02*G75*G03X245000Y382000I2500J0D01*G01*
X236000Y351000D02*Y332000D01*
X267000D01*
Y351000D01*
X236000D02*X249000D01*
X267000D02*X254000D01*
X249000D02*G75*G03X254000Y351000I2500J0D01*G01*
G54D87*X334107Y239745D02*X334893D01*
X334107Y245255D02*X334893D01*
G54D13*X290500Y264500D02*Y245500D01*
X321500D01*
Y264500D01*
X290500D02*X303500D01*
X321500D02*X308500D01*
X303500D02*G75*G03X308500Y264500I2500J0D01*G01*
G54D87*X308760Y297862D02*Y293138D01*
X316240Y297862D02*Y293138D01*
G54D13*X290500Y302000D02*Y288100D01*
X303300D01*
Y302000D01*
X290500D01*
G54D87*X276138Y288260D02*X280862D01*
X276138Y295740D02*X280862D01*
G54D13*X232500Y322000D02*Y308100D01*
X245300D01*
Y322000D01*
X232500D01*
G54D87*X276138Y326760D02*X280862D01*
X276138Y334240D02*X280862D01*
X333755Y294893D02*Y294107D01*
X328245Y294893D02*Y294107D01*
G54D13*X326500Y343000D02*Y313000D01*
X336500D01*
Y343000D01*
X326500D01*
Y333000D02*X336500D01*
Y343000D01*
G54D87*X286260Y164362D02*Y159638D01*
X293740Y164362D02*Y159638D01*
G54D13*X249500Y187500D02*Y153500D01*
X280500D01*
Y187500D01*
X249500D02*X262500D01*
X280500D02*X267500D01*
X262500D02*G75*G03X267500Y187500I2500J0D01*G01*
G54D87*X206107Y219745D02*X206893D01*
X206107Y225255D02*X206893D01*
X225107D02*X225893D01*
X225107Y219745D02*X225893D01*
G54D13*X246000Y261000D02*Y222000D01*
X277000D01*
Y261000D01*
X246000D02*X259000D01*
X277000D02*X264000D01*
X259000D02*G75*G03X264000Y261000I2500J0D01*G01*
G54D87*X190260Y238362D02*Y233638D01*
X197740Y238362D02*Y233638D01*
G54D13*X199500Y248000D02*Y229000D01*
X230500D01*
Y248000D01*
X199500D02*X212500D01*
X230500D02*X217500D01*
X212500D02*G75*G03X217500Y248000I2500J0D01*G01*
G54D87*X223138Y343740D02*X227862D01*
X223138Y336260D02*X227862D01*
G54D13*X225000Y302500D02*Y283500D01*
X256000D01*
Y302500D01*
X225000D02*X238000D01*
X256000D02*X243000D01*
X238000D02*G75*G03X243000Y302500I2500J0D01*G01*
G54D87*X276138Y304740D02*X280862D01*
X276138Y297260D02*X280862D01*
X276138Y314240D02*X280862D01*
X276138Y306760D02*X280862D01*
X253638Y314240D02*X258362D01*
X253638Y306760D02*X258362D01*
X276138Y323740D02*X280862D01*
X276138Y316260D02*X280862D01*
X223138Y327260D02*X227862D01*
X223138Y334740D02*X227862D01*
X195638Y304740D02*X200362D01*
X195638Y297260D02*X200362D01*
X253107Y321255D02*X253893D01*
X253107Y315745D02*X253893D01*
G54D52*X439000Y257500D02*Y253500D01*
X440500Y257500D02*X441000Y257000D01*
Y254000D01*
X440500Y253500D02*X441000Y254000D01*
X438500Y253500D02*X440500D01*
X438500Y257500D02*X440500D01*
X442201Y257000D02*X442701Y257500D01*
X444201D01*
X444701Y257000D01*
Y256000D01*
X442201Y253500D02*X444701Y256000D01*
X442201Y253500D02*X444701D01*
X445902Y254000D02*X446402Y253500D01*
X445902Y257000D02*Y254000D01*
Y257000D02*X446402Y257500D01*
X447402D01*
X447902Y257000D01*
Y254000D01*
X447402Y253500D02*X447902Y254000D01*
X446402Y253500D02*X447402D01*
X445902Y254500D02*X447902Y256500D01*
X449103Y253500D02*X451603Y256000D01*
Y257500D02*Y256000D01*
X449103Y257500D02*X451603D01*
X481500Y266100D02*Y265600D01*
X484000Y263100D01*
Y262100D01*
X481500Y263100D02*Y262100D01*
Y263100D02*X484000Y265600D01*
Y266100D02*Y265600D01*
X485201D02*X485701Y266100D01*
X487201D01*
X487701Y265600D01*
Y264600D01*
X485201Y262100D02*X487701Y264600D01*
X485201Y262100D02*X487701D01*
X489402D02*X490402D01*
X489902Y266100D02*Y262100D01*
X488902Y265100D02*X489902Y266100D01*
X491603Y265600D02*X492103Y266100D01*
X493603D01*
X494103Y265600D01*
Y264600D01*
X491603Y262100D02*X494103Y264600D01*
X491603Y262100D02*X494103D01*
X509000Y229400D02*X510500D01*
X508500Y229900D02*X509000Y229400D01*
X508500Y232900D02*Y229900D01*
Y232900D02*X509000Y233400D01*
X510500D01*
X511701Y231400D02*X513701Y233400D01*
X511701Y231400D02*X514201D01*
X513701Y233400D02*Y229400D01*
X515402Y232900D02*X515902Y233400D01*
X516902D01*
X517402Y232900D01*
Y229900D01*
X516902Y229400D02*X517402Y229900D01*
X515902Y229400D02*X516902D01*
X515402Y229900D02*X515902Y229400D01*
Y231400D02*X517402D01*
X525000Y266600D02*Y266100D01*
X527500Y263600D01*
Y262600D01*
X525000Y263600D02*Y262600D01*
Y263600D02*X527500Y266100D01*
Y266600D02*Y266100D01*
X528701D02*X529201Y266600D01*
X530701D01*
X531201Y266100D01*
Y265100D01*
X528701Y262600D02*X531201Y265100D01*
X528701Y262600D02*X531201D01*
X532902D02*X533902D01*
X533402Y266600D02*Y262600D01*
X532402Y265600D02*X533402Y266600D01*
X535603Y262600D02*X536603D01*
X536103Y266600D02*Y262600D01*
X535103Y265600D02*X536103Y266600D01*
X479807Y197757D02*X481307D01*
X479307Y198257D02*X479807Y197757D01*
X479307Y201257D02*Y198257D01*
Y201257D02*X479807Y201757D01*
X481307D01*
X482508Y199757D02*X484508Y201757D01*
X482508Y199757D02*X485008D01*
X484508Y201757D02*Y197757D01*
X486209Y201257D02*X486709Y201757D01*
X488209D01*
X488709Y201257D01*
Y200257D01*
X486209Y197757D02*X488709Y200257D01*
X486209Y197757D02*X488709D01*
X471000Y189000D02*Y188500D01*
X473500Y186000D01*
Y185000D01*
X471000Y186000D02*Y185000D01*
Y186000D02*X473500Y188500D01*
Y189000D02*Y188500D01*
X474701D02*X475201Y189000D01*
X476701D01*
X477201Y188500D01*
Y187500D01*
X474701Y185000D02*X477201Y187500D01*
X474701Y185000D02*X477201D01*
X478402Y185500D02*X478902Y185000D01*
X478402Y188500D02*Y185500D01*
Y188500D02*X478902Y189000D01*
X479902D01*
X480402Y188500D01*
Y185500D01*
X479902Y185000D02*X480402Y185500D01*
X478902Y185000D02*X479902D01*
X478402Y186000D02*X480402Y188000D01*
X481603Y188500D02*X482103Y189000D01*
X483603D01*
X484103Y188500D01*
Y187500D01*
X481603Y185000D02*X484103Y187500D01*
X481603Y185000D02*X484103D01*
X496850Y197650D02*X498350D01*
X496350Y198150D02*X496850Y197650D01*
X496350Y201150D02*Y198150D01*
Y201150D02*X496850Y201650D01*
X498350D01*
X499551Y199650D02*X501551Y201650D01*
X499551Y199650D02*X502051D01*
X501551Y201650D02*Y197650D01*
X503252Y198150D02*X503752Y197650D01*
X503252Y201150D02*Y198150D01*
Y201150D02*X503752Y201650D01*
X504752D01*
X505252Y201150D01*
Y198150D01*
X504752Y197650D02*X505252Y198150D01*
X503752Y197650D02*X504752D01*
X503252Y198650D02*X505252Y200650D01*
X444350Y206650D02*X446350D01*
X446850Y206150D01*
Y205150D01*
X446350Y204650D02*X446850Y205150D01*
X444850Y204650D02*X446350D01*
X444850Y206650D02*Y202650D01*
Y204650D02*X446850Y202650D01*
X448051Y206150D02*X448551Y206650D01*
X450051D01*
X450551Y206150D01*
Y205150D01*
X448051Y202650D02*X450551Y205150D01*
X448051Y202650D02*X450551D01*
X451752Y203150D02*X452252Y202650D01*
X451752Y206150D02*Y203150D01*
Y206150D02*X452252Y206650D01*
X453252D01*
X453752Y206150D01*
Y203150D01*
X453252Y202650D02*X453752Y203150D01*
X452252Y202650D02*X453252D01*
X451752Y203650D02*X453752Y205650D01*
X454953Y202650D02*X457453Y205150D01*
Y206650D02*Y205150D01*
X454953Y206650D02*X457453D01*
X453000Y183500D02*Y183000D01*
X455500Y180500D01*
Y179500D01*
X453000Y180500D02*Y179500D01*
Y180500D02*X455500Y183000D01*
Y183500D02*Y183000D01*
X456701D02*X457201Y183500D01*
X458701D01*
X459201Y183000D01*
Y182000D01*
X456701Y179500D02*X459201Y182000D01*
X456701Y179500D02*X459201D01*
X460402Y180000D02*X460902Y179500D01*
X460402Y183000D02*Y180000D01*
Y183000D02*X460902Y183500D01*
X461902D01*
X462402Y183000D01*
Y180000D01*
X461902Y179500D02*X462402Y180000D01*
X460902Y179500D02*X461902D01*
X460402Y180500D02*X462402Y182500D01*
X464103Y179500D02*X465103D01*
X464603Y183500D02*Y179500D01*
X463603Y182500D02*X464603Y183500D01*
X430530Y225500D02*Y222500D01*
Y225500D02*X431030Y226000D01*
X432030D01*
X432530Y225500D01*
Y222500D01*
X432030Y222000D02*X432530Y222500D01*
X431030Y222000D02*X432030D01*
X430530Y222500D02*X431030Y222000D01*
X431530Y223000D02*X432530Y222000D01*
X433731Y225500D02*X434231Y226000D01*
X435731D01*
X436231Y225500D01*
Y224500D01*
X433731Y222000D02*X436231Y224500D01*
X433731Y222000D02*X436231D01*
X437432Y222500D02*X437932Y222000D01*
X437432Y225500D02*Y222500D01*
Y225500D02*X437932Y226000D01*
X438932D01*
X439432Y225500D01*
Y222500D01*
X438932Y222000D02*X439432Y222500D01*
X437932Y222000D02*X438932D01*
X437432Y223000D02*X439432Y225000D01*
X441133Y222000D02*X442133D01*
X441633Y226000D02*Y222000D01*
X440633Y225000D02*X441633Y226000D01*
X536700Y220000D02*Y216000D01*
X536200Y220000D02*X538200D01*
X538700Y219500D01*
Y218500D01*
X538200Y218000D02*X538700Y218500D01*
X536700Y218000D02*X538200D01*
X539901Y219500D02*X540401Y220000D01*
X541901D01*
X542401Y219500D01*
Y218500D01*
X539901Y216000D02*X542401Y218500D01*
X539901Y216000D02*X542401D01*
X543602Y216500D02*X544102Y216000D01*
X543602Y219500D02*Y216500D01*
Y219500D02*X544102Y220000D01*
X545102D01*
X545602Y219500D01*
Y216500D01*
X545102Y216000D02*X545602Y216500D01*
X544102Y216000D02*X545102D01*
X543602Y217000D02*X545602Y219000D01*
X547303Y216000D02*X548303D01*
X547803Y220000D02*Y216000D01*
X546803Y219000D02*X547803Y220000D01*
X535500Y227500D02*Y223500D01*
X535000Y227500D02*X537000D01*
X537500Y227000D01*
Y226000D01*
X537000Y225500D02*X537500Y226000D01*
X535500Y225500D02*X537000D01*
X538701Y227000D02*X539201Y227500D01*
X540701D01*
X541201Y227000D01*
Y226000D01*
X538701Y223500D02*X541201Y226000D01*
X538701Y223500D02*X541201D01*
X542402Y224000D02*X542902Y223500D01*
X542402Y227000D02*Y224000D01*
Y227000D02*X542902Y227500D01*
X543902D01*
X544402Y227000D01*
Y224000D01*
X543902Y223500D02*X544402Y224000D01*
X542902Y223500D02*X543902D01*
X542402Y224500D02*X544402Y226500D01*
X545603Y224000D02*X546103Y223500D01*
X545603Y227000D02*Y224000D01*
Y227000D02*X546103Y227500D01*
X547103D01*
X547603Y227000D01*
Y224000D01*
X547103Y223500D02*X547603Y224000D01*
X546103Y223500D02*X547103D01*
X545603Y224500D02*X547603Y226500D01*
X484393Y149043D02*X485893D01*
X483893Y149543D02*X484393Y149043D01*
X483893Y152543D02*Y149543D01*
Y152543D02*X484393Y153043D01*
X485893D01*
X487094Y151043D02*X489094Y153043D01*
X487094Y151043D02*X489594D01*
X489094Y153043D02*Y149043D01*
X491295D02*X492295D01*
X491795Y153043D02*Y149043D01*
X490795Y152043D02*X491795Y153043D01*
X491000Y139500D02*Y135500D01*
Y139500D02*X493000D01*
X491000Y137500D02*X492500D01*
X494201Y139000D02*X494701Y139500D01*
X496201D01*
X496701Y139000D01*
Y138000D01*
X494201Y135500D02*X496701Y138000D01*
X494201Y135500D02*X496701D01*
X497902Y136000D02*X498402Y135500D01*
X497902Y139000D02*Y136000D01*
Y139000D02*X498402Y139500D01*
X499402D01*
X499902Y139000D01*
Y136000D01*
X499402Y135500D02*X499902Y136000D01*
X498402Y135500D02*X499402D01*
X497902Y136500D02*X499902Y138500D01*
X501103Y136000D02*X501603Y135500D01*
X501103Y139000D02*Y136000D01*
Y139000D02*X501603Y139500D01*
X502603D01*
X503103Y139000D01*
Y136000D01*
X502603Y135500D02*X503103Y136000D01*
X501603Y135500D02*X502603D01*
X501103Y136500D02*X503103Y138500D01*
X380681Y280595D02*Y276595D01*
Y280595D02*X382681D01*
X380681Y278595D02*X382181D01*
X383882Y276595D02*X385882D01*
X386382Y277095D01*
Y278095D02*Y277095D01*
X385882Y278595D02*X386382Y278095D01*
X384382Y278595D02*X385882D01*
X384382Y280595D02*Y276595D01*
X383882Y280595D02*X385882D01*
X386382Y280095D01*
Y279095D01*
X385882Y278595D02*X386382Y279095D01*
X387583Y280595D02*Y276595D01*
X389583D01*
X390784Y280595D02*X391784D01*
X391284D02*Y276595D01*
X390784D02*X391784D01*
X394985Y280595D02*X395485Y280095D01*
X393485Y280595D02*X394985D01*
X392985Y280095D02*X393485Y280595D01*
X392985Y280095D02*Y277095D01*
X393485Y276595D01*
X394985D01*
X395485Y277095D01*
Y278095D02*Y277095D01*
X394985Y278595D02*X395485Y278095D01*
X393985Y278595D02*X394985D01*
X396686Y280595D02*Y276595D01*
X399186Y280595D02*Y276595D01*
X396686Y278595D02*X399186D01*
X400387Y280595D02*X402387D01*
X401387D02*Y276595D01*
X335807Y281757D02*X337307D01*
X335307Y282257D02*X335807Y281757D01*
X335307Y285257D02*Y282257D01*
Y285257D02*X335807Y285757D01*
X337307D01*
X338508Y285257D02*X339008Y285757D01*
X340008D01*
X340508Y285257D01*
Y282257D01*
X340008Y281757D02*X340508Y282257D01*
X339008Y281757D02*X340008D01*
X338508Y282257D02*X339008Y281757D01*
Y283757D02*X340508D01*
X341709Y285757D02*X343709D01*
X341709D02*Y283757D01*
X342209Y284257D01*
X343209D01*
X343709Y283757D01*
Y282257D01*
X343209Y281757D02*X343709Y282257D01*
X342209Y281757D02*X343209D01*
X341709Y282257D02*X342209Y281757D01*
X367807Y274757D02*X369307D01*
X367307Y275257D02*X367807Y274757D01*
X367307Y278257D02*Y275257D01*
Y278257D02*X367807Y278757D01*
X369307D01*
X370508Y278257D02*X371008Y278757D01*
X372008D01*
X372508Y278257D01*
Y275257D01*
X372008Y274757D02*X372508Y275257D01*
X371008Y274757D02*X372008D01*
X370508Y275257D02*X371008Y274757D01*
Y276757D02*X372508D01*
X373709D02*X375709Y278757D01*
X373709Y276757D02*X376209D01*
X375709Y278757D02*Y274757D01*
X393000Y272500D02*Y268500D01*
X394500Y272500D02*X395000Y272000D01*
Y269000D01*
X394500Y268500D02*X395000Y269000D01*
X392500Y268500D02*X394500D01*
X392500Y272500D02*X394500D01*
X396201Y272000D02*X396701Y272500D01*
X398201D01*
X398701Y272000D01*
Y271000D01*
X396201Y268500D02*X398701Y271000D01*
X396201Y268500D02*X398701D01*
X400402D02*X401402D01*
X400902Y272500D02*Y268500D01*
X399902Y271500D02*X400902Y272500D01*
X402603Y269000D02*X403103Y268500D01*
X402603Y272000D02*Y269000D01*
Y272000D02*X403103Y272500D01*
X404103D01*
X404603Y272000D01*
Y269000D01*
X404103Y268500D02*X404603Y269000D01*
X403103Y268500D02*X404103D01*
X402603Y269500D02*X404603Y271500D01*
X393000Y257500D02*Y253500D01*
X394500Y257500D02*X395000Y257000D01*
Y254000D01*
X394500Y253500D02*X395000Y254000D01*
X392500Y253500D02*X394500D01*
X392500Y257500D02*X394500D01*
X396201Y257000D02*X396701Y257500D01*
X398201D01*
X398701Y257000D01*
Y256000D01*
X396201Y253500D02*X398701Y256000D01*
X396201Y253500D02*X398701D01*
X399902Y254000D02*X400402Y253500D01*
X399902Y257000D02*Y254000D01*
Y257000D02*X400402Y257500D01*
X401402D01*
X401902Y257000D01*
Y254000D01*
X401402Y253500D02*X401902Y254000D01*
X400402Y253500D02*X401402D01*
X399902Y254500D02*X401902Y256500D01*
X403103Y254000D02*X403603Y253500D01*
X403103Y255000D02*Y254000D01*
Y255000D02*X403603Y255500D01*
X404603D01*
X405103Y255000D01*
Y254000D01*
X404603Y253500D02*X405103Y254000D01*
X403603Y253500D02*X404603D01*
X403103Y256000D02*X403603Y255500D01*
X403103Y257000D02*Y256000D01*
Y257000D02*X403603Y257500D01*
X404603D01*
X405103Y257000D01*
Y256000D01*
X404603Y255500D02*X405103Y256000D01*
X337500Y301500D02*X338000D01*
X340500Y304000D01*
X341500D01*
X340500Y301500D02*X341500D01*
X340500D02*X338000Y304000D01*
X337500D02*X338000D01*
Y305201D02*X337500Y305701D01*
Y307201D02*Y305701D01*
Y307201D02*X338000Y307701D01*
X339000D01*
X341500Y305201D02*X339000Y307701D01*
X341500D02*Y305201D01*
X341000Y308902D02*X341500Y309402D01*
X338000Y308902D02*X341000D01*
X338000D02*X337500Y309402D01*
Y310402D02*Y309402D01*
Y310402D02*X338000Y310902D01*
X341000D01*
X341500Y310402D02*X341000Y310902D01*
X341500Y310402D02*Y309402D01*
X340500Y308902D02*X338500Y310902D01*
X339500Y312103D02*X337500Y314103D01*
X339500Y314603D02*Y312103D01*
X337500Y314103D02*X341500D01*
X364500Y305500D02*Y305000D01*
X367000Y302500D01*
Y301500D01*
X364500Y302500D02*Y301500D01*
Y302500D02*X367000Y305000D01*
Y305500D02*Y305000D01*
X368201D02*X368701Y305500D01*
X370201D01*
X370701Y305000D01*
Y304000D01*
X368201Y301500D02*X370701Y304000D01*
X368201Y301500D02*X370701D01*
X371902Y302000D02*X372402Y301500D01*
X371902Y305000D02*Y302000D01*
Y305000D02*X372402Y305500D01*
X373402D01*
X373902Y305000D01*
Y302000D01*
X373402Y301500D02*X373902Y302000D01*
X372402Y301500D02*X373402D01*
X371902Y302500D02*X373902Y304500D01*
X375103Y305000D02*X375603Y305500D01*
X376603D01*
X377103Y305000D01*
Y302000D01*
X376603Y301500D02*X377103Y302000D01*
X375603Y301500D02*X376603D01*
X375103Y302000D02*X375603Y301500D01*
Y303500D02*X377103D01*
X327743Y302893D02*Y301393D01*
X327243Y300893D02*X327743Y301393D01*
X324243Y300893D02*X327243D01*
X324243D02*X323743Y301393D01*
Y302893D02*Y301393D01*
X327743Y305594D02*Y304594D01*
X323743Y305094D02*X327743D01*
X324743Y304094D02*X323743Y305094D01*
X327743Y306795D02*X325243Y309295D01*
X323743D02*X325243D01*
X323743D02*Y306795D01*
X330350Y247222D02*X331850D01*
X329850Y247722D02*X330350Y247222D01*
X329850Y250722D02*Y247722D01*
Y250722D02*X330350Y251222D01*
X331850D01*
X333051Y250722D02*X333551Y251222D01*
X335051D01*
X335551Y250722D01*
Y249722D01*
X333051Y247222D02*X335551Y249722D01*
X333051Y247222D02*X335551D01*
X336752Y247722D02*X337252Y247222D01*
X336752Y248722D02*Y247722D01*
Y248722D02*X337252Y249222D01*
X338252D01*
X338752Y248722D01*
Y247722D01*
X338252Y247222D02*X338752Y247722D01*
X337252Y247222D02*X338252D01*
X336752Y249722D02*X337252Y249222D01*
X336752Y250722D02*Y249722D01*
Y250722D02*X337252Y251222D01*
X338252D01*
X338752Y250722D01*
Y249722D01*
X338252Y249222D02*X338752Y249722D01*
X321000Y245000D02*Y244500D01*
X323500Y242000D01*
Y241000D01*
X321000Y242000D02*Y241000D01*
Y242000D02*X323500Y244500D01*
Y245000D02*Y244500D01*
X324701Y243000D02*X326701Y245000D01*
X324701Y243000D02*X327201D01*
X326701Y245000D02*Y241000D01*
X440000Y272000D02*Y268000D01*
X441500Y272000D02*X442000Y271500D01*
Y268500D01*
X441500Y268000D02*X442000Y268500D01*
X439500Y268000D02*X441500D01*
X439500Y272000D02*X441500D01*
X443201Y271500D02*X443701Y272000D01*
X445201D01*
X445701Y271500D01*
Y270500D01*
X443201Y268000D02*X445701Y270500D01*
X443201Y268000D02*X445701D01*
X446902Y268500D02*X447402Y268000D01*
X446902Y271500D02*Y268500D01*
Y271500D02*X447402Y272000D01*
X448402D01*
X448902Y271500D01*
Y268500D01*
X448402Y268000D02*X448902Y268500D01*
X447402Y268000D02*X448402D01*
X446902Y269000D02*X448902Y271000D01*
X450103Y268000D02*X452103Y270000D01*
Y271500D02*Y270000D01*
X451603Y272000D02*X452103Y271500D01*
X450603Y272000D02*X451603D01*
X450103Y271500D02*X450603Y272000D01*
X450103Y271500D02*Y270500D01*
X450603Y270000D01*
X452103D01*
X515500Y327657D02*Y326157D01*
X515000Y325657D02*X515500Y326157D01*
X512000Y325657D02*X515000D01*
X512000D02*X511500Y326157D01*
Y327657D02*Y326157D01*
X512000Y328858D02*X515000D01*
X512000D02*X511500Y329358D01*
Y330358D02*Y329358D01*
Y330358D02*X512000Y330858D01*
X515000D01*
X515500Y330358D02*X515000Y330858D01*
X515500Y330358D02*Y329358D01*
X515000Y328858D02*X515500Y329358D01*
X511500Y332059D02*X515500D01*
X511500D02*X512000D01*
X514500Y334559D01*
X511500D02*X515500D01*
X511500Y335760D02*X515500D01*
X511500D02*X512000D01*
X514500Y338260D01*
X511500D02*X515500D01*
Y339461D02*X513000Y341961D01*
X511500D02*X513000D01*
X511500D02*Y339461D01*
X520547Y298220D02*Y296720D01*
X520047Y296220D02*X520547Y296720D01*
X517047Y296220D02*X520047D01*
X517047D02*X516547Y296720D01*
Y298220D02*Y296720D01*
X517047Y299421D02*X520047D01*
X517047D02*X516547Y299921D01*
Y300921D02*Y299921D01*
Y300921D02*X517047Y301421D01*
X520047D01*
X520547Y300921D02*X520047Y301421D01*
X520547Y300921D02*Y299921D01*
X520047Y299421D02*X520547Y299921D01*
X516547Y302622D02*X520547D01*
X516547D02*X517047D01*
X519547Y305122D01*
X516547D02*X520547D01*
X516547Y306323D02*X520547D01*
X516547D02*X517047D01*
X519547Y308823D01*
X516547D02*X520547D01*
Y310024D02*X518547Y312024D01*
X517047D02*X518547D01*
X516547Y311524D02*X517047Y312024D01*
X516547Y311524D02*Y310524D01*
X517047Y310024D02*X516547Y310524D01*
X517047Y310024D02*X518047D01*
X518547Y310524D01*
Y312024D02*Y310524D01*
X526000Y298000D02*Y296500D01*
X525500Y296000D02*X526000Y296500D01*
X522500Y296000D02*X525500D01*
X522500D02*X522000Y296500D01*
Y298000D02*Y296500D01*
X522500Y299201D02*X525500D01*
X522500D02*X522000Y299701D01*
Y300701D02*Y299701D01*
Y300701D02*X522500Y301201D01*
X525500D01*
X526000Y300701D02*X525500Y301201D01*
X526000Y300701D02*Y299701D01*
X525500Y299201D02*X526000Y299701D01*
X522000Y302402D02*X526000D01*
X522000D02*X522500D01*
X525000Y304902D01*
X522000D02*X526000D01*
X522000Y306103D02*X526000D01*
X522000D02*X522500D01*
X525000Y308603D01*
X522000D02*X526000D01*
X525500Y309804D02*X526000Y310304D01*
X524500Y309804D02*X525500D01*
X524500D02*X524000Y310304D01*
Y311304D02*Y310304D01*
Y311304D02*X524500Y311804D01*
X525500D01*
X526000Y311304D02*X525500Y311804D01*
X526000Y311304D02*Y310304D01*
X523500Y309804D02*X524000Y310304D01*
X522500Y309804D02*X523500D01*
X522500D02*X522000Y310304D01*
Y311304D02*Y310304D01*
Y311304D02*X522500Y311804D01*
X523500D01*
X524000Y311304D02*X523500Y311804D01*
X459500Y141100D02*Y137100D01*
X461000Y141100D02*X461500Y140600D01*
Y137600D01*
X461000Y137100D02*X461500Y137600D01*
X459000Y137100D02*X461000D01*
X459000Y141100D02*X461000D01*
X462701Y140600D02*X463201Y141100D01*
X464701D01*
X465201Y140600D01*
Y139600D01*
X462701Y137100D02*X465201Y139600D01*
X462701Y137100D02*X465201D01*
X466902D02*X467902D01*
X467402Y141100D02*Y137100D01*
X466402Y140100D02*X467402Y141100D01*
X469103Y139100D02*X471103Y141100D01*
X469103Y139100D02*X471603D01*
X471103Y141100D02*Y137100D01*
X450850Y151436D02*X452350D01*
X450350Y151936D02*X450850Y151436D01*
X450350Y154936D02*Y151936D01*
Y154936D02*X450850Y155436D01*
X452350D01*
X453551Y154936D02*X454051Y155436D01*
X455551D01*
X456051Y154936D01*
Y153936D01*
X453551Y151436D02*X456051Y153936D01*
X453551Y151436D02*X456051D01*
X458752Y155436D02*X459252Y154936D01*
X457752Y155436D02*X458752D01*
X457252Y154936D02*X457752Y155436D01*
X457252Y154936D02*Y151936D01*
X457752Y151436D01*
X458752Y153436D02*X459252Y152936D01*
X457252Y153436D02*X458752D01*
X457752Y151436D02*X458752D01*
X459252Y151936D01*
Y152936D02*Y151936D01*
X433350Y157150D02*X435350D01*
X435850Y156650D01*
Y155650D01*
X435350Y155150D02*X435850Y155650D01*
X433850Y155150D02*X435350D01*
X433850Y157150D02*Y153150D01*
Y155150D02*X435850Y153150D01*
X437051Y157150D02*X439051D01*
X437051D02*Y155150D01*
X437551Y155650D01*
X438551D01*
X439051Y155150D01*
Y153650D01*
X438551Y153150D02*X439051Y153650D01*
X437551Y153150D02*X438551D01*
X437051Y153650D02*X437551Y153150D01*
X440252Y153650D02*X440752Y153150D01*
X440252Y156650D02*Y153650D01*
Y156650D02*X440752Y157150D01*
X441752D01*
X442252Y156650D01*
Y153650D01*
X441752Y153150D02*X442252Y153650D01*
X440752Y153150D02*X441752D01*
X440252Y154150D02*X442252Y156150D01*
X435000Y96500D02*X436500D01*
X434500Y97000D02*X435000Y96500D01*
X434500Y100000D02*Y97000D01*
Y100000D02*X435000Y100500D01*
X436500D01*
X437701Y100000D02*Y97000D01*
Y100000D02*X438201Y100500D01*
X439201D01*
X439701Y100000D01*
Y97000D01*
X439201Y96500D02*X439701Y97000D01*
X438201Y96500D02*X439201D01*
X437701Y97000D02*X438201Y96500D01*
X440902Y100500D02*Y96500D01*
Y100500D02*Y100000D01*
X443402Y97500D01*
Y100500D02*Y96500D01*
X444603Y100500D02*Y96500D01*
Y100500D02*Y100000D01*
X447103Y97500D01*
Y100500D02*Y96500D01*
X448804D02*X449804D01*
X449304Y100500D02*Y96500D01*
X448304Y99500D02*X449304Y100500D01*
X451005Y97000D02*X451505Y96500D01*
X451005Y100000D02*Y97000D01*
Y100000D02*X451505Y100500D01*
X452505D01*
X453005Y100000D01*
Y97000D01*
X452505Y96500D02*X453005Y97000D01*
X451505Y96500D02*X452505D01*
X451005Y97500D02*X453005Y99500D01*
X417850Y114650D02*X419850D01*
X420350Y114150D01*
Y113150D01*
X419850Y112650D02*X420350Y113150D01*
X418350Y112650D02*X419850D01*
X418350Y114650D02*Y110650D01*
Y112650D02*X420350Y110650D01*
X421551Y114650D02*X423551D01*
X421551D02*Y112650D01*
X422051Y113150D01*
X423051D01*
X423551Y112650D01*
Y111150D01*
X423051Y110650D02*X423551Y111150D01*
X422051Y110650D02*X423051D01*
X421551Y111150D02*X422051Y110650D01*
X425252D02*X426252D01*
X425752Y114650D02*Y110650D01*
X424752Y113650D02*X425752Y114650D01*
X325000Y381000D02*X329000D01*
X325000Y382500D02*X325500Y383000D01*
X328500D01*
X329000Y382500D02*X328500Y383000D01*
X329000Y382500D02*Y380500D01*
X325000Y382500D02*Y380500D01*
X329000Y384201D02*X327000Y386201D01*
X325500D02*X327000D01*
X325000Y385701D02*X325500Y386201D01*
X325000Y385701D02*Y384701D01*
X325500Y384201D02*X325000Y384701D01*
X325500Y384201D02*X326500D01*
X327000Y384701D01*
Y386201D02*Y384701D01*
X339564Y393350D02*Y391850D01*
X339064Y391350D02*X339564Y391850D01*
X336064Y391350D02*X339064D01*
X336064D02*X335564Y391850D01*
Y393350D02*Y391850D01*
X336064Y394551D02*X335564Y395051D01*
Y396051D02*Y395051D01*
Y396051D02*X336064Y396551D01*
X339064D01*
X339564Y396051D02*X339064Y396551D01*
X339564Y396051D02*Y395051D01*
X339064Y394551D02*X339564Y395051D01*
X337564Y396551D02*Y395051D01*
X339564Y397752D02*X337064Y400252D01*
X335564D02*X337064D01*
X335564D02*Y397752D01*
X328500Y410500D02*Y406500D01*
X330000Y410500D02*X330500Y410000D01*
Y407000D01*
X330000Y406500D02*X330500Y407000D01*
X328000Y406500D02*X330000D01*
X328000Y410500D02*X330000D01*
X331701D02*Y406500D01*
X333701D01*
X334902Y408500D02*X336402D01*
X334902Y406500D02*X336902D01*
X334902Y410500D02*Y406500D01*
Y410500D02*X336902D01*
X338603D02*Y406500D01*
X340103Y410500D02*X340603Y410000D01*
Y407000D01*
X340103Y406500D02*X340603Y407000D01*
X338103Y406500D02*X340103D01*
X338103Y410500D02*X340103D01*
X342304Y406500D02*X343304D01*
X342804Y410500D02*Y406500D01*
X341804Y409500D02*X342804Y410500D01*
X360500Y358000D02*Y357500D01*
X363000Y355000D01*
Y354000D01*
X360500Y355000D02*Y354000D01*
Y355000D02*X363000Y357500D01*
Y358000D02*Y357500D01*
X364201D02*X364701Y358000D01*
X366201D01*
X366701Y357500D01*
Y356500D01*
X364201Y354000D02*X366701Y356500D01*
X364201Y354000D02*X366701D01*
X367902Y354500D02*X368402Y354000D01*
X367902Y357500D02*Y354500D01*
Y357500D02*X368402Y358000D01*
X369402D01*
X369902Y357500D01*
Y354500D01*
X369402Y354000D02*X369902Y354500D01*
X368402Y354000D02*X369402D01*
X367902Y355000D02*X369902Y357000D01*
X372603Y358000D02*X373103Y357500D01*
X371603Y358000D02*X372603D01*
X371103Y357500D02*X371603Y358000D01*
X371103Y357500D02*Y354500D01*
X371603Y354000D01*
X372603Y356000D02*X373103Y355500D01*
X371103Y356000D02*X372603D01*
X371603Y354000D02*X372603D01*
X373103Y354500D01*
Y355500D02*Y354500D01*
X311000Y357000D02*Y356500D01*
X313500Y354000D01*
Y353000D01*
X311000Y354000D02*Y353000D01*
Y354000D02*X313500Y356500D01*
Y357000D02*Y356500D01*
X315201Y353000D02*X316201D01*
X315701Y357000D02*Y353000D01*
X314701Y356000D02*X315701Y357000D01*
X317402Y353500D02*X317902Y353000D01*
X317402Y356500D02*Y353500D01*
Y356500D02*X317902Y357000D01*
X318902D01*
X319402Y356500D01*
Y353500D01*
X318902Y353000D02*X319402Y353500D01*
X317902Y353000D02*X318902D01*
X317402Y354000D02*X319402Y356000D01*
X326000Y329000D02*Y327500D01*
X325500Y327000D02*X326000Y327500D01*
X322500Y327000D02*X325500D01*
X322500D02*X322000Y327500D01*
Y329000D02*Y327500D01*
X322500Y330201D02*X325500D01*
X322500D02*X322000Y330701D01*
Y331701D02*Y330701D01*
Y331701D02*X322500Y332201D01*
X325500D01*
X326000Y331701D02*X325500Y332201D01*
X326000Y331701D02*Y330701D01*
X325500Y330201D02*X326000Y330701D01*
X322000Y333402D02*X326000D01*
X322000D02*X322500D01*
X325000Y335902D01*
X322000D02*X326000D01*
X322000Y337103D02*X326000D01*
X322000D02*X322500D01*
X325000Y339603D01*
X322000D02*X326000D01*
X324000Y340804D02*X322000Y342804D01*
X324000Y343304D02*Y340804D01*
X322000Y342804D02*X326000D01*
X314000Y331000D02*Y330500D01*
X316500Y328000D01*
Y327000D01*
X314000Y328000D02*Y327000D01*
Y328000D02*X316500Y330500D01*
Y331000D02*Y330500D01*
X317701D02*X318201Y331000D01*
X319201D01*
X319701Y330500D01*
Y327500D01*
X319201Y327000D02*X319701Y327500D01*
X318201Y327000D02*X319201D01*
X317701Y327500D02*X318201Y327000D01*
Y329000D02*X319701D01*
X317850Y296350D02*Y294350D01*
Y296350D02*X318350Y296850D01*
X319350D01*
X319850Y296350D02*X319350Y296850D01*
X319850Y296350D02*Y294850D01*
X317850D02*X321850D01*
X319850D02*X321850Y296850D01*
Y299551D02*Y298551D01*
X317850Y299051D02*X321850D01*
X318850Y298051D02*X317850Y299051D01*
Y302752D02*Y300752D01*
X319850D01*
X319350Y301252D01*
Y302252D02*Y301252D01*
Y302252D02*X319850Y302752D01*
X321350D01*
X321850Y302252D02*X321350Y302752D01*
X321850Y302252D02*Y301252D01*
X321350Y300752D02*X321850Y301252D01*
X304700Y298500D02*X308700D01*
X304700Y300000D02*X305200Y300500D01*
X308200D01*
X308700Y300000D02*X308200Y300500D01*
X308700Y300000D02*Y298000D01*
X304700Y300000D02*Y298000D01*
Y303701D02*Y301701D01*
X306700D01*
X306200Y302201D01*
Y303201D02*Y302201D01*
Y303201D02*X306700Y303701D01*
X308200D01*
X308700Y303201D02*X308200Y303701D01*
X308700Y303201D02*Y302201D01*
X308200Y301701D02*X308700Y302201D01*
X313500Y271000D02*Y270500D01*
X316000Y268000D01*
Y267000D01*
X313500Y268000D02*Y267000D01*
Y268000D02*X316000Y270500D01*
Y271000D02*Y270500D01*
X317201Y267000D02*X319201Y269000D01*
Y270500D02*Y269000D01*
X318701Y271000D02*X319201Y270500D01*
X317701Y271000D02*X318701D01*
X317201Y270500D02*X317701Y271000D01*
X317201Y270500D02*Y269500D01*
X317701Y269000D01*
X319201D01*
X482000Y405000D02*Y404500D01*
X484500Y402000D01*
Y401000D01*
X482000Y402000D02*Y401000D01*
Y402000D02*X484500Y404500D01*
Y405000D02*Y404500D01*
X485701D02*X486201Y405000D01*
X487701D01*
X488201Y404500D01*
Y403500D01*
X485701Y401000D02*X488201Y403500D01*
X485701Y401000D02*X488201D01*
X489402Y401500D02*X489902Y401000D01*
X489402Y404500D02*Y401500D01*
Y404500D02*X489902Y405000D01*
X490902D01*
X491402Y404500D01*
Y401500D01*
X490902Y401000D02*X491402Y401500D01*
X489902Y401000D02*X490902D01*
X489402Y402000D02*X491402Y404000D01*
X492603Y405000D02*X494603D01*
X492603D02*Y403000D01*
X493103Y403500D01*
X494103D01*
X494603Y403000D01*
Y401500D01*
X494103Y401000D02*X494603Y401500D01*
X493103Y401000D02*X494103D01*
X492603Y401500D02*X493103Y401000D01*
X361500Y385000D02*Y384500D01*
X364000Y382000D01*
Y381000D01*
X361500Y382000D02*Y381000D01*
Y382000D02*X364000Y384500D01*
Y385000D02*Y384500D01*
X365201D02*X365701Y385000D01*
X367201D01*
X367701Y384500D01*
Y383500D01*
X365201Y381000D02*X367701Y383500D01*
X365201Y381000D02*X367701D01*
X368902Y381500D02*X369402Y381000D01*
X368902Y384500D02*Y381500D01*
Y384500D02*X369402Y385000D01*
X370402D01*
X370902Y384500D01*
Y381500D01*
X370402Y381000D02*X370902Y381500D01*
X369402Y381000D02*X370402D01*
X368902Y382000D02*X370902Y384000D01*
X372103Y381000D02*X374603Y383500D01*
Y385000D02*Y383500D01*
X372103Y385000D02*X374603D01*
X373000Y411500D02*Y411000D01*
X375500Y408500D01*
Y407500D01*
X373000Y408500D02*Y407500D01*
Y408500D02*X375500Y411000D01*
Y411500D02*Y411000D01*
X376701D02*X377201Y411500D01*
X378701D01*
X379201Y411000D01*
Y410000D01*
X376701Y407500D02*X379201Y410000D01*
X376701Y407500D02*X379201D01*
X380402Y408000D02*X380902Y407500D01*
X380402Y411000D02*Y408000D01*
Y411000D02*X380902Y411500D01*
X381902D01*
X382402Y411000D01*
Y408000D01*
X381902Y407500D02*X382402Y408000D01*
X380902Y407500D02*X381902D01*
X380402Y408500D02*X382402Y410500D01*
X383603Y408000D02*X384103Y407500D01*
X383603Y409000D02*Y408000D01*
Y409000D02*X384103Y409500D01*
X385103D01*
X385603Y409000D01*
Y408000D01*
X385103Y407500D02*X385603Y408000D01*
X384103Y407500D02*X385103D01*
X383603Y410000D02*X384103Y409500D01*
X383603Y411000D02*Y410000D01*
Y411000D02*X384103Y411500D01*
X385103D01*
X385603Y411000D01*
Y410000D01*
X385103Y409500D02*X385603Y410000D01*
X389850Y402650D02*X391350D01*
X389350Y403150D02*X389850Y402650D01*
X389350Y406150D02*Y403150D01*
Y406150D02*X389850Y406650D01*
X391350D01*
X392551Y406150D02*X393051Y406650D01*
X394051D01*
X394551Y406150D01*
Y403150D01*
X394051Y402650D02*X394551Y403150D01*
X393051Y402650D02*X394051D01*
X392551Y403150D02*X393051Y402650D01*
Y404650D02*X394551D01*
X397252Y406650D02*X397752Y406150D01*
X396252Y406650D02*X397252D01*
X395752Y406150D02*X396252Y406650D01*
X395752Y406150D02*Y403150D01*
X396252Y402650D01*
X397252Y404650D02*X397752Y404150D01*
X395752Y404650D02*X397252D01*
X396252Y402650D02*X397252D01*
X397752Y403150D01*
Y404150D02*Y403150D01*
X212893Y305043D02*X214393D01*
X212393Y305543D02*X212893Y305043D01*
X212393Y308543D02*Y305543D01*
Y308543D02*X212893Y309043D01*
X214393D01*
X215594Y308543D02*X216094Y309043D01*
X217594D01*
X218094Y308543D01*
Y307543D01*
X215594Y305043D02*X218094Y307543D01*
X215594Y305043D02*X218094D01*
X219295Y309043D02*X221295D01*
X219295D02*Y307043D01*
X219795Y307543D01*
X220795D01*
X221295Y307043D01*
Y305543D01*
X220795Y305043D02*X221295Y305543D01*
X219795Y305043D02*X220795D01*
X219295Y305543D02*X219795Y305043D01*
X185504Y364410D02*X187004D01*
X185004Y364910D02*X185504Y364410D01*
X185004Y367910D02*Y364910D01*
Y367910D02*X185504Y368410D01*
X187004D01*
X188205Y367910D02*Y364910D01*
Y367910D02*X188705Y368410D01*
X189705D01*
X190205Y367910D01*
Y364910D01*
X189705Y364410D02*X190205Y364910D01*
X188705Y364410D02*X189705D01*
X188205Y364910D02*X188705Y364410D01*
X191406Y368410D02*Y364410D01*
Y368410D02*Y367910D01*
X193906Y365410D01*
Y368410D02*Y364410D01*
X195107Y368410D02*Y364410D01*
Y368410D02*Y367910D01*
X197607Y365410D01*
Y368410D02*Y364410D01*
X198808Y368410D02*X200808D01*
X198808D02*Y366410D01*
X199308Y366910D01*
X200308D01*
X200808Y366410D01*
Y364910D01*
X200308Y364410D02*X200808Y364910D01*
X199308Y364410D02*X200308D01*
X198808Y364910D02*X199308Y364410D01*
X208850Y304150D02*X210850D01*
X211350Y303650D01*
Y302650D01*
X210850Y302150D02*X211350Y302650D01*
X209350Y302150D02*X210850D01*
X209350Y304150D02*Y300150D01*
Y302150D02*X211350Y300150D01*
X212551Y302150D02*X214551Y304150D01*
X212551Y302150D02*X215051D01*
X214551Y304150D02*Y300150D01*
X216252Y300650D02*X216752Y300150D01*
X216252Y301650D02*Y300650D01*
Y301650D02*X216752Y302150D01*
X217752D01*
X218252Y301650D01*
Y300650D01*
X217752Y300150D02*X218252Y300650D01*
X216752Y300150D02*X217752D01*
X216252Y302650D02*X216752Y302150D01*
X216252Y303650D02*Y302650D01*
Y303650D02*X216752Y304150D01*
X217752D01*
X218252Y303650D01*
Y302650D01*
X217752Y302150D02*X218252Y302650D01*
X217436Y363436D02*X218936D01*
X216936Y363936D02*X217436Y363436D01*
X216936Y366936D02*Y363936D01*
Y366936D02*X217436Y367436D01*
X218936D01*
X220137Y363936D02*X220637Y363436D01*
X220137Y364936D02*Y363936D01*
Y364936D02*X220637Y365436D01*
X221637D01*
X222137Y364936D01*
Y363936D01*
X221637Y363436D02*X222137Y363936D01*
X220637Y363436D02*X221637D01*
X220137Y365936D02*X220637Y365436D01*
X220137Y366936D02*Y365936D01*
Y366936D02*X220637Y367436D01*
X221637D01*
X222137Y366936D01*
Y365936D01*
X221637Y365436D02*X222137Y365936D01*
X289000Y411000D02*Y407000D01*
X290500Y411000D02*X291000Y410500D01*
Y407500D01*
X290500Y407000D02*X291000Y407500D01*
X288500Y407000D02*X290500D01*
X288500Y411000D02*X290500D01*
X292201D02*Y407000D01*
X294201D01*
X295402Y409000D02*X296902D01*
X295402Y407000D02*X297402D01*
X295402Y411000D02*Y407000D01*
Y411000D02*X297402D01*
X299103D02*Y407000D01*
X300603Y411000D02*X301103Y410500D01*
Y407500D01*
X300603Y407000D02*X301103Y407500D01*
X298603Y407000D02*X300603D01*
X298603Y411000D02*X300603D01*
X302304Y410500D02*X302804Y411000D01*
X304304D01*
X304804Y410500D01*
Y409500D01*
X302304Y407000D02*X304804Y409500D01*
X302304Y407000D02*X304804D01*
X251000Y411000D02*Y407000D01*
X252500Y411000D02*X253000Y410500D01*
Y407500D01*
X252500Y407000D02*X253000Y407500D01*
X250500Y407000D02*X252500D01*
X250500Y411000D02*X252500D01*
X254201D02*Y407000D01*
X256201D01*
X257402Y409000D02*X258902D01*
X257402Y407000D02*X259402D01*
X257402Y411000D02*Y407000D01*
Y411000D02*X259402D01*
X261103D02*Y407000D01*
X262603Y411000D02*X263103Y410500D01*
Y407500D01*
X262603Y407000D02*X263103Y407500D01*
X260603Y407000D02*X262603D01*
X260603Y411000D02*X262603D01*
X264304Y410500D02*X264804Y411000D01*
X265804D01*
X266304Y410500D01*
Y407500D01*
X265804Y407000D02*X266304Y407500D01*
X264804Y407000D02*X265804D01*
X264304Y407500D02*X264804Y407000D01*
Y409000D02*X266304D01*
X308457Y368393D02*Y366893D01*
X307957Y366393D02*X308457Y366893D01*
X304957Y366393D02*X307957D01*
X304957D02*X304457Y366893D01*
Y368393D02*Y366893D01*
X308457Y371094D02*Y370094D01*
X304457Y370594D02*X308457D01*
X305457Y369594D02*X304457Y370594D01*
X307957Y372295D02*X308457Y372795D01*
X306957Y372295D02*X307957D01*
X306957D02*X306457Y372795D01*
Y373795D02*Y372795D01*
Y373795D02*X306957Y374295D01*
X307957D01*
X308457Y373795D02*X307957Y374295D01*
X308457Y373795D02*Y372795D01*
X305957Y372295D02*X306457Y372795D01*
X304957Y372295D02*X305957D01*
X304957D02*X304457Y372795D01*
Y373795D02*Y372795D01*
Y373795D02*X304957Y374295D01*
X305957D01*
X306457Y373795D02*X305957Y374295D01*
X224850Y361150D02*X226850D01*
X227350Y360650D01*
Y359650D01*
X226850Y359150D02*X227350Y359650D01*
X225350Y359150D02*X226850D01*
X225350Y361150D02*Y357150D01*
Y359150D02*X227350Y357150D01*
X228551Y359150D02*X230551Y361150D01*
X228551Y359150D02*X231051D01*
X230551Y361150D02*Y357150D01*
X232252D02*X234252Y359150D01*
Y360650D02*Y359150D01*
X233752Y361150D02*X234252Y360650D01*
X232752Y361150D02*X233752D01*
X232252Y360650D02*X232752Y361150D01*
X232252Y360650D02*Y359650D01*
X232752Y359150D01*
X234252D01*
X219350Y356150D02*X221350D01*
X221850Y355650D01*
Y354650D01*
X221350Y354150D02*X221850Y354650D01*
X219850Y354150D02*X221350D01*
X219850Y356150D02*Y352150D01*
Y354150D02*X221850Y352150D01*
X223051Y354150D02*X225051Y356150D01*
X223051Y354150D02*X225551D01*
X225051Y356150D02*Y352150D01*
X226752D02*X229252Y354650D01*
Y356150D02*Y354650D01*
X226752Y356150D02*X229252D01*
X303500Y384000D02*Y383500D01*
X306000Y381000D01*
Y380000D01*
X303500Y381000D02*Y380000D01*
Y381000D02*X306000Y383500D01*
Y384000D02*Y383500D01*
X307701Y380000D02*X308701D01*
X308201Y384000D02*Y380000D01*
X307201Y383000D02*X308201Y384000D01*
X310402Y380000D02*X311402D01*
X310902Y384000D02*Y380000D01*
X309902Y383000D02*X310902Y384000D01*
X259500Y382000D02*Y381500D01*
X262000Y379000D01*
Y378000D01*
X259500Y379000D02*Y378000D01*
Y379000D02*X262000Y381500D01*
Y382000D02*Y381500D01*
X263701Y378000D02*X264701D01*
X264201Y382000D02*Y378000D01*
X263201Y381000D02*X264201Y382000D01*
X265902Y381500D02*X266402Y382000D01*
X267902D01*
X268402Y381500D01*
Y380500D01*
X265902Y378000D02*X268402Y380500D01*
X265902Y378000D02*X268402D01*
X226414Y274786D02*X227914D01*
X225914Y275286D02*X226414Y274786D01*
X225914Y278286D02*Y275286D01*
Y278286D02*X226414Y278786D01*
X227914D01*
X229615Y274786D02*X230615D01*
X230115Y278786D02*Y274786D01*
X229115Y277786D02*X230115Y278786D01*
X231816Y276786D02*X233816Y278786D01*
X231816Y276786D02*X234316D01*
X233816Y278786D02*Y274786D01*
X211807Y295257D02*X213307D01*
X211307Y295757D02*X211807Y295257D01*
X211307Y298757D02*Y295757D01*
Y298757D02*X211807Y299257D01*
X213307D01*
X215008Y295257D02*X216008D01*
X215508Y299257D02*Y295257D01*
X214508Y298257D02*X215508Y299257D01*
X217209D02*X219209D01*
X217209D02*Y297257D01*
X217709Y297757D01*
X218709D01*
X219209Y297257D01*
Y295757D01*
X218709Y295257D02*X219209Y295757D01*
X217709Y295257D02*X218709D01*
X217209Y295757D02*X217709Y295257D01*
X217700Y265000D02*Y263500D01*
X217200Y263000D02*X217700Y263500D01*
X214200Y263000D02*X217200D01*
X214200D02*X213700Y263500D01*
Y265000D02*Y263500D01*
X214200Y266201D02*X213700Y266701D01*
Y268201D02*Y266701D01*
Y268201D02*X214200Y268701D01*
X215200D01*
X217700Y266201D02*X215200Y268701D01*
X217700D02*Y266201D01*
Y271402D02*Y270402D01*
X213700Y270902D02*X217700D01*
X214700Y269902D02*X213700Y270902D01*
X262850Y291650D02*X264850D01*
X265350Y291150D01*
Y290150D01*
X264850Y289650D02*X265350Y290150D01*
X263350Y289650D02*X264850D01*
X263350Y291650D02*Y287650D01*
Y289650D02*X265350Y287650D01*
X268051Y291650D02*X268551Y291150D01*
X267051Y291650D02*X268051D01*
X266551Y291150D02*X267051Y291650D01*
X266551Y291150D02*Y288150D01*
X267051Y287650D01*
X268051Y289650D02*X268551Y289150D01*
X266551Y289650D02*X268051D01*
X267051Y287650D02*X268051D01*
X268551Y288150D01*
Y289150D02*Y288150D01*
X224000Y253500D02*Y253000D01*
X226500Y250500D01*
Y249500D01*
X224000Y250500D02*Y249500D01*
Y250500D02*X226500Y253000D01*
Y253500D02*Y253000D01*
X227701Y253500D02*X229701D01*
X227701D02*Y251500D01*
X228201Y252000D01*
X229201D01*
X229701Y251500D01*
Y250000D01*
X229201Y249500D02*X229701Y250000D01*
X228201Y249500D02*X229201D01*
X227701Y250000D02*X228201Y249500D01*
X269500Y267500D02*Y267000D01*
X272000Y264500D01*
Y263500D01*
X269500Y264500D02*Y263500D01*
Y264500D02*X272000Y267000D01*
Y267500D02*Y267000D01*
X273201Y264000D02*X273701Y263500D01*
X273201Y265000D02*Y264000D01*
Y265000D02*X273701Y265500D01*
X274701D01*
X275201Y265000D01*
Y264000D01*
X274701Y263500D02*X275201Y264000D01*
X273701Y263500D02*X274701D01*
X273201Y266000D02*X273701Y265500D01*
X273201Y267000D02*Y266000D01*
Y267000D02*X273701Y267500D01*
X274701D01*
X275201Y267000D01*
Y266000D01*
X274701Y265500D02*X275201Y266000D01*
X269000Y350500D02*Y350000D01*
X271500Y347500D01*
Y346500D01*
X269000Y347500D02*Y346500D01*
Y347500D02*X271500Y350000D01*
Y350500D02*Y350000D01*
X273201Y346500D02*X274201D01*
X273701Y350500D02*Y346500D01*
X272701Y349500D02*X273701Y350500D01*
X238000Y326800D02*Y322800D01*
X239500Y326800D02*X240000Y326300D01*
Y323300D01*
X239500Y322800D02*X240000Y323300D01*
X237500Y322800D02*X239500D01*
X237500Y326800D02*X239500D01*
X241701Y322800D02*X242701D01*
X242201Y326800D02*Y322800D01*
X241201Y325800D02*X242201Y326800D01*
X245350Y323650D02*X246850D01*
X244850Y324150D02*X245350Y323650D01*
X244850Y327150D02*Y324150D01*
Y327150D02*X245350Y327650D01*
X246850D01*
X248051Y327150D02*X248551Y327650D01*
X250051D01*
X250551Y327150D01*
Y326150D01*
X248051Y323650D02*X250551Y326150D01*
X248051Y323650D02*X250551D01*
X244000Y307500D02*Y307000D01*
X246500Y304500D01*
Y303500D01*
X244000Y304500D02*Y303500D01*
Y304500D02*X246500Y307000D01*
Y307500D02*Y307000D01*
X247701D02*X248201Y307500D01*
X249701D01*
X250201Y307000D01*
Y306000D01*
X247701Y303500D02*X250201Y306000D01*
X247701Y303500D02*X250201D01*
X261350Y302150D02*X263350D01*
X263850Y301650D01*
Y300650D01*
X263350Y300150D02*X263850Y300650D01*
X261850Y300150D02*X263350D01*
X261850Y302150D02*Y298150D01*
Y300150D02*X263850Y298150D01*
X265051D02*X267551Y300650D01*
Y302150D02*Y300650D01*
X265051Y302150D02*X267551D01*
X279255Y351331D02*X281255D01*
X281755Y350831D01*
Y349831D01*
X281255Y349331D02*X281755Y349831D01*
X279755Y349331D02*X281255D01*
X279755Y351331D02*Y347331D01*
Y349331D02*X281755Y347331D01*
X283456D02*X284456D01*
X283956Y351331D02*Y347331D01*
X282956Y350331D02*X283956Y351331D01*
X286157Y347331D02*X287157D01*
X286657Y351331D02*Y347331D01*
X285657Y350331D02*X286657Y351331D01*
X278850Y345150D02*X280850D01*
X281350Y344650D01*
Y343650D01*
X280850Y343150D02*X281350Y343650D01*
X279350Y343150D02*X280850D01*
X279350Y345150D02*Y341150D01*
Y343150D02*X281350Y341150D01*
X283051D02*X284051D01*
X283551Y345150D02*Y341150D01*
X282551Y344150D02*X283551Y345150D01*
X285252Y341650D02*X285752Y341150D01*
X285252Y344650D02*Y341650D01*
Y344650D02*X285752Y345150D01*
X286752D01*
X287252Y344650D01*
Y341650D01*
X286752Y341150D02*X287252Y341650D01*
X285752Y341150D02*X286752D01*
X285252Y342150D02*X287252Y344150D01*
X278850Y339650D02*X280850D01*
X281350Y339150D01*
Y338150D01*
X280850Y337650D02*X281350Y338150D01*
X279350Y337650D02*X280850D01*
X279350Y339650D02*Y335650D01*
Y337650D02*X281350Y335650D01*
X282551Y336150D02*X283051Y335650D01*
X282551Y337150D02*Y336150D01*
Y337150D02*X283051Y337650D01*
X284051D01*
X284551Y337150D01*
Y336150D01*
X284051Y335650D02*X284551Y336150D01*
X283051Y335650D02*X284051D01*
X282551Y338150D02*X283051Y337650D01*
X282551Y339150D02*Y338150D01*
Y339150D02*X283051Y339650D01*
X284051D01*
X284551Y339150D01*
Y338150D01*
X284051Y337650D02*X284551Y338150D01*
X258850Y327150D02*X260850D01*
X261350Y326650D01*
Y325650D01*
X260850Y325150D02*X261350Y325650D01*
X259350Y325150D02*X260850D01*
X259350Y327150D02*Y323150D01*
Y325150D02*X261350Y323150D01*
X262551D02*X264551Y325150D01*
Y326650D02*Y325150D01*
X264051Y327150D02*X264551Y326650D01*
X263051Y327150D02*X264051D01*
X262551Y326650D02*X263051Y327150D01*
X262551Y326650D02*Y325650D01*
X263051Y325150D01*
X264551D01*
X405850Y123150D02*X407850D01*
X408350Y122650D01*
Y121650D01*
X407850Y121150D02*X408350Y121650D01*
X406350Y121150D02*X407850D01*
X406350Y123150D02*Y119150D01*
Y121150D02*X408350Y119150D01*
X409551Y123150D02*X411551D01*
X409551D02*Y121150D01*
X410051Y121650D01*
X411051D01*
X411551Y121150D01*
Y119650D01*
X411051Y119150D02*X411551Y119650D01*
X410051Y119150D02*X411051D01*
X409551Y119650D02*X410051Y119150D01*
X412752Y122650D02*X413252Y123150D01*
X414752D01*
X415252Y122650D01*
Y121650D01*
X412752Y119150D02*X415252Y121650D01*
X412752Y119150D02*X415252D01*
X396893Y133043D02*X398393D01*
X396393Y133543D02*X396893Y133043D01*
X396393Y136543D02*Y133543D01*
Y136543D02*X396893Y137043D01*
X398393D01*
X399594Y136543D02*X400094Y137043D01*
X401094D01*
X401594Y136543D01*
Y133543D01*
X401094Y133043D02*X401594Y133543D01*
X400094Y133043D02*X401094D01*
X399594Y133543D02*X400094Y133043D01*
Y135043D02*X401594D01*
X403295Y133043D02*X404295D01*
X403795Y137043D02*Y133043D01*
X402795Y136043D02*X403795Y137043D01*
X405300Y130790D02*Y126905D01*
X405855Y126350D01*
X406965D01*
X407520Y126905D01*
Y130790D02*Y126905D01*
X409408Y126350D02*X410518D01*
X409963Y130790D02*Y126350D01*
X408853Y129680D02*X409963Y130790D01*
X411851Y126350D02*X414071Y128570D01*
Y130235D02*Y128570D01*
X413516Y130790D02*X414071Y130235D01*
X412406Y130790D02*X413516D01*
X411851Y130235D02*X412406Y130790D01*
X411851Y130235D02*Y129125D01*
X412406Y128570D01*
X414071D01*
X343671Y180893D02*Y179393D01*
X343171Y178893D02*X343671Y179393D01*
X340171Y178893D02*X343171D01*
X340171D02*X339671Y179393D01*
Y180893D02*Y179393D01*
X340171Y182094D02*X339671Y182594D01*
Y183594D02*Y182594D01*
Y183594D02*X340171Y184094D01*
X343171D01*
X343671Y183594D02*X343171Y184094D01*
X343671Y183594D02*Y182594D01*
X343171Y182094D02*X343671Y182594D01*
X341671Y184094D02*Y182594D01*
X343171Y185295D02*X343671Y185795D01*
X342171Y185295D02*X343171D01*
X342171D02*X341671Y185795D01*
Y186795D02*Y185795D01*
Y186795D02*X342171Y187295D01*
X343171D01*
X343671Y186795D02*X343171Y187295D01*
X343671Y186795D02*Y185795D01*
X341171Y185295D02*X341671Y185795D01*
X340171Y185295D02*X341171D01*
X340171D02*X339671Y185795D01*
Y186795D02*Y185795D01*
Y186795D02*X340171Y187295D01*
X341171D01*
X341671Y186795D02*X341171Y187295D01*
X361350Y205650D02*X363350D01*
X363850Y205150D01*
Y204150D01*
X363350Y203650D02*X363850Y204150D01*
X361850Y203650D02*X363350D01*
X361850Y205650D02*Y201650D01*
Y203650D02*X363850Y201650D01*
X365051Y205150D02*X365551Y205650D01*
X367051D01*
X367551Y205150D01*
Y204150D01*
X365051Y201650D02*X367551Y204150D01*
X365051Y201650D02*X367551D01*
X368752Y202150D02*X369252Y201650D01*
X368752Y205150D02*Y202150D01*
Y205150D02*X369252Y205650D01*
X370252D01*
X370752Y205150D01*
Y202150D01*
X370252Y201650D02*X370752Y202150D01*
X369252Y201650D02*X370252D01*
X368752Y202650D02*X370752Y204650D01*
X371953Y205150D02*X372453Y205650D01*
X373953D01*
X374453Y205150D01*
Y204150D01*
X371953Y201650D02*X374453Y204150D01*
X371953Y201650D02*X374453D01*
X363850Y159150D02*X365350D01*
X363350Y159650D02*X363850Y159150D01*
X363350Y162650D02*Y159650D01*
Y162650D02*X363850Y163150D01*
X365350D01*
X366551Y162650D02*X367051Y163150D01*
X368051D01*
X368551Y162650D01*
Y159650D01*
X368051Y159150D02*X368551Y159650D01*
X367051Y159150D02*X368051D01*
X366551Y159650D02*X367051Y159150D01*
Y161150D02*X368551D01*
X369752Y159150D02*X371752Y161150D01*
Y162650D02*Y161150D01*
X371252Y163150D02*X371752Y162650D01*
X370252Y163150D02*X371252D01*
X369752Y162650D02*X370252Y163150D01*
X369752Y162650D02*Y161650D01*
X370252Y161150D01*
X371752D01*
X409850Y206650D02*X411850D01*
X412350Y206150D01*
Y205150D01*
X411850Y204650D02*X412350Y205150D01*
X410350Y204650D02*X411850D01*
X410350Y206650D02*Y202650D01*
Y204650D02*X412350Y202650D01*
X413551Y206150D02*X414051Y206650D01*
X415551D01*
X416051Y206150D01*
Y205150D01*
X413551Y202650D02*X416051Y205150D01*
X413551Y202650D02*X416051D01*
X417252Y203150D02*X417752Y202650D01*
X417252Y206150D02*Y203150D01*
Y206150D02*X417752Y206650D01*
X418752D01*
X419252Y206150D01*
Y203150D01*
X418752Y202650D02*X419252Y203150D01*
X417752Y202650D02*X418752D01*
X417252Y203650D02*X419252Y205650D01*
X420453Y203150D02*X420953Y202650D01*
X420453Y204150D02*Y203150D01*
Y204150D02*X420953Y204650D01*
X421953D01*
X422453Y204150D01*
Y203150D01*
X421953Y202650D02*X422453Y203150D01*
X420953Y202650D02*X421953D01*
X420453Y205150D02*X420953Y204650D01*
X420453Y206150D02*Y205150D01*
Y206150D02*X420953Y206650D01*
X421953D01*
X422453Y206150D01*
Y205150D01*
X421953Y204650D02*X422453Y205150D01*
X396350Y205650D02*X398350D01*
X398850Y205150D01*
Y204150D01*
X398350Y203650D02*X398850Y204150D01*
X396850Y203650D02*X398350D01*
X396850Y205650D02*Y201650D01*
Y203650D02*X398850Y201650D01*
X400051Y205150D02*X400551Y205650D01*
X402051D01*
X402551Y205150D01*
Y204150D01*
X400051Y201650D02*X402551Y204150D01*
X400051Y201650D02*X402551D01*
X403752Y202150D02*X404252Y201650D01*
X403752Y205150D02*Y202150D01*
Y205150D02*X404252Y205650D01*
X405252D01*
X405752Y205150D01*
Y202150D01*
X405252Y201650D02*X405752Y202150D01*
X404252Y201650D02*X405252D01*
X403752Y202650D02*X405752Y204650D01*
X407453Y201650D02*X408453D01*
X407953Y205650D02*Y201650D01*
X406953Y204650D02*X407953Y205650D01*
X405500Y184000D02*Y183500D01*
X408000Y181000D01*
Y180000D01*
X405500Y181000D02*Y180000D01*
Y181000D02*X408000Y183500D01*
Y184000D02*Y183500D01*
X409201D02*X409701Y184000D01*
X411201D01*
X411701Y183500D01*
Y182500D01*
X409201Y180000D02*X411701Y182500D01*
X409201Y180000D02*X411701D01*
X412902Y180500D02*X413402Y180000D01*
X412902Y183500D02*Y180500D01*
Y183500D02*X413402Y184000D01*
X414402D01*
X414902Y183500D01*
Y180500D01*
X414402Y180000D02*X414902Y180500D01*
X413402Y180000D02*X414402D01*
X412902Y181000D02*X414902Y183000D01*
X416103Y180500D02*X416603Y180000D01*
X416103Y183500D02*Y180500D01*
Y183500D02*X416603Y184000D01*
X417603D01*
X418103Y183500D01*
Y180500D01*
X417603Y180000D02*X418103Y180500D01*
X416603Y180000D02*X417603D01*
X416103Y181000D02*X418103Y183000D01*
X370671Y120893D02*Y119393D01*
X370171Y118893D02*X370671Y119393D01*
X367171Y118893D02*X370171D01*
X367171D02*X366671Y119393D01*
Y120893D02*Y119393D01*
X367171Y122094D02*X366671Y122594D01*
Y123594D02*Y122594D01*
Y123594D02*X367171Y124094D01*
X370171D01*
X370671Y123594D02*X370171Y124094D01*
X370671Y123594D02*Y122594D01*
X370171Y122094D02*X370671Y122594D01*
X368671Y124094D02*Y122594D01*
X370171Y125295D02*X370671Y125795D01*
X367171Y125295D02*X370171D01*
X367171D02*X366671Y125795D01*
Y126795D02*Y125795D01*
Y126795D02*X367171Y127295D01*
X370171D01*
X370671Y126795D02*X370171Y127295D01*
X370671Y126795D02*Y125795D01*
X369671Y125295D02*X367671Y127295D01*
X369850Y103150D02*X371350D01*
X369350Y103650D02*X369850Y103150D01*
X369350Y106650D02*Y103650D01*
Y106650D02*X369850Y107150D01*
X371350D01*
X372551Y106650D02*X373051Y107150D01*
X374051D01*
X374551Y106650D01*
Y103650D01*
X374051Y103150D02*X374551Y103650D01*
X373051Y103150D02*X374051D01*
X372551Y103650D02*X373051Y103150D01*
Y105150D02*X374551D01*
X375752Y106650D02*X376252Y107150D01*
X377752D01*
X378252Y106650D01*
Y105650D01*
X375752Y103150D02*X378252Y105650D01*
X375752Y103150D02*X378252D01*
X251000Y144000D02*Y140500D01*
X251500Y140000D01*
X252500D01*
X253000Y140500D01*
Y144000D02*Y140500D01*
X254701Y140000D02*X255701D01*
X255201Y144000D02*Y140000D01*
X254201Y143000D02*X255201Y144000D01*
X256902D02*X258902D01*
X256902D02*Y142000D01*
X257402Y142500D01*
X258402D01*
X258902Y142000D01*
Y140500D01*
X258402Y140000D02*X258902Y140500D01*
X257402Y140000D02*X258402D01*
X256902Y140500D02*X257402Y140000D01*
X265000Y115500D02*Y114000D01*
X264500Y113500D02*X265000Y114000D01*
X261500Y113500D02*X264500D01*
X261500D02*X261000Y114000D01*
Y115500D02*Y114000D01*
X261500Y116701D02*X264500D01*
X261500D02*X261000Y117201D01*
Y118201D02*Y117201D01*
Y118201D02*X261500Y118701D01*
X264500D01*
X265000Y118201D02*X264500Y118701D01*
X265000Y118201D02*Y117201D01*
X264500Y116701D02*X265000Y117201D01*
X261000Y119902D02*X265000D01*
X261000D02*X261500D01*
X264000Y122402D01*
X261000D02*X265000D01*
X261000Y123603D02*X265000D01*
X261000D02*X261500D01*
X264000Y126103D01*
X261000D02*X265000D01*
X261500Y127304D02*X261000Y127804D01*
Y128804D02*Y127804D01*
Y128804D02*X261500Y129304D01*
X264500D01*
X265000Y128804D02*X264500Y129304D01*
X265000Y128804D02*Y127804D01*
X264500Y127304D02*X265000Y127804D01*
X263000Y129304D02*Y127804D01*
X280000Y198500D02*X284000D01*
X280000Y200000D02*X280500Y200500D01*
X283500D01*
X284000Y200000D02*X283500Y200500D01*
X284000Y200000D02*Y198000D01*
X280000Y200000D02*Y198000D01*
X284000Y201701D02*X281500Y204201D01*
X280000D02*X281500D01*
X280000D02*Y201701D01*
X209000Y193500D02*Y190000D01*
X209500Y189500D01*
X210500D01*
X211000Y190000D01*
Y193500D02*Y190000D01*
X212701Y189500D02*X213701D01*
X213201Y193500D02*Y189500D01*
X212201Y192500D02*X213201Y193500D01*
X214902Y191500D02*X216902Y193500D01*
X214902Y191500D02*X217402D01*
X216902Y193500D02*Y189500D01*
X195807Y207043D02*X197307D01*
X195307Y207543D02*X195807Y207043D01*
X195307Y210543D02*Y207543D01*
Y210543D02*X195807Y211043D01*
X197307D01*
X198508Y210543D02*X199008Y211043D01*
X200508D01*
X201008Y210543D01*
Y209543D01*
X198508Y207043D02*X201008Y209543D01*
X198508Y207043D02*X201008D01*
X202209Y209043D02*X204209Y211043D01*
X202209Y209043D02*X204709D01*
X204209Y211043D02*Y207043D01*
X191307Y217329D02*X192807D01*
X190807Y217829D02*X191307Y217329D01*
X190807Y220829D02*Y217829D01*
Y220829D02*X191307Y221329D01*
X192807D01*
X194508Y217329D02*X195508D01*
X195008Y221329D02*Y217329D01*
X194008Y220329D02*X195008Y221329D01*
X197209Y217329D02*X198209D01*
X197709Y221329D02*Y217329D01*
X196709Y220329D02*X197709Y221329D01*
X223893Y214043D02*X225393D01*
X223393Y214543D02*X223893Y214043D01*
X223393Y217543D02*Y214543D01*
Y217543D02*X223893Y218043D01*
X225393D01*
X227094Y214043D02*X228094D01*
X227594Y218043D02*Y214043D01*
X226594Y217043D02*X227594Y218043D01*
X229295Y214543D02*X229795Y214043D01*
X229295Y217543D02*Y214543D01*
Y217543D02*X229795Y218043D01*
X230795D01*
X231295Y217543D01*
Y214543D01*
X230795Y214043D02*X231295Y214543D01*
X229795Y214043D02*X230795D01*
X229295Y215043D02*X231295Y217043D01*
X185350Y235850D02*Y233850D01*
Y235850D02*X185850Y236350D01*
X186850D01*
X187350Y235850D02*X186850Y236350D01*
X187350Y235850D02*Y234350D01*
X185350D02*X189350D01*
X187350D02*X189350Y236350D01*
X185850Y237551D02*X185350Y238051D01*
Y239551D02*Y238051D01*
Y239551D02*X185850Y240051D01*
X186850D01*
X189350Y237551D02*X186850Y240051D01*
X189350D02*Y237551D01*
X185850Y241252D02*X185350Y241752D01*
Y242752D02*Y241752D01*
Y242752D02*X185850Y243252D01*
X188850D01*
X189350Y242752D02*X188850Y243252D01*
X189350Y242752D02*Y241752D01*
X188850Y241252D02*X189350Y241752D01*
X187350Y243252D02*Y241752D01*
X382530Y226000D02*Y223000D01*
Y226000D02*X383030Y226500D01*
X384030D01*
X384530Y226000D01*
Y223000D01*
X384030Y222500D02*X384530Y223000D01*
X383030Y222500D02*X384030D01*
X382530Y223000D02*X383030Y222500D01*
X383530Y223500D02*X384530Y222500D01*
X385731Y226000D02*X386231Y226500D01*
X387731D01*
X388231Y226000D01*
Y225000D01*
X385731Y222500D02*X388231Y225000D01*
X385731Y222500D02*X388231D01*
X389432Y223000D02*X389932Y222500D01*
X389432Y226000D02*Y223000D01*
Y226000D02*X389932Y226500D01*
X390932D01*
X391432Y226000D01*
Y223000D01*
X390932Y222500D02*X391432Y223000D01*
X389932Y222500D02*X390932D01*
X389432Y223500D02*X391432Y225500D01*
X392633Y223000D02*X393133Y222500D01*
X392633Y226000D02*Y223000D01*
Y226000D02*X393133Y226500D01*
X394133D01*
X394633Y226000D01*
Y223000D01*
X394133Y222500D02*X394633Y223000D01*
X393133Y222500D02*X394133D01*
X392633Y223500D02*X394633Y225500D01*
X330957Y221807D02*Y220307D01*
X330457Y219807D02*X330957Y220307D01*
X327457Y219807D02*X330457D01*
X327457D02*X326957Y220307D01*
Y221807D02*Y220307D01*
X327457Y223008D02*X326957Y223508D01*
Y225008D02*Y223508D01*
Y225008D02*X327457Y225508D01*
X328457D01*
X330957Y223008D02*X328457Y225508D01*
X330957D02*Y223008D01*
Y226709D02*X328957Y228709D01*
X327457D02*X328957D01*
X326957Y228209D02*X327457Y228709D01*
X326957Y228209D02*Y227209D01*
X327457Y226709D02*X326957Y227209D01*
X327457Y226709D02*X328457D01*
X328957Y227209D01*
Y228709D02*Y227209D01*
X343000Y219000D02*Y218500D01*
X345500Y216000D01*
Y215000D01*
X343000Y216000D02*Y215000D01*
Y216000D02*X345500Y218500D01*
Y219000D02*Y218500D01*
X347201Y215000D02*X348201D01*
X347701Y219000D02*Y215000D01*
X346701Y218000D02*X347701Y219000D01*
X349402Y218500D02*X349902Y219000D01*
X350902D01*
X351402Y218500D01*
Y215500D01*
X350902Y215000D02*X351402Y215500D01*
X349902Y215000D02*X350902D01*
X349402Y215500D02*X349902Y215000D01*
Y217000D02*X351402D01*
X306500Y139500D02*X310000D01*
X310500Y140000D01*
Y141000D02*Y140000D01*
Y141000D02*X310000Y141500D01*
X306500D02*X310000D01*
X310500Y144201D02*Y143201D01*
X306500Y143701D02*X310500D01*
X307500Y142701D02*X306500Y143701D01*
X310500Y145402D02*X308000Y147902D01*
X306500D02*X308000D01*
X306500D02*Y145402D01*
X294000Y144500D02*Y141000D01*
X294500Y140500D01*
X295500D01*
X296000Y141000D01*
Y144500D02*Y141000D01*
X297701Y140500D02*X298701D01*
X298201Y144500D02*Y140500D01*
X297201Y143500D02*X298201Y144500D01*
X301402D02*X301902Y144000D01*
X300402Y144500D02*X301402D01*
X299902Y144000D02*X300402Y144500D01*
X299902Y144000D02*Y141000D01*
X300402Y140500D01*
X301402Y142500D02*X301902Y142000D01*
X299902Y142500D02*X301402D01*
X300402Y140500D02*X301402D01*
X301902Y141000D01*
Y142000D02*Y141000D01*
X280850Y144350D02*Y142350D01*
Y144350D02*X281350Y144850D01*
X282350D01*
X282850Y144350D02*X282350Y144850D01*
X282850Y144350D02*Y142850D01*
X280850D02*X284850D01*
X282850D02*X284850Y144850D01*
X281350Y146051D02*X280850Y146551D01*
Y148051D02*Y146551D01*
Y148051D02*X281350Y148551D01*
X282350D01*
X284850Y146051D02*X282350Y148551D01*
X284850D02*Y146051D01*
X280850Y151252D02*X281350Y151752D01*
X280850Y151252D02*Y150252D01*
X281350Y149752D02*X280850Y150252D01*
X281350Y149752D02*X284350D01*
X284850Y150252D01*
X282850Y151252D02*X283350Y151752D01*
X282850Y151252D02*Y149752D01*
X284850Y151252D02*Y150252D01*
Y151252D02*X284350Y151752D01*
X283350D02*X284350D01*
X294000Y180500D02*X297500D01*
X298000Y181000D01*
Y182000D02*Y181000D01*
Y182000D02*X297500Y182500D01*
X294000D02*X297500D01*
X298000Y185201D02*Y184201D01*
X294000Y184701D02*X298000D01*
X295000Y183701D02*X294000Y184701D01*
X297500Y186402D02*X298000Y186902D01*
X296500Y186402D02*X297500D01*
X296500D02*X296000Y186902D01*
Y187902D02*Y186902D01*
Y187902D02*X296500Y188402D01*
X297500D01*
X298000Y187902D02*X297500Y188402D01*
X298000Y187902D02*Y186902D01*
X295500Y186402D02*X296000Y186902D01*
X294500Y186402D02*X295500D01*
X294500D02*X294000Y186902D01*
Y187902D02*Y186902D01*
Y187902D02*X294500Y188402D01*
X295500D01*
X296000Y187902D02*X295500Y188402D01*
X274000Y193500D02*Y190000D01*
X274500Y189500D01*
X275500D01*
X276000Y190000D01*
Y193500D02*Y190000D01*
X278701Y193500D02*X279201Y193000D01*
X277701Y193500D02*X278701D01*
X277201Y193000D02*X277701Y193500D01*
X277201Y193000D02*Y190000D01*
X277701Y189500D01*
X278701Y191500D02*X279201Y191000D01*
X277201Y191500D02*X278701D01*
X277701Y189500D02*X278701D01*
X279201Y190000D01*
Y191000D02*Y190000D01*
X194000Y92500D02*X523000D01*
X173000Y404500D02*Y103500D01*
X175500Y101000D02*X185500D01*
X175500Y407000D02*X185500D01*
X531500D02*X550000D01*
X552500Y404500D02*Y103500D01*
X531500Y101000D02*X550000D01*
X501500Y272000D02*X515500D01*
X194000Y415500D02*X523000D01*
X497000Y290000D02*Y276500D01*
X506000Y290000D02*Y285500D01*
X510500Y281000D02*X515500D01*
X442500Y352000D02*Y342000D01*
X456000Y346500D02*X459000D01*
X506000Y342000D02*Y333000D01*
X447000Y337500D02*X459000D01*
X492500Y346500D02*X501500D01*
X451500Y352000D02*Y351000D01*
X191500Y413000D02*G75*G02X194000Y415500I2500J0D01*G01*
X173000Y404500D02*G75*G02X175500Y407000I2500J0D01*G01*
X185500Y101000D02*G75*G02X191500Y95000I0J-6000D01*G01*
Y413000D02*G75*G02X185500Y407000I-6000J0D01*G01*
X175500Y101000D02*G75*G02X173000Y103500I0J2500D01*G01*
X194000Y92500D02*G75*G02X191500Y95000I0J2500D01*G01*
X552500Y103500D02*G75*G02X550000Y101000I-2500J0D01*G01*
X525500Y95000D02*G75*G02X523000Y92500I-2500J0D01*G01*
Y415500D02*G75*G02X525500Y413000I0J-2500D01*G01*
Y95000D02*G75*G02X531500Y101000I6000J0D01*G01*
Y407000D02*G75*G02X525500Y413000I0J6000D01*G01*
X550000Y407000D02*G75*G02X552500Y404500I0J-2500D01*G01*
X451500Y352000D02*G75*G03X447000Y356500I-4500J0D01*G01*
X442500Y342000D02*G75*G03X447000Y337500I4500J0D01*G01*
X459000D02*G75*G03X463500Y342000I0J4500D01*G01*
G75*G03X459000Y346500I-4500J0D01*G01*
X451500Y351000D02*G75*G03X456000Y346500I4500J0D01*G01*
X447000Y356500D02*G75*G03X442500Y352000I0J-4500D01*G01*
X497000Y276500D02*G75*G03X501500Y272000I4500J0D01*G01*
X506000Y290000D02*G75*G03X501500Y294500I-4500J0D01*G01*
G75*G03X497000Y290000I0J-4500D01*G01*
X506000Y285500D02*G75*G03X510500Y281000I4500J0D01*G01*
X515500Y272000D02*G75*G03X520000Y276500I0J4500D01*G01*
G75*G03X515500Y281000I-4500J0D01*G01*
X492500Y346500D02*G75*G03X488000Y342000I0J-4500D01*G01*
G75*G03X492500Y337500I4500J0D01*G01*
X506000Y342000D02*G75*G03X501500Y346500I-4500J0D01*G01*
X497000Y333000D02*G75*G03X501500Y328500I4500J0D01*G01*
G75*G03X506000Y333000I0J4500D01*G01*
X497000D02*G75*G03X492500Y337500I-4500J0D01*G01*
M02*
