G04 start of page 3 for group 1 idx 1 *
G04 Title: (unknown), solder *
G04 Creator: pcb 20091103 *
G04 CreationDate: Sun Apr 13 13:29:21 2025 UTC *
G04 For: bh *
G04 Format: Gerber/RS-274X *
G04 PCB-Dimensions: 730000 950000 *
G04 PCB-Coordinate-Origin: lower left *
%MOIN*%
%FSLAX25Y25*%
%LNBOTTOM*%
%ADD11C,0.0200*%
%ADD12C,0.0400*%
%ADD13C,0.0100*%
%ADD14C,0.0180*%
%ADD15C,0.0140*%
%ADD16C,0.0250*%
%ADD17C,0.0350*%
%ADD18C,0.0600*%
%ADD19C,0.0900*%
%ADD20C,0.0520*%
%ADD21C,0.1216*%
%ADD22C,0.1661*%
%ADD23C,0.0650*%
%ADD24C,0.0880*%
%ADD25C,0.0800*%
%ADD26C,0.1060*%
%ADD27C,0.0868*%
%ADD28C,0.0905*%
%ADD29C,0.0360*%
%ADD30R,0.0200X0.0200*%
%ADD33R,0.0512X0.0512*%
%ADD34R,0.1400X0.1400*%
%ADD38R,0.0340X0.0340*%
%ADD39R,0.0970X0.0970*%
%ADD40C,0.0380*%
%ADD41C,0.0220*%
%ADD42C,0.1299*%
%ADD43C,0.0672*%
%ADD44C,0.1027*%
%ADD45C,0.0430*%
%ADD46C,0.0408*%
%ADD47C,0.0709*%
%ADD48C,0.0620*%
%ADD49C,0.0418*%
%ADD50C,0.0455*%
%ADD51C,0.0300*%
%ADD52C,0.0060*%
%ADD53R,0.0680X0.0680*%
%ADD54R,0.0780X0.0780*%
%ADD55R,0.0490X0.0490*%
G54D11*G36*
X225500Y326500D02*X222000D01*
Y332000D01*
X228500D01*
Y329500D01*
X225500Y326500D01*
G37*
G36*
X386500Y121000D02*X389500D01*
X396500Y114000D01*
Y97500D01*
X386500D01*
Y121000D01*
G37*
G36*
X410000Y110000D02*X408500Y111500D01*
X406000D01*
Y134000D01*
X419500D01*
Y99500D01*
X410000D01*
Y110000D01*
G37*
G36*
X418500Y100000D02*Y137000D01*
X424000D01*
Y100000D01*
X418500D01*
G37*
G54D12*X268000Y284500D02*X344000D01*
X305500Y279000D02*X330000D01*
X268500D02*X293500D01*
G54D16*X338500Y278500D02*X338000Y278000D01*
G54D13*X317405Y292319D02*Y284595D01*
X312000Y295500D02*Y300724D01*
X311319Y301405D01*
Y305245D01*
X312000Y295500D02*X306414D01*
X306000Y310000D02*X308000Y313000D01*
X317543Y306107D02*X324393D01*
X330000Y284500D02*Y290350D01*
X324500Y298000D02*X331350D01*
G54D16*X297000Y303500D02*Y284000D01*
X268000Y284500D02*Y303500D01*
G54D13*X302095Y259181D02*Y248405D01*
X306000Y252500D02*X311000Y250500D01*
X279000Y244000D02*X284000D01*
X303000Y262000D02*X302095Y259181D01*
X306500Y264000D02*X303000Y262000D01*
X306500Y264000D02*X315500D01*
X306000Y258500D02*X312276D01*
G54D12*X299000Y273500D02*Y268000D01*
X305000Y273500D02*Y268000D01*
G54D13*X279000Y249000D02*X278000Y258000D01*
G54D12*X331500Y273500D02*Y264000D01*
G54D13*X315500D02*X318500Y273500D01*
G54D12*X324500D02*Y264000D01*
G54D13*X311000Y250500D02*X319086D01*
X324405Y255819D01*
X331819Y257405D02*X325181D01*
X317000Y247000D02*X323500D01*
G54D14*X328500Y251000D01*
G54D12*X344000Y257500D02*X355000D01*
Y273500D02*X324500D01*
Y264000D02*X355000D01*
G54D16*X324500Y268500D02*X355000D01*
X347000Y273500D02*X336500D01*
G54D13*X303724Y316500D02*X301405Y314181D01*
X303724Y316500D02*X310500D01*
X304000Y349000D02*X308500Y344500D01*
Y338500D01*
X308000Y320500D02*X313724D01*
X311500Y315500D02*Y307150D01*
X305000Y307000D02*X306000Y308000D01*
X310500Y316500D02*X311500Y315500D01*
X306000Y308000D02*Y310000D01*
X301405Y339319D02*Y323181D01*
X301724Y333000D02*X301405Y332681D01*
X314224Y333000D02*X301724D01*
G54D12*X338000Y336500D02*X344000D01*
X338000Y264000D02*Y408500D01*
Y358000D02*X344000D01*
X338000Y391500D02*X344000D01*
Y327500D02*X338500D01*
X338000Y320000D02*X344000D01*
X338500Y327500D02*X338000Y327000D01*
X311000Y268000D02*Y273500D01*
G54D13*X308000Y328000D02*X331500D01*
G54D12*X344000Y364500D02*X324500D01*
X330500Y370500D02*X344000D01*
X324500Y351500D02*X344000D01*
G54D16*X330000Y382000D02*X344500D01*
X330000Y394000D02*X338500D01*
G54D12*X330500D02*Y408500D01*
X324500Y364500D02*Y346000D01*
X344000Y221000D02*Y408500D01*
G54D14*X321000Y366500D02*X308500D01*
X321000D02*X324500Y364500D01*
G54D13*X318000Y354500D02*Y366500D01*
G54D16*X308500Y384500D02*X320000Y370000D01*
X324500D01*
G54D12*X330500Y376500D02*X344000D01*
X330500Y364500D02*Y382000D01*
G54D14*X356000Y356000D02*Y367000D01*
G54D15*X350095Y369095D02*X356000Y372000D01*
X357914Y398000D02*X357095Y398819D01*
G54D12*X350500Y399500D02*Y408500D01*
X330500Y399500D02*X350500D01*
G54D15*X350095Y361181D02*Y369095D01*
G54D13*X308500Y339000D02*X330500D01*
G54D12*X309000Y354500D02*X324500D01*
G54D13*X330500Y339000D02*X331500Y338000D01*
G54D12*X324500Y346000D02*X344000D01*
G54D14*X356000Y330500D02*Y340500D01*
G54D15*X350095Y334681D02*Y346319D01*
X356000Y325000D02*X358500Y327500D01*
G54D14*X343500D02*X354000D01*
X356000Y330500D01*
G54D15*X351478Y319000D02*X350202Y320276D01*
X356000Y319000D02*X351478D01*
X350095Y307681D02*Y320169D01*
X350202Y320276D01*
X356000Y325000D02*Y319000D01*
G54D13*Y345500D02*X350914D01*
X350095Y346319D01*
G54D15*X356000Y351500D02*X358500Y354000D01*
G54D14*X344500Y353500D02*X353500D01*
X356000Y356000D01*
G54D15*Y351500D02*Y345500D01*
G54D12*X225000Y408500D02*X392500D01*
G54D15*X251595Y402181D02*Y408405D01*
X226500Y402000D02*X229000Y404500D01*
G54D12*X225000Y408500D02*X221000Y403000D01*
G54D15*X229000Y404500D02*X239000D01*
X363000Y403000D02*X368086D01*
X257500Y399000D02*X262586D01*
X363000Y398000D02*X357914D01*
X309500Y399000D02*X300000Y393000D01*
X363000Y398000D02*Y392000D01*
X351500D01*
G54D13*X363000D02*X367100D01*
G54D12*X392500Y391500D02*X384500D01*
G54D15*X244819Y392181D02*X233000Y397500D01*
X239000Y404500D02*X243500Y399000D01*
X226500Y396500D02*Y402000D01*
G54D13*X242000Y389000D02*X232724D01*
G54D15*X221595Y391681D02*X221681D01*
X274181D02*X263905D01*
X274181D02*X281500Y399000D01*
X251595Y392181D02*X244819D01*
G54D13*X304500Y358000D02*X312000Y359500D01*
G54D12*X276000Y354500D02*Y360000D01*
X242500Y354500D02*X300000D01*
X242500D02*Y360000D01*
X299500Y354500D02*Y360000D01*
X292500Y355000D02*Y360000D01*
G54D13*X285000Y345000D02*X286500Y346500D01*
X296086D02*X286500D01*
X286000Y349000D02*X304000D01*
X296086Y346500D02*X300905Y341681D01*
G54D16*X298000Y353500D02*X311000D01*
G54D13*X251500Y344000D02*X246914D01*
G54D16*X227500Y343500D02*X222000D01*
G54D13*X410500Y357000D02*X425700Y371200D01*
G54D15*X405000Y357500D02*X401500Y361000D01*
X405000Y353500D02*Y357500D01*
X361000Y340500D02*Y345414D01*
X361905Y346319D01*
X374000Y340000D02*X376000Y347000D01*
X361000Y340500D02*X370000D01*
X376000Y353000D02*Y347000D01*
X375000Y354000D02*X376000Y353000D01*
G54D13*X367905Y379595D02*X371000Y383200D01*
G54D15*X358500Y354000D02*X375000D01*
X353181Y379595D02*X367905D01*
G54D12*X384500Y379500D02*X392500D01*
G54D15*X401500Y361000D02*X371276D01*
X378000Y377500D02*Y361000D01*
X361000Y362086D02*Y379500D01*
G54D16*X378000Y357000D02*X400000D01*
G54D12*X384500Y366500D02*X392500D01*
G54D16*X385000Y357000D02*Y341500D01*
G54D12*X392500Y408500D02*Y366500D01*
X384500Y408500D02*Y366500D01*
G54D16*X277819Y332681D02*X276000Y334500D01*
G54D13*X289595Y332681D02*Y339319D01*
X281000Y339000D02*X285000Y343000D01*
X289595Y332681D02*X277819D01*
G54D16*X256000Y313500D02*X258500Y322000D01*
G54D13*X273000Y315100D02*Y322500D01*
X283619Y320819D02*X281800Y319000D01*
Y311200D02*X288976D01*
X289595Y320819D02*X283619D01*
G54D16*X258500Y322000D02*X262500Y331000D01*
X270000Y344000D01*
G54D13*X251500Y339000D02*X256224D01*
X273000Y322500D02*X266500Y329000D01*
G54D16*X227500Y360000D02*Y331500D01*
G54D13*X235224Y375000D02*X234405Y375819D01*
Y368681D01*
G54D16*X227000Y321000D02*X232500Y329500D01*
G54D12*X216500Y381500D02*Y309000D01*
G54D15*X221681Y391681D02*X226500Y396500D01*
G54D16*X216500Y381500D02*X219500Y384500D01*
G54D13*X223500Y360000D02*Y365414D01*
G54D12*X222000Y305000D02*Y360000D01*
X233500Y353500D02*Y329500D01*
X238000D02*X233000D01*
G54D16*X227500Y354000D02*X222000D01*
X227500Y348500D02*X221500D01*
X227500Y337500D02*X222000D01*
G54D15*X260500Y375000D02*Y384500D01*
G54D16*X219500D02*X308500D01*
G54D15*X222595Y378181D02*Y384405D01*
X267095Y378181D02*Y384595D01*
G54D13*X240500Y375000D02*X235224D01*
X278905Y375819D02*Y368681D01*
X285000Y377000D02*Y370776D01*
X287095Y368681D01*
X305000Y370000D02*X300224D01*
G54D16*X305000Y365000D02*X299500Y360000D01*
G54D14*X308500Y366500D02*X305000Y365000D01*
G54D13*X285000Y377000D02*X279724D01*
Y375000D02*X278905Y375819D01*
G54D15*X305000Y375000D02*Y384500D01*
X288190Y390638D02*Y384914D01*
G54D12*X299500Y360000D02*X222000D01*
G54D13*X240500Y370776D02*X242595Y368681D01*
X240500Y375000D02*Y370776D01*
G54D16*X276000Y334500D02*Y355000D01*
G54D13*X245595Y345319D02*Y338681D01*
X260500Y370000D02*X255724D01*
X257405Y347681D02*Y354905D01*
G54D12*X257500Y354500D02*Y360000D01*
X266500Y354500D02*Y360000D01*
X250000Y354500D02*Y359500D01*
X251000D02*X250500Y360000D01*
G54D13*X285000Y343000D02*Y345000D01*
X281000Y344000D02*X286000Y349000D01*
G54D12*X284500Y355000D02*Y360000D01*
X186300Y335700D02*Y315800D01*
X204000Y355400D02*X186400Y335600D01*
G54D13*X268000Y303500D02*X261905Y309319D01*
X248500Y302000D02*X251000Y304500D01*
Y308414D01*
G54D16*X256000Y305000D02*X261500Y295500D01*
G54D13*X238900Y318900D02*X249950D01*
X249957Y318893D02*X253500Y324500D01*
G54D15*X234000Y323500D02*X231000Y320500D01*
G54D13*X273600Y315100D02*Y310400D01*
X277000Y307000D01*
G54D16*X256000Y305000D02*Y313500D01*
G54D13*X243000Y310500D02*X242800Y310700D01*
X243000Y305500D02*Y310500D01*
X235000Y305500D02*Y310700D01*
G54D15*X231000Y320500D02*Y290500D01*
G54D16*X227000Y321000D02*Y301000D01*
G54D14*X258500Y249000D02*X254724D01*
G54D13*X263500Y249500D02*Y254224D01*
X254724Y249000D02*X252905Y247181D01*
G54D16*X267000Y249500D02*X263500D01*
G54D13*X258500Y254000D02*X253000D01*
G54D12*X268000Y284500D02*Y268000D01*
X274500Y284500D02*Y268000D01*
X287000Y284500D02*Y268000D01*
X281000Y284500D02*Y268000D01*
G54D16*X261500Y273500D02*Y268000D01*
X268000Y303500D02*X300000D01*
G54D13*X311319Y305245D02*X310457Y306107D01*
X235000Y305500D02*X238500Y302000D01*
X248500D01*
X277000Y307000D02*X305000D01*
G54D12*X216500Y309000D02*X210000Y302500D01*
G54D13*X238000Y290500D02*X231276D01*
X231181Y290405D01*
G54D16*X227000Y301000D02*X222500Y293500D01*
G54D12*X216500Y295500D02*X216586Y284500D01*
X210000Y302500D02*X192500Y292000D01*
G54D16*X186000Y274500D02*X192700D01*
X210500Y284500D02*X203400Y277400D01*
G54D12*X216500Y295500D02*X210500D01*
G54D16*X239500Y284500D02*X222000D01*
G54D12*X210500D01*
X222000Y305000D02*X216500Y295500D01*
X261500D02*Y279000D01*
G54D15*X241000Y267500D02*Y244914D01*
G54D12*X234000Y263000D02*X254000D01*
G54D15*X228500Y278500D02*Y254500D01*
G54D12*X215500Y275500D02*Y254500D01*
X254000Y263000D02*Y284500D01*
X239500D02*Y268000D01*
X247000Y284500D02*Y263000D01*
X239500Y279000D02*X254000D01*
X239500Y284500D02*X254000D01*
G54D16*X202500Y268000D02*Y259500D01*
X195500Y268000D02*Y258700D01*
G54D13*X280000Y263500D02*X284000Y259500D01*
X288000Y257500D02*Y247500D01*
G54D12*X311000Y273500D02*X239500D01*
X234000Y268000D02*X311000D01*
G54D13*X258500Y259000D02*X261500Y263500D01*
X280000D01*
G54D14*X328500Y251000D02*X341000D01*
G54D12*X355000D02*X341000D01*
G54D14*X355000Y264000D02*X359500D01*
X355000Y251000D02*X359500D01*
X355500Y257500D02*X359500D01*
G54D12*X344000Y241500D02*X361000D01*
G54D15*X370500Y249500D02*Y264500D01*
X377000Y255000D02*X381000Y263500D01*
X382095Y265681D02*X381819D01*
X400500Y249500D02*X395086D01*
X400500Y264500D02*X395086D01*
X377000Y248500D02*Y255000D01*
X417500Y264500D02*X423224D01*
X367500Y244500D02*X374000D01*
X367500D02*X365000Y247500D01*
X376000Y242000D02*X366500D01*
X362500Y246500D01*
X374000Y244500D02*X377000Y248500D01*
X376000Y242000D02*X382095Y248319D01*
X381500Y306500D02*X374400D01*
X380500Y288500D02*X379500Y297000D01*
X368267Y303819D02*X377905Y296681D01*
X370500Y264500D02*X381500Y275500D01*
G54D14*X356000Y302500D02*X350500Y297000D01*
G54D15*X360000Y277000D02*Y293500D01*
X365276D01*
G54D12*X350000Y297000D02*Y290500D01*
G54D14*X355000Y268500D02*X359500D01*
G54D13*X370000Y307500D02*X373000D01*
X373900Y306600D01*
G54D15*X360905Y303819D02*X368267D01*
X365000Y247500D02*Y279500D01*
X362500Y246500D02*Y269500D01*
X360000Y277000D01*
G54D14*X359500Y268500D02*Y241500D01*
G54D12*X338000Y297000D02*X350000D01*
X338000Y290500D02*X350000D01*
G54D15*X405000Y287000D02*X399405Y275819D01*
X364500Y288500D02*X365000Y281000D01*
X354095Y282181D02*X344681D01*
X381500Y275500D02*X387276D01*
X387595Y275819D01*
X381500Y306500D02*X391000Y288000D01*
G54D12*X405000Y287000D02*Y301500D01*
X324500Y311000D02*Y304000D01*
X331000D02*Y311000D01*
X344000Y304000D02*X324500D01*
Y311000D02*X344000D01*
G54D14*X356000Y314000D02*Y302500D01*
G54D15*X361000Y314000D02*Y319264D01*
X362012Y320276D01*
X361000Y314000D02*X365500D01*
X370000Y321500D02*Y320000D01*
G54D13*Y314800D01*
G54D15*X365500Y314000D02*X368000Y307500D01*
X370000D01*
X358500Y327500D02*X366500D01*
X370000Y321500D01*
G54D13*Y335500D02*Y330200D01*
X373900Y322600D02*Y327900D01*
G54D15*X374000Y340000D01*
X370000Y335500D02*Y347914D01*
X381500Y306500D02*X385319Y314595D01*
X388500Y326500D02*X405000Y353500D01*
G54D16*Y301500D02*Y311500D01*
G54D13*X422095Y311681D02*Y319905D01*
G54D16*X405000Y311500D02*X413000D01*
G54D13*X420414D01*
X420595Y311681D01*
X262000Y106000D02*X269850D01*
X271893Y103957D01*
G54D12*X222500Y105500D02*X241500D01*
G54D13*X254500Y107000D02*X260500Y110500D01*
X270936D01*
G54D16*X263000Y99000D02*X279500D01*
G54D13*X302500Y99500D02*Y106564D01*
G54D12*X222500Y99500D02*X263500D01*
X241500Y105500D02*Y99500D01*
X235000D02*Y105500D01*
G54D13*X222500Y166500D02*X226000D01*
G54D12*X186000Y230000D02*X180000D01*
G54D13*X208914Y236000D02*X209095Y236181D01*
X215000Y236000D02*X220724D01*
X194000D02*X208914D01*
G54D12*X197000Y224000D02*Y218000D01*
X180000D02*X234000D01*
Y224000D02*X180000D01*
X186000Y207500D02*X234000D01*
G54D16*X179500Y212500D02*X233500D01*
G54D12*X180000Y208000D02*X186000D01*
G54D13*X196500Y185500D02*X210500D01*
G54D12*X234000Y196000D02*X182500D01*
X180000Y190500D02*X234000D01*
G54D13*X185500Y185500D02*X190000D01*
G54D12*X186000Y201500D02*X234000D01*
G54D13*X196500Y180500D02*X200000D01*
X201000Y179500D01*
Y160500D01*
X210500Y175500D02*X208000D01*
X220500Y172000D02*Y168500D01*
X208000Y175500D02*X205000Y173500D01*
X224000Y175500D02*X220500Y172000D01*
X205000Y173500D02*Y162000D01*
X213000Y160500D01*
X211000Y170500D02*X205000D01*
X206000Y153500D02*X212000Y155500D01*
X205000Y165500D02*X210500D01*
X206000Y180500D02*X210500D01*
G54D12*X210000Y224000D02*Y190500D01*
X197000Y218500D02*Y190500D01*
G54D16*X191500D02*Y224000D01*
X203500Y190000D02*Y224000D01*
G54D12*X221850D02*X222000Y190500D01*
X216000Y224000D02*Y190500D01*
G54D15*X228500Y254500D02*X215000Y241000D01*
G54D13*X201000Y160500D02*X206000Y157500D01*
X185500Y165500D02*X180000D01*
X190000Y155500D02*X185500D01*
G54D16*X190500Y144000D02*Y138500D01*
X185500Y150500D02*Y138500D01*
G54D12*X180000Y144000D02*X229000D01*
X180000Y138500D02*X229000D01*
X216500Y144000D02*Y138500D01*
X210500Y144000D02*Y138500D01*
X196500D02*Y144000D01*
X203500D02*Y138500D01*
G54D13*X201000Y153500D02*X206000D01*
X195500Y150500D02*X199500Y149000D01*
X206000D01*
X210500Y150500D02*Y144000D01*
G54D16*X180000Y150500D02*X185500D01*
G54D12*X186000Y190500D02*Y316000D01*
X180000Y138500D02*Y316000D01*
Y236000D02*X186000D01*
X180000Y242000D02*X186000D01*
X180000Y248000D02*X186000D01*
X180000Y254000D02*X186000D01*
X180000Y260000D02*X186000D01*
X180000Y266000D02*X186000D01*
X180000Y272000D02*X186000D01*
X180000Y202000D02*X186000D01*
G54D16*X211000Y290000D02*X216500D01*
G54D12*X210500Y295500D02*Y284500D01*
X180000Y316000D02*X204000D01*
X180000Y310000D02*X186000D01*
Y279000D02*X180000D01*
Y304000D02*X185500D01*
X180000D02*X186000D01*
X180000Y298000D02*X186000D01*
X180000Y292000D02*X186000D01*
X180000Y286000D02*X186000D01*
G54D16*X185500Y279000D02*X193000D01*
G54D13*X251500Y165500D02*X247000D01*
Y160500D01*
X242000D02*X251500D01*
X248000D01*
X251500Y155500D02*Y150000D01*
X241000Y170500D02*X237500D01*
X231000D02*X223500D01*
X242000Y165500D02*X237500D01*
X231000Y160500D02*X228500D01*
X228000Y161000D01*
Y164500D02*Y161000D01*
X242000Y155500D02*X237500D01*
X224000Y157500D02*X226000Y155500D01*
X231000D01*
X224000Y157500D02*Y162500D01*
X217000Y150500D02*X222500D01*
X226500Y185500D02*X231000D01*
X217000Y180500D02*X224000D01*
X220500Y168500D02*X222500Y166500D01*
X241000Y183500D02*X241500Y184000D01*
X245000Y168000D02*X241000Y170500D01*
X241500Y184000D02*Y206500D01*
X237000Y175500D02*X243500Y181500D01*
X237500Y180500D02*X241000Y183500D01*
X247000Y186500D02*Y206500D01*
Y165500D02*X245000Y168000D01*
Y178000D02*X247000Y171000D01*
X251500Y185500D02*X248000D01*
X247000Y186500D01*
X258000Y175500D02*Y170500D01*
X243500Y181500D02*X247500D01*
X258000Y180500D01*
G54D16*X247500Y213500D02*X257500Y210500D01*
G54D13*X245000Y210000D02*X243500Y211500D01*
X250095Y222319D02*X250181D01*
X255000Y217500D01*
X247000Y217000D02*X252000D01*
X254000Y215000D01*
X249000Y210000D02*X253000Y206000D01*
X250095Y233319D02*Y233095D01*
X245500Y228500D01*
Y218500D01*
X247000Y217000D01*
G54D12*X234000Y190500D02*Y268000D01*
X228000Y224000D02*Y190500D01*
G54D13*X245000Y210000D02*X249000D01*
G54D12*X239500Y211500D02*X234000D01*
G54D13*X243500D02*Y216000D01*
X242000Y217500D01*
Y228000D01*
X239000Y236000D01*
X236595Y113681D02*Y131319D01*
X236095Y131819D01*
G54D16*X233500Y212500D02*X234000Y212000D01*
G54D13*X235000Y140500D02*X238000D01*
X243000Y143000D01*
X226000Y166500D02*X228000Y164500D01*
X247905Y131819D02*X253181D01*
X262000Y126000D01*
X248405Y121319D02*X254181D01*
X262000Y121000D01*
X248405Y113681D02*X262181D01*
X262000Y113500D02*X266500Y117000D01*
X270000D01*
X262000Y121000D02*X271000Y128500D01*
X262000Y131000D02*X269500Y133500D01*
G54D15*X270000Y136000D02*X267000Y139500D01*
G54D12*X222500Y150500D02*X313000D01*
G54D13*X234500Y145500D02*X272000D01*
X243000Y143000D02*X268500D01*
G54D16*X247000Y139500D02*X267000D01*
G54D15*X270000Y136000D02*X295500D01*
G54D12*X278500Y141500D02*X313000D01*
G54D13*X268500Y143000D02*X272500Y139500D01*
G54D12*X288500Y150500D02*Y141500D01*
X278500D02*Y150500D01*
G54D16*X290500Y126000D02*Y99500D01*
G54D13*X269500Y133500D02*X285000D01*
X293500Y129500D01*
X295500Y126000D01*
G54D16*Y136000D02*X302500Y131000D01*
Y122000D01*
X301500Y121000D01*
X295500D01*
G54D13*X301500D02*Y115650D01*
G54D16*X295500Y121000D02*Y112000D01*
G54D12*X325000Y120000D02*X313000D01*
Y159500D02*Y99500D01*
X295000Y210500D02*Y190500D01*
X300500Y235500D02*Y141500D01*
X307500Y190500D02*Y217500D01*
X295000Y203500D02*X307500D01*
X278000Y196000D02*Y190500D01*
X277000Y150500D02*Y167500D01*
G54D16*X283000Y170500D02*Y191000D01*
G54D12*X277000Y167500D02*X283000Y170500D01*
G54D16*X264500Y167500D02*X269500Y172500D01*
G54D13*X307500Y201500D02*X315350D01*
X245500Y107000D02*X254500D01*
X245500D02*X242000Y110500D01*
X237414D01*
G54D12*X222500Y99500D02*Y150500D01*
X229000Y99500D02*Y150500D01*
X222500Y111500D02*X229000D01*
X222500Y117500D02*X229000D01*
X222500Y123500D02*X229000D01*
X222500Y129500D02*X229000D01*
G54D13*X330000Y193500D02*Y198776D01*
X322000Y200500D02*X332000D01*
X331819Y211405D02*X322555D01*
X322543Y211393D01*
G54D16*X313000Y169500D02*X334900Y163400D01*
X313000Y179500D02*X327500D01*
G54D12*X329500Y217500D02*X333000Y221000D01*
G54D13*X342500Y216000D02*X338776D01*
X334181Y211405D01*
G54D12*X361000Y241500D02*Y130000D01*
G54D15*X348000Y153000D02*Y171000D01*
G54D16*X343500Y190000D02*X350500D01*
G54D13*X334500Y189500D02*X343500Y190000D01*
X315457Y202393D02*Y217457D01*
X325000Y189500D02*X334500D01*
X325000D02*X318500Y190500D01*
G54D12*X254000D02*X319000D01*
G54D13*X268000Y180500D02*X258000D01*
X269500Y172500D02*X275500Y175000D01*
X276107Y184043D02*Y189893D01*
G54D12*X254000Y196000D02*X307500D01*
X288500D02*Y190500D01*
G54D13*X264000Y242000D02*X267000D01*
X261905Y224681D02*Y233319D01*
X270095D01*
X270500Y217500D02*X274500Y215500D01*
G54D16*X276000Y219500D02*Y240500D01*
G54D13*X270095Y224681D02*X276181D01*
X287000Y219000D02*X288000Y234000D01*
G54D16*X283000Y190500D02*Y196000D01*
G54D13*X274000Y213000D02*X278000D01*
G54D16*X266000Y210000D02*X286000D01*
G54D12*X284000Y210500D02*X307500D01*
G54D13*X286500Y215000D02*X289500Y218000D01*
X285500Y217500D02*X287000Y219000D01*
X286500Y215000D02*X283500D01*
X285500Y217500D02*X281000D01*
X274500Y215500D02*X277500D01*
X283500Y215000D02*X278000Y213000D01*
X281000Y217500D02*X277500Y215500D01*
X278000Y206000D02*X281500Y204500D01*
X288500D02*X281500D01*
X292000Y230500D02*X289500Y218000D01*
X254000Y215000D02*X270000D01*
X255000Y217500D02*X270500D01*
G54D12*X268500Y210500D02*X257500D01*
G54D13*X270000Y215000D02*X274000Y213000D01*
G54D12*X254000Y201500D02*X272000D01*
X254000D02*Y190500D01*
X260000D02*Y201500D01*
X272000D02*Y190500D01*
X266000Y201500D02*Y190500D01*
G54D13*X278000Y206000D02*X253000D01*
X306000Y238000D02*Y225500D01*
G54D12*X329500Y217500D02*X300500D01*
G54D13*X311957Y224893D02*Y241457D01*
X288000Y247500D02*X292000Y238000D01*
G54D12*X293500Y248500D02*X300500Y235500D01*
G54D13*X292000Y238000D02*Y230500D01*
X284000Y225276D02*Y259500D01*
G54D16*X329000Y233000D02*Y239500D01*
G54D13*X302095Y248405D02*X306000Y238000D01*
G54D16*X329000Y239500D02*X319000Y243000D01*
G54D13*X311957Y241457D02*X317000Y247000D01*
G54D16*X514000Y183000D02*X524000D01*
G54D12*X543000Y163000D02*X505500D01*
Y173000D02*X514000D01*
X461500Y192500D02*X505500D01*
X467000Y171000D02*X470500D01*
X461500Y186000D02*X505500D01*
G54D15*X539500Y336000D02*X533000Y340500D01*
G54D14*X519000Y348000D02*Y312000D01*
G54D15*X539500Y321500D02*Y336000D01*
G54D14*X533000Y330500D02*X519000D01*
G54D15*X542500Y352500D02*X533000Y360500D01*
X532000Y290000D02*X522154D01*
X522094Y289940D01*
X542500Y352500D02*Y313500D01*
X539453Y321453D02*X532000Y310000D01*
Y300000D02*X542500Y313500D01*
G54D14*X519000Y312000D02*X522000Y298000D01*
G54D12*X534000Y212000D02*X543000D01*
X498500Y234000D02*Y186000D01*
G54D14*X524000Y211000D02*Y203000D01*
G54D12*X512500Y234000D02*Y221000D01*
G54D14*X521095Y213905D02*X524000Y211000D01*
X515181Y213905D02*X521095D01*
X506000Y202500D02*X514776D01*
G54D12*X477500Y234000D02*Y186000D01*
X491500Y234000D02*Y186000D01*
X484500Y234000D02*Y186000D01*
X461500Y206000D02*X505500D01*
X461500Y199000D02*X505500D01*
X543000Y203000D02*X534000D01*
X543000Y221000D02*Y203000D01*
X533500Y144000D02*Y221000D01*
G54D16*X487600Y250400D02*X510400D01*
G54D12*X493000Y263500D02*X535000D01*
G54D16*X527000Y233000D02*Y243000D01*
X533500Y232500D02*Y242700D01*
X535000Y263500D02*Y253800D01*
X528000Y263500D02*Y250200D01*
G54D12*X465000Y291500D02*X493000Y263500D01*
G54D14*X477000Y268000D02*X483000Y274000D01*
G54D13*X462595Y313319D02*Y313095D01*
X474405Y315681D02*Y322055D01*
X485000Y311500D02*X484000Y324500D01*
G54D14*X468500Y356500D02*X510500D01*
X519000Y348000D01*
X522000Y298000D02*Y290034D01*
X522094Y289940D01*
G54D16*X498500Y143500D02*Y137000D01*
G54D12*X514000Y173000D02*Y144000D01*
X505500Y156500D02*X514000D01*
G54D16*X491500Y143500D02*X505500D01*
G54D15*X483000Y148500D02*X499500D01*
G54D13*Y154000D02*X492436D01*
G54D14*X462500Y163500D02*Y155000D01*
G54D12*X505500Y160500D02*X467500D01*
G54D15*X483000Y148500D02*X478000Y149500D01*
X473000Y154500D02*X480000D01*
G54D13*X484850D01*
G54D12*X467500Y160500D02*Y144000D01*
X524000Y163000D02*Y144000D01*
X512500Y138000D02*Y144000D01*
X543000Y163000D02*Y144000D01*
X505500D01*
Y150000D02*X543000D01*
X367500Y130000D02*Y234000D01*
G54D13*X386000Y176000D02*X380914D01*
G54D12*X373500Y130000D02*Y234000D01*
G54D13*X386000Y168000D02*Y176000D01*
G54D12*X361000Y161500D02*X380500D01*
G54D13*X324500Y236000D02*X319436D01*
X311957Y224107D02*Y217543D01*
X319043Y224893D02*Y225043D01*
G54D16*X324500Y224000D02*X329000Y233000D01*
G54D13*X324500Y224000D02*X319150D01*
G54D12*X355000Y273500D02*Y191000D01*
X349000Y199000D02*X373500D01*
G54D15*X464936Y391645D02*X460855Y382145D01*
X464936Y391645D02*X449145D01*
X447500Y390000D01*
Y371400D01*
X484936Y371645D02*X474231D01*
X461000Y382500D02*Y372776D01*
X461095Y372681D01*
X460214Y371200D02*X461095Y370319D01*
Y363905D01*
G54D14*X468500Y356500D01*
G54D16*X465000Y291500D02*X458500Y298000D01*
Y307500D01*
G54D13*X468095Y303181D02*X458181D01*
X458000Y303000D01*
X462595Y313095D02*X457500Y308000D01*
G54D16*X439500Y310500D02*X455500D01*
G54D13*X439500D02*X433586D01*
X432405Y311681D01*
X453405Y317819D02*Y310595D01*
X430043Y319607D02*X441021D01*
G54D15*X427181Y251095D02*X435295D01*
X425586Y249500D02*X427181Y251095D01*
X417500Y249500D02*X425586D01*
Y264500D02*X427181Y262905D01*
X435295D01*
G54D12*X349000Y213000D02*X505500D01*
X344000Y227000D02*X512500D01*
X344000Y234000D02*X512500D01*
X333000Y221000D02*X543000D01*
G54D16*X412000Y185500D02*Y212500D01*
X420500Y185500D02*Y213000D01*
X416500Y185500D02*Y213000D01*
X427000Y199000D02*X412000D01*
X420500Y205500D02*X412000D01*
G54D12*X505500Y132000D02*Y234000D01*
Y132000D02*X468000D01*
G54D15*X439500Y155500D02*Y160500D01*
G54D16*X429000Y138000D02*Y158500D01*
X423500Y138000D02*Y158500D01*
X434500Y138500D02*Y158500D01*
G54D13*X412500Y132500D02*Y159000D01*
G54D16*X458000Y149000D02*Y138000D01*
G54D12*X449000Y149000D02*Y138500D01*
G54D13*X456500Y177300D02*X448976D01*
X456500Y167000D02*X461500Y167500D01*
X456500Y167000D02*X453000D01*
X440000Y168000D02*Y171724D01*
X441500Y166500D02*X440000Y168000D01*
X454500Y171000D02*X448776D01*
G54D12*X361000Y144000D02*X491500D01*
X361000Y138000D02*X512500D01*
X417500Y158500D02*Y130000D01*
G54D13*X399319Y159095D02*X394905D01*
G54D16*X401000Y149000D02*Y154000D01*
X361000Y149000D02*X467500D01*
X408000Y158500D02*X434500D01*
G54D12*X408000Y131500D02*Y149000D01*
X387500Y130000D02*Y154000D01*
X394000D02*Y130000D01*
X401000Y149000D02*Y130000D01*
G54D13*X394905Y159095D02*X386000Y168000D01*
X393000Y171724D02*X391905Y172819D01*
X393000Y168000D02*Y171724D01*
X394500Y166500D02*X393000Y168000D01*
G54D16*X408000Y158500D02*Y149000D01*
G54D13*X409500Y167000D02*X406000D01*
X401681Y170905D02*Y177595D01*
X404500Y166500D02*X394500D01*
X406000Y167000D02*X404500Y166500D01*
X291000Y284500D02*Y303500D01*
G54D12*X293500Y248500D02*Y284500D01*
G54D13*X267000Y242000D02*X268500Y240500D01*
Y237276D01*
G54D12*X389500Y241500D02*X453500D01*
G54D16*X276000Y240500D02*X267000Y249500D01*
G54D15*X447500D02*Y278086D01*
G54D16*X466500Y274500D02*Y249000D01*
G54D12*X405000Y301500D02*X439500D01*
X466500Y274500D01*
G54D15*X447500Y278086D02*X447405Y278181D01*
X425000Y291500D02*X436000Y276500D01*
G54D16*X455500Y310500D02*X458500Y307500D01*
G54D15*X485000Y311500D02*X481000Y303000D01*
G54D13*X333000Y231000D02*Y244414D01*
G54D12*X349000Y206000D02*X373500D01*
G54D16*Y199000D02*X379000D01*
X380000Y198000D01*
G54D12*X349000Y191000D02*Y296000D01*
X381500Y213000D02*Y234000D01*
X389500Y213000D02*Y241500D01*
X397500Y213000D02*Y241500D01*
X405500Y213000D02*Y241500D01*
X413500Y213000D02*Y241500D01*
X421500Y213000D02*Y241500D01*
X429500Y213000D02*Y241500D01*
X437500Y213000D02*Y241500D01*
X445500Y213000D02*Y241500D01*
X453500Y213000D02*Y241500D01*
X461500Y186000D02*Y234000D01*
X470500D02*Y160500D01*
G54D13*X448681Y170905D02*Y177595D01*
Y159095D02*X441500Y162500D01*
X451500Y166500D02*X441500D01*
X453000Y167000D02*X451500Y166500D01*
G54D15*X453000Y154000D02*X441000D01*
Y191000D02*X445224D01*
G54D13*X441500Y162500D02*X433000Y171000D01*
G54D15*X441000Y154000D02*X439500Y155500D01*
G54D13*X433000Y176000D02*Y171000D01*
G54D15*X436500Y163500D02*X439500Y160500D01*
G54D13*X439405Y172819D02*Y172595D01*
G54D15*X478414Y181000D02*X476595Y179181D01*
X482500Y181000D02*X478414D01*
G54D13*X380595Y175181D02*Y184681D01*
G54D12*X355000Y152500D02*Y185000D01*
X361000Y184000D02*X373500D01*
X361000Y177000D02*X373500D01*
X361000Y170000D02*X373500D01*
X361000Y154000D02*X374000D01*
G54D15*X389000Y193500D02*X398000Y199500D01*
X394000Y191000D02*X398224D01*
X391000Y184000D02*X389000Y190000D01*
Y193500D01*
X398000Y199500D02*X403500D01*
G54D12*X349000Y191000D02*X373500D01*
G54D15*X438000Y184000D02*X436000Y190000D01*
Y193500D01*
X445000Y199500D01*
X407500Y163500D02*X436500D01*
G54D13*X409500Y167000D02*X414500Y167500D01*
G54D15*X445000Y199500D02*X450500D01*
G54D13*X427595Y175181D02*Y184681D01*
X433500Y176000D02*X428414D01*
X409500Y177800D02*X402476D01*
G54D16*X422000Y168000D02*Y185500D01*
X412000D01*
G54D13*X407500Y171000D02*X401776D01*
G54D16*X420500Y191000D02*X412000D01*
X326000Y145000D02*Y155800D01*
X333500Y134000D02*X326000Y145000D01*
G54D13*X382000Y125000D02*X388500D01*
G54D16*X359000Y124500D02*X382000Y125000D01*
G54D12*X361500Y130000D02*X406500D01*
G54D16*X374000Y154000D02*X434500D01*
G54D12*X380500Y130000D02*Y161500D01*
G54D16*X343500Y146000D02*Y137000D01*
X333500Y134000D02*Y125500D01*
X334500Y124500D01*
X359000D01*
G54D12*X339000Y146000D02*X353500D01*
X355000Y152500D02*X353500Y146000D01*
X278500Y99500D02*X487500D01*
X375500Y119000D02*Y99500D01*
G54D13*X388500Y125000D02*X406000Y107500D01*
G54D12*X362500Y119000D02*X388000D01*
X389500Y107000D02*X362500D01*
X390000Y113000D02*X362500D01*
X382500Y119000D02*Y99500D01*
G54D16*X325000Y110000D02*X341200D01*
G54D12*X368500Y119000D02*Y99500D01*
X362500Y119000D02*Y99500D01*
G54D16*X439000Y107500D02*Y99500D01*
X429000Y111000D02*Y127000D01*
G54D12*X498500Y110500D02*X487500Y99500D01*
G54D16*X480500Y107500D02*X490500Y117500D01*
G54D12*X468000Y126000D02*X498500D01*
G54D16*X449000Y107500D02*X480500D01*
G54D13*X454000Y138000D02*Y149000D01*
X462500Y138500D02*Y149000D01*
G54D15*Y155000D02*X453000Y154000D01*
G54D13*X444500Y137500D02*Y149000D01*
G54D16*X440500D02*Y138000D01*
X468000Y128500D02*X456200D01*
G54D12*X468000Y144000D02*Y126000D01*
G54D15*X482500Y176000D02*X487586D01*
X487500Y171000D02*X491586D01*
X493405Y169181D01*
X482500Y176000D02*Y170086D01*
X481595Y169181D01*
G54D12*X498500Y110500D02*Y138000D01*
X491500Y144000D02*Y126000D01*
X484500Y144000D02*Y126000D01*
X477500Y144000D02*Y126000D01*
G54D11*G36*
X268000Y121500D02*Y115500D01*
X274000D01*
Y121500D01*
X268000D01*
G37*
G54D18*X271000Y128500D03*
G54D11*G36*
X308500Y164000D02*Y155000D01*
X317500D01*
Y164000D01*
X308500D01*
G37*
G54D19*X313000Y169500D03*
Y179500D03*
G54D20*X288500Y174500D03*
G54D11*G36*
X285900Y207100D02*Y201900D01*
X291100D01*
Y207100D01*
X285900D01*
G37*
G36*
X320500Y114500D02*Y105500D01*
X329500D01*
Y114500D01*
X320500D01*
G37*
G54D19*X325000Y120000D03*
Y130000D03*
G54D11*G36*
X328500Y341000D02*Y335000D01*
X334500D01*
Y341000D01*
X328500D01*
G37*
G36*
X329400Y360600D02*Y355400D01*
X334600D01*
Y360600D01*
X329400D01*
G37*
G54D20*X332000Y388000D03*
G54D18*X331500Y328000D03*
Y318000D03*
G54D21*X204000Y335500D03*
G54D22*Y315800D03*
Y355200D03*
X186300Y335500D03*
G54D11*G36*
X230250Y402250D02*Y395750D01*
X236750D01*
Y402250D01*
X230250D01*
G37*
G54D23*X243500Y399000D03*
G54D11*G36*
X268250Y402250D02*Y395750D01*
X274750D01*
Y402250D01*
X268250D01*
G37*
G54D23*X281500Y399000D03*
G54D11*G36*
X306250Y402250D02*Y395750D01*
X312750D01*
Y402250D01*
X306250D01*
G37*
G54D23*X319500Y399000D03*
G54D24*X425000Y391500D03*
X465000D03*
X485000Y371500D03*
G54D11*G36*
X390000Y291000D02*Y285000D01*
X396000D01*
Y291000D01*
X390000D01*
G37*
G54D24*X405000Y371500D03*
Y311500D03*
G54D25*X533000Y360500D03*
Y350500D03*
Y340500D03*
Y330500D03*
G54D24*X425000Y291500D03*
G54D26*X385000Y341500D03*
G54D27*X514000Y183000D03*
Y173000D03*
Y193000D03*
G54D28*X524100Y183000D03*
Y163000D03*
Y203000D03*
X543100Y163000D03*
Y203000D03*
G54D11*G36*
X487500Y120500D02*Y114500D01*
X493500D01*
Y120500D01*
X487500D01*
G37*
G54D18*X470500Y117500D03*
G54D11*G36*
X446000Y110500D02*Y104500D01*
X452000D01*
Y110500D01*
X446000D01*
G37*
G54D18*X439000Y107500D03*
G54D11*G36*
X367900Y252100D02*Y246900D01*
X373100D01*
Y252100D01*
X367900D01*
G37*
G54D20*X400500Y249500D03*
G54D11*G36*
X414900Y267100D02*Y261900D01*
X420100D01*
Y267100D01*
X414900D01*
G37*
G36*
X397900D02*Y261900D01*
X403100D01*
Y267100D01*
X397900D01*
G37*
G54D20*X370500Y264500D03*
X417500Y249500D03*
G54D11*G36*
X529000Y293000D02*Y287000D01*
X535000D01*
Y293000D01*
X529000D01*
G37*
G54D18*X532000Y300000D03*
Y310000D03*
G54D11*G36*
X519094Y292940D02*Y286940D01*
X525094D01*
Y292940D01*
X519094D01*
G37*
G54D20*X447500Y264500D03*
G54D24*X485000Y311500D03*
X465000Y291500D03*
G54D11*G36*
X444900Y252100D02*Y246900D01*
X450100D01*
Y252100D01*
X444900D01*
G37*
G54D29*X194000Y236000D03*
G54D18*X192500Y292000D03*
G54D29*X186000Y279000D03*
Y274500D03*
X195500Y268000D03*
X202500D03*
X222000Y360000D03*
G54D18*X233500Y353500D03*
G54D29*X222000Y354000D03*
Y311500D03*
X235000Y305500D03*
X234000Y323500D03*
X222000Y315500D03*
X222500Y293500D03*
X225500Y329500D03*
X215000Y241000D03*
G54D18*X215500Y261000D03*
Y254500D03*
Y275500D03*
X202500Y289000D03*
G54D29*X180000Y316000D03*
X186500D03*
G54D18*X221000Y403000D03*
G54D29*X305000Y365000D03*
Y375000D03*
Y370000D03*
X308000Y320500D03*
X308500Y339000D03*
X308000Y313000D03*
Y328000D03*
X324500Y370000D03*
X291000Y299000D03*
X312000Y295500D03*
X281000Y344000D03*
X279000Y244000D03*
X284000Y252500D03*
X261500Y295500D03*
X238000Y290500D03*
X261500Y279000D03*
X239500Y273500D03*
X243000Y305500D03*
X263000Y320000D03*
X270000Y344000D03*
X251500Y339000D03*
X392500Y405000D03*
Y391500D03*
Y366500D03*
X378000Y357000D03*
X400000D03*
X410500D03*
X356000Y372000D03*
X344000Y399500D03*
X363000Y398000D03*
Y403000D03*
X356000Y367000D03*
X361000D03*
X378000Y377500D03*
X331000Y304000D03*
X324500Y298000D03*
X364500Y288500D03*
X360000Y293500D03*
X356000Y319000D03*
Y314000D03*
X361000D03*
X349000Y278500D03*
X331500Y264000D03*
X355000D03*
X361000Y241500D03*
X355000D03*
X319000Y243000D03*
X380500Y288500D03*
G54D18*X405000Y287000D03*
G54D29*X356000Y340500D03*
Y345500D03*
X361000Y340500D03*
X356000Y330500D03*
X281000Y339000D03*
X253500Y324500D03*
X266500Y329000D03*
X238000Y329500D03*
X260500Y375000D03*
X285000Y377000D03*
X240500Y375000D03*
X260500Y370000D03*
X242000Y389000D03*
X257500Y399000D03*
X304500Y358000D03*
X251500Y344000D03*
X295500Y112000D03*
X290500Y106000D03*
X295500Y121000D03*
X290500Y126000D03*
X295500Y136000D03*
Y126000D03*
X241500Y105500D03*
X262000Y126000D03*
X382000Y125000D03*
X361000Y130000D03*
X367500D03*
X373500D03*
X262000Y121000D03*
Y106000D03*
X381000Y107000D03*
X368500D03*
Y119000D03*
X362500D03*
X224000Y162500D03*
Y170500D03*
X343500Y190000D03*
X374000Y154000D03*
X262000Y131000D03*
X268500Y210500D03*
X284000D03*
X276000Y219500D03*
X283000Y170500D03*
X264500Y167500D03*
X241500Y206500D03*
X247000D03*
X254000Y196000D03*
X234000D03*
X247500Y213500D03*
X239500Y211500D03*
X196500Y145000D03*
X234500Y145500D03*
Y140500D03*
X242000Y165500D03*
X268000Y180500D03*
X242000Y160500D03*
Y155500D03*
X245000Y178000D03*
X247000Y171000D03*
X272000Y145500D03*
X267000Y139500D03*
X247000D03*
X272500D03*
X185500Y155500D03*
Y165500D03*
Y185500D03*
Y150500D03*
X306000Y225500D03*
Y252500D03*
X288000Y234000D03*
X305500Y279000D03*
X318500Y273500D03*
X330000Y279000D03*
X324500Y236000D03*
X330000Y193500D03*
X329500Y217500D03*
X333000Y231000D03*
X288500Y150500D03*
X306000Y258500D03*
X324500Y224000D03*
X342500Y216000D03*
X215000Y236000D03*
X239000D03*
G54D18*X527000Y233000D03*
X477000Y268000D03*
X533500Y233000D03*
G54D29*X254000Y263000D03*
X258500Y259000D03*
Y254000D03*
Y249000D03*
X264000Y242000D03*
X288000Y257500D03*
X263500Y249500D03*
X279000Y249000D03*
X247000Y263000D03*
X344000Y241500D03*
X197000Y224000D03*
X206000Y157500D03*
X201000Y153500D03*
X206000Y180500D03*
Y149000D03*
X205000Y165500D03*
X224000Y175500D03*
X221500Y185500D03*
X226500D03*
X224000Y180500D03*
X216000Y224000D03*
X210000Y205500D03*
Y201500D03*
X386000Y176000D03*
X433000D03*
X407500Y171000D03*
X454500D03*
X440000Y191000D03*
X445000Y199500D03*
X461500Y221000D03*
X462500Y163500D03*
X543000Y173000D03*
Y183000D03*
Y193000D03*
X407500Y163500D03*
X462500Y155000D03*
X473000Y154500D03*
X478000Y149500D03*
X362500Y107000D03*
X387500Y105000D03*
X406000Y107500D03*
X394500Y112500D03*
X388500D03*
Y119000D03*
X387500Y130000D03*
X348000Y153000D03*
X339000Y146000D03*
X348500D03*
X343500D03*
X353500D03*
X373500Y199000D03*
X355000Y185000D03*
Y176500D03*
Y180500D03*
X393000Y191000D03*
X482500Y181000D03*
Y176000D03*
X484500Y194000D03*
X398000Y199500D03*
X420500Y199000D03*
X462000D03*
X361000Y213000D03*
X355000D03*
X461500D03*
X491000Y160000D03*
X348000Y171000D03*
X355000Y172000D03*
X487500Y171000D03*
X467000D03*
X408000Y131500D03*
X417500Y130000D03*
G54D18*X429000Y111000D03*
G54D29*X420500Y112500D03*
X408000Y126500D03*
X498500Y126000D03*
X499500Y148500D03*
Y154000D03*
X449000Y145500D03*
G54D33*X236595Y123681D02*Y121319D01*
X248405Y123681D02*Y121319D01*
X236595Y113681D02*Y111319D01*
X248405Y113681D02*Y111319D01*
X247905Y134181D02*Y131819D01*
X236095Y134181D02*Y131819D01*
X271107Y111543D02*X271893D01*
X271107Y104457D02*X271893D01*
X302607Y107457D02*X303393D01*
X302607Y114543D02*X303393D01*
G54D34*X344100Y113900D02*X347900D01*
X344100Y135100D02*X347900D01*
X433400Y126900D02*Y123100D01*
X454600Y126900D02*Y123100D01*
G54D33*X399319Y159095D02*X401681D01*
X380095Y184681D02*Y182319D01*
X391905Y184681D02*Y182319D01*
X380095Y175181D02*Y172819D01*
X391905Y175181D02*Y172819D01*
G54D38*X413400Y169100D02*Y168500D01*
X409500Y177300D02*Y176700D01*
G54D33*X399319Y177595D02*X401681D01*
X399319Y170905D02*X401681D01*
G54D53*X380000Y205000D02*Y198000D01*
X405000Y205000D02*Y198000D01*
G54D54*X425700Y371800D02*Y371200D01*
G54D33*X472905Y372681D02*Y370319D01*
X461095Y372681D02*Y370319D01*
X368819Y360905D02*X371181D01*
X350095Y361181D02*Y358819D01*
X361905Y361181D02*Y358819D01*
X350095Y348681D02*Y346319D01*
X361905Y348681D02*Y346319D01*
X368819Y349095D02*X371181D01*
X435595Y278181D02*Y275819D01*
X447405Y278181D02*Y275819D01*
X399405Y278181D02*Y275819D01*
X387595Y278181D02*Y275819D01*
X479905Y303181D02*Y300819D01*
X468095Y303181D02*Y300819D01*
X474957Y323893D02*Y323107D01*
X462595Y315681D02*Y313319D01*
X474405Y315681D02*Y313319D01*
X482043Y323893D02*Y323107D01*
G54D54*X447300Y371800D02*Y371200D01*
G54D33*X430043Y320393D02*Y319607D01*
X422957Y320393D02*Y319607D01*
X453405Y320181D02*Y317819D01*
X441595Y320181D02*Y317819D01*
X432405Y311681D02*Y309319D01*
X420595Y311681D02*Y309319D01*
X361905Y307681D02*Y305319D01*
X350095Y307681D02*Y305319D01*
G54D38*X373900Y306600D02*Y306000D01*
G54D33*X362012Y322638D02*Y320276D01*
G54D38*X373900Y322600D02*Y322000D01*
X370000Y314800D02*Y314200D01*
X377800Y314800D02*Y314200D01*
G54D33*X385319Y314595D02*X387681D01*
X385319Y326405D02*X387681D01*
G54D38*X370000Y330800D02*Y330200D01*
X377800Y330800D02*Y330200D01*
G54D34*X487600Y250400D02*Y246600D01*
X466400Y250400D02*Y246600D01*
G54D33*X424819Y262905D02*X427181D01*
X393905Y265681D02*Y263319D01*
X382095Y265681D02*Y263319D01*
X424819Y251095D02*X427181D01*
X393905Y250681D02*Y248319D01*
X382095Y250681D02*Y248319D01*
G54D55*X436200Y252000D02*X439800D01*
X436200Y262000D02*X439800D01*
G54D34*X510400Y250400D02*Y246600D01*
X531600Y250400D02*Y246600D01*
G54D33*X427095Y184681D02*Y182319D01*
Y175181D02*Y172819D01*
X446319Y159095D02*X448681D01*
G54D38*X417300Y177300D02*Y176700D01*
X460400Y169100D02*Y168500D01*
G54D33*X446319Y177595D02*X448681D01*
X446319Y170905D02*X448681D01*
X438905Y175181D02*Y172819D01*
Y184681D02*Y182319D01*
G54D38*X456500Y177300D02*Y176700D01*
X464300Y177300D02*Y176700D01*
G54D33*X399319Y189405D02*X401681D01*
X446319D02*X448681D01*
G54D53*X427000Y205000D02*Y198000D01*
X452000Y205000D02*Y198000D01*
G54D33*X512819Y202095D02*X515181D01*
X512819Y213905D02*X515181D01*
X484957Y154393D02*Y153607D01*
X492043Y154393D02*Y153607D01*
X476595Y179181D02*Y176819D01*
X488405Y179181D02*Y176819D01*
X493405Y169181D02*Y166819D01*
X481595Y169181D02*Y166819D01*
X289595Y341681D02*Y339319D01*
X301405Y341681D02*Y339319D01*
Y332681D02*Y330319D01*
X361905Y334681D02*Y332319D01*
X350095Y334681D02*Y332319D01*
X314319Y332905D02*X316681D01*
X301405Y314181D02*Y311819D01*
Y323181D02*Y320819D01*
X314319Y321095D02*X316681D01*
X350202Y322638D02*Y320276D01*
X289595Y323181D02*Y320819D01*
Y332681D02*Y330319D01*
X318043Y361893D02*Y361107D01*
X310957Y361893D02*Y361107D01*
X287095Y371181D02*Y368819D01*
X298905Y371181D02*Y368819D01*
X278905Y378181D02*Y375819D01*
X299905Y392181D02*Y389819D01*
X288095Y392181D02*Y389819D01*
G54D38*X281200Y319000D02*X281800D01*
X281200Y311200D02*X281800D01*
X273000Y315100D02*X273600D01*
G54D33*X289595Y314181D02*Y311819D01*
X310457Y306893D02*Y306107D01*
X305595Y294681D02*Y292319D01*
X317543Y306893D02*Y306107D01*
X317405Y294681D02*Y292319D01*
X330607Y290957D02*X331393D01*
X330607Y298043D02*X331393D01*
X355095Y282181D02*Y279819D01*
X366905Y282181D02*Y279819D01*
X366095Y296681D02*Y294319D01*
X377905Y296681D02*Y294319D01*
X257405Y338681D02*Y336319D01*
Y347681D02*Y345319D01*
G54D38*X243000Y311300D02*Y310700D01*
X235200Y311300D02*Y310700D01*
X239100Y319500D02*Y318900D01*
G54D33*X261905Y311681D02*Y309319D01*
X250095Y311681D02*Y309319D01*
X228819Y290405D02*X231181D01*
X228819Y278595D02*X231181D01*
G54D39*X195600Y277400D02*X203400D01*
X195600Y258600D02*X203400D01*
G54D33*X267095Y378181D02*Y375819D01*
X263405Y402181D02*Y399819D01*
Y392181D02*Y389819D01*
X245595Y338681D02*Y336319D01*
Y347681D02*Y345319D01*
X242595Y368681D02*Y366319D01*
X254405Y368681D02*Y366319D01*
X234405Y378181D02*Y375819D01*
X222595Y368681D02*Y366319D01*
X234405Y368681D02*Y366319D01*
X222595Y378181D02*Y375819D01*
X221595Y391681D02*Y389319D01*
X233405Y391681D02*Y389319D01*
X251595Y402181D02*Y399819D01*
Y392181D02*Y389819D01*
X261905Y235681D02*Y233319D01*
Y224681D02*Y222319D01*
X250095Y235681D02*Y233319D01*
Y224681D02*Y222319D01*
X311957Y224893D02*Y224107D01*
X319043Y224893D02*Y224107D01*
X281905Y224681D02*Y222319D01*
X270095Y224681D02*Y222319D01*
Y235681D02*Y233319D01*
X281905Y235681D02*Y233319D01*
X311957Y236393D02*Y235607D01*
X252905Y256181D02*Y253819D01*
Y247181D02*Y244819D01*
X241095Y247181D02*Y244819D01*
Y256181D02*Y253819D01*
X319043Y236393D02*Y235607D01*
X312595Y258181D02*Y255819D01*
X324405Y258181D02*Y255819D01*
X275607Y183543D02*X276393D01*
X275607Y176457D02*X276393D01*
X315457Y211393D02*Y210607D01*
X322543Y211393D02*Y210607D01*
X331819Y211405D02*X334181D01*
X315457Y202393D02*Y201607D01*
X322543Y202393D02*Y201607D01*
G54D34*X329600Y180600D02*X333400D01*
X329600Y159400D02*X333400D01*
G54D33*X331819Y199595D02*X334181D01*
X264595Y257681D02*Y255319D01*
X276405Y257681D02*Y255319D01*
X331819Y257405D02*X334181D01*
X331819Y245595D02*X334181D01*
X209095Y236181D02*Y233819D01*
X220905Y236181D02*Y233819D01*
G54D30*X251500Y170500D02*X258000D01*
X251500Y165500D02*X258000D01*
X251500Y160500D02*X258000D01*
X251500Y155500D02*X258000D01*
X251500Y185500D02*X258000D01*
X251500Y180500D02*X258000D01*
X251500Y175500D02*X258000D01*
X231000Y155500D02*X237500D01*
X231000Y160500D02*X237500D01*
X231000Y165500D02*X237500D01*
X231000Y170500D02*X237500D01*
X231000Y175500D02*X237500D01*
X231000Y180500D02*X237500D01*
X231000Y185500D02*X237500D01*
X190000Y180500D02*X196500D01*
X190000Y185500D02*X196500D01*
X210500D02*X217000D01*
X210500Y180500D02*X217000D01*
X210500Y175500D02*X217000D01*
X210500Y170500D02*X217000D01*
X210500Y165500D02*X217000D01*
X190000D02*X196500D01*
X210500Y160500D02*X217000D01*
X190000D02*X196500D01*
X190000Y150500D02*X196500D01*
X190000Y155500D02*X196500D01*
X190000Y170500D02*X196500D01*
X190000Y175500D02*X196500D01*
X210500Y155500D02*X217000D01*
X210500Y150500D02*X217000D01*
G54D38*X367100Y392000D02*Y391400D01*
G54D33*X368905Y402181D02*Y399819D01*
X357095Y402181D02*Y399819D01*
G54D38*X371000Y383800D02*Y383200D01*
X363200Y383800D02*Y383200D01*
G54D33*X350819Y379595D02*X353181D01*
X350819Y391405D02*X353181D01*
G54D40*G54D18*G54D41*G54D42*G54D18*G54D40*G54D41*G54D40*G54D43*G54D44*G54D42*G54D44*G54D45*G54D42*G54D20*G54D40*G54D20*G54D46*G54D47*G54D20*G54D48*G54D49*G54D50*G54D42*G54D51*G54D40*G54D41*G54D40*G54D47*G54D41*G54D20*G54D41*G54D11*G54D17*G54D11*G54D17*G54D11*G54D17*G54D11*G54D17*G54D11*G54D17*G54D11*G54D17*G54D11*G54D17*G54D11*G54D52*X194000Y92500D02*X523000D01*
X173000Y404500D02*Y103500D01*
X175500Y101000D02*X185500D01*
X175500Y407000D02*X185500D01*
X531500D02*X550000D01*
X552500Y404500D02*Y103500D01*
X531500Y101000D02*X550000D01*
X501500Y272000D02*X515500D01*
X194000Y415500D02*X523000D01*
X497000Y290000D02*Y276500D01*
X506000Y290000D02*Y285500D01*
X510500Y281000D02*X515500D01*
X442500Y352000D02*Y342000D01*
X456000Y346500D02*X459000D01*
X506000Y342000D02*Y333000D01*
X447000Y337500D02*X459000D01*
X492500Y346500D02*X501500D01*
X451500Y352000D02*Y351000D01*
X191500Y413000D02*G75*G02X194000Y415500I2500J0D01*G01*
X173000Y404500D02*G75*G02X175500Y407000I2500J0D01*G01*
X185500Y101000D02*G75*G02X191500Y95000I0J-6000D01*G01*
Y413000D02*G75*G02X185500Y407000I-6000J0D01*G01*
X175500Y101000D02*G75*G02X173000Y103500I0J2500D01*G01*
X194000Y92500D02*G75*G02X191500Y95000I0J2500D01*G01*
X552500Y103500D02*G75*G02X550000Y101000I-2500J0D01*G01*
X525500Y95000D02*G75*G02X523000Y92500I-2500J0D01*G01*
Y415500D02*G75*G02X525500Y413000I0J-2500D01*G01*
Y95000D02*G75*G02X531500Y101000I6000J0D01*G01*
Y407000D02*G75*G02X525500Y413000I0J6000D01*G01*
X550000Y407000D02*G75*G02X552500Y404500I0J-2500D01*G01*
X451500Y352000D02*G75*G03X447000Y356500I-4500J0D01*G01*
X442500Y342000D02*G75*G03X447000Y337500I4500J0D01*G01*
X459000D02*G75*G03X463500Y342000I0J4500D01*G01*
G75*G03X459000Y346500I-4500J0D01*G01*
X451500Y351000D02*G75*G03X456000Y346500I4500J0D01*G01*
X447000Y356500D02*G75*G03X442500Y352000I0J-4500D01*G01*
X497000Y276500D02*G75*G03X501500Y272000I4500J0D01*G01*
X506000Y290000D02*G75*G03X501500Y294500I-4500J0D01*G01*
G75*G03X497000Y290000I0J-4500D01*G01*
X506000Y285500D02*G75*G03X510500Y281000I4500J0D01*G01*
X515500Y272000D02*G75*G03X520000Y276500I0J4500D01*G01*
G75*G03X515500Y281000I-4500J0D01*G01*
X492500Y346500D02*G75*G03X488000Y342000I0J-4500D01*G01*
G75*G03X492500Y337500I4500J0D01*G01*
X506000Y342000D02*G75*G03X501500Y346500I-4500J0D01*G01*
X497000Y333000D02*G75*G03X501500Y328500I4500J0D01*G01*
G75*G03X506000Y333000I0J4500D01*G01*
X497000D02*G75*G03X492500Y337500I-4500J0D01*G01*
M02*
