M48
INCH
T11C0.020
T17C0.035
T18C0.060
T20C0.052
T40C0.038
T41C0.022
T45C0.043
T48C0.062
T51C0.030
T80C0.067
T81C0.103
T82C0.041
T83C0.042
T84C0.046
%
T11
X016300Y034400
X014450Y033900
X017400Y033900
X017400Y034400
X014450Y034400
X011500Y036000
X011500Y035400
X019800Y036500
X020150Y033900
X013350Y037500
X013500Y038900
X015350Y037000
X019750Y035800
X011500Y031150
X012800Y030550
X011500Y031550
X007300Y031600
X007950Y031600
X015600Y032000
X013600Y030550
X015450Y029550
X014650Y032450
X013100Y032950
X011850Y032950
X013100Y029050
X011550Y029350
X012700Y032350
X015950Y032900
X015350Y037500
X015050Y039900
X019800Y037500
X017800Y037700
X019800Y037000
X021750Y037000
X028550Y040500
X028550Y039150
X028550Y036650
X027100Y035700
X029300Y035700
X030350Y035700
X024900Y037200
X023700Y039950
X025600Y039800
X025600Y040300
X024900Y036700
X025400Y036700
X027100Y037750
X020100Y032050
X018400Y029900
X020100Y031300
X020500Y029550
X021750Y029800
X022400Y030400
X025750Y028850
X025300Y029350
X027350Y028850
X024900Y031900
X024900Y031400
X025400Y031400
X024900Y034050
X024900Y034550
X025400Y034050
X024900Y033050
X020100Y032800
X018850Y011200
X018350Y010600
X018850Y012100
X018350Y012600
X018850Y012600
X013450Y010550
X015500Y010600
X016000Y013950
X015500Y012600
X015500Y012100
X015500Y013100
X014000Y013950
X014700Y026300
X015150Y025900
X015150Y025400
X018100Y023400
X016150Y021050
X017700Y021050
X016900Y021950
X013450Y020650
X013250Y021150
X013200Y023600
X014000Y020650
X014050Y021350
X015150Y024900
X015700Y024200
X018100Y025750
X015650Y024950
X017200Y024400
X017700Y025250
X010300Y020550
X010300Y020150
X010800Y024100
X007900Y027900
X007900Y027450
X008850Y026800
X009550Y026800
X016100Y018050
X017600Y017050
X015750Y016750
X016500Y014550
X016550Y013950
X018850Y013600
X018150Y015050
X021200Y024300
X019900Y022550
X014700Y019600
X012700Y019600
X026650Y019900
X035500Y019900
X021750Y022400
X023550Y021600
X023700Y024150
X025400Y021300
X025400Y024150
X024800Y024150
X024800Y021300
X022300Y019350
X037750Y019400
X022250Y021750
X022600Y023100
X008700Y023600
X010800Y023600
X009000Y022400
X021750Y023600
X010900Y022400
X035450Y021300
X035450Y022100
X014000Y026300
X015450Y027900
X013250Y027350
X017200Y024900
X019850Y027900
X021150Y027350
X019900Y025250
X022300Y027900
X019900Y025850
X022450Y026400
X024200Y027850
X024800Y026400
X009900Y015750
X009400Y015350
X009900Y014900
X008950Y014500
X013500Y016550
X013500Y016050
X013500Y015550
X013800Y017800
X014000Y017100
X009900Y018050
X009800Y016550
X011700Y016250
X011700Y017050
X011700Y017550
X011450Y018550
X011950Y018550
X011700Y018050
X012750Y014550
X012750Y014050
X007850Y015550
X007850Y015050
X007850Y016550
X007850Y018550
X025550Y010700
X025550Y011900
X026150Y010700
X026150Y011900
X025400Y013000
X026050Y013000
X026650Y013000
X029900Y010750
X028750Y011250
X028050Y010500
X030100Y011400
X028050Y013000
X030100Y013150
X031050Y013000
X030100Y012650
X027400Y010700
X027500Y012500
X028150Y011250
X028150Y011900
X031000Y011450
X030550Y010550
X037550Y018100
X037550Y017600
X039150Y012600
X039250Y014850
X039250Y015400
X038050Y017100
X036000Y017100
X043600Y017300
X043600Y018300
X043600Y019300
X024100Y017100
X024800Y018500
X024800Y017200
X024800Y017650
X024800Y018050
X038400Y016000
X035550Y015500
X035550Y016350
X034200Y014550
X024100Y015300
X023200Y014600
X024150Y014600
X023650Y014600
X024650Y014600
X036600Y015450
X037100Y014950
X027900Y017600
X030050Y017100
X028600Y019100
X030050Y016350
X033800Y019950
X029100Y019950
X031350Y019900
X023650Y019000
X026700Y015400
X032600Y017600
X034750Y017100
X033300Y019100
T41
X018150Y017450
X018150Y020450
X022500Y035800
X022500Y038800
X026350Y024950
X029350Y024950
X031050Y026450
X029350Y026450
X026350Y026450
X031050Y024950
X034050Y026450
X034050Y024950
T51
X038350Y011750
X036350Y011750
T17
X012650Y035350
X011400Y040300
X008550Y029200
X009550Y028900
X029800Y028700
X010850Y026100
X010850Y025450
X010850Y027550
X042000Y023300
X042650Y023300
X037000Y026800
X031800Y011100
T40
X016400Y011850
X016400Y012850
X022450Y033800
X022450Y032800
X022450Y031800
X028600Y028800
X034200Y010750
X033200Y010750
X042500Y029000
X042500Y030000
X042500Y031000
X041509Y028994
T82
X042600Y036050
X042600Y035050
X042600Y034050
X042600Y033050
T83
X040700Y018300
X040700Y017300
X040700Y019300
T45
X012650Y039900
X013650Y039900
X016450Y039900
X017450Y039900
X020250Y039900
X021250Y039900
T84
X041710Y018300
X041710Y016300
X041710Y020300
X043610Y016300
X043610Y020300
T20
X031800Y039150
X035800Y039150
X037800Y037150
X029800Y037150
X029800Y031150
X031800Y029150
X037800Y031150
X035800Y029150
T18
X020600Y015950
X020600Y016950
X020600Y017950
X021800Y011000
X021800Y012000
X021800Y013000
T48
X027800Y034150
T80
X009700Y033550
T81
X009700Y031580
X009700Y035520
X007930Y033550
M30
